<svg width="460" height="134" viewBox="0 0 460 134" fill="none" xmlns="http://www.w3.org/2000/svg">
<path d="M154.584 24.5033L118.587 125.483L6.49395 85.007L2.3291 90.4075L121.753 133.752L160 25.6484L154.584 24.5033Z" fill="white"/>
<path fill-rule="evenodd" clip-rule="evenodd" d="M66.7103 5.30603L150.877 23.0123L116.119 120.878L7.59766 81.6401L66.7103 5.30603ZM67.1597 6.53276L9.40401 81.1155L115.449 119.458L149.408 23.8354L67.1597 6.53276Z" fill="white"/>
<path fill-rule="evenodd" clip-rule="evenodd" d="M64.702 0.932787L156.831 20.083L118.783 125.932L0 83.4899L64.702 0.932787ZM64.9634 1.64424L1.05737 83.1842L118.393 125.11L155.973 20.5624L64.9634 1.64424Z" fill="white"/>
<path d="M79.8861 70.9258C79.8362 70.4885 80.1035 69.8091 80.688 68.8877C78.0269 69.5976 75.3042 70.0555 72.558 70.255C69.8147 70.4538 67.3446 70.324 65.1417 69.8658C62.7186 69.3597 60.689 68.4848 59.0501 67.24C57.4112 65.9955 56.5477 64.4265 56.4625 62.533C56.3773 60.6394 57.1351 58.7399 58.7417 56.8343C60.7155 54.4867 63.8053 52.3658 68.0084 50.4722C72.044 48.6265 76.341 47.4194 80.7496 46.8939C85.0408 46.397 88.7416 46.4745 91.8491 47.1265C94.2193 47.6235 96.1989 48.4315 97.785 49.5508C99.371 50.6702 100.367 52.0794 100.766 53.7794L104.913 50.6602L112.221 52.1854L93.9226 65.8117C91.3791 67.7132 89.9928 68.7735 89.7637 68.992C89.4112 69.4076 89.3906 69.8235 89.699 70.24C90.0074 70.6565 90.5596 70.9478 91.3527 71.1138C92.8007 71.4119 95.0799 71.3573 98.1903 70.9499C102.132 70.4664 105.977 69.3838 109.592 67.7396C113.082 66.1324 115.716 64.2714 117.496 62.1573C119.57 59.688 120.345 57.1389 119.819 54.5099C119.291 51.8809 117.258 49.441 113.722 47.1906C110.183 44.941 105.621 43.2334 100.038 42.0673C93.6231 40.7339 87.0527 40.3224 80.5235 40.8449C73.8944 41.3598 67.8586 42.8228 62.4161 45.2344C56.9736 47.6458 52.7999 50.5783 49.901 54.0314C46.861 57.6473 45.692 61.0638 46.397 64.2805C47.0989 67.497 49.6748 70.3017 54.1187 72.6943C58.5596 75.0857 64.1196 76.9789 70.7957 78.3735C77.9329 79.8644 84.4621 80.4609 90.3834 80.1628C96.3017 79.8644 101.245 79.0335 105.213 77.6697L112.603 79.2114C109.918 80.4647 106.212 81.5418 101.48 82.4423C96.7482 83.3431 91.6669 83.7734 86.2362 83.7337C80.7937 83.695 74.7902 82.9912 68.2287 81.6222C62.1811 80.359 56.9589 78.7756 52.5591 76.872C48.1592 74.9685 44.8696 72.7962 42.6874 70.3548C40.508 67.9196 39.433 65.4137 39.4595 62.8372C39.5123 59.575 40.8957 56.3309 43.6096 53.1054C46.6349 49.51 50.8761 46.3691 56.3362 43.6822C63.0152 40.3832 70.3023 38.3102 78.2002 37.4631C86.0952 36.6163 94.3985 37.1024 103.11 38.9214C109.862 40.3309 115.296 42.3452 119.414 44.9645C123.532 47.5836 125.896 50.699 126.507 54.3102C127.004 57.4135 125.993 60.4614 123.47 63.4543C119.875 67.7287 113.898 70.9464 105.548 73.1072C98.0787 75.0495 91.4026 75.407 85.5137 74.1793C83.631 73.7877 82.2417 73.3175 81.337 72.7688C80.4353 72.2202 79.9507 71.6057 79.8832 70.9258H79.8861ZM66.061 58.707C64.3487 60.739 63.9023 62.5036 64.7188 64.0015C65.5353 65.4998 67.0832 66.486 69.3682 66.9613C70.8897 67.2773 72.696 67.3678 74.7931 67.2327C77.0547 67.0691 79.2958 66.6693 81.4751 66.0399C83.8924 65.3538 86.2097 64.3604 88.3715 63.0845C90.6125 61.7687 92.3865 60.3724 93.6906 58.8965C95.3648 56.8567 95.7554 55.0856 94.8625 53.5826C93.9726 52.0797 92.2074 51.0529 89.5757 50.5022C87.7606 50.1362 85.9014 50.0358 84.0568 50.2038C82.1154 50.365 79.9801 50.8297 77.6451 51.598C75.2807 52.3802 73.0162 53.4461 70.9044 54.7722C68.7485 56.1153 67.1331 57.4268 66.061 58.707Z" fill="white"/>
<path d="M79.8861 70.9258C79.8362 70.4885 80.1035 69.8091 80.688 68.8877C78.0269 69.5976 75.3042 70.0555 72.558 70.255C69.8147 70.4538 67.3446 70.324 65.1417 69.8658C62.7186 69.3597 60.689 68.4848 59.0501 67.24C57.4112 65.9955 56.5477 64.4265 56.4625 62.533C56.3773 60.6394 57.1351 58.7399 58.7417 56.8343C60.7155 54.4867 63.8053 52.3658 68.0084 50.4722C72.044 48.6265 76.341 47.4194 80.7496 46.8939C85.0408 46.397 88.7416 46.4745 91.8491 47.1265C94.2193 47.6235 96.1989 48.4315 97.785 49.5508C99.371 50.6702 100.367 52.0794 100.766 53.7794L104.913 50.6602L112.221 52.1854L93.9226 65.8117C91.3791 67.7132 89.9928 68.7735 89.7637 68.992C89.4112 69.4076 89.3906 69.8235 89.699 70.24C90.0074 70.6565 90.5596 70.9478 91.3527 71.1138C92.8007 71.4119 95.0799 71.3573 98.1903 70.9499C102.132 70.4664 105.977 69.3838 109.592 67.7396C113.082 66.1324 115.716 64.2714 117.496 62.1573C119.57 59.688 120.345 57.1389 119.819 54.5099C119.291 51.8809 117.258 49.441 113.722 47.1906C110.183 44.941 105.621 43.2334 100.038 42.0673C93.6231 40.7339 87.0527 40.3224 80.5235 40.8449C73.8944 41.3598 67.8586 42.8228 62.4161 45.2344C56.9736 47.6458 52.7999 50.5783 49.901 54.0314C46.861 57.6473 45.692 61.0638 46.397 64.2805C47.0989 67.497 49.6748 70.3017 54.1187 72.6943C58.5596 75.0857 64.1196 76.9789 70.7957 78.3735C77.9329 79.8644 84.4621 80.4609 90.3834 80.1628C96.3017 79.8644 101.245 79.0335 105.213 77.6697L112.603 79.2114C109.918 80.4647 106.212 81.5418 101.48 82.4423C96.7482 83.3431 91.6669 83.7734 86.2362 83.7337C80.7937 83.695 74.7902 82.9912 68.2287 81.6222C62.1811 80.359 56.9589 78.7756 52.5591 76.872C48.1592 74.9685 44.8696 72.7962 42.6874 70.3548C40.508 67.9196 39.433 65.4137 39.4595 62.8372C39.5123 59.575 40.8957 56.3309 43.6096 53.1054C46.6349 49.51 50.8761 46.3691 56.3362 43.6822C63.0152 40.3832 70.3023 38.3102 78.2002 37.4631C86.0952 36.6163 94.3985 37.1024 103.11 38.9214C109.862 40.3309 115.296 42.3452 119.414 44.9645C123.532 47.5836 125.896 50.699 126.507 54.3102C127.004 57.4135 125.993 60.4614 123.47 63.4543C119.875 67.7287 113.898 70.9464 105.548 73.1072C98.0787 75.0495 91.4026 75.407 85.5137 74.1793C83.631 73.7877 82.2417 73.3175 81.337 72.7688C80.4353 72.2202 79.9507 71.6057 79.8832 70.9258H79.8861ZM66.061 58.707C64.3487 60.739 63.9023 62.5036 64.7188 64.0015C65.5353 65.4998 67.0832 66.486 69.3682 66.9613C70.8897 67.2773 72.696 67.3678 74.7931 67.2327C77.0547 67.0691 79.2958 66.6693 81.4751 66.0399C83.8924 65.3538 86.2097 64.3604 88.3715 63.0845C90.6125 61.7687 92.3865 60.3724 93.6906 58.8965C95.3648 56.8567 95.7554 55.0856 94.8625 53.5826C93.9726 52.0797 92.2074 51.0529 89.5757 50.5022C87.7606 50.1362 85.9014 50.0358 84.0568 50.2038C82.1154 50.365 79.9801 50.8297 77.6451 51.598C75.2807 52.3802 73.0162 53.4461 70.9044 54.7722C68.7485 56.1153 67.1331 57.4268 66.061 58.707Z" fill="white"/>
<path d="M184.549 84.6999V62.3368H178V57.7803H195.558V62.3443H189.009V84.6999H184.549Z" fill="white"/>
<path d="M198.448 84.6999V57.7803H202.909V68.3707H211.652V57.7803H216.111V84.6999H211.652V72.9258H202.909V84.6999H198.448Z" fill="white"/>
<path d="M240.604 84.6999H235.768L233.843 78.6076H225.015L223.19 84.7029H218.447L227.016 57.7803H231.784L240.604 84.6999ZM232.429 74.0405L229.369 64.0524L226.372 74.0405H232.429Z" fill="white"/>
<path d="M242.836 84.6999V57.7803H247.295V84.6999H242.836Z" fill="white"/>
<path d="M263.26 84.6999L257.973 57.7803H262.547L265.866 76.2851L269.868 57.7803H275.168L279.064 76.6072L282.439 57.7803H286.921L281.63 84.7074H276.867L272.447 64.5589L268.088 84.7074L263.26 84.6999Z" fill="white"/>
<path d="M289.24 84.6999V57.7803H305.613V62.3443H293.705V68.3003H304.784V72.8299H293.705V80.1449H306.037V84.7074L289.24 84.6999Z" fill="white"/>
<path d="M309.784 57.7803H318.625C321.037 57.7803 322.735 58.0005 323.719 58.441C324.703 58.8816 325.529 59.6587 326.199 60.7725C326.837 61.8772 327.185 63.1254 327.212 64.401C327.238 65.6766 326.941 66.938 326.349 68.068C325.77 69.1139 325.021 69.8881 324.101 70.3905C325.368 70.8195 326.454 71.661 327.186 72.7804C327.928 73.9072 328.299 75.2792 328.299 76.8964C328.299 78.8563 327.828 80.514 326.885 81.8695C325.942 83.225 324.828 84.0606 323.542 84.3763C322.643 84.6 320.567 84.7104 317.315 84.7074H309.801L309.784 57.7803ZM314.243 62.2754V68.4771H317.173C318.931 68.4771 320.017 68.4466 320.432 68.3857C321.123 68.2958 321.756 67.9492 322.204 67.4148C322.632 66.8983 322.845 66.1941 322.844 65.3021C322.844 64.5109 322.67 63.8681 322.323 63.3737C322.03 62.9198 321.58 62.5903 321.059 62.4492C320.565 62.3283 319.146 62.2674 316.804 62.2664L314.243 62.2754ZM314.243 72.9707V80.1464H318.376C320.189 80.1464 321.353 80.052 321.867 79.8632C322.412 79.647 322.867 79.2531 323.16 78.7454C323.511 78.191 323.684 77.4853 323.684 76.6327C323.684 75.7527 323.498 75.029 323.126 74.4616C322.776 73.9141 322.251 73.5011 321.636 73.2899C321.019 73.0771 319.755 72.9707 317.844 72.9707H314.243Z" fill="white"/>
<path d="M332.013 84.6999V57.7803H338.674L342.692 76.1832L346.649 57.7803H353.37V84.6999H349.226V63.474L344.824 84.7044H340.544L336.16 63.474V84.6999H332.013Z" fill="white"/>
<path d="M377.674 84.6999H372.837L370.912 78.6076H362.082L360.263 84.6999H355.523L364.087 57.7803H368.854L377.674 84.6999ZM369.497 74.0405L366.439 64.0524L363.442 74.0405H369.497Z" fill="white"/>
<path d="M387.93 85.1539C382.518 85.1539 379.506 82.0763 378.895 75.921L383.25 75.3996C383.739 78.8368 385.337 80.5554 388.045 80.5554C389.388 80.5554 390.444 80.2058 391.216 79.5066C391.586 79.1808 391.881 78.7784 392.08 78.3271C392.28 77.8759 392.378 77.3866 392.369 76.8934C392.386 76.3464 392.247 75.8058 391.968 75.3351C391.665 74.8791 391.241 74.516 390.744 74.2863C390.195 74.0106 388.862 73.5496 386.744 72.9033C384.847 72.3289 383.457 71.7056 382.574 71.0333C381.672 70.3322 380.952 69.4233 380.477 68.3842C379.955 67.2809 379.689 66.0743 379.698 64.8541C379.677 63.4677 380.022 62.1005 380.7 60.8909C381.337 59.7473 382.302 58.8209 383.471 58.2313C384.648 57.6319 386.102 57.3322 387.832 57.3322C390.429 57.3322 392.461 58.0365 393.926 59.4449C395.392 60.8534 396.164 62.8667 396.244 65.4849L391.785 65.7216C391.585 64.2742 391.16 63.2618 390.508 62.6844C389.857 62.107 388.927 61.8189 387.717 61.8199C386.509 61.8199 385.579 62.0696 384.925 62.569C384.272 63.0685 383.946 63.6903 383.946 64.4345C383.943 64.7909 384.023 65.1429 384.179 65.4634C384.335 65.7838 384.563 66.0639 384.845 66.282C385.438 66.7814 386.793 67.3308 388.911 67.9302C391.152 68.5805 392.77 69.2642 393.767 69.9815C394.759 70.6895 395.546 71.6453 396.052 72.7534C396.577 73.8852 396.839 75.2592 396.84 76.8754C396.84 79.2129 396.121 81.1778 394.683 82.77C393.244 84.3623 390.997 85.1579 387.94 85.1569L387.93 85.1539Z" fill="white"/>
<path d="M405.564 84.6999V62.3368H399.015V57.7803H416.571V62.3443H410.023V84.6999H405.564Z" fill="white"/>
<path d="M419.463 84.6999V57.7803H435.837V62.3443H423.924V68.3003H434.999V72.8299H423.924V80.1449H436.255V84.7074L419.463 84.6999Z" fill="white"/>
<path d="M440.037 84.6999V57.7803H449.415C451.813 57.7803 453.526 58.022 454.555 58.5055C455.584 58.9889 456.428 59.827 457.089 61.0197C457.749 62.2184 458.079 63.6479 458.08 65.308C458.08 67.4128 457.576 69.1074 456.567 70.392C455.558 71.6766 454.125 72.4842 452.267 72.8149C453.162 73.4468 453.96 74.2071 454.634 75.0714C455.26 75.8865 456.109 77.3474 457.181 79.4541L459.855 84.7074H454.51L451.317 78.8473C450.165 76.7226 449.381 75.3941 448.966 74.8616C448.626 74.3883 448.172 74.0085 447.646 73.7573C447.182 73.5576 446.438 73.4577 445.412 73.4577H444.496V84.7089L440.037 84.6999ZM444.496 69.1678H447.793C449.806 69.1678 451.088 69.0789 451.637 68.9011C452.197 68.7154 452.671 68.3346 452.973 67.8283C453.314 67.2889 453.485 66.5727 453.486 65.6796C453.486 64.8226 453.315 64.1343 452.973 63.6149C452.646 63.1074 452.155 62.728 451.582 62.5406C451.165 62.4067 449.963 62.3398 447.975 62.3398H444.498L444.496 69.1678Z" fill="white"/>
<path d="M179.044 117.541L187.534 90.614H190.668L199.702 117.541H196.359L193.794 109.39H184.491L182.107 117.541H179.044ZM185.337 106.5H192.895L190.593 99.0348C189.882 96.7433 189.361 94.8803 189.029 93.4459C188.739 95.1866 188.333 96.9061 187.814 98.5928L185.337 106.5Z" fill="white"/>
<path d="M208.42 108.798L211.207 108.555C211.352 110.043 211.684 111.202 212.205 112.032C212.75 112.889 213.518 113.581 214.427 114.035C215.435 114.547 216.554 114.805 217.684 114.784C219.416 114.784 220.761 114.36 221.719 113.512C222.677 112.664 223.156 111.565 223.156 110.216C223.173 109.488 222.992 108.77 222.633 108.137C222.252 107.516 221.706 107.013 221.056 106.682C220.356 106.307 218.837 105.77 216.498 105.073C214.42 104.454 212.938 103.832 212.053 103.208C211.181 102.597 210.473 101.781 209.992 100.831C209.49 99.8205 209.237 98.7039 209.256 97.5754C209.256 95.3968 209.96 93.6167 211.367 92.2352C212.775 90.8537 214.673 90.1625 217.061 90.1615C218.702 90.1615 220.137 90.4861 221.364 91.1354C222.573 91.7639 223.569 92.7356 224.228 93.9284C224.907 95.14 225.271 96.567 225.32 98.2092L222.533 98.4534C222.386 96.7033 221.863 95.4048 220.963 94.5577C220.063 93.7106 218.798 93.2886 217.169 93.2916C215.516 93.2916 214.255 93.6617 213.386 94.4018C212.962 94.7496 212.624 95.1895 212.397 95.6878C212.17 96.1861 212.06 96.7297 212.074 97.2772C212.074 98.366 212.393 99.2096 213.03 99.808C213.668 100.406 215.097 101.012 217.319 101.624C219.494 102.223 221.023 102.744 221.904 103.187C223.247 103.872 224.262 104.774 224.947 105.893C225.632 107.012 225.974 108.348 225.972 109.902C225.989 111.377 225.615 112.83 224.888 114.113C224.207 115.341 223.184 116.345 221.944 117.005C220.702 117.666 219.207 117.997 217.46 117.997C214.731 117.997 212.556 117.169 210.937 115.514C209.318 113.859 208.479 111.62 208.42 108.798Z" fill="white"/>
<path d="M236.367 108.798L239.153 108.555C239.299 110.043 239.632 111.202 240.151 112.032C240.696 112.889 241.465 113.581 242.374 114.035C243.382 114.547 244.5 114.805 245.63 114.784C247.362 114.784 248.708 114.36 249.667 113.512C250.626 112.664 251.104 111.565 251.102 110.216C251.119 109.488 250.939 108.77 250.579 108.137C250.198 107.516 249.652 107.012 249.001 106.682C248.302 106.307 246.783 105.77 244.443 105.073C242.366 104.454 240.885 103.832 240.001 103.208C239.128 102.598 238.42 101.781 237.939 100.831C237.436 99.8207 237.184 98.704 237.203 97.5754C237.203 95.3968 237.907 93.6167 239.313 92.2352C240.719 90.8537 242.617 90.1625 245.007 90.1615C246.646 90.1615 248.08 90.4861 249.31 91.1354C250.518 91.7648 251.514 92.7362 252.173 93.9284C252.851 95.14 253.214 96.567 253.264 98.2092L250.479 98.4534C250.33 96.7033 249.806 95.4048 248.907 94.5577C248.008 93.7106 246.743 93.2886 245.112 93.2916C243.459 93.2916 242.198 93.6617 241.328 94.4018C240.907 94.7499 240.571 95.1894 240.345 95.6868C240.119 96.1842 240.01 96.7266 240.025 97.2727C240.025 98.3615 240.343 99.2051 240.979 99.8035C241.615 100.402 243.046 101.007 245.27 101.619C247.447 102.219 248.975 102.74 249.855 103.182C251.201 103.868 252.215 104.77 252.899 105.888C253.582 107.007 253.924 108.344 253.924 109.898C253.941 111.372 253.568 112.825 252.842 114.108C252.159 115.336 251.137 116.34 249.897 117C248.656 117.662 247.16 117.992 245.411 117.992C242.682 117.992 240.508 117.165 238.889 115.509C237.27 113.854 236.429 111.617 236.367 108.798Z" fill="white"/>
<path d="M267.185 113.738C265.387 111.172 264.488 108.071 264.488 104.436C264.488 99.8484 265.498 96.3228 267.518 93.8594C269.538 91.3961 272.053 90.1635 275.062 90.1615C276.965 90.1465 278.825 90.7224 280.386 91.8097C281.984 92.9085 283.254 94.5067 284.195 96.6045C285.136 98.7022 285.604 101.199 285.599 104.096C285.599 108.085 284.693 111.331 282.882 113.836C280.884 116.599 278.271 117.981 275.043 117.983C271.788 117.983 269.17 116.564 267.187 113.725L267.185 113.738ZM267.518 104.483C267.518 107.792 268.247 110.361 269.706 112.19C271.164 114.019 272.937 114.932 275.025 114.929C277.16 114.929 278.951 114.007 280.396 112.162C281.842 110.317 282.566 107.604 282.568 104.024C282.568 101.714 282.195 99.6486 281.45 97.8286C280.918 96.4939 280.02 95.3366 278.859 94.4903C277.768 93.6743 276.441 93.2338 275.079 93.2346C272.881 93.2346 271.072 94.1506 269.65 95.9826C268.229 97.8146 267.516 100.648 267.513 104.483H267.518Z" fill="white"/>
<path d="M312.381 108.101L315.307 109C314.657 112.022 313.52 114.276 311.897 115.761C310.274 117.246 308.297 117.99 305.968 117.991C303.921 117.991 302.173 117.491 300.724 116.492C299.274 115.493 298.086 113.895 297.158 111.698C296.232 109.493 295.769 106.891 295.769 103.893C295.769 100.932 296.232 98.426 297.158 96.3752C298.084 94.3244 299.337 92.7761 300.918 91.7303C302.486 90.6871 304.331 90.1399 306.214 90.16C308.346 90.16 310.178 90.8208 311.71 92.1423C313.241 93.4639 314.314 95.4043 314.93 97.9635L312.072 98.7996C311.092 95.0836 309.125 93.2256 306.172 93.2256C304.7 93.2256 303.425 93.6012 302.346 94.3524C301.268 95.1036 300.407 96.2743 299.765 97.8646C299.122 99.4529 298.801 101.462 298.8 103.893C298.8 107.571 299.449 110.33 300.748 112.171C302.046 114.012 303.775 114.931 305.933 114.928C306.7 114.937 307.46 114.792 308.169 114.501C308.878 114.21 309.521 113.78 310.06 113.235C311.216 112.108 311.989 110.397 312.381 108.101Z" fill="white"/>
<path d="M326.864 117.541V90.614H329.791V117.541H326.864Z" fill="white"/>
<path d="M339.854 117.541L348.343 90.614H351.478L360.511 117.541H357.169L354.608 109.39H345.303L342.921 117.541H339.854ZM346.147 106.5H353.697L351.395 99.0348C350.685 96.7433 350.164 94.8803 349.833 93.4459C349.543 95.1868 349.136 96.9063 348.616 98.5928L346.147 106.5Z" fill="white"/>
<path d="M373.626 117.541V93.7845H366.346V90.614H383.868V93.7845H376.551V117.541H373.626Z" fill="white"/>
<path d="M394.726 117.541V90.614H397.652V117.541H394.726Z" fill="white"/>
<path d="M412.018 113.738C410.22 111.172 409.321 108.071 409.321 104.436C409.321 99.8484 410.331 96.3227 412.351 93.8594C414.371 91.3961 416.887 90.1635 419.898 90.1615C421.801 90.1463 423.661 90.7222 425.222 91.8097C426.825 92.9085 428.095 94.5067 429.031 96.6044C429.967 98.7022 430.435 101.199 430.435 104.096C430.435 108.085 429.53 111.331 427.72 113.836C425.722 116.599 423.109 117.981 419.88 117.983C416.624 117.983 414.005 116.564 412.024 113.725L412.018 113.738ZM412.35 104.483C412.35 107.792 413.079 110.361 414.537 112.19C415.996 114.019 417.769 114.932 419.856 114.929C421.992 114.929 423.783 114.007 425.228 112.162C426.673 110.317 427.397 107.604 427.399 104.024C427.399 101.714 427.027 99.6486 426.281 97.8286C425.75 96.4943 424.852 95.3371 423.692 94.4902C422.601 93.6745 421.274 93.234 419.912 93.2346C417.714 93.2346 415.904 94.1506 414.482 95.9826C413.059 97.8146 412.349 100.648 412.35 104.483Z" fill="white"/>
<path d="M441.431 117.541V90.614H444.436L456.028 111.822V90.614H458.815V117.541H455.827L444.254 96.3677V117.541H441.431Z" fill="white"/>
<path d="M197.97 22.1865C197.521 22.7986 196.955 23.3164 196.306 23.7104C195.614 24.0781 194.869 24.3364 194.098 24.476C194.589 24.9148 194.98 25.4541 195.244 26.0573C195.507 26.6605 195.638 27.3135 195.627 27.9717V42.0639H193.045L188.116 31.5753C187.896 31.1608 187.566 30.8149 187.163 30.5759C186.844 30.3621 186.465 30.2569 186.082 30.2762C185.942 30.2738 185.803 30.2823 185.664 30.3017C184.453 30.4875 183.853 31.2007 183.853 32.4623V36.0749C183.977 36.0278 184.105 35.9942 184.236 35.9745C184.386 35.9445 184.65 35.9191 185.036 35.8876C185.894 35.8691 186.725 36.187 187.351 36.7731C187.664 37.0588 187.912 37.4087 188.078 37.799C188.243 38.1892 188.323 38.6105 188.31 39.0342C188.315 39.4564 188.235 39.8752 188.075 40.2658C187.894 40.6796 187.634 41.0541 187.309 41.3686C186.725 41.999 185.929 42.3151 184.922 42.3171C183.817 42.3171 182.94 41.998 182.293 41.3596C181.659 40.6713 181.318 39.7629 181.343 38.8274V32.2046C181.343 31.2037 181.674 30.3976 182.35 29.7668C182.897 29.1623 183.615 28.7385 184.409 28.5516C184.639 28.5082 184.97 28.4617 185.402 28.4168C185.833 28.3718 186.102 28.3358 186.202 28.3179C186.651 28.3133 187.098 28.3539 187.539 28.4392C187.939 28.5158 188.325 28.6564 188.68 28.8558C189.334 29.1554 189.833 29.6959 190.179 30.477L193.119 36.8915V28.4227C193.119 27.3499 192.639 26.4284 191.689 25.6463C190.739 24.8641 189.591 24.476 188.232 24.476C185.479 24.476 183.655 25.5579 182.759 27.7215H180.159C180.63 26.1143 181.611 24.8322 183.102 23.8752C183.865 23.4359 184.682 23.0979 185.532 22.8698C186.461 22.6264 187.419 22.5075 188.379 22.5162C188.77 22.5162 189.154 22.5357 189.519 22.5656C189.924 22.6019 190.325 22.6726 190.718 22.7769C190.944 22.8233 191.168 22.8788 191.406 22.9267C191.667 23.0061 191.938 23.0886 192.217 23.1635C192.352 23.2015 192.493 23.2187 192.635 23.2144C193.145 23.1955 193.635 23.0127 194.033 22.693C194.687 22.1678 195.215 21.5021 195.577 20.7451L197.97 22.1865ZM186.5 39.0027C186.5 38.6731 186.35 38.3584 186.03 38.0632C185.902 37.9261 185.746 37.8183 185.572 37.7474C185.399 37.6766 185.212 37.6442 185.024 37.6527C184.634 37.6585 184.258 37.8041 183.965 38.0632C183.752 38.2625 183.622 38.5772 183.574 39.0027C183.568 39.1919 183.596 39.3806 183.656 39.5601C183.725 39.7267 183.831 39.8757 183.965 39.9961C184.108 40.0994 184.265 40.1802 184.433 40.2359C184.627 40.2984 184.828 40.3406 185.032 40.3617C185.221 40.3659 185.41 40.3407 185.592 40.2868C185.759 40.2187 185.911 40.1201 186.042 39.9961C186.185 39.8731 186.3 39.7208 186.379 39.5494C186.458 39.3779 186.5 39.1915 186.5 39.0027V39.0027Z" fill="white"/>
<path d="M217.251 39.4133C217.251 41.1674 216.479 42.0454 214.935 42.0474H214.073C213.68 40.9056 212.876 39.7569 211.661 38.6011C211.068 38.0169 210.406 37.5081 209.689 37.0863C209.021 36.7008 208.309 36.3988 207.567 36.1873V39.1076C207.58 39.5107 207.512 39.9124 207.367 40.2887C207.222 40.665 207.002 41.0083 206.722 41.2982C206.165 41.8826 205.373 42.1778 204.362 42.1778C203.368 42.1855 202.409 41.8061 201.689 41.1199C200.962 40.3372 200.571 39.3005 200.6 38.2326C200.6 37.1387 201.061 36.1768 201.975 35.3497C202.414 34.9524 202.922 34.6385 203.474 34.4237C204.022 34.2109 204.605 34.1027 205.194 34.1045V28.9322C205.067 28.9867 204.933 29.0225 204.797 29.0386C204.647 29.061 204.374 29.0925 203.974 29.1225C203.085 29.1336 202.225 28.8088 201.566 28.213C201.269 27.936 201.028 27.6043 200.856 27.236C200.677 26.8416 200.588 26.4121 200.595 25.9789C200.594 25.5511 200.679 25.1274 200.843 24.7325C201.008 24.3376 201.25 23.9794 201.554 23.6789C201.871 23.3543 202.251 23.0989 202.672 22.9287C203.092 22.7585 203.543 22.6772 203.996 22.69C205.081 22.69 205.939 23.0241 206.569 23.6924C207.231 24.3022 207.563 25.1218 207.563 26.1602V34.2274C208.178 34.287 208.781 34.4385 209.352 34.6769C211.443 35.6048 213.289 37.0062 214.746 38.7705V22.9117H217.254L217.251 39.4133ZM205.332 26.0149C205.33 25.8373 205.292 25.6619 205.22 25.4995C205.149 25.3371 205.044 25.1913 204.913 25.0709C204.786 24.9352 204.631 24.8274 204.46 24.7545C204.288 24.6815 204.103 24.6448 203.917 24.6469C203.725 24.6477 203.534 24.6868 203.357 24.7619C203.18 24.8371 203.019 24.9467 202.885 25.0844C202.657 25.2792 202.527 25.5878 202.474 26.0149C202.468 26.1977 202.498 26.3799 202.563 26.5513C202.633 26.7246 202.743 26.8787 202.885 27.0008C203.023 27.1003 203.174 27.18 203.334 27.2375C203.526 27.2963 203.724 27.3385 203.923 27.3634C204.293 27.368 204.651 27.2276 204.919 26.9723C205.053 26.8519 205.159 26.7039 205.23 26.5387C205.301 26.3734 205.336 26.1947 205.332 26.0149V26.0149ZM205.192 38.8394V36.1873C204.585 36.1711 203.992 36.3797 203.529 36.7731C203.329 36.9536 203.169 37.1741 203.059 37.4204C202.95 37.6666 202.894 37.9331 202.894 38.2026C202.876 38.648 202.99 39.0887 203.223 39.4687C203.338 39.6355 203.49 39.7732 203.667 39.8707C203.844 39.9683 204.042 40.0231 204.244 40.0306C204.882 40.0306 205.198 39.635 205.198 38.8379L205.192 38.8394Z" fill="white"/>
<path d="M233.751 42.0474H231.243V28.4122C231.243 27.2585 230.891 26.3055 230.194 25.5459C229.458 24.8147 228.488 24.4566 227.281 24.4566C226.206 24.4566 225.308 24.7353 224.604 25.2867C223.9 25.8381 223.332 26.6487 222.927 27.7035H220.315C220.7 26.2134 221.564 24.8913 222.774 23.9411C223.99 22.9792 225.513 22.4992 227.343 22.5012C229.216 22.5012 230.756 22.9822 231.958 23.9621C233.159 24.942 233.756 26.2591 233.756 27.9208L233.751 42.0474Z" fill="white"/>
<path d="M253.704 42.0474H251.196V29.596C251.225 28.3124 250.78 27.063 249.946 26.0868C248.996 25.0035 247.678 24.4611 245.978 24.4611C244.363 24.4611 243.041 24.944 242.012 25.91C240.983 26.8759 240.468 28.0097 240.466 29.3113C240.466 29.7428 240.479 30.1833 240.514 30.6358C240.55 31.1032 240.614 31.568 240.706 32.0278L241.305 35.0725V37.3725C241.27 37.6062 241.248 37.7771 241.236 37.8849L241.627 35.0066C241.813 34.0232 242.05 33.05 242.336 32.0907C242.588 31.2549 242.907 30.4406 243.29 29.6559C243.976 28.2055 245.077 27.4798 246.596 27.4788C247.467 27.4763 248.305 27.8108 248.935 28.4123C249.261 28.7001 249.521 29.0557 249.696 29.4542C249.871 29.8527 249.958 30.2845 249.949 30.7197C249.955 31.1433 249.873 31.5635 249.709 31.9539C249.545 32.3443 249.302 32.6965 248.995 32.9883C248.678 33.2964 248.302 33.5376 247.891 33.6977C247.479 33.8578 247.039 33.9335 246.597 33.9203C245.799 33.9277 245.023 33.6635 244.395 33.1711C244.08 33.9782 243.662 35.3767 243.14 37.3665C242.931 38.1951 242.73 38.9907 242.556 39.7639C242.382 40.537 242.204 41.2967 242.044 42.0594H239.369V39.0387C239.369 37.7351 239.069 35.6988 238.47 32.9074C238.34 32.2046 238.226 31.5184 238.125 30.8396C238.04 30.3182 237.99 29.7915 237.976 29.2633C237.976 27.4483 238.694 25.88 240.13 24.5585C241.716 23.1889 243.716 22.5047 246.133 22.5057C248.413 22.5057 250.249 23.142 251.641 24.4146C253.032 25.6872 253.726 27.2395 253.722 29.0715L253.704 42.0474ZM248.061 30.7123C248.059 30.5307 248.019 30.3516 247.943 30.1867C247.867 30.0217 247.757 29.8746 247.621 29.7548C247.497 29.6091 247.341 29.4937 247.166 29.4174C246.991 29.341 246.8 29.3057 246.609 29.3143C246.414 29.313 246.22 29.3513 246.04 29.427C245.859 29.5028 245.696 29.6143 245.56 29.7548C245.364 29.9406 245.225 30.2642 245.141 30.7123C245.139 30.899 245.176 31.0841 245.248 31.2564C245.32 31.4287 245.426 31.5846 245.56 31.7147C245.725 31.8468 245.919 31.9386 246.125 31.9829C246.356 32.0368 246.522 32.0698 246.617 32.0878C246.804 32.092 246.991 32.0688 247.171 32.0188C247.339 31.9494 247.492 31.8476 247.621 31.7192C247.894 31.4542 248.052 31.0926 248.061 30.7123V30.7123Z" fill="white"/>
<path d="M274.374 39.4133C274.374 41.1674 273.602 42.0454 272.057 42.0474H271.196C270.796 40.9056 269.99 39.7569 268.779 38.6011C268.186 38.0162 267.524 37.5073 266.805 37.0863C266.14 36.6998 265.43 36.3978 264.69 36.1873V39.1076C264.701 39.5105 264.632 39.9115 264.487 40.2876C264.342 40.6636 264.123 41.0071 263.845 41.2982C263.278 41.8826 262.496 42.1778 261.48 42.1778C260.485 42.1846 259.525 41.8054 258.803 41.1199C258.079 40.3408 257.722 39.3818 257.722 38.2326C257.722 37.1387 258.172 36.1768 259.098 35.3497C259.536 34.952 260.044 34.6381 260.596 34.4237C261.146 34.2106 261.731 34.1024 262.321 34.1045V28.9322C262.193 28.9854 262.058 29.0211 261.921 29.0386C261.771 29.061 261.498 29.0925 261.101 29.1225C260.211 29.1335 259.35 28.8088 258.689 28.213C258.393 27.9351 258.152 27.6036 257.98 27.236C257.801 26.8416 257.713 26.412 257.722 25.9789C257.72 25.5509 257.803 25.1267 257.967 24.7316C258.132 24.3365 258.374 23.9785 258.68 23.6789C258.996 23.3538 259.375 23.098 259.795 22.9277C260.215 22.7575 260.666 22.6765 261.119 22.69C262.204 22.69 263.062 23.0241 263.692 23.6924C264.354 24.3022 264.69 25.1218 264.69 26.1602V34.2274C265.304 34.2877 265.906 34.4392 266.476 34.6769C268.568 35.6037 270.414 37.0053 271.87 38.7705V22.9117H274.378L274.374 39.4133ZM262.46 26.0149C262.458 25.837 262.419 25.6615 262.347 25.4992C262.274 25.3368 262.169 25.1911 262.038 25.0709C261.909 24.9357 261.754 24.8282 261.583 24.7553C261.411 24.6824 261.226 24.6454 261.04 24.6469C260.847 24.6479 260.657 24.6871 260.48 24.7622C260.303 24.8373 260.143 24.9468 260.009 25.0844C259.787 25.2792 259.648 25.5878 259.603 26.0149C259.599 26.1969 259.626 26.3782 259.682 26.5513C259.758 26.7226 259.869 26.8758 260.009 27.0008C260.147 27.1 260.298 27.1797 260.458 27.2375C260.65 27.2962 260.847 27.3383 261.046 27.3634C261.416 27.3674 261.774 27.2272 262.044 26.9723C262.178 26.8521 262.285 26.7044 262.357 26.5391C262.428 26.3739 262.464 26.195 262.46 26.0149V26.0149ZM262.321 38.8394V36.1873C261.713 36.1704 261.121 36.3791 260.658 36.7731C260.457 36.953 260.296 37.1734 260.187 37.4198C260.077 37.6662 260.021 37.933 260.022 38.2026C260 38.648 260.114 39.0897 260.349 39.4687C260.463 39.6343 260.614 39.7712 260.79 39.8687C260.966 39.9661 261.162 40.0216 261.363 40.0306C261.999 40.0306 262.321 39.635 262.321 38.8379V38.8394Z" fill="white"/>
<path d="M294.213 39.0836C294.213 40.1445 293.994 40.9071 293.555 41.3716C293.162 41.8211 292.557 42.0474 291.744 42.0474H290.888L286.821 33.1606L282.776 42.0474H279.44V26.1647C279.44 25.1368 279.76 24.3007 280.389 23.6579C281.018 23.0151 281.914 22.684 283.072 22.684C283.52 22.6731 283.965 22.7568 284.378 22.9295C284.791 23.1022 285.163 23.3601 285.47 23.6864C285.781 23.971 286.03 24.3165 286.202 24.7016C286.374 25.0866 286.465 25.5029 286.469 25.9245C286.473 26.3461 286.39 26.7641 286.226 27.1524C286.061 27.5407 285.819 27.891 285.513 28.1815C285.203 28.4871 284.833 28.7271 284.428 28.8872C284.023 29.0473 283.589 29.1243 283.153 29.1135C282.91 29.1188 282.667 29.1098 282.425 29.0865C282.255 29.064 282.091 29.0085 281.943 28.9232V38.5502L285.954 30.0665L287.734 30.059L291.697 38.5592V22.9117H294.205L294.213 39.0836ZM284.595 26.0149C284.594 25.8374 284.555 25.6622 284.479 25.5015C284.404 25.3408 284.295 25.1985 284.159 25.0844C284.037 24.9421 283.884 24.829 283.712 24.7533C283.541 24.6776 283.354 24.6413 283.167 24.6469C282.974 24.6477 282.783 24.6868 282.605 24.7619C282.427 24.837 282.265 24.9466 282.13 25.0844C281.92 25.2792 281.79 25.5878 281.739 26.0149C281.736 26.2018 281.765 26.3879 281.826 26.5648C281.89 26.7275 281.993 26.872 282.126 26.9858C282.285 27.1215 282.477 27.2143 282.683 27.2555C282.909 27.3095 283.066 27.3424 283.162 27.3604C283.348 27.3669 283.533 27.3436 283.711 27.2915C283.879 27.2224 284.032 27.1205 284.16 26.9918C284.298 26.8688 284.407 26.7182 284.482 26.5498C284.557 26.3814 284.595 26.1991 284.595 26.0149V26.0149Z" fill="white"/>
<path d="M294.204 50.3813C294.204 51.592 293.916 52.5105 293.334 53.1158C292.751 53.7212 291.81 54.0313 290.487 54.0313H284.424V52.3277C285.096 52.3277 285.571 52.2318 285.849 52.0445C286.08 51.8227 286.192 51.4137 286.192 50.8308V49.803L285.182 49.9992C284.766 50.0122 284.35 49.9429 283.96 49.7953C283.57 49.6477 283.213 49.4248 282.909 49.1392C282.333 48.5629 282.01 47.7814 282.01 46.9665C282.01 46.1517 282.333 45.3702 282.909 44.7939C283.213 44.508 283.57 44.2849 283.96 44.1375C284.35 43.9902 284.766 43.9215 285.182 43.9353C286.201 43.9353 287.037 44.2455 287.691 44.8553C288.367 45.4172 288.701 46.1844 288.701 47.1583V52.2528H289.6C290.499 52.2528 291.076 52.0955 291.354 51.7913C291.464 51.5783 291.546 51.3522 291.598 51.1185C291.667 50.7844 291.699 50.4437 291.694 50.1026V44.1316L294.203 44.1077L294.204 50.3813ZM286.543 46.968C286.549 46.8017 286.52 46.6361 286.458 46.4814C286.397 46.3267 286.304 46.1863 286.186 46.069C285.909 45.8193 285.556 45.6709 285.184 45.648C285.014 45.6413 284.845 45.6684 284.685 45.7278C284.526 45.7873 284.38 45.8778 284.256 45.9941C284.005 46.2605 283.853 46.6056 283.826 46.971C283.823 47.1461 283.856 47.32 283.924 47.4817C283.991 47.6434 284.091 47.7894 284.218 47.9105C284.488 48.1417 284.828 48.2766 285.184 48.2941C285.354 48.301 285.523 48.2737 285.681 48.214C285.84 48.1543 285.985 48.0633 286.108 47.9465C286.363 47.681 286.517 47.3349 286.543 46.968V46.968Z" fill="white"/>
<path d="M297.896 12.9791C297.696 14.9869 296.785 16.5577 295.162 17.6914C294.433 18.165 293.639 18.5309 292.806 18.7778C291.881 19.0423 290.922 19.1725 289.959 19.1643C289.127 19.1665 288.297 19.0741 287.485 18.8886C287.909 18.6667 288.287 18.3668 288.599 18.0046C288.9 17.6425 289.123 17.2215 289.253 16.7684L288.735 16.8284C288.195 16.8492 287.662 16.7045 287.207 16.4137C286.751 16.1229 286.396 15.6998 286.188 15.2011C285.982 14.7166 285.927 14.1814 286.03 13.6651C286.132 13.1489 286.388 12.6754 286.763 12.3063C287.031 12.0732 287.335 11.8845 287.662 11.7474C288.001 11.6041 288.366 11.5312 288.734 11.5331C289.131 11.5214 289.526 11.5881 289.897 11.7296C290.269 11.871 290.608 12.0843 290.897 12.3572C291.175 12.6143 291.396 12.9273 291.545 13.2757C291.693 13.624 291.767 13.9998 291.76 14.3785C291.77 14.8975 291.715 15.4156 291.594 15.9204C291.52 16.2159 291.427 16.5062 291.315 16.7894C291.205 17.0263 291.073 17.2529 290.923 17.4667C291.544 17.4734 292.159 17.3392 292.721 17.0741C293.318 16.7927 293.862 16.41 294.328 15.9428C295.221 15.0848 295.667 14.0969 295.665 12.9791H297.896ZM289.955 14.1778C289.955 13.3846 289.539 12.9881 288.708 12.9881C287.869 12.9881 287.446 13.3851 287.446 14.1778C287.446 14.9419 287.869 15.324 288.708 15.324C289.547 15.324 289.955 14.9344 289.955 14.1778Z" fill="white"/>
<path d="M314.13 42.0474H311.623V29.596C311.623 28.156 311.205 26.9678 310.376 26.0403C309.467 24.9825 308.183 24.4611 306.529 24.4611C304.978 24.4611 303.697 24.8941 302.67 25.7691C301.644 26.6442 301.085 27.4728 300.989 28.2669L300.893 30.0335C300.901 30.656 300.951 31.2772 301.043 31.893C301.143 32.5922 301.311 33.4413 301.548 34.4402C301.996 36.423 302.221 37.7401 302.222 38.3914C302.336 38.1906 302.458 37.9898 302.585 37.792C302.733 37.5567 302.894 37.3296 303.067 37.1118C303.192 36.9165 303.329 36.7289 303.476 36.5499C303.686 36.2862 303.926 36.0015 304.2 35.6853L305.848 33.8199C305.126 33.6598 304.473 33.2741 303.984 32.7186C303.526 32.1495 303.274 31.4415 303.271 30.7107C303.271 29.8836 303.589 29.1255 304.229 28.4452C304.885 27.8244 305.755 27.4804 306.659 27.4848C307.541 27.4832 308.388 27.8281 309.019 28.4452C309.344 28.7262 309.602 29.0753 309.777 29.4676C309.952 29.8599 310.037 30.2859 310.029 30.7152C310.029 31.3685 309.906 31.89 309.665 32.2795C309.534 32.5333 309.384 32.7763 309.215 33.0062C309.023 33.2535 308.841 33.4797 308.662 33.682L305.77 37.1642C305.131 37.9958 304.495 38.8709 303.858 39.7983C303.349 40.51 302.898 41.2616 302.51 42.0459H299.793V39.2679C299.788 38.5632 299.738 37.8596 299.644 37.1612C299.544 36.412 299.369 35.4631 299.121 34.3143C298.867 33.1681 298.682 32.2061 298.568 31.418C298.461 30.7031 298.404 29.9816 298.398 29.2588C298.398 27.3664 299.13 25.7736 300.601 24.4641C302.072 23.1545 304.055 22.5012 306.55 22.5012C308.806 22.5012 310.634 23.126 312.037 24.3936C313.439 25.6612 314.143 27.2136 314.143 29.067L314.13 42.0474ZM308.136 30.7122C308.134 30.5298 308.093 30.35 308.015 30.1848C307.938 30.0197 307.826 29.873 307.687 29.7548C307.557 29.6111 307.398 29.4973 307.22 29.4212C307.042 29.3452 306.849 29.3087 306.656 29.3143C306.455 29.3121 306.255 29.3505 306.069 29.4272C305.883 29.504 305.714 29.6174 305.573 29.7608C305.337 29.9646 305.198 30.2792 305.146 30.7182C305.142 30.9004 305.171 31.0817 305.232 31.2532C305.313 31.4272 305.428 31.5824 305.573 31.7087C305.713 31.8156 305.871 31.8977 306.039 31.9514C306.239 32.0194 306.447 32.0631 306.657 32.0817C307.035 32.0876 307.402 31.9549 307.688 31.7087C307.965 31.4493 308.127 31.091 308.139 30.7122H308.136Z" fill="white"/>
<path d="M314.173 50.3813C314.173 51.592 313.885 52.5105 313.302 53.1158C312.719 53.7212 311.779 54.0313 310.455 54.0313H304.393V52.3277C305.064 52.3277 305.539 52.2318 305.816 52.0445C306.049 51.8227 306.161 51.4137 306.161 50.8308V49.8029L305.151 49.9992C304.734 50.0123 304.319 49.9431 303.929 49.7955C303.539 49.6479 303.182 49.4249 302.878 49.1392C302.302 48.5629 301.979 47.7814 301.979 46.9665C301.979 46.1517 302.302 45.3702 302.878 44.7939C303.182 44.5078 303.539 44.2847 303.929 44.1373C304.319 43.9899 304.734 43.9213 305.151 43.9353C306.17 43.9353 307.006 44.2455 307.659 44.8553C308.334 45.4177 308.67 46.1854 308.669 47.1583V52.2528H309.568C310.467 52.2528 311.046 52.0954 311.324 51.7913C311.435 51.579 311.517 51.3527 311.567 51.1185C311.638 50.7847 311.67 50.4438 311.663 50.1026V44.1316L314.171 44.1077L314.173 50.3813ZM306.51 46.968C306.516 46.8015 306.488 46.6356 306.426 46.4808C306.364 46.326 306.271 46.1857 306.152 46.069C305.876 45.8196 305.523 45.6712 305.151 45.648C304.982 45.6408 304.813 45.6678 304.655 45.7273C304.496 45.7867 304.351 45.8775 304.228 45.9941C303.973 46.2586 303.819 46.6044 303.792 46.971C303.789 47.1467 303.822 47.3212 303.891 47.483C303.959 47.6449 304.061 47.7905 304.189 47.9105C304.458 48.1423 304.797 48.2773 305.151 48.2941C305.321 48.3005 305.491 48.2731 305.65 48.2134C305.809 48.1537 305.955 48.063 306.079 47.9465C306.333 47.6811 306.486 47.3347 306.51 46.968V46.968Z" fill="white"/>
<path d="M326.999 39.0117C327.005 39.4374 326.925 39.8598 326.764 40.2539C326.582 40.6646 326.322 41.0357 325.998 41.3462C325.686 41.6619 325.311 41.91 324.899 42.0749C324.487 42.2399 324.045 42.3183 323.601 42.3051C322.486 42.3051 321.597 41.9815 320.926 41.3402C320.287 40.6594 319.942 39.7536 319.967 38.8199V22.9372H322.477V36.0539C322.672 35.976 323.076 35.9116 323.683 35.8666C324.542 35.8581 325.372 36.1738 326.008 36.7507C326.331 37.0308 326.586 37.379 326.758 37.7699C326.929 38.1609 327.011 38.585 326.999 39.0117V39.0117ZM325.118 38.9907C325.116 38.8124 325.077 38.6365 325.003 38.4744C324.928 38.3123 324.821 38.1676 324.687 38.0498C324.553 37.9169 324.394 37.812 324.219 37.741C324.044 37.67 323.857 37.6344 323.668 37.6362C323.275 37.6303 322.896 37.7788 322.612 38.0498C322.384 38.2495 322.244 38.5632 322.192 38.9907C322.185 39.174 322.214 39.357 322.279 39.5286C322.354 39.7022 322.468 39.8561 322.612 39.9782C322.751 40.0755 322.902 40.1541 323.061 40.2119C323.256 40.2777 323.457 40.322 323.661 40.3438C324.038 40.3489 324.403 40.2083 324.679 39.9512C324.817 39.8323 324.927 39.6848 325.002 39.5189C325.077 39.353 325.115 39.1727 325.112 38.9907H325.118ZM336.544 39.0117C336.55 39.4373 336.47 39.8597 336.31 40.2539C336.127 40.6643 335.867 41.0354 335.543 41.3462C335.23 41.6619 334.856 41.91 334.444 42.0749C334.031 42.2399 333.589 42.3183 333.145 42.3051C332.03 42.3051 331.142 41.9815 330.472 41.3402C330.171 41.011 329.933 40.629 329.771 40.2134C329.598 39.7693 329.511 39.2964 329.515 38.8199V22.9372H332.021V36.0539C332.412 35.9424 332.814 35.8795 333.22 35.8666C334.079 35.8578 334.91 36.1735 335.546 36.7507C335.868 37.0305 336.124 37.3785 336.296 37.7696C336.468 38.1606 336.55 38.5849 336.538 39.0117H336.544ZM334.663 38.9907C334.66 38.8109 334.618 38.6339 334.54 38.4716C334.463 38.3093 334.351 38.1654 334.214 38.0498C334.086 37.9111 333.93 37.8022 333.756 37.7307C333.582 37.6592 333.395 37.627 333.207 37.6362C332.833 37.6227 332.469 37.7564 332.193 38.0087C331.917 38.2609 331.751 38.6114 331.731 38.9847C331.724 39.168 331.754 39.3508 331.818 39.5226C331.893 39.6956 332.007 39.8492 332.15 39.9722C332.289 40.0697 332.44 40.1483 332.6 40.2059C332.794 40.2722 332.995 40.3164 333.199 40.3378C333.577 40.343 333.943 40.2024 334.22 39.9452C334.358 39.8275 334.468 39.6811 334.544 39.5163C334.619 39.3514 334.658 39.1721 334.657 38.9907H334.663Z" fill="white"/>
<path d="M354.581 42.0474H352.003L347.078 31.5588C346.851 31.1478 346.522 30.8024 346.123 30.5564C345.803 30.3472 345.426 30.2425 345.044 30.2567C344.905 30.2541 344.765 30.2616 344.626 30.2792C343.414 30.471 342.81 31.1782 342.81 32.4384V36.0539C342.935 36.0036 343.064 35.9675 343.197 35.946C343.347 35.9251 343.61 35.8996 343.998 35.8666C344.855 35.8498 345.684 36.1668 346.31 36.7507C346.623 37.0354 346.871 37.3844 347.037 37.774C347.202 38.1635 347.282 38.5842 347.269 39.0072C347.276 39.4325 347.198 39.8548 347.039 40.2494C346.854 40.6586 346.594 41.0292 346.271 41.3417C345.689 41.977 344.885 42.3006 343.884 42.3006C342.78 42.3006 341.899 41.977 341.255 41.3327C340.618 40.6484 340.276 39.741 340.302 38.8064V32.1926C340.302 31.1857 340.638 30.3781 341.307 29.7548C341.856 29.1494 342.575 28.725 343.371 28.5381C343.597 28.4917 343.928 28.4467 344.364 28.3958C344.8 28.3448 345.065 28.3179 345.164 28.3044C345.611 28.301 346.058 28.3407 346.498 28.4227C346.898 28.4992 347.284 28.6415 347.638 28.8438C348.297 29.1435 348.797 29.6819 349.136 30.459L352.075 36.878V28.4003C352.075 27.3379 351.603 26.4104 350.653 25.6313C349.703 24.8521 348.555 24.4611 347.194 24.4611C344.442 24.4611 342.616 25.5434 341.716 27.708H339.118C339.592 26.0958 340.576 24.8177 342.065 23.8617C342.827 23.4217 343.644 23.0842 344.494 22.8578C345.423 22.612 346.381 22.4936 347.341 22.5057C349.406 22.5057 351.128 22.9957 352.506 23.9756C353.885 24.9555 354.577 26.2721 354.584 27.9253L354.581 42.0474ZM345.452 38.9907C345.446 38.8098 345.402 38.6322 345.321 38.4699C345.241 38.3076 345.127 38.1643 344.987 38.0497C344.859 37.9112 344.702 37.8023 344.527 37.7309C344.353 37.6594 344.164 37.6271 343.976 37.6362C343.588 37.6427 343.215 37.7896 342.927 38.0497C342.71 38.2505 342.579 38.5637 342.531 38.9907C342.527 39.1792 342.557 39.3669 342.618 39.5451C342.687 39.7129 342.792 39.863 342.927 39.9841C343.07 40.082 343.225 40.1606 343.389 40.2179C343.583 40.2817 343.784 40.3258 343.988 40.3497C344.18 40.3561 344.372 40.3277 344.554 40.2658C344.722 40.2037 344.875 40.1079 345.004 39.9841C345.144 39.8593 345.256 39.7063 345.333 39.5351C345.411 39.364 345.451 39.1785 345.452 38.9907V38.9907Z" fill="white"/>
<path d="M367.403 39.0117C367.409 39.4372 367.329 39.8595 367.169 40.2539C366.983 40.6646 366.72 41.0355 366.393 41.3462C365.774 41.9815 364.974 42.3051 363.996 42.3051C362.89 42.3051 361.997 41.9815 361.327 41.3402C360.688 40.6592 360.345 39.7531 360.373 38.8199V22.9372H362.881V36.0539C363.073 35.976 363.48 35.9116 364.08 35.8666C364.939 35.8563 365.77 36.1723 366.405 36.7507C366.728 37.0303 366.985 37.3782 367.158 37.7692C367.33 38.1601 367.414 38.5845 367.403 39.0117V39.0117ZM365.523 38.9907C365.52 38.8122 365.48 38.6362 365.405 38.4742C365.33 38.3121 365.222 38.1675 365.088 38.0498C364.954 37.9169 364.794 37.8119 364.619 37.7409C364.444 37.6699 364.257 37.6343 364.068 37.6362C363.677 37.6305 363.3 37.7791 363.019 38.0498C362.782 38.2495 362.642 38.5632 362.599 38.9907C362.594 39.1734 362.621 39.3556 362.68 39.5286C362.758 39.7017 362.874 39.8553 363.019 39.9782C363.157 40.0765 363.308 40.1552 363.468 40.2119C363.663 40.2779 363.864 40.3221 364.068 40.3438C364.446 40.349 364.811 40.2084 365.088 39.9512C365.226 39.8324 365.336 39.6848 365.411 39.519C365.486 39.3531 365.524 39.1728 365.523 38.9907Z" fill="white"/>
<path d="M383.855 38.8109C383.855 39.8438 383.539 40.6844 382.907 41.3327C382.279 41.9785 381.381 42.3051 380.223 42.3051C379.771 42.3144 379.322 42.2344 378.901 42.0699C378.48 41.9053 378.096 41.6594 377.77 41.3462C377.159 40.7232 376.817 39.8846 376.819 39.0117C376.814 38.5927 376.9 38.1775 377.07 37.7944C377.24 37.4113 377.49 37.0692 377.803 36.7911C378.429 36.1882 379.268 35.8575 380.136 35.8711C380.379 35.8659 380.622 35.8734 380.864 35.8936C381.033 35.9206 381.196 35.9763 381.345 36.0584V28.4167C381.345 27.293 380.896 26.3565 380.004 25.5938C379.113 24.8311 378.019 24.4551 376.732 24.4551C375.589 24.4525 374.464 24.7429 373.465 25.2986C372.562 25.8582 371.87 26.7013 371.497 27.696H368.876C369.427 26.0189 370.415 24.7368 371.838 23.8497C372.57 23.4179 373.354 23.0806 374.171 22.8458C375.049 22.5994 375.957 22.4808 376.868 22.4937C378.845 22.4937 380.505 22.9837 381.847 23.9771C383.19 24.9705 383.858 26.2846 383.858 27.9223L383.855 38.8109ZM381.626 38.9907C381.619 38.8094 381.574 38.6315 381.492 38.4692C381.411 38.3069 381.296 38.1638 381.155 38.0497C381.027 37.9112 380.871 37.8024 380.696 37.7309C380.522 37.6595 380.334 37.6271 380.145 37.6362C379.757 37.6441 379.385 37.7909 379.096 38.0497C378.879 38.2505 378.75 38.5637 378.705 38.9907C378.7 39.1789 378.728 39.3666 378.788 39.5451C378.857 39.7126 378.962 39.8626 379.096 39.9841C379.241 40.0821 379.398 40.1607 379.564 40.2179C379.755 40.282 379.951 40.3262 380.151 40.3497C380.343 40.356 380.535 40.3276 380.718 40.2658C380.885 40.2038 381.038 40.108 381.167 39.9841C381.309 39.8601 381.423 39.7076 381.502 39.5364C381.581 39.3652 381.623 39.1792 381.626 38.9907Z" fill="white"/>
<path d="M384.115 10.2715C384.115 11.4043 383.568 12.3333 382.467 13.0705C381.368 13.8112 380.068 14.1976 378.742 14.1778H376.977C376.746 14.1778 376.527 14.1778 376.289 14.1912C376.033 14.2039 375.779 14.2364 375.528 14.2886C375.101 14.2886 374.613 14.5314 374.055 15.0213C373.559 15.4004 373.315 15.9503 373.315 16.677C373.312 16.9565 373.368 17.2335 373.479 17.49C373.59 17.7465 373.754 17.977 373.959 18.1664C374.191 18.4213 374.514 18.5747 374.858 18.5935L376.677 16.1331C376.757 16.211 376.845 16.2995 376.932 16.3983C377.005 16.4755 377.066 16.5635 377.113 16.6591L378.123 17.5851C378.237 16.9654 378.553 16.401 379.022 15.9803C379.563 15.5352 380.245 15.2999 380.945 15.3175C381.645 15.3351 382.315 15.6045 382.833 16.0762C383.074 16.3071 383.269 16.5823 383.406 16.8868C383.547 17.2017 383.618 17.543 383.615 17.8877C383.618 18.2388 383.546 18.5865 383.402 18.907C383.259 19.2274 383.047 19.513 382.783 19.7442C382.494 19.986 382.161 20.1706 381.803 20.2881C381.428 20.4211 381.031 20.4875 380.633 20.4844C380.271 20.4821 379.91 20.4409 379.557 20.3615C379.201 20.2741 378.857 20.1454 378.531 19.9779C377.858 19.6636 377.259 19.2125 376.77 18.6534L375.664 20.2911H374.245C373.818 20.2925 373.395 20.2095 372.999 20.0467C372.604 19.8839 372.245 19.6447 371.942 19.3426C371.271 18.7073 370.936 17.8443 370.936 16.7789C370.936 15.7496 371.352 14.8311 372.194 13.9995C372.963 13.2728 373.802 12.8592 374.687 12.7723C375.169 12.6839 375.655 12.6279 376.144 12.6045H378.733C379.557 12.6045 380.246 12.4367 380.807 12.092C381.333 11.683 381.596 11.0776 381.596 10.2715H384.115ZM381.956 17.8667C381.956 17.1745 381.599 16.8179 380.876 16.8179C380.152 16.8179 379.797 17.1685 379.797 17.8667C379.797 18.565 380.157 18.9156 380.876 18.9156C381.595 18.9156 381.956 18.5635 381.956 17.8667Z" fill="white"/>
<path d="M404.948 37.5418C404.948 39.0507 404.597 40.2059 403.899 40.997C403.21 41.6963 401.982 42.0459 400.214 42.0459H388.849V40.2179C389.813 40.2179 390.475 40.0681 390.834 39.7834C391.194 39.4987 391.371 38.8978 391.371 38.0228V28.9322C391.245 28.9856 391.113 29.0214 390.978 29.0386C390.828 29.061 390.565 29.0925 390.174 29.1225C389.294 29.1333 388.443 28.808 387.794 28.213C387.5 27.9356 387.262 27.6038 387.094 27.236C386.919 26.8405 386.831 26.4116 386.838 25.9789C386.837 25.5503 386.922 25.1258 387.088 24.7307C387.254 24.3355 387.498 23.9778 387.805 23.6789C388.126 23.3538 388.51 23.0982 388.934 22.928C389.358 22.7579 389.813 22.6769 390.27 22.69C391.368 22.69 392.236 23.0241 392.872 23.6924C393.539 24.3022 393.873 25.1218 393.873 26.1602V40.095H398.827C400.355 40.095 401.33 39.9317 401.756 39.5886C402.217 39.178 402.444 38.3374 402.444 37.0413V22.9117H404.952L404.948 37.5418ZM391.64 26.0149C391.639 25.8361 391.599 25.6597 391.525 25.4972C391.45 25.3346 391.343 25.1894 391.209 25.0709C391.077 24.9351 390.919 24.8275 390.744 24.7546C390.569 24.6817 390.381 24.6451 390.192 24.6469C389.794 24.6465 389.413 24.8039 389.132 25.0844C388.907 25.2792 388.767 25.5878 388.716 26.0149C388.709 26.1977 388.738 26.38 388.803 26.5513C388.876 26.7245 388.989 26.8784 389.132 27.0008C389.271 27.0995 389.422 27.1791 389.582 27.2375C389.778 27.2962 389.978 27.3383 390.181 27.3634C390.558 27.3681 390.922 27.2281 391.198 26.9723C391.339 26.8555 391.451 26.709 391.527 26.5434C391.604 26.3778 391.642 26.1972 391.64 26.0149V26.0149Z" fill="white"/>
<path d="M419.195 39.0117C419.201 39.4372 419.122 39.8595 418.962 40.2539C418.779 40.6643 418.519 41.0354 418.194 41.3462C417.612 41.9815 416.813 42.3051 415.808 42.3051C414.704 42.3051 413.818 41.9835 413.151 41.3402C412.852 41.0123 412.616 40.6318 412.456 40.2179C412.296 39.7685 412.219 39.2938 412.228 38.8169V13.472L408.89 16.695C408.441 15.6582 407.925 14.6521 407.343 13.6833C406.05 11.5696 404.659 10.1337 403.172 9.3755L405.327 8C406.393 8.62132 407.431 9.6532 408.44 11.0956C408.59 11.2949 408.753 11.5451 408.932 11.8448C409.11 12.1445 409.333 12.5281 409.594 12.9986L412.91 9.79504C413.166 9.79532 413.418 9.85994 413.643 9.98298C413.868 10.106 414.058 10.2835 414.197 10.4993C414.371 10.7575 414.499 11.0439 414.576 11.3459C414.668 11.6771 414.713 12.0195 414.711 12.3632V36.0539C414.837 36.0035 414.969 35.9673 415.103 35.946C415.253 35.9251 415.517 35.8996 415.903 35.8666C416.764 35.8488 417.598 36.1658 418.229 36.7507C418.545 37.0348 418.794 37.3842 418.961 37.7747C419.128 38.1652 419.208 38.5873 419.195 39.0117V39.0117ZM417.385 38.9907C417.385 38.6491 417.227 38.3404 416.913 38.0498C416.787 37.9114 416.631 37.8026 416.458 37.7311C416.284 37.6596 416.097 37.6272 415.909 37.6362C415.516 37.6295 415.135 37.7781 414.85 38.0498C414.637 38.2505 414.505 38.5637 414.458 38.9907C414.451 39.1794 414.481 39.3674 414.544 39.5451C414.608 39.7095 414.711 39.8557 414.844 39.9707C415.008 40.1061 415.202 40.2002 415.411 40.2449C415.637 40.3018 415.802 40.3318 415.903 40.3498C416.089 40.3544 416.275 40.3301 416.453 40.2778C416.712 40.1703 416.936 39.993 417.099 39.7657C417.263 39.5384 417.36 39.2701 417.379 38.9907H417.385Z" fill="white"/>
<path d="M438.674 42.0474H436.165V27.5327C436.165 25.6907 435.544 24.7707 434.301 24.7727C433.909 24.7727 433.617 25.1129 433.417 25.7871L427.974 42.0474H425.226V28.9322C425.101 28.9871 424.969 29.0229 424.833 29.0386C424.683 29.061 424.42 29.0925 424.027 29.1225C423.149 29.1332 422.299 28.8078 421.652 28.213C421.359 27.9352 421.122 27.6035 420.954 27.236C420.777 26.841 420.69 26.4117 420.698 25.9789C420.697 25.5504 420.782 25.126 420.948 24.7309C421.114 24.3358 421.357 23.9781 421.664 23.6789C421.985 23.354 422.37 23.0985 422.794 22.9284C423.218 22.7583 423.672 22.6771 424.129 22.69C425.228 22.69 426.094 23.0241 426.729 23.6924C427.4 24.3022 427.734 25.1248 427.734 26.1677V32.7231C427.734 33.0452 427.713 33.4827 427.665 34.0251C427.617 34.5675 427.547 35.1849 427.455 35.8711C427.455 36.1468 427.437 36.4705 427.403 36.8226C427.369 37.1747 427.315 37.5838 427.253 38.0138C427.348 37.5838 427.422 37.2481 427.472 37.0144C427.509 36.8147 427.565 36.619 427.64 36.43C427.824 35.6107 428.059 34.8036 428.342 34.0132L431.339 24.8372C431.78 23.4092 432.826 22.69 434.486 22.69C435.784 22.69 436.8 23.0396 437.533 23.7388C437.924 24.1041 438.217 24.5609 438.386 25.0679C438.599 25.7149 438.7 26.3933 438.686 27.0742L438.674 42.0474ZM425.505 26.0149C425.503 25.8362 425.464 25.6599 425.39 25.4973C425.316 25.3347 425.208 25.1894 425.075 25.0709C424.942 24.9349 424.783 24.8273 424.608 24.7544C424.432 24.6815 424.244 24.6449 424.054 24.6469C423.658 24.6469 423.277 24.8043 422.996 25.0844C422.767 25.2792 422.626 25.5878 422.578 26.0149C422.574 26.1976 422.604 26.3795 422.667 26.5513C422.741 26.7242 422.854 26.8779 422.996 27.0008C423.135 27.0988 423.286 27.1784 423.446 27.2375C423.642 27.2964 423.842 27.3385 424.045 27.3634C424.423 27.3684 424.788 27.2284 425.066 26.9723C425.205 26.8553 425.317 26.7086 425.393 26.543C425.469 26.3774 425.507 26.197 425.505 26.0149V26.0149Z" fill="white"/>
<path d="M457.699 37.5418C457.699 39.0836 457.35 40.2179 456.65 40.9551C455.95 41.6923 454.728 42.0474 452.966 42.0474H443.899V35.2913C443.899 34.3213 444.134 33.5407 444.605 32.9493C444.84 32.6991 445.279 32.3844 445.919 31.9919C445.252 31.8316 444.638 31.5035 444.134 31.0389C443.894 30.7918 443.707 30.4991 443.583 30.1781C443.458 29.8572 443.4 29.5145 443.41 29.1704V26.1647C443.41 25.1158 443.724 24.2678 444.351 23.6414C444.979 23.0151 445.875 22.6945 447.037 22.6945C447.484 22.6867 447.928 22.7717 448.34 22.9443C448.753 23.1168 449.125 23.3731 449.434 23.6969C449.759 23.9813 450.017 24.3335 450.191 24.7285C450.365 25.1235 450.45 25.5519 450.441 25.9834C450.441 26.8375 450.101 27.5822 449.431 28.2175C449.131 28.5084 448.78 28.7416 448.396 28.9052C447.989 29.0647 447.555 29.1401 447.119 29.127C446.527 29.127 446.125 29.0625 445.911 28.9367C445.911 29.4746 446.191 29.9631 446.758 30.3991C447.371 30.8126 448.211 31.0209 449.274 31.0209H450.788V32.9763H449.217C447.341 32.9763 446.4 33.7899 446.4 35.4366V40.095H451.572C453.094 40.095 454.064 39.9317 454.489 39.5886C454.948 39.178 455.177 38.3374 455.177 37.0413V22.9117H457.687L457.699 37.5418ZM448.571 26.0149C448.569 25.8362 448.53 25.6599 448.456 25.4973C448.382 25.3347 448.274 25.1894 448.141 25.0709C448.008 24.9345 447.849 24.8266 447.673 24.7537C447.497 24.6808 447.308 24.6444 447.117 24.6469C446.724 24.6493 446.347 24.8065 446.069 25.0844C445.838 25.2792 445.7 25.5878 445.651 26.0149C445.644 26.1978 445.674 26.3801 445.739 26.5513C445.811 26.7254 445.924 26.8796 446.069 27.0008C446.207 27.1 446.358 27.1796 446.518 27.2375C446.714 27.2963 446.914 27.3384 447.117 27.3634C447.496 27.3692 447.862 27.2292 448.141 26.9723C448.279 26.8544 448.389 26.7074 448.463 26.5418C448.538 26.3763 448.574 26.1963 448.571 26.0149V26.0149Z" fill="white"/>
</svg>
