<svg xmlns="http://www.w3.org/2000/svg" width="9308.686" height="5539.713" viewBox="0 0 9308.686 5539.713">
  <g id="layer101" transform="translate(-1065.393 -3220.988)">
    <path id="Path_1" data-name="Path 1" d="M7325,8759c5-7,315-482,688-1054,374-572,682-1046,684-1052,4-10-30-13-148-13H8395L7677,4933c-394-938-715-1709-711-1712,3-3,545,536,1204,1199S9370,5623,9373,5620s134-203,292-445,293-446,300-453c16-17-5-111,224,989,105,498,188,915,185,925-3,11-584,421-1442,1016-790,549-1477,1026-1526,1060S7320,8767,7325,8759ZM8934,7560c718-498,1305-908,1305-912,1-5-325-8-723-8-570,0-725,3-729,13-2,6-268,415-589,907-670,1026-605,925-585,914C7621,8469,8216,8058,8934,7560ZM9980,6353c-440-445-2800-2812-2800-2807,0,2,282,673,626,1491,344,819,630,1498,635,1511l9,22h1744Zm132-636c-92-439-171-799-177-800-8-2-304,442-462,691l-46,74,424,424c233,233,425,421,426,417C10279,6518,10204,6156,10112,5717Z" fill="#fff"/>
    <path id="Path_2" data-name="Path 2" d="M4580,6728c0-568-3-1070-7-1115l-6-83h280l13,75c7,42,16,77,19,79s39-18,80-45c188-124,424-169,649-124,266,54,492,271,569,545,26,93,26,376,0,475-76,290-303,521-580,589-224,56-478,15-653-104l-74-50v790H4580Zm948,157c142-34,257-122,324-250,48-92,67-168,74-290,16-273-123-503-354-587-85-31-255-31-335,1-137,54-279,177-334,289l-28,57v450l32,69c58,121,193,227,336,262C5315,6903,5452,6903,5528,6885Z" fill="#fff"/>
    <path id="Path_3" data-name="Path 3" d="M1705,7135c-298-55-533-280-616-590-29-109-32-355-5-460,26-100,96-240,159-316,103-124,267-223,422-255,99-20,319-14,410,11,81,23,188,77,258,131,31,24,59,44,62,44s5-200,5-445V4810h279l4,1118c3,614,8,1132,12,1150l7,32H2567c-155,0-147,5-147-95,0-72-9-84-36-53-30,34-143,103-215,131C2037,7146,1852,7162,1705,7135Zm340-250c154-32,289-132,331-242,26-70,33-463,10-555-60-234-385-406-650-344-98,23-177,69-246,142-108,116-158,271-147,459,18,291,149,475,387,539C1801,6903,1956,6904,2045,6885Z" fill="#fff"/>
    <path id="Path_4" data-name="Path 4" d="M3561,7139c-270-35-506-201-617-434-58-122-69-180-68-365,1-195,17-272,88-415,75-151,180-258,326-335,117-60,203-81,366-87,251-10,398,38,535,176,134,135,203,323,216,589l6,112H3150v22c0,12,7,51,16,87,72,288,322,437,675,402,120-12,303-52,413-90,33-12,61-20,63-18,4,5,35,239,31,242-9,9-238,76-304,89C3873,7148,3700,7157,3561,7139Zm565-1045c-9-70-61-168-121-229-233-239-681-143-811,173-13,31-24,67-24,80v22h963Z" fill="#fff"/>
    <path id="Path_5" data-name="Path 5" d="M6655,7134c-269-60-422-270-386-529,24-169,120-293,292-378,151-74,344-115,632-132,78-5,107-10,107-20,0-7-9-42-20-77-61-197-202-273-465-247-111,11-288,51-383,87-29,11-52,17-52,13s-7-60-15-126c-8-65-13-121-10-123,9-9,193-52,295-69,70-11,161-17,275-17,147,0,181,3,250,22,165,47,275,136,340,274,61,130,67,176,75,648,7,403,9,430,32,528,17,70,21,105,14,107-20,7-251,54-253,52-1-2-11-45-23-97s-23-96-25-98-27,15-56,38c-62,49-191,113-274,135C6916,7148,6740,7153,6655,7134Zm370-267c99-34,150-62,202-110,67-62,73-82,73-262V6340h-53c-87,0-266,20-361,41-94,20-198,63-252,104-39,30-84,117-84,161,0,125,57,208,170,245C6769,6908,6950,6893,7025,6867Z" fill="#fff"/>
  </g>
</svg>
