<svg xmlns="http://www.w3.org/2000/svg" viewBox="0 0 1502.74 275"><defs><style>.cls-1{fill:#fff;}</style></defs><g id="Layer_2" data-name="Layer 2"><g id="Layer_1-2" data-name="Layer 1"><path class="cls-1" d="M1502.74,1c-7.69,18-15.45,36-23,54.11q-40.82,97.07-81.53,194.17c-.64,1.5-1.34,3-2.55,5.68-11.71-26.49-23-52-34.76-78.68-15.12,19.51-33.58,35.32-46.2,56.63-.6-1.37-1.33-2.9-2-4.46q-21.93-55.45-43.77-110.94c-1.28-3.25-2.88-5-6.43-5.89-32.54-8.39-65-17-97.5-25.59a13.48,13.48,0,0,1-5.28-2.35L1502.74,0ZM1478,31.72l-.84-.7c-.76.62-1.55,1.19-2.25,1.85Q1417.79,87,1360.63,141c-2.68,2.53-1.83,4.45-.72,7q16.65,37.62,33.24,75.27c.62,1.4,1.35,2.76,2.41,4.9C1423.26,162.16,1450.63,96.94,1478,31.72ZM1201.4,84.45c2.81.83,4.07,1.24,5.34,1.58,19.63,5.17,39.22,10.46,58.92,15.36a15.44,15.44,0,0,0,9.38-.77Q1352.23,66,1429.25,31c1.63-.74,3.21-1.57,4.81-2.35l-.31-.9Zm91.79,65.76,153.9-114.46-.55-.93-168.79,76.36Zm22.46,56.88c1.39-2.8,2.23-4.4,3-6,9-19.46,18-39,27.12-58.38a20.4,20.4,0,0,1,4.26-6q30.39-29,60.93-57.79c2.82-2.67,5.63-5.36,8.45-8a9.53,9.53,0,0,0-4.43,2.06q-27.88,20.7-55.75,41.42c-19.51,14.51-39,29-58.46,43.63-1.35,1-2.87,3.7-2.42,4.91C1303.75,177.28,1309.52,191.59,1315.65,207.09ZM1351.17,156c-4.61,10-9.13,19.73-13.64,29.49a116.88,116.88,0,0,0,13.71-14C1357.13,164.68,1357.12,164.49,1351.17,156Z"/><path class="cls-1" d="M32.74,275c-8.8-2.34-17.6-4.65-26.39-7-4.92-1.33-7.52-3.63-5.84-9.58s2-12,2.69-16.76c11.42,3.06,22.33,6.42,33.45,8.82A36,36,0,0,0,59.16,248c4.1-1.84,7.44-4.42,7.78-9.48s-3.14-7.86-7-9.31c-8.21-3.12-16.73-5.38-25.06-8.2-5.81-2-11.87-3.6-17.18-6.54C-4.7,202.08-5.23,169.6,17.11,157c7-4,15.52-5.78,23.58-7.25,13.94-2.54,37.06,1,48.87,6.57-.56,3.6-1.14,7.33-1.73,11.06s-1.19,7.52-1.76,11.12c-9.78-1.66-19.17-3.82-28.68-4.67-6.35-.57-12.88.56-19.29,1.3a14,14,0,0,0-5.85,2.63c-6.11,4.19-6,11.06.64,14.26,5.35,2.59,11.19,4.17,16.88,6,7.6,2.41,15.49,4.05,22.85,7,13.89,5.62,20.88,16.31,21.18,31.44s-6.89,25.89-20.3,32.08c-6.53,3-13.82,4.38-20.76,6.5Z"/><path class="cls-1" d="M160.74,275c-3.54-.78-7.11-1.46-10.61-2.37C129.32,267.22,116.48,254,111.7,233A93,93,0,0,1,112,190c5.71-23.6,23.19-38.1,49-40.82a102,102,0,0,1,42.9,4.29c3.3,1.08,4.5,2.59,3.85,6.09-1.16,6.18-1.94,12.43-2.89,18.79-6.6-1.35-12.7-3.15-18.91-3.72a111.62,111.62,0,0,0-22.38-.18c-12.83,1.44-19.81,8.34-22.7,21.09a72.85,72.85,0,0,0,0,32.68c3.12,13.64,11.6,20.71,25.51,21.87A77.6,77.6,0,0,0,205,244c1.12,7.52,2.31,14.68,3.08,21.9.09.83-2,2.42-3.34,2.8-8,2.24-16,4.24-24,6.32Z"/><path class="cls-1" d="M229.8,272.69V151.29a37.29,37.29,0,0,1,3.84-.39c18,0,36-.21,54,.16a81.47,81.47,0,0,1,18.67,2.76c11.87,3.1,20.28,10.31,22.09,23s-.68,24-12.49,31.35c.15.34.19.73.36.81,14.9,6.54,19.41,19,18.19,32.32-1.36,14.82-9.54,24.33-24.53,28.64a57.18,57.18,0,0,1-14.69,2.64C273.58,272.85,252,272.69,229.8,272.69Zm27.14-23.77c13.23,0,26.05.36,38.83-.14,7.25-.28,10.62-5,10.9-13,.25-7.49-3-13.09-9.75-13.45-13.22-.7-26.5-.2-40-.2Zm-.07-48.85c7.85,0,15.15.1,22.44,0a90.26,90.26,0,0,0,14.35-.93c6.12-1.1,8.56-4.77,8.75-11.48.17-6.36-2.43-11.19-8.36-11.77-12.29-1.22-24.69-1.31-37.18-1.87Z"/><path class="cls-1" d="M1080.17,272.86h-13.36V167.15l-.89-.13c-.69,1.78-1.43,3.55-2.06,5.36-10.94,31.76-21.95,63.51-32.72,95.33-1.29,3.81-2.67,5.49-7.09,5.58-4.84.11-5.25-2.83-6.26-6q-15.42-47.73-30.87-95.43a7.72,7.72,0,0,0-2.37-3.91V272.76H972.93V151.26c6.48,0,12.94-.22,19.35.21,1.17.07,2.62,2.63,3.16,4.29q14.76,45.32,29.31,90.69c.53,1.66,1.12,3.3,2.16,6.35,5.59-17.44,10.71-33.37,15.82-49.31s10.3-32,15.27-48c1-3.23,2.44-4.56,6-4.33,5.27.33,10.57.08,16.21.08Z"/><path class="cls-1" d="M756.75,273.62V151.22c6.24,0,12.35-.29,18.43.07,9,.55,18,1,26.79,2.5,17.8,3,28.59,14.23,33.41,31.15a95.59,95.59,0,0,1,.81,49.88c-5.34,21.48-19.73,33.7-41.15,36.8C782.62,273.43,769.88,273,756.75,273.62Zm13.39-111.35v99.46c5.69-.28,11-.37,16.26-.84,21.9-1.95,33.67-12.38,37.83-33.77a79.24,79.24,0,0,0-.83-34.67c-3.44-13.73-11.08-24-25.64-26.91C788.87,163.77,779.7,163.35,770.14,162.27Z"/><path class="cls-1" d="M727.57,273.06c-4.23,0-8.07.34-11.79-.17-1.41-.19-3.13-2.1-3.74-3.62-4.53-11.26-8.95-22.58-13.08-34-1.12-3.07-2.66-4-5.79-3.95-12.66.15-25.33.22-38,0-3.59-.07-4.86,1.35-5.9,4.43-3.63,10.71-7.79,21.25-11.19,32-1.36,4.29-3.28,6-7.7,5.38-2.41-.34-4.91-.06-8-.06,2.36-6.32,4.47-12.05,6.64-17.76,12.6-33.1,25.33-66.16,37.68-99.36,1.61-4.31,4-4.89,7.77-4.8s6.83-.15,8.71,4.88c14,37.39,28.38,74.61,42.65,111.89C726.38,269.44,726.86,271,727.57,273.06Zm-72.49-53.5h37.35c-6.45-17.13-12.7-33.74-19.45-51.69Z"/><path class="cls-1" d="M414.5,273H401c.49-1.58.82-2.95,1.32-4.26C416.58,231.1,431,193.54,445.1,155.88c1.44-3.84,3.36-5.14,7.24-4.71,3.59.39,7-.9,9,4.38,14.16,37.83,28.74,75.49,43.18,113.2.46,1.21.78,2.48,1.35,4.3-4.36,0-8.33.3-12.21-.17-1.22-.14-2.65-2.13-3.22-3.58-4.49-11.27-8.9-22.57-13.1-34-1.08-2.95-2.52-4.08-5.74-4-12.82.19-25.64.17-38.46,0-3,0-4.38,1.05-5.33,3.84C423.5,247.73,419,260.24,414.5,273Zm36.83-105.13-17.91,51.85h37.39C464.39,202.57,458.11,185.86,451.33,167.82Z"/><path class="cls-1" d="M888.93,205.16h33.62v11.73h-33.5v44.9h45.39v10.85H875.57v-121H934.3v11.17H888.93Z"/><path class="cls-1" d="M600.55,262v8.72c-32.45,12.49-66.48-7.54-70.87-41.62-1.88-14.67-1.85-29.28,2.21-43.61,6-21.23,21.27-33,44.46-34.25,5.14-.28,10.32.25,15.47.31,4.42.05,6.35,2,5.67,6.52a41.46,41.46,0,0,0,0,5.85c-2.54-.14-4.49-.35-6.43-.33-6,.06-12-.26-17.92.41-14.58,1.65-24.12,9.8-28.28,23.85a83.75,83.75,0,0,0-1.52,41.53c4.35,20.6,17.88,31.71,39.07,32.59C588.3,262.16,594.27,262,600.55,262Z"/><path class="cls-1" d="M1107.86,151.53c13.45-1.06,13.46-1.06,18.67,10.25q10.63,23.1,21.26,46.21c.68,1.46,1.45,2.87,2.47,4.88l24.13-52.72c4.57-10,4.57-10,16.63-8.43-.81,1.75-1.49,3.35-2.28,4.9-10.76,21-21.6,42-32.24,63a20.37,20.37,0,0,0-2,8.51c-.22,13-.1,26-.1,38.95v5.66H1141c-.09-1.31-.26-2.73-.27-4.16,0-10.66-.39-21.33.1-32a50.16,50.16,0,0,0-5.45-24.86c-8.75-18.1-16.87-36.51-25.23-54.8C1109.42,155.37,1108.77,153.69,1107.86,151.53Z"/></g></g></svg>