<svg width="641" height="245" viewBox="0 0 641 245" fill="none" xmlns="http://www.w3.org/2000/svg">
<path d="M131.116 170.994L131.201 142.87L106.435 128.347L106.392 156.805L131.116 170.994Z" fill="white"/>
<path d="M157.271 186.182L157.267 157.788L182.459 142.649L156.78 128.202L131.988 142.886L131.708 171.256L157.271 186.182Z" fill="white"/>
<path d="M234.167 171.202L208.469 186.329L208.469 158.276L234.167 143.848V171.202Z" fill="white"/>
<path d="M182.133 201.189L207.771 186.654V158.254L182.973 143.083L158.052 158.254L157.898 186.446L182.133 201.189Z" fill="white"/>
<path d="M208.141 157.496L234.188 142.999V113.272L208.455 127.956L182.893 113.033L183.049 142.298L208.141 157.496Z" fill="white"/>
<path d="M168.308 62.9977L157.146 69.1367L133.132 55.5226L157.146 41.6041L182.341 55.0223L168.308 62.9977Z" fill="white"/>
<path d="M182.142 111.594V82.3669L207.219 69.2377L182.744 55.2379L157.471 69.5866V97.2761L182.142 111.594Z" fill="white"/>
<path d="M208.414 126.956L234.228 112.285V84.8234L207.632 69.6078L182.75 82.6683L182.859 112.014L208.414 126.956Z" fill="white"/>
<path d="M131.576 142.159L156.744 127.485V98.1371L131.576 113.508L106.271 98.1371V127.485L131.576 142.159Z" fill="white"/>
<path d="M131.662 112.58L156.775 97.3523V69.5599L132.752 55.7447L106.348 70.2959L106.455 97.4417L131.662 112.58Z" fill="white"/>
<path d="M298.921 114.866V83.546H278.401V172.346H298.921V162.986C302.641 168.866 309.721 173.306 319.561 173.306C336.001 173.306 349.081 159.866 349.081 138.746C349.081 117.626 336.121 104.426 319.561 104.426C309.961 104.426 302.641 108.866 298.921 114.866ZM328.201 138.746C328.201 149.426 321.241 155.426 313.441 155.426C305.761 155.426 298.801 149.546 298.801 138.866C298.801 128.186 305.761 122.306 313.441 122.306C321.241 122.306 328.201 128.066 328.201 138.746ZM380.367 141.266C380.367 129.746 386.007 126.386 395.727 126.386H401.367V104.666C392.367 104.666 385.047 109.466 380.367 116.546V105.386H359.847V172.346H380.367V141.266ZM411.175 172.346H431.695V105.386H411.175V172.346ZM421.495 98.426C428.695 98.426 433.615 93.506 433.615 87.386C433.615 81.146 428.695 76.226 421.495 76.226C414.175 76.226 409.255 81.146 409.255 87.386C409.255 93.506 414.175 98.426 421.495 98.426ZM446.565 172.346H467.085V144.266L487.485 172.346H512.925L484.845 138.986L512.685 105.386H487.365L467.085 132.626V83.546H446.565V172.346ZM520.745 172.346H541.265V83.546H520.745V172.346Z" fill="white"/>
</svg>
