<svg id="Layer_3" data-name="Layer 3" xmlns="http://www.w3.org/2000/svg" viewBox="0 0 909.31 343.1"><defs><style>.cls-1{fill:#fff;}</style></defs><title>thairath-white</title><path class="cls-1" d="M535.67,540.54h-25V427.88c0-16.42,16.42-20.87,16.42-33.39,0-1.11,0-5.56-5.29-5.56h-32V367.5H525.1c27,0,27,14.75,27,25.6,0,18.92-16.42,23.37-16.42,34.78Z" transform="translate(-50.63 -305.19)"/><path class="cls-1" d="M626.1,540.54V467.09c0-10.58-6.68-15.86-18.09-15.86-12.8,0-22.26,5.56-22.26,15.86v73.45h-25V429.25h25V442.6c6.4-13.35,19.48-14.74,26.16-14.74,27.82,0,39.23,15.58,39.23,39.23v73.45Z" transform="translate(-50.63 -305.19)"/><path class="cls-1" d="M764.07,429.25v86.53c0,19.2-14.74,26.15-33.11,26.15H705.37c-25.88,0-34.23-15.86-34.23-36.17a29.84,29.84,0,0,1,10.3-22.26A28.3,28.3,0,0,1,670,460.69c0-18.92,10.57-31.44,29.21-31.44h24.49v21.42H709c-10.29,0-13.91,1.95-13.91,10,0,7.51,5.84,11.13,12.52,11.13h16.14v21.42h-15.3c-7.79,0-12.25,5.57-12.25,12.52s.84,14.75,10.3,14.75h23.93c5.56-.56,8.62-2.23,8.62-7.24v-84Z" transform="translate(-50.63 -305.19)"/><path class="cls-1" d="M862,506.87c0,23.65-20,35.06-40.34,35.06-11.41,0-30.88-2.78-42.29-17.25l13.91-14.75c10.3,8.07,18.64,10.58,28.1,10.58,8.07,0,15.58-6.12,15.58-13.64,0-14.74-53.42-10.85-53.42-45.07,0-22.54,13.64-33.94,38.12-33.94,12,0,25.88,2.78,37,8.9l-8.62,20c-9.18-4.17-20.59-5.56-28.38-5.56-8.07,0-13.08,3.06-13.08,10.57C808.56,474.6,862,473.76,862,506.87Z" transform="translate(-50.63 -305.19)"/><path class="cls-1" d="M798.77,407V373.85h25v11.69h45.35V407Z" transform="translate(-50.63 -305.19)"/><path class="cls-1" d="M934.89,461.24c0-8.9-9.45-10-19.47-10-10.57,0-19.76,1.11-19.76,10v9.18h-25v-9.18c0-23.92,17-33.38,44.8-33.38a31.17,31.17,0,0,1,5,.27L953,413.67l7,18.64-10.86,4.17c7,5.57,10.86,13.63,10.86,24.76v45.63c0,19.2-12.25,33.67-31.17,33.67H899.56l-6.4-35.06H881.47V484.06h33.67l5.57,35.06h7.79c5-.28,5.84-4.73,6.39-10.3Zm25.05,86v6.68c0,19.75-10.58,25.31-29.5,25.31H884.26V557.79h46.18c2.51,0,4.18-.28,4.18-3.89v-6.68Z" transform="translate(-50.63 -305.19)"/><path class="cls-1" d="M385.46,331.67c-2.69-4.22-9-7.75-14-7.75h-266c-5,0-11.3-3.53-14-7.77l-4.41-7a8.41,8.41,0,0,0-12.21-2.31l-20.3,14.88a9.91,9.91,0,0,0-2.47,13.07L66,356.78c2.68,4.23,9,7.7,14,7.7H346.48c5,0,11.31,3.45,14,7.68l17.82,28a8.43,8.43,0,0,0,12.23,2.3l19.9-14.63a9.89,9.89,0,0,0,2.45-13.07Z" transform="translate(-50.63 -305.19)"/><path class="cls-1" d="M178.59,647.51A14,14,0,0,0,190.81,639l8.52-23.39c1.71-4.7-1-8.56-6-8.56h-8.7c-5,0-7.71-3.85-6-8.55l52.94-144.69A35.29,35.29,0,0,1,242,439.83l3.47-2.54A32.71,32.71,0,0,1,262,431.91h32.1c5,0,11.31,3.45,14,7.68l5.21,8.17a8.46,8.46,0,0,0,12.25,2.29l37.26-27.32a9.89,9.89,0,0,0,2.46-13.07l-15.28-24c-2.68-4.23-9-7.68-14-7.68H227.59a32.56,32.56,0,0,0-16.45,5.39L170.8,413a35.32,35.32,0,0,0-10.46,13.95L97.64,598.42A14,14,0,0,1,85.42,607H71.92a11.44,11.44,0,0,0-3.79.68,14.09,14.09,0,0,0-8.47,7.89l-8.51,23.39c-1.71,4.71,1,8.57,6,8.57Z" transform="translate(-50.63 -305.19)"/><path class="cls-1" d="M560,627.64c0,14.24-9.23,20.65-24.57,20.65-17.05,0-24.56-7.82-24.56-20.65V614h17.52v9.07h-7.35v4.54c0,8.45,6.57,11.58,14.39,11.58s14.4-3.13,14.4-11.58V601.82c0-7.82-6.73-8.6-14.4-8.6s-14.39.78-14.39,8.6v4.54H510.89v-4.54c0-12.67,9.39-17.68,24.56-17.68s24.57,5,24.57,17.68Z" transform="translate(-50.63 -305.19)"/><path class="cls-1" d="M620.25,627.64c0,14.24-9.23,20.65-24.56,20.65-17.06,0-24.57-7.82-24.57-20.65V614h17.53v9.07h-7.36v4.54c0,8.45,6.58,11.58,14.4,11.58s14.39-3.13,14.39-11.58V601.82c0-7.82-6.73-8.6-14.39-8.6s-14.4.78-14.4,8.6v4.54H571.12v-4.54c0-12.67,9.39-17.68,24.57-17.68s24.56,5,24.56,17.68Z" transform="translate(-50.63 -305.19)"/><path class="cls-1" d="M642,584.92V627c0,8.14,5.16,12.21,13.45,12.21,9.24,0,16.28-4.54,16.28-12.21V584.92H681.9v62.59H671.73v-7.67c-4.54,8.45-13.46,8.45-16.9,8.45-16.59,0-23-8.45-23-21.28V584.92Z" transform="translate(-50.63 -305.19)"/><path class="cls-1" d="M707.4,647.51H697.23V591.43c0-11,10-13,10-20,0-1.41,0-4.54-3.6-4.54H682.21v-9.07h21.43c13.62,0,13.77,7.35,13.77,12.83,0,11.26-10,11.58-10,20.81Z" transform="translate(-50.63 -305.19)"/><path class="cls-1" d="M742,611.21c4.84,0,13.61.15,17,1.72V601.82c0-7.82-6.73-8.6-14.4-8.6s-14.39.78-14.39,8.6V605H720.07v-3.13c0-12.67,9.39-17.68,24.56-17.68s24.57,5,24.57,17.68v45.69H759V625.92c0-5.64-10.33-5.64-16.9-5.64-6.88,0-13.61,1.41-13.61,8.14,0,8.45,0,10,11.26,10H742v9.08h-5.17c-17.37,0-17.52-9.39-17.52-18.78C719.29,615.75,728.05,611.21,742,611.21Z" transform="translate(-50.63 -305.19)"/><path class="cls-1" d="M791.42,584.92V627c0,8.14,5.16,12.21,13.45,12.21,9.23,0,16.27-4.54,16.27-12.21V584.92h10.17v62.59H821.14v-7.67c-4.53,8.45-13.45,8.45-16.89,8.45-16.59,0-23-8.45-23-21.28V584.92Z" transform="translate(-50.63 -305.19)"/><path class="cls-1" d="M811.9,557.79h26.6v8.29H821V572H811.9Z" transform="translate(-50.63 -305.19)"/></svg>