<svg width="134" height="84" viewBox="0 0 134 84" fill="none" xmlns="http://www.w3.org/2000/svg">
<g clip-path="url(#clip0)">
<path d="M48.9901 12.7646H16.7756C12.9099 12.7646 9.20264 14.3003 6.46923 17.0337C3.73581 19.7671 2.2002 23.4744 2.2002 27.34V59.5545C2.2002 63.4206 3.73566 67.1284 6.46893 69.8626C9.20221 72.5967 12.9095 74.1334 16.7756 74.1347H48.9901C52.8566 74.1334 56.5644 72.5969 59.2984 69.8628C62.0324 67.1288 63.569 63.421 63.5702 59.5545V27.34C63.569 23.474 62.0323 19.7667 59.2981 17.0334C56.5639 14.3001 52.8561 12.7646 48.9901 12.7646V12.7646ZM23.8667 56.2079C23.8667 57.1502 23.4924 58.0538 22.8261 58.7201C22.1598 59.3864 21.2562 59.7607 20.3139 59.7607C19.3717 59.7607 18.468 59.3864 17.8018 58.7201C17.1355 58.0538 16.7612 57.1502 16.7612 56.2079V34.7811L23.8715 41.8866L23.8667 56.2079ZM45.4421 59.7607C44.9743 59.7645 44.5103 59.6752 44.0773 59.4981C43.6442 59.321 43.2508 59.0595 42.9197 58.7289C42.5887 58.3983 42.3267 58.0052 42.1489 57.5724C41.9712 57.1396 41.8814 56.6758 41.8846 56.2079V41.8675L48.9948 34.7811V56.2271C48.998 56.6945 48.9083 57.158 48.7309 57.5904C48.5535 58.0229 48.2919 58.4158 47.9614 58.7464C47.6308 59.0769 47.2379 59.3385 46.8054 59.5159C46.373 59.6933 45.9095 59.783 45.4421 59.7798V59.7607ZM47.9736 33.2133L37.9291 43.2819L32.8852 48.2826L27.8605 43.2579L17.816 33.1894C17.2257 32.5094 16.9157 31.6307 16.9485 30.7309C16.9813 29.8311 17.3545 28.9774 17.9927 28.3422C18.6309 27.707 19.4865 27.3379 20.3864 27.3094C21.2864 27.2809 22.1636 27.5952 22.8407 28.1887L32.9092 38.2572L42.9777 28.1887C43.6587 27.6059 44.5349 27.3022 45.4304 27.3383C46.326 27.3743 47.1749 27.7476 47.8068 28.3832C48.4388 29.0188 48.8072 29.8698 48.8381 30.7655C48.869 31.6613 48.5602 32.5357 47.9736 33.2133" fill="white"/>
<path d="M23.8672 56.2075C23.8672 57.1498 23.4929 58.0534 22.8266 58.7197C22.1604 59.386 21.2567 59.7603 20.3145 59.7603C19.3722 59.7603 18.4686 59.386 17.8023 58.7197C17.136 58.0534 16.7617 57.1498 16.7617 56.2075V34.7808L23.8672 41.8863V56.2075Z" fill="black"/>
<path d="M45.4425 59.7603C44.975 59.7635 44.5116 59.6738 44.0791 59.4963C43.6467 59.3189 43.2537 59.0573 42.9232 58.7268C42.5927 58.3963 42.3311 58.0033 42.1537 57.5709C41.9763 57.1384 41.8865 56.675 41.8897 56.2075V41.8671L48.9952 34.7808V56.2267C48.9984 56.6946 48.9086 57.1584 48.7308 57.5912C48.5531 58.024 48.2911 58.4171 47.9601 58.7477C47.629 59.0783 47.2355 59.3398 46.8025 59.5169C46.3695 59.694 45.9055 59.7833 45.4377 59.7795" fill="black"/>
<path d="M47.9738 33.2133L37.9292 43.2818L32.8854 48.2825L27.8607 43.2579L17.8162 33.1894C17.2259 32.5094 16.9158 31.6307 16.9487 30.7309C16.9815 29.8311 17.3547 28.9773 17.9929 28.3422C18.6311 27.707 19.4866 27.3379 20.3866 27.3094C21.2865 27.2809 22.1637 27.5952 22.8408 28.1887L32.9094 38.2572L42.9779 28.1887C43.6589 27.6059 44.535 27.3022 45.4306 27.3382C46.3262 27.3743 47.175 27.7476 47.807 28.3832C48.439 29.0188 48.8073 29.8697 48.8383 30.7655C48.8692 31.6613 48.5604 32.5357 47.9738 33.2133" fill="black"/>
<path d="M115.538 12.7261H88.2476C83.7258 12.7261 79.3893 14.5223 76.1919 17.7197C72.9945 20.9171 71.1982 25.2537 71.1982 29.7754V57.0467C71.1982 61.5685 72.9945 65.9051 76.1919 69.1025C79.3893 72.2998 83.7258 74.0961 88.2476 74.0961H115.524C120.045 74.0948 124.38 72.298 127.576 69.1008C130.773 65.9035 132.568 61.5677 132.568 57.0467V29.7754C132.568 25.257 130.775 20.9233 127.581 17.7265C124.388 14.5297 120.057 12.7312 115.538 12.7261" fill="white"/>
<path d="M118.664 28.0683C114.944 24.1695 109.933 21.7556 104.565 21.2758C99.1976 20.796 93.8384 22.2831 89.4855 25.4603C85.1325 28.6375 82.0824 33.2883 80.903 38.5468C79.7236 43.8053 80.4952 49.3132 83.0743 54.0451C83.3323 54.5123 83.4236 55.0534 83.3332 55.5794L82.6428 60.8102C82.6428 61.4791 82.9085 62.1205 83.3814 62.5935C83.8544 63.0664 84.4958 63.3321 85.1647 63.3321L90.5106 62.6321C90.9965 62.5693 91.4898 62.6616 91.9202 62.8958C96.5709 65.4345 101.976 66.228 107.16 65.1331C112.344 64.0382 116.966 61.1271 120.193 56.9247C123.42 52.7222 125.04 47.5051 124.759 42.214C124.479 36.9229 122.317 31.9062 118.664 28.0683" fill="white"/>
<path d="M102.631 66.4246C98.7615 66.4211 94.9547 65.4451 91.5606 63.5862C91.2803 63.4313 90.958 63.3692 90.6401 63.4088L85.2942 64.1088H85.1887C84.2986 64.1088 83.4449 63.7552 82.8155 63.1258C82.1861 62.4964 81.8325 61.6428 81.8325 60.7527C81.8301 60.7159 81.8301 60.6791 81.8325 60.6424L82.5277 55.4211C82.5637 55.1879 82.5523 54.9498 82.4942 54.7211C82.4624 54.606 82.4173 54.495 82.3599 54.3903C80.446 50.8844 79.4775 46.9407 79.5497 42.947C79.6218 38.9533 80.7322 35.0472 82.7716 31.6127C84.811 28.1782 87.7092 25.3337 91.1812 23.3588C94.6532 21.3839 98.5794 20.3467 102.574 20.3491H102.857C108.96 20.3816 114.801 22.8373 119.094 27.1761C123.387 31.515 125.78 37.3815 125.748 43.4851C125.716 49.5888 123.26 55.4295 118.921 59.7225C114.582 64.0155 108.716 66.4091 102.612 66.3766L102.631 66.4246ZM90.8223 61.7116C91.3445 61.7124 91.8584 61.8426 92.3182 62.0903C96.8253 64.5441 102.066 65.2911 107.079 64.1945C112.092 63.0978 116.542 60.2311 119.613 56.1197C122.684 52.0083 124.171 46.9277 123.8 41.8094C123.429 36.6911 121.225 31.8779 117.594 28.2523C113.962 24.6267 109.145 22.4315 104.026 22.0692C98.9071 21.7069 93.8291 23.2017 89.7228 26.2797C85.6166 29.3577 82.7574 33.8125 81.6692 38.8276C80.5811 43.8426 81.337 49.0819 83.7983 53.5848C83.9167 53.7965 84.0085 54.0219 84.0716 54.2561C84.194 54.6992 84.2218 55.1631 84.1531 55.6177L83.4531 60.8294C83.4652 61.2625 83.643 61.6745 83.9499 61.9805C84.2567 62.2864 84.6692 62.463 85.1024 62.4739L90.3764 61.7835C90.5137 61.7763 90.6514 61.7763 90.7887 61.7835" fill="black"/>
<path d="M95.7315 48.5939C96.0192 47.9131 96.211 47.4912 96.374 47.0644C97.742 43.622 99.1085 40.1811 100.473 36.7418C100.634 36.2921 100.855 35.8663 101.13 35.4761C101.263 35.289 101.439 35.1365 101.643 35.0313C101.847 34.9261 102.073 34.8712 102.302 34.8712C102.532 34.8712 102.758 34.9261 102.962 35.0313C103.166 35.1365 103.342 35.289 103.475 35.4761C103.736 35.8266 103.943 36.2145 104.088 36.6267C105.527 40.1699 106.917 43.7274 108.332 47.2754C108.475 47.635 108.643 47.985 108.883 48.5316C109.084 48.0521 109.223 47.7261 109.329 47.4144C110.619 43.6891 111.894 39.9589 113.193 36.2384C113.644 34.9439 114.723 34.5219 115.811 35.1692C116.132 35.3355 116.386 35.6076 116.531 35.9395C116.675 36.2714 116.7 36.6428 116.602 36.9911C116.525 37.298 116.401 37.5952 116.295 37.8973C114.419 43.1042 112.544 48.311 110.671 53.5179C110.548 53.8974 110.388 54.2636 110.192 54.611C110.075 54.845 109.899 55.0439 109.68 55.1876C109.462 55.3314 109.21 55.4148 108.949 55.4294C108.688 55.444 108.427 55.3893 108.194 55.2708C107.961 55.1524 107.764 54.9744 107.622 54.7549C107.35 54.3641 107.132 53.9383 106.975 53.4891C105.587 49.9731 104.208 46.4571 102.837 42.9411C102.698 42.5816 102.525 42.2363 102.295 41.7137C102.051 42.2795 101.873 42.6726 101.72 43.0562C100.339 46.5722 98.9598 50.0882 97.5822 53.6042C97.4556 53.9807 97.2951 54.345 97.1027 54.6925C96.9707 54.9165 96.7835 55.1029 96.5591 55.2341C96.3347 55.3653 96.0804 55.437 95.8205 55.4422C95.5606 55.4475 95.3037 55.3863 95.0741 55.2643C94.8445 55.1423 94.65 54.9636 94.5089 54.7453C94.3043 54.4056 94.1432 54.0416 94.0294 53.6617C92.1116 48.3813 90.2066 43.1074 88.3144 37.8398C88.2247 37.6169 88.1462 37.3897 88.0794 37.1589C88.0025 36.9411 87.9722 36.7096 87.9905 36.4794C88.0088 36.2491 88.0752 36.0253 88.1855 35.8223C88.2958 35.6194 88.4475 35.4419 88.6307 35.3013C88.814 35.1607 89.0247 35.0602 89.2493 35.0062C90.2609 34.6802 91.0137 35.0397 91.3925 36.1281C92.5527 39.4315 93.6842 42.7494 94.8301 46.0576C95.0986 46.8391 95.3863 47.611 95.7507 48.6323" fill="black"/>
</g>
<defs>
<clipPath id="clip0">
<rect width="134" height="84" fill="white"/>
</clipPath>
</defs>
</svg>
