<svg id="Layer_1" data-name="Layer 1" xmlns="http://www.w3.org/2000/svg" xmlns:xlink="http://www.w3.org/1999/xlink" viewBox="0 0 327 256"><defs><style>.cls-1{fill:none;}.cls-2{clip-path:url(#clip-path);}.cls-3{fill:#fff;}</style><clipPath id="clip-path"><rect class="cls-1" x="-1.5" y="-1" width="330" height="256"/></clipPath></defs><title>LMWN-RGB-white</title><g class="cls-2"><path class="cls-3" d="M125.12,62.08H57.93a30.4,30.4,0,0,0-30.4,30.4v67.19a30.41,30.41,0,0,0,30.4,30.41h67.19a30.42,30.42,0,0,0,30.41-30.41V92.48a30.41,30.41,0,0,0-30.41-30.4m-52.4,90.61a7.41,7.41,0,1,1-14.82,0V108l14.83,14.82Zm45,7.41a7.36,7.36,0,0,1-7.42-7.41V122.78L125.13,108v44.73a7.36,7.36,0,0,1-7.41,7.41M123,104.73l-20.95,21L91.53,136.16,81.05,125.68l-20.95-21A7.41,7.41,0,0,1,70.58,94.25l21,21,21-21A7.41,7.41,0,0,1,123,104.73"/><path d="M72.72,152.69a7.41,7.41,0,1,1-14.82,0V108l14.82,14.82Z"/><path d="M117.72,160.1a7.36,7.36,0,0,1-7.41-7.41V122.78L125.13,108v44.73a7.36,7.36,0,0,1-7.42,7.41"/><path d="M123,104.73l-20.95,21L91.53,136.16,81.05,125.68l-20.95-21A7.41,7.41,0,0,1,70.58,94.25l21,21,21-21A7.41,7.41,0,0,1,123,104.73"/><path class="cls-3" d="M263.92,62H207a35.56,35.56,0,0,0-35.56,35.56v56.88A35.56,35.56,0,0,0,207,190h56.89a35.56,35.56,0,0,0,35.55-35.56V97.56A35.56,35.56,0,0,0,263.92,62"/><path class="cls-3" d="M270.44,94a46.35,46.35,0,0,0-74.23,54.18,4.9,4.9,0,0,1,.54,3.2l-1.44,10.91a5.26,5.26,0,0,0,5.26,5.26l11.15-1.46a4.85,4.85,0,0,1,2.94.55h0A46.35,46.35,0,0,0,270.44,94"/><path d="M237,174a48.16,48.16,0,0,1-23.09-5.92,3.16,3.16,0,0,0-1.92-.37l-11.15,1.46h-.22a7,7,0,0,1-7-7,1.77,1.77,0,0,1,0-.23l1.45-10.89a3.66,3.66,0,0,0-.07-1.46,3.22,3.22,0,0,0-.28-.69,48,48,0,0,1,42.16-71h.59a48,48,0,0,1-.51,96m-24.59-9.73a6.6,6.6,0,0,1,3.12.79,44.5,44.5,0,1,0-17.77-17.74,6.14,6.14,0,0,1,.57,1.4,6.83,6.83,0,0,1,.17,2.84L197,162.33a3.53,3.53,0,0,0,3.44,3.43l11-1.44a8.27,8.27,0,0,1,.86,0"/><path d="M222.61,136.81c.6-1.42,1-2.3,1.34-3.19q4.28-10.77,8.55-21.53a11,11,0,0,1,1.37-2.64,3,3,0,0,1,4.89,0,9.07,9.07,0,0,1,1.28,2.4c3,7.39,5.9,14.81,8.85,22.21.3.75.65,1.48,1.15,2.62.42-1,.71-1.68.93-2.33,2.69-7.77,5.35-15.55,8.06-23.31.94-2.7,3.19-3.58,5.46-2.23a3.28,3.28,0,0,1,1.65,3.8c-.16.64-.42,1.26-.64,1.89q-5.87,16.29-11.73,32.58a12.44,12.44,0,0,1-1,2.28,3.09,3.09,0,0,1-5.36.3,11,11,0,0,1-1.35-2.64q-4.34-11-8.63-22c-.29-.75-.65-1.47-1.13-2.56-.51,1.18-.88,2-1.2,2.8q-4.32,11-8.63,22a13.71,13.71,0,0,1-1,2.27,3.18,3.18,0,0,1-5.41.11,9.86,9.86,0,0,1-1-2.26q-6-16.52-11.92-33a14.9,14.9,0,0,1-.49-1.42,3.44,3.44,0,0,1,2.44-4.49c2.11-.68,3.68.07,4.47,2.34,2.42,6.89,4.78,13.81,7.17,20.71.56,1.63,1.16,3.24,1.92,5.37"/></g></svg>