<svg width="169" height="123" viewBox="0 0 169 123" fill="none" xmlns="http://www.w3.org/2000/svg">
<g clip-path="url(#clip0)">
<path d="M20.3564 37.2242C21.2828 38.9992 20.9866 39.6735 21.2135 40.394C21.5537 41.4736 23.879 39.3059 25.8094 38.5539C27.742 37.8019 29.3489 38.3501 30.4222 38.9929C30.4222 38.9929 32.5564 38.619 28.223 33.4307C23.8895 28.2402 17.903 32.5715 18.1677 35.2917C18.2664 36.3105 19.8187 36.1929 20.3564 37.2242Z" fill="white"/>
<path d="M35.9376 68.1128L32.499 72.8222C32.8666 73.3495 33.3329 73.7675 33.8938 74.0406C35.8326 74.9837 38.3869 73.9775 40.4895 71.7174L40.2542 62.6997L37.9058 65.4157L39.7711 65.3107L39.1241 67.9322L35.9376 68.1128Z" fill="white"/>
<path d="M41.7706 57.6523C39.0189 56.3142 35.0258 58.8979 32.8517 63.4204C31.9065 65.3865 31.4611 67.3946 31.4843 69.1464L37.9896 60.2359L42.2285 59.9965L42.6024 59.9755L42.8188 68.2642C44.9866 63.7417 44.5202 58.9903 41.7706 57.6523Z" fill="white"/>
<path d="M59.7392 47.3157C55.4813 38.2896 37.0365 40.199 37.0365 40.199C42.1723 41.7051 43.4641 45.4378 43.7813 47.4879C43.1322 46.2948 42.3382 45.2088 41.3888 44.2657C32.2598 35.1871 12.1765 46.5112 12.1765 46.5112C12.1828 46.5154 12.1912 46.5196 12.1975 46.5238C7.85777 48.8659 1.30827 53.5081 2.05816 59.9085C3.17355 69.4134 22.0239 64.0907 22.0239 64.0907C22.0239 64.0907 21.3328 64.0549 20.3308 63.9415C16.0751 63.8533 13.0734 62.7883 12.6197 60.881C12.0757 58.5893 15.3588 55.7095 20.5724 53.4703C23.0951 56.7408 24.6159 60.5071 25.0108 64.3679C25.9099 73.1902 22.5406 81.9348 30.7474 79.6494C34.2826 78.6642 37.2549 76.6477 39.6096 74.0304C36.6563 76.8935 33.2114 78.0929 30.5542 76.8011C26.519 74.837 25.8321 67.8632 29.025 61.2234C32.2157 54.5857 38.0741 50.7963 42.1093 52.7582C44.695 54.0164 45.9029 57.3353 45.5983 61.3011C45.7495 60.4168 45.8587 59.5304 45.9197 58.6502C49.9758 57.9466 63.3626 55.0016 59.7392 47.3157ZM45.9491 58.1566C46.1129 54.8441 45.6277 51.6134 44.4367 48.8365C45.6088 48.7462 48.3437 48.6726 49.8162 49.7628C53.8072 52.7183 48.4508 56.6127 45.9491 58.1566Z" fill="white"/>
<path d="M142.015 78.3716L144.25 58.4123L134.855 58.4102L114.135 78.4473H122.573L128.66 72.4103H134.745L136.174 67.745H133.418L137.709 63.4872L135.896 78.3716H142.015Z" fill="white"/>
<path d="M69.9891 78.3712L72.5287 58.4118L63.8156 58.4097L43.0938 78.4468H51.5316L57.619 72.4098H63.7043L65.1327 67.7445H62.3768L66.6703 63.4867L64.8575 78.3712H69.9891Z" fill="white"/>
<path d="M149.922 78.3715H143.406L145.513 58.3911H153.833L161.265 71.0805V58.3911H167V78.3715H158.862L151.277 65.9006L149.922 78.3715Z" fill="white"/>
<path d="M131.085 73.5322H129.453L125.453 77.4834L125.495 78.4202H131.297L131.085 73.5322Z" fill="white"/>
<path d="M130.432 58.4395H121.192L118.31 69.3161L115.428 58.4395H107.475L105.322 78.4472H111.124L111.731 64.1466L115.35 75.0149L115.491 75.4329L118.694 72.3409L123.811 67.4004L124.889 64.1466L124.971 66.2787L130.537 60.8635L130.432 58.4395Z" fill="white"/>
<path d="M77.3919 78.3714L79.2467 62.7328C82.5697 61.8106 83.3826 63.0563 83.6557 63.489C84.2355 64.4048 84.0149 65.6462 83.2146 66.3457C82.6601 66.8289 81.8009 67.0641 80.1289 66.8772L79.6689 70.4334C81.5468 71.0657 85.7206 71.1182 87.233 69.1542L88.4219 60.0399C87.6426 59.0799 86.5587 58.6514 85.7143 58.5296C84.5968 58.3679 83.6746 58.3027 82.2841 58.3027H73.6109L71.0566 78.3693H77.3919V78.3714Z" fill="white"/>
<path d="M106.006 62.8276C105.714 61.6639 105.128 60.7733 104.294 60.1053C102.761 58.8786 100.391 58.4102 97.4674 58.4102H89.5168L87.0088 78.4788H93.2957L94.3145 69.8896L95.1505 62.8402C98.4736 61.9181 99.2865 63.1637 99.5596 63.5964C100.139 64.5122 99.9208 65.7537 99.1184 66.4531C98.5639 66.9384 97.7027 67.1715 96.0327 66.9846L95.5832 70.4589C96.2449 70.6857 96.9549 70.8328 97.6859 70.8937C98.6563 70.942 99.736 70.8727 100.727 70.6374C101.356 70.4757 101.942 70.2488 102.475 69.9695C105.267 68.5054 106.701 65.5961 106.006 62.8276Z" fill="white"/>
</g>
<defs>
<clipPath id="clip0">
<rect width="165" height="49.0184" fill="white" transform="translate(2 31)"/>
</clipPath>
</defs>
</svg>
