<svg width="169" height="84" viewBox="0 0 169 84" fill="none" xmlns="http://www.w3.org/2000/svg">
<g clip-path="url(#clip0)">
<path d="M20.3564 19.2242C21.2828 20.9992 20.9866 21.6735 21.2135 22.394C21.5537 23.4736 23.879 21.3059 25.8094 20.5539C27.742 19.8019 29.3489 20.3501 30.4222 20.9929C30.4222 20.9929 32.5564 20.619 28.223 15.4307C23.8895 10.2402 17.903 14.5715 18.1677 17.2917C18.2664 18.3105 19.8187 18.1929 20.3564 19.2242Z" fill="white"/>
<path d="M35.9376 50.1128L32.499 54.8222C32.8666 55.3495 33.3329 55.7675 33.8938 56.0406C35.8326 56.9837 38.3869 55.9775 40.4895 53.7174L40.2542 44.6997L37.9058 47.4157L39.7711 47.3107L39.1241 49.9322L35.9376 50.1128Z" fill="white"/>
<path d="M41.7706 39.6523C39.0189 38.3142 35.0258 40.8979 32.8517 45.4204C31.9065 47.3865 31.4611 49.3946 31.4843 51.1464L37.9896 42.2359L42.2285 41.9965L42.6024 41.9755L42.8188 50.2642C44.9866 45.7417 44.5202 40.9903 41.7706 39.6523Z" fill="white"/>
<path d="M59.7392 29.3157C55.4813 20.2896 37.0365 22.199 37.0365 22.199C42.1723 23.7051 43.4641 27.4378 43.7813 29.4879C43.1322 28.2948 42.3382 27.2088 41.3888 26.2657C32.2598 17.1871 12.1765 28.5112 12.1765 28.5112C12.1828 28.5154 12.1912 28.5196 12.1975 28.5238C7.85777 30.8659 1.30827 35.5081 2.05816 41.9085C3.17355 51.4134 22.0239 46.0907 22.0239 46.0907C22.0239 46.0907 21.3328 46.0549 20.3308 45.9415C16.0751 45.8533 13.0734 44.7883 12.6197 42.881C12.0757 40.5893 15.3588 37.7095 20.5724 35.4703C23.0951 38.7408 24.6159 42.5071 25.0108 46.3679C25.9099 55.1902 22.5406 63.9348 30.7474 61.6494C34.2826 60.6642 37.2549 58.6477 39.6096 56.0304C36.6563 58.8935 33.2114 60.0929 30.5542 58.8011C26.519 56.837 25.8321 49.8632 29.025 43.2234C32.2157 36.5857 38.0741 32.7963 42.1093 34.7582C44.695 36.0164 45.9029 39.3353 45.5983 43.3011C45.7495 42.4168 45.8587 41.5304 45.9197 40.6502C49.9758 39.9466 63.3626 37.0016 59.7392 29.3157ZM45.9491 40.1566C46.1129 36.8441 45.6277 33.6134 44.4367 30.8365C45.6088 30.7462 48.3437 30.6726 49.8162 31.7628C53.8072 34.7183 48.4508 38.6127 45.9491 40.1566Z" fill="white"/>
<path d="M142.015 60.3716L144.25 40.4123L134.855 40.4102L114.135 60.4473H122.573L128.66 54.4103H134.745L136.174 49.745H133.418L137.709 45.4872L135.896 60.3716H142.015Z" fill="white"/>
<path d="M69.9891 60.3712L72.5287 40.4118L63.8156 40.4097L43.0938 60.4468H51.5316L57.619 54.4098H63.7043L65.1327 49.7445H62.3768L66.6703 45.4867L64.8575 60.3712H69.9891Z" fill="white"/>
<path d="M149.922 60.3715H143.406L145.513 40.3911H153.833L161.265 53.0805V40.3911H167V60.3715H158.862L151.277 47.9006L149.922 60.3715Z" fill="white"/>
<path d="M131.085 55.5322H129.453L125.453 59.4834L125.495 60.4202H131.297L131.085 55.5322Z" fill="white"/>
<path d="M130.432 40.4395H121.192L118.31 51.3161L115.428 40.4395H107.475L105.322 60.4472H111.124L111.731 46.1466L115.35 57.0149L115.491 57.4329L118.694 54.3409L123.811 49.4004L124.889 46.1466L124.971 48.2787L130.537 42.8635L130.432 40.4395Z" fill="white"/>
<path d="M77.3919 60.3714L79.2467 44.7328C82.5697 43.8106 83.3826 45.0563 83.6557 45.489C84.2355 46.4048 84.0149 47.6462 83.2146 48.3457C82.6601 48.8289 81.8009 49.0641 80.1289 48.8772L79.6689 52.4334C81.5468 53.0657 85.7206 53.1182 87.233 51.1542L88.4219 42.0399C87.6426 41.0799 86.5587 40.6514 85.7143 40.5296C84.5968 40.3679 83.6746 40.3027 82.2841 40.3027H73.6109L71.0566 60.3693H77.3919V60.3714Z" fill="white"/>
<path d="M106.006 44.8276C105.714 43.6639 105.128 42.7733 104.294 42.1053C102.761 40.8786 100.391 40.4102 97.4674 40.4102H89.5168L87.0088 60.4788H93.2957L94.3145 51.8896L95.1505 44.8402C98.4736 43.9181 99.2865 45.1637 99.5596 45.5964C100.139 46.5122 99.9208 47.7537 99.1184 48.4531C98.5639 48.9384 97.7027 49.1715 96.0327 48.9846L95.5832 52.4589C96.2449 52.6857 96.9549 52.8328 97.6859 52.8937C98.6563 52.942 99.736 52.8727 100.727 52.6374C101.356 52.4757 101.942 52.2488 102.475 51.9695C105.267 50.5054 106.701 47.5961 106.006 44.8276Z" fill="white"/>
</g>
<defs>
<clipPath id="clip0">
<rect width="165" height="49.0184" fill="white" transform="translate(2 13)"/>
</clipPath>
</defs>
</svg>
