<svg xmlns="http://www.w3.org/2000/svg" viewBox="0 0 402.79 72.82"><defs><style>.cls-1{fill:#fff;}</style></defs><g id="Layer_2" data-name="Layer 2"><g id="Layer_1-2" data-name="Layer 1"><path class="cls-1" d="M0,48.65l13.11-1.28q1.19,6.6,4.8,9.7t9.76,3.09q6.51,0,9.81-2.75A8.19,8.19,0,0,0,40.78,51a6.06,6.06,0,0,0-1.39-4,11.09,11.09,0,0,0-4.85-2.89q-2.35-.82-10.78-2.91-10.83-2.69-15.2-6.6a17.51,17.51,0,0,1-3.26-23,18.1,18.1,0,0,1,8.33-6.76A33.34,33.34,0,0,1,26.76,2.5Q39.33,2.5,45.67,8t6.67,14.7l-13.47.59q-.87-5.14-3.71-7.4c-1.9-1.5-4.74-2.25-8.54-2.25s-7,.8-9.19,2.41a4.85,4.85,0,0,0-2.14,4.14,5.13,5.13,0,0,0,2,4.05q2.55,2.14,12.38,4.46t14.55,4.8a18.82,18.82,0,0,1,7.37,6.79,19.85,19.85,0,0,1,2.66,10.62,19.56,19.56,0,0,1-3.19,10.74,19.08,19.08,0,0,1-9,7.45,37.82,37.82,0,0,1-14.51,2.43q-12.66,0-19.44-5.85T0,48.65Z"/><path class="cls-1" d="M64.7,70.36V3.64H78.17V29.9h26.39V3.64H118V70.36H104.56V41.18H78.17V70.36Z"/><path class="cls-1" d="M130.62,70.36V3.64h13.47V70.36Z"/><path class="cls-1" d="M156,70.36V3.64h21.61q12.3,0,16,1a17.49,17.49,0,0,1,9.61,6.53q3.87,5,3.87,13a21.83,21.83,0,0,1-2.23,10.33,18.26,18.26,0,0,1-5.67,6.58,19.45,19.45,0,0,1-7,3.16,76.48,76.48,0,0,1-14,1h-8.78V70.36Zm13.47-55.44V33.86h7.37q8,0,10.65-1a8.75,8.75,0,0,0,5.73-8.47,8.62,8.62,0,0,0-2.13-6,9.32,9.32,0,0,0-5.42-3,65,65,0,0,0-9.69-.46Z"/><path class="cls-1" d="M217.23,70.36V3.64h21.62q12.28,0,16,1a17.51,17.51,0,0,1,9.6,6.53q3.87,5,3.87,13a21.71,21.71,0,0,1-2.23,10.33,18.14,18.14,0,0,1-5.66,6.58,19.45,19.45,0,0,1-7,3.16,76.56,76.56,0,0,1-14,1H230.7V70.36ZM230.7,14.92V33.86h7.38q8,0,10.65-1a8.86,8.86,0,0,0,4.21-3.28,9,9,0,0,0,1.52-5.19,8.58,8.58,0,0,0-2.14-6,9.26,9.26,0,0,0-5.41-3,65.07,65.07,0,0,0-9.7-.46Z"/><path class="cls-1" d="M351.68,70.36V3.64H373.3q12.29,0,16,1a17.51,17.51,0,0,1,9.6,6.53q3.87,5,3.87,13a21.83,21.83,0,0,1-2.23,10.33,18.26,18.26,0,0,1-5.67,6.58,19.49,19.49,0,0,1-7,3.16,76.68,76.68,0,0,1-14,1h-8.78V70.36Zm13.47-55.44V33.86h7.37q8,0,10.65-1a8.81,8.81,0,0,0,4.21-3.28,8.92,8.92,0,0,0,1.53-5.19,8.63,8.63,0,0,0-2.14-6,9.29,9.29,0,0,0-5.42-3,65,65,0,0,0-9.69-.46Z"/><path class="cls-1" d="M334.44,0H273.09a6.67,6.67,0,0,0-4.73,2l10.71,10.7v5.95h0V54.54a6.68,6.68,0,0,0,6.68,6.68h41.83l11.6,11.6a6.66,6.66,0,0,0,2-4.58V6.53A6.7,6.7,0,0,0,334.44,0ZM318.32,51.88H292a2.89,2.89,0,0,1-2.88-2.81V22.56a2.88,2.88,0,0,1,.85-2l5,5h18a2.86,2.86,0,0,1,2.87,2.87V43.88h0v2.56l4.61,4.6A2.91,2.91,0,0,1,318.32,51.88Z"/><path class="cls-1" d="M310,30.08h-9.92a1.07,1.07,0,0,0-.76.31L301,32.13v1h0V38.9A1.08,1.08,0,0,0,302.11,40h6.76l1.88,1.87a1.1,1.1,0,0,0,.32-.74v-10A1.09,1.09,0,0,0,310,30.08Z"/></g></g></svg>