<svg id="Layer_1" data-name="Layer 1" xmlns="http://www.w3.org/2000/svg" viewBox="0 0 900 900"><defs><style>.cls-1{fill:#fff;}</style></defs><title>Rainmaker-logo-2018</title><path class="cls-1" d="M117.67,509.57l43.81,137,43.81-137H232.5V677.43H211.4V612.07l2-65.5L169.43,677.43H153.29L109.6,547l2,65v65.36H90.46V509.57Z"/><path class="cls-1" d="M361,633.62H304.26l-13,43.81H269.55l54.08-167.86h18.1l54.18,167.86H374.24Zm-51.19-18.21h45.77l-22.94-76.32Z"/><path class="cls-1" d="M468.13,600.07,451.64,620v57.41H430.55V509.57h21.09v81l13.84-18.32,45.19-62.72H536l-54.53,73.9,58.8,94H515.05Z"/><path class="cls-1" d="M651.49,599.84H592.12v59.49h69.17v18.1H571V509.57h89.12v18.22h-68v54h59.37Z"/><path class="cls-1" d="M750.8,609.52H721.29v67.91H700.07V509.57h47q24.67,0,37.36,12.86t12.68,37.64q0,15.55-6.87,27.15a43.39,43.39,0,0,1-19.42,17.47l32.51,71.36v1.38H780.66Zm-29.51-18.09h25.59A30.26,30.26,0,0,0,759.56,589a26.29,26.29,0,0,0,9.05-6.69,28.23,28.23,0,0,0,5.48-9.91,39.73,39.73,0,0,0,1.85-12.28,50.08,50.08,0,0,0-1.62-13.2,27.43,27.43,0,0,0-5.07-10.21,22.62,22.62,0,0,0-8.94-6.57,33.9,33.9,0,0,0-13.2-2.3H721.29Z"/><path class="cls-1" d="M165.74,366.4H121.22V468.83h-32V215.63h70.94q37.22,0,56.35,19.39t19.12,56.78q0,23.49-10.35,40.95A65.34,65.34,0,0,1,196,359.11l49,107.63v2.09H210.77Zm-44.52-27.3h38.6A45.47,45.47,0,0,0,179,335.36a39.32,39.32,0,0,0,13.65-10.08,42.74,42.74,0,0,0,8.27-15,60,60,0,0,0,2.78-18.52,75.56,75.56,0,0,0-2.44-19.91,41.17,41.17,0,0,0-7.65-15.38,33.72,33.72,0,0,0-13.48-9.92q-8.27-3.48-19.91-3.48H121.22Z"/><path class="cls-1" d="M414.13,402.74H328.58l-19.65,66.09h-32.7l81.56-253.2H385.1l81.72,253.2H434.13Zm-77.21-27.47h69L371.35,260.15Z"/><path class="cls-1" d="M791.27,468.83h-32L657.9,273.71V468.83h-32V215.63h32l101.72,196v-196h31.65Z"/><polygon class="cls-1" points="552.27 215.63 520.45 215.63 520.45 267.65 552.27 247.84 552.27 215.63"/><polygon class="cls-1" points="520.45 293.88 520.45 468.83 552.27 468.83 552.27 274.07 520.45 293.88"/></svg>