<svg id="Layer_1" data-name="Layer 1" xmlns="http://www.w3.org/2000/svg" xmlns:xlink="http://www.w3.org/1999/xlink" viewBox="0 0 1773.83 474.61"><defs><style>.cls-1{fill:none;}.cls-2{fill:#fff;}.cls-3{clip-path:url(#clip-path);}</style><clipPath id="clip-path"><rect class="cls-1" width="1773.83" height="474.61"/></clipPath></defs><title>p&amp;amp;t_white</title><path class="cls-2" d="M415.88,152.94,233.82,40.21,51.76,152.94V369.6l104.81,64.8,60.17-37.24L225,402l.74.46,8.17,4.87,182-115.14ZM299.82,325.46l-67,41.33-70-43.35,51.92-32.17,18.1,11.15,15-9.35Zm-41.4-38.66,52.29-32.63v65.19ZM232.91,259,67.16,156.24,233.82,53.06l165.72,102.6Zm-82.64,86v72.68l-87.6-54.16V166.33L232.81,271.81v17.76l-82.54-50.82v89.72l82.54,51.13V394l-16.17-9.64,0,0Z"/><g class="cls-3"><path class="cls-2" d="M579.22,164.51Q593,176.26,593,200.58t-14.19,35.6q-14.19,11.28-43.3,11.27H517.89v36.42H488.76V152.77h46.4q30.26,0,44.06,11.74m-22.09,52.81q5.21-5.87,5.2-17.11t-6.78-16q-6.79-4.74-21.11-4.74H517.89v43.7h19.53q14.51,0,19.71-5.86"/><path class="cls-2" d="M669,275.68a42.65,42.65,0,0,1-27.66,9.67q-15.71,0-25.81-8t-10.1-22q0-15.65,20.91-27.73a54.19,54.19,0,0,1-6.83-10,22.81,22.81,0,0,1-2.13-10.17q0-12.09,8.74-18.49a34.16,34.16,0,0,1,20.7-6.4q11.94,0,20.41,6.19T675.68,206q0,13.94-20.34,25.88,8,10,11.95,14.37a59.43,59.43,0,0,0,5.4-13.8l16.64,11.95a92.89,92.89,0,0,1-8,16.64L695.45,275l-14.08,13.37ZM630.74,264.3q4.13,3.27,10.66,3.27t14.08-6.26q-10.38-11-17.92-19.91-10.95,6.82-10.95,14.65a10.11,10.11,0,0,0,4.13,8.25m16.07-65a8.24,8.24,0,0,0-5.62,2.2,7.57,7.57,0,0,0-2.49,6q0,3.78,5.69,10.88,10.67-5.69,10.67-10.66a7.7,7.7,0,0,0-2.56-6.26,8.7,8.7,0,0,0-5.69-2.13"/><polygon class="cls-2" points="767.95 177.05 767.95 283.87 738.82 283.87 738.82 177.05 702.4 177.05 702.4 152.77 806.8 152.77 806.8 177.05 767.95 177.05"/><polygon class="cls-2" points="954.89 152.77 984.02 152.77 984.02 283.87 954.89 283.87 954.89 232.89 901.48 232.89 901.48 283.87 872.35 283.87 872.35 152.77 901.48 152.77 901.48 208.61 954.89 208.61 954.89 152.77"/><path class="cls-2" d="M1124.6,266.09q-19.9,19.44-49,19.43t-49-19.43q-19.9-19.44-19.9-48.35t19.9-48.35q19.9-19.44,49-19.43t49,19.43q19.89,19.44,19.9,48.35t-19.9,48.35m-9.95-48.26q0-17.55-11.27-30a36,36,0,0,0-27.7-12.39q-16.42,0-27.69,12.39t-11.27,30q0,17.56,11.27,29.86a37.33,37.33,0,0,0,55.39,0q11.26-12.3,11.27-29.86"/><path class="cls-2" d="M1197,179.15a11.33,11.33,0,0,0-4.23,9.21,10.39,10.39,0,0,0,5.17,9.1q5.16,3.39,23.84,8t29,13.8q10.34,9.21,10.33,26.85t-13.24,28.64q-13.23,11-34.83,11-31.17,0-56.14-23.09l17.46-21.41q21.23,18.58,39.24,18.59,8.09,0,12.68-3.47a11.18,11.18,0,0,0,4.6-9.39,11,11,0,0,0-4.88-9.39q-4.89-3.47-19.34-7-22.92-5.44-33.52-14.18t-10.61-27.41q0-18.69,13.43-28.82T1209.46,150a80.69,80.69,0,0,1,26.29,4.5,70.51,70.51,0,0,1,22.91,12.77l-14.83,21.41q-17.1-13-35.3-13-7.33,0-11.55,3.47"/><polygon class="cls-2" points="1338.48 177.05 1338.48 283.87 1309.34 283.87 1309.34 177.05 1272.93 177.05 1272.93 152.77 1377.32 152.77 1377.32 177.05 1338.48 177.05"/><rect class="cls-2" x="1394.32" y="152.77" width="29.13" height="131.1"/><polygon class="cls-2" points="1547.27 152.77 1576.4 152.77 1576.4 283.87 1546.97 283.87 1484.14 201.72 1484.14 283.87 1455.01 283.87 1455.01 152.77 1482.56 152.77 1547.27 237.17 1547.27 152.77"/><path class="cls-2" d="M1692.93,218.32h29.14v46.57q-19.3,21.78-53.45,21.78-28.57,0-48-19.15t-19.39-48.35q0-29.21,19.76-48.73t47.69-19.53a70.09,70.09,0,0,1,48.53,18.59l-15,22q-8.73-7.69-16-10.61a42.65,42.65,0,0,0-15.87-2.91,37.76,37.76,0,0,0-27.83,11.36q-11.32,11.37-11.32,29.95T1642,249q10.86,11.18,25.89,11.17t25-5.82Z"/><path class="cls-2" d="M537.27,385.67a30,30,0,0,1-17.47,5.53,29.44,29.44,0,0,1-22.06-9.51,31.26,31.26,0,0,1-9-22.42,32.38,32.38,0,0,1,9-22.51,29.41,29.41,0,0,1,22.06-9.52,29.75,29.75,0,0,1,17.38,5.44A31,31,0,0,1,548.53,347h-7a24.42,24.42,0,0,0-15.05-12.21,26.74,26.74,0,0,0-7.55-1,20.82,20.82,0,0,0-8.78,2.06,25.45,25.45,0,0,0-7.83,5.53,25.89,25.89,0,0,0,0,35.6A24.05,24.05,0,0,0,532.56,381a25.23,25.23,0,0,0,9-9.7h7a30.71,30.71,0,0,1-11.35,14.42"/><path class="cls-2" d="M631.47,384.8a21.1,21.1,0,0,1-29.74,0A20,20,0,0,1,595.55,370a21.05,21.05,0,0,1,42.1,0,20,20,0,0,1-6.18,14.83m-4.53-25.17a14.47,14.47,0,1,0,4.3,10.34,14.08,14.08,0,0,0-4.3-10.34"/><path class="cls-2" d="M739.76,364.94q0-6.26-3.93-8.74a8,8,0,0,0-4.21-.87,9.4,9.4,0,0,0-5.31,1.65,12.28,12.28,0,0,0-3.93,4.21,15.38,15.38,0,0,0-1,2.2c0,.51,0,1,0,1.55V390.1H715V364.94q0-6.26-3.93-8.74a8,8,0,0,0-4.21-.87,9.4,9.4,0,0,0-5.31,1.65,12.37,12.37,0,0,0-3.93,4.21,20.88,20.88,0,0,0-2.47,8.31v20.6H688.7V349.84h6.41v6.42a16.48,16.48,0,0,1,4.53-5.05,12.24,12.24,0,0,1,7.36-2.29,14.79,14.79,0,0,1,6.77,1.33,12.74,12.74,0,0,1,4.26,3.52,14.68,14.68,0,0,1,1.69,2.8,16.57,16.57,0,0,1,4.72-5.36,12.22,12.22,0,0,1,7.36-2.29,14.79,14.79,0,0,1,6.77,1.33,12.74,12.74,0,0,1,4.26,3.52q3.33,4.34,3.34,11.17V390.1h-6.41Z"/><path class="cls-2" d="M798.59,413.16V350H805v6.88c.36-.47.74-.93,1.14-1.39a18.61,18.61,0,0,1,28.09,0,22.13,22.13,0,0,1,0,29.29,18.61,18.61,0,0,1-28.09,0c-.4-.46-.78-.92-1.14-1.39v29.75Zm30.7-53.25a13.82,13.82,0,0,0-20.22,0,14.93,14.93,0,0,0,0,20.49,13.82,13.82,0,0,0,20.22,0,14.93,14.93,0,0,0,0-20.49"/><path class="cls-2" d="M922.85,390.29v-6.88c-.36.47-.74.93-1.14,1.39a18.62,18.62,0,0,1-28.1,0,22.16,22.16,0,0,1,0-29.29,18.62,18.62,0,0,1,28.1,0c.4.46.78.92,1.14,1.39V350h6.41v40.27Zm-4.07-30.38a13.82,13.82,0,0,0-20.22,0,14.9,14.9,0,0,0,0,20.49,13.82,13.82,0,0,0,20.22,0,14.93,14.93,0,0,0,0-20.49"/><path class="cls-2" d="M1010.87,365.12a12.21,12.21,0,0,0-1.78-6.72q-1.79-2.79-5.91-2.79a11.78,11.78,0,0,0-10.84,5.62q-2.88,4.53-2.88,12.22v16.84h-6.41V350h6.41v6.92a17.21,17.21,0,0,1,5.12-5.5,13.23,13.23,0,0,1,7.6-2.24,16.64,16.64,0,0,1,7,1.23,13.17,13.17,0,0,1,4.49,3.39q3.66,4.31,3.66,11.3v25.17h-6.41Z"/><polygon class="cls-2" points="1067.05 413.16 1080.59 383.7 1063.76 350.02 1071.08 350.02 1083.98 377.02 1095.51 350.02 1102.65 350.02 1074.83 413.16 1067.05 413.16"/><polygon class="cls-2" points="1242.09 383.88 1242.09 390.29 1219.85 390.29 1216.65 390.29 1213.45 390.29 1213.45 328.06 1219.85 328.06 1219.85 383.88 1242.09 383.88"/><path class="cls-2" d="M1298.54,339a4.07,4.07,0,1,1-8.14,0,4,4,0,0,1,1.19-2.89,4.07,4.07,0,0,1,7,2.89m-7.23,11h6.41v40.27h-6.41Z"/><path class="cls-2" d="M1403,364.94q0-6.26-3.94-8.74a8,8,0,0,0-4.21-.87,9.34,9.34,0,0,0-5.3,1.65,12.4,12.4,0,0,0-3.94,4.21,17.87,17.87,0,0,0-1,2.2c0,.51,0,1,0,1.55V390.1h-6.4V364.94q0-6.26-3.94-8.74a8,8,0,0,0-4.21-.87,9.34,9.34,0,0,0-5.3,1.65,12.4,12.4,0,0,0-3.94,4.21,21,21,0,0,0-2.47,8.31v20.6h-6.4V349.84h6.4v6.42a16.48,16.48,0,0,1,4.53-5.05,12.27,12.27,0,0,1,7.37-2.29,14.84,14.84,0,0,1,6.77,1.33,12.6,12.6,0,0,1,4.25,3.52,14.73,14.73,0,0,1,1.7,2.8,16.66,16.66,0,0,1,4.71-5.36,12.25,12.25,0,0,1,7.37-2.29,14.84,14.84,0,0,1,6.77,1.33,12.7,12.7,0,0,1,4.25,3.52q3.35,4.34,3.34,11.17V390.1H1403Z"/><path class="cls-2" d="M1469.46,339a4,4,0,1,1-1.19-2.89,3.93,3.93,0,0,1,1.19,2.89m-7.23,11h6.41v40.27h-6.41Z"/><polygon class="cls-2" points="1517.77 350.02 1527.84 350.02 1527.84 334.38 1534.24 334.38 1534.24 350.02 1544.22 350.02 1544.22 355.97 1534.24 355.97 1534.24 390.29 1527.84 390.29 1527.84 355.97 1517.77 355.97 1517.77 350.02"/><path class="cls-2" d="M1632.33,372.63h-35.41a13.75,13.75,0,0,0,5,8.51,14.57,14.57,0,0,0,16,1.78,14.77,14.77,0,0,0,5.26-4.44h7.32a20.48,20.48,0,0,1-7.73,9.11,19.25,19.25,0,0,1-10.52,3.34,22.88,22.88,0,0,1-9.15-1.65,21.72,21.72,0,0,1-6.68-4.48,20,20,0,0,1-6.18-14.83,21.08,21.08,0,0,1,21-21,20.61,20.61,0,0,1,14.68,5.94,19.19,19.19,0,0,1,6.36,14.37Zm-11.94-14a13.84,13.84,0,0,0-9.1-3.3q-7.83,0-12.36,7.09a14.49,14.49,0,0,0-1.92,4.72h28.55a14.77,14.77,0,0,0-5.17-8.51"/><path class="cls-2" d="M1715,390.29v-6.88c-.36.47-.74.93-1.15,1.39a18.61,18.61,0,0,1-28.09,0,22.13,22.13,0,0,1,0-29.29,18.61,18.61,0,0,1,28.09,0c.41.46.79.92,1.15,1.39V321.66h6.4v68.63Zm-4.08-30.38a13.82,13.82,0,0,0-20.22,0,14.93,14.93,0,0,0,0,20.49,13.82,13.82,0,0,0,20.22,0,14.9,14.9,0,0,0,0-20.49"/></g></svg>