<svg id="Layer_1" data-name="Layer 1" xmlns="http://www.w3.org/2000/svg" viewBox="0 0 841.89 595.28"><defs><style>.cls-1{fill:#fff;}</style></defs><title>CPALL-logo</title><path class="cls-1" d="M146.4,568.23c-45.09,0-79.79-11.11-106.11-34-25.9-22.73-39-53.84-39-92.46,0-15.73,3.58-55.64,36.83-86.11,24.7-22.63,55.9-33.17,98.2-33.17a301.9,301.9,0,0,1,43.92,3c5.59.74,10.62,1.73,15.48,2.69,5.13,1,9.76,1.92,14,2.35,7.51.68,10.17,5.74,10.17,9.86a34.48,34.48,0,0,1-.37,4.31c-.32,2.62-.77,6.29-1.12,12.4-.28,4.71-.36,11.09-.43,16.73v.34c-.09,6.45-.15,12-.49,15.3-.53,8.33-3.85,12.56-9.86,12.56-4.26,0-9.33-2.24-9.33-12.89a35.66,35.66,0,0,0-9.81-22.94c-7.49-7.94-28.13-16.48-55.76-16.48-22.94,0-38.86,5.17-51.61,16.77-17.24,15.81-25.27,38.79-25.27,72.29,0,67.85,52.08,99.46,87.28,99.46,27.68,0,40.19-3.64,49.6-14.46A44,44,0,0,0,201.44,507c.71-3.8,2-10.91,10-10.91,4.17,0,9,2.84,9,10.81,0,4.3-3.7,30.73-6.8,41.31-2.09,7.08-4.65,9.92-11.41,12.7-13.5,5.4-37.73,7.32-55.9,7.32Z"/><path class="cls-1" d="M323.19,568.36c-12.19,0-23.88-.33-33.28-.6l-.85,0h-.35c-5.73-.17-10.27-.3-13.21-.3s-8.46.18-14.25.37h-.43c-8,.26-17.1.55-24.07.55-11.6,0-12.51-7.2-12.51-9.41s.82-8.82,11.27-8.82a44.54,44.54,0,0,0,9.72-1.07c1.75-.35,2.92-3.71,4-11.59,1.48-12.44,1.48-36.63,1.48-64.66V418.67c0-46.75,0-55.18-.6-64.82-.54-9.19-2-10.43-8.21-11.74a57.11,57.11,0,0,0-10.7-.78c-10.44,0-11.57-6.38-11.57-9.12,0-6,4.42-9.11,13.12-9.11,9.58,0,20.3.31,28.92.57,6.34.19,11.88.35,15.38.35,5.88,0,12.93-.2,20.87-.44l.9,0c7.74-.23,15.74-.46,22.84-.46,41,0,56.48,14.49,61.56,19.25,8,7.67,17.38,23.07,17.38,41.24,0,46.81-34.49,80.79-82,80.79a45.11,45.11,0,0,1-7.71-.43c-7.66-1.5-8.8-6.28-8.8-9,0-9.74,11.26-9.74,15-9.74,14.22,0,34.88-17.3,34.88-44.42,0-11.63-1.66-28.59-16-41.4A39.3,39.3,0,0,0,309.35,349a51.63,51.63,0,0,0-8.11.5v123.3c0,28,0,52.23,1.49,65.09,1,9.36,2.77,10.56,6.55,11.07a126.72,126.72,0,0,0,14.84,1.16c10.95,0,11.27,7.92,11.27,8.82,0,4.35-3.19,9.41-12.19,9.41Z"/><path class="cls-1" d="M574.9,568.33c-8.24,0-25.38,0-44-.46l-1.18-.06c-3.89-.21-12-.64-12-8.14a7.8,7.8,0,0,1,4.92-7.41l-16.85-44.63-46.18.16-11.5,30.92a39.62,39.62,0,0,0-3.07,11.91,4.21,4.21,0,0,0,0,.64h.06a22.67,22.67,0,0,0,2.84.21h3.48c8.87,0,9.83,5.73,9.83,8.2,0,1.45-.5,8.66-10.3,8.66-3.75,0-8.1-.17-12.31-.34h-.43c-4.52-.19-8.53-.34-11.85-.34-.72,0-2.29.05-4.44.14l-.43,0c-5.27.2-14.09.53-22.51.53-9.7,0-10.75-6.06-10.75-8.66,0-4.08,2.82-8.2,9.12-8.2,1.81,0,4.78-.21,6.41-.41,6.42-.84,9.7-4.64,14.62-16.95l58.23-145.69c2.84-6.83,5.5-13.26,12.39-13.26s9.55,6.49,11.61,11.23c2.4,5.49,10.57,26,20.05,49.74l.92,2.31c11.85,29.74,28.08,70.48,36.6,90.69,8.32,19.75,13.73,21,16,21.58a43.77,43.77,0,0,0,8.29.76c8.91,0,9.35,6.83,9.35,8.2,0,8.66-9.44,8.66-17,8.66ZM469.06,483.49h27.69L483.08,446l-14,37.5Z"/><path class="cls-1" d="M693.3,568.08c-13.15,0-23.39-.28-32.43-.53l-1.76,0-6.17-.15c-11.43-.5-19.8-.7-28.9-.7-2.51,0-7.71,0-13.29.23-3,0-6,.12-8.78.24h-.33c-2.7.12-5.3.23-7.58.23-10.58,0-11.11-7.27-11.11-8.72s.49-8.25,10.16-8.25a32.16,32.16,0,0,0,7.17-.8c.67-.47,1.36-3,2-7.78,1.13-9.49,1.13-28.17,1.13-49.8v-41.9c0-36.12,0-42.63-.47-50.05-.39-6.52-1.24-6.92-5.21-7.76a29.69,29.69,0,0,0-6.54-.57c-9.89,0-10.39-7.07-10.39-8.49,0-3.17,1.5-8.49,11.58-8.49,6.25,0,13.58.23,20.07.42l.63,0c4.88.15,9.17.28,11.9.28,2.47,0,7.16-.14,12.43-.29,6.94-.2,14.67-.43,19.94-.43,10.23,0,11.33,5.94,11.33,8.49,0,2-.76,8.49-10.63,8.49a57,57,0,0,0-8.23.62c-2,.37-3.1.58-3.51,7.68-.47,7.45-.47,14-.47,50.08V492c0,22.25,0,43.28,2.84,46.41,2.47,2.18,7.61,3.64,24.61,3.64,11.72,0,19.11-.23,23.19-4.63,1.92-2.08,4.2-7.44,4.53-10.61,1-8.36,6.57-9.27,8.94-9.27,3.07,0,8.24,1.35,8.24,10.39,0,3-1.71,21.45-3.81,29-2.71,10-8.8,11.09-21.1,11.09Z"/><path class="cls-1" d="M815.71,568.08c-13.13,0-23.37-.28-32.4-.53l-1.73,0-6.23-.16c-11.43-.5-19.79-.7-28.9-.7-2.5,0-7.71,0-13.29.23-3,0-5.95.12-8.78.24h-.33c-2.7.12-5.29.23-7.57.23-10.57,0-11.11-7.27-11.11-8.72s.5-8.25,10.15-8.25a31.63,31.63,0,0,0,7.19-.8c.65-.47,1.36-3.1,2-7.78,1.13-9.49,1.13-28.17,1.13-49.8v-41.9c0-36.13,0-42.64-.46-50.05-.39-6.52-1.24-6.92-5.22-7.76a29.69,29.69,0,0,0-6.54-.57c-9.89,0-10.39-7.07-10.39-8.49,0-3.17,1.5-8.49,11.57-8.49,6.27,0,13.61.23,20.09.42l.61,0c4.89.15,9.19.28,11.91.28,2.49,0,7.17-.14,12.43-.29l.94,0c6.53-.18,13.94-.4,19-.4,10.23,0,11.34,5.94,11.34,8.49,0,2-.77,8.49-10.63,8.49a57,57,0,0,0-8.23.62c-2,.37-3.12.58-3.52,7.67-.46,7.45-.46,14-.46,50.09V492c0,22.26,0,43.28,2.83,46.42,2.49,2.17,7.63,3.63,24.62,3.63,11.76,0,19.19-.31,23.2-4.63,1.9-2.07,4.18-7.44,4.52-10.63.9-8.34,6.54-9.25,8.92-9.25,3.09,0,8.26,1.35,8.26,10.39,0,3-1.71,21.43-3.81,29-2.74,10-8.83,11.09-21.11,11.09Z"/><path class="cls-1" d="M435.59,303.16a.2.2,0,0,1-.11,0,.32.32,0,0,1-.21-.36s13.32-79,15-88.76c.08-.48.17-1.1.29-1.85,9.78-63.86,46.63-77.26,75.81-77.26a103.48,103.48,0,0,1,14.9,1.13c23.8,3.5,42.71,5.82,57.68,5.82,24.06,0,38-6,51.34-22.1,2.52-3,4-9.62,4-9.68a.34.34,0,0,1,.3-.26h0a.31.31,0,0,1,.31.22c0,.07,2.65,7.19,3.14,11.95,1.16,10.21,5.32,61.41-23.67,94.6-16.19,18.55-39.72,27.95-69.9,27.95H526.31a3.54,3.54,0,0,1-.46,0s-3.28-.34-8.44-.34c-10.21,0-29.53,1.38-44.25,10.57-9.91,6.2-16,14.93-22.41,24.87-3.82,5.85-14.77,23.21-14.88,23.39a.32.32,0,0,1-.28.15Z"/><path class="cls-1" d="M420.35,346.78a.33.33,0,0,1-.32-.26s-.92-5-3.63-16.84c-9.27-45.37-47-45.5-90.62-45.65-36.91-.13-78.73-.29-106.28-29.23-57.69-60.64-1.06-160.19,1.38-164.39L229.48,76a.32.32,0,0,1,.27-.16.23.23,0,0,1,.11,0,.31.31,0,0,1,.22.34c0,.15-2,15.07-1.91,18a61.33,61.33,0,0,0,3.37,16.88c5.4,16.21,20.56,27.1,32.31,33.37a149.51,149.51,0,0,0,19.44,8.58c23,8.32,46.2,10.76,70.78,13.35l8.58.9c26.6,2.89,63.13,10.92,73.35,47.24,4.15,14.76,2.67,27.55.81,39.39-.13.79-15.48,88.82-16.14,92.56a.31.31,0,0,1-.32.27Z"/><path class="cls-1" d="M442.35,220.52a.33.33,0,0,1-.32-.24c0-.08-1.93-7.7-3.7-13.24-4.85-15.2-12-26.91-21.2-34.83-6.05-5-14.27-8.73-23-12.7-21.27-9.71-45.34-20.69-49.1-54-5.17-45.89,29.34-83.2,30.81-84.76.8-.84,9.75-10.74,9.75-10.74a.27.27,0,0,1,.23-.11.32.32,0,0,1,.16,0,.33.33,0,0,1,.17.36L383.3,22.7c-.05.16-4,14.56,3.85,24.35,4.69,5.87,13.85,12.29,23.54,19.08,15,10.49,31.95,22.37,39.87,37.17,8.47,15.78,6.46,33.37,3.66,50-4.27,25.48-11.48,66.52-11.55,66.93a.32.32,0,0,1-.31.26Z"/><path class="cls-1" d="M44.45,529.48C15.33,503.92,7.6,470.63,7.6,441.81c0-20.22,6.24-55.28,34.77-81.44,21.4-19.61,49.64-31.5,93.92-31.5a294.43,294.43,0,0,1,43.1,3c11.29,1.49,20.8,4.16,29.71,5.05,3.28.3,4.46,1.79,4.46,3.56,0,2.38-.88,5.95-1.48,16.36-.59,9.8-.3,26.15-.89,32.09-.3,4.46-.9,6.84-3.57,6.84-2.38,0-3-2.38-3-6.54a42.42,42.42,0,0,0-11.59-27.34c-9.81-10.41-33-18.43-60.34-18.43-25.85,0-42.79,6.54-55.87,18.43-21.7,19.91-27.34,48.14-27.34,77,0,70.73,53.79,105.81,93.61,105.81,26.46,0,42.5-3,54.39-16.65a49.69,49.69,0,0,0,10.11-19.62c.9-4.75,1.48-5.94,3.87-5.94,2.07,0,2.67,2.08,2.67,4.46,0,3.57-3.57,29.42-6.54,39.52-1.48,5.06-2.67,6.55-7.73,8.62-11.88,4.75-34.47,6.84-53.49,6.84C105.67,561.88,71.5,553,44.45,529.48Z"/><path class="cls-1" d="M257.05,418.66c0-46.76,0-55.37-.62-65.21-.61-10.47-3.07-15.39-13.22-17.54a63,63,0,0,0-12-.93c-3.38,0-5.22-.61-5.22-2.77s2.15-2.77,6.77-2.77c16.3,0,35.68.93,44.3.93,12.61,0,30.45-.93,44.61-.93,38.46,0,52.3,12.93,57.22,17.54,6.76,6.47,15.38,20.3,15.38,36.61,0,43.68-32,74.45-75.67,74.45a45.16,45.16,0,0,1-6.47-.31c-1.54-.31-3.7-.62-3.7-2.77,0-2.46,2.16-3.38,8.62-3.38,17.23,0,41.22-19.38,41.22-50.76,0-10.16-.91-30.77-18.14-46.14a45.72,45.72,0,0,0-30.77-12c-4.62,0-9.23.31-12,1.24-1.54.61-2.46,2.45-2.46,5.84V472.81c0,28.3,0,52.6,1.54,65.83.92,8.62,2.77,15.38,12,16.62a131,131,0,0,0,15.69,1.22c3.39,0,4.93.93,4.93,2.47,0,2.14-2.46,3.07-5.85,3.07-20.3,0-39.68-.93-47.69-.93-7.07,0-26.45.93-38.75.93-4,0-6.16-.93-6.16-3.07,0-1.54,1.24-2.47,4.92-2.47a50.64,50.64,0,0,0,11.08-1.22c6.16-1.24,7.69-8,8.93-16.92,1.53-12.93,1.53-37.23,1.53-65.53Z"/><path class="cls-1" d="M456.82,501.44c-1.17,0-1.63.46-2.1,1.85L442.2,536.47c-2.33,5.8-3.48,11.37-3.48,14.15,0,4.19,2.09,7.19,9.28,7.19h3.47c2.79,0,3.49.46,3.49,1.86,0,1.86-1.4,2.32-3.95,2.32-7.43,0-17.4-.7-24.59-.7-2.56,0-15.31.7-27.38.7-3,0-4.41-.46-4.41-2.32,0-1.4.94-1.86,2.78-1.86a70.87,70.87,0,0,0,7.2-.46c10.67-1.39,15.08-9.28,19.72-20.88l58.24-145.69c2.78-6.73,4.16-9.28,6.49-9.28,2.09,0,3.48,2.08,5.8,7.42,5.56,12.76,42.68,107.42,57.54,142.68,8.81,20.88,15.54,24.13,20.41,25.28a50.67,50.67,0,0,0,9.75.93c1.85,0,3,.23,3,1.86,0,1.86-2.09,2.32-10.67,2.32-8.36,0-25.29,0-43.84-.46-4.19-.24-7-.24-7-1.86,0-1.4.93-1.86,3.25-2.09a3.77,3.77,0,0,0,2.09-5.33l-18.57-49.19a2.22,2.22,0,0,0-2.31-1.62Zm47.32-11.61c1.16,0,1.39-.69,1.16-1.38l-20.88-57.31c-.23-.93-.47-2.09-1.16-2.09s-1.16,1.16-1.39,2.09l-21.35,57.07c-.23.93,0,1.62.93,1.62Z"/><path class="cls-1" d="M639.52,492c0,30.45,0,46.87,5,51.16,4,3.57,10.24,5.23,28.8,5.23,12.62,0,21.89-.24,27.84-6.66,2.86-3.09,5.72-9.76,6.19-14.28.24-2.14.71-3.57,2.63-3.57,1.65,0,1.89,1.18,1.89,4.05,0,2.62-1.66,20.46-3.57,27.37-1.42,5.23-2.61,6.42-15,6.42-17.13,0-29.51-.48-40.22-.72-10.71-.47-19.27-.71-29-.71-2.61,0-7.84,0-13.56.24-5.47,0-11.66.47-16.42.47-3.09,0-4.76-.71-4.76-2.37,0-1.2,1-1.91,3.81-1.91a38.44,38.44,0,0,0,8.56-1c4.77-.95,6-6.18,6.91-13.1,1.19-10,1.19-28.78,1.19-50.67v-41.9c0-36.17,0-42.83-.48-50.45-.48-8.09-2.38-11.9-10.22-13.56a35.24,35.24,0,0,0-7.86-.71c-2.63,0-4.05-.48-4.05-2.15s1.67-2.14,5.23-2.14c11.2,0,26.18.71,32.61.71,5.71,0,23.07-.71,32.37-.71,3.33,0,5,.48,5,2.14s-1.42,2.15-4.28,2.15a62.68,62.68,0,0,0-9.28.71c-6.43,1.19-8.33,5.24-8.81,13.56-.47,7.62-.47,14.28-.47,50.45Z"/><path class="cls-1" d="M761.93,492c0,30.45,0,46.87,5,51.16,4.06,3.57,10.24,5.23,28.81,5.23,12.6,0,21.89-.24,27.84-6.66,2.86-3.09,5.71-9.76,6.18-14.28.24-2.14.72-3.57,2.62-3.57,1.67,0,1.91,1.18,1.91,4.05,0,2.62-1.67,20.46-3.57,27.37-1.43,5.23-2.61,6.42-15,6.42-17.12,0-29.5-.48-40.22-.72-10.7-.47-19.27-.71-29-.71-2.6,0-7.84,0-13.56.24-5.47,0-11.65.47-16.41.47-3.1,0-4.76-.71-4.76-2.37,0-1.2.95-1.91,3.81-1.91a38.52,38.52,0,0,0,8.56-1c4.77-.95,5.95-6.18,6.91-13.1,1.18-10,1.18-28.78,1.18-50.67v-41.9c0-36.17,0-42.83-.47-50.45-.48-8.09-2.39-11.9-10.23-13.56a35.18,35.18,0,0,0-7.86-.71c-2.62,0-4-.48-4-2.15s1.67-2.14,5.24-2.14c11.19,0,26.18.71,32.6.71,5.72,0,23.09-.71,32.37-.71,3.34,0,5,.48,5,2.14s-1.41,2.15-4.28,2.15a62.55,62.55,0,0,0-9.27.71c-6.43,1.19-8.34,5.24-8.81,13.56-.48,7.62-.48,14.28-.48,50.45Z"/><path class="cls-1" d="M442.16,286.29l12.34-71.67s6.7-85.9,86-74.24c65.47,9.62,90.1,9.8,113-17.81,0,0,16.05,118.25-90.1,117.59H526.2s-32.54-3.47-55.49,10.87C459.14,258.27,450.48,269.77,442.16,286.29Z"/><path class="cls-1" d="M420.18,328l11.63-74c2-12.94,2.72-25.08-.92-38-9-32-39.41-41.11-68.83-44.29-27.42-3-54.18-5-80.39-14.49a153.71,153.71,0,0,1-20-8.83c-14.64-7.82-29-19.61-34.41-35.86-1.31-3.93-4.94-16-2.69-19.91,0,0-58.13,100.18-2,159.18C280.43,312.59,403.86,240,420.18,328Z"/><path class="cls-1" d="M441.15,202.28s4.26-23.67,8.62-49.67c3-17.62,4.24-33.38-3.19-47.25C434.05,82,396.11,65.44,383.6,49.8c-9.64-12-4.66-26.06-4.66-26.06S344.29,60.6,349.29,105c5,44.23,49,46.12,70.52,63.81C439,184.59,441.15,202.28,441.15,202.28Z"/></svg>