<svg id="Layer_1" data-name="Layer 1" xmlns="http://www.w3.org/2000/svg" xmlns:xlink="http://www.w3.org/1999/xlink" viewBox="0 0 1150.64 535.56"><defs><style>.cls-1{fill:none;}.cls-2{fill:#fff;}.cls-3{clip-path:url(#clip-path);}.cls-4{fill:url(#linear-gradient);}.cls-5{clip-path:url(#clip-path-2);}.cls-6{fill:url(#linear-gradient-2);}.cls-7{clip-path:url(#clip-path-3);}.cls-8{fill:url(#linear-gradient-3);}</style><clipPath id="clip-path"><path class="cls-1" d="M197.27,364.61V311.83a9.27,9.27,0,1,1,18.53,0v38a5.52,5.52,0,0,0,5.52,5.52H288.7a5.53,5.53,0,0,0,5.52-5.52v-26a9.27,9.27,0,0,1,18.53,0v40.75a9.28,9.28,0,0,1-9.27,9.27h-97a9.27,9.27,0,0,1-9.26-9.27M311.6,260.94v-58.1a9.27,9.27,0,0,1,18.53,0v58.1a9.27,9.27,0,0,1-18.53,0M197.27,207.48v-36.1a9.27,9.27,0,0,1,9.26-9.27h76.86a9.27,9.27,0,0,1,0,18.53H221.32a5.52,5.52,0,0,0-5.52,5.52v6.54a5.52,5.52,0,0,0,5.52,5.52h69.46a9.27,9.27,0,0,1,9.26,9.26v36.78a9.27,9.27,0,0,1-9.26,9.26h-21a5.53,5.53,0,0,0-5.52,5.52V278a5.53,5.53,0,0,0,5.52,5.52h66.38a5.52,5.52,0,0,0,5.52-5.52v-26.3a9.27,9.27,0,0,1,18.53,0v69.47a9.27,9.27,0,0,1-18.53,0v-13.6a5.52,5.52,0,0,0-5.52-5.52H269.79a5.53,5.53,0,0,0-5.52,5.52v24.29a9.27,9.27,0,1,1-18.53,0V259a5.52,5.52,0,0,0-5.52-5.52H173.17a5.52,5.52,0,0,0-5.51,5.52v6.54a5.52,5.52,0,0,0,5.51,5.52h50a9.27,9.27,0,1,1,0,18.53h-50a5.52,5.52,0,0,0-5.51,5.52v26a9.27,9.27,0,0,1-18.54,0V244.26a9.28,9.28,0,0,1,9.27-9.27H276a5.52,5.52,0,0,0,5.51-5.52v-7.2a5.52,5.52,0,0,0-5.51-5.52H206.53a9.27,9.27,0,0,1-9.26-9.27M243,81.21c-104.48,0-189.18,84.7-189.18,189.18S138.53,459.57,243,459.57h0c104.48,0,189.18-84.7,189.18-189.18S347.49,81.21,243,81.21Z"/></clipPath><linearGradient id="linear-gradient" x1="-2136.43" y1="911.04" x2="-2135.18" y2="911.04" gradientTransform="matrix(0, -303.04, -303.04, 0, 276324.41, -646963.29)" gradientUnits="userSpaceOnUse"><stop offset="0" stop-color="#fff"/><stop offset="0.99" stop-color="#bcbec0"/><stop offset="1" stop-color="#bcbec0"/></linearGradient><clipPath id="clip-path-2"><path class="cls-1" d="M239.86,73.81c-17.85.81-35.26,5.2-52.35,11-16.86,5.73-32.51,14-47.69,23.67s-28.33,21.58-40.7,34.84a179.1,179.1,0,0,0-29.68,43.91,125.48,125.48,0,0,0-8.19,21.44C58.57,218.36,56.19,228,55.47,238c-2.18,29.83,5,58.64,17.4,84.73A150.85,150.85,0,0,1,69.82,302a154,154,0,0,1,4.72-50.7q1.21-4.57,2.7-9.12,1.68-6.7,4-13.31C87,212.71,94.05,197.28,103.83,183s20.69-27.42,33.72-38.9c28.22-24.85,63.19-44.06,102.59-47.48,10-.86,19.84-.06,29.81,1a125.84,125.84,0,0,1,22.48,4.63,181,181,0,0,1,48.14,22.12c15.09,10,29,21,41,34.36s22.72,27.35,31.12,42.95c7.05,13.09,13.16,26.55,17.16,40.63-.12-2.34-.29-4.68-.49-7-2.93-32.64-15.56-64.95-36.62-88.86a196.61,196.61,0,0,0-46.86-38.94c-.93-.81-1.88-1.62-2.84-2.41-7.42-6.12-15.66-11-24.06-15.61a116.61,116.61,0,0,0-20.82-8.83,159.78,159.78,0,0,0-28.62-6.37,137.84,137.84,0,0,0-16.49-.9c-4.37,0-8.76.15-13.17.35"/></clipPath><linearGradient id="linear-gradient-2" x1="-2128.71" y1="913.16" x2="-2127.46" y2="913.16" gradientTransform="matrix(300.1, 0, 0, -300.1, 638888.69, 274241.29)" xlink:href="#linear-gradient"/><clipPath id="clip-path-3"><path class="cls-1" d="M427.46,284.34a185.48,185.48,0,0,1-14.69,47.32c-14.35,30-36.54,56.26-64.15,74-12.09,7.74-24.46,14.52-37.69,19.49a109.33,109.33,0,0,1-17.23,7.4c-9.95,3.27-19.88,6-30.21,7.05a161.6,161.6,0,0,1-30.94.34,156.9,156.9,0,0,1-49.68-13q-4.37-1.95-8.65-4.16c-4.26-1.85-8.47-3.88-12.59-6.16-15.13-8.31-29.35-17.81-42-29.81s-24-24.95-33.32-39.7a228.83,228.83,0,0,1-13.48-24.39q1,4.8,2.32,9.51c2.72,9.95,7,19.25,11.88,28.47a108.67,108.67,0,0,0,10.1,15.71c7,12.16,15.75,23.2,25.36,33.82,21.95,24.24,51.41,41.83,83.38,51.14a189.43,189.43,0,0,0,97.66,1c31.72-8,61.52-25.49,81.67-49.9a193.81,193.81,0,0,0,30.77-52c.65-1,1.3-2.1,1.92-3.17,4.83-8.23,8.33-17.07,11.48-26a114.84,114.84,0,0,0,5.32-21.78,158.35,158.35,0,0,0,1.62-29c-.43-9.82-2.22-19.45-4.29-29.12-.64-3-1.39-6-2.23-8.9a183.17,183.17,0,0,1-2.37,41.95"/></clipPath><linearGradient id="linear-gradient-3" x1="-2128.57" y1="913.05" x2="-2127.32" y2="913.05" gradientTransform="matrix(291.17, 0, 0, -291.17, 619856.14, 266212.58)" gradientUnits="userSpaceOnUse"><stop offset="0" stop-color="#bcbec0"/><stop offset="0.01" stop-color="#bcbec0"/><stop offset="0.98" stop-color="#f1f2f2"/><stop offset="1" stop-color="#f1f2f2"/></linearGradient></defs><title>ContentShifu-white</title><path class="cls-2" d="M539.7,353.29c1,.81,2.22,1.88,3.74,3.22a47.63,47.63,0,0,0,5.19,4,43.13,43.13,0,0,0,8.67,4.55,25.13,25.13,0,0,0,9,1.64,23.36,23.36,0,0,0,7.33-1,12.29,12.29,0,0,0,4.68-2.62,9.19,9.19,0,0,0,2.45-3.77,14.22,14.22,0,0,0,.73-4.55,6.68,6.68,0,0,0-2-4.76,21,21,0,0,0-4.93-3.73,42.55,42.55,0,0,0-6.1-2.78q-3.18-1.17-5.49-1.93a125.72,125.72,0,0,1-18-7.77,55.72,55.72,0,0,1-12.88-9.26,33.41,33.41,0,0,1-10.3-24.92A32.35,32.35,0,0,1,525,285.12,31.85,31.85,0,0,1,534.17,274a43.46,43.46,0,0,1,14.38-7.16,65,65,0,0,1,18.8-2.53,62.18,62.18,0,0,1,15,1.76,56.83,56.83,0,0,1,14.13,5.62c1.94,1.14,3.79,2.33,5.53,3.56a56.53,56.53,0,0,1,4.59,3.56,21.8,21.8,0,0,1,3.14,3.27,4.74,4.74,0,0,1,1.16,2.66,4,4,0,0,1-.56,2.06,12.63,12.63,0,0,1-1.68,2.14l-13.13,14a4.18,4.18,0,0,1-2.92,1.46,3.74,3.74,0,0,1-2.19-.68c-.66-.46-1.38-1-2.19-1.72l-.77-.69c-1.14-1-2.42-2-3.82-3a34,34,0,0,0-4.5-2.79,30.41,30.41,0,0,0-5.07-2.06,18.48,18.48,0,0,0-5.41-.82,28.07,28.07,0,0,0-5.32.48,14.68,14.68,0,0,0-4.38,1.5,8.26,8.26,0,0,0-3,2.7,7.9,7.9,0,0,0,.08,8.24,11.84,11.84,0,0,0,3.61,3.26,32.76,32.76,0,0,0,6,2.84c2.37.89,5.13,1.84,8.28,2.87q9.11,3,16.78,6.31a56.92,56.92,0,0,1,13.26,7.81,32.37,32.37,0,0,1,8.72,10.78,33.8,33.8,0,0,1,3.13,15.19,37.65,37.65,0,0,1-3.86,17.13,39.3,39.3,0,0,1-10.6,13.09,49.88,49.88,0,0,1-15.84,8.37,63,63,0,0,1-19.57,3,55.47,55.47,0,0,1-19.4-3.53,74.2,74.2,0,0,1-17.77-9.47,45,45,0,0,1-5.8-4.91c-1.57-1.61-2.82-2.9-3.73-3.87l-.26-.26a.61.61,0,0,0-.17-.22.41.41,0,0,1-.17-.13.49.49,0,0,0-.18-.21.86.86,0,0,1-.17-.13c-1.31-1.44-2-2.58-2-3.44s.66-2.07,2-3.27l14.85-14.17a5.62,5.62,0,0,1,2.92-1.29,3.11,3.11,0,0,1,1.63.52,15.52,15.52,0,0,1,2.06,1.54"/><path class="cls-2" d="M649.49,270.8a4.36,4.36,0,0,1,1.08-2.62,3.26,3.26,0,0,1,2.61-1.16h25.5a4.35,4.35,0,0,1,2.66,1.08,3.3,3.3,0,0,1,1.37,2.71v40.76h42.67V270.81a3.74,3.74,0,0,1,3.85-3.79h25.09a5.25,5.25,0,0,1,3,.86,3.06,3.06,0,0,1,1.29,2.75V390.72a3.48,3.48,0,0,1-1.12,2.83,4.34,4.34,0,0,1-2.91.95H729.23a4,4,0,0,1-2.78-.95,3.55,3.55,0,0,1-1.07-2.83V342H682.71v48.76a3.47,3.47,0,0,1-1.15,2.79,4.69,4.69,0,0,1-3.14,1H653.18q-3.6,0-3.69-3.35Z"/><path class="cls-2" d="M799.89,270.8a4,4,0,0,1,.94-2.66,3.51,3.51,0,0,1,2.83-1.12H828.9a4.91,4.91,0,0,1,2.75,1,3.23,3.23,0,0,1,1.46,2.75V390.72c0,2.52-1.41,3.78-4.21,3.78H803.66c-2.52,0-3.77-1.26-3.77-3.78Z"/><path class="cls-2" d="M874.31,271a3.92,3.92,0,0,1,1-2.83,3.45,3.45,0,0,1,2.36-1.12h82.15a3.77,3.77,0,0,1,3,1.12,4.33,4.33,0,0,1,1,3v21.23a4.5,4.5,0,0,1-1,2.78,3.57,3.57,0,0,1-3,1.33H907.53v26.61h38.54a4.25,4.25,0,0,1,2.75.9,3.49,3.49,0,0,1,1.12,2.87v20.52a4.6,4.6,0,0,1-1,2.79,3.18,3.18,0,0,1-2.71,1.33H907.53v39.32q0,3.69-3.95,3.69H877.4a3.25,3.25,0,0,1-3.09-3.61Z"/><path class="cls-2" d="M1030.63,343.66a29.08,29.08,0,0,0,1.76,10.78,20.31,20.31,0,0,0,4.64,7.22,17.62,17.62,0,0,0,6.71,4.08,24.77,24.77,0,0,0,8,1.29,22.07,22.07,0,0,0,8.13-1.5,19.09,19.09,0,0,0,6.71-4.47,21.25,21.25,0,0,0,4.55-7.35,27.93,27.93,0,0,0,1.68-10V270.8a3.68,3.68,0,0,1,1.08-2.66,3.8,3.8,0,0,1,2.87-1.12h25.07a4.12,4.12,0,0,1,3.09,1.16,3.69,3.69,0,0,1,1.11,2.62v72.37q0,15-4.42,25.23a43.38,43.38,0,0,1-11.89,16.44,45.47,45.47,0,0,1-17.29,8.93,77.68,77.68,0,0,1-20.65,2.7,75.6,75.6,0,0,1-20.68-2.79,45.75,45.75,0,0,1-17.35-9.1,44.14,44.14,0,0,1-11.88-16.48q-4.43-10.17-4.43-24.93V270.8a3.93,3.93,0,0,1,1-2.62,3.08,3.08,0,0,1,2.44-1.16h25.69a4.5,4.5,0,0,1,2.69,1.08,3.28,3.28,0,0,1,1.42,2.7Z"/><path class="cls-2" d="M584.27,141.53a3.33,3.33,0,0,1,1.33,1.38,2.19,2.19,0,0,1-.16,2l-9,12.73a2.07,2.07,0,0,1-1.24,1,2.33,2.33,0,0,1-1.62-.45,20.17,20.17,0,0,0-5.73-3,20.74,20.74,0,0,0-6.63-1.06,19.27,19.27,0,0,0-14.32,6.15,20.82,20.82,0,0,0-4.14,6.69,23.21,23.21,0,0,0,0,16.31,20.54,20.54,0,0,0,4.14,6.63,19.53,19.53,0,0,0,6.31,4.48,19.26,19.26,0,0,0,8,1.64,20.64,20.64,0,0,0,6.68-1.08,20.88,20.88,0,0,0,5.78-3.05,2.47,2.47,0,0,1,1.6-.48,2.2,2.2,0,0,1,1.27.95l9.07,13.05a2.09,2.09,0,0,1,.16,2,3.46,3.46,0,0,1-1.33,1.33,41.92,41.92,0,0,1-10.74,5.17,39.74,39.74,0,0,1-12.12,1.83A40.41,40.41,0,0,1,533,203.88a41.09,41.09,0,0,1-6.33-8.17,39.91,39.91,0,0,1-4.09-9.65,40.66,40.66,0,0,1,4.09-31.3,41.3,41.3,0,0,1,6.33-8.25,39.65,39.65,0,0,1,8.2-6.33,41.78,41.78,0,0,1,9.68-4.09,41,41,0,0,1,22.8.32,41.41,41.41,0,0,1,10.64,5.12"/><path class="cls-2" d="M598.54,175.26A40,40,0,0,1,600,164.47a40.92,40.92,0,0,1,10.43-18,39.65,39.65,0,0,1,8.2-6.33,42,42,0,0,1,9.69-4.09,40.56,40.56,0,0,1,21.57,0,41.83,41.83,0,0,1,9.71,4.09,40.37,40.37,0,0,1,8.23,6.33,39.92,39.92,0,0,1,6.34,8.25,42.57,42.57,0,0,1,4.09,9.71,40.64,40.64,0,0,1,0,21.59,41.56,41.56,0,0,1-4.09,9.65,39.71,39.71,0,0,1-6.34,8.17,41.46,41.46,0,0,1-8.23,6.33,40.17,40.17,0,0,1-9.71,4.09,40.69,40.69,0,0,1-45.8-18.59,39.82,39.82,0,0,1-5.52-20.45m20.52,0a22.52,22.52,0,0,0,1.49,8.22,20.22,20.22,0,0,0,4.16,6.66,19.41,19.41,0,0,0,6.32,4.45,20.89,20.89,0,0,0,16.13,0,19.26,19.26,0,0,0,6.36-4.45,20.56,20.56,0,0,0,4.16-6.66,23.51,23.51,0,0,0,0-16.42,20.68,20.68,0,0,0-4.16-6.71,19.25,19.25,0,0,0-6.36-4.5,19.74,19.74,0,0,0-22.45,4.5,20.34,20.34,0,0,0-4.16,6.71,22.6,22.6,0,0,0-1.49,8.2"/><path class="cls-2" d="M700.8,138.13a2.46,2.46,0,0,1,.58-1.64,2.16,2.16,0,0,1,1.75-.69h17.34a3.58,3.58,0,0,1,1.54.37,3.38,3.38,0,0,1,1.38,1.27q6.74,10.88,13.37,21.43t13.41,21.43V137.82a2.66,2.66,0,0,1,.85-1.49,2.28,2.28,0,0,1,1.49-.53h15.12a2.81,2.81,0,0,1,1.85.61,2.09,2.09,0,0,1,.74,1.72V212.5a1.89,1.89,0,0,1-.63,1.56,2.74,2.74,0,0,1-1.75.5H750.92a1.79,1.79,0,0,1-1.22-.47,8.3,8.3,0,0,1-1.12-1.28l-13.94-23.07q-6.9-11.4-14-23.07v45.56a2.54,2.54,0,0,1-.53,1.75,2.51,2.51,0,0,1-1.91.58H703.13a2.21,2.21,0,0,1-1.78-.66,2.43,2.43,0,0,1-.55-1.62Z"/><path class="cls-2" d="M791.17,138.13a2.13,2.13,0,0,1,.72-1.69,2.56,2.56,0,0,1,1.78-.64h57.06a2.65,2.65,0,0,1,1.7.58,2.36,2.36,0,0,1,.85,1.75V151.3a3,3,0,0,1-.66,1.82,2.23,2.23,0,0,1-1.89.87H832.44v58.08a2.5,2.5,0,0,1-.69,1.72,2.28,2.28,0,0,1-1.8.77H814.4a2.49,2.49,0,0,1-1.7-.71,2.3,2.3,0,0,1-.79-1.78V154H793.67a2.5,2.5,0,0,1-1.78-.68,2.66,2.66,0,0,1-.72-2Z"/><path class="cls-2" d="M874.07,138.24a2.53,2.53,0,0,1,.61-1.78,2.22,2.22,0,0,1,1.72-.66H929a2.31,2.31,0,0,1,1.8.69,2.59,2.59,0,0,1,.64,1.85v13.12a2.7,2.7,0,0,1-.64,1.71A2.18,2.18,0,0,1,929,154H894.6v13.16h26.52a2.86,2.86,0,0,1,1.67.47,1.84,1.84,0,0,1,.66,1.6v11.45a2.17,2.17,0,0,1-.58,1.43,2.11,2.11,0,0,1-1.7.69H894.6v13.58h35.64a2.13,2.13,0,0,1,2.39,2.43v13.33a1.33,1.33,0,0,1-.43,1c-.14,1-.87,1.48-2.17,1.48H876.4a2.46,2.46,0,0,1-1.69-.55,2.16,2.16,0,0,1-.64-1.73Z"/><path class="cls-2" d="M953.84,138.13a2.46,2.46,0,0,1,.58-1.64,2.18,2.18,0,0,1,1.75-.69h17.35a3.61,3.61,0,0,1,1.54.37,3.3,3.3,0,0,1,1.37,1.27q6.74,10.88,13.37,21.43t13.42,21.43V137.82a2.55,2.55,0,0,1,.85-1.49,2.26,2.26,0,0,1,1.48-.53h15.12a2.83,2.83,0,0,1,1.86.61,2.12,2.12,0,0,1,.74,1.72V212.5a1.86,1.86,0,0,1-.64,1.56,2.72,2.72,0,0,1-1.75.5H1004a1.79,1.79,0,0,1-1.22-.47,8.87,8.87,0,0,1-1.11-1.28l-14-23.07q-6.9-11.4-14-23.07v45.56a2,2,0,0,1-2.44,2.33H956.17a2.19,2.19,0,0,1-1.77-.66,2.44,2.44,0,0,1-.56-1.62Z"/><path class="cls-2" d="M1044.22,138.13a2.15,2.15,0,0,1,.71-1.69,2.56,2.56,0,0,1,1.78-.64h57.07a2.67,2.67,0,0,1,1.7.58,2.43,2.43,0,0,1,.85,1.75V151.3a3,3,0,0,1-.67,1.82,2.22,2.22,0,0,1-1.88.87h-18.3v58.08a2.5,2.5,0,0,1-.69,1.72,2.26,2.26,0,0,1-1.79.77h-15.56a2.47,2.47,0,0,1-1.69-.71,2.31,2.31,0,0,1-.8-1.78V154h-18.24a2.5,2.5,0,0,1-1.78-.68,2.69,2.69,0,0,1-.71-2Z"/><g class="cls-3"><rect class="cls-4" x="-15.41" y="11.97" width="516.85" height="516.85" transform="translate(-112.66 345.65) rotate(-60)"/></g><g class="cls-5"><rect class="cls-6" x="53.29" y="73.46" width="376.54" height="249.23"/></g><g class="cls-7"><rect class="cls-8" x="72.87" y="242.39" width="363.9" height="226.11"/></g></svg>