<svg id="Layer_1" data-name="Layer 1" xmlns="http://www.w3.org/2000/svg" viewBox="0 0 565.55 198.58"><defs><style>.cls-1{fill:#fafcfd;}</style></defs><title>J-MAT-white</title><rect class="cls-1" x="13.35" y="91.25" width="29.97" height="30.18"/><polygon class="cls-1" points="43.33 76.46 43.33 64.11 30.92 76.46 43.33 76.46"/><polygon class="cls-1" points="13.36 34.31 13.36 73.05 52.29 34.31 13.36 34.31"/><polygon class="cls-1" points="61.54 34.31 100.48 73.05 100.48 34.31 61.54 34.31"/><rect class="cls-1" x="70.5" y="91.25" width="29.97" height="30.18"/><polygon class="cls-1" points="70.5 76.46 82.92 76.46 70.5 64.11 70.5 76.46"/><polygon class="cls-1" points="27.49 76.46 45.74 58.31 45.74 76.46 55.71 76.46 55.71 34.31 13.36 76.46 27.49 76.46"/><polygon class="cls-1" points="68.09 58.31 86.34 76.46 100.48 76.46 58.12 34.31 58.12 76.46 68.09 76.46 68.09 58.31"/><polygon class="cls-1" points="45.74 121.43 55.71 121.43 55.71 88.84 55.71 78.87 45.74 78.87 13.36 78.87 13.36 88.83 45.74 88.84 45.74 121.43"/><polygon class="cls-1" points="100.48 78.87 68.09 78.87 58.12 78.87 58.12 88.84 58.12 121.43 68.09 121.43 68.09 88.84 100.48 88.83 100.48 78.87"/><path class="cls-1" d="M46.06,160.4H40.49v-17c-3.37,6.52-8.65,16.67-8.65,16.67l-.15.3H27.77l-.15-.31c-.05-.11-5.19-10.57-8.5-17.06V160.4h-5.7V130.35H18.9l.16.29c2.37,4.49,4.78,9.51,7.11,14.36,1.26,2.64,2.46,5.14,3.63,7.5L41,130.65l.15-.3h4.91V160.4Z"/><path class="cls-1" d="M78.94,160.4H73l-3.79-9.21H61.57v-5h5.51L64,138.67,55,160.4H49l11.67-28a3.64,3.64,0,0,1,3.17-2h.26a3.43,3.43,0,0,1,3.26,2.07l11.59,28Z"/><path class="cls-1" d="M90.29,160.4h-5.7V135.24H74.47v-4.89h25.94v4.89H90.29V160.4Z"/><path class="cls-1" d="M167.36,113.86c0,4.82-1.42,5.57-2,5.85-2.07,1.11-6.53,1.11-9.48,1.11H130.69v16.27h30.89c16.46,0,24.81-7.87,24.81-23.39V34.35h-19Z"/><rect class="cls-1" x="198.67" y="94.06" width="39.81" height="16.11"/><path class="cls-1" d="M308.51,110.81s-30.66-64-36.89-76.5v0h-19V137.09h19V73.67l30.12,63.42h13.12s20.64-44,30.61-63.3v63.3h18.59V34.35l-18.56,0C337.33,49.77,312.19,103.61,308.51,110.81Z"/><path class="cls-1" d="M428.32,34.38l-2.87.1c-3.88.53-8,2.69-9.66,6.78l-39.87,95.83h20l31-75.09L438,88.67H418.81v16.77h26.26l13,31.65h19.79l-39.62-95.8A11.48,11.48,0,0,0,428.32,34.38Z"/><polygon class="cls-1" points="463.73 34.34 463.73 50.62 498.45 50.62 498.45 137.09 517.47 137.09 517.47 50.62 552.19 50.62 552.19 34.34 463.73 34.34"/><path class="cls-1" d="M138.23,158.37a3,3,0,0,1-.78,1.16,3,3,0,0,1-1.18.64,5.28,5.28,0,0,1-1.47.2,3.47,3.47,0,0,1-2.9-1.11,5.25,5.25,0,0,1-.8-3.45h1.65a3.71,3.71,0,0,0,.43,2.38,1.87,1.87,0,0,0,1.62.75,2.08,2.08,0,0,0,.93-.18,1.58,1.58,0,0,0,.59-.44,1.72,1.72,0,0,0,.33-.61,3.34,3.34,0,0,0,.14-.67c0-.22,0-.43,0-.62s0-.35,0-.47v-8.81h1.7v9.46A4.83,4.83,0,0,1,138.23,158.37Z"/><path class="cls-1" d="M151,157.62a4.11,4.11,0,0,1-1,1.54,4.35,4.35,0,0,1-1.63.93,7.25,7.25,0,0,1-2.15.31,6.42,6.42,0,0,1-2-.31,4.49,4.49,0,0,1-1.58-.91,4.1,4.1,0,0,1-1-1.5,5.42,5.42,0,0,1-.37-2.09v-8.45h1.7v8.37a4.14,4.14,0,0,0,.21,1.34,3.05,3.05,0,0,0,.62,1.08,3.14,3.14,0,0,0,1,.72,3.67,3.67,0,0,0,1.42.26,5.11,5.11,0,0,0,1.38-.18,2.94,2.94,0,0,0,1.12-.59,2.78,2.78,0,0,0,.76-1.06,4.18,4.18,0,0,0,.27-1.6v-8.34h1.68v8.29A5.84,5.84,0,0,1,151,157.62Z"/><path class="cls-1" d="M155.67,149.64v10.42h-1.59V147.14h1.75l6.75,10.48V147.14h1.57v12.92h-1.78Z"/><path class="cls-1" d="M167,147.14h1.7v12.92H167Z"/><path class="cls-1" d="M183,153.56a8,8,0,0,1-.44,2.65,6.7,6.7,0,0,1-1.22,2.16,5.68,5.68,0,0,1-4.4,2,5.88,5.88,0,0,1-2.55-.54,5.67,5.67,0,0,1-1.93-1.46,6.35,6.35,0,0,1-1.22-2.16,8.22,8.22,0,0,1-.42-2.65,7.91,7.91,0,0,1,.44-2.64,6.54,6.54,0,0,1,1.23-2.16,5.65,5.65,0,0,1,1.93-1.44,5.75,5.75,0,0,1,2.52-.53,5.5,5.5,0,0,1,2.45.53,5.81,5.81,0,0,1,1.92,1.44,6.59,6.59,0,0,1,1.25,2.16A7.91,7.91,0,0,1,183,153.56Zm-1.64,0a6.77,6.77,0,0,0-.31-2.09,5.39,5.39,0,0,0-.89-1.7,4.45,4.45,0,0,0-1.4-1.15,3.9,3.9,0,0,0-1.82-.42,4,4,0,0,0-1.86.42,4.41,4.41,0,0,0-1.39,1.15,5.56,5.56,0,0,0-.87,1.7,7.09,7.09,0,0,0-.3,2.09,7,7,0,0,0,.3,2.08,5.37,5.37,0,0,0,.88,1.7,4.36,4.36,0,0,0,1.39,1.14,4,4,0,0,0,1.85.43,4,4,0,0,0,1.85-.43,4.15,4.15,0,0,0,1.39-1.14,5,5,0,0,0,.88-1.7A7,7,0,0,0,181.32,153.59Z"/><path class="cls-1" d="M193.42,160.06a.92.92,0,0,1-.25-.47,4.31,4.31,0,0,1-.1-.72c0-.28,0-.58-.06-.92s0-.69-.08-1.08a4.79,4.79,0,0,0-.24-1.09,1.85,1.85,0,0,0-.45-.72,1.69,1.69,0,0,0-.7-.4,3.47,3.47,0,0,0-1-.12H186.7v5.52H185V147.14h6a5.56,5.56,0,0,1,1.41.18,4,4,0,0,1,1.24.56,3,3,0,0,1,.88,1,3,3,0,0,1,.34,1.47,6.15,6.15,0,0,1-.11,1.18,2.86,2.86,0,0,1-.37,1,2.75,2.75,0,0,1-.68.77,3.46,3.46,0,0,1-1.07.54,2.66,2.66,0,0,1,.91.35,1.81,1.81,0,0,1,.56.54,2.14,2.14,0,0,1,.3.71,6.86,6.86,0,0,1,.12.81c0,.4.07.78.09,1.16s.06.73.11,1.06a5.54,5.54,0,0,0,.21.91,1.89,1.89,0,0,0,.41.69Zm-.27-9.27a2.71,2.71,0,0,0-.19-1.1,1.56,1.56,0,0,0-.57-.67,2.44,2.44,0,0,0-.92-.33,7.82,7.82,0,0,0-1.25-.1H186.7v4.51h3.43a6.81,6.81,0,0,0,1.24-.11,2.53,2.53,0,0,0,.95-.38,1.71,1.71,0,0,0,.62-.71A2.56,2.56,0,0,0,193.15,150.79Z"/><path class="cls-1" d="M214.83,149.2l-4,10.86h-1.43l-4-11v11h-1.59V147.14h2.32l4,10.86,4-10.86h2.34v12.92h-1.59Z"/><path class="cls-1" d="M226.21,156.16h-5.36l-1.42,3.9h-1.75l5-12.92h1.84l5,12.92h-1.86Zm-4.81-1.44h4.26l-2.11-6.05Z"/><path class="cls-1" d="M239.1,160.06a.92.92,0,0,1-.25-.47,4.31,4.31,0,0,1-.1-.72c0-.28,0-.58-.06-.92s0-.69-.09-1.08a4.33,4.33,0,0,0-.23-1.09,1.85,1.85,0,0,0-.45-.72,1.69,1.69,0,0,0-.7-.4,3.47,3.47,0,0,0-1-.12h-3.87v5.52h-1.71V147.14h6a5.56,5.56,0,0,1,1.41.18,4,4,0,0,1,1.24.56,3,3,0,0,1,.88,1,3.07,3.07,0,0,1,.34,1.47,6.15,6.15,0,0,1-.11,1.18,3.08,3.08,0,0,1-.37,1,2.75,2.75,0,0,1-.68.77,3.46,3.46,0,0,1-1.07.54,2.66,2.66,0,0,1,.91.35,1.81,1.81,0,0,1,.56.54,1.94,1.94,0,0,1,.29.71,5.27,5.27,0,0,1,.13.81c0,.4.07.78.09,1.16s.06.73.11,1.06a4.68,4.68,0,0,0,.21.91,1.89,1.89,0,0,0,.41.69Zm-.27-9.27a2.71,2.71,0,0,0-.19-1.1,1.56,1.56,0,0,0-.57-.67,2.44,2.44,0,0,0-.92-.33,7.82,7.82,0,0,0-1.25-.1h-3.52v4.51h3.42a6.84,6.84,0,0,0,1.25-.11,2.53,2.53,0,0,0,.95-.38,1.71,1.71,0,0,0,.62-.71A2.56,2.56,0,0,0,238.83,150.79Z"/><path class="cls-1" d="M246.64,153.54l-2.11,2v4.53h-1.71V147.14h1.71v6.45l6.45-6.45h2.13l-5.32,5.22,5.55,7.7h-2.12Z"/><path class="cls-1" d="M254.65,147.14h8.76v1.45h-7.06v4.09h6.59v1.46h-6.59v4.46h7.12v1.46h-8.82Z"/><path class="cls-1" d="M270.07,160.06h-1.7V148.59h-4.22v-1.45h10.13v1.45h-4.21Z"/><path class="cls-1" d="M275.76,147.14h1.7v12.92h-1.7Z"/><path class="cls-1" d="M281.87,149.64v10.42h-1.59V147.14H282l6.75,10.48V147.14h1.57v12.92h-1.78Z"/><path class="cls-1" d="M302.61,158.44a6.88,6.88,0,0,1-.94.88,4.78,4.78,0,0,1-1,.6,4.48,4.48,0,0,1-1.11.34,7.24,7.24,0,0,1-1.27.11,5.38,5.38,0,0,1-2.39-.53,5.48,5.48,0,0,1-1.85-1.46,6.74,6.74,0,0,1-1.19-2.2,8.6,8.6,0,0,1-.42-2.74,7.69,7.69,0,0,1,.4-2.49,6.39,6.39,0,0,1,1.19-2.12,5.83,5.83,0,0,1,1.9-1.45,5.76,5.76,0,0,1,2.55-.54,7.24,7.24,0,0,1,2.25.31,4.48,4.48,0,0,1,1.6.87,4.21,4.21,0,0,1,1,1.35,6.94,6.94,0,0,1,.56,1.72h-1.64a9.16,9.16,0,0,0-.49-1.17,3,3,0,0,0-.69-.89,2.79,2.79,0,0,0-1.05-.57,5.21,5.21,0,0,0-1.55-.2,3.88,3.88,0,0,0-1.91.45,4.35,4.35,0,0,0-1.37,1.19,5.46,5.46,0,0,0-.84,1.69,6.71,6.71,0,0,0-.28,1.95,7,7,0,0,0,.3,2.09,5.33,5.33,0,0,0,.86,1.7,4.29,4.29,0,0,0,1.37,1.14,4,4,0,0,0,1.81.41,4.72,4.72,0,0,0,1.67-.28,3.58,3.58,0,0,0,2.14-2.12,4.81,4.81,0,0,0,.3-1.76h-4.05v-1.46h5.57v6.8H303Z"/><path class="cls-1" d="M320.18,156.16h-5.35l-1.42,3.9h-1.76l5-12.92h1.85l5,12.92h-1.86Zm-4.8-1.44h4.25l-2.11-6.05Z"/><path class="cls-1" d="M334.12,156.66a3.07,3.07,0,0,1-.42,1.61,3.72,3.72,0,0,1-1.11,1.16,5.25,5.25,0,0,1-1.61.71,7.89,7.89,0,0,1-1.89.23,6.6,6.6,0,0,1-1.94-.28,4.92,4.92,0,0,1-1.66-.85,3.92,3.92,0,0,1-1.15-1.42,4.25,4.25,0,0,1-.41-2h1.6a2.68,2.68,0,0,0,.27,1.35,2.83,2.83,0,0,0,.79,1,3.63,3.63,0,0,0,1.14.59,4.68,4.68,0,0,0,1.34.2,5.71,5.71,0,0,0,1.35-.14,3.25,3.25,0,0,0,1.06-.4,2.1,2.1,0,0,0,.71-.71,2.07,2.07,0,0,0,.25-1,1.88,1.88,0,0,0-.26-1,1.94,1.94,0,0,0-.75-.66,5.11,5.11,0,0,0-1.19-.45l-1.59-.39c-.64-.16-1.23-.32-1.76-.48a4.44,4.44,0,0,1-1.37-.63,2.64,2.64,0,0,1-.88-1,3.62,3.62,0,0,1-.32-1.64,2.92,2.92,0,0,1,.38-1.49,3.28,3.28,0,0,1,1-1.09,4.65,4.65,0,0,1,1.46-.67,6.59,6.59,0,0,1,1.74-.23,6.14,6.14,0,0,1,2.1.32,3.57,3.57,0,0,1,1.4.86,3.47,3.47,0,0,1,.82,1.3,6.3,6.3,0,0,1,.34,1.61H332a4.05,4.05,0,0,0-.28-1.09,2.7,2.7,0,0,0-.59-.85,2.79,2.79,0,0,0-.91-.56,3.6,3.6,0,0,0-1.23-.2,5,5,0,0,0-1.18.14,3.2,3.2,0,0,0-.94.39,2,2,0,0,0-.62.65,1.78,1.78,0,0,0-.22.91,2.26,2.26,0,0,0,.16,1,1.27,1.27,0,0,0,.55.55,3.85,3.85,0,0,0,1,.37l1.42.38c.4.11.8.21,1.21.3s.78.21,1.15.33a7.08,7.08,0,0,1,1,.45,3.19,3.19,0,0,1,.84.66,3,3,0,0,1,.56,1A4.17,4.17,0,0,1,334.12,156.66Z"/><path class="cls-1" d="M345.61,156.66a3.07,3.07,0,0,1-.42,1.61,3.61,3.61,0,0,1-1.11,1.16,5.25,5.25,0,0,1-1.61.71,7.74,7.74,0,0,1-1.88.23,6.71,6.71,0,0,1-1.95-.28,5,5,0,0,1-1.66-.85,3.92,3.92,0,0,1-1.15-1.42,4.14,4.14,0,0,1-.4-2H337a2.68,2.68,0,0,0,.27,1.35,3,3,0,0,0,.79,1,3.63,3.63,0,0,0,1.14.59,4.68,4.68,0,0,0,1.34.2,5.71,5.71,0,0,0,1.35-.14,3.31,3.31,0,0,0,1.07-.4,2.16,2.16,0,0,0,.7-.71,2,2,0,0,0,.26-1,1.8,1.8,0,0,0-.27-1,1.87,1.87,0,0,0-.75-.66,4.94,4.94,0,0,0-1.19-.45l-1.59-.39c-.64-.16-1.22-.32-1.76-.48A4.55,4.55,0,0,1,337,153a2.72,2.72,0,0,1-.88-1,3.63,3.63,0,0,1-.31-1.64,2.92,2.92,0,0,1,.37-1.49,3.39,3.39,0,0,1,1-1.09,4.75,4.75,0,0,1,1.46-.67,6.59,6.59,0,0,1,1.74-.23,6.1,6.1,0,0,1,2.1.32,3.69,3.69,0,0,1,1.41.86,3.57,3.57,0,0,1,.81,1.3,5.91,5.91,0,0,1,.34,1.61h-1.57a3.71,3.71,0,0,0-.28-1.09,2.55,2.55,0,0,0-.59-.85,2.69,2.69,0,0,0-.91-.56,3.6,3.6,0,0,0-1.23-.2,4.81,4.81,0,0,0-1.17.14,3,3,0,0,0-.94.39,2,2,0,0,0-.62.65,1.69,1.69,0,0,0-.23.91,2.1,2.1,0,0,0,.17,1,1.3,1.3,0,0,0,.54.55,4,4,0,0,0,1,.37l1.42.38c.4.11.8.21,1.21.3s.79.21,1.16.33a8.15,8.15,0,0,1,1,.45,3,3,0,0,1,.83.66,2.86,2.86,0,0,1,.56,1A4.17,4.17,0,0,1,345.61,156.66Z"/><path class="cls-1" d="M359.1,153.56a8,8,0,0,1-.44,2.65,6.7,6.7,0,0,1-1.22,2.16,5.68,5.68,0,0,1-4.4,2,5.88,5.88,0,0,1-2.55-.54,5.58,5.58,0,0,1-1.93-1.46,6.52,6.52,0,0,1-1.22-2.16,8.22,8.22,0,0,1-.42-2.65,7.91,7.91,0,0,1,.44-2.64,6.54,6.54,0,0,1,1.23-2.16,5.65,5.65,0,0,1,1.93-1.44,5.75,5.75,0,0,1,2.52-.53,5.57,5.57,0,0,1,2.46.53,5.88,5.88,0,0,1,1.91,1.44,6.59,6.59,0,0,1,1.25,2.16A7.91,7.91,0,0,1,359.1,153.56Zm-1.64,0a6.77,6.77,0,0,0-.31-2.09,5.39,5.39,0,0,0-.89-1.7,4.53,4.53,0,0,0-1.39-1.15,4,4,0,0,0-1.83-.42,4,4,0,0,0-1.86.42,4.31,4.31,0,0,0-1.39,1.15,5.56,5.56,0,0,0-.87,1.7,7.09,7.09,0,0,0-.3,2.09,7,7,0,0,0,.3,2.08,5.37,5.37,0,0,0,.88,1.7,4.19,4.19,0,0,0,1.4,1.14,4.17,4.17,0,0,0,3.69,0,4.29,4.29,0,0,0,1.4-1.14,5.16,5.16,0,0,0,.87-1.7A7,7,0,0,0,357.46,153.59Z"/><path class="cls-1" d="M371.28,157.34a5.55,5.55,0,0,1-1.13,1.65,4.75,4.75,0,0,1-1.66,1,6.17,6.17,0,0,1-2.17.36,5.9,5.9,0,0,1-2.48-.5,5.06,5.06,0,0,1-1.83-1.41,6.14,6.14,0,0,1-1.12-2.21,10,10,0,0,1-.38-2.89,7.82,7.82,0,0,1,.4-2.52,6.41,6.41,0,0,1,1.17-2.08,5.84,5.84,0,0,1,1.87-1.42,5.62,5.62,0,0,1,2.46-.53,6.66,6.66,0,0,1,2,.3,5.26,5.26,0,0,1,1.63.85,4.38,4.38,0,0,1,1.13,1.33,4.49,4.49,0,0,1,.52,1.71h-1.67a3.67,3.67,0,0,0-.41-1.09,2.81,2.81,0,0,0-.72-.88,3.62,3.62,0,0,0-1.08-.59,4.55,4.55,0,0,0-1.44-.21,3.7,3.7,0,0,0-1.85.45,4.11,4.11,0,0,0-1.31,1.18,5.08,5.08,0,0,0-.78,1.66,6.74,6.74,0,0,0-.26,1.89,8.91,8.91,0,0,0,.22,2,5.62,5.62,0,0,0,.73,1.75,3.9,3.9,0,0,0,1.27,1.22,3.56,3.56,0,0,0,1.86.46,4.83,4.83,0,0,0,1.47-.21,3.18,3.18,0,0,0,1.17-.64,3.4,3.4,0,0,0,.81-1.15,5.64,5.64,0,0,0,.42-1.71h1.68A7.51,7.51,0,0,1,371.28,157.34Z"/><path class="cls-1" d="M374,147.14h1.7v12.92H374Z"/><path class="cls-1" d="M385.58,156.16h-5.36l-1.42,3.9h-1.75l5-12.92h1.84l5,12.92H387Zm-4.81-1.44H385l-2.11-6.05Z"/><path class="cls-1" d="M394.62,160.06h-1.7V148.59H388.7v-1.45h10.13v1.45h-4.21Z"/><path class="cls-1" d="M400.32,147.14H402v12.92h-1.7Z"/><path class="cls-1" d="M416.3,153.56a8,8,0,0,1-.44,2.65,6.7,6.7,0,0,1-1.22,2.16,5.68,5.68,0,0,1-4.4,2,5.88,5.88,0,0,1-2.55-.54,5.67,5.67,0,0,1-1.93-1.46,6.35,6.35,0,0,1-1.22-2.16,8.22,8.22,0,0,1-.42-2.65,7.91,7.91,0,0,1,.44-2.64,6.54,6.54,0,0,1,1.23-2.16,5.65,5.65,0,0,1,1.93-1.44,5.78,5.78,0,0,1,2.52-.53,5.5,5.5,0,0,1,2.45.53,5.81,5.81,0,0,1,1.92,1.44,6.59,6.59,0,0,1,1.25,2.16A7.91,7.91,0,0,1,416.3,153.56Zm-1.64,0a6.77,6.77,0,0,0-.31-2.09,5.39,5.39,0,0,0-.89-1.7,4.34,4.34,0,0,0-1.4-1.15,3.9,3.9,0,0,0-1.82-.42,4,4,0,0,0-1.86.42A4.41,4.41,0,0,0,407,149.8a5.35,5.35,0,0,0-.87,1.7,7.09,7.09,0,0,0-.3,2.09,7,7,0,0,0,.3,2.08,5.17,5.17,0,0,0,.88,1.7,4.25,4.25,0,0,0,1.39,1.14,4.19,4.19,0,0,0,3.7,0,4.15,4.15,0,0,0,1.39-1.14,5,5,0,0,0,.88-1.7A7,7,0,0,0,414.66,153.59Z"/><path class="cls-1" d="M419.93,149.64v10.42h-1.6V147.14h1.76l6.75,10.48V147.14h1.57v12.92h-1.78Z"/><path class="cls-1" d="M449.2,153.56a8,8,0,0,1-.44,2.65,6.7,6.7,0,0,1-1.22,2.16,5.68,5.68,0,0,1-4.4,2,5.85,5.85,0,0,1-2.55-.54,5.58,5.58,0,0,1-1.93-1.46,6.35,6.35,0,0,1-1.22-2.16,8.22,8.22,0,0,1-.42-2.65,7.91,7.91,0,0,1,.44-2.64,6.54,6.54,0,0,1,1.23-2.16,5.65,5.65,0,0,1,1.93-1.44,5.75,5.75,0,0,1,2.52-.53,5.5,5.5,0,0,1,2.45.53,5.92,5.92,0,0,1,1.92,1.44,6.59,6.59,0,0,1,1.25,2.16A7.91,7.91,0,0,1,449.2,153.56Zm-1.64,0a6.77,6.77,0,0,0-.31-2.09,5.39,5.39,0,0,0-.89-1.7,4.45,4.45,0,0,0-1.4-1.15,3.9,3.9,0,0,0-1.82-.42,4,4,0,0,0-1.86.42,4.41,4.41,0,0,0-1.39,1.15,5.56,5.56,0,0,0-.87,1.7,7.09,7.09,0,0,0-.3,2.09,7,7,0,0,0,.3,2.08,5.37,5.37,0,0,0,.88,1.7,4.19,4.19,0,0,0,1.4,1.14,4.17,4.17,0,0,0,3.69,0,4.4,4.4,0,0,0,1.4-1.14,5.16,5.16,0,0,0,.87-1.7A7,7,0,0,0,447.56,153.59Z"/><path class="cls-1" d="M452.94,152.68h5.82v1.46h-5.82v5.92h-1.7V147.14h8.34v1.45h-6.64Z"/><path class="cls-1" d="M472.59,160.06h-1.7V148.59h-4.22v-1.45h10.12v1.45h-4.2Z"/><path class="cls-1" d="M486.56,154.14h-6.67v5.92h-1.7V147.14h1.7v5.54h6.67v-5.54h1.67v12.92h-1.67Z"/><path class="cls-1" d="M498,156.16h-5.35l-1.42,3.9h-1.76l5-12.92h1.85l4.95,12.92h-1.86Zm-4.8-1.44h4.25l-2.11-6.05Z"/><path class="cls-1" d="M502.58,147.14h1.7v12.92h-1.7Z"/><path class="cls-1" d="M507.1,147.14h1.7V158.6h6.72v1.46H507.1Z"/><path class="cls-1" d="M524,156.16h-5.36l-1.42,3.9h-1.75l4.95-12.92h1.85l5,12.92h-1.86Zm-4.81-1.44h4.26l-2.11-6.05Z"/><path class="cls-1" d="M530.06,149.64v10.42h-1.6V147.14h1.76L537,157.62V147.14h1.56v12.92h-1.78Z"/><path class="cls-1" d="M551.73,153.07a11.17,11.17,0,0,1-.39,3.14,5.59,5.59,0,0,1-1.15,2.18,4.6,4.6,0,0,1-1.88,1.26,7.3,7.3,0,0,1-2.57.41h-4.47V147.14h4.52a6.87,6.87,0,0,1,2.7.47,5.08,5.08,0,0,1,1.84,1.29,5.21,5.21,0,0,1,1.06,1.88A7.51,7.51,0,0,1,551.73,153.07Zm-1.73,0a6.15,6.15,0,0,0-.33-2.17,3.45,3.45,0,0,0-.94-1.37,3.41,3.41,0,0,0-1.46-.73,8,8,0,0,0-1.9-.21H543v10h2.58a4.92,4.92,0,0,0,2.32-.47,3.57,3.57,0,0,0,1.35-1.26,4.92,4.92,0,0,0,.63-1.76A13.8,13.8,0,0,0,550,153.07Z"/></svg>