<svg xmlns="http://www.w3.org/2000/svg" viewBox="0 0 2297 786.14"><defs><style>.cls-1{fill:#fff;}</style></defs><g id="Layer_2" data-name="Layer 2"><g id="Layer_1-2" data-name="Layer 1"><path class="cls-1" d="M687,786.14c-9.18-1.3-18.39-2.37-27.52-3.93Q575.9,768,514.07,710c-45.5-42.81-73.65-95.23-84.62-156.72a280.27,280.27,0,0,1-1.53-87.06c.37-2.81,1.49-3.79,4.13-3.55,1.16.1,2.33,0,3.5,0H706.61v82.15h-170c4.56,12.08,7.86,23.45,13,33.93,25.86,52.85,67.75,86,125.56,96.86C768.87,693.14,856,632.5,875.84,543.29c21-94.5-36.69-186.26-130.92-207.42-59.37-13.34-112.19,1.75-157.15,42.87-7.81,7.14-14.17,15.86-21.36,23.71-1.3,1.42-3.36,3.05-5.08,3.05-38.49.16-77,.11-115.49.09a12.58,12.58,0,0,1-1.9-.38,29.41,29.41,0,0,1,1-3.65c40.48-95,110.9-154.61,212.64-173.09C748.08,212,828.82,236.32,897,298.22c52,47.2,81.59,106.63,89.14,176.55,15.46,143.15-78.37,273.55-219.34,304.93-12.14,2.7-24.66,3.72-37,5.55-1.27.19-2.51.58-3.77.89Z"/><path class="cls-1" d="M0,575.14c2.29-9.12,3.89-18.48,7-27.32,15.94-45.67,59.84-76.51,108.28-76.52,42.67,0,85.33.07,128,0A40.78,40.78,0,0,0,265.33,396a42.2,42.2,0,0,0-23.25-6.4q-108.74.06-217.49,0H17.85V307.3H23.8q81.26,0,162.5.11c4,0,5.79-1.29,7.29-4.86,7-16.71,14.36-33.3,21.52-50,1-2.44,2-4.06,5.31-4.05,30.17.15,60.34.09,90.5.1.95,0,1.91.17,3.55.32l-25.21,57.76c6.59,1,12.53,1.54,18.27,2.92A78.82,78.82,0,0,1,367,377.26a154.72,154.72,0,0,1,1,16.94Q368,545,368,695.69V702H285.85V547c-2.08-.13-3.54-.3-5-.3-47.66,0-95.33-.17-143,.08-17.64.09-30.72,8.59-37.79,24.74-7,16-4.23,31.07,7.29,44.14,8,9.08,18.45,13.48,30.58,13.51,26.33.06,52.66,0,79,0h5.64v72.91c-1.92.09-3.84.24-5.75.24q-52,0-104,0c-53.13,0-102-41.49-110.82-94-.57-3.41-1.32-6.78-2-10.17Z"/><path class="cls-1" d="M2297,522.14c-1.67,9.25-3,18.59-5.07,27.75-17.5,77.16-82.44,138-160.11,150.08-103,16.09-199-47.2-224.14-147.81a194.45,194.45,0,0,1-3.35-76.68h195.11V533H1981c4.11,17.87,11.44,33.65,22.77,47.19,33.22,39.7,75.72,55.37,125.86,42.5,49.88-12.79,80.38-46.6,89.88-97.24,12.82-68.37-37-134.18-106.25-141.38-45.53-4.73-82.47,11.86-110.88,47.53a8.76,8.76,0,0,1-7.85,3.8c-24.66-.14-49.33-.08-74-.08h-5.52a31.32,31.32,0,0,1,1.09-3.91c30.6-70,83.31-112,159.21-122.2,100.22-13.44,192.55,52.4,216,148.67,2.17,8.86,3.12,18,4.67,27a32.27,32.27,0,0,0,.93,3.25Z"/><path class="cls-1" d="M1791.89,249.1l-25.2,57.63c6.57,1,12.68,1.53,18.56,3a78.9,78.9,0,0,1,59.84,75.78c.43,51.15.35,102.31.4,153.47q.09,78.24,0,156.49V702h-82.28V546.94c-2.2-.11-4-.29-5.72-.29q-70.74,0-141.49,0c-23.86,0-42.08,18.13-42,41.54.06,22.89,18.58,40.9,42.19,40.93q39,0,78,0h5.69V702.3h-5.55q-52,0-104,0c-54.52,0-103.93-43.24-111.41-97.37-9-65,32.22-121.37,96.8-132.26a100.24,100.24,0,0,1,16.41-1.31c42.67-.1,85.33,0,128-.08,23.09,0,41.48-17.91,41.71-40.28.25-23.06-18-41.32-41.65-41.34q-109.25-.07-218.48,0h-6.54V307.3H1501q81.26,0,162.49.1c4.14,0,6.07-1.24,7.67-5.06,7-16.73,14.39-33.29,21.55-49.95,1-2.31,1.9-3.84,4.91-3.82,30.83.12,61.66.1,92.49.13A12.51,12.51,0,0,1,1791.89,249.1Z"/><path class="cls-1" d="M1168.63,382.58l-26.39-74.79a12.43,12.43,0,0,1,2.14-.45c30.48.2,61.06-1.06,91.43.93,63.65,4.17,114.23,33.44,150,86.05,78.34,115.25,15.61,273-120.3,303.33a204.69,204.69,0,0,1-40.59,4.45c-33.48.62-67,.15-100.48.28-3.53,0-5.17-1-6.39-4.44q-67.74-192.21-135.7-384.35c-.65-1.84-1.17-3.73-2-6.29h5.45c29.33,0,58.66.1,88-.1,4.23,0,6,1.31,7.35,5.26q53.19,151.05,106.65,302c.77,2.19,1.6,4.35,2.38,6.44,55.74,1.05,115.34-44.61,118.2-114.64,1.54-37.82-12.21-69.83-40.56-94.95S1206.2,377.53,1168.63,382.58Z"/><path class="cls-1" d="M1692.73,153c12.21,0,23.65.11,35.08-.15,1.19,0,2.78-2,3.42-3.44,4.91-10.92,9.54-22,14.54-32.85.68-1.5,3-3.22,4.49-3.23,30.66-.19,61.31-.14,92-.13a21.31,21.31,0,0,1,2.47.35l-13.6,31.3c-8.87,20.44-17.82,40.85-26.54,61.35-1.24,2.91-2.7,3.89-5.85,3.89q-150.2-.14-300.37-.08c-1.29,0-2.58-.12-4.51-.21,1.42-3.58,2.67-6.78,4-10,5.65-14,11.5-28,16.82-42.17,1.47-3.93,3.48-4.75,7.29-4.72,22.49.16,45,0,67.47.17,4,0,6.16-1,7.72-4.94,4.27-10.64,9.1-21.06,13.58-31.62.93-2.19,1.86-3.44,4.6-3.43,30.82.11,61.64.07,92.47.09a14.66,14.66,0,0,1,2,.35Z"/><path class="cls-1" d="M227.77,209.72c1-2.45,1.89-4.54,2.79-6.62q18.65-43,37.31-86c.92-2.13,1.44-4.1,4.66-4.08,31.29.13,62.58.08,94.33.08a25,25,0,0,1-.92,3.35q-19.43,44.82-38.86,89.63c-1.09,2.55-2.22,3.94-5.36,3.92-30.3-.13-60.6-.07-90.89-.08C230,210,229.24,209.84,227.77,209.72Z"/><path class="cls-1" d="M1758,78.7c7.47-17.23,14.67-33.83,21.88-50.43,3.64-8.39,7.19-16.83,11.06-25.11.65-1.4,2.72-3.05,4.15-3.06C1826,0,1857,0,1888,0a5.85,5.85,0,0,1,1.31.41c-.39,1.2-.68,2.44-1.18,3.59q-15.47,35.72-30.94,71.41c-1,2.36-2.13,3.61-5,3.59-30.48-.12-61-.08-91.45-.09C1760,79,1759.38,78.83,1758,78.7Z"/></g></g></svg>