<svg id="Layer_1" data-name="Layer 1" xmlns="http://www.w3.org/2000/svg" xmlns:xlink="http://www.w3.org/1999/xlink" viewBox="0 0 662.05 216"><defs><style>.cls-1{fill:none;}.cls-2{clip-path:url(#clip-path);}.cls-3{fill:#fff;}</style><clipPath id="clip-path"><rect class="cls-1" x="-280.29" y="-321.25" width="1216.38" height="860.06"/></clipPath></defs><title>Grappik_logo</title><g class="cls-2"><path class="cls-3" d="M113.29,93.74v16.19h11.56a29.2,29.2,0,1,1,.83-29.1l.27.51h15.79l-.46-1.3a43.35,43.35,0,1,0,2.54,14.67v-1Z"/><path class="cls-3" d="M184.05,83.28V76.39H169v62.12h15V111.59a21.77,21.77,0,0,1,2.75-11.28,17.92,17.92,0,0,1,7.08-6.89A19.4,19.4,0,0,1,203,91.17a25.94,25.94,0,0,1,3,.25V75.14a33.76,33.76,0,0,0-12,2.13,30.59,30.59,0,0,0-9.89,6"/><path class="cls-3" d="M280.74,84a28.36,28.36,0,0,0-9.26-6.58,27.46,27.46,0,0,0-25.81,2A30.85,30.85,0,0,0,235,91.23a35.36,35.36,0,0,0,0,32.44,30.88,30.88,0,0,0,10.71,11.78,27.42,27.42,0,0,0,25.81,2,28.07,28.07,0,0,0,9.26-6.58v7.64h15V76.39h-15Zm-1.94,32.5a17.47,17.47,0,0,1-6.38,6.64,17.22,17.22,0,0,1-17.67,0,17.4,17.4,0,0,1-6.38-6.64,18.93,18.93,0,0,1,0-18.16,17.4,17.4,0,0,1,6.38-6.64,17.22,17.22,0,0,1,17.67,0,17.47,17.47,0,0,1,6.38,6.64,18.93,18.93,0,0,1,0,18.16"/><path class="cls-3" d="M370.93,79.43a27.39,27.39,0,0,0-25.81-2,28.24,28.24,0,0,0-9.25,6.59l0-7.64-15,0,.17,90.31,15,0L336,130.91a28.48,28.48,0,0,0,9.28,6.56,27.44,27.44,0,0,0,25.8-2.06,30.7,30.7,0,0,0,10.69-11.79,34.39,34.39,0,0,0,3.91-16.35,33.73,33.73,0,0,0-4-16.15,30.8,30.8,0,0,0-10.73-11.69m-2.62,37.07a17.45,17.45,0,0,1-6.38,6.66,17.23,17.23,0,0,1-17.66,0,17.42,17.42,0,0,1-6.4-6.63,18.89,18.89,0,0,1,0-18.16,17.32,17.32,0,0,1,6.37-6.65,17.17,17.17,0,0,1,17.66,0,17.47,17.47,0,0,1,6.4,6.62,18.93,18.93,0,0,1,0,18.16"/><path class="cls-3" d="M460.79,79.46a27.46,27.46,0,0,0-25.81-2A28.5,28.5,0,0,0,425.71,84V76.39h-15V166.7h15V130.87a28.21,28.21,0,0,0,9.27,6.58,27.42,27.42,0,0,0,25.81-2,30.77,30.77,0,0,0,10.7-11.78,34.38,34.38,0,0,0,3.95-16.34,33.78,33.78,0,0,0-3.95-16.16,30.79,30.79,0,0,0-10.7-11.71m-2.7,37.07a17.35,17.35,0,0,1-6.39,6.64,17.2,17.2,0,0,1-17.66,0,17.4,17.4,0,0,1-6.38-6.64,18.93,18.93,0,0,1,0-18.16A17.4,17.4,0,0,1,434,91.73a17.2,17.2,0,0,1,17.66,0,17.35,17.35,0,0,1,6.39,6.64,18.93,18.93,0,0,1,0,18.16"/><rect class="cls-3" x="500.49" y="76.39" width="15.03" height="62.12"/><polygon class="cls-3" points="574.01 104.19 598.68 76.52 578.52 76.52 572.38 83.39 555.6 102.19 555.6 50.84 540.57 50.84 540.57 138.51 555.6 138.51 555.6 124.74 563.74 115.59 572.38 127.14 580.9 138.51 599.69 138.51 574.01 104.19"/></g></svg>