<svg width="75" height="54" viewBox="0 0 75 54" fill="none" xmlns="http://www.w3.org/2000/svg">
<path d="M47.9646 44.0685L47.4067 43.6478L47.7433 41.9813C48.2829 39.3563 48.4018 38.0484 48.1914 36.9326C47.9811 35.8167 47.3408 34.8655 46.792 34.8655C46.5437 34.8472 46.2982 34.8009 46.0603 34.7274C44.9033 34.3762 43.718 35.5057 42.5399 35.5057C42.0734 35.5057 41.9911 35.4783 41.7259 35.2039C41.4881 34.9661 41.4332 34.8289 41.4423 34.5454C41.4515 33.8777 41.6253 33.5301 42.1192 33.1826C42.3753 33.0088 42.7411 32.7435 42.9332 32.6063C43.2716 32.3685 43.3631 32.3503 44.2594 32.3411C44.7899 32.332 45.293 32.3137 45.3661 32.2954C45.5125 32.2588 46.4728 32.4143 47.5613 32.6429C48.3936 32.8167 48.8234 33.0271 49.3448 33.5027C50.9271 34.9661 51.1466 37.2893 50.1497 42.2374L49.8204 43.8838L49.4637 44.1399C48.8792 44.5624 48.614 44.5533 47.9646 44.0685Z" fill="white"/>
<path d="M61.4008 44.1964C60.2045 43.9943 59.2752 43.2434 58.602 42.2629C58.1877 41.6592 56.942 39.8382 57.3417 39.1531C57.7747 38.4111 58.3019 37.7283 58.9103 37.1217C59.2267 36.8062 59.577 36.5043 59.9996 36.3571C60.4569 36.1979 60.9398 36.2428 61.4109 36.1696C61.9148 36.0918 62.3539 35.9318 62.8743 35.9117C63.6792 35.8751 63.7432 35.8842 64.8682 36.2958C65.2341 36.4293 65.653 36.4275 65.8597 36.8098C65.9122 36.927 65.9749 37.0393 66.0472 37.1455C66.1972 37.3339 66.3929 37.2699 66.5841 37.3623C66.7419 37.452 66.8734 37.5817 66.9655 37.7382C67.1592 38.0574 67.3128 38.3993 67.4228 38.7562C68.1088 40.7135 66.5081 43.1098 63.938 43.9787C63.1935 44.2239 62.1033 44.3153 61.4008 44.1964Z" fill="white"/>
<path d="M31.9678 43.8675C31.5773 43.6788 31.2663 43.358 31.0897 42.962C30.8702 42.4955 30.7147 40.154 31.0074 39.2943C31.5013 37.8675 32.9007 36.6144 34.483 36.1937C35.2513 35.9833 35.4617 36.0199 36.4952 36.5138C37.8123 37.1449 37.8123 37.1449 37.7391 36.2668C37.6477 35.2607 37.6568 35.2699 36.669 35.1967C35.0135 35.0687 33.6324 34.712 33.1659 34.2729C32.9647 34.0809 32.9281 33.9803 32.9281 33.5138C32.9281 32.7089 32.983 32.6815 34.9403 32.3979C35.8916 32.2607 36.2025 32.279 37.0349 32.5168C38.4159 32.9193 39.2757 33.6418 39.7056 34.7486C39.98 35.4803 40.044 37.3553 39.8428 39.1571C39.7605 39.8796 39.6964 40.8034 39.6964 41.215C39.6964 42.1296 39.5227 42.8979 39.2025 43.3736C38.9739 43.712 38.9373 43.7394 38.5257 43.7394C37.483 43.7394 37.044 43.1175 36.7788 41.279C36.4952 39.3675 36.1294 38.8461 35.0775 38.8461C34.6413 38.8571 34.0175 38.9376 33.7349 39.3126C33.6438 39.4485 33.5787 39.6002 33.5428 39.7598C33.4775 39.9842 33.415 40.2086 33.3553 40.433C33.308 40.5686 33.2942 40.7135 33.315 40.8556C33.3565 40.989 33.4282 41.111 33.5245 41.2123C33.7275 41.4601 33.9818 41.6476 33.9434 41.9769C33.8977 42.3327 33.8574 42.6885 33.8025 43.0425C33.7769 43.2098 33.7605 43.5912 33.5867 43.6937C33.0288 44.0229 32.3977 44.0961 31.9678 43.8675Z" fill="white"/>
<path d="M27.3764 43.6115C26.4983 43.1999 25.8855 42.3584 25.5471 41.0871C25.4282 40.6481 25.3916 40.1542 25.4008 39.2121C25.4008 37.831 25.5837 36.7334 26.0227 35.3615C26.2788 34.5749 26.855 33.3493 27.0105 33.2487C27.2117 33.1206 27.9617 33.2029 28.3276 33.395C28.8398 33.6511 28.7209 34.2456 28.7209 34.5566C28.7209 35.0871 28.355 36.9255 28.0258 38.0231C27.9416 38.3039 27.6672 38.8581 27.7751 39.1444C27.9068 39.492 28.4876 39.8121 28.7666 40.0261C30.0654 41.0231 30.2209 41.1968 30.1386 41.6267C30.0197 42.267 29.6538 42.7792 28.8672 43.4286C28.3001 43.9023 28.0623 43.9316 27.3764 43.6115Z" fill="white"/>
<path d="M19.3617 42.6619C19.2313 42.5495 19.1257 42.4112 19.0516 42.2558C18.651 41.4171 18.8376 40.3781 19.015 39.5119C19.2272 38.4683 19.4531 37.3214 18.9409 36.3875C18.5751 35.729 17.9037 35.2982 17.2031 35.0284C16.7028 35.5269 16.0955 36.0637 15.3949 35.9778C15.2638 35.9485 15.1295 35.9359 14.9952 35.9403C14.5251 36.0034 14.5772 37.2015 14.5534 37.5363C14.3431 40.4357 13.7211 41.8991 12.4406 42.457C11.5992 42.8137 11.2269 42.3875 10.5967 41.8333C10.1916 41.481 9.7197 41.214 9.20913 41.0482C8.69856 40.8825 8.15981 40.8213 7.62507 40.8683C7.76866 41.1427 7.63421 41.4939 7.40007 41.6961C7.16592 41.8982 6.85769 41.9842 6.55952 42.0619L5.66317 42.3052C4.58391 42.5979 3.78269 41.086 3.65647 40.1778C3.55494 39.4461 3.86775 38.6147 4.5336 38.2863C4.78238 38.1628 5.065 38.1144 5.3083 37.9808C5.55159 37.8473 5.76561 37.5802 5.69702 37.3104C5.64122 37.0717 5.40433 36.9308 5.20677 36.7872C4.47506 36.2558 4.04793 35.2936 4.24275 34.4092C4.43756 33.5247 5.30464 32.8058 6.20281 32.868C7.16317 32.9348 7.90586 33.7826 8.23513 34.689C8.45921 35.3055 8.53878 35.9567 8.63208 36.6025C8.69976 37.0717 8.6586 37.7192 9.10311 38.0064C9.31988 38.1464 9.57507 38.2122 9.80464 38.3284C10.4312 38.6458 10.872 39.3015 11.6229 39.3509C11.6985 39.363 11.7758 39.3464 11.8397 39.3043C11.8972 39.2408 11.9297 39.1586 11.9312 39.0729C12.2467 36.8439 12.362 34.5345 13.3031 32.4875C13.3367 32.3874 13.4044 32.3023 13.4943 32.247C13.5924 32.2151 13.6985 32.2174 13.7952 32.2534L14.836 32.5131C14.7591 32.7672 14.7648 33.0391 14.8525 33.2897C16.229 32.6462 17.7991 32.552 19.2427 33.0262C19.3836 33.0664 19.5162 33.1315 19.6342 33.2183C19.7988 33.3537 19.8885 33.5567 20.0046 33.7351C20.3979 34.3387 21.1196 34.6955 21.4251 35.3467C21.5961 35.7125 21.6153 36.125 21.6254 36.5265C21.6788 38.0448 21.5912 39.5647 21.3638 41.0668C21.2723 41.5936 21.1543 42.1461 20.7931 42.5394C20.3586 43.0095 19.7677 43.0086 19.3617 42.6619Z" fill="white"/>
<path d="M68.0779 36.084C67.6664 35.8096 67.5749 35.5993 67.4468 34.6115L67.3828 34.1267L67.831 33.6694C68.27 33.2212 68.2883 33.2121 68.6907 33.2669C69.2578 33.3493 69.7609 33.6328 69.9804 33.9804C70.1359 34.2273 70.1633 34.3737 70.1176 34.8859C70.0535 35.7913 69.9255 35.9651 69.2304 36.1572C68.4895 36.3676 68.5261 36.3767 68.0779 36.084Z" fill="white"/>
<path d="M58.4955 35.0548C58.212 34.8923 57.9743 34.6603 57.805 34.3808C57.6987 34.2263 57.6281 34.0501 57.5983 33.8649C57.5608 33.5384 57.7217 33.2247 57.8782 32.9366C57.9696 32.7692 58.0675 32.5936 58.233 32.5012C58.3921 32.4298 58.5673 32.402 58.7406 32.4207C59.1358 32.4317 59.5318 32.46 59.9297 32.5122C60.3696 32.5689 60.2617 32.7317 60.4638 33.0655C60.5681 33.2356 60.7172 33.3756 60.7711 33.5741C60.8065 33.7595 60.7939 33.9509 60.7346 34.1302C60.6687 34.3981 60.5864 34.6789 60.3961 34.8756C60.1693 35.1143 59.8263 35.2039 59.498 35.2295C59.2073 35.2609 58.9132 35.2243 58.6391 35.1225C58.5899 35.1031 58.5419 35.0805 58.4955 35.0548Z" fill="white"/>
<path d="M64.44 34.5135C64.365 34.4933 64.2909 34.4659 64.215 34.4476C64.0271 34.4025 63.8302 34.4114 63.647 34.4732C63.6154 34.4895 63.5788 34.4931 63.5446 34.4833C63.5223 34.4709 63.5041 34.4521 63.4925 34.4293C63.3132 34.1476 63.1434 33.8604 62.983 33.5677C62.9291 33.4852 62.8953 33.3913 62.8842 33.2933C62.8705 32.9961 63.1797 32.429 63.3233 32.1674C63.4541 31.9287 63.6141 31.7705 63.8885 31.7202C64.2818 31.647 64.6751 31.7202 65.1324 31.9488C65.544 32.15 65.5806 32.2507 65.5806 33.0738C65.5806 33.4397 65.6327 33.6976 65.3464 33.9711C65.1544 34.154 64.88 34.5619 64.5855 34.54C64.5363 34.5357 64.4876 34.5269 64.44 34.5135Z" fill="white"/>
<path d="M37.9039 30.979C37.6769 30.8641 37.4586 30.7327 37.2508 30.5858C37.1595 30.5294 37.0813 30.4543 37.0213 30.3653C36.9629 30.2452 36.9347 30.1128 36.9389 29.9793C36.9106 29.3867 36.8868 28.7665 37.1356 28.2278C37.2695 27.9481 37.4598 27.699 37.6944 27.4961C37.802 27.3911 37.9312 27.3108 38.0731 27.2611C38.3228 27.1851 38.5935 27.2684 38.8258 27.3873C38.9603 27.4559 39.0874 27.5373 39.221 27.6077C39.2877 27.6434 39.3627 27.6589 39.4295 27.6992C39.521 27.7495 39.5283 27.8071 39.521 27.9059C39.5027 28.3879 39.4944 28.8708 39.4853 29.3528L39.4716 29.9766C39.4763 30.1188 39.4616 30.261 39.4277 30.3992C39.3801 30.5537 39.3051 30.5236 39.1752 30.5821C39.0834 30.6278 39.0007 30.6897 38.931 30.765C38.8203 30.8793 38.7289 31.0111 38.6127 31.1199C38.5734 31.1642 38.5202 31.1939 38.4618 31.204C38.4191 31.2036 38.377 31.1939 38.3383 31.1757C38.1929 31.1162 38.0484 31.0513 37.9039 30.979Z" fill="white"/>
<path d="M67.9626 26.621C67.1943 26.1134 66.3629 25.4942 66.2458 24.5832C66.1827 24.1003 66.3373 23.6174 66.5102 23.1601C66.8047 22.3707 67.2574 22.6845 67.8547 22.9616C68.039 23.0365 68.211 23.1385 68.3651 23.2643C68.6705 23.5387 68.4812 24.1003 68.9376 24.1479C69.2943 24.1845 69.8523 23.9375 69.9254 23.7089C69.9529 23.6174 69.9346 23.3521 69.8797 23.1235C69.8065 22.7942 69.6144 20.5991 69.6053 19.9954C69.6053 19.9314 69.3401 19.8765 68.9193 19.8491C68.4163 19.8125 68.1785 19.7576 68.0413 19.6296C67.8035 19.4192 67.5483 18.9171 67.4559 18.5146C67.3178 17.9082 68.0541 17.1957 68.462 16.8537C68.7712 16.5939 69.1599 16.2747 69.5797 16.3625C70.0169 16.454 70.5309 16.8857 70.8803 17.1491C71.2297 17.4125 71.5388 17.6979 71.7373 18.0683C72.0044 18.5686 72.0227 19.1576 72.0812 19.722C72.1782 20.6521 72.3995 21.5668 72.4763 22.4997C72.5532 23.4326 72.4763 24.4104 72.0135 25.2244C71.5562 26.0229 70.7651 26.5964 69.8998 26.9046C69.5449 27.0326 69.159 27.1204 68.7904 27.0372C68.4977 26.9714 68.2416 26.804 67.9901 26.6393L67.9626 26.621Z" fill="white"/>
<path d="M42.2557 26.7068C41.9813 26.5513 41.6246 26.3226 41.46 26.2037C40.4813 25.4629 39.96 23.4141 39.96 20.3684C39.96 18.0086 40.3258 16.3166 40.9112 16.0422C41.1398 15.9324 41.2039 15.9416 41.6612 16.2068L42.1642 16.4903V17.4781C42.1642 18.5757 42.3289 21.2007 42.4295 21.6946C42.4844 21.9781 42.5392 22.033 42.8959 22.1336C43.1246 22.2068 43.5911 22.344 43.9295 22.4537C44.6886 22.6824 44.9722 22.8836 45.1917 23.3775C45.6856 24.4659 45.1002 26.0757 43.9752 26.7251C43.3368 27.0928 42.9161 27.0836 42.2557 26.7068Z" fill="white"/>
<path d="M11.5997 26.3665C11.5 26.3492 11.4013 26.3309 11.3025 26.3098C11.2312 26.3002 11.1632 26.2739 11.104 26.233C11.0502 26.1828 11.01 26.1199 10.9869 26.0501C10.5872 25.0723 10.5442 23.9848 10.6275 22.933C10.7189 21.7833 10.9074 20.6464 11.0043 19.4949L10.4921 19.0376C9.63235 18.2693 9.55918 17.8668 9.98906 16.1473L10.0878 15.7412C10.1134 15.6351 10.1226 15.4778 10.2333 15.4229C10.2891 15.4006 10.3487 15.3891 10.4089 15.3891C10.8186 15.3653 11.2287 15.3559 11.6391 15.3607C11.8705 15.3607 12.5299 15.2784 12.7 15.4229C12.8052 15.5144 12.8436 15.8208 12.883 15.947C12.9296 16.1043 12.9671 16.2653 13.0192 16.4217C13.6869 18.4522 13.7784 19.312 13.4491 20.4918C13.2296 21.2693 13.2205 21.5162 13.3942 21.5162C13.6138 21.5162 15.6717 19.9705 16.7052 19.0284L17.0802 18.6809L17.0436 18.0223C16.9979 17.3547 17.1168 16.6138 17.4278 15.5437C17.565 15.0589 17.6107 15.004 18.0223 14.7937C18.3973 14.6016 18.6077 14.565 19.2296 14.565C19.6128 14.565 19.9613 14.4617 20.1744 14.8321C20.3381 15.1147 20.5458 15.3699 20.7232 15.6461C21.0065 16.0782 21.1283 16.5965 21.0671 17.1095C21.0003 17.5723 20.65 17.9885 20.3949 18.3617C20.1323 18.7452 19.9028 19.1503 19.7089 19.5726C19.654 19.6943 19.1601 19.8333 19.1217 19.9138C19.1043 19.9495 19.1976 20.1342 19.2131 20.1708C19.3144 20.4556 19.4171 20.7394 19.5214 21.0223C20.1342 22.6687 20.3354 23.5284 20.3445 24.5345C20.3568 25.1334 20.2447 25.7282 20.0153 26.2815L18.5939 26.2284C18.5675 26.2302 18.5411 26.2242 18.518 26.2111C18.4993 26.1937 18.4857 26.1716 18.4787 26.147C18.368 25.8589 18.2958 25.558 18.1961 25.2681C18.1165 25.0412 18.036 24.8153 17.9574 24.5894C16.9878 21.8181 16.8689 21.69 16.183 22.5772C15.7824 23.0976 15.2839 23.5559 14.8202 24.0178C14.211 24.6232 13.5927 25.2205 12.957 25.7986C12.7238 26.0117 12.3543 26.4699 12.0159 26.4297C11.8756 26.4114 11.7369 26.3903 11.5997 26.3665Z" fill="white"/>
<path d="M23.9015 26.1217C23.6729 26.076 23.4625 26.0119 23.4259 25.9754C23.3893 25.9388 23.1881 25.4906 22.9686 24.9876C22.3467 23.5333 22.3741 22.9022 23.0875 22.2254C23.3436 21.9784 24.8436 20.9815 25.0814 20.8991C25.1271 20.8808 25.1912 20.5333 25.2278 20.1217L25.2918 19.3717L24.9351 19.3168C24.4778 19.2464 24.0122 19.1513 23.6427 18.8595C23.2274 18.5275 22.7518 17.0376 22.8954 16.7869C23.0966 16.434 23.3164 16.0921 23.554 15.7626C23.8192 15.4333 23.8467 15.415 24.2034 15.479C24.5086 15.5322 24.8174 15.5627 25.1271 15.5705C25.6485 15.5796 25.7034 15.6071 26.0967 15.9912C27.0021 16.8784 27.3497 17.8571 27.432 19.7046L27.4869 20.9028L27.8619 21.0766C28.2485 21.2689 28.6241 21.4826 28.9869 21.7168C29.1698 21.8357 29.7662 22.3223 29.918 21.94C30.0186 21.6866 29.9445 21.233 29.9436 20.9613C29.9436 20.6083 29.9314 20.2558 29.907 19.904C29.8986 19.8426 29.9042 19.78 29.9235 19.7211C29.9551 19.6608 29.9998 19.6083 30.0543 19.5674C31.6338 18.1488 29.9683 15.5055 28.3823 14.9138C28.1347 14.8165 27.8718 14.7641 27.6058 14.7592C27.3241 14.7592 26.4726 14.5644 26.3656 14.5635L24.6854 14.5534C24.2207 14.5534 23.8 14.5443 23.371 14.3476C22.7399 14.0641 22.2095 13.4787 22.0265 12.8659C21.9442 12.5915 21.8436 12.2741 22.118 12.0738C22.2323 11.9915 22.3979 11.9568 22.4692 11.8251C22.5314 11.7098 22.4884 11.5699 22.4518 11.4446C22.4061 11.2882 22.2305 10.8775 22.4418 10.7979C23.2348 10.4997 24.0332 10.1421 24.8774 10.0214C26.0116 9.84761 27.347 10.3049 29.2311 11.5031C29.725 11.8141 30.1823 12.0427 30.2464 12.0153C30.4659 11.933 30.9049 10.8537 31.3896 9.27139C31.5085 8.85706 31.6329 8.44822 31.7692 8.03389C31.7903 7.97078 31.825 7.75219 31.8826 7.71103C32.0235 7.6095 32.0656 7.85371 32.2037 7.89395C32.2784 7.90012 32.3531 7.88112 32.4159 7.83999C32.8531 7.64792 33.2518 8.00462 33.4933 8.33298C33.722 8.64395 33.7677 8.7903 33.7677 9.22932C33.7677 9.86956 33.4567 11.0677 32.8622 12.6958C32.4963 13.7019 31.975 14.1866 32.2494 14.4793C32.9354 15.2202 33.0909 17.333 32.7067 20.6988C32.4415 23.0311 32.0665 25.1074 31.8653 25.336C31.6183 25.6287 30.8875 26.0403 30.5207 26.0952C30.2793 26.1318 30.2043 25.9644 30.0689 25.8098C30.0159 25.7319 29.9454 25.6673 29.8631 25.6214C29.7433 25.5683 29.4973 25.2656 29.4552 25.1522C29.405 25.059 29.3218 24.9879 29.222 24.9528C28.6732 24.6702 28.2287 24.0318 27.6232 23.879C27.0744 23.74 26.7543 24.2568 26.5512 24.6866C26.0143 25.8199 25.054 26.3504 23.9015 26.1217Z" fill="white"/>
<path d="M49.7167 26.0813C49.4403 25.9884 49.1896 25.8317 48.985 25.624C48.7434 25.3695 48.5912 25.0433 48.5515 24.6947C48.4747 24.0252 48.846 23.3511 49.3975 22.9642C49.949 22.5773 50.6542 22.4511 51.3256 22.5069L51.1179 21.5721C51.1035 21.4596 51.0582 21.3533 50.9872 21.2648C50.8872 21.1816 50.7623 21.1339 50.6323 21.1294C49.7698 21.0197 48.8817 21.1432 48.0347 20.9465C47.1878 20.7499 46.3408 20.0758 46.3774 19.2087C46.4021 18.9419 46.4701 18.6808 46.5786 18.4358C46.6765 18.1807 46.789 17.9127 47.0122 17.7544C47.1887 17.63 47.41 17.5926 47.6231 17.5624C48.3805 17.457 49.1452 17.4123 49.9097 17.4288C50.3478 17.438 50.8006 17.4654 51.2112 17.3118C51.9173 17.0493 52.1332 16.1227 52.1661 15.4395C52.185 15.2656 52.1806 15.09 52.1533 14.9172C51.7353 15.0929 51.0054 14.7563 50.5618 14.6922C49.8899 14.596 49.2104 14.5626 48.5323 14.5926C47.871 14.6218 47.2134 14.7115 46.5512 14.7352C45.6457 14.7682 44.6542 14.6438 44.0186 13.9944C44.1192 13.7813 44.2243 13.5709 44.3368 13.3642C45.3521 11.4983 46.1661 10.9587 48.3247 10.7118L49.2759 10.6111L49.3399 9.87944C49.4661 8.43615 50.1091 7.27273 51.653 7.17578C51.6183 7.57822 52.1579 7.82792 52.189 8.23035C52.1884 8.36128 52.1623 8.49083 52.1122 8.61176C51.8888 9.30481 51.8361 10.0415 51.9585 10.7593C51.985 10.9139 52.1012 11.1124 52.2439 11.0465C52.3353 11.0026 52.3481 10.8736 52.3463 10.7721C52.3363 10.2022 52.4175 9.63438 52.5869 9.09011C52.6902 8.7581 52.8356 8.42334 53.0981 8.1956C53.3606 7.96785 53.7686 7.87456 54.064 8.05932C54.1898 8.14786 54.2973 8.26 54.3804 8.3895C54.7701 8.92914 55.0984 9.54377 55.1378 10.2078C55.2009 11.2715 54.5323 12.22 54.1317 13.2069C54.0511 13.3764 54.0093 13.5616 54.0091 13.7493C54.0311 14.1288 54.342 14.4179 54.5314 14.748C54.9274 15.4349 54.7893 16.3102 54.482 17.0401C54.1747 17.77 53.7118 18.4322 53.4548 19.1822C53.3716 19.4264 53.3103 19.6898 53.3707 19.9404C53.4622 20.331 53.828 20.6044 53.9524 20.9868C54.0032 21.18 54.0217 21.3802 54.0073 21.5794L53.9707 23.7471C53.9907 23.915 53.9681 24.0852 53.905 24.242C53.8418 24.3988 53.7402 24.5372 53.6094 24.6444L52.3865 25.9002C52.2841 26.0179 52.1626 26.1174 52.0271 26.1947C51.8378 26.2861 51.6173 26.2861 51.4051 26.2861C50.8408 26.2861 50.2353 26.2669 49.7167 26.0813Z" fill="white"/>
<path d="M59.7003 26.1782C58.2972 25.9038 57.0479 24.9105 56.682 23.501C56.3555 22.269 56.7259 20.8898 57.5829 19.9449C57.8071 19.6795 58.0911 19.471 58.4116 19.3367C58.8058 19.1885 59.2412 19.2141 59.661 19.1849C59.829 19.1858 59.9939 19.1392 60.1366 19.0504C60.271 18.9516 60.347 18.755 60.2601 18.6123C60.1521 18.4294 59.8942 18.4504 59.6848 18.4898L56.8494 19.0385C56.6957 19.0678 56.5174 19.0916 56.3994 18.9891C56.3276 18.9138 56.2812 18.8178 56.2668 18.7148C56.1149 18.0882 56.0838 17.3428 56.5412 16.8855C56.907 16.5196 57.4713 16.4483 57.989 16.4026L60.5207 16.1785C60.9442 16.141 61.3768 16.1035 61.7893 16.2059C62.3043 16.333 62.746 16.6678 63.1046 17.0584C64.1665 18.2163 64.5625 19.8718 64.4591 21.4394C64.4207 22.0166 64.3165 22.601 64.0412 23.1087C63.8436 23.4745 63.5655 23.7855 63.3506 24.1385C63.153 24.4632 62.0052 25.419 62.0052 25.419C62.0052 25.419 60.9442 26.2129 60.9213 26.2148C60.4869 26.233 59.9381 26.2239 59.7003 26.1782ZM60.7247 23.7178C61.1363 23.3062 61.8863 21.4587 61.9869 20.6263C62.0875 19.7483 61.5296 18.8611 60.8893 18.8611C60.5783 18.8611 60.5783 18.9617 60.8802 20.1324C61.0082 20.6355 61.0997 21.2026 61.0814 21.3946L61.054 21.7422L60.4594 21.8154C59.8375 21.8885 59.0875 22.1904 59.0875 22.3641C59.1219 22.5566 59.1708 22.7462 59.2338 22.9312C59.371 23.3611 59.4351 23.4343 59.8558 23.6446C60.4229 23.9282 60.5052 23.9373 60.7247 23.7178Z" fill="white"/>
<path d="M53.8656 5.84419C53.5549 5.62099 53.3016 5.32727 53.1265 4.98717C53.0571 4.86515 53.0156 4.72928 53.0049 4.58931C53.0067 4.48035 53.0243 4.37222 53.057 4.26827C53.1073 4.07894 53.1631 3.89053 53.2226 3.70303C53.25 3.58595 53.3067 3.47772 53.3872 3.38839C53.5399 3.2448 53.7686 3.25394 53.947 3.16339C54.1253 3.07285 54.279 2.90821 54.4957 2.91736C54.6407 2.92698 54.7807 2.97427 54.9018 3.05455C55.3024 3.30516 55.5293 3.77437 55.5905 4.24358C55.6307 4.477 55.6067 4.71696 55.521 4.93779C55.4196 5.13884 55.2758 5.31547 55.0994 5.45547C54.9027 5.62742 54.6933 5.78474 54.4838 5.94114C54.4278 5.99204 54.3588 6.02653 54.2845 6.04083C54.2047 6.04168 54.1268 6.0177 54.0613 5.97224C53.9973 5.93291 53.9305 5.88992 53.8656 5.84419Z" fill="white"/>
</svg>
