<svg width="156" height="31" fill="none" xmlns="http://www.w3.org/2000/svg"><path fill-rule="evenodd" clip-rule="evenodd" d="M79.4.23h7.47l3.53 16.04h.15L94.17.23h7.26V22.2h-4.45V5.61h-.2l-3.91 16.6h-5L84.05 5.6h-.2v16.6H79.4V.22zM.42.23h13.9v4.1H5.15v4.55h8.76v3.97H5.15v5.25h9.17v4.1H.42V.23zM20.67 22.2l4.76-6.37 2.97 3.13-6.8 8.86h5.32l4.36-5.87 8.19 8.68h6.41L34.11 18.3l9.27-12.2h-5.32l-6.85 9.17-2.96-3.1 7.62-10h-5.3l-5.21 6.97-2.83-3.03H16.2l6.38 6.7-7.2 9.4h5.29zm106.9 0l.04-1.24c.32.26 1.74 1.61 4.7 1.61 3.9 0 7.51-3.63 7.51-8.41 0-4.79-3.39-8.42-7.46-8.42-3.1 0-4.53 1.48-4.75 1.64V.23h-4.4V22.2h4.35zm7.61-8.05a3.89 3.89 0 01-3.86 4.03 3.88 3.88 0 01-3.87-4.02c0-2.3 1.68-4.03 3.88-4.03s3.85 1.75 3.85 4.02zM150.6.23h4.59V22.2h-4.59V.23zm-8.1 4.1h4.57V.22h-4.58v4.1zm0 1.78h4.57V22.2h-4.58V6.1zM42 14.16a8.26 8.26 0 008.25 8.41 8.26 8.26 0 008.25-8.41 8.26 8.26 0 00-8.25-8.42 8.27 8.27 0 00-8.25 8.42zm4.46 0c0-2.23 1.6-4.06 3.82-4.06 2.22 0 3.82 1.83 3.82 4.06 0 2.22-1.6 4.05-3.82 4.05-2.22 0-3.82-1.83-3.82-4.05zm57.6 0a8.26 8.26 0 008.25 8.4 8.26 8.26 0 008.25-8.4 8.26 8.26 0 00-8.25-8.43 8.27 8.27 0 00-8.24 8.43zm4.47 0c0-2.23 1.6-4.06 3.81-4.06 2.22 0 3.82 1.83 3.82 4.06 0 2.22-1.6 4.05-3.82 4.05-2.22 0-3.81-1.83-3.81-4.05zM61.04 6.1h4.27v1.52c.46-.42 1.94-1.9 4.68-1.9 3.23 0 5.79 2.48 5.79 6.38v10.1h-4.52v-8.85c0-2.17-1.02-3.46-2.86-3.46-1.78 0-2.85 1.21-2.85 3.46v8.84h-4.52V6.1z" fill="#FE000C"/></svg>