<svg width="129" height="129" fill="none" xmlns="http://www.w3.org/2000/svg"><g clip-path="url(#clip0)"><path d="M25.46 106.66a8.6 8.6 0 01-8.56-8.56V43.4a8.6 8.6 0 018.56-8.56 8.6 8.6 0 018.57 8.56v54.7a8.6 8.6 0 01-8.57 8.56zM25.46 28.25a8.6 8.6 0 01-8.56-8.57 8.6 8.6 0 018.56-8.56 8.6 8.6 0 018.57 8.56 8.6 8.6 0 01-8.57 8.57zM98.54 34.84H43.85a8.6 8.6 0 00-8.57 8.56 8.6 8.6 0 008.57 8.57h18.78V98.1a8.6 8.6 0 008.56 8.56 8.6 8.6 0 008.57-8.56V51.97h18.78a8.6 8.6 0 008.56-8.57 8.6 8.6 0 00-8.56-8.56zM9.12 8a4 4 0 100-8 4 4 0 000 8zM5.2 36.22a4.48 4.48 0 100-8.96 4.48 4.48 0 000 8.96zM42.2 18.76a4.09 4.09 0 100-8.17 4.09 4.09 0 000 8.17z" fill="#0071BC"/><path d="M11.34 4.84l-1.4 1.4 10.62 10.62 1.4-1.4L11.34 4.84zM20.17 21.06L7.6 29.3l1.09 1.65 12.55-8.25-1.08-1.65zM41.93 13.38L27.92 18.8l.71 1.84 14.02-5.41-.72-1.85z" fill="#0071BC"/><path d="M48.92 27.72a67.79 67.79 0 0117.27-7.51c1.9-.53 35.35-9.38 47.7 7.12a21.6 21.6 0 013.83 8.83c4.94 24.17-29.6 49.45-32.69 51.66a99.18 99.18 0 0019.11-13.05c7.96-6.93 19.41-16.9 22.8-32.68 1.07-5 3.12-14.56-2.24-22.01-4.75-6.6-12.82-8.09-17.93-8.94-24.65-4.16-48.8 10.5-57.85 16.58z" fill="#F26721"/><path d="M55.3 128a.7.7 0 01-.7-.7v-9.15a.7.7 0 011.4 0v9.16a.7.7 0 01-.7.69zM69.81 117.45h-6.4c-.28 0-.49.31-.49.7 0 .38.22.69.48.69h2.58v8.47a.7.7 0 001.39 0v-8.47h2.44c.27 0 .48-.31.48-.7 0-.38-.21-.69-.48-.69zM83.07 126.61h-4.4v-8.46a.7.7 0 00-1.39 0v9.16c0 .38.19.69.41.69h5.38c.22 0 .4-.31.4-.7 0-.38-.18-.69-.4-.69zM27.7 127.26l-3.14-5.37 2.54-3.53c.2-.27.1-.67-.2-.9-.31-.22-.72-.18-.92.1l-3.59 4.97v-4.38a.7.7 0 10-1.38 0v9.16a.7.7 0 001.38 0v-2.41l1.29-1.78 2.82 4.84c.14.23.52.27.85.08.33-.2.49-.54.35-.78zM46.44 117.83s-.37-.53-1.15-.48c-.78.05-1.05.33-1.27.92l-3.14 8.1-3.13-8.1c-.24-.6-.5-.88-1.28-.92-.77-.05-1.15.48-1.15.48a.7.7 0 00-.23.51v9.16a.7.7 0 001.38 0v-8.69l3.3 8.5c0 .03.02.07.04.1 0 0 .26.78 1.06.73.8-.04.97-.42 1.13-.83l3.29-8.5v8.7a.7.7 0 101.38 0v-9.17c0-.2-.09-.39-.23-.51z" fill="#1F56A4"/></g><defs><clipPath id="clip0"><path fill="#fff" transform="translate(.71)" d="M0 0h127.52v128.19H0z"/></clipPath></defs></svg>