<svg xmlns="http://www.w3.org/2000/svg" xmlns:xlink="http://www.w3.org/1999/xlink" viewBox="0 0 432.93 308.2"><defs><style>.cls-1{fill:url(#linear-gradient);}.cls-11,.cls-2,.cls-8{fill:none;}.cls-3{clip-path:url(#clip-path);}.cls-4{fill:url(#linear-gradient-3);}.cls-5{opacity:0.65;}.cls-6{clip-path:url(#clip-path-2);}.cls-7{fill:#fff;}.cls-11,.cls-8{stroke:#fff;}.cls-8{stroke-width:1.5px;}.cls-9{opacity:0.5;}.cls-10{clip-path:url(#clip-path-3);}.cls-11{stroke-width:2px;}</style><linearGradient id="linear-gradient" x1="241.22" y1="24.47" x2="241.22" y2="217.54" gradientUnits="userSpaceOnUse"><stop offset="0" stop-color="#8c0d1c"/><stop offset="1" stop-color="#8c0d1c" stop-opacity="0.1"/></linearGradient><clipPath id="clip-path"><path class="cls-1" d="M259.88,213.57h0M273.36,26.74c-.58,1.09-1,2.37-1.55,3.51-1.22,2.61-2.47,3.91-4.28,3.56-5.27-1-10.14,3.28-15.45,4-3.6.51-7.94,1.39-11.51.38-1.87-.53-2-1.4-3.06-4.41-1.67-4.85-4.62-3.36-7.57-1.87-1.75.88-3.51,1.77-5,1.32-3.07-.91-5.48-4.38-8.44-1.18-2.07,2.23-3.36,1.8-5.53,1.41-1.3-.24-1-1.47-2.31.54-.27.41-.38,1.47-.66,1.93a5.76,5.76,0,0,1-1.81,2.12c-2.15,1.31-4.78-.55-6.93-1.43s-5.14-.3-7-2.38a14.16,14.16,0,0,1-1.45-3c-1.18-2.44-1.31-3.06-2.31-.89.46-1-.47,1.93-.76,2.52a4.53,4.53,0,0,1-2.21,2.17c-2.14.9-2.89-2.09-4.83-2.74a11.85,11.85,0,0,0-4.38-.3,16.25,16.25,0,0,1-3.2,0c-2.36-.35-4.51-4.13-6.89-3.16-2.55,1-4.63,4.94-7.31,5.51a6.9,6.9,0,0,1-3.9-.72,6.72,6.72,0,0,0-3.94-.69c-1.22.29-2.16,1.2-3.38.58-1-.48-1.69-2.08-2.5-2.39a1.8,1.8,0,0,0-1.18.23,2.13,2.13,0,0,1-1.16.24c-1.08-.25-2-1.78-3.06-2.08a4.16,4.16,0,0,0-2.23.06A2.88,2.88,0,0,1,134.5,29c-1.39-1.22-4.18-3.89-5.81-4.07-1.82-.19-2.78,6.38-4.85,7.6a3.61,3.61,0,0,1-2.12.33,8.06,8.06,0,0,0-5.61,2.2,15.13,15.13,0,0,1-13.35,2.85c-2.73-.65-2-2.91-3.7-6.38-1.53-3.08-4-.64-5.93,1l-.06.06-.17.16v0l-.57.47a1.22,1.22,0,0,1-1.13.26c-1.45.18-2.49-.76-3.75-1.61a4.52,4.52,0,0,1-1.7,1.49A17,17,0,0,1,84.46,39a70.69,70.69,0,0,0-3,8.84c-.83,3.28-.17,5-.62,8.13a15.5,15.5,0,0,1-1.35,3.89,9.63,9.63,0,0,1,.09,1.08,8.07,8.07,0,0,1-.35,2.63c.51,4.4,1.73,6.79,3.56,10.14,2,3.67.48,5,.58,10.14.06,3.51,1,6.87,1.14,10.39.16,3,0,5.66.41,8.56a136.9,136.9,0,0,1,1,15.49,6.06,6.06,0,0,1,.18,6.39c.09,4,.37,9.59-.18,12.89s-2,3.16-3.15,5.14c-2.73,4.71.19,12.45.69,18.34.7,8.13-1.23,14.42-1.58,22.26-.19,4.31,1.68,7.6,2.4,11.37.89,4.64.6,9.9,3.3,12.09a3.39,3.39,0,0,0,2.34.53c1.06,0,2.13-.05,2.91,1.14,1.31,2,.34,4.44,1.13,6.72,1.28,3.7,5.78-1.95,7.56-2.8a16.47,16.47,0,0,0,6.1-4.28c1-1.12,2.16-2,3.35-1.47,1.65.76,2.36,3.9,3.18,6.76.65-.17,1.3-.18,1.85-.33,1.89-.49,3.79-4,5.76-2.34,1.41,1.21,1.45,4.8,3,5.76.61.39,1.5.12,2.33-.15a4.85,4.85,0,0,1,1.52-.34,8.88,8.88,0,0,0,3.54-.55c1-.37,1.89-1,3-.33s1.63,1.72,2.67,1.86a11,11,0,0,0,2.15,0,12.47,12.47,0,0,1,1.72-.06c1.49.08,2.43-.93,3.82-1.33a3.52,3.52,0,0,1,1.86.06,2.6,2.6,0,0,0,2.75-.56c2-1.82,3-5.32,5.43-4.29a2.66,2.66,0,0,1,1.42,1,4.59,4.59,0,0,1,.26.49c1.44-1.15,3.11-1.26,4.07.9.83.8,1.27,2.23,2.39,3.35,1.95,1.92,5,.67,7,.11a18.63,18.63,0,0,0,7.95-4.48c2.2-2,4.42-4.62,6.81-5.5a4.14,4.14,0,0,1,3.23.21c.83,0,1.06.44.7,1.23q.72-.62,1.44-1.17a7.33,7.33,0,0,1,4.33-.06,11,11,0,0,0,2.93.28c4.84-.45,10.15-3.26,15-2a8.23,8.23,0,0,1,5.56,4c1,1.73,1.26,3.91,2.5,5,.07-.19.15-.43.25-.73,2.29-6.62,6.33-8.52,8.7-1.92,1,2.8.71,5.49,2.83,5.29.9-.08,2-1.31,2.85-1.9,2.89-2,5.83-2.11,8.69-3.86,3.71-2.27,6.31-7.73,9.2-3.6a2,2,0,0,1,1.93-.11c1.22.57,1.72,2,2.11,3.15.24.7.85,3.59.4,1.33,0-.05.32.65.41.88a4.11,4.11,0,0,1,.15.46c.48.29.94.53,1.22.42-.6.22,1.5-3.4,1.52-3.43,1.16-1.84,2.28-3.36,3.86-2.84,2,.67,1.81,2.76,2.78,5.83,1.23,3.94,2.94,3.41,4.77,3,1.56-2.71,3.36-2.69,5.32-1.31-.69-.48-.12-.22.45.43,1.24-1.11,2.17-2.87,4-2,.81.38,1.57,1.3,1.52,3.24,0,.49,4.22.12,8.23-.25a51.67,51.67,0,0,1,7-.44c1.83.53,1.67.29,3.1-1.44a20.68,20.68,0,0,1,4.1-3.71c2.25-1.57,3.44-.5,5.1,1.81a2.21,2.21,0,0,1,1.91.09c1.16-1.37,2.26-2.37,3.83-.87s2.38,4,4.17,4.82c2.37,1.12,4.53.32,6.89-.25,2.21-.53,3.91-.21,6.12-1.31,2.84-1.4,5.33-3.75,8.05-5.68,2.39-1.69,5.34-3.61,7.88-2.75A7.17,7.17,0,0,1,353.6,208a2.44,2.44,0,0,1,.32.4l.06-.06c.42-.34.75-1.06,1.19-1.41,1.21-1,4.66-1.82,5.84.61,3.72-.29,7.44-1.59,11.16-1.67s7.43-1.14,11.17-.88a9.62,9.62,0,0,1,7.63,4.1c.92,1.25,2,2.85,2.91,4.33.43-.64,1-1.32,1.15-1.64,2.15-4.73,2.2-13,3.38-18.83a26.08,26.08,0,0,1,2.2-5.9c2.38-5.71,1.46-7.57-.6-11.95-1.24-2.64-2.33-5.57-.88-8.93.7-1.61,2-1.65,2.69-3.09a37,37,0,0,0,1-8.83,5.73,5.73,0,0,1-.09-.92c-.42-3.92-1.56-6.83-1.82-10.92s-.23-8.14-.86-12.24c-.59-3.8-2.36-8.47-2.31-12.64a12.48,12.48,0,0,1,1.28-5.23,6.47,6.47,0,0,1,0-4.48,16.9,16.9,0,0,1,1.19-2.22c1.1-1.89,1.29-1.32,1.44-3.51.47-6.86-1.95-6.22-2.9-10.93a8.56,8.56,0,0,1,.6-5.37c1.62-3.6,4-2.85,3.91-9.41-.05-2.72-.38-5.24-.5-7.88a3.73,3.73,0,0,1-1.07-2.62,7.65,7.65,0,0,1,.18-2.13c-.17.48-.14,0-.08-.49s.21-1.18.14,0c0,.18,0,.34-.06.5a1.25,1.25,0,0,0,.06-.18,27.91,27.91,0,0,1,1.1-3.23c-.44-3.77-2.63-7.78-2.89-12.22-.07-1.18.53-5.35.26-6.23-.41-1.32-2.33-.55-3.07-2.07a5.16,5.16,0,0,1-.21-.49c-2.19-2.89-5.26-9.7-7.46-8.35-1.22.75-2.2,2.5-3.53,3a6.58,6.58,0,0,1-4.4.08,5.92,5.92,0,0,1-2-1c-1-.84-.54-1.63-1.1-.94-.72.88-1.06,4.27-1.93,5.52-1.74,2.47-3.68,1.4-5.53.22-2.49-1.58-4.83-.76-7.31-2.29-1.87-1.15-2.11-.5-3.91,0a2.54,2.54,0,0,1-2.65-.9c-1.1-1.18-2.49-6.76-3.83-6.09-.5.26-1.83,5.51-2.62,6.48a3.81,3.81,0,0,1-5.16.85c-1-.07-1.83-.8-2.6-2.6a3.12,3.12,0,0,1-.23-1.08,8.14,8.14,0,0,0-2.6-.2,7,7,0,0,1-1.8-.08c-1.42-.39-2.52-.85-4-.36-1.22.41-2.15,1.12-3.39.72-1.51-.48-2.71-2.52-4.23-3.16-2.68-1.14-4.89,1-7.29,3l-.23.18c-.06.06-.12.11-.19.19-.36.32-.68.86-1,1.2a3.09,3.09,0,0,1-2.21.87,24,24,0,0,1-7.95-1c-1.14-.36-2.14-1.13-3.26-.5s-1.68,2.25-2.95,2.38c-1,.09-1.63-.5-2.53-1.45-1.57-1.67-2.35-2.2-4.12-2.17a5.85,5.85,0,0,1-3.45-1.12c-1.21-.8-2-2-3.46-1.18-.39.22-.66,1.11-1.06,1.31-2,1.05-2.64.95-4.41-1-2.32-2.57-4.43-2.06-6.74-4.4-.65-.66-.93-1.06-1.17-1.06s-.55.65-1.4,2.27"/></clipPath><linearGradient id="linear-gradient-3" x1="241.26" y1="24.47" x2="241.26" y2="218.83" xlink:href="#linear-gradient"/><clipPath id="clip-path-2"><rect class="cls-2" x="68.53" width="320.79" height="193.27"/></clipPath><clipPath id="clip-path-3"><rect class="cls-2" x="5.72" y="180.13" width="280.39" height="128.03"/></clipPath></defs><title>Asset 16</title><g id="Layer_2" data-name="Layer 2"><g id="Layer_1-2" data-name="Layer 1"><path class="cls-1" d="M259.88,213.57h0M273.36,26.74c-.58,1.09-1,2.37-1.55,3.51-1.22,2.61-2.47,3.91-4.28,3.56-5.27-1-10.14,3.28-15.45,4-3.6.51-7.94,1.39-11.51.38-1.87-.53-2-1.4-3.06-4.41-1.67-4.85-4.62-3.36-7.57-1.87-1.75.88-3.51,1.77-5,1.32-3.07-.91-5.48-4.38-8.44-1.18-2.07,2.23-3.36,1.8-5.53,1.41-1.3-.24-1-1.47-2.31.54-.27.41-.38,1.47-.66,1.93a5.76,5.76,0,0,1-1.81,2.12c-2.15,1.31-4.78-.55-6.93-1.43s-5.14-.3-7-2.38a14.16,14.16,0,0,1-1.45-3c-1.18-2.44-1.31-3.06-2.31-.89.46-1-.47,1.93-.76,2.52a4.53,4.53,0,0,1-2.21,2.17c-2.14.9-2.89-2.09-4.83-2.74a11.85,11.85,0,0,0-4.38-.3,16.25,16.25,0,0,1-3.2,0c-2.36-.35-4.51-4.13-6.89-3.16-2.55,1-4.63,4.94-7.31,5.51a6.9,6.9,0,0,1-3.9-.72,6.72,6.72,0,0,0-3.94-.69c-1.22.29-2.16,1.2-3.38.58-1-.48-1.69-2.08-2.5-2.39a1.8,1.8,0,0,0-1.18.23,2.13,2.13,0,0,1-1.16.24c-1.08-.25-2-1.78-3.06-2.08a4.16,4.16,0,0,0-2.23.06A2.88,2.88,0,0,1,134.5,29c-1.39-1.22-4.18-3.89-5.81-4.07-1.82-.19-2.78,6.38-4.85,7.6a3.61,3.61,0,0,1-2.12.33,8.06,8.06,0,0,0-5.61,2.2,15.13,15.13,0,0,1-13.35,2.85c-2.73-.65-2-2.91-3.7-6.38-1.53-3.08-4-.64-5.93,1l-.06.06-.17.16v0l-.57.47a1.22,1.22,0,0,1-1.13.26c-1.45.18-2.49-.76-3.75-1.61a4.52,4.52,0,0,1-1.7,1.49A17,17,0,0,1,84.46,39a70.69,70.69,0,0,0-3,8.84c-.83,3.28-.17,5-.62,8.13a15.5,15.5,0,0,1-1.35,3.89,9.63,9.63,0,0,1,.09,1.08,8.07,8.07,0,0,1-.35,2.63c.51,4.4,1.73,6.79,3.56,10.14,2,3.67.48,5,.58,10.14.06,3.51,1,6.87,1.14,10.39.16,3,0,5.66.41,8.56a136.9,136.9,0,0,1,1,15.49,6.06,6.06,0,0,1,.18,6.39c.09,4,.37,9.59-.18,12.89s-2,3.16-3.15,5.14c-2.73,4.71.19,12.45.69,18.34.7,8.13-1.23,14.42-1.58,22.26-.19,4.31,1.68,7.6,2.4,11.37.89,4.64.6,9.9,3.3,12.09a3.39,3.39,0,0,0,2.34.53c1.06,0,2.13-.05,2.91,1.14,1.31,2,.34,4.44,1.13,6.72,1.28,3.7,5.78-1.95,7.56-2.8a16.47,16.47,0,0,0,6.1-4.28c1-1.12,2.16-2,3.35-1.47,1.65.76,2.36,3.9,3.18,6.76.65-.17,1.3-.18,1.85-.33,1.89-.49,3.79-4,5.76-2.34,1.41,1.21,1.45,4.8,3,5.76.61.39,1.5.12,2.33-.15a4.85,4.85,0,0,1,1.52-.34,8.88,8.88,0,0,0,3.54-.55c1-.37,1.89-1,3-.33s1.63,1.72,2.67,1.86a11,11,0,0,0,2.15,0,12.47,12.47,0,0,1,1.72-.06c1.49.08,2.43-.93,3.82-1.33a3.52,3.52,0,0,1,1.86.06,2.6,2.6,0,0,0,2.75-.56c2-1.82,3-5.32,5.43-4.29a2.66,2.66,0,0,1,1.42,1,4.59,4.59,0,0,1,.26.49c1.44-1.15,3.11-1.26,4.07.9.83.8,1.27,2.23,2.39,3.35,1.95,1.92,5,.67,7,.11a18.63,18.63,0,0,0,7.95-4.48c2.2-2,4.42-4.62,6.81-5.5a4.14,4.14,0,0,1,3.23.21c.83,0,1.06.44.7,1.23q.72-.62,1.44-1.17a7.33,7.33,0,0,1,4.33-.06,11,11,0,0,0,2.93.28c4.84-.45,10.15-3.26,15-2a8.23,8.23,0,0,1,5.56,4c1,1.73,1.26,3.91,2.5,5,.07-.19.15-.43.25-.73,2.29-6.62,6.33-8.52,8.7-1.92,1,2.8.71,5.49,2.83,5.29.9-.08,2-1.31,2.85-1.9,2.89-2,5.83-2.11,8.69-3.86,3.71-2.27,6.31-7.73,9.2-3.6a2,2,0,0,1,1.93-.11c1.22.57,1.72,2,2.11,3.15.24.7.85,3.59.4,1.33,0-.05.32.65.41.88a4.11,4.11,0,0,1,.15.46c.48.29.94.53,1.22.42-.6.22,1.5-3.4,1.52-3.43,1.16-1.84,2.28-3.36,3.86-2.84,2,.67,1.81,2.76,2.78,5.83,1.23,3.94,2.94,3.41,4.77,3,1.56-2.71,3.36-2.69,5.32-1.31-.69-.48-.12-.22.45.43,1.24-1.11,2.17-2.87,4-2,.81.38,1.57,1.3,1.52,3.24,0,.49,4.22.12,8.23-.25a51.67,51.67,0,0,1,7-.44c1.83.53,1.67.29,3.1-1.44a20.68,20.68,0,0,1,4.1-3.71c2.25-1.57,3.44-.5,5.1,1.81a2.21,2.21,0,0,1,1.91.09c1.16-1.37,2.26-2.37,3.83-.87s2.38,4,4.17,4.82c2.37,1.12,4.53.32,6.89-.25,2.21-.53,3.91-.21,6.12-1.31,2.84-1.4,5.33-3.75,8.05-5.68,2.39-1.69,5.34-3.61,7.88-2.75A7.17,7.17,0,0,1,353.6,208a2.44,2.44,0,0,1,.32.4l.06-.06c.42-.34.75-1.06,1.19-1.41,1.21-1,4.66-1.82,5.84.61,3.72-.29,7.44-1.59,11.16-1.67s7.43-1.14,11.17-.88a9.62,9.62,0,0,1,7.63,4.1c.92,1.25,2,2.85,2.91,4.33.43-.64,1-1.32,1.15-1.64,2.15-4.73,2.2-13,3.38-18.83a26.08,26.08,0,0,1,2.2-5.9c2.38-5.71,1.46-7.57-.6-11.95-1.24-2.64-2.33-5.57-.88-8.93.7-1.61,2-1.65,2.69-3.09a37,37,0,0,0,1-8.83,5.73,5.73,0,0,1-.09-.92c-.42-3.92-1.56-6.83-1.82-10.92s-.23-8.14-.86-12.24c-.59-3.8-2.36-8.47-2.31-12.64a12.48,12.48,0,0,1,1.28-5.23,6.47,6.47,0,0,1,0-4.48,16.9,16.9,0,0,1,1.19-2.22c1.1-1.89,1.29-1.32,1.44-3.51.47-6.86-1.95-6.22-2.9-10.93a8.56,8.56,0,0,1,.6-5.37c1.62-3.6,4-2.85,3.91-9.41-.05-2.72-.38-5.24-.5-7.88a3.73,3.73,0,0,1-1.07-2.62,7.65,7.65,0,0,1,.18-2.13c-.17.48-.14,0-.08-.49s.21-1.18.14,0c0,.18,0,.34-.06.5a1.25,1.25,0,0,0,.06-.18,27.91,27.91,0,0,1,1.1-3.23c-.44-3.77-2.63-7.78-2.89-12.22-.07-1.18.53-5.35.26-6.23-.41-1.32-2.33-.55-3.07-2.07a5.16,5.16,0,0,1-.21-.49c-2.19-2.89-5.26-9.7-7.46-8.35-1.22.75-2.2,2.5-3.53,3a6.58,6.58,0,0,1-4.4.08,5.92,5.92,0,0,1-2-1c-1-.84-.54-1.63-1.1-.94-.72.88-1.06,4.27-1.93,5.52-1.74,2.47-3.68,1.4-5.53.22-2.49-1.58-4.83-.76-7.31-2.29-1.87-1.15-2.11-.5-3.91,0a2.54,2.54,0,0,1-2.65-.9c-1.1-1.18-2.49-6.76-3.83-6.09-.5.26-1.83,5.51-2.62,6.48a3.81,3.81,0,0,1-5.16.85c-1-.07-1.83-.8-2.6-2.6a3.12,3.12,0,0,1-.23-1.08,8.14,8.14,0,0,0-2.6-.2,7,7,0,0,1-1.8-.08c-1.42-.39-2.52-.85-4-.36-1.22.41-2.15,1.12-3.39.72-1.51-.48-2.71-2.52-4.23-3.16-2.68-1.14-4.89,1-7.29,3l-.23.18c-.06.06-.12.11-.19.19-.36.32-.68.86-1,1.2a3.09,3.09,0,0,1-2.21.87,24,24,0,0,1-7.95-1c-1.14-.36-2.14-1.13-3.26-.5s-1.68,2.25-2.95,2.38c-1,.09-1.63-.5-2.53-1.45-1.57-1.67-2.35-2.2-4.12-2.17a5.85,5.85,0,0,1-3.45-1.12c-1.21-.8-2-2-3.46-1.18-.39.22-.66,1.11-1.06,1.31-2,1.05-2.64.95-4.41-1-2.32-2.57-4.43-2.06-6.74-4.4-.65-.66-.93-1.06-1.17-1.06s-.55.65-1.4,2.27"/><g class="cls-3"><rect class="cls-4" x="79.24" y="24.47" width="324.06" height="194.36"/></g><g class="cls-5"><g class="cls-6"><path class="cls-7" d="M70.19,191.6H387.65V1.67H70.19ZM68.53,0H389.32V193.27H68.53Z"/><ellipse class="cls-8" cx="89.04" cy="18.09" rx="5.84" ry="5.56"/><ellipse class="cls-8" cx="110.58" cy="17.96" rx="5.84" ry="5.56"/><ellipse class="cls-8" cx="132.07" cy="17.81" rx="5.84" ry="5.56"/><rect class="cls-8" x="69.41" y="0.85" width="319.19" height="33.93"/></g></g><g class="cls-9"><g class="cls-10"><path class="cls-11" d="M10.69,303.33a13.32,13.32,0,0,1-4-10.17c0-.5,0-1.36.15-2.56l2.62-20.88a19.21,19.21,0,0,1,3.12-8.59,17.08,17.08,0,0,1,6.53-5.75,19.67,19.67,0,0,1,9-2q6.83,0,10.85,3.68A12.8,12.8,0,0,1,43,267q0,.75-.15,2.4v.37a1.46,1.46,0,0,1-.34.68.83.83,0,0,1-.64.3l-8.64.38c-.55,0-.8-.28-.75-.83l.15-1a6.06,6.06,0,0,0,.08-1.12,5.73,5.73,0,0,0-1.5-4.17A5.49,5.49,0,0,0,27,262.44a6.88,6.88,0,0,0-4.92,1.88,7.85,7.85,0,0,0-2.37,4.95l-2.7,22a6.1,6.1,0,0,0-.08,1.13A5.3,5.3,0,0,0,22.6,298a7,7,0,0,0,4.92-1.84,7.76,7.76,0,0,0,2.36-4.92l.08-1a.84.84,0,0,1,1-.82l8.49.37a.76.76,0,0,1,.6.26.72.72,0,0,1,.15.64V291a18.9,18.9,0,0,1-3.12,8.48,16.72,16.72,0,0,1-6.53,5.67,19.91,19.91,0,0,1-9,2Q14.71,307.12,10.69,303.33Z"/><path class="cls-11" d="M49.82,303.33q-4-3.87-4-10.4a17.84,17.84,0,0,1,.15-2.7l2.48-20a20,20,0,0,1,3.15-8.86,17.43,17.43,0,0,1,6.65-5.93,19.7,19.7,0,0,1,9.12-2.11q7,0,11,3.87t4.06,10.48q0,.75-.15,2.55l-2.48,20a19.76,19.76,0,0,1-3.19,8.93,17.73,17.73,0,0,1-6.72,5.94,19.94,19.94,0,0,1-9.16,2.1Q53.84,307.2,49.82,303.33ZM67,296.05a9,9,0,0,0,2.55-5.37L72,270a9.87,9.87,0,0,0,.07-1.43,6.15,6.15,0,0,0-1.57-4.43,5.64,5.64,0,0,0-4.28-1.65,6.88,6.88,0,0,0-5.07,2.07A8.76,8.76,0,0,0,58.72,270l-2.56,20.73a8.3,8.3,0,0,0-.07,1.27,6.34,6.34,0,0,0,1.54,4.47,5.43,5.43,0,0,0,4.24,1.69A7,7,0,0,0,67,296.05Z"/><path class="cls-11" d="M116.43,254.22a.85.85,0,0,1,.64-.27h8.48a.74.74,0,0,1,.6.27.72.72,0,0,1,.15.64l-6.23,50.76a1.18,1.18,0,0,1-.34.64.84.84,0,0,1-.63.26h-8.87a.92.92,0,0,1-1-.67L99.12,275.28c-.1-.15-.2-.22-.3-.22s-.15.1-.15.3L95,305.62a1.18,1.18,0,0,1-.34.64.84.84,0,0,1-.64.26H85.6c-.55,0-.82-.3-.82-.9L91,254.86a1.1,1.1,0,0,1,.37-.64,1,1,0,0,1,.68-.27h8.79a.89.89,0,0,1,.9.68L112,285.2c.05.15.12.22.23.22s.17-.1.22-.3l3.68-30.26A1.18,1.18,0,0,1,116.43,254.22Z"/><path class="cls-11" d="M166.41,254.22a.72.72,0,0,1,.15.64l-.91,7.36a1.2,1.2,0,0,1-.33.63.87.87,0,0,1-.64.27H153.56a.34.34,0,0,0-.26.11.36.36,0,0,0-.11.26L148,305.62a1.25,1.25,0,0,1-.34.64.86.86,0,0,1-.64.26h-8.49c-.55,0-.82-.3-.82-.9l5.18-42.13c.1-.25,0-.37-.3-.37H131.86a.74.74,0,0,1-.6-.27.7.7,0,0,1-.15-.63l.9-7.36a1.18,1.18,0,0,1,.34-.64A.85.85,0,0,1,133,254H165.8A.75.75,0,0,1,166.41,254.22Z"/><path class="cls-11" d="M202.19,262.78a.9.9,0,0,1-.64.26H182c-.2,0-.35.13-.45.38l-1.42,11.71c0,.25.1.38.3.38h12.16a.76.76,0,0,1,.6.26.72.72,0,0,1,.15.64l-.82,7.28a1.12,1.12,0,0,1-.38.64,1,1,0,0,1-.67.26H179.32a.34.34,0,0,0-.26.12.33.33,0,0,0-.11.26l-1.51,12.09c0,.25.1.38.3.38h19.53c.55,0,.83.3.83.9l-.91,7.28a1.23,1.23,0,0,1-.33.64.86.86,0,0,1-.64.26H166.93c-.55,0-.83-.3-.83-.9l6.24-50.76a1.1,1.1,0,0,1,.37-.64,1,1,0,0,1,.68-.27h29.29a.74.74,0,0,1,.6.27.72.72,0,0,1,.15.64l-.9,7.28A1.29,1.29,0,0,1,202.19,262.78Z"/><path class="cls-11" d="M235,254.22a.83.83,0,0,1,.63-.27h8.49a.74.74,0,0,1,.6.27.72.72,0,0,1,.15.64l-6.23,50.76a1.25,1.25,0,0,1-.34.64.86.86,0,0,1-.64.26h-8.86a.93.93,0,0,1-1-.67L217.7,275.28c-.11-.15-.21-.22-.3-.22s-.16.1-.16.3l-3.67,30.26a1.32,1.32,0,0,1-.34.64.86.86,0,0,1-.64.26h-8.41c-.55,0-.83-.3-.83-.9l6.24-50.76a1.05,1.05,0,0,1,.37-.64,1,1,0,0,1,.68-.27h8.78a.89.89,0,0,1,.9.68l10.22,30.57c.05.15.12.22.22.22s.18-.1.23-.3l3.68-30.26A1.18,1.18,0,0,1,235,254.22Z"/><path class="cls-11" d="M285,254.22a.72.72,0,0,1,.15.64l-.9,7.36a1.15,1.15,0,0,1-.34.63.85.85,0,0,1-.64.27H272.14a.33.33,0,0,0-.26.11.34.34,0,0,0-.12.26l-5.18,42.13a1.18,1.18,0,0,1-.34.64.82.82,0,0,1-.63.26h-8.49c-.55,0-.83-.3-.83-.9l5.19-42.13c.1-.25,0-.37-.3-.37H250.44a.74.74,0,0,1-.6-.27.7.7,0,0,1-.15-.63l.9-7.36a1.18,1.18,0,0,1,.34-.64.83.83,0,0,1,.63-.27h32.82A.74.74,0,0,1,285,254.22Z"/><path class="cls-11" d="M15,232.9,9.83,182.06v-.15c0-.55.32-.83,1-.83h8.93a.74.74,0,0,1,.83.83l2,28.84c0,.15.06.22.18.22a.27.27,0,0,0,.27-.22l8.78-28.84a1,1,0,0,1,1.05-.83H41a.73.73,0,0,1,.82.83l2.33,28.84c0,.15.06.22.19.22a.27.27,0,0,0,.26-.22l8.79-28.84a1,1,0,0,1,1-.83H63c.6,0,.8.33.6,1L46.78,232.82a1,1,0,0,1-1.05.83H37.47a.73.73,0,0,1-.83-.83l-2.25-30.18c0-.15,0-.23-.15-.23s-.18.08-.23.23l-9,30.18a1,1,0,0,1-1.05.83h-8A.9.9,0,0,1,15,232.9Z"/><path class="cls-11" d="M98.71,189.91a.9.9,0,0,1-.64.26H78.54c-.2,0-.35.12-.45.37l-1.42,11.72c0,.25.1.38.3.38H89.13a.73.73,0,0,1,.6.26.72.72,0,0,1,.15.64l-.82,7.28a1.15,1.15,0,0,1-.38.64,1,1,0,0,1-.67.26H75.84a.38.38,0,0,0-.37.38L74,224.19c0,.25.1.37.3.37H93.79c.55,0,.82.3.82.9l-.9,7.29a1.27,1.27,0,0,1-.33.64.9.9,0,0,1-.64.26H63.45c-.55,0-.83-.3-.83-.9L68.86,182a1.08,1.08,0,0,1,.37-.63,1,1,0,0,1,.68-.27H99.2a.74.74,0,0,1,.6.27.7.7,0,0,1,.15.63l-.9,7.29A1.29,1.29,0,0,1,98.71,189.91Z"/><path class="cls-11" d="M129.05,229.9A19.31,19.31,0,0,1,117,233.65H100.7c-.55,0-.83-.3-.83-.9L106.1,182a1.09,1.09,0,0,1,.38-.63,1,1,0,0,1,.67-.27h15.17q7.06,0,10.93,3t3.87,9c0,.45-.05,1.28-.15,2.48q-.9,7.44-6.91,10.74-.37.3-.15.45,5,3.3,5,9.91c0,.45-.05,1.23-.15,2.33Q134,226.15,129.05,229.9Zm-6.61-7.18a8.27,8.27,0,0,0,2.29-5,8.45,8.45,0,0,0,.07-1.28,5.77,5.77,0,0,0-1.42-4.13,5.36,5.36,0,0,0-4.06-1.5h-6.08c-.2,0-.35.13-.45.38l-1.58,12.91a.33.33,0,0,0,.38.38h6.08A6.61,6.61,0,0,0,122.44,222.72Zm-7.1-32.18-1.43,11.79c0,.26.1.38.3.38h5.56a6.67,6.67,0,0,0,7.06-6.23,5.58,5.58,0,0,0,.08-1,5.06,5.06,0,0,0-1.47-3.87,5.8,5.8,0,0,0-4.17-1.39h-5.48C115.59,190.17,115.44,190.29,115.34,190.54Z"/></g></g><path class="cls-7" d="M4,296.1a13.33,13.33,0,0,1-4-10.18q0-.75.15-2.55l2.63-20.88a19.3,19.3,0,0,1,3.12-8.6,17,17,0,0,1,6.53-5.74,19.66,19.66,0,0,1,9-2q6.84,0,10.85,3.68a12.78,12.78,0,0,1,4,9.91c0,.5-.05,1.31-.15,2.41v.37a1.42,1.42,0,0,1-.34.68.8.8,0,0,1-.63.3l-8.64.37c-.55,0-.8-.27-.75-.82l.15-1a6.25,6.25,0,0,0,.07-1.12,5.7,5.7,0,0,0-1.5-4.17,5.49,5.49,0,0,0-4.13-1.54,6.87,6.87,0,0,0-4.92,1.88,7.89,7.89,0,0,0-2.36,5l-2.71,22a6.25,6.25,0,0,0-.07,1.12,5.54,5.54,0,0,0,1.54,4.1,5.54,5.54,0,0,0,4.09,1.53A7,7,0,0,0,20.84,289a7.72,7.72,0,0,0,2.37-4.91l.07-1a.85.85,0,0,1,1-.83l8.48.38a.76.76,0,0,1,.6.26.72.72,0,0,1,.15.64v.22a19,19,0,0,1-3.11,8.49,16.92,16.92,0,0,1-6.54,5.67,19.9,19.9,0,0,1-9,2Q8,299.89,4,296.1"/><path class="cls-7" d="M43.14,296.1q-4-3.87-4-10.4a16.74,16.74,0,0,1,.15-2.71l2.47-20a20,20,0,0,1,3.16-8.86,17.43,17.43,0,0,1,6.64-5.94,19.7,19.7,0,0,1,9.13-2.1q7,0,11,3.87t4,10.48q0,.75-.15,2.55l-2.48,20A19.75,19.75,0,0,1,70,291.93a17.63,17.63,0,0,1-6.72,5.93A19.8,19.8,0,0,1,54.07,300q-6.91,0-10.93-3.87m17.16-7.29a9,9,0,0,0,2.56-5.37l2.47-20.72a9.53,9.53,0,0,0,.08-1.43,6.16,6.16,0,0,0-1.58-4.43,5.64,5.64,0,0,0-4.28-1.65,6.92,6.92,0,0,0-5.07,2.06A8.87,8.87,0,0,0,52,262.72l-2.55,20.72a8.21,8.21,0,0,0-.08,1.28A6.42,6.42,0,0,0,51,289.19a5.45,5.45,0,0,0,4.25,1.69,7,7,0,0,0,5.1-2.07"/><path class="cls-7" d="M109.75,247a.9.9,0,0,1,.64-.26h8.49a.76.76,0,0,1,.6.26.72.72,0,0,1,.15.64l-6.23,50.77a1.29,1.29,0,0,1-.34.64.9.9,0,0,1-.64.26h-8.86a.94.94,0,0,1-1-.68L92.44,268.05c-.1-.15-.2-.23-.3-.23s-.15.11-.15.3l-3.68,30.27A1.27,1.27,0,0,1,88,299a.9.9,0,0,1-.64.26H78.93c-.56,0-.83-.3-.83-.9l6.23-50.77a1.15,1.15,0,0,1,.38-.64,1,1,0,0,1,.67-.26h8.79a.89.89,0,0,1,.9.68L105.29,278c0,.15.12.23.22.23s.18-.1.23-.3l3.68-30.27a1.27,1.27,0,0,1,.33-.64"/><path class="cls-7" d="M159.73,247a.72.72,0,0,1,.15.64L159,255a1.18,1.18,0,0,1-.34.64.84.84,0,0,1-.64.26H146.89a.41.41,0,0,0-.38.38l-5.18,42.13a1.21,1.21,0,0,1-.34.64.86.86,0,0,1-.63.26h-8.49c-.55,0-.83-.3-.83-.9l5.19-42.13c.09-.25,0-.38-.31-.38H125.19a.72.72,0,0,1-.6-.26.69.69,0,0,1-.16-.64l.91-7.36a1.27,1.27,0,0,1,.33-.64.9.9,0,0,1,.64-.26h32.82a.76.76,0,0,1,.6.26"/><path class="cls-7" d="M195.51,255.55a.88.88,0,0,1-.63.26H175.35c-.2,0-.35.12-.45.37l-1.43,11.72c0,.25.1.38.3.38h12.17a.73.73,0,0,1,.6.26.72.72,0,0,1,.15.64l-.83,7.28a1.14,1.14,0,0,1-.37.64,1,1,0,0,1-.68.26H172.65a.38.38,0,0,0-.38.38l-1.5,12.09c0,.25.1.37.3.37h19.52c.55,0,.83.3.83.9l-.9,7.29a1.21,1.21,0,0,1-.34.64.88.88,0,0,1-.64.26H160.25c-.55,0-.82-.3-.82-.9l6.23-50.77A1.09,1.09,0,0,1,166,247a1,1,0,0,1,.67-.27H196a.74.74,0,0,1,.6.27.7.7,0,0,1,.15.63l-.9,7.29a1.21,1.21,0,0,1-.34.64"/><path class="cls-7" d="M228.33,247a.88.88,0,0,1,.64-.26h8.48a.79.79,0,0,1,.61.26.75.75,0,0,1,.14.64L232,298.39a1.21,1.21,0,0,1-.34.64.86.86,0,0,1-.63.26h-8.87a.93.93,0,0,1-1-.68L211,268.05c-.1-.15-.2-.23-.3-.23s-.15.11-.15.3l-3.68,30.27a1.21,1.21,0,0,1-.34.64.88.88,0,0,1-.64.26H197.5c-.55,0-.82-.3-.82-.9l6.23-50.77a1.1,1.1,0,0,1,.38-.64,1,1,0,0,1,.67-.26h8.79a.89.89,0,0,1,.9.68L223.86,278c0,.15.13.23.23.23s.17-.1.22-.3L228,247.62a1.21,1.21,0,0,1,.34-.64"/><path class="cls-7" d="M278.31,247a.72.72,0,0,1,.15.64l-.9,7.36a1.25,1.25,0,0,1-.34.64.86.86,0,0,1-.64.26H265.46a.35.35,0,0,0-.26.12.36.36,0,0,0-.11.26l-5.18,42.13a1.29,1.29,0,0,1-.34.64.9.9,0,0,1-.64.26h-8.48c-.56,0-.83-.3-.83-.9l5.18-42.13c.1-.25,0-.38-.3-.38H243.76a.73.73,0,0,1-.6-.26A.72.72,0,0,1,243,255l.9-7.36a1.21,1.21,0,0,1,.34-.64.9.9,0,0,1,.64-.26h32.82a.76.76,0,0,1,.6.26"/><path class="cls-7" d="M8.34,225.67,3.15,174.83v-.15c0-.55.33-.83,1-.83h8.94a.73.73,0,0,1,.82.83l2,28.83c0,.15.06.23.19.23s.21-.08.26-.23l8.79-28.83a1,1,0,0,1,1.05-.83h8.11a.74.74,0,0,1,.83.83l2.32,28.83c0,.15.07.23.19.23s.21-.08.26-.23l8.79-28.83a1,1,0,0,1,1-.83h8.56c.6,0,.8.33.6,1L40.1,225.59a1,1,0,0,1-1.05.83H30.79a.74.74,0,0,1-.83-.83L27.71,195.4c0-.15-.05-.22-.15-.22s-.18.07-.22.22l-9,30.19a1,1,0,0,1-1.05.83h-8a.9.9,0,0,1-.9-.75"/><path class="cls-7" d="M92,182.67a.85.85,0,0,1-.64.27H71.87c-.2,0-.35.12-.45.37L70,195c0,.25.1.37.3.37H82.46a.74.74,0,0,1,.6.27.7.7,0,0,1,.15.63l-.83,7.29a1.14,1.14,0,0,1-.37.64,1,1,0,0,1-.68.26H69.17a.39.39,0,0,0-.27.11.4.4,0,0,0-.11.26L67.29,217c0,.25.1.37.3.37H87.11c.55,0,.83.3.83.9l-.9,7.29a1.15,1.15,0,0,1-.34.63.87.87,0,0,1-.64.27H56.77c-.55,0-.82-.3-.82-.9l6.23-50.77a1.15,1.15,0,0,1,.38-.64,1,1,0,0,1,.67-.26H92.52a.76.76,0,0,1,.6.26.72.72,0,0,1,.15.64l-.9,7.29a1.15,1.15,0,0,1-.34.63"/><path class="cls-7" d="M122.37,222.66a19.25,19.25,0,0,1-12.05,3.76H94c-.55,0-.83-.3-.83-.9l6.24-50.77a1.14,1.14,0,0,1,.37-.64,1,1,0,0,1,.68-.26h15.17q7,0,10.93,3t3.86,9c0,.45-.05,1.28-.15,2.48-.6,4.95-2.9,8.54-6.91,10.74q-.37.3-.15.45,5,3.3,5,9.91c0,.45-.06,1.23-.15,2.33q-.84,7.22-5.75,11m-6.61-7.17a9.32,9.32,0,0,0,2.37-6.27,5.76,5.76,0,0,0-1.43-4.13,5.32,5.32,0,0,0-4-1.5h-6.09c-.2,0-.35.12-.45.37l-1.58,12.92a.34.34,0,0,0,.38.38H111a6.59,6.59,0,0,0,4.77-1.77m-7.09-32.18-1.43,11.79c0,.25.1.38.3.38h5.56a6.67,6.67,0,0,0,7.05-6.24,5.51,5.51,0,0,0,.08-1.05,5.07,5.07,0,0,0-1.46-3.86,5.82,5.82,0,0,0-4.17-1.39h-5.48a.48.48,0,0,0-.45.37"/><path class="cls-7" d="M194.27,78.71l10.57-10.57a5.59,5.59,0,0,1,7.92,0l72,72s0,.05,0,.06a2.11,2.11,0,0,1,.32.48l.06.13,0,.06,7.93,23.78a1.88,1.88,0,0,1-1.2,2.36,1.91,1.91,0,0,1-1.16,0L267,159s0,0-.06,0l-.13-.06a1.75,1.75,0,0,1-.48-.32l-.06,0-72-72a5.61,5.61,0,0,1,0-7.92m94.11,83.53-5.79-17.36L271,156.46Zm-20.82-7.61,13.21-13.21L222,82.66,216.73,88l35,35a1.87,1.87,0,1,1-2.6,2.69l0-.05-35-35-5.29,5.28ZM196.92,84l9.24,9.25,6.6-6.61L219.37,80l-9.24-9.24a1.88,1.88,0,0,0-2.65,0L196.92,81.34a1.88,1.88,0,0,0,0,2.65Z"/><path class="cls-7" d="M190.07,174.14H298.41a1.87,1.87,0,1,1,0,3.73H190.07a1.87,1.87,0,1,1,0-3.73"/><path class="cls-7" d="M190.07,162.93h56a1.87,1.87,0,0,1,0,3.74h-56a1.87,1.87,0,0,1,0-3.74"/><path class="cls-7" d="M190.07,149.85h48.56a1.87,1.87,0,0,1,0,3.74H190.07a1.87,1.87,0,0,1,0-3.74"/><rect class="cls-2" x="265.39" y="245.72" width="167.53" height="60.96"/></g></g></svg>