<svg xmlns="http://www.w3.org/2000/svg" xmlns:xlink="http://www.w3.org/1999/xlink" viewBox="0 0 433.25 308.43"><defs><style>.cls-1,.cls-10,.cls-7{fill:none;}.cls-2{clip-path:url(#clip-path);}.cls-3{fill:url(#linear-gradient);}.cls-4{opacity:0.65;}.cls-5{clip-path:url(#clip-path-2);}.cls-6{fill:#fff;}.cls-10,.cls-7{stroke:#fff;}.cls-7{stroke-width:1.5px;}.cls-8{opacity:0.5;}.cls-9{clip-path:url(#clip-path-3);}.cls-10{stroke-width:2px;}</style><clipPath id="clip-path"><path class="cls-1" d="M260.07,213.73h0m13.49-187c-.58,1.09-1,2.37-1.55,3.51-1.22,2.61-2.47,3.92-4.28,3.56-5.27-1-10.15,3.29-15.46,4-3.6.5-8,1.39-11.53.38-1.86-.53-2-1.4-3.06-4.42C236,29,233.06,30.46,230.11,32c-1.76.89-3.51,1.77-5,1.33-3.07-.92-5.47-4.39-8.44-1.19-2.07,2.24-3.37,1.81-5.53,1.41-1.31-.23-1-1.47-2.31.54-.28.42-.39,1.48-.67,1.93a5.8,5.8,0,0,1-1.81,2.13c-2.15,1.31-4.78-.55-6.93-1.44s-5.14-.29-7-2.38a13.7,13.7,0,0,1-1.46-3c-1.18-2.43-1.31-3.06-2.31-.89.46-1-.47,1.93-.77,2.52a4.47,4.47,0,0,1-2.2,2.17c-2.14.91-2.89-2.09-4.84-2.73a11.83,11.83,0,0,0-4.38-.3,17,17,0,0,1-3.2,0c-2.37-.35-4.51-4.13-6.9-3.16-2.55,1-4.63,4.94-7.31,5.51a6.94,6.94,0,0,1-3.91-.71,6.65,6.65,0,0,0-3.94-.7c-1.22.29-2.16,1.21-3.38.59-.95-.49-1.69-2.09-2.5-2.4a1.85,1.85,0,0,0-1.18.23,2.18,2.18,0,0,1-1.17.25c-1.08-.26-2-1.78-3.06-2.09a4.06,4.06,0,0,0-2.23.07A2.91,2.91,0,0,1,134.6,29c-1.39-1.22-4.18-3.89-5.82-4.07-1.82-.19-2.78,6.38-4.85,7.6a3.6,3.6,0,0,1-2.12.34,8,8,0,0,0-5.62,2.2,15.12,15.12,0,0,1-13.35,2.85c-2.74-.65-2-2.92-3.7-6.39-1.54-3.08-4-.64-5.94,1l-.06.06-.17.16v0l-.57.47a1.19,1.19,0,0,1-1.13.26c-1.45.18-2.5-.75-3.75-1.6a4.64,4.64,0,0,1-1.71,1.49A16.78,16.78,0,0,1,84.52,39a68.67,68.67,0,0,0-3,8.85c-.84,3.27-.18,5-.63,8.13a15.36,15.36,0,0,1-1.35,3.89A7.85,7.85,0,0,1,79.64,61a7.62,7.62,0,0,1-.35,2.64c.52,4.4,1.74,6.79,3.57,10.14,2,3.67.48,5,.58,10.15.07,3.52,1,6.87,1.14,10.4.16,3,0,5.67.42,8.57a139.28,139.28,0,0,1,1,15.5,6.09,6.09,0,0,1,.17,6.4c.09,4,.38,9.59-.18,12.89s-2,3.17-3.15,5.15c-2.73,4.71.19,12.45.7,18.35.7,8.14-1.24,14.43-1.59,22.27-.19,4.32,1.68,7.62,2.4,11.38.9,4.65.6,9.91,3.31,12.1a3.33,3.33,0,0,0,2.34.53c1.06,0,2.12,0,2.91,1.15,1.31,2,.34,4.44,1.13,6.71,1.28,3.72,5.79-1.94,7.56-2.79a16.65,16.65,0,0,0,6.11-4.29c1-1.11,2.16-2,3.35-1.47,1.65.77,2.37,3.91,3.18,6.77.65-.17,1.3-.19,1.86-.33,1.89-.49,3.78-4,5.76-2.34,1.41,1.21,1.46,4.8,2.95,5.76.62.4,1.5.12,2.34-.15a4.79,4.79,0,0,1,1.51-.34,8.93,8.93,0,0,0,3.55-.55c1-.37,1.89-1,3-.33s1.63,1.72,2.67,1.86a11.15,11.15,0,0,0,2.16,0,12.38,12.38,0,0,1,1.71-.06c1.5.08,2.43-.93,3.83-1.33a3.52,3.52,0,0,1,1.86.06,2.62,2.62,0,0,0,2.76-.56c2-1.82,3-5.32,5.42-4.29a2.67,2.67,0,0,1,1.43,1c.09.16.18.32.26.48,1.44-1.15,3.1-1.25,4.07.9.83.81,1.27,2.24,2.39,3.36,1.95,1.92,5,.67,7,.11a18.54,18.54,0,0,0,8-4.49c2.21-2,4.42-4.62,6.82-5.5a4.1,4.1,0,0,1,3.23.22c.83,0,1.06.44.7,1.22.48-.41,1-.8,1.45-1.16a7.22,7.22,0,0,1,4.32-.07,10.69,10.69,0,0,0,2.94.28c4.84-.44,10.16-3.26,15-2a8.17,8.17,0,0,1,5.57,4c1,1.73,1.27,3.91,2.51,5,.06-.19.14-.43.25-.73,2.29-6.62,6.33-8.53,8.7-1.92,1,2.8.71,5.49,2.84,5.29.89-.08,2-1.31,2.84-1.9,2.89-2,5.84-2.11,8.7-3.86,3.72-2.27,6.31-7.74,9.21-3.6a2,2,0,0,1,1.93-.11c1.22.57,1.72,2,2.11,3.15.24.7.85,3.59.4,1.33a9.33,9.33,0,0,1,.41.88c.06.15.11.3.16.46.47.29.93.53,1.21.42-.59.22,1.5-3.4,1.53-3.44,1.15-1.83,2.28-3.36,3.86-2.84,2,.68,1.81,2.77,2.77,5.84,1.24,3.94,2.95,3.41,4.79,3,1.56-2.71,3.36-2.69,5.31-1.31-.68-.48-.11-.22.45.43,1.24-1.11,2.18-2.87,4-2,.81.38,1.57,1.31,1.52,3.25,0,.49,4.22.12,8.24-.25a51.67,51.67,0,0,1,7-.44c1.83.53,1.67.29,3.11-1.44a20.64,20.64,0,0,1,4.09-3.72c2.26-1.57,3.45-.5,5.12,1.82a2.22,2.22,0,0,1,1.9.08c1.16-1.36,2.27-2.36,3.83-.86s2.39,4,4.18,4.82c2.37,1.12,4.53.32,6.9-.25,2.21-.53,3.9-.21,6.12-1.31,2.84-1.4,5.33-3.75,8.06-5.68,2.39-1.69,5.34-3.62,7.88-2.75a7.15,7.15,0,0,1,3.12,1.52,4.23,4.23,0,0,1,.33.41s0,0,.06-.06c.42-.35.75-1.07,1.18-1.41,1.21-1,4.67-1.83,5.85.6,3.72-.29,7.44-1.58,11.17-1.66s7.43-1.14,11.17-.89a9.64,9.64,0,0,1,7.64,4.1c.92,1.26,2,2.86,2.91,4.34.44-.64,1-1.33,1.15-1.64,2.15-4.74,2.21-13,3.38-18.85a26.56,26.56,0,0,1,2.21-5.9c2.38-5.72,1.46-7.57-.6-12-1.25-2.64-2.34-5.57-.88-8.93.7-1.62,2-1.66,2.69-3.1a37,37,0,0,0,1-8.84,4.68,4.68,0,0,1-.09-.91c-.43-3.92-1.57-6.84-1.82-10.93s-.23-8.15-.87-12.26c-.58-3.8-2.36-8.47-2.3-12.65a12.29,12.29,0,0,1,1.28-5.22,6.39,6.39,0,0,1,0-4.49,16.9,16.9,0,0,1,1.19-2.22c1.1-1.89,1.29-1.32,1.44-3.52.46-6.86-1.95-6.22-2.91-10.93a8.56,8.56,0,0,1,.61-5.37c1.61-3.61,4-2.86,3.9-9.42,0-2.73-.37-5.24-.49-7.89A3.69,3.69,0,0,1,401.93,66a7.65,7.65,0,0,1,.18-2.13c-.17.48-.15,0-.08-.49s.21-1.19.14,0c0,.18,0,.34-.06.5l.06-.18a26.86,26.86,0,0,1,1.1-3.24c-.44-3.77-2.64-7.78-2.89-12.22-.07-1.19.53-5.36.26-6.23-.41-1.33-2.34-.56-3.08-2.08a3.37,3.37,0,0,1-.2-.49c-2.19-2.9-5.27-9.71-7.47-8.36-1.23.75-2.21,2.5-3.53,3a6.64,6.64,0,0,1-4.4.08,5.72,5.72,0,0,1-2-1c-1-.83-.54-1.62-1.1-.93-.72.87-1.06,4.27-1.94,5.51-1.73,2.48-3.67,1.41-5.53.23-2.48-1.59-4.83-.76-7.31-2.29-1.87-1.15-2.11-.5-3.92,0a2.54,2.54,0,0,1-2.65-.9c-1.1-1.18-2.49-6.77-3.83-6.1-.5.26-1.83,5.51-2.62,6.48a3.82,3.82,0,0,1-5.16.86c-1-.07-1.83-.8-2.61-2.61a3.59,3.59,0,0,1-.23-1.08,8.41,8.41,0,0,0-2.6-.2,7,7,0,0,1-1.8-.08c-1.42-.39-2.52-.85-4-.36-1.23.41-2.15,1.12-3.39.73-1.52-.49-2.72-2.53-4.24-3.17-2.68-1.14-4.89,1-7.29,3l-.23.19-.2.18c-.35.33-.67.87-1,1.21a3.09,3.09,0,0,1-2.22.86,23.54,23.54,0,0,1-7.95-1c-1.15-.35-2.14-1.13-3.26-.5s-1.69,2.26-2.95,2.38c-1,.1-1.63-.49-2.53-1.45-1.58-1.67-2.36-2.2-4.13-2.17a6,6,0,0,1-3.46-1.11c-1.2-.8-2-2-3.46-1.18-.38.21-.66,1.1-1.06,1.31-2,1-2.64.94-4.41-1-2.32-2.57-4.43-2.06-6.75-4.4-.65-.66-.93-1.06-1.17-1.06s-.54.65-1.4,2.27"/></clipPath><linearGradient id="linear-gradient" x1="-93.8" y1="748.06" x2="-92.85" y2="748.06" gradientTransform="translate(223519.31 16723.19) rotate(90) scale(177.88 298.48)" gradientUnits="userSpaceOnUse"><stop offset="0" stop-color="#c70810"/><stop offset="1" stop-color="#f8686d"/></linearGradient><clipPath id="clip-path-2"><rect class="cls-1" x="68.58" width="321.03" height="193.41"/></clipPath><clipPath id="clip-path-3"><rect class="cls-1" x="5.72" y="180.26" width="280.59" height="128.12"/></clipPath></defs><title>Asset 12</title><g id="Layer_2" data-name="Layer 2"><g id="Layer_1-2" data-name="Layer 1"><g class="cls-2"><rect class="cls-3" x="79.29" y="24.49" width="324.3" height="194.51"/></g><g class="cls-4"><g class="cls-5"><path class="cls-6" d="M70.25,191.74H387.94V1.67H70.25ZM68.58,0h321V193.41h-321Z"/><ellipse class="cls-7" cx="89.1" cy="18.11" rx="5.84" ry="5.57"/><ellipse class="cls-7" cx="110.66" cy="17.98" rx="5.84" ry="5.57"/><ellipse class="cls-7" cx="132.16" cy="17.83" rx="5.84" ry="5.57"/><rect class="cls-7" x="69.46" y="0.85" width="319.42" height="33.96"/></g></g><g class="cls-8"><g class="cls-9"><path class="cls-10" d="M10.7,303.56a13.35,13.35,0,0,1-4-10.19q0-.75.15-2.55l2.63-20.9a19.3,19.3,0,0,1,3.12-8.6,17,17,0,0,1,6.54-5.75,19.67,19.67,0,0,1,9-2q6.84,0,10.86,3.68a12.81,12.81,0,0,1,4,9.92c0,.51,0,1.31-.15,2.41v.37a1.37,1.37,0,0,1-.34.68.83.83,0,0,1-.64.3l-8.64.38c-.55,0-.8-.28-.75-.83l.15-1a6.25,6.25,0,0,0,.07-1.12,5.7,5.7,0,0,0-1.5-4.17,5.49,5.49,0,0,0-4.13-1.54,6.92,6.92,0,0,0-4.93,1.87,7.94,7.94,0,0,0-2.36,5l-2.71,22a6.45,6.45,0,0,0-.07,1.13,5.3,5.3,0,0,0,5.63,5.64,7,7,0,0,0,4.93-1.84,7.76,7.76,0,0,0,2.36-4.93l.08-1a.85.85,0,0,1,1-.83l8.5.38a.73.73,0,0,1,.6.26.72.72,0,0,1,.15.64v.22a19,19,0,0,1-3.12,8.5,16.92,16.92,0,0,1-6.54,5.67,19.91,19.91,0,0,1-9,2Q14.72,307.35,10.7,303.56Z"/><path class="cls-10" d="M49.86,303.56c-2.69-2.58-4-6.05-4-10.41a16.74,16.74,0,0,1,.15-2.71l2.48-20a20.1,20.1,0,0,1,3.15-8.87,17.43,17.43,0,0,1,6.65-5.93,19.61,19.61,0,0,1,9.13-2.11q7,0,11,3.87t4.06,10.49q0,.75-.15,2.55l-2.48,20a19.85,19.85,0,0,1-3.2,8.95A17.63,17.63,0,0,1,70,305.32a19.84,19.84,0,0,1-9.17,2.11Q53.88,307.43,49.86,303.56ZM67,296.27a9,9,0,0,0,2.55-5.38l2.48-20.74a9.53,9.53,0,0,0,.08-1.43,6.16,6.16,0,0,0-1.58-4.43,5.64,5.64,0,0,0-4.28-1.65,6.89,6.89,0,0,0-5.08,2.06,8.82,8.82,0,0,0-2.44,5.45l-2.55,20.74a8.21,8.21,0,0,0-.08,1.28,6.38,6.38,0,0,0,1.54,4.47,5.45,5.45,0,0,0,4.25,1.69A7.06,7.06,0,0,0,67,296.27Z"/><path class="cls-10" d="M116.52,254.41a.83.83,0,0,1,.63-.27h8.5a.74.74,0,0,1,.6.27.7.7,0,0,1,.15.63l-6.24,50.81a1.21,1.21,0,0,1-.34.64.88.88,0,0,1-.64.26h-8.86a.93.93,0,0,1-1-.68L99.19,275.49c-.1-.15-.2-.23-.3-.23s-.15.1-.15.3l-3.68,30.29a1.21,1.21,0,0,1-.34.64.88.88,0,0,1-.64.26H85.67c-.56,0-.83-.3-.83-.9L91.08,255a1.11,1.11,0,0,1,.37-.63,1,1,0,0,1,.68-.27h8.79a.89.89,0,0,1,.9.68L112,285.41c0,.15.13.22.23.22s.17-.1.23-.3L116.18,255A1.18,1.18,0,0,1,116.52,254.41Z"/><path class="cls-10" d="M166.53,254.41a.7.7,0,0,1,.15.63l-.9,7.37a1.29,1.29,0,0,1-.34.64.9.9,0,0,1-.64.26H153.68a.38.38,0,0,0-.38.38l-5.18,42.16a1.29,1.29,0,0,1-.34.64.9.9,0,0,1-.64.26h-8.49c-.55,0-.83-.3-.83-.9L143,263.69c.1-.25,0-.38-.3-.38H132a.76.76,0,0,1-.6-.26.72.72,0,0,1-.15-.64l.9-7.37a1.18,1.18,0,0,1,.34-.63.84.84,0,0,1,.64-.27h32.84A.74.74,0,0,1,166.53,254.41Z"/><path class="cls-10" d="M202.34,263a.87.87,0,0,1-.64.27H182.16c-.2,0-.35.12-.45.37l-1.43,11.73c0,.25.1.37.3.37h12.18a.74.74,0,0,1,.6.27.7.7,0,0,1,.15.63l-.83,7.29a1.07,1.07,0,0,1-.37.64,1,1,0,0,1-.68.27H179.45a.34.34,0,0,0-.26.11.36.36,0,0,0-.11.26l-1.5,12.1c0,.25.1.38.3.38h19.54c.55,0,.82.3.82.9l-.9,7.29a1.21,1.21,0,0,1-.34.64.88.88,0,0,1-.64.26H167.05c-.55,0-.82-.3-.82-.9L172.47,255a1,1,0,0,1,.37-.63,1,1,0,0,1,.68-.27h29.31a.74.74,0,0,1,.6.27.7.7,0,0,1,.15.63l-.9,7.3A1.22,1.22,0,0,1,202.34,263Z"/><path class="cls-10" d="M235.18,254.41a.85.85,0,0,1,.64-.27h8.49a.74.74,0,0,1,.6.27.7.7,0,0,1,.15.63l-6.24,50.81a1.27,1.27,0,0,1-.33.64.9.9,0,0,1-.64.26H229a.94.94,0,0,1-1-.68l-10.14-30.58c-.1-.15-.2-.23-.3-.23s-.15.1-.15.3l-3.69,30.29a1.27,1.27,0,0,1-.33.64.9.9,0,0,1-.64.26h-8.42c-.55,0-.83-.3-.83-.9L209.74,255a1.13,1.13,0,0,1,.38-.63,1,1,0,0,1,.67-.27h8.8a.89.89,0,0,1,.9.68l10.22,30.59c0,.15.12.22.22.22s.18-.1.23-.3L234.84,255A1.18,1.18,0,0,1,235.18,254.41Z"/><path class="cls-10" d="M285.19,254.41a.7.7,0,0,1,.15.63l-.9,7.37a1.21,1.21,0,0,1-.34.64.88.88,0,0,1-.63.26H272.34a.38.38,0,0,0-.37.38l-5.19,42.16a1.21,1.21,0,0,1-.34.64.88.88,0,0,1-.64.26h-8.49c-.55,0-.83-.3-.83-.9l5.19-42.16c.1-.25,0-.38-.3-.38H250.62a.76.76,0,0,1-.6-.26.72.72,0,0,1-.15-.64l.9-7.37a1.18,1.18,0,0,1,.34-.63.87.87,0,0,1,.64-.27h32.84A.74.74,0,0,1,285.19,254.41Z"/><path class="cls-10" d="M15,233.07,9.84,182.19V182c0-.55.32-.82,1-.82h9a.72.72,0,0,1,.82.82l2,28.86c0,.15.07.23.19.23s.21-.08.26-.23L31.86,182a1,1,0,0,1,1-.82H41a.72.72,0,0,1,.82.82l2.33,28.86c0,.15.06.23.19.23s.21-.08.26-.23L53.43,182a1,1,0,0,1,1-.82h8.57c.6,0,.8.32.6,1L46.81,233a1,1,0,0,1-1.05.82H37.49a.72.72,0,0,1-.82-.82l-2.26-30.21c0-.15,0-.23-.15-.23s-.17.08-.22.23L25,233a1,1,0,0,1-1.05.82h-8A.9.9,0,0,1,15,233.07Z"/><path class="cls-10" d="M98.78,190.05a.9.9,0,0,1-.64.26H78.6c-.2,0-.35.13-.45.38l-1.43,11.72c0,.25.1.38.3.38H89.2a.73.73,0,0,1,.6.26.72.72,0,0,1,.15.64L89.12,211a1.14,1.14,0,0,1-.37.64,1,1,0,0,1-.68.26H75.9a.4.4,0,0,0-.27.11.38.38,0,0,0-.11.26L74,224.35c0,.26.1.38.3.38H93.86c.55,0,.83.3.83.9l-.91,7.29a1.18,1.18,0,0,1-.34.64.82.82,0,0,1-.63.26H63.5c-.56,0-.83-.3-.83-.9l6.24-50.8a1.14,1.14,0,0,1,.37-.64,1,1,0,0,1,.68-.26H99.27a.76.76,0,0,1,.6.26.72.72,0,0,1,.15.64l-.9,7.29A1.21,1.21,0,0,1,98.78,190.05Z"/><path class="cls-10" d="M129.14,230.07a19.31,19.31,0,0,1-12.06,3.75H100.77c-.55,0-.83-.3-.83-.9l6.24-50.8a1.15,1.15,0,0,1,.38-.64,1,1,0,0,1,.67-.26h15.19q7,0,10.93,3t3.87,9c0,.45-.05,1.27-.15,2.48q-.9,7.44-6.91,10.74c-.26.2-.3.35-.15.45q5,3.32,5,9.92c0,.46,0,1.23-.15,2.33Q134.07,226.31,129.14,230.07Zm-6.61-7.18a8.24,8.24,0,0,0,2.29-5,8.12,8.12,0,0,0,.08-1.28,5.76,5.76,0,0,0-1.43-4.13,5.34,5.34,0,0,0-4.06-1.5h-6.09c-.2,0-.35.12-.45.37l-1.58,12.93a.34.34,0,0,0,.38.38h6.09A6.61,6.61,0,0,0,122.53,222.89Zm-7.1-32.2L114,202.48c0,.26.1.38.3.38h5.56a6.67,6.67,0,0,0,7.06-6.24,5.58,5.58,0,0,0,.08-1.05,5.08,5.08,0,0,0-1.47-3.87,5.79,5.79,0,0,0-4.17-1.39h-5.48C115.68,190.31,115.53,190.44,115.43,190.69Z"/></g></g><path class="cls-6" d="M4,296.32a13.35,13.35,0,0,1-4-10.18c0-.51.05-1.36.15-2.56l2.63-20.89a19.29,19.29,0,0,1,3.12-8.61,17.12,17.12,0,0,1,6.54-5.75,19.67,19.67,0,0,1,9-2q6.84,0,10.86,3.69a12.78,12.78,0,0,1,4,9.92q0,.75-.15,2.4v.38a1.38,1.38,0,0,1-.34.67.83.83,0,0,1-.64.3l-8.64.38c-.55,0-.8-.28-.75-.83l.15-1a6.38,6.38,0,0,0,.07-1.13,5.72,5.72,0,0,0-1.5-4.17,5.49,5.49,0,0,0-4.13-1.54,6.88,6.88,0,0,0-4.93,1.88,7.89,7.89,0,0,0-2.36,5l-2.71,22a6.25,6.25,0,0,0-.07,1.12A5.3,5.3,0,0,0,15.93,291a7,7,0,0,0,4.93-1.84,7.76,7.76,0,0,0,2.36-4.92l.08-1a.85.85,0,0,1,1-.83l8.5.38a.76.76,0,0,1,.6.26.72.72,0,0,1,.15.64V284a19,19,0,0,1-3.12,8.49,16.83,16.83,0,0,1-6.54,5.67,19.91,19.91,0,0,1-9,2Q8,300.11,4,296.32"/><path class="cls-6" d="M43.18,296.32q-4-3.87-4-10.41a18.08,18.08,0,0,1,.15-2.71l2.49-20a20,20,0,0,1,3.15-8.86,17.37,17.37,0,0,1,6.65-5.94,19.74,19.74,0,0,1,9.13-2.11q7,0,11,3.87t4.06,10.49q0,.75-.15,2.55l-2.48,20a19.85,19.85,0,0,1-3.2,8.95,17.63,17.63,0,0,1-6.72,5.93,19.84,19.84,0,0,1-9.17,2.11q-6.91,0-10.93-3.87M60.35,289a9,9,0,0,0,2.55-5.37l2.48-20.75a9.38,9.38,0,0,0,.08-1.42,6.17,6.17,0,0,0-1.58-4.44,5.64,5.64,0,0,0-4.28-1.65,6.93,6.93,0,0,0-5.08,2.06,8.82,8.82,0,0,0-2.44,5.45l-2.55,20.75a8.07,8.07,0,0,0-.08,1.27A6.34,6.34,0,0,0,51,289.4a5.46,5.46,0,0,0,4.25,1.7A7,7,0,0,0,60.35,289"/><path class="cls-6" d="M109.84,247.17a.82.82,0,0,1,.63-.26H119a.73.73,0,0,1,.6.26.72.72,0,0,1,.15.64l-6.24,50.8a1.21,1.21,0,0,1-.34.64.84.84,0,0,1-.64.26h-8.86a.92.92,0,0,1-1-.67L92.51,268.25c-.1-.15-.2-.23-.3-.23s-.15.1-.15.3l-3.68,30.29a1.21,1.21,0,0,1-.34.64.84.84,0,0,1-.64.26H79c-.56,0-.83-.3-.83-.9l6.24-50.8a1.1,1.1,0,0,1,.37-.64,1,1,0,0,1,.68-.26h8.79a.88.88,0,0,1,.9.67l10.22,30.59c0,.15.13.22.23.22s.17-.1.22-.3l3.69-30.28a1.18,1.18,0,0,1,.34-.64"/><path class="cls-6" d="M159.85,247.17a.72.72,0,0,1,.15.64l-.9,7.36a1.25,1.25,0,0,1-.34.64.86.86,0,0,1-.64.26H147a.37.37,0,0,0-.27.12.36.36,0,0,0-.11.26l-5.18,42.16a1.29,1.29,0,0,1-.34.64.86.86,0,0,1-.64.26H132c-.55,0-.83-.3-.83-.9l5.19-42.16c.1-.25,0-.38-.3-.38H125.28a.73.73,0,0,1-.6-.26.72.72,0,0,1-.15-.64l.9-7.36a1.18,1.18,0,0,1,.34-.64.83.83,0,0,1,.64-.26h32.84a.73.73,0,0,1,.6.26"/><path class="cls-6" d="M195.66,255.74a.9.9,0,0,1-.64.26H175.48c-.2,0-.35.12-.45.37L173.6,268.1c0,.25.1.37.3.37h12.18a.74.74,0,0,1,.6.27.72.72,0,0,1,.15.64l-.83,7.29a1.13,1.13,0,0,1-.37.63,1,1,0,0,1-.68.27H172.77a.38.38,0,0,0-.37.37L170.9,290c0,.25.09.38.3.38h19.54c.55,0,.82.3.82.9l-.9,7.29a1.21,1.21,0,0,1-.34.64.84.84,0,0,1-.64.26H160.37c-.55,0-.82-.3-.82-.9l6.24-50.8a1.05,1.05,0,0,1,.37-.64,1,1,0,0,1,.68-.27h29.31a.74.74,0,0,1,.6.27.72.72,0,0,1,.15.64l-.9,7.29a1.29,1.29,0,0,1-.34.64"/><path class="cls-6" d="M228.5,247.17a.84.84,0,0,1,.64-.26h8.49a.73.73,0,0,1,.6.26.72.72,0,0,1,.15.64l-6.24,50.8a1.27,1.27,0,0,1-.33.64.86.86,0,0,1-.64.26H222.3a.93.93,0,0,1-1-.67l-10.14-30.59c-.1-.15-.2-.23-.3-.23s-.15.1-.15.3L207,298.61a1.27,1.27,0,0,1-.33.64.86.86,0,0,1-.64.26h-8.42c-.55,0-.83-.3-.83-.9l6.24-50.8a1.12,1.12,0,0,1,.38-.64,1,1,0,0,1,.67-.26h8.8a.88.88,0,0,1,.9.67L224,278.17c.05.15.12.22.22.22s.18-.1.23-.3l3.68-30.28a1.18,1.18,0,0,1,.34-.64"/><path class="cls-6" d="M278.51,247.17a.72.72,0,0,1,.15.64l-.9,7.36a1.18,1.18,0,0,1-.34.64.84.84,0,0,1-.64.26H265.66a.34.34,0,0,0-.26.12.33.33,0,0,0-.11.26l-5.19,42.16a1.21,1.21,0,0,1-.34.64.84.84,0,0,1-.64.26h-8.49c-.55,0-.83-.3-.83-.9L255,256.45c.1-.25,0-.38-.3-.38H243.94a.73.73,0,0,1-.6-.26.72.72,0,0,1-.15-.64l.9-7.36a1.18,1.18,0,0,1,.34-.64.86.86,0,0,1,.64-.26h32.84a.73.73,0,0,1,.6.26"/><path class="cls-6" d="M8.34,225.83,3.16,175v-.15c0-.55.32-.83,1-.83h9a.73.73,0,0,1,.82.83l2,28.86c0,.15.07.22.19.22s.21-.07.26-.22l8.8-28.86a1,1,0,0,1,1.05-.83h8.12a.73.73,0,0,1,.82.83l2.33,28.86c0,.15.06.22.19.22a.27.27,0,0,0,.26-.22l8.8-28.86a1,1,0,0,1,1-.83h8.57c.6,0,.8.33.6,1l-16.84,50.8a1,1,0,0,1-1.05.83H30.81a.73.73,0,0,1-.82-.83l-2.26-30.21c0-.15-.05-.23-.15-.23s-.18.08-.22.23l-9,30.21a1,1,0,0,1-1.05.83h-8a.9.9,0,0,1-.9-.76"/><path class="cls-6" d="M92.1,182.81a.86.86,0,0,1-.64.26H71.92c-.2,0-.35.13-.45.38L70,195.17c0,.25.1.38.3.38H82.52a.76.76,0,0,1,.6.26.72.72,0,0,1,.15.64l-.83,7.29a1.14,1.14,0,0,1-.37.64,1,1,0,0,1-.68.26H69.22a.38.38,0,0,0-.38.38l-1.5,12.1c0,.25.1.37.3.37H87.18c.55,0,.82.3.82.9l-.9,7.29a1.14,1.14,0,0,1-.34.64.83.83,0,0,1-.63.27H56.82c-.56,0-.83-.3-.83-.91l6.24-50.8a1.14,1.14,0,0,1,.37-.64,1,1,0,0,1,.68-.26H92.59a.76.76,0,0,1,.6.26.72.72,0,0,1,.15.64l-.9,7.29a1.21,1.21,0,0,1-.34.64"/><path class="cls-6" d="M122.46,222.83a19.32,19.32,0,0,1-12.06,3.76H94.09c-.55,0-.83-.3-.83-.9l6.24-50.81a1.15,1.15,0,0,1,.38-.64,1,1,0,0,1,.67-.26h15.18q7.06,0,10.94,3t3.87,9c0,.45,0,1.28-.15,2.48q-.9,7.44-6.91,10.75c-.26.2-.3.35-.15.45q5,3.3,5,9.92c0,.45-.05,1.22-.15,2.33q-.83,7.21-5.75,11m-6.61-7.18a8.24,8.24,0,0,0,2.29-5,8.07,8.07,0,0,0,.08-1.27,5.79,5.79,0,0,0-1.43-4.14,5.34,5.34,0,0,0-4.06-1.5h-6.09c-.2,0-.35.13-.45.38L104.61,217a.34.34,0,0,0,.38.38h6.09a6.61,6.61,0,0,0,4.77-1.77m-7.1-32.2-1.43,11.8c0,.25.1.37.3.37h5.56a6.67,6.67,0,0,0,7.06-6.24,5.51,5.51,0,0,0,.08-1,5.08,5.08,0,0,0-1.47-3.87,5.83,5.83,0,0,0-4.17-1.39H109.2c-.2,0-.35.13-.45.38"/><path class="cls-6" d="M189.77,76,200.71,65.1a5.8,5.8,0,0,1,8.21,0l74.52,74.52s0,0,0,.06a1.89,1.89,0,0,1,.33.5l.06.13,0,.06L292.11,165a1.93,1.93,0,0,1-1.24,2.44,1.89,1.89,0,0,1-1.2,0l-24.62-8.2s0,0-.06,0l-.13-.07a1.81,1.81,0,0,1-.5-.33l-.06,0L189.77,84.24a5.81,5.81,0,0,1,0-8.2m97.45,86.5-6-18-12,12Zm-21.56-7.88L279.33,141,218.49,80.14,213,85.61l36.23,36.23a1.93,1.93,0,0,1-2.69,2.78l-.05-.05L210.29,88.35l-5.47,5.47ZM192.51,81.51l9.57,9.58,6.83-6.84,6.85-6.84-9.57-9.58a2,2,0,0,0-2.74,0L192.51,78.77a1.93,1.93,0,0,0,0,2.74Z"/><path class="cls-6" d="M185.42,174.86H297.6a1.94,1.94,0,0,1,0,3.87H185.42a1.94,1.94,0,1,1,0-3.87"/><path class="cls-6" d="M185.42,163.25h58a1.94,1.94,0,1,1,0,3.87h-58a1.94,1.94,0,1,1,0-3.87"/><path class="cls-6" d="M185.42,149.71h50.29a1.94,1.94,0,0,1,0,3.87H185.42a1.94,1.94,0,1,1,0-3.87"/><rect class="cls-1" x="265.59" y="245.91" width="167.66" height="61.01"/></g></g></svg>