<svg xmlns="http://www.w3.org/2000/svg" xmlns:xlink="http://www.w3.org/1999/xlink" viewBox="0 0 435.53 307.67"><defs><style>.cls-1{fill:url(#linear-gradient);}.cls-11,.cls-2,.cls-8{fill:none;}.cls-3{clip-path:url(#clip-path);}.cls-4{fill:url(#linear-gradient-3);}.cls-5{opacity:0.65;}.cls-6{clip-path:url(#clip-path-2);}.cls-7{fill:#fff;}.cls-11,.cls-8{stroke:#fff;}.cls-8{stroke-width:1.5px;}.cls-9{opacity:0.5;}.cls-10{clip-path:url(#clip-path-3);}.cls-11{stroke-width:2px;}</style><linearGradient id="linear-gradient" x1="243.83" y1="24.13" x2="243.83" y2="217.39" gradientUnits="userSpaceOnUse"><stop offset="0.01" stop-color="#e8b72e"/><stop offset="1" stop-color="#e8b72e" stop-opacity="0.1"/></linearGradient><clipPath id="clip-path" transform="translate(0 -0.59)"><path class="cls-1" d="M262.51,213.42h0M276,26.4c-.58,1.1-1,2.38-1.55,3.51-1.22,2.62-2.48,3.92-4.28,3.57-5.28-1-10.16,3.28-15.47,4-3.6.5-7.95,1.39-11.53.37-1.86-.53-2-1.4-3.06-4.41-1.67-4.86-4.62-3.36-7.58-1.87-1.75.88-3.5,1.77-5,1.32-3.07-.91-5.48-4.39-8.45-1.18-2.07,2.23-3.36,1.8-5.53,1.41-1.31-.24-1-1.47-2.31.54-.27.41-.39,1.47-.67,1.93a5.8,5.8,0,0,1-1.81,2.13c-2.15,1.3-4.79-.56-6.94-1.44s-5.14-.3-7-2.38a14,14,0,0,1-1.45-3c-1.19-2.43-1.31-3.06-2.31-.89.45-1-.48,1.94-.77,2.53a4.47,4.47,0,0,1-2.2,2.17c-2.15.9-2.9-2.09-4.84-2.74a11.86,11.86,0,0,0-4.38-.3,16.33,16.33,0,0,1-3.21,0c-2.37-.34-4.51-4.13-6.9-3.16-2.55,1-4.63,4.95-7.31,5.52a6.93,6.93,0,0,1-3.91-.72,6.74,6.74,0,0,0-3.94-.69c-1.23.29-2.17,1.2-3.39.58-.95-.48-1.69-2.08-2.5-2.39a1.74,1.74,0,0,0-1.18.23,2.15,2.15,0,0,1-1.17.24c-1.08-.25-2-1.78-3.06-2.09a4.06,4.06,0,0,0-2.23.07,2.9,2.9,0,0,1-3.11-.61c-1.39-1.23-4.18-3.9-5.82-4.08-1.82-.19-2.78,6.39-4.85,7.61a3.63,3.63,0,0,1-2.13.33,8,8,0,0,0-5.61,2.2,15.12,15.12,0,0,1-13.36,2.86c-2.74-.66-2-2.92-3.7-6.39-1.54-3.08-4-.65-5.94,1,0,0,0,0-.06.06l-.18.16v0l-.57.47a1.23,1.23,0,0,1-1.13.26c-1.46.18-2.5-.76-3.76-1.61A4.52,4.52,0,0,1,88.19,33a17.08,17.08,0,0,1-1.28,5.63,66.73,66.73,0,0,0-3,8.85c-.83,3.27-.18,5-.63,8.13a15.06,15.06,0,0,1-1.35,3.9A6.35,6.35,0,0,1,82,60.6a8.09,8.09,0,0,1-.35,2.64c.52,4.41,1.74,6.8,3.57,10.15,2,3.67.48,5,.57,10.15.07,3.52,1,6.88,1.15,10.4.16,3,0,5.67.41,8.57a137.25,137.25,0,0,1,1,15.51,6.07,6.07,0,0,1,.18,6.4c.09,4,.37,9.59-.18,12.89s-2,3.17-3.15,5.15c-2.74,4.72.19,12.46.69,18.36.7,8.14-1.23,14.43-1.58,22.28-.19,4.32,1.67,7.62,2.4,11.38.89,4.65.6,9.92,3.31,12.11a3.32,3.32,0,0,0,2.34.52c1.06,0,2.12,0,2.91,1.15,1.31,2,.34,4.44,1.13,6.72,1.28,3.71,5.79-1.95,7.56-2.79a16.49,16.49,0,0,0,6.11-4.3c1-1.11,2.16-2,3.36-1.47,1.64.77,2.36,3.91,3.18,6.78.65-.17,1.3-.19,1.85-.34,1.9-.48,3.79-4.05,5.77-2.34,1.4,1.21,1.45,4.8,3,5.77.61.39,1.5.12,2.34-.15a5.14,5.14,0,0,1,1.51-.35,8.59,8.59,0,0,0,3.55-.55c1-.36,1.89-1,3-.33s1.63,1.73,2.67,1.87a11.06,11.06,0,0,0,2.15,0,14.46,14.46,0,0,1,1.73,0c1.49.07,2.43-.93,3.82-1.34a3.57,3.57,0,0,1,1.87.06,2.56,2.56,0,0,0,2.75-.56c2-1.82,3-5.32,5.43-4.29a2.77,2.77,0,0,1,1.43,1,4.52,4.52,0,0,1,.25.49c1.45-1.15,3.11-1.26,4.08.9.83.81,1.27,2.24,2.39,3.35,1.95,1.93,5,.67,7,.11a18.57,18.57,0,0,0,8-4.48c2.21-2,4.43-4.63,6.82-5.5a4.08,4.08,0,0,1,3.24.21c.82,0,1.06.44.7,1.22.48-.41,1-.8,1.44-1.16a7.25,7.25,0,0,1,4.33-.06,11.49,11.49,0,0,0,2.93.28c4.85-.45,10.17-3.27,15-2a8.15,8.15,0,0,1,5.56,4c1,1.73,1.27,3.91,2.51,5,.07-.19.15-.42.25-.72,2.29-6.63,6.34-8.54,8.71-1.93,1,2.81.71,5.49,2.84,5.3.89-.08,2-1.31,2.84-1.91,2.89-2,5.84-2.11,8.7-3.86,3.72-2.27,6.32-7.74,9.21-3.6a2.05,2.05,0,0,1,1.94-.11c1.22.57,1.72,2,2.1,3.15.25.7.86,3.59.4,1.33,0,0,.32.66.42.89a3.39,3.39,0,0,1,.15.45c.48.3.94.53,1.22.42-.6.22,1.5-3.4,1.52-3.43,1.16-1.84,2.29-3.37,3.86-2.84,2,.67,1.82,2.76,2.78,5.84,1.24,3.93,2.95,3.41,4.79,3,1.55-2.71,3.36-2.69,5.31-1.3-.68-.49-.11-.23.45.43,1.24-1.11,2.18-2.88,4-2,.81.38,1.57,1.3,1.53,3.25,0,.49,4.21.12,8.23-.25a50.09,50.09,0,0,1,7-.44c1.84.52,1.67.29,3.11-1.44a20.7,20.7,0,0,1,4.1-3.72c2.26-1.57,3.45-.5,5.11,1.82a2.24,2.24,0,0,1,1.91.08c1.16-1.37,2.27-2.37,3.83-.87s2.39,4,4.18,4.83c2.38,1.11,4.53.32,6.9-.25,2.21-.53,3.91-.22,6.13-1.31,2.84-1.4,5.33-3.76,8.06-5.69,2.39-1.69,5.34-3.62,7.88-2.75a7.26,7.26,0,0,1,3.12,1.52,4.23,4.23,0,0,1,.33.41l.06-.06c.42-.34.75-1.07,1.18-1.41,1.21-1,4.67-1.82,5.85.6,3.72-.29,7.45-1.58,11.18-1.66s7.43-1.14,11.17-.89a9.65,9.65,0,0,1,7.64,4.11c.92,1.25,2,2.85,2.91,4.33.44-.64,1-1.32,1.15-1.63,2.16-4.74,2.21-13,3.39-18.86a25.87,25.87,0,0,1,2.21-5.91c2.37-5.71,1.45-7.57-.61-11.95-1.24-2.64-2.33-5.58-.88-8.94.7-1.62,2-1.66,2.69-3.1a37.55,37.55,0,0,0,1-8.84,5.63,5.63,0,0,1-.1-.92c-.42-3.92-1.56-6.83-1.82-10.93s-.23-8.15-.86-12.26c-.59-3.8-2.37-8.47-2.31-12.65a12.52,12.52,0,0,1,1.28-5.23,6.41,6.41,0,0,1,0-4.48,16.29,16.29,0,0,1,1.19-2.22c1.1-1.9,1.3-1.32,1.44-3.52.47-6.87-1.95-6.22-2.9-10.94a8.56,8.56,0,0,1,.6-5.37c1.62-3.61,4-2.86,3.91-9.43,0-2.72-.37-5.24-.49-7.89a3.67,3.67,0,0,1-1.08-2.62,7.65,7.65,0,0,1,.18-2.13c-.16.48-.14,0-.08-.49s.21-1.18.14,0c0,.18,0,.34-.06.5a1.25,1.25,0,0,0,.06-.18,27.91,27.91,0,0,1,1.1-3.23c-.43-3.78-2.63-7.79-2.89-12.23-.07-1.19.54-5.36.26-6.24-.41-1.32-2.34-.55-3.08-2.08-.07-.16-.14-.32-.2-.48-2.19-2.9-5.27-9.72-7.47-8.37-1.22.76-2.21,2.51-3.53,3a6.58,6.58,0,0,1-4.4.08,5.87,5.87,0,0,1-2-1c-1-.84-.54-1.63-1.1-.94-.72.88-1.06,4.28-1.94,5.52-1.74,2.48-3.67,1.4-5.53.22-2.49-1.58-4.83-.76-7.32-2.28-1.87-1.16-2.11-.51-3.92,0a2.53,2.53,0,0,1-2.65-.9c-1.1-1.18-2.49-6.77-3.83-6.09-.5.25-1.83,5.51-2.62,6.48a3.82,3.82,0,0,1-5.17.85c-1-.07-1.82-.79-2.6-2.6a3.37,3.37,0,0,1-.23-1.09,8.45,8.45,0,0,0-2.6-.19,7,7,0,0,1-1.8-.08c-1.43-.4-2.52-.85-4-.36-1.23.41-2.16,1.12-3.4.72-1.51-.48-2.71-2.52-4.24-3.17-2.67-1.13-4.89,1-7.29,3l-.23.18-.2.18c-.35.33-.67.87-1,1.21a3.05,3.05,0,0,1-2.22.87,24,24,0,0,1-8-1c-1.15-.36-2.14-1.14-3.27-.5s-1.68,2.26-2.95,2.38c-1,.1-1.63-.5-2.53-1.45-1.57-1.67-2.36-2.21-4.13-2.17a5.85,5.85,0,0,1-3.45-1.12c-1.21-.8-2-2-3.47-1.18-.38.22-.66,1.1-1.06,1.31-2,1.05-2.64.95-4.41-1-2.32-2.58-4.43-2.07-6.75-4.41-.65-.66-.93-1.06-1.17-1.06s-.55.66-1.4,2.27"/></clipPath><linearGradient id="linear-gradient-3" x1="243.65" y1="23.52" x2="243.65" y2="218.08" gradientUnits="userSpaceOnUse"><stop offset="0" stop-color="#e29127"/><stop offset="1" stop-color="#e29127" stop-opacity="0.1"/></linearGradient><clipPath id="clip-path-2" transform="translate(0 -0.59)"><rect class="cls-2" x="70.8" width="321.15" height="193.57"/></clipPath><clipPath id="clip-path-3" transform="translate(0 -0.59)"><rect class="cls-2" x="5.71" y="180.45" width="215.34" height="127.77"/></clipPath></defs><title>Asset 18</title><g id="Layer_2" data-name="Layer 2"><g id="Layer_1-2" data-name="Layer 1"><path class="cls-1" d="M262.51,213.42h0M276,26.4c-.58,1.1-1,2.38-1.55,3.51-1.22,2.62-2.48,3.92-4.28,3.57-5.28-1-10.16,3.28-15.47,4-3.6.5-7.95,1.39-11.53.37-1.86-.53-2-1.4-3.06-4.41-1.67-4.86-4.62-3.36-7.58-1.87-1.75.88-3.5,1.77-5,1.32-3.07-.91-5.48-4.39-8.45-1.18-2.07,2.23-3.36,1.8-5.53,1.41-1.31-.24-1-1.47-2.31.54-.27.41-.39,1.47-.67,1.93a5.8,5.8,0,0,1-1.81,2.13c-2.15,1.3-4.79-.56-6.94-1.44s-5.14-.3-7-2.38a14,14,0,0,1-1.45-3c-1.19-2.43-1.31-3.06-2.31-.89.45-1-.48,1.94-.77,2.53a4.47,4.47,0,0,1-2.2,2.17c-2.15.9-2.9-2.09-4.84-2.74a11.86,11.86,0,0,0-4.38-.3,16.33,16.33,0,0,1-3.21,0c-2.37-.34-4.51-4.13-6.9-3.16-2.55,1-4.63,4.95-7.31,5.52a6.93,6.93,0,0,1-3.91-.72,6.74,6.74,0,0,0-3.94-.69c-1.23.29-2.17,1.2-3.39.58-.95-.48-1.69-2.08-2.5-2.39a1.74,1.74,0,0,0-1.18.23,2.15,2.15,0,0,1-1.17.24c-1.08-.25-2-1.78-3.06-2.09a4.06,4.06,0,0,0-2.23.07,2.9,2.9,0,0,1-3.11-.61c-1.39-1.23-4.18-3.9-5.82-4.08-1.82-.19-2.78,6.39-4.85,7.61a3.63,3.63,0,0,1-2.13.33,8,8,0,0,0-5.61,2.2,15.12,15.12,0,0,1-13.36,2.86c-2.74-.66-2-2.92-3.7-6.39-1.54-3.08-4-.65-5.94,1,0,0,0,0-.06.06l-.18.16v0l-.57.47a1.23,1.23,0,0,1-1.13.26c-1.46.18-2.5-.76-3.76-1.61A4.52,4.52,0,0,1,88.19,33a17.08,17.08,0,0,1-1.28,5.63,66.73,66.73,0,0,0-3,8.85c-.83,3.27-.18,5-.63,8.13a15.06,15.06,0,0,1-1.35,3.9A6.35,6.35,0,0,1,82,60.6a8.09,8.09,0,0,1-.35,2.64c.52,4.41,1.74,6.8,3.57,10.15,2,3.67.48,5,.57,10.15.07,3.52,1,6.88,1.15,10.4.16,3,0,5.67.41,8.57a137.25,137.25,0,0,1,1,15.51,6.07,6.07,0,0,1,.18,6.4c.09,4,.37,9.59-.18,12.89s-2,3.17-3.15,5.15c-2.74,4.72.19,12.46.69,18.36.7,8.14-1.23,14.43-1.58,22.28-.19,4.32,1.67,7.62,2.4,11.38.89,4.65.6,9.92,3.31,12.11a3.32,3.32,0,0,0,2.34.52c1.06,0,2.12,0,2.91,1.15,1.31,2,.34,4.44,1.13,6.72,1.28,3.71,5.79-1.95,7.56-2.79a16.49,16.49,0,0,0,6.11-4.3c1-1.11,2.16-2,3.36-1.47,1.64.77,2.36,3.91,3.18,6.78.65-.17,1.3-.19,1.85-.34,1.9-.48,3.79-4.05,5.77-2.34,1.4,1.21,1.45,4.8,3,5.77.61.39,1.5.12,2.34-.15a5.14,5.14,0,0,1,1.51-.35,8.59,8.59,0,0,0,3.55-.55c1-.36,1.89-1,3-.33s1.63,1.73,2.67,1.87a11.06,11.06,0,0,0,2.15,0,14.46,14.46,0,0,1,1.73,0c1.49.07,2.43-.93,3.82-1.34a3.57,3.57,0,0,1,1.87.06,2.56,2.56,0,0,0,2.75-.56c2-1.82,3-5.32,5.43-4.29a2.77,2.77,0,0,1,1.43,1,4.52,4.52,0,0,1,.25.49c1.45-1.15,3.11-1.26,4.08.9.83.81,1.27,2.24,2.39,3.35,1.95,1.93,5,.67,7,.11a18.57,18.57,0,0,0,8-4.48c2.21-2,4.43-4.63,6.82-5.5a4.08,4.08,0,0,1,3.24.21c.82,0,1.06.44.7,1.22.48-.41,1-.8,1.44-1.16a7.25,7.25,0,0,1,4.33-.06,11.49,11.49,0,0,0,2.93.28c4.85-.45,10.17-3.27,15-2a8.15,8.15,0,0,1,5.56,4c1,1.73,1.27,3.91,2.51,5,.07-.19.15-.42.25-.72,2.29-6.63,6.34-8.54,8.71-1.93,1,2.81.71,5.49,2.84,5.3.89-.08,2-1.31,2.84-1.91,2.89-2,5.84-2.11,8.7-3.86,3.72-2.27,6.32-7.74,9.21-3.6a2.05,2.05,0,0,1,1.94-.11c1.22.57,1.72,2,2.1,3.15.25.7.86,3.59.4,1.33,0,0,.32.66.42.89a3.39,3.39,0,0,1,.15.45c.48.3.94.53,1.22.42-.6.22,1.5-3.4,1.52-3.43,1.16-1.84,2.29-3.37,3.86-2.84,2,.67,1.82,2.76,2.78,5.84,1.24,3.93,2.95,3.41,4.79,3,1.55-2.71,3.36-2.69,5.31-1.3-.68-.49-.11-.23.45.43,1.24-1.11,2.18-2.88,4-2,.81.38,1.57,1.3,1.53,3.25,0,.49,4.21.12,8.23-.25a50.09,50.09,0,0,1,7-.44c1.84.52,1.67.29,3.11-1.44a20.7,20.7,0,0,1,4.1-3.72c2.26-1.57,3.45-.5,5.11,1.82a2.24,2.24,0,0,1,1.91.08c1.16-1.37,2.27-2.37,3.83-.87s2.39,4,4.18,4.83c2.38,1.11,4.53.32,6.9-.25,2.21-.53,3.91-.22,6.13-1.31,2.84-1.4,5.33-3.76,8.06-5.69,2.39-1.69,5.34-3.62,7.88-2.75a7.26,7.26,0,0,1,3.12,1.52,4.23,4.23,0,0,1,.33.41l.06-.06c.42-.34.75-1.07,1.18-1.41,1.21-1,4.67-1.82,5.85.6,3.72-.29,7.45-1.58,11.18-1.66s7.43-1.14,11.17-.89a9.65,9.65,0,0,1,7.64,4.11c.92,1.25,2,2.85,2.91,4.33.44-.64,1-1.32,1.15-1.63,2.16-4.74,2.21-13,3.39-18.86a25.87,25.87,0,0,1,2.21-5.91c2.37-5.71,1.45-7.57-.61-11.95-1.24-2.64-2.33-5.58-.88-8.94.7-1.62,2-1.66,2.69-3.1a37.55,37.55,0,0,0,1-8.84,5.63,5.63,0,0,1-.1-.92c-.42-3.92-1.56-6.83-1.82-10.93s-.23-8.15-.86-12.26c-.59-3.8-2.37-8.47-2.31-12.65a12.52,12.52,0,0,1,1.28-5.23,6.41,6.41,0,0,1,0-4.48,16.29,16.29,0,0,1,1.19-2.22c1.1-1.9,1.3-1.32,1.44-3.52.47-6.87-1.95-6.22-2.9-10.94a8.56,8.56,0,0,1,.6-5.37c1.62-3.61,4-2.86,3.91-9.43,0-2.72-.37-5.24-.49-7.89a3.67,3.67,0,0,1-1.08-2.62,7.65,7.65,0,0,1,.18-2.13c-.16.48-.14,0-.08-.49s.21-1.18.14,0c0,.18,0,.34-.06.5a1.25,1.25,0,0,0,.06-.18,27.91,27.91,0,0,1,1.1-3.23c-.43-3.78-2.63-7.79-2.89-12.23-.07-1.19.54-5.36.26-6.24-.41-1.32-2.34-.55-3.08-2.08-.07-.16-.14-.32-.2-.48-2.19-2.9-5.27-9.72-7.47-8.37-1.22.76-2.21,2.51-3.53,3a6.58,6.58,0,0,1-4.4.08,5.87,5.87,0,0,1-2-1c-1-.84-.54-1.63-1.1-.94-.72.88-1.06,4.28-1.94,5.52-1.74,2.48-3.67,1.4-5.53.22-2.49-1.58-4.83-.76-7.32-2.28-1.87-1.16-2.11-.51-3.92,0a2.53,2.53,0,0,1-2.65-.9c-1.1-1.18-2.49-6.77-3.83-6.09-.5.25-1.83,5.51-2.62,6.48a3.82,3.82,0,0,1-5.17.85c-1-.07-1.82-.79-2.6-2.6a3.37,3.37,0,0,1-.23-1.09,8.45,8.45,0,0,0-2.6-.19,7,7,0,0,1-1.8-.08c-1.43-.4-2.52-.85-4-.36-1.23.41-2.16,1.12-3.4.72-1.51-.48-2.71-2.52-4.24-3.17-2.67-1.13-4.89,1-7.29,3l-.23.18-.2.18c-.35.33-.67.87-1,1.21a3.05,3.05,0,0,1-2.22.87,24,24,0,0,1-8-1c-1.15-.36-2.14-1.14-3.27-.5s-1.68,2.26-2.95,2.38c-1,.1-1.63-.5-2.53-1.45-1.57-1.67-2.36-2.21-4.13-2.17a5.85,5.85,0,0,1-3.45-1.12c-1.21-.8-2-2-3.47-1.18-.38.22-.66,1.1-1.06,1.31-2,1.05-2.64.95-4.41-1-2.32-2.58-4.43-2.07-6.75-4.41-.65-.66-.93-1.06-1.17-1.06s-.55.66-1.4,2.27" transform="translate(0 -0.59)"/><g class="cls-3"><rect class="cls-4" x="81.46" y="23.52" width="324.39" height="194.56"/></g><g class="cls-5"><g class="cls-6"><path class="cls-7" d="M72.58,191.9h317V2.25h-317ZM70.91.59H391.23v193H70.91Z" transform="translate(0 -0.59)"/><ellipse class="cls-8" cx="91.4" cy="18.07" rx="5.83" ry="5.55"/><circle class="cls-8" cx="116.67" cy="18.07" r="5.55"/><circle class="cls-8" cx="142.22" cy="18.07" r="5.55"/><rect class="cls-8" x="72.23" y="0.85" width="318.28" height="33.88"/></g></g><g class="cls-9"><g class="cls-10"><path class="cls-11" d="M6.67,305.76l6.22-50.69a1.14,1.14,0,0,1,.37-.64,1,1,0,0,1,.68-.26h15.6q6.81,0,10.76,3.48a12,12,0,0,1,3.93,9.42c0,.45,0,1.22-.15,2.32l-2.7,22.05a16.31,16.31,0,0,1-5.85,11.06,18.86,18.86,0,0,1-12.44,4.16H7.49C6.94,306.66,6.67,306.36,6.67,305.76Zm11.62-8.17,6-.08a6,6,0,0,0,4.57-2,10.1,10.1,0,0,0,2.47-5.28l2.4-19.65a8.78,8.78,0,0,0,.08-1.35,6.44,6.44,0,0,0-1.39-4.42,5,5,0,0,0-3.93-1.58H22.56c-.2,0-.35.13-.45.38L18,297.21C18,297.46,18.09,297.59,18.29,297.59Z" transform="translate(0 -0.59)"/><path class="cls-11" d="M82.44,263a.9.9,0,0,1-.64.26H62.3c-.2,0-.35.13-.44.38l-1.43,11.69c0,.26.1.38.3.38H72.88a.76.76,0,0,1,.6.26.72.72,0,0,1,.15.64l-.83,7.27a1.1,1.1,0,0,1-.37.64,1,1,0,0,1-.68.26H59.61a.38.38,0,0,0-.38.38l-1.5,12.07c0,.25.1.38.3.38h19.5c.55,0,.82.3.82.9l-.9,7.27a1.27,1.27,0,0,1-.33.64.9.9,0,0,1-.64.26H47.23c-.55,0-.82-.3-.82-.9l6.22-50.69a1.15,1.15,0,0,1,.38-.64,1,1,0,0,1,.67-.26H82.93a.76.76,0,0,1,.6.26.72.72,0,0,1,.15.64l-.9,7.27A1.29,1.29,0,0,1,82.44,263Z" transform="translate(0 -0.59)"/><path class="cls-11" d="M87.72,303.81a11.44,11.44,0,0,1-4-9.15c0-.4,0-1.1.14-2.1l.23-1.95a1.21,1.21,0,0,1,.34-.64.87.87,0,0,1,.64-.26h8.39a.76.76,0,0,1,.6.26.72.72,0,0,1,.15.64L94,292a5.16,5.16,0,0,0,1.39,4.42,6.43,6.43,0,0,0,4.83,1.72,6.63,6.63,0,0,0,4.84-1.72,5.85,5.85,0,0,0,1.76-4.35,4.47,4.47,0,0,0-1.69-3.49,41.51,41.51,0,0,0-6.26-4,65.47,65.47,0,0,1-6.18-3.9,15.77,15.77,0,0,1-4-4.38,11.69,11.69,0,0,1-1.69-6.41,15.83,15.83,0,0,1,2.32-8.59,15.48,15.48,0,0,1,6.42-5.74,20.22,20.22,0,0,1,9.11-2q6.81,0,10.87,3.56a12.08,12.08,0,0,1,4,9.56q0,.6-.15,2.1l-.15,1.5a1.21,1.21,0,0,1-.34.64.88.88,0,0,1-.64.26H110a.75.75,0,0,1-.6-.26.69.69,0,0,1-.15-.64l.15-1.35a4.06,4.06,0,0,0,.07-.9,5.12,5.12,0,0,0-1.61-3.86,6.18,6.18,0,0,0-4.46-1.54,6.48,6.48,0,0,0-4.54,1.61,5.78,5.78,0,0,0-1.76,4.47,4.58,4.58,0,0,0,1.72,3.59,38.9,38.9,0,0,0,6.38,4.05l1.5.9q3.6,2.33,5.62,3.9a13.78,13.78,0,0,1,3.37,3.83,10.31,10.31,0,0,1,1.35,5.4,20,20,0,0,1-.15,2,15.82,15.82,0,0,1-5.77,10.84,19,19,0,0,1-12.37,4Q91.78,307.26,87.72,303.81Z" transform="translate(0 -0.59)"/><path class="cls-11" d="M121.39,305.76l6.23-50.69a1.14,1.14,0,0,1,.37-.64,1,1,0,0,1,.68-.26h8.47a.76.76,0,0,1,.6.26.72.72,0,0,1,.15.64l-6.22,50.69a1.29,1.29,0,0,1-.34.64.9.9,0,0,1-.64.26h-8.47C121.67,306.66,121.39,306.36,121.39,305.76Z" transform="translate(0 -0.59)"/><path class="cls-11" d="M144.15,303.47a13.21,13.21,0,0,1-4-10.08c0-.55.05-1.38.15-2.48l2.62-21.07a19,19,0,0,1,3.12-8.55,17.1,17.1,0,0,1,6.52-5.7,19.58,19.58,0,0,1,9-2q6.83,0,10.87,3.71a12.55,12.55,0,0,1,4.05,9.71c0,.45-.05,1.18-.15,2.18l-.22,1.65a1.15,1.15,0,0,1-.34.63.84.84,0,0,1-.64.26h-8.47a.73.73,0,0,1-.6-.26.7.7,0,0,1-.15-.63l.15-1.58a4.49,4.49,0,0,0,.07-1,5.67,5.67,0,0,0-1.49-4,5.45,5.45,0,0,0-4.13-1.58,6.87,6.87,0,0,0-5,1.95,8.17,8.17,0,0,0-2.4,5.1l-2.62,21.45a6.06,6.06,0,0,0-.08,1.12,5.83,5.83,0,0,0,1.61,4.31,5.73,5.73,0,0,0,4.24,1.62,6.79,6.79,0,0,0,7.05-6.45l.6-4.65c0-.25-.1-.38-.3-.38h-5.7a.73.73,0,0,1-.6-.26.72.72,0,0,1-.15-.64L158,279a1.27,1.27,0,0,1,.33-.64.9.9,0,0,1,.64-.26h15.37a.76.76,0,0,1,.6.26.72.72,0,0,1,.15.64l-1.5,11.92a18,18,0,0,1-6,11.92,18.55,18.55,0,0,1-12.6,4.43Q148.17,307.26,144.15,303.47Z" transform="translate(0 -0.59)"/><path class="cls-11" d="M210.21,254.43a.86.86,0,0,1,.64-.26h8.47a.74.74,0,0,1,.76.9l-6.23,50.69a1.21,1.21,0,0,1-.34.64.86.86,0,0,1-.63.26H204a.94.94,0,0,1-1-.68l-10.12-30.52c-.1-.15-.2-.22-.3-.22s-.15.1-.15.3l-3.67,30.22a1.29,1.29,0,0,1-.34.64.9.9,0,0,1-.64.26h-8.4c-.55,0-.82-.3-.82-.9l6.22-50.69a1.15,1.15,0,0,1,.38-.64,1,1,0,0,1,.67-.26h8.78a.87.87,0,0,1,.89.67l10.2,30.52c.05.15.13.23.23.23s.17-.1.22-.3l3.68-30.22A1.27,1.27,0,0,1,210.21,254.43Z" transform="translate(0 -0.59)"/><path class="cls-11" d="M15.81,233.14l-5.17-50.76v-.15c0-.55.32-.83,1-.83h8.93a.73.73,0,0,1,.82.83l2,28.79c0,.15.06.23.18.23a.28.28,0,0,0,.27-.23l8.77-28.79a1,1,0,0,1,1-.83h8.1a.73.73,0,0,1,.82.83L44.91,211c0,.15.06.23.19.23s.21-.08.26-.23l8.77-28.79a1,1,0,0,1,1-.83h8.55c.6,0,.8.33.6,1l-16.8,50.69a1,1,0,0,1-1.05.82H38.23a.72.72,0,0,1-.82-.82l-2.25-30.15c0-.15,0-.22-.15-.22s-.18.07-.23.22l-9,30.15a1,1,0,0,1-1.05.82h-8A.9.9,0,0,1,15.81,233.14Z" transform="translate(0 -0.59)"/><path class="cls-11" d="M99.39,190.21a.87.87,0,0,1-.64.27H79.25c-.2,0-.35.12-.45.37l-1.42,11.7c0,.25.1.37.3.37H89.82a.74.74,0,0,1,.6.27.7.7,0,0,1,.15.63l-.82,7.28a1.15,1.15,0,0,1-.38.64,1,1,0,0,1-.67.26H76.55a.33.33,0,0,0-.26.11.34.34,0,0,0-.11.26l-1.5,12.08c0,.25.1.37.3.37H94.47c.55,0,.83.3.83.9L94.4,233a1.18,1.18,0,0,1-.34.64.84.84,0,0,1-.64.26H64.18c-.55,0-.83-.3-.83-.9l6.23-50.69a1.08,1.08,0,0,1,.37-.63,1,1,0,0,1,.68-.27H99.87a.74.74,0,0,1,.6.27.7.7,0,0,1,.15.63l-.9,7.28A1.2,1.2,0,0,1,99.39,190.21Z" transform="translate(0 -0.59)"/><path class="cls-11" d="M129.68,230.14a19.27,19.27,0,0,1-12,3.75H101.37c-.55,0-.82-.3-.82-.9l6.22-50.69a1,1,0,0,1,.38-.63,1,1,0,0,1,.67-.27H123q7.05,0,10.91,3t3.86,9c0,.45-.05,1.27-.15,2.47q-.9,7.42-6.9,10.72-.37.3-.15.45,5,3.3,5,9.9c0,.45-.06,1.23-.15,2.33Q134.58,226.4,129.68,230.14Zm-6.6-7.16a8.24,8.24,0,0,0,2.29-5,8.45,8.45,0,0,0,.07-1.28A5.73,5.73,0,0,0,124,212.6a5.32,5.32,0,0,0-4-1.5h-6.08c-.2,0-.35.12-.45.37l-1.57,12.9a.33.33,0,0,0,.37.38h6.08A6.58,6.58,0,0,0,123.08,223ZM116,190.85l-1.42,11.77c0,.26.1.38.3.38h5.55a6.67,6.67,0,0,0,7-6.23,5.55,5.55,0,0,0,.07-1,5.11,5.11,0,0,0-1.46-3.87,5.84,5.84,0,0,0-4.16-1.38h-5.48C116.24,190.48,116.09,190.6,116,190.85Z" transform="translate(0 -0.59)"/></g></g><path class="cls-7" d="M0,298.54l6.22-50.69a1.12,1.12,0,0,1,.38-.64,1,1,0,0,1,.67-.26h15.6q6.82,0,10.76,3.48a11.94,11.94,0,0,1,3.94,9.41c0,.46,0,1.23-.15,2.33l-2.7,22a16.31,16.31,0,0,1-5.85,11.07,18.89,18.89,0,0,1-12.45,4.16H.82c-.55,0-.82-.3-.82-.9m11.62-8.18,6-.07a6,6,0,0,0,4.58-2A10.17,10.17,0,0,0,24.67,283l2.4-19.64a9.06,9.06,0,0,0,.07-1.35,6.47,6.47,0,0,0-1.38-4.42A5,5,0,0,0,21.82,256H15.9c-.2,0-.35.13-.45.38L11.32,290c0,.25.1.37.3.37" transform="translate(0 -0.59)"/><path class="cls-7" d="M75.77,255.76a.86.86,0,0,1-.63.26H55.64c-.2,0-.35.13-.45.38l-1.42,11.69c0,.25.09.38.29.38H66.21a.76.76,0,0,1,.6.26.72.72,0,0,1,.15.64l-.82,7.27a1.15,1.15,0,0,1-.38.64,1,1,0,0,1-.67.26H52.94a.38.38,0,0,0-.37.38L51.07,290c0,.25.1.37.3.37H70.86c.55,0,.83.3.83.9l-.9,7.28a1.29,1.29,0,0,1-.34.64.9.9,0,0,1-.64.26H40.57c-.55,0-.83-.3-.83-.9L46,247.85a1.1,1.1,0,0,1,.37-.64A1,1,0,0,1,47,247H76.26a.73.73,0,0,1,.6.26.72.72,0,0,1,.15.64l-.9,7.27a1.21,1.21,0,0,1-.34.64" transform="translate(0 -0.59)"/><path class="cls-7" d="M81.06,296.59a11.42,11.42,0,0,1-4-9.15q0-.6.15-2.1l.22-1.95a1.29,1.29,0,0,1,.34-.64.9.9,0,0,1,.64-.26h8.4a.76.76,0,0,1,.6.26.72.72,0,0,1,.15.64l-.23,1.43a5.2,5.2,0,0,0,1.39,4.42A6.47,6.47,0,0,0,93.51,291a6.59,6.59,0,0,0,4.83-1.72,5.82,5.82,0,0,0,1.77-4.35,4.5,4.5,0,0,0-1.69-3.49,42.05,42.05,0,0,0-6.26-4,67.14,67.14,0,0,1-6.19-3.9,16.08,16.08,0,0,1-4-4.38,11.81,11.81,0,0,1-1.68-6.42,15.8,15.8,0,0,1,2.32-8.58A15.51,15.51,0,0,1,89,248.37a20.22,20.22,0,0,1,9.11-2q6.83,0,10.87,3.56a12.08,12.08,0,0,1,4,9.56q0,.6-.15,2.1l-.15,1.5a1.27,1.27,0,0,1-.33.64.9.9,0,0,1-.64.26h-8.4a.76.76,0,0,1-.6-.26.72.72,0,0,1-.15-.64l.15-1.35a3.94,3.94,0,0,0,.08-.9,5.09,5.09,0,0,0-1.62-3.86,6.17,6.17,0,0,0-4.46-1.54A6.5,6.5,0,0,0,92.19,257a5.76,5.76,0,0,0-1.76,4.46,4.62,4.62,0,0,0,1.73,3.6,39.39,39.39,0,0,0,6.37,4.05l1.5.9q3.6,2.32,5.63,3.9a13.78,13.78,0,0,1,3.37,3.83,10.31,10.31,0,0,1,1.35,5.4,20,20,0,0,1-.15,2A15.86,15.86,0,0,1,104.46,296a19.06,19.06,0,0,1-12.38,4q-7,0-11-3.45" transform="translate(0 -0.59)"/><path class="cls-7" d="M114.73,298.54,121,247.85a1.12,1.12,0,0,1,.38-.64A1,1,0,0,1,122,247h8.48a.76.76,0,0,1,.6.26.75.75,0,0,1,.15.64L125,298.54a1.21,1.21,0,0,1-.34.64.86.86,0,0,1-.63.26h-8.48c-.55,0-.82-.3-.82-.9" transform="translate(0 -0.59)"/><path class="cls-7" d="M137.49,296.25a13.2,13.2,0,0,1-4-10.09c0-.54.05-1.37.16-2.47l2.62-21.07a19.07,19.07,0,0,1,3.11-8.55,17.13,17.13,0,0,1,6.53-5.7,19.58,19.58,0,0,1,9-2q6.81,0,10.87,3.71a12.55,12.55,0,0,1,4.05,9.71c0,.45-.05,1.17-.15,2.17l-.23,1.65a1.2,1.2,0,0,1-.33.64.86.86,0,0,1-.64.26h-8.48a.71.71,0,0,1-.59-.26.68.68,0,0,1-.16-.64l.16-1.57a5.31,5.31,0,0,0,.07-1,5.59,5.59,0,0,0-1.5-4,5.42,5.42,0,0,0-4.12-1.58,6.87,6.87,0,0,0-5,2,8.17,8.17,0,0,0-2.4,5.1l-2.63,21.45a6.25,6.25,0,0,0-.07,1.12,5.79,5.79,0,0,0,1.61,4.31A5.71,5.71,0,0,0,149.6,291a6.78,6.78,0,0,0,7.05-6.44l.6-4.65c0-.25-.11-.38-.3-.38h-5.7a.76.76,0,0,1-.6-.26.72.72,0,0,1-.15-.64l.82-6.82a1.21,1.21,0,0,1,.34-.64.88.88,0,0,1,.64-.26h15.37a.76.76,0,0,1,.6.26.72.72,0,0,1,.15.64l-1.5,11.92a18,18,0,0,1-6,11.92,18.55,18.55,0,0,1-12.6,4.43q-6.82,0-10.83-3.79" transform="translate(0 -0.59)"/><path class="cls-7" d="M203.55,247.21a.84.84,0,0,1,.64-.26h8.47a.73.73,0,0,1,.6.26.72.72,0,0,1,.15.64l-6.22,50.69a1.29,1.29,0,0,1-.34.64.9.9,0,0,1-.64.26h-8.85a.93.93,0,0,1-1-.68l-10.13-30.52c-.1-.15-.2-.22-.3-.22s-.15.1-.15.3l-3.67,30.22a1.21,1.21,0,0,1-.34.64.86.86,0,0,1-.63.26h-8.4c-.55,0-.83-.3-.83-.9l6.23-50.69a1.14,1.14,0,0,1,.37-.64,1,1,0,0,1,.68-.26H188a.88.88,0,0,1,.9.67l10.2,30.52c0,.15.12.23.22.23s.18-.1.23-.3l3.67-30.22a1.21,1.21,0,0,1,.34-.64" transform="translate(0 -0.59)"/><path class="cls-7" d="M9.15,225.92,4,175.16V175c0-.55.33-.83,1-.83h8.92a.74.74,0,0,1,.83.83l2,28.79c0,.15.06.23.19.23s.21-.08.26-.23L25.94,175a1,1,0,0,1,1-.83h8.1a.74.74,0,0,1,.83.83l2.32,28.79c0,.15.06.23.19.23s.21-.08.26-.23L47.47,175a1,1,0,0,1,1.05-.83h8.54c.6,0,.8.33.6,1L40.87,225.85a1,1,0,0,1-1,.82H31.57a.73.73,0,0,1-.83-.82L28.49,195.7c0-.15,0-.22-.15-.22s-.17.07-.22.22l-9,30.15a1,1,0,0,1-1.05.82h-8a.9.9,0,0,1-.9-.75" transform="translate(0 -0.59)"/><path class="cls-7" d="M92.72,183a.86.86,0,0,1-.64.26H72.59c-.21,0-.35.13-.45.38l-1.43,11.7c0,.25.1.37.3.37H83.16a.76.76,0,0,1,.6.26.72.72,0,0,1,.15.64l-.83,7.28a1.08,1.08,0,0,1-.37.63,1,1,0,0,1-.68.27H69.89a.38.38,0,0,0-.38.37L68,217.22c0,.25.1.38.3.38h19.5c.55,0,.82.3.82.9l-.9,7.27a1.23,1.23,0,0,1-.33.64.86.86,0,0,1-.64.26H57.51c-.55,0-.82-.3-.82-.9l6.22-50.69a1.15,1.15,0,0,1,.38-.64,1,1,0,0,1,.67-.26H93.21a.76.76,0,0,1,.6.26.72.72,0,0,1,.15.64l-.9,7.28a1.22,1.22,0,0,1-.34.63" transform="translate(0 -0.59)"/><path class="cls-7" d="M123,222.92a19.22,19.22,0,0,1-12,3.75H94.71c-.55,0-.83-.3-.83-.9l6.23-50.69a1.08,1.08,0,0,1,.37-.64,1,1,0,0,1,.67-.26H116.3q7,0,10.91,3t3.86,9c0,.45,0,1.28-.14,2.48-.61,4.95-2.9,8.52-6.9,10.72q-.37.3-.15.45,5,3.3,5,9.9c0,.45-.05,1.23-.15,2.32q-.83,7.2-5.74,10.95m-6.6-7.16a9.29,9.29,0,0,0,2.37-6.26,5.74,5.74,0,0,0-1.43-4.12,5.32,5.32,0,0,0-4-1.5h-6.07c-.2,0-.35.12-.45.37l-1.57,12.9a.32.32,0,0,0,.37.37h6.07a6.56,6.56,0,0,0,4.76-1.76m-7.08-32.13L107.9,195.4c0,.25.1.38.3.38h5.55a6.67,6.67,0,0,0,7-6.23,5.58,5.58,0,0,0,.08-1.05,5.06,5.06,0,0,0-1.47-3.86,5.82,5.82,0,0,0-4.16-1.39h-5.47c-.2,0-.35.13-.45.38" transform="translate(0 -0.59)"/><rect class="cls-2" x="223.45" y="246.1" width="212.08" height="61.02"/><path class="cls-7" d="M308.77,81.69a2.4,2.4,0,0,0-2.39-2.42h-4.79V74.42A2.41,2.41,0,0,0,299.2,72H284.84a2.41,2.41,0,0,0-2.39,2.42v4.85h-3.51a2.4,2.4,0,0,0-2.39,2.42l.07,6.32h-18c-2.91,0-6,1.61-6,5.7,0,.82,0,3.51,1.75,4.17H246c-4.72,0-7.43.85-7.43,5.93,0,3.45,2.5,5.54,6.46,5.54H265.9a5.72,5.72,0,0,0,2.19,9.45,7,7,0,0,0,2.39.42h4.79v29.07a2.4,2.4,0,0,0,2.39,2.42h4.79v4.85a2.41,2.41,0,0,0,2.39,2.42h5.23v4.84c0,2.67-2.59,4.84-5.23,4.84H265.7a4.81,4.81,0,0,1-4.79-4.84V127.7c0-1.33-1.07-2-2.39-2h-9.58v-1.66a2.4,2.4,0,0,0-2.39-2.42h-5.64c0-1.34-.75-3-2.07-3h-56.9c-4,0-6.55,2.64-6.55,6.65v4.85c0,4,2.59,6.28,6.55,6.29h56.9c1.32,0,2.07-1.32,2.07-2.66h5.64a2.41,2.41,0,0,0,2.39-2.42v-1.67h8.23v33.15c0,5.35,3.24,8.46,8.53,8.46h19.14c4.92,0,9-3.11,9-8.46V158h5.36a2.41,2.41,0,0,0,2.39-2.42v-4.85h4.79a2.4,2.4,0,0,0,2.39-2.42m-22.39-69V75.42h11.44v3.85Zm-7.28,67.39V118c0-1.34-.12-2.43-1.44-2.43h-7.18a2.42,2.42,0,0,1,0-4.84,2.42,2.42,0,0,0,0-4.84H244.16a2.15,2.15,0,0,1-2.08-2.41c0-1.34.65-2.62,2-2.62h13.57a2.34,2.34,0,0,0,2.5-2.24,2.56,2.56,0,0,0-2.39-2.42c-1.3-.21-1.61-1.08-1.61-2.42a2.4,2.4,0,0,1,2.4-2.42h19.14A2.41,2.41,0,0,0,280.05,89V82.83h24.89v63.83Zm6.77,8.16v-4.11h12.48v4.11Zm-40.05-29.54v4.85H241v-4.85ZM237,132.55h-55a2.41,2.41,0,0,1-2.39-2.42v-4.85a2.41,2.41,0,0,1,2.39-2.42h55Z" transform="translate(0 -0.59)"/><path class="cls-7" d="M281.11,108.06c0-1.06-.44-1.92-1.76-1.92H277a1.92,1.92,0,1,0,0,3.83h2.39C280.67,110,281.11,109.11,281.11,108.06Z" transform="translate(0 -0.59)"/><path class="cls-7" d="M279.44,98.64c0-1-.45-1.91-1.77-1.91H265.88a1.91,1.91,0,1,0,0,3.82h11.79C279,100.55,279.44,99.7,279.44,98.64Z" transform="translate(0 -0.59)"/></g></g></svg>