<svg xmlns="http://www.w3.org/2000/svg" xmlns:xlink="http://www.w3.org/1999/xlink" viewBox="0 0 435.44 307.61"><defs><style>.cls-1,.cls-10,.cls-7{fill:none;}.cls-2{clip-path:url(#clip-path);}.cls-3{fill:url(#linear-gradient);}.cls-4{opacity:0.65;}.cls-5{clip-path:url(#clip-path-2);}.cls-6{fill:#fff;}.cls-10,.cls-7{stroke:#fff;}.cls-7{stroke-width:1.5px;}.cls-8{opacity:0.5;}.cls-9{clip-path:url(#clip-path-3);}.cls-10{stroke-width:2px;}</style><clipPath id="clip-path" transform="translate(0 -0.59)"><path class="cls-1" d="M262.35,213.4h0m13.49-187c-.58,1.1-1,2.37-1.55,3.51-1.22,2.62-2.47,3.92-4.27,3.57-5.28-1-10.16,3.28-15.47,4-3.6.5-8,1.4-11.53.38-1.86-.53-2-1.4-3.06-4.41-1.67-4.86-4.62-3.37-7.57-1.88-1.76.89-3.51,1.77-5,1.33-3.07-.92-5.48-4.39-8.44-1.19-2.07,2.24-3.37,1.81-5.54,1.42-1.3-.24-1-1.48-2.31.53-.27.42-.38,1.48-.66,1.93a5.84,5.84,0,0,1-1.81,2.14c-2.15,1.3-4.79-.56-6.94-1.44s-5.14-.3-7-2.39a13.69,13.69,0,0,1-1.45-3c-1.19-2.43-1.31-3.06-2.31-.89.45-1-.48,1.93-.77,2.52a4.47,4.47,0,0,1-2.2,2.17c-2.15.91-2.9-2.09-4.84-2.73a11.85,11.85,0,0,0-4.38-.3,17.15,17.15,0,0,1-3.21,0c-2.36-.35-4.51-4.13-6.89-3.16-2.56,1-4.63,4.94-7.32,5.51a6.86,6.86,0,0,1-3.91-.71,6.65,6.65,0,0,0-3.94-.7c-1.22.3-2.16,1.21-3.38.59-1-.48-1.69-2.09-2.5-2.39a1.77,1.77,0,0,0-1.18.22,2.09,2.09,0,0,1-1.17.25c-1.08-.26-2-1.78-3.06-2.09a4.06,4.06,0,0,0-2.23.07,2.91,2.91,0,0,1-3.11-.62c-1.39-1.22-4.18-3.89-5.82-4.07-1.82-.19-2.78,6.38-4.85,7.6a3.54,3.54,0,0,1-2.12.34,8,8,0,0,0-5.62,2.2,15.14,15.14,0,0,1-13.36,2.85c-2.73-.65-2-2.92-3.69-6.39-1.55-3.07-4-.64-5.94,1l-.06.06-.18.17v0l-.57.46a1.18,1.18,0,0,1-1.13.26c-1.46.18-2.5-.75-3.76-1.6A4.61,4.61,0,0,1,88.07,33a17,17,0,0,1-1.28,5.62,67.72,67.72,0,0,0-3,8.85c-.83,3.28-.18,5-.63,8.14a15.11,15.11,0,0,1-1.35,3.89,6.35,6.35,0,0,1,.09,1.07,8.19,8.19,0,0,1-.35,2.65c.52,4.4,1.74,6.79,3.57,10.14,2,3.67.48,5,.57,10.14.07,3.52,1,6.88,1.15,10.41.16,3,0,5.66.41,8.57a136.92,136.92,0,0,1,1,15.5,6.07,6.07,0,0,1,.18,6.4c.09,4,.37,9.59-.18,12.89s-2,3.17-3.15,5.15c-2.74,4.71.19,12.45.69,18.35.7,8.14-1.23,14.43-1.58,22.28-.19,4.32,1.67,7.61,2.4,11.38.89,4.64.6,9.91,3.31,12.1a3.37,3.37,0,0,0,2.34.53c1.06,0,2.12-.05,2.91,1.14,1.31,2,.34,4.45,1.13,6.72,1.28,3.71,5.78-1.95,7.56-2.79a16.65,16.65,0,0,0,6.11-4.29c1-1.12,2.16-2,3.35-1.47,1.65.76,2.36,3.91,3.18,6.77.65-.17,1.3-.19,1.86-.33,1.89-.49,3.78-4.05,5.76-2.35,1.41,1.22,1.45,4.8,3,5.77.61.39,1.5.12,2.34-.15a5.14,5.14,0,0,1,1.51-.35,8.59,8.59,0,0,0,3.55-.55c1-.36,1.89-1,3-.33s1.63,1.73,2.67,1.87a11.06,11.06,0,0,0,2.15,0,14.29,14.29,0,0,1,1.72,0c1.5.08,2.43-.93,3.83-1.34a3.52,3.52,0,0,1,1.86.06,2.59,2.59,0,0,0,2.76-.55c2-1.82,3-5.33,5.42-4.3a2.7,2.7,0,0,1,1.43,1,4.45,4.45,0,0,1,.26.48c1.44-1.15,3.11-1.26,4.07.9.83.81,1.27,2.24,2.4,3.35,1.94,1.93,5,.68,7,.11a18.66,18.66,0,0,0,8-4.48c2.2-2,4.42-4.62,6.81-5.5a4.16,4.16,0,0,1,3.24.21c.82,0,1.06.44.7,1.23q.72-.61,1.44-1.17a7.33,7.33,0,0,1,4.33-.06,11,11,0,0,0,2.93.28c4.85-.45,10.16-3.26,15-2a8.21,8.21,0,0,1,5.57,4c1,1.73,1.26,3.9,2.51,5l.24-.72c2.29-6.63,6.34-8.53,8.71-1.92,1,2.8.71,5.48,2.84,5.29.89-.08,2-1.31,2.84-1.9,2.89-2,5.84-2.12,8.7-3.87,3.72-2.27,6.31-7.74,9.21-3.6a2,2,0,0,1,1.93-.11c1.22.57,1.72,2,2.11,3.16.24.7.85,3.59.4,1.32,0,0,.32.66.41.89a3.57,3.57,0,0,1,.16.46c.47.29.93.52,1.21.42-.59.22,1.51-3.4,1.53-3.44,1.15-1.84,2.28-3.36,3.86-2.84,2,.67,1.81,2.76,2.78,5.84,1.23,3.93,2.94,3.41,4.78,3,1.56-2.71,3.36-2.7,5.31-1.31-.68-.49-.11-.22.46.43,1.24-1.11,2.18-2.88,4-2,.8.38,1.56,1.3,1.52,3.25,0,.49,4.21.12,8.23-.25a51.67,51.67,0,0,1,7-.44c1.83.52,1.67.29,3.11-1.44a20.43,20.43,0,0,1,4.1-3.72c2.26-1.57,3.44-.5,5.11,1.82a2.24,2.24,0,0,1,1.91.08c1.16-1.37,2.26-2.36,3.83-.87s2.39,4,4.17,4.83c2.38,1.12,4.54.32,6.9-.25s3.91-.22,6.13-1.31c2.84-1.4,5.33-3.76,8.06-5.68,2.39-1.7,5.34-3.62,7.88-2.76a7.17,7.17,0,0,1,3.12,1.53,3.29,3.29,0,0,1,.33.41.1.1,0,0,1,0-.06c.43-.35.75-1.07,1.19-1.42,1.21-1,4.67-1.82,5.85.61,3.72-.29,7.44-1.59,11.17-1.67s7.43-1.14,11.17-.88a9.64,9.64,0,0,1,7.64,4.1c.92,1.25,2,2.86,2.91,4.33.44-.64,1-1.32,1.15-1.63,2.15-4.74,2.21-13,3.38-18.85a26.65,26.65,0,0,1,2.21-5.91c2.38-5.72,1.46-7.57-.6-12-1.24-2.64-2.33-5.58-.88-8.94.7-1.62,2-1.66,2.69-3.09a37.64,37.64,0,0,0,1-8.85,5.63,5.63,0,0,1-.1-.91c-.42-3.92-1.56-6.84-1.82-10.93s-.23-8.15-.86-12.26c-.59-3.8-2.37-8.47-2.31-12.65a12.52,12.52,0,0,1,1.28-5.23,6.41,6.41,0,0,1,0-4.48,16.9,16.9,0,0,1,1.19-2.22c1.1-1.89,1.29-1.32,1.44-3.52.47-6.86-1.95-6.22-2.9-10.93a8.52,8.52,0,0,1,.6-5.38c1.62-3.61,4-2.85,3.91-9.42,0-2.72-.38-5.24-.5-7.89a3.71,3.71,0,0,1-1.07-2.61,7.58,7.58,0,0,1,.18-2.13c-.16.47-.14,0-.08-.5s.21-1.18.14,0c0,.18,0,.35-.06.51,0-.06,0-.11.06-.19a27.91,27.91,0,0,1,1.1-3.23c-.44-3.78-2.63-7.79-2.89-12.23-.07-1.19.53-5.36.26-6.23-.41-1.33-2.34-.56-3.08-2.08-.07-.16-.14-.32-.2-.49-2.19-2.9-5.27-9.71-7.47-8.36-1.22.76-2.21,2.5-3.53,3a6.58,6.58,0,0,1-4.4.08,5.87,5.87,0,0,1-2-1c-1-.84-.54-1.63-1.1-.94-.71.88-1.06,4.27-1.93,5.52-1.74,2.48-3.68,1.4-5.54.22-2.48-1.58-4.83-.76-7.32-2.29-1.86-1.15-2.1-.5-3.91,0a2.54,2.54,0,0,1-2.65-.9c-1.1-1.18-2.49-6.77-3.83-6.09-.5.25-1.84,5.51-2.62,6.47a3.82,3.82,0,0,1-5.17.86c-1-.07-1.82-.8-2.6-2.6a3.43,3.43,0,0,1-.23-1.09,8.15,8.15,0,0,0-2.6-.19,7.39,7.39,0,0,1-1.8-.09c-1.42-.39-2.52-.85-4-.35-1.23.41-2.16,1.12-3.4.72-1.51-.49-2.71-2.53-4.23-3.17-2.68-1.14-4.9,1-7.3,3l-.22.19-.2.18c-.36.33-.67.87-1,1.21a3.17,3.17,0,0,1-2.22.87,24.08,24.08,0,0,1-8-1c-1.14-.36-2.14-1.14-3.26-.51s-1.68,2.26-3,2.39c-1,.09-1.63-.5-2.53-1.46-1.57-1.67-2.36-2.2-4.13-2.17a5.91,5.91,0,0,1-3.45-1.11c-1.21-.8-2-2-3.47-1.18-.38.22-.66,1.1-1.06,1.31-2,1-2.64.94-4.41-1-2.32-2.57-4.43-2.06-6.74-4.4-.66-.66-.94-1.06-1.18-1.06s-.54.65-1.4,2.27"/></clipPath><linearGradient id="linear-gradient" x1="-91.7" y1="409.36" x2="-90.74" y2="409.36" gradientTransform="translate(122136.34 16308.76) rotate(90) scale(177.45 297.76)" gradientUnits="userSpaceOnUse"><stop offset="0" stop-color="#feb02a"/><stop offset="1" stop-color="#f4c170"/></linearGradient><clipPath id="clip-path-2" transform="translate(0 -0.59)"><rect class="cls-1" x="70.79" width="321.08" height="193.53"/></clipPath><clipPath id="clip-path-3" transform="translate(0 -0.59)"><rect class="cls-1" x="5.71" y="180.41" width="215.3" height="127.74"/></clipPath></defs><title>Asset 14</title><g id="Layer_2" data-name="Layer 2"><g id="Layer_1-2" data-name="Layer 1"><g class="cls-2"><rect class="cls-3" x="81.56" y="23.55" width="324.33" height="194.52"/></g><g class="cls-4"><g class="cls-5"><path class="cls-6" d="M72.57,191.87H389.49V2.25H72.57ZM70.9.59H391.16V193.53H70.9Z" transform="translate(0 -0.59)"/><ellipse class="cls-7" cx="91.38" cy="18.06" rx="5.83" ry="5.55"/><circle class="cls-7" cx="116.65" cy="18.06" r="5.55"/><circle class="cls-7" cx="142.19" cy="18.06" r="5.55"/><rect class="cls-7" x="72.22" y="0.85" width="318.22" height="33.88"/></g></g><g class="cls-8"><g class="cls-9"><path class="cls-10" d="M6.66,305.7,12.89,255a1.14,1.14,0,0,1,.37-.64,1,1,0,0,1,.67-.26h15.6q6.82,0,10.76,3.48A12,12,0,0,1,44.22,267c0,.45,0,1.23-.15,2.33l-2.69,22a16.35,16.35,0,0,1-5.85,11.06,18.89,18.89,0,0,1-12.45,4.16H7.49C6.94,306.6,6.66,306.3,6.66,305.7Zm11.62-8.17,6-.08a6.07,6.07,0,0,0,4.58-2,10.24,10.24,0,0,0,2.47-5.29l2.4-19.64a9.06,9.06,0,0,0,.07-1.35,6.47,6.47,0,0,0-1.38-4.42,5,5,0,0,0-3.94-1.58H22.56c-.2,0-.35.13-.45.38L18,297.15C18,297.4,18.08,297.53,18.28,297.53Z" transform="translate(0 -0.59)"/><path class="cls-10" d="M82.42,262.93a.86.86,0,0,1-.63.26H62.29c-.2,0-.35.13-.45.38l-1.42,11.69c0,.25.1.38.3.38H72.86a.73.73,0,0,1,.6.26.72.72,0,0,1,.15.64l-.82,7.27a1.15,1.15,0,0,1-.38.64,1,1,0,0,1-.67.26H59.59a.34.34,0,0,0-.26.11.36.36,0,0,0-.11.26l-1.5,12.07c0,.25.1.38.3.38H77.51c.55,0,.83.3.83.9l-.9,7.27a1.29,1.29,0,0,1-.34.64.9.9,0,0,1-.64.26H47.22c-.55,0-.82-.3-.82-.9L52.62,255a1.15,1.15,0,0,1,.38-.64,1,1,0,0,1,.67-.26H82.91a.76.76,0,0,1,.6.26.72.72,0,0,1,.15.64l-.9,7.27A1.21,1.21,0,0,1,82.42,262.93Z" transform="translate(0 -0.59)"/><path class="cls-10" d="M87.71,303.75a11.42,11.42,0,0,1-4-9.15c0-.4,0-1.09.15-2.1l.22-1.94a1.25,1.25,0,0,1,.34-.64.86.86,0,0,1,.64-.26h8.4a.73.73,0,0,1,.6.26.74.74,0,0,1,.14.64L93.93,292a5.16,5.16,0,0,0,1.39,4.42,6.44,6.44,0,0,0,4.83,1.73A6.64,6.64,0,0,0,105,296.4a5.83,5.83,0,0,0,1.76-4.34,4.46,4.46,0,0,0-1.69-3.49,41.51,41.51,0,0,0-6.26-4,65.47,65.47,0,0,1-6.18-3.9,15.68,15.68,0,0,1-4.05-4.39,11.76,11.76,0,0,1-1.69-6.41,15.8,15.8,0,0,1,2.33-8.58,15.46,15.46,0,0,1,6.41-5.74,20.22,20.22,0,0,1,9.11-2q6.81,0,10.87,3.56a12.1,12.1,0,0,1,4.05,9.56q0,.6-.15,2.1l-.15,1.5a1.29,1.29,0,0,1-.34.64.9.9,0,0,1-.64.26H110a.77.77,0,0,1-.61-.26.72.72,0,0,1-.15-.64l.15-1.35a3.94,3.94,0,0,0,.08-.9,5.12,5.12,0,0,0-1.61-3.86,6.18,6.18,0,0,0-4.46-1.54,6.5,6.5,0,0,0-4.54,1.61,5.78,5.78,0,0,0-1.76,4.46,4.61,4.61,0,0,0,1.72,3.6,40.33,40.33,0,0,0,6.38,4.05l1.5.9c2.39,1.55,4.27,2.85,5.62,3.9a13.74,13.74,0,0,1,3.37,3.82,10.31,10.31,0,0,1,1.35,5.4,20.18,20.18,0,0,1-.15,2,15.79,15.79,0,0,1-5.77,10.83,19,19,0,0,1-12.37,4Q91.76,307.2,87.71,303.75Z" transform="translate(0 -0.59)"/><path class="cls-10" d="M121.37,305.7,127.59,255a1.15,1.15,0,0,1,.38-.64,1,1,0,0,1,.67-.26h8.47a.76.76,0,0,1,.6.26.72.72,0,0,1,.15.64l-6.22,50.68a1.21,1.21,0,0,1-.34.64.86.86,0,0,1-.63.26h-8.48C121.64,306.6,121.37,306.3,121.37,305.7Z" transform="translate(0 -0.59)"/><path class="cls-10" d="M144.12,303.41a13.21,13.21,0,0,1-4-10.08c0-.55,0-1.37.15-2.47l2.63-21.07a19,19,0,0,1,3.11-8.55,17.1,17.1,0,0,1,6.52-5.7,19.58,19.58,0,0,1,9-2q6.83,0,10.87,3.71a12.55,12.55,0,0,1,4.05,9.71c0,.45-.05,1.17-.15,2.17l-.22,1.65a1.32,1.32,0,0,1-.34.64.86.86,0,0,1-.64.26h-8.47a.73.73,0,0,1-.6-.26.72.72,0,0,1-.15-.64l.15-1.57a4.6,4.6,0,0,0,.07-1,5.59,5.59,0,0,0-1.5-4,5.42,5.42,0,0,0-4.12-1.58,6.87,6.87,0,0,0-5,2,8.17,8.17,0,0,0-2.4,5.1l-2.62,21.44a6.13,6.13,0,0,0-.08,1.12,5.84,5.84,0,0,0,1.62,4.32,5.72,5.72,0,0,0,4.23,1.61,6.79,6.79,0,0,0,7.05-6.45l.6-4.65c0-.25-.1-.37-.3-.37h-5.7a.74.74,0,0,1-.6-.27.7.7,0,0,1-.15-.63l.83-6.82a1.23,1.23,0,0,1,.33-.64.86.86,0,0,1,.64-.26H174.3a.73.73,0,0,1,.6.26.72.72,0,0,1,.15.64l-1.5,11.92a18,18,0,0,1-6,11.92A18.54,18.54,0,0,1,155,307.2Q148.14,307.2,144.12,303.41Z" transform="translate(0 -0.59)"/><path class="cls-10" d="M210.17,254.38a.9.9,0,0,1,.64-.26h8.47a.76.76,0,0,1,.6.26.72.72,0,0,1,.15.64l-6.22,50.68a1.21,1.21,0,0,1-.34.64.88.88,0,0,1-.63.26H204a.93.93,0,0,1-1-.67l-10.12-30.52c-.1-.15-.2-.22-.3-.22s-.15.1-.15.3l-3.67,30.21a1.21,1.21,0,0,1-.34.64.88.88,0,0,1-.63.26h-8.4c-.55,0-.83-.3-.83-.9L184.8,255a1.14,1.14,0,0,1,.37-.64,1,1,0,0,1,.68-.26h8.77a.88.88,0,0,1,.9.67l10.19,30.52c0,.15.13.22.23.22s.17-.1.22-.3L209.84,255A1.27,1.27,0,0,1,210.17,254.38Z" transform="translate(0 -0.59)"/><path class="cls-10" d="M15.81,233.1l-5.17-50.76v-.15c0-.55.32-.82,1-.82h8.92a.73.73,0,0,1,.83.82l2,28.79c0,.15.06.23.19.23s.21-.08.26-.23l8.77-28.79a1,1,0,0,1,1-.82h8.1a.73.73,0,0,1,.83.82L44.9,211c0,.15.06.23.19.23s.21-.08.26-.23l8.77-28.79a1,1,0,0,1,1.05-.82h8.55c.6,0,.8.32.6,1L47.52,233a1,1,0,0,1-1.05.83H38.23a.74.74,0,0,1-.83-.83l-2.25-30.13c0-.15,0-.23-.15-.23s-.17.08-.22.23l-9,30.13a1,1,0,0,1-1.05.83h-8A.9.9,0,0,1,15.81,233.1Z" transform="translate(0 -0.59)"/><path class="cls-10" d="M99.37,190.18a.9.9,0,0,1-.64.26H79.24c-.21,0-.35.13-.45.37l-1.43,11.7c0,.25.1.38.3.38H89.81a.73.73,0,0,1,.6.26.7.7,0,0,1,.15.63l-.83,7.28a1.14,1.14,0,0,1-.37.64,1,1,0,0,1-.68.26H76.54a.38.38,0,0,0-.38.37l-1.5,12.07c0,.25.1.38.3.38h19.5c.54,0,.82.3.82.9l-.9,7.27a1.21,1.21,0,0,1-.34.64.86.86,0,0,1-.63.26H64.17c-.55,0-.83-.3-.83-.9l6.22-50.68a1.15,1.15,0,0,1,.38-.64,1,1,0,0,1,.67-.26H99.85a.76.76,0,0,1,.6.26.72.72,0,0,1,.15.64l-.9,7.27A1.27,1.27,0,0,1,99.37,190.18Z" transform="translate(0 -0.59)"/><path class="cls-10" d="M129.65,230.1a19.22,19.22,0,0,1-12,3.75H101.35c-.55,0-.82-.3-.82-.9l6.22-50.68a1.1,1.1,0,0,1,.38-.64,1,1,0,0,1,.67-.26h15.14q7.05,0,10.91,3t3.86,9c0,.45-.05,1.27-.15,2.47q-.9,7.43-6.89,10.72-.37.3-.15.45,5,3.3,5,9.9c0,.45,0,1.23-.15,2.32Q134.57,226.35,129.65,230.1Zm-6.59-7.16a9.32,9.32,0,0,0,2.36-6.26,5.74,5.74,0,0,0-1.43-4.12,5.32,5.32,0,0,0-4-1.5h-6.07c-.2,0-.35.12-.45.37l-1.57,12.9a.32.32,0,0,0,.37.37h6.08A6.57,6.57,0,0,0,123.06,222.94ZM116,190.81l-1.42,11.78c0,.25.1.37.3.37h5.55a6.67,6.67,0,0,0,7-6.22,5.58,5.58,0,0,0,.08-1.05,5.07,5.07,0,0,0-1.46-3.86,5.82,5.82,0,0,0-4.17-1.39h-5.47C116.22,190.44,116.07,190.57,116,190.81Z" transform="translate(0 -0.59)"/></g></g><path class="cls-6" d="M0,298.48,6.22,247.8a1.15,1.15,0,0,1,.38-.64,1,1,0,0,1,.67-.26h15.6q6.81,0,10.75,3.49a11.91,11.91,0,0,1,3.94,9.4c0,.46-.05,1.23-.15,2.33l-2.7,22a16.31,16.31,0,0,1-5.85,11.06,18.86,18.86,0,0,1-12.44,4.16H.82c-.55,0-.82-.3-.82-.9m11.62-8.17,6-.08a6.05,6.05,0,0,0,4.57-2A10.09,10.09,0,0,0,24.66,283l2.4-19.64a8.78,8.78,0,0,0,.08-1.35,6.44,6.44,0,0,0-1.39-4.42A5,5,0,0,0,21.82,256H15.89c-.2,0-.35.13-.45.38l-4.12,33.58c0,.25.1.38.3.38" transform="translate(0 -0.59)"/><path class="cls-6" d="M75.76,255.71a.86.86,0,0,1-.64.26H55.63c-.2,0-.35.13-.45.38L53.76,268c0,.25.09.38.29.38H66.2a.73.73,0,0,1,.6.26.72.72,0,0,1,.15.64l-.82,7.27a1.15,1.15,0,0,1-.38.64,1,1,0,0,1-.67.26H52.93a.36.36,0,0,0-.26.11.34.34,0,0,0-.11.26l-1.5,12.07c0,.25.1.38.3.38H70.85c.55,0,.82.3.82.9l-.9,7.27a1.27,1.27,0,0,1-.33.64.9.9,0,0,1-.64.26H40.56c-.55,0-.82-.3-.82-.9L46,247.8a1.14,1.14,0,0,1,.37-.64,1,1,0,0,1,.68-.26H76.25a.76.76,0,0,1,.6.26.72.72,0,0,1,.15.64l-.9,7.27a1.29,1.29,0,0,1-.34.64" transform="translate(0 -0.59)"/><path class="cls-6" d="M81,296.53a11.44,11.44,0,0,1-4-9.14,21,21,0,0,1,.15-2.1l.22-2a1.18,1.18,0,0,1,.34-.64.83.83,0,0,1,.64-.26h8.39a.73.73,0,0,1,.6.26.72.72,0,0,1,.15.64l-.22,1.42a5.18,5.18,0,0,0,1.38,4.42,6.48,6.48,0,0,0,4.84,1.73,6.6,6.6,0,0,0,4.83-1.73,5.8,5.8,0,0,0,1.77-4.34,4.46,4.46,0,0,0-1.69-3.49,41.51,41.51,0,0,0-6.26-4,65.47,65.47,0,0,1-6.18-3.9,15.68,15.68,0,0,1-4-4.39,11.67,11.67,0,0,1-1.69-6.41,15.82,15.82,0,0,1,2.32-8.58A15.58,15.58,0,0,1,89,248.32a20.25,20.25,0,0,1,9.11-2q6.82,0,10.87,3.56a12.1,12.1,0,0,1,4,9.56q0,.6-.15,2.1l-.15,1.5a1.21,1.21,0,0,1-.34.64.86.86,0,0,1-.63.26h-8.4a.76.76,0,0,1-.6-.26.72.72,0,0,1-.15-.64l.15-1.35a3.94,3.94,0,0,0,.08-.9,5.12,5.12,0,0,0-1.61-3.86,6.25,6.25,0,0,0-4.47-1.54A6.45,6.45,0,0,0,92.18,257a5.74,5.74,0,0,0-1.76,4.46,4.61,4.61,0,0,0,1.72,3.6,40.11,40.11,0,0,0,6.37,4l1.5.9c2.4,1.55,4.28,2.85,5.62,3.9a13.77,13.77,0,0,1,3.38,3.82,10.31,10.31,0,0,1,1.35,5.4,20.18,20.18,0,0,1-.15,2A15.83,15.83,0,0,1,104.44,296a19.06,19.06,0,0,1-12.38,4q-7,0-11-3.45" transform="translate(0 -0.59)"/><path class="cls-6" d="M114.71,298.48l6.22-50.68a1.14,1.14,0,0,1,.37-.64,1,1,0,0,1,.68-.26h8.47a.76.76,0,0,1,.6.26.72.72,0,0,1,.15.64L125,298.48a1.29,1.29,0,0,1-.34.64.9.9,0,0,1-.64.26h-8.47c-.55,0-.82-.3-.82-.9" transform="translate(0 -0.59)"/><path class="cls-6" d="M137.46,296.19a13.21,13.21,0,0,1-4-10.08c0-.55.05-1.37.15-2.47l2.62-21.07a19.07,19.07,0,0,1,3.11-8.55,17.13,17.13,0,0,1,6.53-5.7,19.58,19.58,0,0,1,9-2q6.81,0,10.87,3.71a12.55,12.55,0,0,1,4.05,9.71c0,.45-.05,1.17-.15,2.17l-.23,1.65a1.18,1.18,0,0,1-.34.64.82.82,0,0,1-.63.26h-8.48a.73.73,0,0,1-.6-.26.72.72,0,0,1-.15-.64l.15-1.57a4.38,4.38,0,0,0,.08-1,5.62,5.62,0,0,0-1.5-4,5.42,5.42,0,0,0-4.12-1.58,6.87,6.87,0,0,0-5,1.95,8.17,8.17,0,0,0-2.4,5.1l-2.62,21.44a5.39,5.39,0,0,0-.08,1.13,5.86,5.86,0,0,0,1.61,4.31,5.76,5.76,0,0,0,4.24,1.61,6.79,6.79,0,0,0,7.05-6.45l.6-4.65c0-.25-.11-.37-.3-.37h-5.7a.76.76,0,0,1-.6-.26.72.72,0,0,1-.15-.64l.82-6.82a1.18,1.18,0,0,1,.34-.64.84.84,0,0,1,.64-.26h15.37a.73.73,0,0,1,.6.26.72.72,0,0,1,.15.64l-1.5,11.92a18,18,0,0,1-6,11.92,18.54,18.54,0,0,1-12.6,4.42q-6.82,0-10.83-3.79" transform="translate(0 -0.59)"/><path class="cls-6" d="M203.51,247.16a.9.9,0,0,1,.64-.26h8.47a.76.76,0,0,1,.6.26.72.72,0,0,1,.15.64l-6.22,50.68a1.29,1.29,0,0,1-.34.64.9.9,0,0,1-.64.26h-8.85a.93.93,0,0,1-1-.67l-10.12-30.52c-.1-.15-.2-.22-.3-.22s-.15.1-.15.3l-3.67,30.21a1.29,1.29,0,0,1-.34.64.9.9,0,0,1-.64.26h-8.4c-.55,0-.82-.3-.82-.9l6.22-50.68a1.15,1.15,0,0,1,.38-.64,1,1,0,0,1,.67-.26H188a.88.88,0,0,1,.9.67l10.2,30.52c0,.15.12.22.22.22s.18-.1.23-.3l3.67-30.21a1.21,1.21,0,0,1,.34-.64" transform="translate(0 -0.59)"/><path class="cls-6" d="M9.15,225.88,4,175.12V175c0-.55.33-.82,1-.82h8.92a.72.72,0,0,1,.82.82l2,28.79c0,.15.06.23.19.23s.21-.08.26-.23L25.94,175a1,1,0,0,1,1-.82h8.1a.72.72,0,0,1,.82.82l2.33,28.79c0,.15.06.23.18.23a.28.28,0,0,0,.27-.23L47.46,175a1,1,0,0,1,1-.82h8.54c.6,0,.8.32.6,1L40.86,225.8a1,1,0,0,1-1,.83H31.56a.73.73,0,0,1-.82-.83l-2.25-30.13c0-.15,0-.23-.15-.23s-.18.08-.23.23l-9,30.13a1,1,0,0,1-1.05.83h-8a.9.9,0,0,1-.9-.75" transform="translate(0 -0.59)"/><path class="cls-6" d="M92.7,183a.88.88,0,0,1-.63.26H72.57c-.2,0-.35.13-.45.37l-1.42,11.7c0,.25.1.38.3.38H83.14a.73.73,0,0,1,.6.26.7.7,0,0,1,.15.63l-.82,7.28a1.15,1.15,0,0,1-.38.64,1,1,0,0,1-.67.26H69.87a.34.34,0,0,0-.26.11.36.36,0,0,0-.11.26L68,217.18c0,.25.1.38.3.38H87.79c.55,0,.83.3.83.9l-.9,7.27a1.29,1.29,0,0,1-.34.64.9.9,0,0,1-.64.26H57.5c-.55,0-.82-.3-.82-.9l6.22-50.68a1.15,1.15,0,0,1,.38-.64,1,1,0,0,1,.67-.26H93.19a.76.76,0,0,1,.6.26.72.72,0,0,1,.15.64l-.9,7.27a1.21,1.21,0,0,1-.34.64" transform="translate(0 -0.59)"/><path class="cls-6" d="M123,222.88a19.22,19.22,0,0,1-12,3.75H94.69c-.55,0-.83-.3-.83-.9l6.23-50.68a1.14,1.14,0,0,1,.37-.64,1,1,0,0,1,.68-.26h15.14q7.05,0,10.91,3t3.86,9c0,.45-.05,1.27-.15,2.47Q130,196,124,199.26q-.37.3-.15.45,5,3.3,5,9.9c0,.45-.06,1.23-.15,2.32q-.82,7.2-5.74,10.95m-6.6-7.16a8.21,8.21,0,0,0,2.29-5,8.3,8.3,0,0,0,.07-1.27,5.73,5.73,0,0,0-1.42-4.12,5.32,5.32,0,0,0-4-1.5h-6.07c-.2,0-.35.12-.45.37l-1.57,12.9a.32.32,0,0,0,.37.37h6.07a6.56,6.56,0,0,0,4.76-1.76m-7.08-32.13-1.43,11.77c0,.26.1.38.3.38h5.55a6.67,6.67,0,0,0,7-6.22,5.74,5.74,0,0,0,.07-1.05,5,5,0,0,0-1.46-3.86,5.78,5.78,0,0,0-4.16-1.39h-5.47c-.2,0-.35.13-.45.37" transform="translate(0 -0.59)"/><path class="cls-6" d="M322.25,163.55a4.51,4.51,0,0,0,4.53-4.48v-11.3a2.58,2.58,0,0,0-1.56-2.37l-2.4-1.05,2.38-1a2.61,2.61,0,0,0,1.58-2.38v-8.8a10.74,10.74,0,0,0,4.69-8.89V106.76a2.59,2.59,0,0,0-5.17,0v16.51a5.6,5.6,0,0,1-5.59,5.59H305.59a5.63,5.63,0,0,1-5.62-5.62A12.3,12.3,0,0,0,287.69,111H273.06a4.25,4.25,0,1,1-.1-8.5h25.15a11.06,11.06,0,0,0,11.06-11.06V84.5A1.49,1.49,0,0,1,310.64,83h10.07a5.61,5.61,0,0,1,5.59,5.59v7.1a2.59,2.59,0,0,0,5.17,0v-7.1a10.78,10.78,0,0,0-10.76-10.77H310.64a6.67,6.67,0,0,0-5.95,3.7H253.92a25.5,25.5,0,0,0-25.21,21.67,4.78,4.78,0,0,1-4.74,4.07H210.85l-3.68-3.68a17.57,17.57,0,0,0-12.49-5.18H176.12a20.45,20.45,0,0,0-20.42,20.42v7.39a20.44,20.44,0,0,0,20.42,20.42h3.51a2.59,2.59,0,0,0,0-5.18h-3.51a15.26,15.26,0,0,1-15.24-15.24v-7.38a15.26,15.26,0,0,1,15.24-15.25h18.56a12.41,12.41,0,0,1,8.83,3.66l4.43,4.43a2.59,2.59,0,0,0,1.83.76H224a9.9,9.9,0,0,0,9.85-8.46,20.31,20.31,0,0,1,13.47-16.15v69.4a20.31,20.31,0,0,1-13.47-16.15,9.9,9.9,0,0,0-9.85-8.46h-14.2a2.57,2.57,0,0,0-1.83.76l-4.43,4.43a12.46,12.46,0,0,1-8.83,3.66h-4a2.59,2.59,0,0,0,0,5.17h4a17.51,17.51,0,0,0,12.49-5.17l3.68-3.68H224a4.75,4.75,0,0,1,4.73,4.07,25.52,25.52,0,0,0,25.22,21.67h8.82a2.59,2.59,0,0,0,.11-5.18h-8.93c-.48,0-1,0-1.45-.05V86.79c.48,0,1-.06,1.45-.06H279a.26.26,0,0,1,.26.25v10.3h-6.21a9.43,9.43,0,0,0,0,18.86h6.2v42a.25.25,0,0,1-.25.25h-5.24a2.59,2.59,0,0,0,0,5.18ZM284.44,87a2.09,2.09,0,0,0,0-.25H304V91.4a5.89,5.89,0,0,1-5.88,5.88H284.44Zm0,71.14v-9.33h20a2.59,2.59,0,0,0,.11-5.17H284.44V132.91h4a2.59,2.59,0,0,0,.11-5.18h-4.1V116.14h3.25a7.1,7.1,0,0,1,7.1,7.09A10.82,10.82,0,0,0,305.59,134h15.12c.3,0,.59,0,.89,0v5.24l-6.34,2.69a2.59,2.59,0,0,0-1.58,2.37h0a2.58,2.58,0,0,0,1.56,2.37l6.36,2.79v8.9H284.43a2.09,2.09,0,0,0,0-.25" transform="translate(0 -0.59)"/><path class="cls-6" d="M189,113h-7.66a9.7,9.7,0,0,0-.15,19.4H189a9.7,9.7,0,0,0,.15-19.4Zm0,14.22h-7.66a4.52,4.52,0,1,1,0-9H189a4.52,4.52,0,1,1,0,9" transform="translate(0 -0.59)"/><rect class="cls-1" x="223.4" y="246.05" width="212.04" height="61.01"/></g></g></svg>