<svg xmlns="http://www.w3.org/2000/svg" xmlns:xlink="http://www.w3.org/1999/xlink" viewBox="0 0 434.01 307.65"><defs><style>.cls-1{fill:url(#linear-gradient);}.cls-11,.cls-2,.cls-8{fill:none;}.cls-3{clip-path:url(#clip-path);}.cls-4{fill:url(#linear-gradient-3);}.cls-5{opacity:0.65;}.cls-6{clip-path:url(#clip-path-2);}.cls-7{fill:#fff;}.cls-11,.cls-8{stroke:#fff;}.cls-8{stroke-width:1.5px;}.cls-9{opacity:0.5;}.cls-10{clip-path:url(#clip-path-3);}.cls-11{stroke-width:2px;}</style><linearGradient id="linear-gradient" x1="242.2" y1="25.02" x2="242.2" y2="218.31" gradientUnits="userSpaceOnUse"><stop offset="0" stop-color="#11631d"/><stop offset="1" stop-color="#11631d" stop-opacity="0.1"/></linearGradient><clipPath id="clip-path" transform="translate(0 -0.59)"><path class="cls-1" d="M260.88,214.34h0m13.5-187c-.58,1.1-1,2.37-1.55,3.51-1.22,2.62-2.48,3.92-4.28,3.57-5.28-1-10.16,3.28-15.47,4-3.61.51-8,1.4-11.53.38-1.87-.53-2-1.4-3.06-4.41-1.67-4.86-4.63-3.37-7.58-1.88-1.76.89-3.51,1.77-5,1.33-3.07-.92-5.48-4.39-8.45-1.19-2.07,2.24-3.36,1.81-5.53,1.42-1.31-.24-1-1.47-2.31.54-.27.41-.39,1.47-.67,1.93a5.8,5.8,0,0,1-1.81,2.13c-2.15,1.3-4.79-.56-6.94-1.44s-5.14-.3-7-2.38a14,14,0,0,1-1.45-3c-1.19-2.43-1.32-3.06-2.31-.89.45-1-.48,1.93-.77,2.52a4.51,4.51,0,0,1-2.21,2.18c-2.14.9-2.89-2.09-4.84-2.74a11.83,11.83,0,0,0-4.38-.3,17,17,0,0,1-3.2,0c-2.37-.34-4.52-4.13-6.9-3.16-2.56,1-4.63,4.95-7.32,5.52a7,7,0,0,1-3.91-.72,6.72,6.72,0,0,0-3.94-.69c-1.23.29-2.17,1.2-3.39.58-1-.48-1.69-2.09-2.5-2.39a1.79,1.79,0,0,0-1.18.22,2.07,2.07,0,0,1-1.17.25c-1.08-.25-2-1.78-3.06-2.09a4.06,4.06,0,0,0-2.23.07,2.91,2.91,0,0,1-3.12-.62c-1.38-1.22-4.17-3.89-5.81-4.07-1.82-.19-2.79,6.38-4.85,7.61a3.63,3.63,0,0,1-2.13.33,8.05,8.05,0,0,0-5.62,2.2,15.11,15.11,0,0,1-13.36,2.86c-2.74-.66-2-2.92-3.7-6.39-1.54-3.08-4-.65-5.94,1,0,0,0,0,0,.06l-.18.17v0l-.57.47A1.19,1.19,0,0,1,92,34c-1.45.18-2.5-.75-3.76-1.6a4.53,4.53,0,0,1-1.7,1.49,16.73,16.73,0,0,1-1.28,5.62,71,71,0,0,0-3,8.86c-.83,3.28-.17,5-.63,8.14a15.11,15.11,0,0,1-1.35,3.89,6.47,6.47,0,0,1,.09,1.08A7.9,7.9,0,0,1,80,64.14c.52,4.4,1.74,6.79,3.57,10.14,2,3.68.48,5,.58,10.15.06,3.52.95,6.88,1.14,10.41.16,3,0,5.67.42,8.57a139.62,139.62,0,0,1,1,15.51,6.09,6.09,0,0,1,.17,6.4c.09,4,.37,9.6-.18,12.9s-2,3.17-3.15,5.15c-2.73,4.71.19,12.46.69,18.36.7,8.14-1.23,14.43-1.58,22.28-.19,4.32,1.68,7.62,2.4,11.38.89,4.65.6,9.92,3.31,12.11a3.38,3.38,0,0,0,2.34.53c1.06,0,2.13-.05,2.91,1.14,1.31,2,.34,4.45,1.13,6.72,1.28,3.72,5.79-1.95,7.57-2.79a16.65,16.65,0,0,0,6.11-4.29c1-1.12,2.16-2,3.35-1.47,1.65.76,2.37,3.91,3.18,6.77.66-.17,1.3-.19,1.86-.33,1.89-.49,3.79-4.05,5.77-2.35,1.4,1.22,1.45,4.81,3,5.77.61.4,1.49.12,2.33-.15a4.85,4.85,0,0,1,1.52-.34,8.76,8.76,0,0,0,3.55-.55c1-.37,1.89-1,3-.33s1.63,1.72,2.67,1.86a11.15,11.15,0,0,0,2.16,0,14.27,14.27,0,0,1,1.72-.06c1.49.08,2.43-.93,3.82-1.33a3.56,3.56,0,0,1,1.87.06,2.6,2.6,0,0,0,2.75-.56c2-1.82,3-5.32,5.43-4.3a2.74,2.74,0,0,1,1.43,1c.09.15.18.32.26.48,1.44-1.15,3.1-1.25,4.07.9.83.81,1.27,2.24,2.4,3.36,1.94,1.92,5,.67,7,.11a18.52,18.52,0,0,0,8-4.49c2.21-2,4.42-4.62,6.82-5.5a4.17,4.17,0,0,1,3.24.21c.82,0,1,.44.7,1.23q.7-.61,1.44-1.17a7.33,7.33,0,0,1,4.33-.06,11,11,0,0,0,2.93.28c4.85-.44,10.17-3.27,15-2a8.23,8.23,0,0,1,5.57,4c1,1.73,1.26,3.91,2.5,5,.07-.19.15-.43.25-.73,2.29-6.63,6.34-8.53,8.71-1.92,1,2.8.71,5.49,2.84,5.29.89-.08,2-1.31,2.85-1.9,2.89-2,5.84-2.12,8.7-3.87,3.71-2.26,6.31-7.74,9.21-3.6a2,2,0,0,1,1.93-.11c1.23.57,1.72,2,2.11,3.16.24.7.85,3.59.4,1.32,0,0,.32.66.41.89a2.51,2.51,0,0,1,.16.46c.47.29.94.52,1.21.42-.59.22,1.51-3.4,1.53-3.44,1.16-1.84,2.28-3.36,3.86-2.84,2,.67,1.81,2.77,2.78,5.84,1.24,3.94,2.95,3.41,4.78,3,1.56-2.71,3.36-2.7,5.32-1.31-.68-.48-.11-.22.45.43,1.24-1.11,2.19-2.88,4-2,.8.38,1.56,1.31,1.52,3.25,0,.49,4.21.12,8.23-.25a51.86,51.86,0,0,1,7-.44c1.83.53,1.67.29,3.1-1.44a20.75,20.75,0,0,1,4.11-3.72c2.26-1.57,3.44-.5,5.11,1.82a2.24,2.24,0,0,1,1.91.08c1.15-1.37,2.26-2.36,3.83-.86s2.39,4,4.18,4.83c2.37,1.11,4.53.32,6.9-.26,2.21-.53,3.9-.21,6.12-1.31,2.84-1.4,5.34-3.76,8.07-5.68,2.39-1.69,5.34-3.62,7.88-2.76a7.26,7.26,0,0,1,3.13,1.53,4.47,4.47,0,0,1,.32.41s0-.05.06-.06c.42-.35.75-1.07,1.18-1.42,1.22-1,4.67-1.82,5.85.61,3.73-.29,7.45-1.59,11.18-1.67s7.43-1.14,11.17-.88a9.66,9.66,0,0,1,7.65,4.1c.92,1.25,2,2.86,2.91,4.34.44-.64,1-1.33,1.15-1.64,2.15-4.74,2.21-13,3.38-18.86a26.56,26.56,0,0,1,2.21-5.9c2.38-5.72,1.46-7.58-.6-12-1.25-2.65-2.34-5.58-.88-8.94.7-1.62,2-1.66,2.69-3.1a37,37,0,0,0,1-8.84,7.16,7.16,0,0,1-.09-.92c-.42-3.92-1.56-6.84-1.82-10.93s-.23-8.16-.87-12.26c-.58-3.81-2.36-8.48-2.3-12.66a12.37,12.37,0,0,1,1.28-5.23,6.36,6.36,0,0,1,0-4.48,17,17,0,0,1,1.19-2.23c1.1-1.89,1.29-1.31,1.44-3.51.47-6.87-1.95-6.23-2.91-10.94a8.59,8.59,0,0,1,.61-5.38c1.62-3.61,4-2.85,3.91-9.42,0-2.73-.38-5.25-.5-7.89a3.73,3.73,0,0,1-1.07-2.62,7.62,7.62,0,0,1,.18-2.13c-.17.47-.14,0-.08-.49s.21-1.19.14,0c0,.18,0,.34-.06.5,0-.06,0-.11.06-.19a27.91,27.91,0,0,1,1.1-3.23c-.44-3.78-2.64-7.79-2.89-12.23-.07-1.19.53-5.36.26-6.24-.41-1.32-2.34-.55-3.08-2.08a5,5,0,0,1-.21-.48C396,37,393,30.2,390.76,31.55c-1.23.76-2.21,2.5-3.54,3a6.58,6.58,0,0,1-4.4.08,5.87,5.87,0,0,1-2-1c-1-.84-.53-1.63-1.1-.94-.71.88-1.06,4.27-1.93,5.52-1.74,2.48-3.68,1.41-5.54.22-2.49-1.58-4.83-.76-7.32-2.29-1.87-1.15-2.11-.5-3.91,0a2.54,2.54,0,0,1-2.66-.9c-1.1-1.18-2.49-6.77-3.82-6.09-.51.25-1.84,5.51-2.63,6.48a3.82,3.82,0,0,1-5.17.85c-1-.07-1.82-.8-2.6-2.6a3.43,3.43,0,0,1-.23-1.09,8.45,8.45,0,0,0-2.6-.19,7,7,0,0,1-1.81-.09c-1.42-.39-2.52-.85-4-.35-1.22.41-2.15,1.12-3.39.72-1.52-.48-2.72-2.53-4.24-3.17-2.68-1.14-4.89,1-7.29,3l-.23.18-.2.18c-.36.33-.67.87-1,1.21a3.13,3.13,0,0,1-2.22.87,24.08,24.08,0,0,1-8-1c-1.14-.36-2.14-1.14-3.26-.5s-1.69,2.25-3,2.38c-1,.1-1.62-.5-2.53-1.46-1.57-1.67-2.36-2.2-4.13-2.16a5.94,5.94,0,0,1-3.45-1.12c-1.21-.8-2-2-3.47-1.18-.38.22-.65,1.1-1.06,1.31-2,1.05-2.64.95-4.41-1-2.32-2.57-4.43-2.06-6.75-4.4-.65-.66-.93-1.06-1.17-1.06s-.55.65-1.4,2.27"/></clipPath><linearGradient id="linear-gradient-3" x1="242.25" y1="24.43" x2="242.25" y2="219.02" xlink:href="#linear-gradient"/><clipPath id="clip-path-2" transform="translate(0 -0.59)"><rect class="cls-2" x="69.22" width="321.12" height="193.55"/></clipPath><clipPath id="clip-path-3" transform="translate(0 -0.59)"><rect class="cls-2" x="5.71" y="180.43" width="343.32" height="127.76"/></clipPath></defs><title>Asset 17</title><g id="Layer_2" data-name="Layer 2"><g id="Layer_1-2" data-name="Layer 1"><path class="cls-1" d="M260.88,214.34h0m13.5-187c-.58,1.1-1,2.37-1.55,3.51-1.22,2.62-2.48,3.92-4.28,3.57-5.28-1-10.16,3.28-15.47,4-3.61.51-8,1.4-11.53.38-1.87-.53-2-1.4-3.06-4.41-1.67-4.86-4.63-3.37-7.58-1.88-1.76.89-3.51,1.77-5,1.33-3.07-.92-5.48-4.39-8.45-1.19-2.07,2.24-3.36,1.81-5.53,1.42-1.31-.24-1-1.47-2.31.54-.27.41-.39,1.47-.67,1.93a5.8,5.8,0,0,1-1.81,2.13c-2.15,1.3-4.79-.56-6.94-1.44s-5.14-.3-7-2.38a14,14,0,0,1-1.45-3c-1.19-2.43-1.32-3.06-2.31-.89.45-1-.48,1.93-.77,2.52a4.51,4.51,0,0,1-2.21,2.18c-2.14.9-2.89-2.09-4.84-2.74a11.83,11.83,0,0,0-4.38-.3,17,17,0,0,1-3.2,0c-2.37-.34-4.52-4.13-6.9-3.16-2.56,1-4.63,4.95-7.32,5.52a7,7,0,0,1-3.91-.72,6.72,6.72,0,0,0-3.94-.69c-1.23.29-2.17,1.2-3.39.58-1-.48-1.69-2.09-2.5-2.39a1.79,1.79,0,0,0-1.18.22,2.07,2.07,0,0,1-1.17.25c-1.08-.25-2-1.78-3.06-2.09a4.06,4.06,0,0,0-2.23.07,2.91,2.91,0,0,1-3.12-.62c-1.38-1.22-4.17-3.89-5.81-4.07-1.82-.19-2.79,6.38-4.85,7.61a3.63,3.63,0,0,1-2.13.33,8.05,8.05,0,0,0-5.62,2.2,15.11,15.11,0,0,1-13.36,2.86c-2.74-.66-2-2.92-3.7-6.39-1.54-3.08-4-.65-5.94,1,0,0,0,0,0,.06l-.18.17v0l-.57.47A1.19,1.19,0,0,1,92,34c-1.45.18-2.5-.75-3.76-1.6a4.53,4.53,0,0,1-1.7,1.49,16.73,16.73,0,0,1-1.28,5.62,71,71,0,0,0-3,8.86c-.83,3.28-.17,5-.63,8.14a15.11,15.11,0,0,1-1.35,3.89,6.47,6.47,0,0,1,.09,1.08A7.9,7.9,0,0,1,80,64.14c.52,4.4,1.74,6.79,3.57,10.14,2,3.68.48,5,.58,10.15.06,3.52.95,6.88,1.14,10.41.16,3,0,5.67.42,8.57a139.62,139.62,0,0,1,1,15.51,6.09,6.09,0,0,1,.17,6.4c.09,4,.37,9.6-.18,12.9s-2,3.17-3.15,5.15c-2.73,4.71.19,12.46.69,18.36.7,8.14-1.23,14.43-1.58,22.28-.19,4.32,1.68,7.62,2.4,11.38.89,4.65.6,9.92,3.31,12.11a3.38,3.38,0,0,0,2.34.53c1.06,0,2.13-.05,2.91,1.14,1.31,2,.34,4.45,1.13,6.72,1.28,3.72,5.79-1.95,7.57-2.79a16.65,16.65,0,0,0,6.11-4.29c1-1.12,2.16-2,3.35-1.47,1.65.76,2.37,3.91,3.18,6.77.66-.17,1.3-.19,1.86-.33,1.89-.49,3.79-4.05,5.77-2.35,1.4,1.22,1.45,4.81,3,5.77.61.4,1.49.12,2.33-.15a4.85,4.85,0,0,1,1.52-.34,8.76,8.76,0,0,0,3.55-.55c1-.37,1.89-1,3-.33s1.63,1.72,2.67,1.86a11.15,11.15,0,0,0,2.16,0,14.27,14.27,0,0,1,1.72-.06c1.49.08,2.43-.93,3.82-1.33a3.56,3.56,0,0,1,1.87.06,2.6,2.6,0,0,0,2.75-.56c2-1.82,3-5.32,5.43-4.3a2.74,2.74,0,0,1,1.43,1c.09.15.18.32.26.48,1.44-1.15,3.1-1.25,4.07.9.83.81,1.27,2.24,2.4,3.36,1.94,1.92,5,.67,7,.11a18.52,18.52,0,0,0,8-4.49c2.21-2,4.42-4.62,6.82-5.5a4.17,4.17,0,0,1,3.24.21c.82,0,1,.44.7,1.23q.7-.61,1.44-1.17a7.33,7.33,0,0,1,4.33-.06,11,11,0,0,0,2.93.28c4.85-.44,10.17-3.27,15-2a8.23,8.23,0,0,1,5.57,4c1,1.73,1.26,3.91,2.5,5,.07-.19.15-.43.25-.73,2.29-6.63,6.34-8.53,8.71-1.92,1,2.8.71,5.49,2.84,5.29.89-.08,2-1.31,2.85-1.9,2.89-2,5.84-2.12,8.7-3.87,3.71-2.26,6.31-7.74,9.21-3.6a2,2,0,0,1,1.93-.11c1.23.57,1.72,2,2.11,3.16.24.7.85,3.59.4,1.32,0,0,.32.66.41.89a2.51,2.51,0,0,1,.16.46c.47.29.94.52,1.21.42-.59.22,1.51-3.4,1.53-3.44,1.16-1.84,2.28-3.36,3.86-2.84,2,.67,1.81,2.77,2.78,5.84,1.24,3.94,2.95,3.41,4.78,3,1.56-2.71,3.36-2.7,5.32-1.31-.68-.48-.11-.22.45.43,1.24-1.11,2.19-2.88,4-2,.8.38,1.56,1.31,1.52,3.25,0,.49,4.21.12,8.23-.25a51.86,51.86,0,0,1,7-.44c1.83.53,1.67.29,3.1-1.44a20.75,20.75,0,0,1,4.11-3.72c2.26-1.57,3.44-.5,5.11,1.82a2.24,2.24,0,0,1,1.91.08c1.15-1.37,2.26-2.36,3.83-.86s2.39,4,4.18,4.83c2.37,1.11,4.53.32,6.9-.26,2.21-.53,3.9-.21,6.12-1.31,2.84-1.4,5.34-3.76,8.07-5.68,2.39-1.69,5.34-3.62,7.88-2.76a7.26,7.26,0,0,1,3.13,1.53,4.47,4.47,0,0,1,.32.41s0-.05.06-.06c.42-.35.75-1.07,1.18-1.42,1.22-1,4.67-1.82,5.85.61,3.73-.29,7.45-1.59,11.18-1.67s7.43-1.14,11.17-.88a9.66,9.66,0,0,1,7.65,4.1c.92,1.25,2,2.86,2.91,4.34.44-.64,1-1.33,1.15-1.64,2.15-4.74,2.21-13,3.38-18.86a26.56,26.56,0,0,1,2.21-5.9c2.38-5.72,1.46-7.58-.6-12-1.25-2.65-2.34-5.58-.88-8.94.7-1.62,2-1.66,2.69-3.1a37,37,0,0,0,1-8.84,7.16,7.16,0,0,1-.09-.92c-.42-3.92-1.56-6.84-1.82-10.93s-.23-8.16-.87-12.26c-.58-3.81-2.36-8.48-2.3-12.66a12.37,12.37,0,0,1,1.28-5.23,6.36,6.36,0,0,1,0-4.48,17,17,0,0,1,1.19-2.23c1.1-1.89,1.29-1.31,1.44-3.51.47-6.87-1.95-6.23-2.91-10.94a8.59,8.59,0,0,1,.61-5.38c1.62-3.61,4-2.85,3.91-9.42,0-2.73-.38-5.25-.5-7.89a3.73,3.73,0,0,1-1.07-2.62,7.62,7.62,0,0,1,.18-2.13c-.17.47-.14,0-.08-.49s.21-1.19.14,0c0,.18,0,.34-.06.5,0-.06,0-.11.06-.19a27.91,27.91,0,0,1,1.1-3.23c-.44-3.78-2.64-7.79-2.89-12.23-.07-1.19.53-5.36.26-6.24-.41-1.32-2.34-.55-3.08-2.08a5,5,0,0,1-.21-.48C396,37,393,30.2,390.76,31.55c-1.23.76-2.21,2.5-3.54,3a6.58,6.58,0,0,1-4.4.08,5.87,5.87,0,0,1-2-1c-1-.84-.53-1.63-1.1-.94-.71.88-1.06,4.27-1.93,5.52-1.74,2.48-3.68,1.41-5.54.22-2.49-1.58-4.83-.76-7.32-2.29-1.87-1.15-2.11-.5-3.91,0a2.54,2.54,0,0,1-2.66-.9c-1.1-1.18-2.49-6.77-3.82-6.09-.51.25-1.84,5.51-2.63,6.48a3.82,3.82,0,0,1-5.17.85c-1-.07-1.82-.8-2.6-2.6a3.43,3.43,0,0,1-.23-1.09,8.45,8.45,0,0,0-2.6-.19,7,7,0,0,1-1.81-.09c-1.42-.39-2.52-.85-4-.35-1.22.41-2.15,1.12-3.39.72-1.52-.48-2.72-2.53-4.24-3.17-2.68-1.14-4.89,1-7.29,3l-.23.18-.2.18c-.36.33-.67.87-1,1.21a3.13,3.13,0,0,1-2.22.87,24.08,24.08,0,0,1-8-1c-1.14-.36-2.14-1.14-3.26-.5s-1.69,2.25-3,2.38c-1,.1-1.62-.5-2.53-1.46-1.57-1.67-2.36-2.2-4.13-2.16a5.94,5.94,0,0,1-3.45-1.12c-1.21-.8-2-2-3.47-1.18-.38.22-.65,1.1-1.06,1.31-2,1.05-2.64.95-4.41-1-2.32-2.57-4.43-2.06-6.75-4.4-.65-.66-.93-1.06-1.17-1.06s-.55.65-1.4,2.27" transform="translate(0 -0.59)"/><g class="cls-3"><rect class="cls-4" x="80.03" y="24.43" width="324.43" height="194.59"/></g><g class="cls-5"><g class="cls-6"><path class="cls-7" d="M71,191.89H388V2.25H71ZM69.34.59H389.63v193H69.34Z" transform="translate(0 -0.59)"/><ellipse class="cls-8" cx="89.82" cy="18.06" rx="5.83" ry="5.55"/><path class="cls-8" d="M115.09,13.1a5.55,5.55,0,1,1-5.55,5.55A5.54,5.54,0,0,1,115.09,13.1Z" transform="translate(0 -0.59)"/><path class="cls-8" d="M140.64,13.1a5.55,5.55,0,1,1-5.56,5.55A5.54,5.54,0,0,1,140.64,13.1Z" transform="translate(0 -0.59)"/><rect class="cls-8" x="70.66" y="0.85" width="318.25" height="33.88"/></g></g><g class="cls-9"><g class="cls-10"><path class="cls-11" d="M42.15,254.15h8.47a.76.76,0,0,1,.6.26.72.72,0,0,1,.15.64l-6.22,50.68a1.14,1.14,0,0,1-.34.64.84.84,0,0,1-.64.26H35.63a.73.73,0,0,1-.6-.26.71.71,0,0,1-.15-.64l4-33.29c0-.2,0-.31-.08-.33s-.2,0-.3.18l-8.1,11.4a1.23,1.23,0,0,1-1.12.6H27.68a1,1,0,0,1-1-.6l-5.25-11.4q-.15-.23-.3-.18t-.15.33l-4.12,33.29a1.14,1.14,0,0,1-.34.64.82.82,0,0,1-.63.26H7.43a.73.73,0,0,1-.6-.26.71.71,0,0,1-.15-.64l6.23-50.68a.83.83,0,0,1,.3-.64,1,1,0,0,1,.67-.26h8.4a.92.92,0,0,1,1,.6l6.9,14.77q.15.45.45,0L41,254.75A1.25,1.25,0,0,1,42.15,254.15Z" transform="translate(0 -0.59)"/><path class="cls-11" d="M78.59,305.88l-.82-7.34a.27.27,0,0,0-.3-.3H63.89c-.15,0-.29.1-.44.3l-2.55,7.34a1.07,1.07,0,0,1-1,.75H51.07c-.7,0-.9-.32-.6-1L69.74,254.9a1.12,1.12,0,0,1,1.13-.75H81.44a.78.78,0,0,1,.9.75l6.9,50.76c0,.65-.3,1-.9,1H79.49A.78.78,0,0,1,78.59,305.88ZM66.82,290.06h9.6a.4.4,0,0,0,.45-.45l-2.4-21.74q0-.3-.15-.3c-.1,0-.18.1-.23.3l-7.57,21.74Q66.44,290.06,66.82,290.06Z" transform="translate(0 -0.59)"/><path class="cls-11" d="M117.51,305.88l-4.8-20.69c-.1-.2-.23-.3-.38-.3h-4.57a.33.33,0,0,0-.38.37l-2.55,20.47a1.23,1.23,0,0,1-.33.64.86.86,0,0,1-.64.26H95.39c-.56,0-.83-.3-.83-.9l6.22-50.68a1.12,1.12,0,0,1,.38-.64,1,1,0,0,1,.67-.26h17.7q5.93,0,9.37,3.56t3.45,9.56a17.84,17.84,0,0,1-.15,2.7,17.34,17.34,0,0,1-3,8.32,15.45,15.45,0,0,1-6.42,5.25.36.36,0,0,0-.22.53l5.62,21.51v.3q0,.75-.9.75h-8.84Q117.57,306.63,117.51,305.88ZM110,263.59l-1.58,12.83c0,.25.1.37.3.37h6.38a6.34,6.34,0,0,0,5-2.21,8.5,8.5,0,0,0,1.94-5.81,5.64,5.64,0,0,0-1.42-4,5,5,0,0,0-3.83-1.5h-6.29C110.26,263.22,110.11,263.35,110,263.59Z" transform="translate(0 -0.59)"/><path class="cls-11" d="M134,305.73l6.22-50.68a1.15,1.15,0,0,1,.38-.64,1,1,0,0,1,.67-.26h8.47a.74.74,0,0,1,.6.26.73.73,0,0,1,.16.64L148.1,275c0,.15,0,.25.11.3s.21,0,.26-.15L164,254.75a1.37,1.37,0,0,1,1.13-.6h9.37c.45,0,.67.15.67.45a1.26,1.26,0,0,1-.22.6l-16.12,21.52a1.24,1.24,0,0,0-.08.52l10.8,28.34a.89.89,0,0,1,.08.38c0,.45-.28.67-.83.67h-9.37a.88.88,0,0,1-.9-.67l-7.8-20.55c-.15-.3-.33-.3-.52,0l-3.9,4.88a1.15,1.15,0,0,0-.15.45l-1.88,15a1.14,1.14,0,0,1-.34.64.82.82,0,0,1-.63.26h-8.48C134.27,306.63,134,306.33,134,305.73Z" transform="translate(0 -0.59)"/><path class="cls-11" d="M210.67,263a.9.9,0,0,1-.64.26h-19.5c-.2,0-.34.13-.45.37l-1.42,11.7c0,.25.1.38.3.38h12.15a.73.73,0,0,1,.6.26.72.72,0,0,1,.15.64l-.83,7.27a1.14,1.14,0,0,1-.37.64,1,1,0,0,1-.68.26H187.84a.39.39,0,0,0-.27.11.38.38,0,0,0-.11.26L186,297.19c0,.25.1.37.3.37h19.5c.55,0,.82.3.82.9l-.9,7.27a1.18,1.18,0,0,1-.34.64.82.82,0,0,1-.63.26H175.46c-.55,0-.82-.3-.82-.9l6.22-50.68a1.12,1.12,0,0,1,.38-.64,1,1,0,0,1,.67-.26h29.24a.76.76,0,0,1,.6.26.72.72,0,0,1,.15.64l-.89,7.27A1.37,1.37,0,0,1,210.67,263Z" transform="translate(0 -0.59)"/><path class="cls-11" d="M250.44,254.41a.72.72,0,0,1,.15.64l-.9,7.34a1.2,1.2,0,0,1-.33.64.87.87,0,0,1-.64.27h-11.1a.38.38,0,0,0-.37.37l-5.18,42.06a1.23,1.23,0,0,1-.33.64.86.86,0,0,1-.64.26h-8.47c-.55,0-.83-.3-.83-.9L227,263.67c.1-.25,0-.37-.3-.37H216a.74.74,0,0,1-.6-.27.71.71,0,0,1-.15-.64l.9-7.34a1.21,1.21,0,0,1,.34-.64.84.84,0,0,1,.64-.26h32.76A.73.73,0,0,1,250.44,254.41Z" transform="translate(0 -0.59)"/><path class="cls-11" d="M250.14,305.73l6.23-50.68a1.08,1.08,0,0,1,.37-.64,1,1,0,0,1,.67-.26h8.48a.76.76,0,0,1,.6.26.72.72,0,0,1,.15.64l-6.23,50.68a1.2,1.2,0,0,1-.33.64.86.86,0,0,1-.64.26H251C250.42,306.63,250.14,306.33,250.14,305.73Z" transform="translate(0 -0.59)"/><path class="cls-11" d="M299.67,254.41a.82.82,0,0,1,.63-.26h8.48a.73.73,0,0,1,.6.26.72.72,0,0,1,.15.64l-6.23,50.68a1.23,1.23,0,0,1-.33.64.86.86,0,0,1-.64.26h-8.85a.92.92,0,0,1-1-.67l-10.13-30.52c-.1-.15-.2-.22-.3-.22s-.15.1-.15.3l-3.67,30.21a1.18,1.18,0,0,1-.34.64.84.84,0,0,1-.63.26h-8.4c-.55,0-.83-.3-.83-.9l6.23-50.68a1.14,1.14,0,0,1,.37-.64,1,1,0,0,1,.68-.26h8.77a.88.88,0,0,1,.9.67l10.2,30.52c.05.15.12.22.22.22s.18-.09.23-.3l3.67-30.21A1.21,1.21,0,0,1,299.67,254.41Z" transform="translate(0 -0.59)"/><path class="cls-11" d="M315.79,303.45a13.21,13.21,0,0,1-4-10.09c0-.55.05-1.37.15-2.47l2.62-21.07a19.07,19.07,0,0,1,3.11-8.55,17.13,17.13,0,0,1,6.53-5.7,19.58,19.58,0,0,1,9-2q6.81,0,10.87,3.71a12.55,12.55,0,0,1,4.05,9.71c0,.45-.05,1.17-.15,2.17l-.23,1.65a1.18,1.18,0,0,1-.34.64.82.82,0,0,1-.63.26h-8.47a.71.71,0,0,1-.6-.26.69.69,0,0,1-.15-.64l.15-1.57a5.39,5.39,0,0,0,.07-1,5.63,5.63,0,0,0-1.5-4.05,5.43,5.43,0,0,0-4.12-1.57,6.87,6.87,0,0,0-5,1.95,8.17,8.17,0,0,0-2.4,5.1l-2.63,21.44a6.38,6.38,0,0,0-.07,1.13,5.54,5.54,0,0,0,5.85,5.92,6.77,6.77,0,0,0,7.05-6.45l.6-4.65c0-.25-.11-.37-.3-.37h-5.7a.76.76,0,0,1-.6-.26.72.72,0,0,1-.15-.64l.82-6.82a1.18,1.18,0,0,1,.34-.64.84.84,0,0,1,.64-.26H346a.73.73,0,0,1,.6.26.72.72,0,0,1,.15.64l-1.5,11.92a18,18,0,0,1-6,11.92,18.54,18.54,0,0,1-12.6,4.42Q319.79,307.23,315.79,303.45Z" transform="translate(0 -0.59)"/><path class="cls-11" d="M15.91,233.12l-5.18-50.76v-.15c0-.55.33-.82,1-.82h8.92a.73.73,0,0,1,.83.82l2,28.79c0,.15.06.23.19.23s.21-.08.26-.23l8.77-28.79a1,1,0,0,1,1-.82h8.1a.72.72,0,0,1,.82.82L45,211c0,.15.06.23.19.23s.21-.08.26-.23l8.77-28.79a1,1,0,0,1,1.05-.82h8.55c.6,0,.8.32.6,1l-16.8,50.69a1,1,0,0,1-1,.82H38.33a.73.73,0,0,1-.83-.82l-2.25-30.14c0-.15,0-.23-.15-.23s-.17.08-.22.23l-9,30.14a1,1,0,0,1-1.05.82h-8A.9.9,0,0,1,15.91,233.12Z" transform="translate(0 -0.59)"/><path class="cls-11" d="M99.47,190.2a.88.88,0,0,1-.63.26H79.34c-.2,0-.35.13-.45.37l-1.42,11.7c0,.25.1.38.29.38H89.91a.73.73,0,0,1,.6.26.72.72,0,0,1,.15.64l-.82,7.27a1.15,1.15,0,0,1-.38.64,1,1,0,0,1-.67.26H76.64a.36.36,0,0,0-.26.11.34.34,0,0,0-.11.26l-1.5,12.08c0,.25.1.37.3.37H94.56c.55,0,.83.3.83.9l-.9,7.27a1.25,1.25,0,0,1-.34.64.86.86,0,0,1-.64.26H64.27c-.55,0-.83-.3-.83-.9l6.23-50.68a1.14,1.14,0,0,1,.37-.64,1,1,0,0,1,.68-.26H100a.76.76,0,0,1,.6.26.72.72,0,0,1,.15.64l-.9,7.27A1.21,1.21,0,0,1,99.47,190.2Z" transform="translate(0 -0.59)"/><path class="cls-11" d="M129.76,230.12a19.22,19.22,0,0,1-12,3.75H101.46c-.55,0-.83-.3-.83-.9l6.23-50.68a1.14,1.14,0,0,1,.37-.64,1,1,0,0,1,.68-.26h15.14q7,0,10.91,3t3.86,9c0,.45,0,1.27-.15,2.47q-.9,7.42-6.89,10.73c-.26.2-.3.35-.15.45q5,3.3,5,9.89c0,.45-.05,1.23-.15,2.33Q134.67,226.38,129.76,230.12ZM123.17,223a9.32,9.32,0,0,0,2.36-6.26,5.74,5.74,0,0,0-1.43-4.12,5.32,5.32,0,0,0-4-1.5H114c-.2,0-.35.12-.45.38L112,224.35a.33.33,0,0,0,.37.38h6.07A6.61,6.61,0,0,0,123.17,223Zm-7.09-32.13-1.42,11.78c0,.25.09.37.29.37h5.55a6.67,6.67,0,0,0,7-6.22,5.58,5.58,0,0,0,.08-1,5,5,0,0,0-1.47-3.86,5.78,5.78,0,0,0-4.16-1.39h-5.47C116.33,190.46,116.18,190.59,116.08,190.83Z" transform="translate(0 -0.59)"/></g></g><path class="cls-7" d="M35.49,246.93H44a.73.73,0,0,1,.6.26.72.72,0,0,1,.15.64l-6.23,50.68a1.23,1.23,0,0,1-.33.64.86.86,0,0,1-.64.26H29a.73.73,0,0,1-.6-.26.72.72,0,0,1-.15-.64l4-33.29c.05-.2,0-.31-.07-.34s-.2,0-.3.19l-8.1,11.4a1.25,1.25,0,0,1-1.13.6H21a1,1,0,0,1-1-.6l-5.25-11.4c-.1-.15-.2-.21-.3-.19s-.15.14-.15.34l-4.12,33.29a1.25,1.25,0,0,1-.34.64.86.86,0,0,1-.64.26H.77a.73.73,0,0,1-.6-.26.72.72,0,0,1-.15-.64l6.22-50.68a.81.81,0,0,1,.3-.64,1,1,0,0,1,.68-.26h8.39a.94.94,0,0,1,1,.6l6.9,14.77q.15.45.45,0l10.42-14.77a1.25,1.25,0,0,1,1.13-.6" transform="translate(0 -0.59)"/><path class="cls-7" d="M71.93,298.66l-.83-7.34a.27.27,0,0,0-.3-.3H57.23a.6.6,0,0,0-.45.3l-2.55,7.34a1.06,1.06,0,0,1-1,.75H44.41c-.7,0-.9-.32-.6-1l19.27-50.76a1.11,1.11,0,0,1,1.12-.75H74.78a.79.79,0,0,1,.9.75l6.89,50.76c0,.65-.3,1-.9,1H72.83a.78.78,0,0,1-.9-.75M60.15,282.84h9.6a.4.4,0,0,0,.45-.45l-2.4-21.74q0-.3-.15-.3c-.1,0-.17.1-.22.3l-7.58,21.74q-.08.45.3.45" transform="translate(0 -0.59)"/><path class="cls-7" d="M110.84,298.66,106,278c-.1-.2-.22-.3-.37-.3h-4.58a.32.32,0,0,0-.37.37l-2.55,20.47a1.18,1.18,0,0,1-.34.64.84.84,0,0,1-.64.26H88.72c-.55,0-.82-.3-.82-.9l6.22-50.68a1.1,1.1,0,0,1,.37-.64,1,1,0,0,1,.68-.26h17.69q5.92,0,9.38,3.56t3.45,9.56a17.84,17.84,0,0,1-.15,2.7,17.35,17.35,0,0,1-3,8.32,15.42,15.42,0,0,1-6.41,5.25.35.35,0,0,0-.23.52l5.63,21.52v.3q0,.75-.9.75h-8.85a.78.78,0,0,1-.9-.75m-7.5-42.29-1.57,12.83c0,.25.1.37.3.37h6.37a6.32,6.32,0,0,0,5-2.21,8.47,8.47,0,0,0,2-5.81,5.64,5.64,0,0,0-1.43-4.05,5,5,0,0,0-3.82-1.5h-6.3c-.2,0-.35.12-.45.37" transform="translate(0 -0.59)"/><path class="cls-7" d="M127.33,298.51l6.23-50.68a1.1,1.1,0,0,1,.37-.64,1,1,0,0,1,.68-.26h8.47a.73.73,0,0,1,.6.26.72.72,0,0,1,.15.64l-2.4,19.94c-.05.15,0,.25.11.3s.22,0,.27-.15l15.52-20.39a1.35,1.35,0,0,1,1.12-.6h9.37c.45,0,.68.15.68.45a1.3,1.3,0,0,1-.23.6L152.15,269.5a1.28,1.28,0,0,0-.07.52l10.8,28.34a1,1,0,0,1,.07.38c0,.45-.27.67-.82.67h-9.38a.88.88,0,0,1-.9-.67l-7.79-20.55c-.15-.3-.33-.3-.53,0l-3.9,4.88a1.15,1.15,0,0,0-.15.45l-1.87,15a1.25,1.25,0,0,1-.34.64.86.86,0,0,1-.64.26h-8.47c-.55,0-.83-.3-.83-.9" transform="translate(0 -0.59)"/><path class="cls-7" d="M204,255.74a.88.88,0,0,1-.63.26h-19.5c-.2,0-.35.12-.45.37L182,268.07c0,.25.1.38.29.38h12.15a.73.73,0,0,1,.6.26.72.72,0,0,1,.15.64l-.82,7.27a1.15,1.15,0,0,1-.38.64,1,1,0,0,1-.67.26H181.17a.36.36,0,0,0-.26.11.34.34,0,0,0-.11.26L179.3,290c0,.25.1.37.3.37h19.49c.55,0,.83.3.83.9l-.9,7.27a1.25,1.25,0,0,1-.34.64.86.86,0,0,1-.64.26H168.8c-.55,0-.83-.3-.83-.9l6.23-50.68a1.1,1.1,0,0,1,.37-.64,1,1,0,0,1,.68-.26h29.24a.73.73,0,0,1,.6.26.72.72,0,0,1,.15.64l-.9,7.27a1.21,1.21,0,0,1-.34.64" transform="translate(0 -0.59)"/><path class="cls-7" d="M243.78,247.19a.72.72,0,0,1,.15.64l-.9,7.34a1.18,1.18,0,0,1-.34.64.84.84,0,0,1-.64.26H231a.37.37,0,0,0-.27.12.36.36,0,0,0-.11.26l-5.17,42.06a1.18,1.18,0,0,1-.34.64.86.86,0,0,1-.64.26H216c-.55,0-.82-.3-.82-.9l5.17-42.06c.1-.25,0-.38-.3-.38H209.29a.73.73,0,0,1-.6-.26.72.72,0,0,1-.15-.64l.9-7.34a1.23,1.23,0,0,1,.33-.64.86.86,0,0,1,.64-.26h32.77a.73.73,0,0,1,.6.26" transform="translate(0 -0.59)"/><path class="cls-7" d="M243.48,298.51l6.22-50.68a1.12,1.12,0,0,1,.38-.64.94.94,0,0,1,.67-.26h8.47a.73.73,0,0,1,.6.26.72.72,0,0,1,.15.64l-6.22,50.68a1.18,1.18,0,0,1-.34.64.84.84,0,0,1-.64.26H244.3c-.55,0-.82-.3-.82-.9" transform="translate(0 -0.59)"/><path class="cls-7" d="M293,247.19a.86.86,0,0,1,.64-.26h8.47a.73.73,0,0,1,.6.26.72.72,0,0,1,.15.64l-6.22,50.68a1.18,1.18,0,0,1-.34.64.84.84,0,0,1-.64.26h-8.84a.93.93,0,0,1-1-.67l-10.12-30.52c-.1-.15-.2-.22-.3-.22s-.15.1-.15.3l-3.67,30.21a1.25,1.25,0,0,1-.34.64.86.86,0,0,1-.64.26h-8.4c-.55,0-.82-.3-.82-.9l6.22-50.68a1.12,1.12,0,0,1,.38-.64,1,1,0,0,1,.67-.26h8.77a.88.88,0,0,1,.9.67l10.2,30.52c0,.15.13.22.23.22s.17-.1.22-.3l3.67-30.21a1.25,1.25,0,0,1,.34-.64" transform="translate(0 -0.59)"/><path class="cls-7" d="M309.12,296.23a13.25,13.25,0,0,1-4-10.09c0-.55.05-1.37.15-2.47l2.63-21.07a18.84,18.84,0,0,1,3.11-8.55,17.1,17.1,0,0,1,6.52-5.7,19.58,19.58,0,0,1,9-2q6.82,0,10.87,3.71a12.55,12.55,0,0,1,4,9.71c0,.45,0,1.17-.15,2.17l-.22,1.65a1.25,1.25,0,0,1-.34.64.86.86,0,0,1-.64.26h-8.47a.73.73,0,0,1-.6-.26.72.72,0,0,1-.15-.64L331,262a4.6,4.6,0,0,0,.07-1,5.63,5.63,0,0,0-1.49-4,5.45,5.45,0,0,0-4.13-1.57,6.87,6.87,0,0,0-4.95,2,8.17,8.17,0,0,0-2.4,5.1l-2.62,21.44a6.18,6.18,0,0,0-.08,1.13,5.81,5.81,0,0,0,1.62,4.31,5.72,5.72,0,0,0,4.23,1.61,6.77,6.77,0,0,0,7-6.45l.6-4.65c0-.25-.1-.37-.3-.37h-5.7a.76.76,0,0,1-.6-.26.72.72,0,0,1-.15-.64l.83-6.82a1.23,1.23,0,0,1,.33-.64.86.86,0,0,1,.64-.26H339.3a.73.73,0,0,1,.6.26.72.72,0,0,1,.15.64l-1.5,11.92a18,18,0,0,1-6,11.92A18.52,18.52,0,0,1,320,300q-6.82,0-10.84-3.78" transform="translate(0 -0.59)"/><path class="cls-7" d="M9.24,225.9,4.07,175.14V175c0-.55.32-.82,1-.82H14a.72.72,0,0,1,.82.82l2,28.79c0,.15.07.23.19.23s.21-.08.26-.23L26,175a1,1,0,0,1,1.05-.82h8.09A.73.73,0,0,1,36,175l2.32,28.79c0,.15.07.23.19.23s.21-.08.26-.23L47.56,175a1,1,0,0,1,1-.82h8.54c.6,0,.8.32.6,1L41,225.83a1,1,0,0,1-1.05.82H31.66a.72.72,0,0,1-.82-.82l-2.25-30.14c0-.15-.05-.23-.15-.23s-.18.08-.23.23l-9,30.14a1,1,0,0,1-1.05.82h-8a.9.9,0,0,1-.9-.75" transform="translate(0 -0.59)"/><path class="cls-7" d="M92.81,183a.9.9,0,0,1-.64.26H72.68c-.21,0-.35.12-.45.37l-1.43,11.7c0,.25.1.38.3.38H83.25a.73.73,0,0,1,.6.26.72.72,0,0,1,.15.64l-.83,7.27a1.14,1.14,0,0,1-.37.64,1,1,0,0,1-.68.26H70a.4.4,0,0,0-.27.11.38.38,0,0,0-.11.26l-1.5,12.08c0,.25.1.37.3.37H87.9c.55,0,.82.3.82.9l-.9,7.27a1.18,1.18,0,0,1-.34.64.82.82,0,0,1-.63.26H57.6c-.55,0-.82-.3-.82-.9L63,175.07a1.12,1.12,0,0,1,.38-.64,1,1,0,0,1,.67-.26H93.29a.73.73,0,0,1,.6.26.72.72,0,0,1,.15.64l-.89,7.27a1.29,1.29,0,0,1-.34.64" transform="translate(0 -0.59)"/><path class="cls-7" d="M123.1,222.9a19.27,19.27,0,0,1-12,3.75H94.79c-.55,0-.82-.3-.82-.9l6.22-50.68a1.12,1.12,0,0,1,.38-.64,1,1,0,0,1,.67-.26h15.15q7,0,10.91,3t3.86,9c0,.45,0,1.27-.15,2.47q-.9,7.42-6.9,10.72-.37.32-.15.45c3.35,2.21,5,5.5,5,9.9,0,.45,0,1.23-.15,2.33q-.83,7.2-5.73,10.94m-6.6-7.16a8.24,8.24,0,0,0,2.29-5,8.45,8.45,0,0,0,.07-1.28,5.73,5.73,0,0,0-1.42-4.12,5.32,5.32,0,0,0-4-1.5h-6.07c-.2,0-.35.12-.45.37l-1.58,12.9a.33.33,0,0,0,.38.38h6.07a6.58,6.58,0,0,0,4.76-1.77m-7.09-32.13L108,195.39c0,.25.1.37.3.37h5.55a6.67,6.67,0,0,0,7-6.22,5.74,5.74,0,0,0,.07-1,5.07,5.07,0,0,0-1.46-3.86,5.79,5.79,0,0,0-4.16-1.39h-5.48c-.2,0-.35.12-.45.37" transform="translate(0 -0.59)"/><path class="cls-7" d="M188.82,171.94V164h4v-4h-4v-7.91h7.92v-4h-7.92v-7.91h4v-3.95h-4v-7.91h7.92v-4h-7.92v-7.91h4v-4h-4v-7.91h7.92v-4h-7.92V92.82h4v-4h-4V81h7.92V77h-7.92V69.08h-3.95V173.92a2,2,0,0,0,2,2h116.7v-4Z" transform="translate(0 -0.59)"/><path class="cls-7" d="M206.26,166.72a7.94,7.94,0,0,0,12.23-6.65,7.7,7.7,0,0,0-1-3.72l15.84-11.88a7.87,7.87,0,0,0,11-1.23,9.34,9.34,0,0,0,.65-1l13,3.74c0,.06,0,.13,0,.2a7.91,7.91,0,1,0,15.82,0v0a7.83,7.83,0,0,0-1.61-4.7l17.61-22a7.94,7.94,0,1,0-2.9-2.72l-17.8,22.26a7,7,0,0,0-1-.38,7.91,7.91,0,0,0-9,3.56l-13-3.72c0-.07,0-.13,0-.2a8,8,0,0,0-5.7-7.63A7.86,7.86,0,0,0,231,141.29l-16.17,12.13a7.91,7.91,0,0,0-8.57,13.3Zm87.4-58.08a4,4,0,1,1-4,4,4,4,0,0,1,4-4m-31.49,36.52a3.91,3.91,0,1,1-.16,1.05,3.43,3.43,0,0,1,.16-1.05m-27.69-8h0a4,4,0,0,1,7.75,1.13v0a3.48,3.48,0,0,1-.15,1.06,4,4,0,1,1-7.6-2.22Zm-23.9,19a4,4,0,1,1-4,3.95,4,4,0,0,1,4-3.95" transform="translate(0 -0.59)"/><path class="cls-7" d="M210.58,138.31a7.88,7.88,0,0,0,5.87-13.17l19.41-30.76a7.59,7.59,0,0,0,7.2-1.23l15.67,12.33a7.89,7.89,0,0,0,4,10.41,8,8,0,0,0,3.23.68h0a7.9,7.9,0,0,0,7.89-7.9,8,8,0,0,0-.29-2.13l14.25-8.35a7.91,7.91,0,0,0,5.82,2.56h0a7.92,7.92,0,1,0-7.94-7.91,8.16,8.16,0,0,0,.24,1.85l-14.38,8.42a7.92,7.92,0,0,0-5.64-2.36h0a7.79,7.79,0,0,0-4.75,1.64L245.52,90.05a7.91,7.91,0,1,0-13,2.22L213.15,123a7.73,7.73,0,0,0-2.57-.46,7.91,7.91,0,0,0,0,15.82Zm83.08-49.45a4,4,0,0,1,0,7.93h0a4,4,0,0,1-3.43-2,4.08,4.08,0,0,1-.52-2,4,4,0,0,1,4-4M266,104.7a4,4,0,1,1-4,4,3.94,3.94,0,0,1,4-4ZM238.28,82.93a4,4,0,1,1-4,3.95,4,4,0,0,1,4-3.95m-27.7,43.52a4,4,0,1,1-4,4,4,4,0,0,1,4-4" transform="translate(0 -0.59)"/><rect class="cls-2" x="350.02" y="245.7" width="83.98" height="60.97"/></g></g></svg>