<svg xmlns="http://www.w3.org/2000/svg" xmlns:xlink="http://www.w3.org/1999/xlink" viewBox="0 0 434.25 307.82"><defs><style>.cls-1,.cls-10,.cls-7{fill:none;}.cls-2{clip-path:url(#clip-path);}.cls-3{fill:url(#linear-gradient);}.cls-4{opacity:0.65;}.cls-5{clip-path:url(#clip-path-2);}.cls-6{fill:#fff;}.cls-10,.cls-7{stroke:#fff;}.cls-7{stroke-width:1.5px;}.cls-8{opacity:0.5;}.cls-9{clip-path:url(#clip-path-3);}.cls-10{stroke-width:2px;}</style><clipPath id="clip-path" transform="translate(0 -0.59)"><path class="cls-1" d="M261,214.46h0M274.53,27.3c-.58,1.1-1,2.38-1.55,3.52-1.22,2.62-2.48,3.92-4.28,3.57-5.29-1-10.17,3.28-15.48,4-3.61.5-7.95,1.39-11.54.37-1.86-.53-2-1.4-3.06-4.41C237,29.52,234,31,231,32.5c-1.75.89-3.51,1.77-5,1.33-3.07-.92-5.48-4.4-8.45-1.19-2.07,2.24-3.37,1.81-5.53,1.42-1.31-.24-1-1.48-2.32.53-.27.42-.38,1.48-.66,1.94a5.82,5.82,0,0,1-1.82,2.13c-2.15,1.31-4.78-.56-6.94-1.44s-5.14-.3-7-2.38a14,14,0,0,1-1.46-3c-1.19-2.44-1.31-3.06-2.31-.89.45-1-.47,1.93-.77,2.52a4.47,4.47,0,0,1-2.21,2.18c-2.14.9-2.89-2.1-4.84-2.74a11.85,11.85,0,0,0-4.38-.3,17.14,17.14,0,0,1-3.21,0c-2.37-.35-4.51-4.13-6.9-3.16-2.56,1-4.63,4.94-7.32,5.51a6.84,6.84,0,0,1-3.91-.71,6.76,6.76,0,0,0-3.95-.7c-1.22.3-2.16,1.21-3.38.59-1-.48-1.7-2.09-2.51-2.4A1.87,1.87,0,0,0,145,32a2.16,2.16,0,0,1-1.17.25c-1.08-.26-2-1.79-3.06-2.09a4.16,4.16,0,0,0-2.23.06,2.9,2.9,0,0,1-3.12-.61c-1.38-1.22-4.18-3.9-5.82-4.07-1.82-.2-2.79,6.38-4.86,7.6a3.53,3.53,0,0,1-2.12.34,8.05,8.05,0,0,0-5.62,2.2,15.14,15.14,0,0,1-13.37,2.86c-2.74-.66-2-2.92-3.7-6.4-1.54-3.08-4-.64-6,1l0,.06-.18.17v0c-.19.17-.39.34-.57.47a1.16,1.16,0,0,1-1.13.26c-1.45.18-2.5-.75-3.76-1.6a4.61,4.61,0,0,1-1.7,1.49,17.08,17.08,0,0,1-1.28,5.63,67.36,67.36,0,0,0-3,8.86c-.84,3.27-.18,5-.63,8.14a15.5,15.5,0,0,1-1.35,3.89,7.85,7.85,0,0,1,.08,1.08,7.62,7.62,0,0,1-.35,2.64c.52,4.41,1.74,6.8,3.58,10.15,2,3.68.47,5,.57,10.16.07,3.52,1,6.88,1.15,10.41.16,3,0,5.67.41,8.58a137.27,137.27,0,0,1,1,15.52,6.07,6.07,0,0,1,.18,6.4c.09,4,.37,9.6-.18,12.91s-2,3.16-3.15,5.15c-2.74,4.71.18,12.46.69,18.37.7,8.15-1.24,14.44-1.58,22.29-.19,4.32,1.67,7.62,2.4,11.39.89,4.65.6,9.92,3.31,12.12a3.37,3.37,0,0,0,2.34.52c1.06,0,2.13,0,2.91,1.15,1.32,2,.35,4.45,1.13,6.72,1.29,3.72,5.8-1.95,7.57-2.79a16.52,16.52,0,0,0,6.12-4.3c1-1.11,2.16-2,3.35-1.47,1.65.77,2.37,3.91,3.19,6.78.65-.17,1.3-.19,1.85-.33,1.9-.49,3.79-4.06,5.77-2.35,1.41,1.22,1.46,4.81,3,5.77.61.4,1.49.12,2.34-.15a4.79,4.79,0,0,1,1.51-.34,8.76,8.76,0,0,0,3.55-.55c1-.37,1.89-1,3-.33s1.64,1.72,2.68,1.86a11.15,11.15,0,0,0,2.16,0,14.17,14.17,0,0,1,1.71-.06c1.5.08,2.44-.93,3.83-1.33a3.56,3.56,0,0,1,1.87.06,2.62,2.62,0,0,0,2.76-.56c2-1.82,3-5.33,5.43-4.3a2.74,2.74,0,0,1,1.43,1,3.62,3.62,0,0,1,.25.48c1.45-1.15,3.11-1.26,4.08.9.83.81,1.27,2.24,2.4,3.36,2,1.92,5,.67,7.05.11a18.68,18.68,0,0,0,8-4.49c2.21-2,4.42-4.63,6.82-5.51a4.12,4.12,0,0,1,3.24.22c.83,0,1.06.44.7,1.22.48-.41,1-.8,1.44-1.16a7.25,7.25,0,0,1,4.33-.07,11.15,11.15,0,0,0,2.94.29c4.85-.45,10.17-3.27,15-2a8.19,8.19,0,0,1,5.58,4c1,1.73,1.26,3.91,2.51,5.05.06-.19.14-.43.25-.73,2.29-6.63,6.34-8.54,8.71-1.92,1,2.8.71,5.49,2.84,5.29.89-.08,2-1.31,2.85-1.9,2.89-2,5.84-2.12,8.7-3.87,3.72-2.27,6.32-7.75,9.22-3.6a2,2,0,0,1,1.93-.11c1.23.57,1.73,2,2.11,3.15.25.71.85,3.6.4,1.33,0-.05.32.66.42.89a3.53,3.53,0,0,1,.15.46c.48.29.94.52,1.22.42-.6.22,1.5-3.4,1.53-3.44,1.15-1.84,2.28-3.37,3.86-2.85,2,.68,1.81,2.77,2.78,5.85,1.24,3.94,2.95,3.41,4.79,3,1.56-2.71,3.36-2.7,5.32-1.31-.69-.49-.12-.22.45.43,1.24-1.11,2.18-2.88,4-2,.81.38,1.57,1.3,1.52,3.25,0,.49,4.22.12,8.24-.25a51.86,51.86,0,0,1,7-.44c1.84.53,1.67.29,3.11-1.44a20.75,20.75,0,0,1,4.11-3.72c2.26-1.57,3.44-.5,5.11,1.82a2.24,2.24,0,0,1,1.91.08c1.16-1.37,2.27-2.37,3.84-.87s2.39,4,4.17,4.84c2.38,1.11,4.54.32,6.91-.26,2.21-.53,3.91-.21,6.13-1.31,2.84-1.4,5.34-3.76,8.07-5.69,2.39-1.69,5.34-3.62,7.88-2.75a7.29,7.29,0,0,1,3.13,1.52,3,3,0,0,1,.32.41l.06-.06c.42-.35.76-1.07,1.19-1.41,1.21-1,4.67-1.83,5.85.6,3.73-.29,7.46-1.58,11.19-1.66s7.43-1.15,11.18-.89a9.62,9.62,0,0,1,7.64,4.11c.93,1.25,2,2.86,2.92,4.33.43-.64,1-1.32,1.15-1.63,2.15-4.74,2.21-13,3.38-18.87a26.65,26.65,0,0,1,2.21-5.91c2.38-5.72,1.46-7.58-.6-12-1.25-2.64-2.34-5.58-.88-8.94.7-1.62,2-1.66,2.69-3.1a37.12,37.12,0,0,0,1-8.85,5.63,5.63,0,0,1-.1-.92c-.42-3.92-1.56-6.84-1.82-10.93s-.23-8.16-.86-12.27c-.59-3.81-2.37-8.48-2.31-12.66a12.38,12.38,0,0,1,1.28-5.24,6.36,6.36,0,0,1,0-4.48,17,17,0,0,1,1.19-2.23c1.1-1.89,1.3-1.32,1.44-3.52.47-6.87-2-6.22-2.91-10.94a8.59,8.59,0,0,1,.61-5.38c1.62-3.61,4-2.86,3.91-9.43,0-2.73-.37-5.25-.49-7.9A3.67,3.67,0,0,1,403,66.53a7.65,7.65,0,0,1,.18-2.13c-.16.48-.14,0-.08-.49s.21-1.19.14,0a3.8,3.8,0,0,1-.06.5,1.25,1.25,0,0,0,.06-.18,28.73,28.73,0,0,1,1.1-3.24c-.43-3.78-2.63-7.79-2.89-12.23-.07-1.19.53-5.37.26-6.24-.41-1.33-2.34-.56-3.08-2.08a5.16,5.16,0,0,1-.21-.49c-2.19-2.9-5.26-9.72-7.47-8.37-1.22.76-2.21,2.5-3.53,3a6.61,6.61,0,0,1-4.41.08,5.87,5.87,0,0,1-2-1c-1-.84-.53-1.63-1.1-.94-.71.87-1.06,4.28-1.94,5.52-1.74,2.48-3.67,1.41-5.53.22-2.49-1.58-4.84-.76-7.33-2.29-1.87-1.15-2.11-.5-3.91,0a2.54,2.54,0,0,1-2.66-.9c-1.1-1.18-2.49-6.77-3.83-6.1-.51.26-1.84,5.52-2.63,6.48a3.81,3.81,0,0,1-5.16.86c-1-.07-1.83-.8-2.61-2.6a3.43,3.43,0,0,1-.23-1.09,8.19,8.19,0,0,0-2.61-.19,7.46,7.46,0,0,1-1.8-.09c-1.42-.39-2.52-.85-4-.36-1.23.42-2.16,1.13-3.4.73-1.52-.49-2.72-2.53-4.24-3.17-2.68-1.14-4.89,1-7.3,3l-.23.19-.19.18c-.36.33-.68.87-1,1.21a3.09,3.09,0,0,1-2.22.87,24.08,24.08,0,0,1-8-1c-1.15-.36-2.14-1.14-3.26-.51s-1.69,2.26-3,2.39c-1,.1-1.63-.5-2.53-1.46-1.57-1.67-2.36-2.2-4.13-2.17a6,6,0,0,1-3.46-1.11c-1.21-.8-2-2-3.47-1.19-.38.22-.66,1.11-1.06,1.32-2,1-2.64.94-4.42-1-2.32-2.57-4.43-2.07-6.74-4.4-.66-.66-.94-1.07-1.18-1.07s-.54.66-1.4,2.27"/></clipPath><linearGradient id="linear-gradient" x1="-615.78" y1="748.7" x2="-614.82" y2="748.7" gradientTransform="translate(223323.77 109380.72) rotate(90) scale(177.57 297.96)" gradientUnits="userSpaceOnUse"><stop offset="0" stop-color="#11891d"/><stop offset="1" stop-color="#1dc32b"/></linearGradient><clipPath id="clip-path-2" transform="translate(0 -0.59)"><rect class="cls-1" x="69.26" width="321.3" height="193.66"/></clipPath><clipPath id="clip-path-3" transform="translate(0 -0.59)"><rect class="cls-1" x="5.71" y="180.53" width="343.5" height="127.83"/></clipPath></defs><title>Asset 13</title><g id="Layer_2" data-name="Layer 2"><g id="Layer_1-2" data-name="Layer 1"><g class="cls-2"><rect class="cls-3" x="80.07" y="24.45" width="324.61" height="194.7"/></g><g class="cls-4"><g class="cls-5"><path class="cls-6" d="M71,192H388.18V2.25H71ZM69.38.59H389.85V193.66H69.38Z" transform="translate(0 -0.59)"/><ellipse class="cls-7" cx="89.87" cy="18.07" rx="5.83" ry="5.56"/><path class="cls-7" d="M115.15,13.1a5.56,5.56,0,1,1-5.55,5.56A5.56,5.56,0,0,1,115.15,13.1Z" transform="translate(0 -0.59)"/><path class="cls-7" d="M140.72,13.1a5.56,5.56,0,1,1-5.56,5.56A5.56,5.56,0,0,1,140.72,13.1Z" transform="translate(0 -0.59)"/><rect class="cls-7" x="70.69" y="0.85" width="318.43" height="33.9"/></g></g><g class="cls-8"><g class="cls-9"><path class="cls-10" d="M42.17,254.29h8.48a.76.76,0,0,1,.6.26.72.72,0,0,1,.15.64L45.17,305.9a1.23,1.23,0,0,1-.33.64.86.86,0,0,1-.64.26H35.65a.73.73,0,0,1-.6-.26.72.72,0,0,1-.15-.64L39,272.59c0-.2,0-.31-.08-.33s-.2,0-.3.18l-8.1,11.41a1.25,1.25,0,0,1-1.13.6H27.69a1,1,0,0,1-1-.6l-5.25-11.41q-.15-.22-.3-.18t-.15.33L16.89,305.9a1.18,1.18,0,0,1-.34.64.84.84,0,0,1-.63.26H7.44a.73.73,0,0,1-.6-.26.72.72,0,0,1-.15-.64l6.22-50.71a.83.83,0,0,1,.3-.64,1,1,0,0,1,.68-.26h8.4a.94.94,0,0,1,1,.6l6.9,14.78q.15.45.45,0l10.43-14.78A1.23,1.23,0,0,1,42.17,254.29Z" transform="translate(0 -0.59)"/><path class="cls-10" d="M78.63,306.05l-.82-7.35a.27.27,0,0,0-.3-.3H63.93a.6.6,0,0,0-.45.3l-2.55,7.35a1.06,1.06,0,0,1-1,.75H51.1c-.7,0-.9-.32-.6-1L69.78,255a1.12,1.12,0,0,1,1.13-.75H81.49a.79.79,0,0,1,.9.75l6.9,50.79c0,.65-.3,1-.9,1H79.53A.78.78,0,0,1,78.63,306.05ZM66.86,290.22h9.6a.4.4,0,0,0,.45-.45L74.51,268q0-.3-.15-.3c-.1,0-.18.1-.23.3l-7.57,21.75C66.51,290.07,66.6,290.22,66.86,290.22Z" transform="translate(0 -0.59)"/><path class="cls-10" d="M117.57,306.05l-4.8-20.7c-.1-.2-.23-.3-.38-.3h-4.57a.33.33,0,0,0-.38.37l-2.55,20.48a1.18,1.18,0,0,1-.34.64.82.82,0,0,1-.63.26H95.44c-.55,0-.83-.3-.83-.9l6.23-50.71a1.14,1.14,0,0,1,.37-.64,1,1,0,0,1,.68-.26H119.6q5.93,0,9.37,3.56c2.3,2.38,3.46,5.56,3.46,9.57a17.56,17.56,0,0,1-.16,2.7,17.34,17.34,0,0,1-3,8.32,15.4,15.4,0,0,1-6.42,5.26.35.35,0,0,0-.22.52l5.62,21.53v.3q0,.75-.9.75h-8.85A.78.78,0,0,1,117.57,306.05Zm-7.5-42.31-1.58,12.83c0,.25.1.37.3.37h6.38a6.29,6.29,0,0,0,5-2.21,8.45,8.45,0,0,0,1.95-5.81,5.64,5.64,0,0,0-1.42-4.05,5,5,0,0,0-3.83-1.51h-6.3C110.32,263.36,110.17,263.49,110.07,263.74Z" transform="translate(0 -0.59)"/><path class="cls-10" d="M134.07,305.9l6.23-50.71a1.1,1.1,0,0,1,.38-.64,1,1,0,0,1,.67-.26h8.48a.76.76,0,0,1,.6.26.72.72,0,0,1,.15.64l-2.4,19.95c-.05.15,0,.25.11.3s.21,0,.26-.15l15.53-20.4a1.37,1.37,0,0,1,1.13-.6h9.38c.44,0,.67.15.67.45a1.2,1.2,0,0,1-.23.6l-16.12,21.53a1.24,1.24,0,0,0-.08.52l10.8,28.36a.86.86,0,0,1,.08.38c0,.45-.28.67-.83.67h-9.37a.88.88,0,0,1-.9-.67l-7.81-20.56c-.15-.3-.32-.3-.52,0l-3.9,4.88a1.15,1.15,0,0,0-.15.45l-1.88,15a1.18,1.18,0,0,1-.34.64.82.82,0,0,1-.63.26H134.9C134.35,306.8,134.07,306.5,134.07,305.9Z" transform="translate(0 -0.59)"/><path class="cls-10" d="M210.78,263.1a.82.82,0,0,1-.63.26H190.64c-.2,0-.35.13-.45.38l-1.43,11.7c0,.25.1.38.3.38h12.16a.76.76,0,0,1,.6.26.72.72,0,0,1,.15.64l-.83,7.28a1.08,1.08,0,0,1-.37.63,1,1,0,0,1-.68.27H187.94a.33.33,0,0,0-.26.11.34.34,0,0,0-.12.26l-1.5,12.08c0,.25.1.38.3.38h19.51c.55,0,.83.3.83.9l-.91,7.27a1.23,1.23,0,0,1-.33.64.86.86,0,0,1-.64.26H175.56c-.55,0-.83-.3-.83-.9L181,255.19a1.15,1.15,0,0,1,.38-.64,1,1,0,0,1,.67-.26h29.26a.76.76,0,0,1,.6.26.72.72,0,0,1,.15.64l-.9,7.27A1.14,1.14,0,0,1,210.78,263.1Z" transform="translate(0 -0.59)"/><path class="cls-10" d="M250.58,254.55a.72.72,0,0,1,.15.64l-.9,7.35a1.21,1.21,0,0,1-.34.64.86.86,0,0,1-.63.26H237.75a.36.36,0,0,0-.26.11.4.4,0,0,0-.11.27L232.2,305.9a1.18,1.18,0,0,1-.34.64.82.82,0,0,1-.63.26h-8.48c-.55,0-.83-.3-.83-.9l5.18-42.08c.1-.25,0-.38-.3-.38H216.07a.76.76,0,0,1-.6-.26.72.72,0,0,1-.15-.64l.9-7.35a1.21,1.21,0,0,1,.34-.64.88.88,0,0,1,.64-.26H250A.76.76,0,0,1,250.58,254.55Z" transform="translate(0 -0.59)"/><path class="cls-10" d="M250.28,305.9l6.23-50.71a1.14,1.14,0,0,1,.37-.64,1,1,0,0,1,.68-.26H266a.75.75,0,0,1,.6.26.73.73,0,0,1,.16.64l-6.23,50.71a1.18,1.18,0,0,1-.34.64.86.86,0,0,1-.64.26H251.1C250.55,306.8,250.28,306.5,250.28,305.9Z" transform="translate(0 -0.59)"/><path class="cls-10" d="M299.83,254.55a.9.9,0,0,1,.64-.26H309a.76.76,0,0,1,.6.26.72.72,0,0,1,.15.64l-6.23,50.71a1.18,1.18,0,0,1-.34.64.82.82,0,0,1-.63.26h-8.86a.92.92,0,0,1-1-.67l-10.13-30.54c-.1-.15-.2-.22-.3-.22s-.15.1-.15.3l-3.68,30.23a1.23,1.23,0,0,1-.33.64.86.86,0,0,1-.64.26H269c-.56,0-.83-.3-.83-.9l6.23-50.71a1.14,1.14,0,0,1,.37-.64,1,1,0,0,1,.68-.26h8.78a.88.88,0,0,1,.9.67l10.2,30.54c.05.15.12.22.22.22s.18-.1.23-.3l3.67-30.23A1.29,1.29,0,0,1,299.83,254.55Z" transform="translate(0 -0.59)"/><path class="cls-10" d="M316,303.61a13.22,13.22,0,0,1-4-10.09c0-.55.05-1.37.15-2.47L314.72,270a19,19,0,0,1,3.12-8.55,17,17,0,0,1,6.52-5.71,19.65,19.65,0,0,1,9-2q6.82,0,10.88,3.71a12.58,12.58,0,0,1,4.05,9.72c0,.45-.05,1.17-.15,2.17l-.23,1.65a1.23,1.23,0,0,1-.33.64.86.86,0,0,1-.64.26h-8.48a.73.73,0,0,1-.6-.26.72.72,0,0,1-.15-.64l.15-1.57a4.45,4.45,0,0,0,.08-1,5.63,5.63,0,0,0-1.5-4.05,5.45,5.45,0,0,0-4.13-1.58,6.84,6.84,0,0,0-4.95,2,8.17,8.17,0,0,0-2.4,5.1l-2.63,21.45a6.45,6.45,0,0,0-.07,1.13,5.79,5.79,0,0,0,1.61,4.31,5.71,5.71,0,0,0,4.24,1.62,6.79,6.79,0,0,0,7.05-6.46l.6-4.65c0-.25-.1-.37-.3-.37h-5.7a.76.76,0,0,1-.6-.26A.72.72,0,0,1,329,286l.82-6.83a1.21,1.21,0,0,1,.34-.64.9.9,0,0,1,.64-.26h15.38a.76.76,0,0,1,.6.26.72.72,0,0,1,.15.64l-1.5,11.93a18,18,0,0,1-6,11.93,18.59,18.59,0,0,1-12.61,4.42Q320,307.4,316,303.61Z" transform="translate(0 -0.59)"/><path class="cls-10" d="M15.92,233.25l-5.18-50.79v-.15c0-.55.32-.82,1-.82h8.93a.73.73,0,0,1,.83.82l2,28.81c0,.15.06.23.19.23s.21-.08.26-.23l8.78-28.81a1,1,0,0,1,1.05-.82h8.1a.73.73,0,0,1,.83.82L45,211.12c0,.15.07.23.19.23s.21-.08.26-.23l8.78-28.81a1,1,0,0,1,1-.82h8.55c.6,0,.8.32.6,1l-16.8,50.72a1,1,0,0,1-1,.82H38.35a.73.73,0,0,1-.83-.82L35.27,203c0-.15-.05-.23-.15-.23s-.18.08-.22.23l-9,30.16a1,1,0,0,1-1.05.82h-8A.89.89,0,0,1,15.92,233.25Z" transform="translate(0 -0.59)"/><path class="cls-10" d="M99.53,190.3a.86.86,0,0,1-.64.26H79.38c-.2,0-.35.13-.45.38l-1.42,11.7c0,.25.1.38.3.38H90a.76.76,0,0,1,.6.26.72.72,0,0,1,.15.64l-.82,7.28a1.09,1.09,0,0,1-.38.63,1,1,0,0,1-.67.27H76.68a.34.34,0,0,0-.26.11.36.36,0,0,0-.11.26l-1.5,12.08c0,.25.1.38.3.38h19.5c.55,0,.83.3.83.9l-.9,7.27a1.18,1.18,0,0,1-.34.64.86.86,0,0,1-.64.26H64.3c-.55,0-.82-.3-.82-.9l6.23-50.71a1.14,1.14,0,0,1,.37-.64,1,1,0,0,1,.68-.26H100a.79.79,0,0,1,.61.26.75.75,0,0,1,.15.64l-.9,7.27A1.21,1.21,0,0,1,99.53,190.3Z" transform="translate(0 -0.59)"/><path class="cls-10" d="M129.84,230.25a19.3,19.3,0,0,1-12,3.75H101.51c-.55,0-.82-.3-.82-.9l6.23-50.71a1.08,1.08,0,0,1,.37-.64,1,1,0,0,1,.68-.26h15.15q7,0,10.92,3c2.57,2,3.86,5,3.86,9,0,.45-.05,1.27-.15,2.47q-.9,7.43-6.9,10.73-.37.3-.15.45,5,3.3,5,9.9c0,.45-.05,1.23-.15,2.33Q134.75,226.5,129.84,230.25Zm-6.61-7.16a9.32,9.32,0,0,0,2.37-6.27,5.74,5.74,0,0,0-1.43-4.12,5.32,5.32,0,0,0-4-1.5H114c-.2,0-.35.12-.45.37L112,224.48a.32.32,0,0,0,.37.37h6.08A6.6,6.6,0,0,0,123.23,223.09Zm-7.09-32.15-1.42,11.78c0,.25.1.37.3.37h5.55a6.67,6.67,0,0,0,7.05-6.22,5.58,5.58,0,0,0,.08-1.05,5.08,5.08,0,0,0-1.47-3.87,5.82,5.82,0,0,0-4.16-1.39h-5.48C116.39,190.56,116.24,190.69,116.14,190.94Z" transform="translate(0 -0.59)"/></g></g><path class="cls-6" d="M35.5,247.06H44a.76.76,0,0,1,.6.26.72.72,0,0,1,.15.64l-6.22,50.72a1.29,1.29,0,0,1-.34.64.9.9,0,0,1-.64.26H29a.76.76,0,0,1-.6-.26.72.72,0,0,1-.15-.64l4.05-33.31c0-.2,0-.31-.08-.34s-.2,0-.3.19l-8.1,11.4a1.23,1.23,0,0,1-1.12.6H21a1,1,0,0,1-1-.6l-5.25-11.4c-.1-.15-.2-.21-.3-.19s-.15.14-.15.34l-4.13,33.31a1.21,1.21,0,0,1-.34.64.86.86,0,0,1-.63.26H.77a.76.76,0,0,1-.6-.26.72.72,0,0,1-.15-.64L6.25,248a.83.83,0,0,1,.3-.64,1,1,0,0,1,.67-.26h8.4a.94.94,0,0,1,1,.6l6.9,14.78q.15.45.45,0l10.43-14.78a1.23,1.23,0,0,1,1.12-.6" transform="translate(0 -0.59)"/><path class="cls-6" d="M72,298.83l-.83-7.35a.27.27,0,0,0-.3-.3H57.26a.6.6,0,0,0-.45.3l-2.55,7.35a1.06,1.06,0,0,1-1,.75H44.43c-.7,0-.9-.33-.6-1l19.28-50.79a1.12,1.12,0,0,1,1.13-.75H74.82a.78.78,0,0,1,.9.75l6.9,50.79c0,.65-.3,1-.9,1H72.87a.78.78,0,0,1-.9-.75M60.19,283h9.6a.4.4,0,0,0,.45-.45l-2.4-21.76q0-.3-.15-.3c-.1,0-.18.1-.23.3l-7.57,21.76q-.07.45.3.45" transform="translate(0 -0.59)"/><path class="cls-6" d="M110.9,298.83l-4.8-20.71c-.1-.2-.22-.3-.37-.3h-4.58a.34.34,0,0,0-.38.38l-2.55,20.48a1.2,1.2,0,0,1-.33.63.87.87,0,0,1-.64.27H88.77c-.55,0-.83-.3-.83-.9L94.17,248a1.09,1.09,0,0,1,.38-.63,1,1,0,0,1,.67-.27h17.71q5.92,0,9.38,3.57c2.29,2.37,3.45,5.56,3.45,9.56a17.84,17.84,0,0,1-.15,2.7,17.49,17.49,0,0,1-3,8.33,15.45,15.45,0,0,1-6.42,5.25.36.36,0,0,0-.22.53l5.62,21.53v.3q0,.75-.9.75H111.8a.78.78,0,0,1-.9-.75m-7.5-42.31-1.58,12.82c0,.26.1.38.3.38h6.38a6.32,6.32,0,0,0,5-2.21,8.5,8.5,0,0,0,2-5.82,5.64,5.64,0,0,0-1.42-4.05,5,5,0,0,0-3.83-1.5h-6.3c-.2,0-.35.13-.45.38" transform="translate(0 -0.59)"/><path class="cls-6" d="M127.4,298.68,133.63,248a1.15,1.15,0,0,1,.38-.64,1,1,0,0,1,.67-.26h8.48a.76.76,0,0,1,.6.26.72.72,0,0,1,.15.64l-2.4,20c0,.15,0,.25.11.3s.21,0,.26-.15l15.53-20.41a1.37,1.37,0,0,1,1.13-.6h9.38c.45,0,.67.15.67.45a1.26,1.26,0,0,1-.22.6l-16.13,21.53a1.3,1.3,0,0,0-.08.53L163,298.53a1,1,0,0,1,.07.37c0,.45-.27.68-.82.68h-9.38a.89.89,0,0,1-.9-.68l-7.81-20.55c-.15-.3-.32-.3-.52,0l-3.9,4.87a1.15,1.15,0,0,0-.15.45l-1.88,15a1.27,1.27,0,0,1-.33.64.9.9,0,0,1-.64.26h-8.48c-.55,0-.83-.3-.83-.9" transform="translate(0 -0.59)"/><path class="cls-6" d="M204.11,255.88a.86.86,0,0,1-.63.26H184c-.2,0-.35.13-.45.38l-1.42,11.7c0,.25.1.37.3.37h12.15a.74.74,0,0,1,.6.27.7.7,0,0,1,.15.63l-.83,7.28a1.14,1.14,0,0,1-.37.64,1,1,0,0,1-.68.26H181.27a.38.38,0,0,0-.37.38l-1.51,12.08c0,.25.1.37.31.37h19.5c.55,0,.83.3.83.9l-.9,7.28a1.22,1.22,0,0,1-.34.63.87.87,0,0,1-.64.27H168.89c-.55,0-.82-.3-.82-.9L174.29,248a1.09,1.09,0,0,1,.38-.63,1,1,0,0,1,.67-.27H204.6a.74.74,0,0,1,.6.27.7.7,0,0,1,.15.63l-.9,7.28a1.21,1.21,0,0,1-.34.64" transform="translate(0 -0.59)"/><path class="cls-6" d="M243.91,247.33a.7.7,0,0,1,.15.63l-.9,7.35a1.14,1.14,0,0,1-.34.64.83.83,0,0,1-.63.27H231.08a.34.34,0,0,0-.26.11.36.36,0,0,0-.11.26l-5.18,42.09a1.21,1.21,0,0,1-.34.64.86.86,0,0,1-.63.26h-8.48c-.55,0-.83-.3-.83-.9l5.18-42.09c.1-.25,0-.37-.3-.37H209.4a.74.74,0,0,1-.6-.27.71.71,0,0,1-.15-.64l.9-7.35a1.15,1.15,0,0,1,.34-.63.85.85,0,0,1,.64-.27h32.78a.74.74,0,0,1,.6.27" transform="translate(0 -0.59)"/><path class="cls-6" d="M243.61,298.68,249.84,248a1.14,1.14,0,0,1,.37-.64,1,1,0,0,1,.68-.26h8.48a.76.76,0,0,1,.6.26.72.72,0,0,1,.15.64l-6.23,50.72a1.21,1.21,0,0,1-.34.64.88.88,0,0,1-.64.26h-8.47c-.55,0-.83-.3-.83-.9" transform="translate(0 -0.59)"/><path class="cls-6" d="M293.16,247.33a.87.87,0,0,1,.64-.27h8.48a.74.74,0,0,1,.6.27.7.7,0,0,1,.15.63l-6.23,50.72a1.21,1.21,0,0,1-.34.64.86.86,0,0,1-.63.26H287a.93.93,0,0,1-1-.68l-10.13-30.53c-.1-.15-.2-.23-.3-.23s-.15.1-.15.3l-3.67,30.24a1.29,1.29,0,0,1-.34.64.9.9,0,0,1-.64.26h-8.4c-.55,0-.83-.3-.83-.9L267.77,248a1.08,1.08,0,0,1,.37-.63,1,1,0,0,1,.68-.27h8.78a.89.89,0,0,1,.9.68l10.2,30.53c.05.15.12.23.23.23s.17-.1.22-.3L292.83,248a1.2,1.2,0,0,1,.33-.63" transform="translate(0 -0.59)"/><path class="cls-6" d="M309.29,296.39a13.25,13.25,0,0,1-4-10.09c0-.55.05-1.38.15-2.48l2.63-21.08a18.84,18.84,0,0,1,3.11-8.55,17.06,17.06,0,0,1,6.53-5.7,19.59,19.59,0,0,1,9-2q6.82,0,10.88,3.72a12.55,12.55,0,0,1,4,9.71c0,.45,0,1.18-.15,2.18l-.23,1.65a1.2,1.2,0,0,1-.33.63.87.87,0,0,1-.64.27h-8.48a.74.74,0,0,1-.6-.27.7.7,0,0,1-.15-.63l.15-1.58a4.34,4.34,0,0,0,.08-1,5.63,5.63,0,0,0-1.5-4.05,5.4,5.4,0,0,0-4.13-1.58,6.87,6.87,0,0,0-4.95,2,8.17,8.17,0,0,0-2.4,5.1l-2.63,21.46a6.25,6.25,0,0,0-.07,1.12,5.83,5.83,0,0,0,1.61,4.32,5.76,5.76,0,0,0,4.24,1.61,6.79,6.79,0,0,0,7-6.45l.6-4.65c0-.25-.1-.38-.3-.38h-5.7a.73.73,0,0,1-.6-.26.72.72,0,0,1-.15-.64l.82-6.82a1.21,1.21,0,0,1,.34-.64.87.87,0,0,1,.64-.27h15.38a.74.74,0,0,1,.6.27.71.71,0,0,1,.15.64l-1.5,11.92a18,18,0,0,1-6,11.93,18.58,18.58,0,0,1-12.61,4.43q-6.83,0-10.84-3.79" transform="translate(0 -0.59)"/><path class="cls-6" d="M9.25,226,4.07,175.24v-.15c0-.55.33-.83,1-.83H14a.74.74,0,0,1,.83.83l2,28.81c0,.15.07.22.19.22s.21-.07.26-.22l8.78-28.81a1,1,0,0,1,1.05-.83h8.1a.74.74,0,0,1,.83.83l2.33,28.81c0,.15.06.22.18.22s.21-.07.27-.22l8.77-28.81a1,1,0,0,1,1.05-.83h8.56c.6,0,.8.33.6,1L41,226a1,1,0,0,1-1,.83H31.68a.74.74,0,0,1-.83-.83L28.6,195.79c0-.15-.05-.22-.15-.22s-.17.07-.22.22l-9,30.16a1,1,0,0,1-1,.83h-8a.9.9,0,0,1-.9-.75" transform="translate(0 -0.59)"/><path class="cls-6" d="M92.86,183.08a.9.9,0,0,1-.64.26H72.72c-.21,0-.35.13-.45.38l-1.43,11.7c0,.25.1.37.3.37H83.29a.74.74,0,0,1,.6.27.7.7,0,0,1,.15.63L83.22,204a1.15,1.15,0,0,1-.38.64,1,1,0,0,1-.67.26H70a.39.39,0,0,0-.27.11.4.4,0,0,0-.11.27l-1.5,12.08c0,.25.1.37.3.37h19.5c.56,0,.83.3.83.9l-.9,7.28a1.15,1.15,0,0,1-.34.63.85.85,0,0,1-.64.27H57.64c-.56,0-.83-.3-.83-.9L63,175.16a1.08,1.08,0,0,1,.37-.63,1,1,0,0,1,.68-.27H93.35a.74.74,0,0,1,.6.27.7.7,0,0,1,.15.63l-.9,7.28a1.29,1.29,0,0,1-.34.64" transform="translate(0 -0.59)"/><path class="cls-6" d="M123.17,223a19.27,19.27,0,0,1-12,3.75H94.85c-.56,0-.83-.3-.83-.9l6.23-50.72a1.08,1.08,0,0,1,.37-.63,1,1,0,0,1,.68-.27h15.15q7,0,10.92,3t3.86,9c0,.45,0,1.28-.15,2.48q-.9,7.43-6.9,10.72-.37.31-.15.45,5,3.32,5,9.91c0,.45-.05,1.22-.15,2.32q-.82,7.22-5.74,11m-6.61-7.17a8.21,8.21,0,0,0,2.29-5,8.07,8.07,0,0,0,.08-1.27,5.76,5.76,0,0,0-1.43-4.13,5.32,5.32,0,0,0-4-1.5h-6.08c-.2,0-.35.13-.45.38l-1.57,12.9a.33.33,0,0,0,.37.38h6.08a6.56,6.56,0,0,0,4.76-1.77m-7.08-32.14-1.43,11.77c0,.25.1.38.3.38h5.55a6.67,6.67,0,0,0,7-6.23,5.58,5.58,0,0,0,.08-1,5.07,5.07,0,0,0-1.46-3.86,5.82,5.82,0,0,0-4.17-1.39h-5.47c-.21,0-.36.13-.45.38" transform="translate(0 -0.59)"/><path class="cls-6" d="M185.47,175.13v-8.55h4.27V162.3h-4.27v-8.55H194v-4.27h-8.55v-8.55h4.27v-4.27h-4.27V128.1H194v-4.27h-8.55v-8.55h4.27V111h-4.27v-8.55H194V98.18h-8.55V89.63h4.27V85.35h-4.27V76.8H194V72.53h-8.55V64h-4.28V177.27a2.14,2.14,0,0,0,2.14,2.14H309.44v-4.28Z" transform="translate(0 -0.59)"/><path class="cls-6" d="M204.31,169.49a8.58,8.58,0,0,0,13.22-7.19,8.45,8.45,0,0,0-1.05-4l17.11-12.84a8.5,8.5,0,0,0,11.94-1.32,8.89,8.89,0,0,0,.7-1l14.06,4c0,.07,0,.14,0,.21a8.55,8.55,0,0,0,17.1,0v0a8.57,8.57,0,0,0-1.74-5.08l19-23.77a8.46,8.46,0,0,0,4.08,1.08,8.61,8.61,0,1,0-7.22-4l-19.23,24a7.35,7.35,0,0,0-1.07-.41,8.55,8.55,0,0,0-9.72,3.84l-14.07-4c0-.07,0-.14,0-.21a8.59,8.59,0,0,0-6.15-8.25A8.5,8.5,0,0,0,231,142l-17.47,13.1a8.55,8.55,0,0,0-9.26,14.38Zm94.45-62.76a4.28,4.28,0,1,1-4.28,4.27,4.27,4.27,0,0,1,4.28-4.27m-34,39.46a4.19,4.19,0,1,1-.18,1.14,3.67,3.67,0,0,1,.18-1.14m-29.93-8.64h0a4.28,4.28,0,0,1,8.38,1.23v0A3.66,3.66,0,0,1,243,140a4.28,4.28,0,0,1-8.21-2.39ZM209,158a4.28,4.28,0,1,1-4.28,4.28A4.27,4.27,0,0,1,209,158" transform="translate(0 -0.59)"/><path class="cls-6" d="M209,138.79a8.51,8.51,0,0,0,6.34-14.23l21-33.24A8.2,8.2,0,0,0,244.07,90L261,103.31a8.53,8.53,0,0,0,4.33,11.25,8.41,8.41,0,0,0,3.49.73h0a8.53,8.53,0,0,0,8.53-8.54,8.44,8.44,0,0,0-.32-2.29l15.41-9a8.52,8.52,0,0,0,6.29,2.77h0a8.56,8.56,0,1,0-8.58-8.55,8.36,8.36,0,0,0,.25,2l-15.54,9.09a8.56,8.56,0,0,0-6.09-2.55h0a8.51,8.51,0,0,0-5.13,1.78l-17-13.33a8.55,8.55,0,1,0-14,2.4l-20.92,33.15a8.54,8.54,0,1,0-2.79,16.6Zm89.78-53.44a4.29,4.29,0,0,1,0,8.57h0a4.27,4.27,0,0,1-3.71-2.14,4.51,4.51,0,0,1-.57-2.15,4.28,4.28,0,0,1,4.28-4.28m-29.93,17.12a4.28,4.28,0,1,1-4.28,4.27,4.26,4.26,0,0,1,4.28-4.27ZM238.9,78.94a4.28,4.28,0,1,1-4.27,4.27,4.27,4.27,0,0,1,4.27-4.27M209,126a4.28,4.28,0,1,1-4.28,4.27A4.27,4.27,0,0,1,209,126" transform="translate(0 -0.59)"/><rect class="cls-1" x="350.22" y="245.84" width="84.03" height="61.01"/></g></g></svg>