<svg xmlns="http://www.w3.org/2000/svg" xmlns:xlink="http://www.w3.org/1999/xlink" viewBox="0 0 432.88 305.73"><defs><style>.cls-1{fill:url(#linear-gradient);}.cls-10,.cls-2,.cls-8,.cls-9{fill:none;}.cls-3{clip-path:url(#clip-path);}.cls-4{fill:url(#linear-gradient-3);}.cls-5{fill:#fff;}.cls-6{opacity:0.65;}.cls-7{clip-path:url(#clip-path-2);}.cls-8,.cls-9{stroke:#fff;}.cls-8{stroke-width:1.5px;}.cls-9{stroke-width:2px;}.cls-10,.cls-9{opacity:0.5;}</style><linearGradient id="linear-gradient" x1="241.21" y1="24.61" x2="241.21" y2="217.43" gradientUnits="userSpaceOnUse"><stop offset="0" stop-color="#123e84"/><stop offset="1" stop-color="#123e84" stop-opacity="0.1"/></linearGradient><clipPath id="clip-path" transform="translate(0 -0.59)"><path class="cls-1" d="M259.85,213.47h0m13.46-186.6c-.58,1.09-1,2.37-1.55,3.5-1.21,2.62-2.47,3.91-4.26,3.56-5.27-1-10.14,3.28-15.44,4-3.59.5-7.93,1.39-11.5.38-1.86-.53-2-1.4-3.06-4.41-1.66-4.84-4.61-3.35-7.56-1.87-1.75.89-3.5,1.77-5,1.33-3.07-.92-5.47-4.38-8.43-1.19-2.06,2.24-3.36,1.81-5.52,1.41-1.3-.23-1-1.47-2.3.54-.28.41-.39,1.47-.67,1.93a5.67,5.67,0,0,1-1.81,2.12c-2.14,1.31-4.77-.55-6.92-1.43s-5.13-.3-6.95-2.38a13.25,13.25,0,0,1-1.45-3c-1.19-2.43-1.31-3.05-2.31-.89.45-1-.47,1.93-.77,2.52a4.47,4.47,0,0,1-2.2,2.17c-2.13.9-2.88-2.09-4.82-2.73a11.81,11.81,0,0,0-4.37-.3,17,17,0,0,1-3.2,0c-2.36-.34-4.5-4.12-6.88-3.15-2.55,1-4.62,4.93-7.3,5.5a7,7,0,0,1-3.9-.71,6.73,6.73,0,0,0-3.94-.7c-1.22.29-2.15,1.2-3.37.59-.95-.48-1.69-2.08-2.5-2.39a1.82,1.82,0,0,0-1.17.22,2.09,2.09,0,0,1-1.17.25c-1.08-.25-2-1.78-3.06-2.08a4,4,0,0,0-2.22.06,2.88,2.88,0,0,1-3.11-.61c-1.38-1.22-4.17-3.89-5.8-4.06-1.82-.2-2.78,6.37-4.84,7.58a3.54,3.54,0,0,1-2.12.34,8,8,0,0,0-5.61,2.19A15.06,15.06,0,0,1,102.93,38c-2.74-.65-2-2.91-3.7-6.37-1.53-3.08-4-.64-5.92,1l-.06.06-.18.16v0l-.57.47a1.19,1.19,0,0,1-1.13.26c-1.45.18-2.49-.75-3.75-1.6a4.58,4.58,0,0,1-1.69,1.49,17.22,17.22,0,0,1-1.28,5.61,66.9,66.9,0,0,0-3,8.83c-.83,3.27-.18,5-.63,8.12a15.27,15.27,0,0,1-1.35,3.88A6.56,6.56,0,0,1,79.78,61a8.07,8.07,0,0,1-.35,2.63C79.94,68,81.16,70.41,83,73.75c2,3.67.48,5,.58,10.13.06,3.51.94,6.86,1.14,10.38.16,2.94,0,5.65.41,8.55a138.9,138.9,0,0,1,1,15.47,6.08,6.08,0,0,1,.17,6.39c.09,4,.38,9.57-.18,12.86s-2,3.17-3.14,5.14c-2.73,4.7.19,12.43.69,18.32.7,8.12-1.23,14.4-1.58,22.23-.19,4.31,1.67,7.59,2.4,11.35.89,4.64.6,9.89,3.3,12.08a3.3,3.3,0,0,0,2.33.52c1.06,0,2.12,0,2.91,1.15,1.3,2,.34,4.43,1.13,6.7,1.27,3.71,5.77-1.94,7.54-2.78a16.54,16.54,0,0,0,6.1-4.29c1-1.11,2.15-2,3.34-1.46,1.65.76,2.36,3.9,3.18,6.75.65-.16,1.29-.18,1.85-.33,1.89-.48,3.78-4,5.75-2.33,1.41,1.21,1.45,4.79,3,5.75.61.39,1.49.12,2.33-.15a5.14,5.14,0,0,1,1.51-.35,8.7,8.7,0,0,0,3.54-.54c1-.37,1.88-1,2.95-.33s1.63,1.72,2.67,1.86a11.06,11.06,0,0,0,2.15,0,14.13,14.13,0,0,1,1.71-.05c1.5.07,2.43-.93,3.82-1.33a3.52,3.52,0,0,1,1.86.06,2.6,2.6,0,0,0,2.75-.56c2-1.82,3-5.31,5.42-4.29a2.71,2.71,0,0,1,1.42,1.05,3.67,3.67,0,0,1,.26.48c1.44-1.15,3.1-1.25,4.06.9.83.81,1.27,2.23,2.39,3.34,1.94,1.92,5,.67,7,.11a18.41,18.41,0,0,0,7.94-4.47c2.2-2,4.41-4.62,6.8-5.49a4.14,4.14,0,0,1,3.23.21c.82,0,1.06.44.7,1.22.48-.41,1-.79,1.44-1.16a7.29,7.29,0,0,1,4.32-.06,11.45,11.45,0,0,0,2.93.28c4.83-.44,10.14-3.26,15-2a8.18,8.18,0,0,1,5.56,4c1,1.73,1.26,3.9,2.5,5,.07-.19.15-.43.25-.73,2.29-6.61,6.33-8.51,8.69-1.91,1,2.79.71,5.47,2.83,5.28.89-.08,2-1.31,2.84-1.9,2.88-2,5.83-2.11,8.68-3.85,3.71-2.27,6.3-7.73,9.19-3.6a2,2,0,0,1,1.93-.11c1.22.57,1.71,2,2.1,3.15.24.7.85,3.58.4,1.32,0-.05.32.66.41.89s.11.3.16.45c.47.3.93.53,1.21.42-.59.22,1.5-3.39,1.52-3.43,1.16-1.83,2.28-3.35,3.85-2.83,2,.67,1.81,2.76,2.78,5.82,1.23,3.93,2.94,3.41,4.77,3,1.55-2.71,3.35-2.69,5.3-1.31-.68-.48-.11-.22.45.43,1.24-1.11,2.18-2.87,4-2,.8.38,1.56,1.3,1.52,3.24,0,.49,4.2.12,8.21-.25a51.55,51.55,0,0,1,7-.44c1.82.52,1.66.29,3.1-1.44a20.62,20.62,0,0,1,4.09-3.71c2.25-1.56,3.44-.5,5.1,1.82a2.22,2.22,0,0,1,1.9.08c1.16-1.36,2.26-2.36,3.83-.87s2.38,4,4.16,4.82c2.37,1.11,4.53.32,6.89-.25,2.2-.53,3.89-.22,6.11-1.31,2.83-1.39,5.32-3.75,8-5.67,2.39-1.69,5.33-3.61,7.87-2.75a7.31,7.31,0,0,1,3.12,1.52c.11.13.22.27.32.41l.06-.06c.42-.34.75-1.06,1.18-1.41,1.21-1,4.66-1.82,5.84.61,3.71-.29,7.43-1.59,11.15-1.66s7.41-1.14,11.14-.89a9.64,9.64,0,0,1,7.63,4.09c.92,1.25,2,2.86,2.9,4.33.44-.64,1-1.32,1.15-1.63,2.15-4.73,2.2-13,3.38-18.81a26.26,26.26,0,0,1,2.2-5.9c2.37-5.7,1.46-7.55-.6-11.93-1.25-2.63-2.33-5.56-.88-8.92.7-1.61,2-1.65,2.68-3.08a37.53,37.53,0,0,0,1-8.83,5.63,5.63,0,0,1-.1-.91c-.42-3.91-1.56-6.82-1.82-10.91s-.22-8.13-.86-12.23c-.58-3.79-2.35-8.45-2.3-12.62a12.48,12.48,0,0,1,1.28-5.22,6.41,6.41,0,0,1,0-4.48,16.78,16.78,0,0,1,1.19-2.21c1.09-1.89,1.29-1.32,1.44-3.51.46-6.85-1.95-6.21-2.91-10.92a8.61,8.61,0,0,1,.61-5.36c1.61-3.6,4-2.84,3.9-9.4,0-2.72-.37-5.23-.49-7.87A3.73,3.73,0,0,1,401.42,66a8,8,0,0,1,.18-2.13c-.16.48-.14,0-.08-.49s.21-1.18.14,0a3.8,3.8,0,0,1-.06.5l.06-.18a27.91,27.91,0,0,1,1.1-3.23c-.43-3.77-2.63-7.77-2.89-12.2-.06-1.19.54-5.35.27-6.22-.41-1.33-2.34-.55-3.08-2.08-.07-.15-.14-.32-.2-.48-2.18-2.89-5.25-9.7-7.45-8.35-1.22.76-2.2,2.5-3.52,3a6.64,6.64,0,0,1-4.4.07,5.57,5.57,0,0,1-2-1c-1-.83-.54-1.62-1.1-.93-.71.87-1.06,4.26-1.93,5.51-1.74,2.47-3.67,1.4-5.52.22-2.48-1.58-4.82-.76-7.3-2.29-1.87-1.14-2.11-.5-3.91,0a2.51,2.51,0,0,1-2.64-.9c-1.1-1.18-2.49-6.75-3.83-6.08-.5.26-1.83,5.5-2.61,6.47a3.81,3.81,0,0,1-5.16.85c-1-.07-1.82-.79-2.59-2.59a3.17,3.17,0,0,1-.23-1.09,8.15,8.15,0,0,0-2.6-.19,7.43,7.43,0,0,1-1.8-.09c-1.42-.39-2.51-.85-4-.35-1.22.41-2.15,1.12-3.38.72-1.52-.49-2.72-2.52-4.24-3.16-2.67-1.14-4.88,1-7.27,3l-.23.19-.2.18c-.35.33-.67.87-1,1.21a3.08,3.08,0,0,1-2.21.86,23.45,23.45,0,0,1-7.94-1c-1.14-.35-2.13-1.13-3.26-.5s-1.68,2.26-2.94,2.38c-1,.1-1.63-.5-2.53-1.45-1.56-1.67-2.35-2.2-4.12-2.16A5.84,5.84,0,0,1,291.53,31c-1.21-.8-2-2-3.46-1.18-.38.22-.66,1.1-1.06,1.31-2,1.05-2.63.94-4.4-1-2.31-2.57-4.42-2.06-6.73-4.39-.65-.66-.93-1.06-1.17-1.06s-.54.65-1.4,2.26"/></clipPath><linearGradient id="linear-gradient-3" x1="240.09" y1="21.53" x2="240.09" y2="215.65" xlink:href="#linear-gradient"/><clipPath id="clip-path-2" transform="translate(0 -0.59)"><rect class="cls-2" x="68.84" width="319.05" height="192.3"/></clipPath></defs><title>Asset 19</title><g id="Layer_2" data-name="Layer 2"><g id="Layer_1-2" data-name="Layer 1"><path class="cls-1" d="M259.85,213.47h0m13.46-186.6c-.58,1.09-1,2.37-1.55,3.5-1.21,2.62-2.47,3.91-4.26,3.56-5.27-1-10.14,3.28-15.44,4-3.59.5-7.93,1.39-11.5.38-1.86-.53-2-1.4-3.06-4.41-1.66-4.84-4.61-3.35-7.56-1.87-1.75.89-3.5,1.77-5,1.33-3.07-.92-5.47-4.38-8.43-1.19-2.06,2.24-3.36,1.81-5.52,1.41-1.3-.23-1-1.47-2.3.54-.28.41-.39,1.47-.67,1.93a5.67,5.67,0,0,1-1.81,2.12c-2.14,1.31-4.77-.55-6.92-1.43s-5.13-.3-6.95-2.38a13.25,13.25,0,0,1-1.45-3c-1.19-2.43-1.31-3.05-2.31-.89.45-1-.47,1.93-.77,2.52a4.47,4.47,0,0,1-2.2,2.17c-2.13.9-2.88-2.09-4.82-2.73a11.81,11.81,0,0,0-4.37-.3,17,17,0,0,1-3.2,0c-2.36-.34-4.5-4.12-6.88-3.15-2.55,1-4.62,4.93-7.3,5.5a7,7,0,0,1-3.9-.71,6.73,6.73,0,0,0-3.94-.7c-1.22.29-2.15,1.2-3.37.59-.95-.48-1.69-2.08-2.5-2.39a1.82,1.82,0,0,0-1.17.22,2.09,2.09,0,0,1-1.17.25c-1.08-.25-2-1.78-3.06-2.08a4,4,0,0,0-2.22.06,2.88,2.88,0,0,1-3.11-.61c-1.38-1.22-4.17-3.89-5.8-4.06-1.82-.2-2.78,6.37-4.84,7.58a3.54,3.54,0,0,1-2.12.34,8,8,0,0,0-5.61,2.19A15.06,15.06,0,0,1,102.93,38c-2.74-.65-2-2.91-3.7-6.37-1.53-3.08-4-.64-5.92,1l-.06.06-.18.16v0l-.57.47a1.19,1.19,0,0,1-1.13.26c-1.45.18-2.49-.75-3.75-1.6a4.58,4.58,0,0,1-1.69,1.49,17.22,17.22,0,0,1-1.28,5.61,66.9,66.9,0,0,0-3,8.83c-.83,3.27-.18,5-.63,8.12a15.27,15.27,0,0,1-1.35,3.88A6.56,6.56,0,0,1,79.78,61a8.07,8.07,0,0,1-.35,2.63C79.94,68,81.16,70.41,83,73.75c2,3.67.48,5,.58,10.13.06,3.51.94,6.86,1.14,10.38.16,2.94,0,5.65.41,8.55a138.9,138.9,0,0,1,1,15.47,6.08,6.08,0,0,1,.17,6.39c.09,4,.38,9.57-.18,12.86s-2,3.17-3.14,5.14c-2.73,4.7.19,12.43.69,18.32.7,8.12-1.23,14.4-1.58,22.23-.19,4.31,1.67,7.59,2.4,11.35.89,4.64.6,9.89,3.3,12.08a3.3,3.3,0,0,0,2.33.52c1.06,0,2.12,0,2.91,1.15,1.3,2,.34,4.43,1.13,6.7,1.27,3.71,5.77-1.94,7.54-2.78a16.54,16.54,0,0,0,6.1-4.29c1-1.11,2.15-2,3.34-1.46,1.65.76,2.36,3.9,3.18,6.75.65-.16,1.29-.18,1.85-.33,1.89-.48,3.78-4,5.75-2.33,1.41,1.21,1.45,4.79,3,5.75.61.39,1.49.12,2.33-.15a5.14,5.14,0,0,1,1.51-.35,8.7,8.7,0,0,0,3.54-.54c1-.37,1.88-1,2.95-.33s1.63,1.72,2.67,1.86a11.06,11.06,0,0,0,2.15,0,14.13,14.13,0,0,1,1.71-.05c1.5.07,2.43-.93,3.82-1.33a3.52,3.52,0,0,1,1.86.06,2.6,2.6,0,0,0,2.75-.56c2-1.82,3-5.31,5.42-4.29a2.71,2.71,0,0,1,1.42,1.05,3.67,3.67,0,0,1,.26.48c1.44-1.15,3.1-1.25,4.06.9.83.81,1.27,2.23,2.39,3.34,1.94,1.92,5,.67,7,.11a18.41,18.41,0,0,0,7.94-4.47c2.2-2,4.41-4.62,6.8-5.49a4.14,4.14,0,0,1,3.23.21c.82,0,1.06.44.7,1.22.48-.41,1-.79,1.44-1.16a7.29,7.29,0,0,1,4.32-.06,11.45,11.45,0,0,0,2.93.28c4.83-.44,10.14-3.26,15-2a8.18,8.18,0,0,1,5.56,4c1,1.73,1.26,3.9,2.5,5,.07-.19.15-.43.25-.73,2.29-6.61,6.33-8.51,8.69-1.91,1,2.79.71,5.47,2.83,5.28.89-.08,2-1.31,2.84-1.9,2.88-2,5.83-2.11,8.68-3.85,3.71-2.27,6.3-7.73,9.19-3.6a2,2,0,0,1,1.93-.11c1.22.57,1.71,2,2.1,3.15.24.7.85,3.58.4,1.32,0-.05.32.66.41.89s.11.3.16.45c.47.3.93.53,1.21.42-.59.22,1.5-3.39,1.52-3.43,1.16-1.83,2.28-3.35,3.85-2.83,2,.67,1.81,2.76,2.78,5.82,1.23,3.93,2.94,3.41,4.77,3,1.55-2.71,3.35-2.69,5.3-1.31-.68-.48-.11-.22.45.43,1.24-1.11,2.18-2.87,4-2,.8.38,1.56,1.3,1.52,3.24,0,.49,4.2.12,8.21-.25a51.55,51.55,0,0,1,7-.44c1.82.52,1.66.29,3.1-1.44a20.62,20.62,0,0,1,4.09-3.71c2.25-1.56,3.44-.5,5.1,1.82a2.22,2.22,0,0,1,1.9.08c1.16-1.36,2.26-2.36,3.83-.87s2.38,4,4.16,4.82c2.37,1.11,4.53.32,6.89-.25,2.2-.53,3.89-.22,6.11-1.31,2.83-1.39,5.32-3.75,8-5.67,2.39-1.69,5.33-3.61,7.87-2.75a7.31,7.31,0,0,1,3.12,1.52c.11.13.22.27.32.41l.06-.06c.42-.34.75-1.06,1.18-1.41,1.21-1,4.66-1.82,5.84.61,3.71-.29,7.43-1.59,11.15-1.66s7.41-1.14,11.14-.89a9.64,9.64,0,0,1,7.63,4.09c.92,1.25,2,2.86,2.9,4.33.44-.64,1-1.32,1.15-1.63,2.15-4.73,2.2-13,3.38-18.81a26.26,26.26,0,0,1,2.2-5.9c2.37-5.7,1.46-7.55-.6-11.93-1.25-2.63-2.33-5.56-.88-8.92.7-1.61,2-1.65,2.68-3.08a37.53,37.53,0,0,0,1-8.83,5.63,5.63,0,0,1-.1-.91c-.42-3.91-1.56-6.82-1.82-10.91s-.22-8.13-.86-12.23c-.58-3.79-2.35-8.45-2.3-12.62a12.48,12.48,0,0,1,1.28-5.22,6.41,6.41,0,0,1,0-4.48,16.78,16.78,0,0,1,1.19-2.21c1.09-1.89,1.29-1.32,1.44-3.51.46-6.85-1.95-6.21-2.91-10.92a8.61,8.61,0,0,1,.61-5.36c1.61-3.6,4-2.84,3.9-9.4,0-2.72-.37-5.23-.49-7.87A3.73,3.73,0,0,1,401.42,66a8,8,0,0,1,.18-2.13c-.16.48-.14,0-.08-.49s.21-1.18.14,0a3.8,3.8,0,0,1-.06.5l.06-.18a27.91,27.91,0,0,1,1.1-3.23c-.43-3.77-2.63-7.77-2.89-12.2-.06-1.19.54-5.35.27-6.22-.41-1.33-2.34-.55-3.08-2.08-.07-.15-.14-.32-.2-.48-2.18-2.89-5.25-9.7-7.45-8.35-1.22.76-2.2,2.5-3.52,3a6.64,6.64,0,0,1-4.4.07,5.57,5.57,0,0,1-2-1c-1-.83-.54-1.62-1.1-.93-.71.87-1.06,4.26-1.93,5.51-1.74,2.47-3.67,1.4-5.52.22-2.48-1.58-4.82-.76-7.3-2.29-1.87-1.14-2.11-.5-3.91,0a2.51,2.51,0,0,1-2.64-.9c-1.1-1.18-2.49-6.75-3.83-6.08-.5.26-1.83,5.5-2.61,6.47a3.81,3.81,0,0,1-5.16.85c-1-.07-1.82-.79-2.59-2.59a3.17,3.17,0,0,1-.23-1.09,8.15,8.15,0,0,0-2.6-.19,7.43,7.43,0,0,1-1.8-.09c-1.42-.39-2.51-.85-4-.35-1.22.41-2.15,1.12-3.38.72-1.52-.49-2.72-2.52-4.24-3.16-2.67-1.14-4.88,1-7.27,3l-.23.19-.2.18c-.35.33-.67.87-1,1.21a3.08,3.08,0,0,1-2.21.86,23.45,23.45,0,0,1-7.94-1c-1.14-.35-2.13-1.13-3.26-.5s-1.68,2.26-2.94,2.38c-1,.1-1.63-.5-2.53-1.45-1.56-1.67-2.35-2.2-4.12-2.16A5.84,5.84,0,0,1,291.53,31c-1.21-.8-2-2-3.46-1.18-.38.22-.66,1.1-1.06,1.31-2,1.05-2.63.94-4.4-1-2.31-2.57-4.42-2.06-6.73-4.39-.65-.66-.93-1.06-1.17-1.06s-.54.65-1.4,2.26" transform="translate(0 -0.59)"/><g class="cls-3"><rect class="cls-4" x="78.26" y="21.53" width="323.66" height="194.12"/></g><path class="cls-5" d="M192.9,141.76l-24.81-21.54L203.8,89.06c2.29-2,3.34-4,1.07-6.12s-4.07-.72-6.53,1.3L161.05,117a4.41,4.41,0,0,0,0,6.88l37.29,32.72c1.23,1,2.71,2.55,4.31,2.55a3.84,3.84,0,0,0,3-1.45c1.43-2.34.39-3.72-1.89-5.73" transform="translate(0 -0.59)"/><path class="cls-5" d="M288.52,99.21l24.81,21.54-35.71,31.16c-2.29,2-3.35,4.05-1.07,6.13s4.06.71,6.53-1.31L320.37,124a4.41,4.41,0,0,0,.68-6.2,4.31,4.31,0,0,0-.68-.67L283.08,84.41c-1.23-1-2.71-2.54-4.32-2.54a3.81,3.81,0,0,0-3,1.44c-1.43,2.35-.4,3.72,1.89,5.73" transform="translate(0 -0.59)"/><path class="cls-5" d="M262,71.7a4.42,4.42,0,0,0-6,2.48L217.52,163.5c-1.08,2.52-.37,4.52,2.57,5.77a3.9,3.9,0,0,0,.64.26,4.47,4.47,0,0,0,5.39-2.74l38.31-89.12c1.17-3.06.42-4.88-2.44-6" transform="translate(0 -0.59)"/><g class="cls-6"><g class="cls-7"><path class="cls-5" d="M70.62,190.65h314.9V2.25H70.62ZM69,.59H387.17V192.3H69Z" transform="translate(0 -0.59)"/><path class="cls-8" d="M89.31,13a5.66,5.66,0,0,1,5.79,5.52,5.8,5.8,0,0,1-11.59,0A5.67,5.67,0,0,1,89.31,13Z" transform="translate(0 -0.59)"/><path class="cls-8" d="M114.42,13a5.52,5.52,0,1,1-5.52,5.52A5.52,5.52,0,0,1,114.42,13Z" transform="translate(0 -0.59)"/><path class="cls-8" d="M139.8,13a5.52,5.52,0,1,1-5.52,5.52A5.52,5.52,0,0,1,139.8,13Z" transform="translate(0 -0.59)"/><rect class="cls-8" x="70.27" y="0.84" width="316.18" height="33.66"/></g></g><path class="cls-9" d="M40.72,256.08a13.48,13.48,0,0,1,3.47,9.68,19.64,19.64,0,0,1-5.59,14A15.92,15.92,0,0,1,27.35,284H19.6c-.2,0-.35.13-.44.38l-2.39,19.36a1.27,1.27,0,0,1-.33.64.9.9,0,0,1-.64.26H7.39a.76.76,0,0,1-.6-.26.72.72,0,0,1-.15-.64l6.18-50.43a1.22,1.22,0,0,1,.34-.63.86.86,0,0,1,.63-.26H31.3Q37.26,252.43,40.72,256.08ZM31.86,273.4a8.66,8.66,0,0,0,2-6,6.09,6.09,0,0,0-1.45-4.32,5.17,5.17,0,0,0-4-1.56H22.36c-.2,0-.35.12-.45.37L20.27,275.3c0,.25.1.37.3.37h6.18A6.62,6.62,0,0,0,31.86,273.4Z" transform="translate(0 -0.59)"/><path class="cls-9" d="M68,303.9l-4.77-20.56c-.1-.2-.22-.3-.37-.3H58.27a.34.34,0,0,0-.38.38l-2.53,20.33a1.27,1.27,0,0,1-.33.64.9.9,0,0,1-.64.26H46c-.54,0-.82-.3-.82-.9l6.19-50.35a1.14,1.14,0,0,1,.37-.64,1,1,0,0,1,.67-.26H70q5.88,0,9.31,3.54t3.43,9.5a17.63,17.63,0,0,1-.15,2.68,17.14,17.14,0,0,1-3,8.27,15.23,15.23,0,0,1-6.37,5.21.35.35,0,0,0-.22.52l5.59,21.38v.3q0,.75-.9.75H68.84A.78.78,0,0,1,68,303.9Zm-7.45-42-1.57,12.74c0,.25.1.37.3.37h6.34a6.25,6.25,0,0,0,4.91-2.2A8.41,8.41,0,0,0,72.42,267,5.56,5.56,0,0,0,71,263a5,5,0,0,0-3.8-1.49H61C60.75,261.52,60.6,261.64,60.5,261.89Z" transform="translate(0 -0.59)"/><path class="cls-9" d="M89.22,301.48q-4-3.84-4-10.32a17.63,17.63,0,0,1,.15-2.68l2.46-19.81A19.7,19.7,0,0,1,91,259.88,17.16,17.16,0,0,1,97.56,254a19.51,19.51,0,0,1,9-2.08q6.93,0,11,3.83t4,10.39c0,.5,0,1.35-.15,2.54L119,288.48a19.77,19.77,0,0,1-3.17,8.87,17.52,17.52,0,0,1-6.67,5.88,19.73,19.73,0,0,1-9.08,2.09Q93.19,305.32,89.22,301.48Zm17-7.22a9,9,0,0,0,2.53-5.33l2.46-20.56a9.71,9.71,0,0,0,.07-1.42,6.11,6.11,0,0,0-1.56-4.39,5.6,5.6,0,0,0-4.25-1.64,6.84,6.84,0,0,0-5,2.05,8.77,8.77,0,0,0-2.42,5.4l-2.53,20.56a8.3,8.3,0,0,0-.07,1.27A6.32,6.32,0,0,0,97,294.63a5.4,5.4,0,0,0,4.21,1.67A7,7,0,0,0,106.24,294.26Z" transform="translate(0 -0.59)"/><path class="cls-9" d="M128.7,301.48a13.13,13.13,0,0,1-4-10q0-.81.15-2.46l2.61-20.93a18.69,18.69,0,0,1,3.09-8.49,17,17,0,0,1,6.48-5.66,19.48,19.48,0,0,1,8.9-2q6.78,0,10.8,3.68a12.5,12.5,0,0,1,4,9.65q0,.67-.15,2.16l-.23,1.64a1.2,1.2,0,0,1-.33.63.86.86,0,0,1-.64.26H151a.73.73,0,0,1-.6-.26.7.7,0,0,1-.15-.63l.15-1.56a4.4,4.4,0,0,0,.08-1,5.64,5.64,0,0,0-1.49-4,5.41,5.41,0,0,0-4.1-1.56,6.83,6.83,0,0,0-4.92,1.94,8.12,8.12,0,0,0-2.38,5.06L135,289.23a6.25,6.25,0,0,0-.07,1.12,5.79,5.79,0,0,0,1.6,4.28,5.68,5.68,0,0,0,4.21,1.6,6.74,6.74,0,0,0,7-6.41l.59-4.62c0-.24-.09-.37-.29-.37h-5.66a.73.73,0,0,1-.6-.26.7.7,0,0,1-.15-.63l.82-6.78a1.15,1.15,0,0,1,.34-.63.82.82,0,0,1,.63-.26h15.27a.73.73,0,0,1,.6.26.72.72,0,0,1,.14.63L157.94,289a17.91,17.91,0,0,1-6,11.85,18.43,18.43,0,0,1-12.52,4.39Q132.68,305.24,128.7,301.48Z" transform="translate(0 -0.59)"/><path class="cls-9" d="M185.72,303.9,181,283.34c-.1-.2-.22-.3-.37-.3H176a.34.34,0,0,0-.38.38l-2.53,20.33a1.27,1.27,0,0,1-.33.64.9.9,0,0,1-.64.26h-8.42q-.81,0-.81-.9l6.18-50.35a1.14,1.14,0,0,1,.37-.64,1,1,0,0,1,.67-.26h17.58q5.88,0,9.31,3.54t3.43,9.5a17.63,17.63,0,0,1-.15,2.68,17.14,17.14,0,0,1-3,8.27,15.23,15.23,0,0,1-6.37,5.21.36.36,0,0,0-.22.52l5.59,21.38v.3q0,.75-.9.75h-8.79A.78.78,0,0,1,185.72,303.9Zm-7.45-42-1.56,12.74c0,.25.1.37.29.37h6.34a6.25,6.25,0,0,0,4.91-2.2,8.41,8.41,0,0,0,1.94-5.77,5.56,5.56,0,0,0-1.42-4,5,5,0,0,0-3.79-1.49h-6.26C178.52,261.52,178.37,261.64,178.27,261.89Z" transform="translate(0 -0.59)"/><path class="cls-9" d="M228.63,303.9l-.82-7.3a.27.27,0,0,0-.3-.3H214a.6.6,0,0,0-.45.3l-2.53,7.3a1.06,1.06,0,0,1-1.05.75h-8.71c-.7,0-.9-.32-.6-1l19.15-50.43a1.1,1.1,0,0,1,1.11-.75h10.51a.78.78,0,0,1,.89.75l6.86,50.43c0,.65-.3,1-.9,1h-8.79A.77.77,0,0,1,228.63,303.9Zm-11.7-15.72h9.54a.38.38,0,0,0,.44-.44l-2.38-21.61c0-.19-.05-.29-.15-.29s-.17.1-.22.29l-7.53,21.61C216.58,288,216.68,288.18,216.93,288.18Z" transform="translate(0 -0.59)"/><path class="cls-9" d="M279.65,252.5h8.42a.76.76,0,0,1,.6.26.72.72,0,0,1,.15.64l-6.19,50.35a1.27,1.27,0,0,1-.33.64.89.89,0,0,1-.63.26h-8.5a.74.74,0,0,1-.59-.26.72.72,0,0,1-.15-.64l4-33.07c.05-.2,0-.31-.07-.34s-.2,0-.3.19L268,281.85a1.22,1.22,0,0,1-1.11.6h-1.64a1,1,0,0,1-1-.6l-5.22-11.32c-.1-.15-.2-.21-.29-.19s-.15.14-.15.34l-4.1,33.07a1.21,1.21,0,0,1-.34.64.86.86,0,0,1-.63.26h-8.42a.76.76,0,0,1-.59-.26.72.72,0,0,1-.15-.64l6.18-50.35a.83.83,0,0,1,.3-.64,1,1,0,0,1,.67-.26h8.34a.92.92,0,0,1,1,.6l6.86,14.67c.09.3.24.3.44,0l10.36-14.67A1.22,1.22,0,0,1,279.65,252.5Z" transform="translate(0 -0.59)"/><path class="cls-9" d="M334.6,303.75l6.18-50.35a1.14,1.14,0,0,1,.37-.64,1,1,0,0,1,.67-.26h8.42a.76.76,0,0,1,.6.26.72.72,0,0,1,.15.64l-6.19,50.35a1.27,1.27,0,0,1-.33.64.9.9,0,0,1-.64.26h-8.41C334.87,304.65,334.6,304.35,334.6,303.75Z" transform="translate(0 -0.59)"/><path class="cls-9" d="M383.8,252.76a.86.86,0,0,1,.63-.26h8.42a.76.76,0,0,1,.6.26.75.75,0,0,1,.15.64l-6.19,50.35a1.27,1.27,0,0,1-.33.64.9.9,0,0,1-.64.26h-8.79a.92.92,0,0,1-1-.67l-10.06-30.32c-.1-.15-.2-.22-.3-.22s-.15.09-.15.29l-3.65,30a1.27,1.27,0,0,1-.33.64.9.9,0,0,1-.64.26h-8.34c-.55,0-.82-.3-.82-.9l6.18-50.35a1.15,1.15,0,0,1,.38-.64,1,1,0,0,1,.67-.26h8.71a.89.89,0,0,1,.9.67l10.13,30.32c.05.15.12.22.22.22s.18-.09.22-.29l3.65-30A1.21,1.21,0,0,1,383.8,252.76Z" transform="translate(0 -0.59)"/><path class="cls-9" d="M399.82,301.48a13.13,13.13,0,0,1-4-10q0-.81.15-2.46l2.61-20.93a18.69,18.69,0,0,1,3.09-8.49,17,17,0,0,1,6.48-5.66,19.48,19.48,0,0,1,8.9-2q6.78,0,10.8,3.68a12.49,12.49,0,0,1,4,9.65c0,.45,0,1.17-.14,2.16l-.23,1.64a1.2,1.2,0,0,1-.33.63.86.86,0,0,1-.64.26h-8.41a.73.73,0,0,1-.6-.26.7.7,0,0,1-.15-.63l.15-1.56a4.4,4.4,0,0,0,.08-1,5.64,5.64,0,0,0-1.49-4,5.41,5.41,0,0,0-4.1-1.56,6.83,6.83,0,0,0-4.92,1.94,8.12,8.12,0,0,0-2.38,5.06l-2.61,21.31a6.25,6.25,0,0,0-.07,1.12,5.79,5.79,0,0,0,1.6,4.28,5.67,5.67,0,0,0,4.21,1.6,6.74,6.74,0,0,0,7-6.41l.59-4.62c0-.24-.09-.37-.29-.37h-5.66a.73.73,0,0,1-.6-.26.7.7,0,0,1-.15-.63l.82-6.78a1.15,1.15,0,0,1,.34-.63.82.82,0,0,1,.63-.26H429.8a.73.73,0,0,1,.6.26.72.72,0,0,1,.14.63L429.05,289a17.83,17.83,0,0,1-6,11.85,18.4,18.4,0,0,1-12.51,4.39Q403.8,305.24,399.82,301.48Z" transform="translate(0 -0.59)"/><path class="cls-9" d="M15.88,231.62l-5.14-50.44V181c0-.54.32-.82,1-.82h8.86a.73.73,0,0,1,.82.82l2,28.61c0,.15.06.22.19.22a.27.27,0,0,0,.26-.22L32.56,181a1,1,0,0,1,1-.82h8a.73.73,0,0,1,.82.82l2.31,28.61c0,.15.06.22.19.22a.27.27,0,0,0,.26-.22L53.94,181a1,1,0,0,1,1.05-.82h8.49c.6,0,.79.33.6,1L47.39,231.54a1,1,0,0,1-1,.82h-8.2a.72.72,0,0,1-.82-.82L35.1,201.6c0-.15-.05-.23-.15-.23s-.18.08-.22.23l-8.94,29.94a1,1,0,0,1-1.05.82h-8A.9.9,0,0,1,15.88,231.62Z" transform="translate(0 -0.59)"/><path class="cls-9" d="M98.9,189a.86.86,0,0,1-.63.26H78.9c-.2,0-.35.12-.45.37L77,201.22c0,.25.1.37.29.37H89.4a.74.74,0,0,1,.6.27.7.7,0,0,1,.15.63l-.82,7.23a1.17,1.17,0,0,1-.37.63,1,1,0,0,1-.67.26H76.22a.36.36,0,0,0-.26.11.33.33,0,0,0-.11.26l-1.49,12c0,.25.09.38.29.38H94c.55,0,.82.3.82.89L94,231.47a1.15,1.15,0,0,1-.34.63.86.86,0,0,1-.63.26H63.93c-.55,0-.82-.3-.82-.89l6.18-50.36a1.08,1.08,0,0,1,.37-.63,1,1,0,0,1,.67-.26H99.38a.73.73,0,0,1,.6.26.7.7,0,0,1,.15.63l-.89,7.22A1.29,1.29,0,0,1,98.9,189Z" transform="translate(0 -0.59)"/><path class="cls-9" d="M129,228.64a19.11,19.11,0,0,1-12,3.72H100.87c-.54,0-.82-.3-.82-.89l6.19-50.36a1.08,1.08,0,0,1,.37-.63,1,1,0,0,1,.67-.26h15q7,0,10.84,2.94t3.83,8.9q0,.67-.15,2.46c-.59,4.91-2.88,8.47-6.85,10.65q-.37.3-.15.45,5,3.27,5,9.83c0,.45-.05,1.22-.14,2.31Q133.88,224.92,129,228.64Zm-6.55-7.12a8.17,8.17,0,0,0,2.27-5,8.07,8.07,0,0,0,.08-1.27,5.7,5.7,0,0,0-1.42-4.09,5.25,5.25,0,0,0-4-1.5h-6c-.19,0-.34.13-.44.38L111.3,222.9a.33.33,0,0,0,.38.37h6A6.54,6.54,0,0,0,122.44,221.52Zm-7-31.92L114,201.3c0,.25.1.37.3.37h5.51a6.64,6.64,0,0,0,7-6.18,5.74,5.74,0,0,0,.07-1.05,5,5,0,0,0-1.45-3.83,5.77,5.77,0,0,0-4.13-1.38h-5.44C115.65,189.23,115.5,189.35,115.4,189.6Z" transform="translate(0 -0.59)"/><rect class="cls-10" x="50.18" y="178.67" width="382.66" height="127.01"/><path class="cls-5" d="M34.1,248.9a13.51,13.51,0,0,1,3.46,9.69,19.67,19.67,0,0,1-5.58,14,16,16,0,0,1-11.25,4.28H13c-.2,0-.35.12-.45.37l-2.38,19.37a1.15,1.15,0,0,1-.34.63.82.82,0,0,1-.63.26H.76a.71.71,0,0,1-.59-.26.7.7,0,0,1-.15-.63L6.2,246.15a1.21,1.21,0,0,1,.34-.64.86.86,0,0,1,.63-.26H24.68q6,0,9.42,3.65m-8.87,17.32a8.57,8.57,0,0,0,2.05-6,6.09,6.09,0,0,0-1.45-4.32,5.16,5.16,0,0,0-4-1.57h-6.1c-.2,0-.35.13-.45.37l-1.64,13.41c0,.25.1.37.3.37h6.18a6.55,6.55,0,0,0,5.1-2.27" transform="translate(0 -0.59)"/><path class="cls-5" d="M61.33,296.73l-4.77-20.56c-.1-.2-.22-.3-.37-.3H51.64a.33.33,0,0,0-.37.37l-2.53,20.34a1.22,1.22,0,0,1-.34.63.82.82,0,0,1-.63.26H39.35c-.55,0-.82-.29-.82-.89l6.18-50.36a1.09,1.09,0,0,1,.38-.63,1,1,0,0,1,.67-.26H63.34q5.88,0,9.31,3.54a13.08,13.08,0,0,1,3.43,9.49,17.69,17.69,0,0,1-.15,2.69,17.25,17.25,0,0,1-3,8.26,15.24,15.24,0,0,1-6.37,5.22.35.35,0,0,0-.22.52l5.59,21.38v.3c0,.5-.3.74-.9.74H62.22c-.55,0-.84-.24-.89-.74m-7.45-42-1.57,12.74c0,.25.1.38.3.38h6.33a6.29,6.29,0,0,0,4.92-2.2,8.43,8.43,0,0,0,1.94-5.78,5.64,5.64,0,0,0-1.42-4,5,5,0,0,0-3.8-1.49H54.32c-.19,0-.34.13-.44.37" transform="translate(0 -0.59)"/><path class="cls-5" d="M82.59,294.31q-4-3.84-4-10.32a17.54,17.54,0,0,1,.15-2.68l2.46-19.82a19.9,19.9,0,0,1,3.12-8.79,17.31,17.31,0,0,1,6.6-5.88,19.49,19.49,0,0,1,9-2.09q6.93,0,11,3.84T115,259c0,.5,0,1.34-.15,2.53l-2.46,19.82a19.56,19.56,0,0,1-3.16,8.86,17.53,17.53,0,0,1-6.67,5.89,19.74,19.74,0,0,1-9.09,2.08q-6.86,0-10.84-3.83m17-7.23a8.85,8.85,0,0,0,2.54-5.33l2.46-20.56a9.46,9.46,0,0,0,.07-1.41,6.13,6.13,0,0,0-1.56-4.4,5.61,5.61,0,0,0-4.25-1.63,6.86,6.86,0,0,0-5,2,8.79,8.79,0,0,0-2.42,5.4l-2.53,20.56a8.16,8.16,0,0,0-.08,1.27,6.3,6.3,0,0,0,1.53,4.43,5.4,5.4,0,0,0,4.21,1.68,6.93,6.93,0,0,0,5.06-2.05" transform="translate(0 -0.59)"/><path class="cls-5" d="M122.07,294.31a13.16,13.16,0,0,1-4-10q0-.82.15-2.46l2.61-20.93a18.69,18.69,0,0,1,3.09-8.49,16.91,16.91,0,0,1,6.48-5.67,19.45,19.45,0,0,1,8.9-2q6.78,0,10.8,3.69a12.48,12.48,0,0,1,4,9.65q0,.66-.15,2.16l-.22,1.64a1.28,1.28,0,0,1-.33.63.9.9,0,0,1-.64.26h-8.41a.76.76,0,0,1-.6-.26.71.71,0,0,1-.15-.63l.15-1.57a4.49,4.49,0,0,0,.07-1,5.55,5.55,0,0,0-1.49-4,5.37,5.37,0,0,0-4.09-1.56,6.82,6.82,0,0,0-4.92,1.93,8.12,8.12,0,0,0-2.38,5.07l-2.61,21.3a6.25,6.25,0,0,0-.07,1.12,5.76,5.76,0,0,0,1.6,4.28,5.67,5.67,0,0,0,4.2,1.61,6.76,6.76,0,0,0,7-6.41l.59-4.62c0-.25-.1-.37-.29-.37h-5.67a.74.74,0,0,1-.59-.26.72.72,0,0,1-.15-.64l.82-6.77a1.27,1.27,0,0,1,.33-.64.9.9,0,0,1,.64-.26h15.27a.73.73,0,0,1,.74.9l-1.49,11.84a17.8,17.8,0,0,1-6,11.84,18.41,18.41,0,0,1-12.51,4.4q-6.78,0-10.77-3.76" transform="translate(0 -0.59)"/><path class="cls-5" d="M179.1,296.73l-4.77-20.56c-.1-.2-.22-.3-.37-.3h-4.55a.33.33,0,0,0-.37.37l-2.53,20.34a1.15,1.15,0,0,1-.34.63.82.82,0,0,1-.63.26h-8.42c-.54,0-.82-.29-.82-.89l6.19-50.36a1,1,0,0,1,.37-.63,1,1,0,0,1,.67-.26h17.58q5.88,0,9.31,3.54a13.08,13.08,0,0,1,3.43,9.49,17.69,17.69,0,0,1-.15,2.69,17.25,17.25,0,0,1-3,8.26,15.24,15.24,0,0,1-6.37,5.22.35.35,0,0,0-.22.52l5.59,21.38v.3c0,.5-.3.74-.9.74H180a.77.77,0,0,1-.89-.74m-7.45-42-1.57,12.74c0,.25.1.38.3.38h6.33a6.29,6.29,0,0,0,4.92-2.2,8.43,8.43,0,0,0,1.94-5.78,5.64,5.64,0,0,0-1.42-4,5,5,0,0,0-3.8-1.49H172.1c-.2,0-.35.13-.45.37" transform="translate(0 -0.59)"/><path class="cls-5" d="M222,296.73l-.82-7.3a.27.27,0,0,0-.3-.3H207.4a.61.61,0,0,0-.44.3l-2.54,7.3a1,1,0,0,1-1,.74h-8.71c-.7,0-.9-.32-.6-1l19.14-50.43a1.12,1.12,0,0,1,1.12-.74h10.51a.78.78,0,0,1,.89.74l6.85,50.43c0,.65-.29,1-.89,1H222.9c-.55,0-.85-.24-.89-.74M210.31,281h9.53a.4.4,0,0,0,.45-.45L217.91,259q0-.3-.15-.3c-.1,0-.18.1-.22.3L210,280.56q-.07.45.3.45" transform="translate(0 -0.59)"/><path class="cls-5" d="M273,245.33h8.42a.76.76,0,0,1,.6.26.72.72,0,0,1,.15.63L276,296.58a1.2,1.2,0,0,1-.33.63.86.86,0,0,1-.64.26h-8.49a.73.73,0,0,1-.74-.89l4-33.08c.05-.19,0-.3-.08-.33s-.19,0-.29.19l-8,11.32a1.22,1.22,0,0,1-1.12.59h-1.63a1,1,0,0,1-1-.59l-5.22-11.32c-.1-.15-.2-.22-.3-.19s-.15.14-.15.33l-4.09,33.08a1.15,1.15,0,0,1-.34.63.82.82,0,0,1-.63.26h-8.42a.71.71,0,0,1-.59-.26.7.7,0,0,1-.15-.63L244,246.22a.8.8,0,0,1,.3-.63,1,1,0,0,1,.67-.26h8.34a.93.93,0,0,1,1,.59l6.85,14.68q.15.45.45,0l10.35-14.68a1.25,1.25,0,0,1,1.12-.59" transform="translate(0 -0.59)"/><path class="cls-9" d="M325.26,252.5h8.42a.76.76,0,0,1,.59.26.72.72,0,0,1,.15.64l-6.18,50.35a1.21,1.21,0,0,1-.34.64.86.86,0,0,1-.63.26h-8.49a.76.76,0,0,1-.6-.26.72.72,0,0,1-.15-.64l4-33.07c0-.2,0-.31-.08-.34s-.2,0-.3.19l-8,11.32a1.23,1.23,0,0,1-1.12.6h-1.64a1,1,0,0,1-1-.6l-5.21-11.32c-.1-.15-.2-.21-.3-.19s-.15.14-.15.34l-4.1,33.07a1.27,1.27,0,0,1-.33.64.89.89,0,0,1-.63.26h-8.42a.76.76,0,0,1-.6-.26.72.72,0,0,1-.15-.64l6.19-50.35a.85.85,0,0,1,.29-.64,1,1,0,0,1,.67-.26h8.35a.93.93,0,0,1,1,.6l6.85,14.67q.15.45.45,0l10.35-14.67A1.23,1.23,0,0,1,325.26,252.5Z" transform="translate(0 -0.59)"/><path class="cls-5" d="M318.64,245.33h8.41a.76.76,0,0,1,.6.26.7.7,0,0,1,.15.63l-6.18,50.36a1.22,1.22,0,0,1-.34.63.82.82,0,0,1-.63.26h-8.49a.73.73,0,0,1-.6-.26.7.7,0,0,1-.15-.63l4-33.08c.05-.19,0-.3-.07-.33s-.2,0-.3.19l-8,11.32a1.23,1.23,0,0,1-1.12.59h-1.64a1,1,0,0,1-1-.59l-5.21-11.32c-.1-.15-.2-.22-.3-.19s-.15.14-.15.33l-4.1,33.08a1.2,1.2,0,0,1-.33.63.86.86,0,0,1-.64.26h-8.41a.73.73,0,0,1-.6-.26.7.7,0,0,1-.15-.63l6.18-50.36a.8.8,0,0,1,.3-.63,1,1,0,0,1,.67-.26h8.35a.92.92,0,0,1,1,.59l6.86,14.68q.15.45.45,0l10.35-14.68a1.24,1.24,0,0,1,1.12-.59" transform="translate(0 -0.59)"/><path class="cls-5" d="M328,296.58l6.18-50.36a1.08,1.08,0,0,1,.37-.63,1,1,0,0,1,.67-.26h8.42a.73.73,0,0,1,.59.26.7.7,0,0,1,.15.63l-6.18,50.36a1.2,1.2,0,0,1-.33.63.86.86,0,0,1-.64.26h-8.42c-.54,0-.81-.29-.81-.89" transform="translate(0 -0.59)"/><path class="cls-5" d="M377.18,245.59a.82.82,0,0,1,.63-.26h8.42a.73.73,0,0,1,.6.26.72.72,0,0,1,.14.63l-6.18,50.36a1.2,1.2,0,0,1-.33.63.86.86,0,0,1-.64.26H371a.92.92,0,0,1-1-.67L360,266.48c-.1-.14-.2-.22-.3-.22s-.15.1-.15.3l-3.65,30a1.15,1.15,0,0,1-.34.63.82.82,0,0,1-.63.26H346.6c-.55,0-.82-.3-.82-.89L352,246.22a1.13,1.13,0,0,1,.37-.63,1,1,0,0,1,.68-.26h8.71a.86.86,0,0,1,.89.67l10.14,30.32c0,.15.12.22.22.22s.17-.1.22-.3l3.65-30a1.15,1.15,0,0,1,.34-.63" transform="translate(0 -0.59)"/><path class="cls-5" d="M393.19,294.31a13.16,13.16,0,0,1-4-10q0-.82.15-2.46L392,260.9a18.82,18.82,0,0,1,3.1-8.49,16.91,16.91,0,0,1,6.48-5.67,19.45,19.45,0,0,1,8.9-2q6.78,0,10.8,3.69a12.48,12.48,0,0,1,4,9.65q0,.66-.15,2.16l-.22,1.64a1.22,1.22,0,0,1-.34.63.86.86,0,0,1-.63.26H415.5a.74.74,0,0,1-.59-.26.71.71,0,0,1-.15-.63l.15-1.57a4.49,4.49,0,0,0,.07-1,5.55,5.55,0,0,0-1.49-4,5.39,5.39,0,0,0-4.09-1.56,6.82,6.82,0,0,0-4.92,1.93,8.13,8.13,0,0,0-2.39,5.07l-2.6,21.3a6.06,6.06,0,0,0-.08,1.12,5.79,5.79,0,0,0,1.6,4.28,5.69,5.69,0,0,0,4.21,1.61,6.76,6.76,0,0,0,7-6.41l.59-4.62c0-.25-.1-.37-.3-.37h-5.66a.74.74,0,0,1-.59-.26.72.72,0,0,1-.15-.64l.82-6.77a1.27,1.27,0,0,1,.33-.64.9.9,0,0,1,.64-.26h15.27a.74.74,0,0,1,.59.26.72.72,0,0,1,.15.64l-1.49,11.84a17.8,17.8,0,0,1-6,11.84,18.43,18.43,0,0,1-12.51,4.4q-6.78,0-10.77-3.76" transform="translate(0 -0.59)"/><path class="cls-5" d="M9.26,224.44,4.12,174v-.15c0-.55.32-.82,1-.82H14a.72.72,0,0,1,.82.82l2,28.61c0,.15.06.22.19.22a.27.27,0,0,0,.26-.22l8.71-28.61a1,1,0,0,1,1-.82h8a.72.72,0,0,1,.82.82l2.31,28.61c0,.15.06.22.19.22a.27.27,0,0,0,.26-.22l8.71-28.61a1,1,0,0,1,1-.82h8.5c.59,0,.79.33.59,1L40.77,224.37a1,1,0,0,1-1.05.82H31.53a.73.73,0,0,1-.82-.82l-2.23-30c0-.15-.06-.22-.15-.22s-.18.07-.23.22l-8.94,30a1,1,0,0,1-1,.82h-8a.88.88,0,0,1-.89-.75" transform="translate(0 -0.59)"/><path class="cls-5" d="M92.28,181.79a.85.85,0,0,1-.63.26H72.28c-.2,0-.35.13-.45.38l-1.41,11.62c0,.25.09.37.29.37H82.78a.76.76,0,0,1,.6.26.75.75,0,0,1,.15.64l-.82,7.22a1.09,1.09,0,0,1-.38.63,1,1,0,0,1-.67.26H69.6a.37.37,0,0,0-.27.12.36.36,0,0,0-.11.26l-1.49,12c0,.25.1.37.3.37H87.4c.54,0,.82.3.82.9l-.9,7.22a1.2,1.2,0,0,1-.33.64.89.89,0,0,1-.63.26H57.3c-.54,0-.82-.3-.82-.9l6.19-50.35a1.14,1.14,0,0,1,.37-.64,1,1,0,0,1,.67-.26H92.76a.76.76,0,0,1,.6.26.72.72,0,0,1,.15.64l-.9,7.22a1.2,1.2,0,0,1-.33.63" transform="translate(0 -0.59)"/><path class="cls-5" d="M122.37,221.46a19.08,19.08,0,0,1-12,3.73H94.25c-.55,0-.82-.3-.82-.9l6.18-50.35a1.15,1.15,0,0,1,.38-.64,1,1,0,0,1,.67-.26h15c4.66,0,8.28,1,10.83,2.94s3.84,4.93,3.84,8.91c0,.44,0,1.26-.15,2.45q-.89,7.38-6.85,10.66c-.25.2-.3.34-.15.44q5,3.28,5,9.84,0,.66-.15,2.31-.82,7.14-5.7,10.87m-6.55-7.11a8.25,8.25,0,0,0,2.27-5,8.15,8.15,0,0,0,.07-1.26,5.72,5.72,0,0,0-1.41-4.1,5.31,5.31,0,0,0-4-1.49h-6c-.2,0-.35.12-.44.37l-1.57,12.82a.32.32,0,0,0,.37.37h6a6.55,6.55,0,0,0,4.73-1.75m-7-31.92-1.42,11.69c0,.25.1.37.3.37h5.51a6.62,6.62,0,0,0,7-6.18,6.66,6.66,0,0,0,.07-1,5,5,0,0,0-1.45-3.84,5.78,5.78,0,0,0-4.14-1.38h-5.43c-.2,0-.35.13-.45.38" transform="translate(0 -0.59)"/></g></g></svg>