<svg xmlns="http://www.w3.org/2000/svg" xmlns:xlink="http://www.w3.org/1999/xlink" viewBox="0 0 433.68 306.29"><defs><style>.cls-1,.cls-10,.cls-5,.cls-8,.cls-9{fill:none;}.cls-2{clip-path:url(#clip-path);}.cls-3{fill:url(#linear-gradient);}.cls-4{fill:#fff;}.cls-5,.cls-8,.cls-9{stroke:#fff;}.cls-6{opacity:0.65;}.cls-7{clip-path:url(#clip-path-2);}.cls-8{stroke-width:1.5px;}.cls-9{stroke-width:2px;}.cls-10,.cls-9{opacity:0.5;}</style><clipPath id="clip-path" transform="translate(0 -0.59)"><path class="cls-1" d="M259.25,212.83h0m13.4-185.67c-.58,1.09-1,2.36-1.55,3.49-1.21,2.6-2.45,3.89-4.24,3.54-5.24-1-10.09,3.26-15.36,4-3.58.5-7.89,1.38-11.44.37-1.85-.52-2-1.39-3-4.38-1.66-4.82-4.59-3.34-7.53-1.86-1.74.88-3.48,1.76-5,1.32-3.05-.91-5.44-4.36-8.38-1.18-2.06,2.22-3.34,1.79-5.5,1.4-1.29-.23-1-1.46-2.29.54-.27.41-.38,1.46-.66,1.91a5.74,5.74,0,0,1-1.8,2.12c-2.13,1.29-4.75-.55-6.89-1.43s-5.1-.3-6.92-2.37a14.22,14.22,0,0,1-1.44-3c-1.18-2.41-1.3-3-2.29-.88.45-1-.47,1.92-.77,2.5a4.45,4.45,0,0,1-2.18,2.16c-2.13.9-2.88-2.08-4.81-2.72a11.88,11.88,0,0,0-4.35-.3,16,16,0,0,1-3.18,0c-2.35-.35-4.48-4.1-6.85-3.14-2.53,1-4.59,4.91-7.26,5.47a6.84,6.84,0,0,1-3.88-.71,6.72,6.72,0,0,0-3.91-.69c-1.22.29-2.15,1.2-3.36.58-.95-.48-1.68-2.07-2.49-2.37a1.82,1.82,0,0,0-1.17.22A2.13,2.13,0,0,1,143,32c-1.07-.26-2-1.77-3-2.08a4.09,4.09,0,0,0-2.21.07,2.89,2.89,0,0,1-3.09-.61c-1.38-1.22-4.15-3.87-5.78-4-1.8-.19-2.76,6.33-4.81,7.55a3.58,3.58,0,0,1-2.11.33,8,8,0,0,0-5.58,2.18,15,15,0,0,1-13.26,2.84c-2.72-.65-2-2.9-3.67-6.35-1.53-3.05-4-.63-5.9,1l-.06.06-.17.17v0c-.19.16-.38.32-.57.46a1.2,1.2,0,0,1-1.12.26c-1.44.18-2.48-.75-3.73-1.6a4.39,4.39,0,0,1-1.69,1.48,16.84,16.84,0,0,1-1.27,5.59,67.75,67.75,0,0,0-3,8.79c-.83,3.25-.18,5-.63,8.07A15.34,15.34,0,0,1,80,60.05a6.35,6.35,0,0,1,.09,1.07,8,8,0,0,1-.35,2.62c.51,4.37,1.73,6.74,3.54,10.07,2,3.65.48,5,.58,10.08.06,3.49.94,6.82,1.13,10.33.16,2.92,0,5.62.41,8.5a137.66,137.66,0,0,1,1,15.4,6.05,6.05,0,0,1,.17,6.35c.09,4,.37,9.53-.18,12.8s-2,3.15-3.13,5.11c-2.71,4.68.19,12.37.69,18.23.7,8.08-1.22,14.33-1.57,22.12-.19,4.28,1.66,7.56,2.38,11.3.89,4.61.6,9.84,3.29,12a3.33,3.33,0,0,0,2.32.53c1,0,2.11,0,2.89,1.13,1.3,2,.34,4.42,1.12,6.68,1.27,3.68,5.75-1.94,7.51-2.78a16.35,16.35,0,0,0,6.07-4.26c1-1.1,2.14-2,3.33-1.46,1.63.76,2.34,3.88,3.16,6.72.64-.16,1.29-.18,1.84-.32,1.88-.49,3.76-4,5.72-2.33,1.4,1.2,1.44,4.77,2.93,5.72a2.89,2.89,0,0,0,2.32-.14,5.07,5.07,0,0,1,1.51-.35,8.63,8.63,0,0,0,3.52-.54c1-.37,1.87-1,2.93-.33s1.63,1.71,2.66,1.85a10.23,10.23,0,0,0,2.14,0,14,14,0,0,1,1.71,0c1.48.08,2.41-.92,3.79-1.32a3.48,3.48,0,0,1,1.85.06,2.58,2.58,0,0,0,2.74-.56c2-1.81,3-5.28,5.39-4.26a2.65,2.65,0,0,1,1.41,1,4.59,4.59,0,0,1,.26.49c1.43-1.15,3.09-1.25,4.05.89.82.8,1.26,2.22,2.37,3.33,1.94,1.91,5,.67,7,.11a18.57,18.57,0,0,0,7.89-4.45c2.19-2,4.39-4.6,6.78-5.47a4.14,4.14,0,0,1,3.21.21c.82,0,1.05.44.69,1.22.48-.41.95-.79,1.43-1.16a7.31,7.31,0,0,1,4.3-.06,10.52,10.52,0,0,0,2.92.28c4.81-.44,10.08-3.24,14.9-2a8.16,8.16,0,0,1,5.53,4c1,1.72,1.25,3.88,2.49,5l.24-.73c2.28-6.57,6.3-8.47,8.64-1.9,1,2.78.71,5.45,2.82,5.25.89-.08,2-1.3,2.83-1.89,2.87-2,5.8-2.1,8.64-3.83,3.69-2.26,6.26-7.69,9.14-3.58a2,2,0,0,1,1.92-.11c1.21.57,1.71,2,2.09,3.13.24.7.85,3.57.4,1.32,0-.05.32.65.41.88a3.53,3.53,0,0,1,.15.46c.48.29.93.52,1.21.41-.59.22,1.49-3.37,1.51-3.41,1.15-1.83,2.27-3.34,3.84-2.82,2,.67,1.8,2.75,2.75,5.8,1.23,3.91,2.93,3.38,4.75,2.95,1.55-2.69,3.34-2.67,5.28-1.29-.68-.49-.11-.22.45.42,1.23-1.1,2.17-2.85,4-2,.8.38,1.56,1.29,1.51,3.22,0,.49,4.19.12,8.18-.24a50.93,50.93,0,0,1,6.94-.44c1.82.52,1.66.29,3.09-1.43a20.12,20.12,0,0,1,4.07-3.69c2.24-1.56,3.42-.5,5.07,1.8a2.22,2.22,0,0,1,1.9.08c1.14-1.35,2.24-2.35,3.8-.86s2.37,4,4.15,4.8c2.36,1.1,4.5.31,6.85-.25,2.19-.53,3.87-.22,6.08-1.31,2.82-1.38,5.29-3.72,8-5.64,2.37-1.68,5.3-3.59,7.83-2.73a7.22,7.22,0,0,1,3.1,1.51,4.47,4.47,0,0,1,.32.41l.06-.06c.42-.35.74-1.06,1.17-1.41,1.21-.95,4.64-1.81,5.81.61,3.7-.29,7.39-1.58,11.1-1.66s7.37-1.13,11.09-.88a9.55,9.55,0,0,1,7.58,4.08c.92,1.24,2,2.83,2.9,4.3.43-.64,1-1.31,1.14-1.62,2.13-4.71,2.19-12.89,3.35-18.72a26,26,0,0,1,2.2-5.87c2.36-5.67,1.45-7.51-.6-11.87-1.24-2.62-2.32-5.53-.87-8.87.69-1.61,2-1.64,2.66-3.07a36.59,36.59,0,0,0,1-8.78,7,7,0,0,1-.09-.91c-.42-3.89-1.55-6.79-1.81-10.85s-.23-8.1-.85-12.17c-.59-3.78-2.35-8.41-2.29-12.56a12.19,12.19,0,0,1,1.27-5.2,6.33,6.33,0,0,1,0-4.45,16.19,16.19,0,0,1,1.18-2.21c1.09-1.87,1.28-1.3,1.43-3.49.46-6.81-1.94-6.17-2.89-10.86a8.45,8.45,0,0,1,.61-5.33c1.6-3.58,4-2.83,3.87-9.35,0-2.71-.37-5.21-.49-7.84a3.72,3.72,0,0,1-1.07-2.6A7.87,7.87,0,0,1,400.3,64c-.17.47-.15,0-.08-.49s.21-1.18.13,0c0,.18,0,.34-.05.5a1,1,0,0,1,.06-.19,26.37,26.37,0,0,1,1.09-3.21c-.44-3.75-2.62-7.73-2.87-12.13-.07-1.19.53-5.32.26-6.2-.41-1.31-2.32-.55-3.06-2.06a4.19,4.19,0,0,1-.2-.49c-2.18-2.87-5.23-9.64-7.42-8.3-1.21.75-2.19,2.49-3.5,3a6.56,6.56,0,0,1-4.37.08,5.83,5.83,0,0,1-2-1c-1-.83-.53-1.61-1.09-.93-.71.87-1.05,4.25-1.92,5.48-1.73,2.47-3.65,1.4-5.49.22-2.47-1.57-4.8-.75-7.27-2.27-1.86-1.14-2.09-.5-3.89,0a2.53,2.53,0,0,1-2.63-.89c-1.09-1.18-2.48-6.72-3.8-6.05-.5.25-1.83,5.46-2.61,6.43a3.78,3.78,0,0,1-5.12.85c-1-.07-1.82-.79-2.59-2.59a3.59,3.59,0,0,1-.23-1.07,8.28,8.28,0,0,0-2.58-.2,7,7,0,0,1-1.79-.08c-1.41-.39-2.5-.85-3.95-.36-1.22.41-2.14,1.12-3.37.72-1.51-.48-2.7-2.51-4.21-3.15-2.66-1.12-4.86,1-7.24,3l-.23.18-.19.18c-.36.33-.67.87-1,1.2a3.06,3.06,0,0,1-2.2.86,23.46,23.46,0,0,1-7.9-1c-1.14-.36-2.12-1.13-3.24-.5s-1.67,2.24-2.93,2.37c-1,.09-1.62-.5-2.51-1.45-1.56-1.65-2.34-2.18-4.1-2.15a5.87,5.87,0,0,1-3.43-1.11c-1.2-.79-2-2-3.44-1.17-.38.22-.65,1.1-1.05,1.3-2,1-2.63.94-4.39-1-2.3-2.55-4.39-2-6.69-4.37-.65-.65-.93-1.05-1.17-1.05s-.54.65-1.38,2.25"/></clipPath><linearGradient id="linear-gradient" x1="-617.89" y1="747.06" x2="-616.93" y2="747.06" gradientTransform="translate(221668.18 109181.31) rotate(90) scale(176.64 296.4)" gradientUnits="userSpaceOnUse"><stop offset="0" stop-color="#1451c7"/><stop offset="1" stop-color="#4583fb"/></linearGradient><clipPath id="clip-path-2" transform="translate(0 -0.59)"><rect class="cls-1" x="68.97" width="319.63" height="192.66"/></clipPath></defs><title>Asset 9</title><g id="Layer_2" data-name="Layer 2"><g id="Layer_1-2" data-name="Layer 1"><g class="cls-2"><rect class="cls-3" x="79.73" y="24.32" width="322.04" height="193.15"/></g><path class="cls-4" d="M319.58,117.18,282.23,84.4a7,7,0,0,0-8.57-.21,4.44,4.44,0,0,0-.24,7.1l33.43,29.33L273.42,150a4.43,4.43,0,0,0,.24,7.09,7,7,0,0,0,8.57-.2l37.35-32.78a4.42,4.42,0,0,0,0-6.89" transform="translate(0 -0.59)"/><path class="cls-5" d="M319.58,117.18,282.23,84.4a7,7,0,0,0-8.57-.21,4.44,4.44,0,0,0-.24,7.1l33.43,29.33L273.42,150a4.43,4.43,0,0,0,.24,7.09,7,7,0,0,0,8.57-.2l37.35-32.78a4.42,4.42,0,0,0,0-6.89" transform="translate(0 -0.59)"/><path class="cls-4" d="M207.51,150l-33.43-29.34,33.43-29.34a4.43,4.43,0,0,0-.25-7.09,7,7,0,0,0-8.56.2l-37.36,32.79a4.42,4.42,0,0,0-.68,6.21,4.86,4.86,0,0,0,.68.68l37.36,32.78a7,7,0,0,0,8.56.2,4.43,4.43,0,0,0,.25-7.09" transform="translate(0 -0.59)"/><path class="cls-5" d="M207.51,150l-33.43-29.34,33.43-29.34a4.43,4.43,0,0,0-.25-7.09,7,7,0,0,0-8.56.2l-37.36,32.79a4.42,4.42,0,0,0-.68,6.21,4.86,4.86,0,0,0,.68.68l37.36,32.78a7,7,0,0,0,8.56.2,4.43,4.43,0,0,0,.25-7.09" transform="translate(0 -0.59)"/><path class="cls-4" d="M261.92,69.9c-3.16-.91-6.62.46-7.72,3.08l-38.9,92c-1.11,2.62.55,5.48,3.71,6.4a6.71,6.71,0,0,0,.89.19c2.9.45,5.83-.9,6.83-3.27l38.9-92c1.11-2.61-.55-5.48-3.71-6.39" transform="translate(0 -0.59)"/><path class="cls-5" d="M261.92,69.9c-3.16-.91-6.62.46-7.72,3.08l-38.9,92c-1.11,2.62.55,5.48,3.71,6.4a6.71,6.71,0,0,0,.89.19c2.9.45,5.83-.9,6.83-3.27l38.9-92c1.11-2.61-.55-5.48-3.71-6.39" transform="translate(0 -0.59)"/><g class="cls-6"><g class="cls-7"><path class="cls-4" d="M70.75,191H386.22V2.25H70.75ZM69.09.59H387.88V192.66H69.09Z" transform="translate(0 -0.59)"/><path class="cls-8" d="M89.47,13a5.68,5.68,0,0,1,5.81,5.53,5.81,5.81,0,0,1-11.61,0A5.67,5.67,0,0,1,89.47,13Z" transform="translate(0 -0.59)"/><path class="cls-8" d="M114.63,13a5.53,5.53,0,1,1-5.53,5.53A5.53,5.53,0,0,1,114.63,13Z" transform="translate(0 -0.59)"/><path class="cls-8" d="M140.05,13a5.53,5.53,0,1,1-5.52,5.53A5.53,5.53,0,0,1,140.05,13Z" transform="translate(0 -0.59)"/><rect class="cls-8" x="70.4" y="0.84" width="316.76" height="33.72"/></g></g><path class="cls-9" d="M40.8,256.55a13.51,13.51,0,0,1,3.47,9.7,19.64,19.64,0,0,1-5.6,14,16,16,0,0,1-11.27,4.29H19.64c-.2,0-.35.13-.45.38l-2.39,19.4a1.2,1.2,0,0,1-.33.63.86.86,0,0,1-.64.26H7.4a.73.73,0,0,1-.6-.26.7.7,0,0,1-.15-.63l6.2-50.52a1.27,1.27,0,0,1,.33-.64.9.9,0,0,1,.64-.26H31.36Q37.33,252.89,40.8,256.55ZM31.92,273.9a8.67,8.67,0,0,0,2-6,6.13,6.13,0,0,0-1.46-4.33,5.2,5.2,0,0,0-4-1.57H22.4c-.2,0-.35.13-.45.38L20.31,275.8c0,.25.1.37.3.37H26.8A6.61,6.61,0,0,0,31.92,273.9Z" transform="translate(0 -0.59)"/><path class="cls-9" d="M68.07,304.46l-4.77-20.6c-.1-.2-.23-.3-.38-.3H58.37a.33.33,0,0,0-.37.38l-2.54,20.37a1.2,1.2,0,0,1-.33.63.86.86,0,0,1-.64.26H46.06c-.55,0-.82-.29-.82-.89l6.19-50.45a1.08,1.08,0,0,1,.37-.63,1,1,0,0,1,.68-.27H70.09q5.89,0,9.33,3.55T82.85,266a17.69,17.69,0,0,1-.15,2.69,17.25,17.25,0,0,1-3,8.28,15.36,15.36,0,0,1-6.38,5.23.35.35,0,0,0-.23.52l5.6,21.42v.3c0,.5-.3.74-.89.74H69C68.42,305.2,68.12,305,68.07,304.46Zm-7.46-42.09L59,275.13c0,.25.1.37.3.37h6.35a6.25,6.25,0,0,0,4.92-2.2,8.43,8.43,0,0,0,1.94-5.78,5.59,5.59,0,0,0-1.42-4,5,5,0,0,0-3.8-1.5H61.06C60.86,262,60.71,262.12,60.61,262.37Z" transform="translate(0 -0.59)"/><path class="cls-9" d="M89.38,302q-4-3.84-4-10.33a17.69,17.69,0,0,1,.15-2.69L88,269.16a20,20,0,0,1,3.13-8.81,17.29,17.29,0,0,1,6.61-5.89,19.45,19.45,0,0,1,9.07-2.09q6.93,0,11,3.84t4,10.41c0,.5,0,1.34-.15,2.54L119.19,289a19.58,19.58,0,0,1-3.17,8.88,17.44,17.44,0,0,1-6.68,5.9,19.79,19.79,0,0,1-9.1,2.09Q93.37,305.88,89.38,302Zm17.05-7.24a8.91,8.91,0,0,0,2.54-5.33l2.46-20.6a9.38,9.38,0,0,0,.08-1.42,6.12,6.12,0,0,0-1.57-4.4,5.62,5.62,0,0,0-4.25-1.64,6.85,6.85,0,0,0-5,2.05,8.75,8.75,0,0,0-2.43,5.41l-2.53,20.6a7,7,0,0,0-.08,1.27,6.34,6.34,0,0,0,1.53,4.44,5.43,5.43,0,0,0,4.22,1.68A7,7,0,0,0,106.43,294.79Z" transform="translate(0 -0.59)"/><path class="cls-9" d="M128.93,302a13.14,13.14,0,0,1-4-10c0-.55,0-1.37.15-2.47l2.61-21a18.94,18.94,0,0,1,3.1-8.51,17.1,17.1,0,0,1,6.49-5.67,19.56,19.56,0,0,1,8.92-2q6.79,0,10.82,3.69a12.49,12.49,0,0,1,4,9.67c0,.44-.05,1.17-.15,2.16l-.22,1.64a1.21,1.21,0,0,1-.34.64.86.86,0,0,1-.63.26h-8.44a.74.74,0,0,1-.59-.26.72.72,0,0,1-.15-.64l.15-1.56a4.55,4.55,0,0,0,.07-1,5.64,5.64,0,0,0-1.49-4,5.42,5.42,0,0,0-4.11-1.56,6.79,6.79,0,0,0-4.92,1.94,8.13,8.13,0,0,0-2.39,5.07l-2.61,21.35a6.06,6.06,0,0,0-.08,1.12,5.8,5.8,0,0,0,1.61,4.29,5.68,5.68,0,0,0,4.21,1.6,6.74,6.74,0,0,0,7-6.42l.6-4.62c0-.25-.1-.38-.3-.38h-5.67a.73.73,0,0,1-.6-.26.7.7,0,0,1-.15-.63l.82-6.79A1.21,1.21,0,0,1,143,277a.86.86,0,0,1,.63-.26H159a.76.76,0,0,1,.6.26.72.72,0,0,1,.15.64l-1.5,11.86a17.84,17.84,0,0,1-6,11.87,18.41,18.41,0,0,1-12.53,4.4Q132.93,305.8,128.93,302Z" transform="translate(0 -0.59)"/><path class="cls-9" d="M186.06,304.46l-4.77-20.6c-.11-.2-.23-.3-.38-.3h-4.55a.33.33,0,0,0-.37.38l-2.54,20.37a1.15,1.15,0,0,1-.34.63.82.82,0,0,1-.63.26H164c-.54,0-.82-.29-.82-.89l6.2-50.45a1.08,1.08,0,0,1,.37-.63,1,1,0,0,1,.67-.27h17.62q5.89,0,9.32,3.55t3.44,9.51a17.69,17.69,0,0,1-.15,2.69,17.25,17.25,0,0,1-3,8.28,15.32,15.32,0,0,1-6.39,5.23.36.36,0,0,0-.22.52l5.6,21.42v.3c0,.5-.3.74-.9.74H187C186.41,305.2,186.11,305,186.06,304.46Zm-7.46-42.09L177,275.13c0,.25.1.37.3.37h6.34a6.29,6.29,0,0,0,4.93-2.2,8.43,8.43,0,0,0,1.94-5.78,5.63,5.63,0,0,0-1.42-4,5,5,0,0,0-3.81-1.5h-6.26C178.85,262,178.7,262.12,178.6,262.37Z" transform="translate(0 -0.59)"/><path class="cls-9" d="M229.05,304.46l-.83-7.31a.26.26,0,0,0-.29-.3H214.42a.6.6,0,0,0-.45.3l-2.54,7.31a1.05,1.05,0,0,1-1,.75h-8.73c-.7,0-.9-.33-.6-1l19.18-50.53a1.11,1.11,0,0,1,1.12-.75h10.52a.78.78,0,0,1,.9.75l6.86,50.53c0,.64-.3,1-.89,1h-8.81A.77.77,0,0,1,229.05,304.46Zm-11.72-15.75h9.55a.4.4,0,0,0,.45-.45l-2.39-21.64q0-.3-.15-.3c-.1,0-.17.1-.22.3L217,288.26Q217,288.71,217.33,288.71Z" transform="translate(0 -0.59)"/><path class="cls-9" d="M280.17,253h8.43a.74.74,0,0,1,.6.27.72.72,0,0,1,.15.63l-6.2,50.45a1.2,1.2,0,0,1-.33.63.86.86,0,0,1-.64.26h-8.51a.71.71,0,0,1-.59-.26.7.7,0,0,1-.15-.63l4-33.14c.05-.19,0-.31-.08-.33s-.2,0-.3.18l-8.06,11.35a1.22,1.22,0,0,1-1.12.6h-1.64a1,1,0,0,1-1-.6L259.57,271c-.1-.14-.2-.21-.3-.18s-.15.14-.15.33L255,304.31a1.22,1.22,0,0,1-.34.63.82.82,0,0,1-.63.26h-8.44a.73.73,0,0,1-.74-.89l6.19-50.45a.8.8,0,0,1,.3-.63A1,1,0,0,1,252,253h8.36a.92.92,0,0,1,1,.6l6.87,14.7c.09.3.24.3.44,0l10.38-14.7A1.23,1.23,0,0,1,280.17,253Z" transform="translate(0 -0.59)"/><path class="cls-9" d="M335.21,304.31l6.19-50.45a1.09,1.09,0,0,1,.38-.63,1,1,0,0,1,.67-.27h8.43a.74.74,0,0,1,.6.27.7.7,0,0,1,.15.63l-6.2,50.45a1.2,1.2,0,0,1-.33.63.87.87,0,0,1-.64.27H336C335.48,305.21,335.21,304.91,335.21,304.31Z" transform="translate(0 -0.59)"/><path class="cls-9" d="M384.5,253.23a.87.87,0,0,1,.64-.27h8.43a.74.74,0,0,1,.6.27.7.7,0,0,1,.15.63l-6.2,50.45a1.2,1.2,0,0,1-.33.63.87.87,0,0,1-.64.27h-8.8a.92.92,0,0,1-1-.68L367.3,274.16c-.1-.15-.2-.22-.3-.22s-.15.1-.15.29l-3.65,30.08a1.22,1.22,0,0,1-.34.63.85.85,0,0,1-.64.27h-8.35c-.55,0-.82-.3-.82-.9l6.19-50.45a1.08,1.08,0,0,1,.37-.63,1,1,0,0,1,.68-.27H369a.88.88,0,0,1,.89.68L380.06,284c.05.15.13.22.23.22s.17-.1.22-.29l3.66-30.08A1.2,1.2,0,0,1,384.5,253.23Z" transform="translate(0 -0.59)"/><path class="cls-9" d="M400.55,302a13.14,13.14,0,0,1-4-10c0-.55,0-1.37.14-2.47l2.62-21a18.93,18.93,0,0,1,3.09-8.51,17.13,17.13,0,0,1,6.5-5.67,19.52,19.52,0,0,1,8.91-2q6.8,0,10.83,3.69a12.53,12.53,0,0,1,4,9.67c0,.44-.05,1.17-.15,2.16l-.23,1.64a1.27,1.27,0,0,1-.33.64.9.9,0,0,1-.64.26H422.9a.76.76,0,0,1-.6-.26.72.72,0,0,1-.15-.64l.15-1.56a4.4,4.4,0,0,0,.08-1,5.61,5.61,0,0,0-1.5-4,5.4,5.4,0,0,0-4.1-1.56,6.83,6.83,0,0,0-4.93,1.94,8.12,8.12,0,0,0-2.38,5.07l-2.62,21.35a6.25,6.25,0,0,0-.07,1.12,5.79,5.79,0,0,0,1.6,4.29,5.71,5.71,0,0,0,4.22,1.6,6.74,6.74,0,0,0,7-6.42l.59-4.62c0-.25-.1-.38-.3-.38h-5.67a.73.73,0,0,1-.74-.89l.82-6.79a1.27,1.27,0,0,1,.33-.64.9.9,0,0,1,.64-.26h15.3a.74.74,0,0,1,.59.26.72.72,0,0,1,.15.64l-1.49,11.86a17.93,17.93,0,0,1-6,11.87,18.42,18.42,0,0,1-12.54,4.4Q404.54,305.8,400.55,302Z" transform="translate(0 -0.59)"/><path class="cls-9" d="M15.91,232l-5.15-50.52v-.15c0-.55.32-.83,1-.83h8.88a.73.73,0,0,1,.82.83l2,28.65c0,.15.07.23.19.23s.21-.08.26-.23l8.73-28.65a1,1,0,0,1,1.05-.83h8.06a.73.73,0,0,1,.82.83L44.86,210c0,.15.06.23.19.23s.21-.08.26-.23L54,181.37a1,1,0,0,1,1.05-.83H63.6c.59,0,.79.33.59,1L47.48,232a1,1,0,0,1-1,.82H38.22a.73.73,0,0,1-.82-.82l-2.24-30c0-.15,0-.22-.15-.22s-.17.07-.22.22l-9,30a1,1,0,0,1-1,.82h-8A.9.9,0,0,1,15.91,232Z" transform="translate(0 -0.59)"/><path class="cls-9" d="M99.08,189.31a.83.83,0,0,1-.63.27H79c-.2,0-.35.12-.44.37l-1.42,11.64c0,.25.1.37.3.37H89.57a.73.73,0,0,1,.74.9l-.82,7.24a1.08,1.08,0,0,1-.37.63,1,1,0,0,1-.67.26H76.36a.41.41,0,0,0-.38.38l-1.49,12c0,.25.1.38.3.38h19.4c.55,0,.82.29.82.89l-.89,7.24a1.21,1.21,0,0,1-.34.64.86.86,0,0,1-.63.26H64c-.54,0-.82-.3-.82-.9l6.2-50.45a1.08,1.08,0,0,1,.37-.63,1,1,0,0,1,.67-.26H99.57a.73.73,0,0,1,.74.89l-.89,7.24A1.15,1.15,0,0,1,99.08,189.31Z" transform="translate(0 -0.59)"/><path class="cls-9" d="M129.23,229.06a19.21,19.21,0,0,1-12,3.73H101.06c-.55,0-.82-.3-.82-.9l6.19-50.45a1.13,1.13,0,0,1,.37-.63,1,1,0,0,1,.68-.26h15.07q7,0,10.86,2.94t3.84,8.92q0,.68-.15,2.46-.89,7.4-6.86,10.68c-.25.2-.3.34-.15.44q5,3.28,5,9.86,0,.66-.15,2.31Q134.11,225.32,129.23,229.06Zm-6.57-7.13a8.23,8.23,0,0,0,2.28-5,7.92,7.92,0,0,0,.08-1.26,5.75,5.75,0,0,0-1.42-4.11,5.32,5.32,0,0,0-4-1.49h-6c-.2,0-.35.12-.45.37l-1.56,12.84a.32.32,0,0,0,.37.37h6A6.54,6.54,0,0,0,122.66,221.93Zm-7-32-1.42,11.72c0,.24.1.37.3.37H120a7,7,0,0,0,4.78-1.64,7.06,7.06,0,0,0,2.24-4.56,5.55,5.55,0,0,0,.07-1,5,5,0,0,0-1.45-3.84,5.79,5.79,0,0,0-4.14-1.39h-5.45C115.86,189.57,115.71,189.7,115.61,190Z" transform="translate(0 -0.59)"/><rect class="cls-10" x="50.27" y="179" width="383.36" height="127.24"/><path class="cls-4" d="M34.16,249.36a13.48,13.48,0,0,1,3.47,9.7,19.64,19.64,0,0,1-5.6,14,15.92,15.92,0,0,1-11.26,4.3H13c-.2,0-.34.12-.44.37l-2.39,19.4a1.21,1.21,0,0,1-.34.64.86.86,0,0,1-.63.26H.77a.76.76,0,0,1-.6-.26.72.72,0,0,1-.15-.64L6.21,246.6a1.21,1.21,0,0,1,.34-.64.86.86,0,0,1,.63-.26H24.72q6,0,9.44,3.66m-8.88,17.35a8.63,8.63,0,0,0,2-6,6.13,6.13,0,0,0-1.45-4.33,5.2,5.2,0,0,0-4-1.56H15.77c-.2,0-.35.12-.45.37l-1.64,13.43c0,.25.1.38.29.38h6.2a6.59,6.59,0,0,0,5.11-2.28" transform="translate(0 -0.59)"/><path class="cls-4" d="M61.44,297.27l-4.78-20.6c-.1-.19-.22-.29-.37-.29H51.74a.33.33,0,0,0-.38.37l-2.53,20.37a1.29,1.29,0,0,1-.34.64.88.88,0,0,1-.63.26H39.42c-.54,0-.82-.3-.82-.9l6.2-50.45a1.08,1.08,0,0,1,.37-.63,1,1,0,0,1,.67-.26H63.45q5.89,0,9.33,3.54t3.44,9.52a17.54,17.54,0,0,1-.15,2.68,17.23,17.23,0,0,1-3,8.29A15.21,15.21,0,0,1,66.66,275a.35.35,0,0,0-.22.52L72,297v.3q0,.75-.9.75H62.33a.78.78,0,0,1-.89-.75M54,255.18l-1.57,12.76c0,.25.1.38.3.38h6.34A6.3,6.3,0,0,0,64,266.11a8.42,8.42,0,0,0,1.94-5.78,5.65,5.65,0,0,0-1.42-4,5,5,0,0,0-3.81-1.49H54.42c-.19,0-.34.12-.44.37" transform="translate(0 -0.59)"/><path class="cls-4" d="M82.74,294.85q-4-3.86-4-10.34a17.78,17.78,0,0,1,.15-2.69L81.36,262a19.88,19.88,0,0,1,3.14-8.8,17.28,17.28,0,0,1,6.6-5.9,19.6,19.6,0,0,1,9.07-2.09q6.94,0,11,3.84t4,10.41c0,.5,0,1.35-.15,2.54l-2.46,19.85a19.73,19.73,0,0,1-3.17,8.88,17.59,17.59,0,0,1-6.68,5.9,19.83,19.83,0,0,1-9.11,2.09c-4.58,0-8.19-1.28-10.86-3.84m17.06-7.24a9,9,0,0,0,2.54-5.34l2.46-20.6a9.71,9.71,0,0,0,.07-1.42,6.13,6.13,0,0,0-1.56-4.4,5.64,5.64,0,0,0-4.26-1.64,6.85,6.85,0,0,0-5,2,8.74,8.74,0,0,0-2.42,5.41l-2.54,20.6a8.3,8.3,0,0,0-.07,1.27A6.34,6.34,0,0,0,90.51,288a5.4,5.4,0,0,0,4.21,1.68,7,7,0,0,0,5.08-2.05" transform="translate(0 -0.59)"/><path class="cls-4" d="M122.3,294.85a13.17,13.17,0,0,1-4-10c0-.55,0-1.37.14-2.46l2.62-21a18.85,18.85,0,0,1,3.09-8.5,17.07,17.07,0,0,1,6.5-5.68,19.52,19.52,0,0,1,8.91-2q6.8,0,10.83,3.69a12.54,12.54,0,0,1,4,9.67q0,.68-.15,2.16l-.23,1.65a1.24,1.24,0,0,1-.33.63.9.9,0,0,1-.64.26h-8.43a.76.76,0,0,1-.6-.26.7.7,0,0,1-.15-.63l.15-1.57a4.4,4.4,0,0,0,.08-1,5.58,5.58,0,0,0-1.5-4,5.36,5.36,0,0,0-4.1-1.57,6.87,6.87,0,0,0-4.93,1.94,8.15,8.15,0,0,0-2.38,5.08l-2.62,21.34a6.25,6.25,0,0,0-.07,1.12,5.79,5.79,0,0,0,1.6,4.29,5.71,5.71,0,0,0,4.22,1.6,6.74,6.74,0,0,0,7-6.41l.59-4.63c0-.25-.1-.37-.29-.37H136a.71.71,0,0,1-.59-.27.7.7,0,0,1-.15-.63l.82-6.79a1.27,1.27,0,0,1,.33-.64.9.9,0,0,1,.64-.26h15.3a.74.74,0,0,1,.59.26.72.72,0,0,1,.15.64l-1.49,11.87a17.9,17.9,0,0,1-6,11.86,18.42,18.42,0,0,1-12.54,4.4q-6.8,0-10.78-3.76" transform="translate(0 -0.59)"/><path class="cls-4" d="M179.43,297.27l-4.78-20.6c-.1-.19-.22-.29-.37-.29h-4.56a.32.32,0,0,0-.37.37l-2.54,20.37a1.27,1.27,0,0,1-.33.64.9.9,0,0,1-.64.26h-8.43c-.55,0-.82-.3-.82-.9l6.19-50.45a1.09,1.09,0,0,1,.38-.63.94.94,0,0,1,.67-.26h17.61q5.9,0,9.33,3.54t3.43,9.52a17.54,17.54,0,0,1-.15,2.68,17.22,17.22,0,0,1-3,8.29,15.27,15.27,0,0,1-6.38,5.22.35.35,0,0,0-.22.52L190,297v.3c0,.5-.3.75-.89.75h-8.81c-.55,0-.85-.25-.89-.75M172,255.18l-1.57,12.76c0,.25.11.38.3.38H177a6.26,6.26,0,0,0,4.92-2.21,8.37,8.37,0,0,0,1.94-5.78,5.64,5.64,0,0,0-1.41-4,5,5,0,0,0-3.81-1.49h-6.27c-.2,0-.35.12-.45.37" transform="translate(0 -0.59)"/><path class="cls-4" d="M222.41,297.27l-.82-7.31a.27.27,0,0,0-.3-.3H207.78a.61.61,0,0,0-.44.3l-2.54,7.31a1.06,1.06,0,0,1-1.05.75H195c-.7,0-.89-.33-.59-1l19.18-50.53a1.1,1.1,0,0,1,1.12-.74h10.52a.77.77,0,0,1,.89.74L233,297.05c0,.64-.3,1-.9,1h-8.8a.78.78,0,0,1-.9-.75m-11.72-15.75h9.56c.3,0,.45-.14.45-.44l-2.39-21.65c0-.19-.05-.29-.15-.29s-.18.1-.23.29l-7.53,21.65c-.05.3,0,.44.29.44" transform="translate(0 -0.59)"/><path class="cls-4" d="M273.53,245.78H282a.73.73,0,0,1,.59.26.7.7,0,0,1,.15.63l-6.19,50.45a1.21,1.21,0,0,1-.34.64.86.86,0,0,1-.63.26H267a.76.76,0,0,1-.6-.26.72.72,0,0,1-.15-.64l4-33.13c.05-.2,0-.31-.07-.34s-.2,0-.3.19l-8.06,11.34a1.23,1.23,0,0,1-1.12.6h-1.64a1,1,0,0,1-1-.6l-5.23-11.34c-.1-.15-.2-.21-.29-.19s-.15.14-.15.34l-4.11,33.13a1.27,1.27,0,0,1-.33.64.9.9,0,0,1-.64.26H239a.76.76,0,0,1-.6-.26.72.72,0,0,1-.15-.64l6.2-50.45a.82.82,0,0,1,.29-.63,1,1,0,0,1,.68-.26h8.36a.94.94,0,0,1,1,.59l6.86,14.71q.15.44.45,0l10.37-14.71a1.24,1.24,0,0,1,1.12-.59" transform="translate(0 -0.59)"/><path class="cls-9" d="M325.85,253h8.44a.71.71,0,0,1,.59.27.7.7,0,0,1,.15.63l-6.19,50.45a1.15,1.15,0,0,1-.34.63.82.82,0,0,1-.63.26h-8.51a.73.73,0,0,1-.6-.26.7.7,0,0,1-.15-.63l4-33.14c.05-.19,0-.31-.07-.33s-.2,0-.3.18l-8.06,11.35a1.23,1.23,0,0,1-1.12.6h-1.64a1,1,0,0,1-1-.6L305.26,271c-.1-.14-.2-.21-.3-.18s-.15.14-.15.33l-4.11,33.14a1.2,1.2,0,0,1-.33.63.86.86,0,0,1-.64.26H291.3a.73.73,0,0,1-.6-.26.7.7,0,0,1-.15-.63l6.2-50.45a.8.8,0,0,1,.3-.63,1,1,0,0,1,.67-.27h8.36a.93.93,0,0,1,1,.6l6.86,14.7q.15.45.45,0l10.37-14.7A1.24,1.24,0,0,1,325.85,253Z" transform="translate(0 -0.59)"/><path class="cls-4" d="M319.22,245.78h8.43a.73.73,0,0,1,.6.26.7.7,0,0,1,.15.63l-6.2,50.45a1.27,1.27,0,0,1-.33.64.9.9,0,0,1-.64.26h-8.5a.76.76,0,0,1-.6-.26.72.72,0,0,1-.15-.64L316,264c.05-.2,0-.31-.07-.34s-.2,0-.3.19l-8.06,11.34a1.23,1.23,0,0,1-1.12.6h-1.64a1,1,0,0,1-1-.6l-5.23-11.34c-.1-.15-.2-.21-.3-.19s-.15.14-.15.34l-4.1,33.13a1.21,1.21,0,0,1-.34.64.86.86,0,0,1-.63.26h-8.43a.76.76,0,0,1-.6-.26.72.72,0,0,1-.15-.64l6.19-50.45a.8.8,0,0,1,.3-.63,1,1,0,0,1,.67-.26h8.36a.93.93,0,0,1,1,.59l6.87,14.71q.15.44.45,0l10.37-14.71a1.24,1.24,0,0,1,1.12-.59" transform="translate(0 -0.59)"/><path class="cls-4" d="M328.58,297.12l6.19-50.45a1.08,1.08,0,0,1,.37-.63,1,1,0,0,1,.68-.26h8.43a.73.73,0,0,1,.6.26.72.72,0,0,1,.15.63l-6.2,50.45a1.21,1.21,0,0,1-.34.64.86.86,0,0,1-.63.26H329.4c-.55,0-.82-.3-.82-.9" transform="translate(0 -0.59)"/><path class="cls-4" d="M377.87,246a.82.82,0,0,1,.63-.26h8.44a.73.73,0,0,1,.59.26.7.7,0,0,1,.15.63l-6.19,50.45a1.21,1.21,0,0,1-.34.64.86.86,0,0,1-.63.26h-8.81a.93.93,0,0,1-1-.67L360.67,267c-.1-.15-.2-.22-.3-.22s-.15.1-.15.3l-3.66,30.07a1.27,1.27,0,0,1-.33.64.9.9,0,0,1-.64.26h-8.36c-.54,0-.82-.3-.82-.9l6.2-50.45A1.08,1.08,0,0,1,353,246a1,1,0,0,1,.67-.26h8.73a.88.88,0,0,1,.9.67l10.15,30.37c.05.15.12.23.22.23s.18-.1.23-.3l3.65-30.08a1.15,1.15,0,0,1,.34-.63" transform="translate(0 -0.59)"/><path class="cls-4" d="M393.91,294.85a13.17,13.17,0,0,1-4-10q0-.82.15-2.46l2.61-21a18.86,18.86,0,0,1,3.1-8.5,17,17,0,0,1,6.49-5.68,19.56,19.56,0,0,1,8.92-2q6.8,0,10.82,3.69a12.51,12.51,0,0,1,4,9.67q0,.68-.15,2.16l-.22,1.65a1.18,1.18,0,0,1-.34.63.86.86,0,0,1-.63.26h-8.43a.75.75,0,0,1-.6-.26.7.7,0,0,1-.15-.63l.15-1.57a4.55,4.55,0,0,0,.07-1,5.62,5.62,0,0,0-1.49-4,5.39,5.39,0,0,0-4.11-1.57,6.83,6.83,0,0,0-4.92,1.94,8.16,8.16,0,0,0-2.39,5.08l-2.61,21.34a6.06,6.06,0,0,0-.08,1.12,5.8,5.8,0,0,0,1.61,4.29,5.68,5.68,0,0,0,4.21,1.6,6.74,6.74,0,0,0,7-6.41l.6-4.63c0-.25-.1-.37-.3-.37h-5.67a.74.74,0,0,1-.6-.27.7.7,0,0,1-.15-.63l.82-6.79a1.21,1.21,0,0,1,.34-.64.86.86,0,0,1,.63-.26H424a.76.76,0,0,1,.6.26.72.72,0,0,1,.15.64l-1.49,11.87a17.87,17.87,0,0,1-6,11.86,18.41,18.41,0,0,1-12.53,4.4q-6.79,0-10.79-3.76" transform="translate(0 -0.59)"/><path class="cls-4" d="M9.27,224.85,4.12,174.33v-.15c0-.55.33-.82,1-.82H14a.72.72,0,0,1,.82.82l2,28.66c0,.15.06.22.19.22a.27.27,0,0,0,.26-.22L26,174.18a1,1,0,0,1,1-.82H35.1a.73.73,0,0,1,.82.82l2.31,28.66c0,.15.06.22.19.22a.27.27,0,0,0,.26-.22l8.73-28.66a1,1,0,0,1,1-.82H57c.6,0,.8.32.6,1L40.84,224.78a1,1,0,0,1-1,.82H31.59a.72.72,0,0,1-.82-.82l-2.24-30c0-.15-.05-.23-.15-.23s-.18.08-.23.23l-8.95,30a1,1,0,0,1-1.05.82h-8a.9.9,0,0,1-.9-.75" transform="translate(0 -0.59)"/><path class="cls-4" d="M92.45,182.13a.9.9,0,0,1-.64.26H72.41c-.2,0-.35.12-.45.37L70.54,194.4c0,.25.1.38.3.38H82.93a.73.73,0,0,1,.6.26.7.7,0,0,1,.15.63l-.82,7.24a1.15,1.15,0,0,1-.38.64,1,1,0,0,1-.67.26H69.72a.34.34,0,0,0-.26.11.36.36,0,0,0-.11.26l-1.49,12c0,.24.1.37.3.37h19.4c.55,0,.82.3.82.89l-.9,7.24a1.27,1.27,0,0,1-.33.64.9.9,0,0,1-.64.26H57.41c-.55,0-.82-.3-.82-.9l6.19-50.45a1.17,1.17,0,0,1,.37-.63,1,1,0,0,1,.68-.26h29.1a.76.76,0,0,1,.6.26.7.7,0,0,1,.15.63l-.9,7.24a1.27,1.27,0,0,1-.33.64" transform="translate(0 -0.59)"/><path class="cls-4" d="M122.6,221.87a19.17,19.17,0,0,1-12,3.73H94.42c-.54,0-.82-.3-.82-.9l6.2-50.45a1.11,1.11,0,0,1,.37-.63,1,1,0,0,1,.67-.26h15.08q7,0,10.86,2.95t3.84,8.91c0,.45-.05,1.27-.15,2.47q-.9,7.38-6.87,10.67c-.25.2-.29.35-.15.45q5,3.28,5,9.85,0,.68-.15,2.31-.82,7.17-5.71,10.9M116,214.74a8.2,8.2,0,0,0,2.28-5,8.3,8.3,0,0,0,.07-1.27A5.72,5.72,0,0,0,117,204.4a5.31,5.31,0,0,0-4-1.49h-6c-.2,0-.35.13-.45.37l-1.57,12.84a.33.33,0,0,0,.38.37h6a6.56,6.56,0,0,0,4.74-1.75m-7-32-1.42,11.72c0,.25.1.37.3.37h5.52a6.64,6.64,0,0,0,7-6.19,6.81,6.81,0,0,0,.07-1,5,5,0,0,0-1.46-3.84,5.78,5.78,0,0,0-4.14-1.38h-5.45c-.19,0-.34.12-.44.37" transform="translate(0 -0.59)"/></g></g></svg>