<svg width="163" height="99" viewBox="0 0 163 99" fill="none" xmlns="http://www.w3.org/2000/svg">
<path d="M33.5006 70.4677L8.69056 48.9277L44.4406 17.7677C46.7306 15.7677 47.7806 13.7677 45.5106 11.6477C43.2406 9.52772 41.4406 10.9277 38.9806 12.9477L1.65056 45.7077C1.13543 46.1209 0.719671 46.6446 0.43399 47.24C0.14831 47.8354 0 48.4873 0 49.1477C0 49.8081 0.14831 50.4601 0.43399 51.0555C0.719671 51.6509 1.13543 52.1745 1.65056 52.5877L38.9406 85.3077C40.1706 86.3077 41.6506 87.8577 43.2506 87.8577C43.8274 87.8569 44.3967 87.7261 44.916 87.4751C45.4354 87.224 45.8915 86.8592 46.2506 86.4077C47.6806 84.0677 46.6506 82.6877 44.3606 80.6777" fill="white"/>
<path d="M129.121 27.9178L153.931 49.4578L118.221 80.6178C115.931 82.6178 114.881 84.6678 117.151 86.7478C119.421 88.8278 121.211 87.4578 123.681 85.4378L160.971 52.7078C161.422 52.3454 161.798 51.8975 162.077 51.3898C162.356 50.882 162.532 50.3244 162.595 49.7486C162.658 49.1729 162.607 48.5904 162.445 48.0343C162.283 47.4782 162.013 46.9595 161.651 46.5078C161.45 46.26 161.221 46.0353 160.971 45.8378L123.681 13.1178C122.451 12.1178 120.971 10.5778 119.361 10.5778C118.784 10.5753 118.215 10.7035 117.695 10.953C117.176 11.2024 116.719 11.5665 116.361 12.0178C114.931 14.3678 115.961 15.7378 118.251 17.7478" fill="white"/>
<path d="M102.591 0.407679C102.037 0.151887 101.437 0.0134029 100.827 0.000925525C100.217 -0.0115518 99.6116 0.102247 99.0481 0.335177C98.4845 0.568107 97.9753 0.915125 97.5524 1.3544C97.1294 1.79368 96.802 2.31572 96.5906 2.88768L58.1206 92.2077C57.0406 94.7277 57.7506 96.7277 60.6906 97.9777C60.8958 98.0831 61.11 98.1701 61.3306 98.2377C62.4089 98.539 63.5611 98.4247 64.5591 97.9173C65.5572 97.4099 66.3286 96.5464 66.7206 95.4977L105.031 6.37768C106.201 3.31768 105.451 1.49768 102.591 0.37768" fill="white"/>
</svg>
