<svg width="113" height="112" viewBox="0 0 113 112" fill="none" xmlns="http://www.w3.org/2000/svg">
<path d="M6.08008 12.2113L16.6401 1.64127C17.692 0.59033 19.1181 0 20.6051 0C22.092 0 23.5182 0.59033 24.5701 1.64127L96.5701 73.6413V73.7013C96.7015 73.8433 96.8095 74.0053 96.8901 74.1813L96.9501 74.3113C96.9501 74.3113 96.9501 74.3113 96.9501 74.3713L104.88 98.1513C104.987 98.4788 105.001 98.8295 104.921 99.1646C104.841 99.4997 104.67 99.8063 104.427 100.05C104.184 100.295 103.878 100.467 103.544 100.548C103.209 100.629 102.858 100.617 102.53 100.511L78.7801 92.5013H78.7201L78.5901 92.4413C78.4179 92.3593 78.2594 92.2514 78.1201 92.1213H78.0501L6.05008 20.1213C5.52882 19.6019 5.11522 18.9848 4.83301 18.3052C4.5508 17.6257 4.40552 16.8971 4.40552 16.1613C4.40552 15.4254 4.5508 14.6969 4.83301 14.0173C5.11522 13.3378 5.52882 12.7206 6.05008 12.2013L6.08008 12.2113ZM100.15 95.7313L94.3601 78.3713L82.7801 89.9513L100.15 95.7313ZM79.3301 88.1313L92.5401 74.9213L33.8101 16.1613L28.5301 21.5013L63.5301 56.5013C63.8554 56.8514 64.0342 57.3128 64.03 57.7907C64.0257 58.2686 63.8386 58.7268 63.5071 59.071C63.1756 59.4153 62.7249 59.6196 62.2475 59.642C61.7701 59.6643 61.3023 59.5031 60.9401 59.1913L60.8901 59.1413L25.8901 24.1413L20.6101 29.4213L79.3301 88.1313ZM8.72008 17.5013L17.9701 26.7513L24.5601 20.1413L31.1801 13.5013L21.9301 4.26127C21.7572 4.08711 21.5515 3.94889 21.325 3.85457C21.0984 3.76025 20.8555 3.71169 20.6101 3.71169C20.3647 3.71169 20.1217 3.76025 19.8952 3.85457C19.6686 3.94889 19.463 4.08711 19.2901 4.26127L8.72008 14.8413C8.37017 15.1935 8.17378 15.6698 8.17378 16.1663C8.17378 16.6627 8.37017 17.1391 8.72008 17.4913V17.5013Z" fill="white"/>
<path d="M1.87006 107.641H110.21C110.466 107.622 110.724 107.657 110.967 107.742C111.209 107.827 111.431 107.961 111.62 108.136C111.808 108.312 111.958 108.523 112.061 108.759C112.164 108.995 112.217 109.249 112.217 109.506C112.217 109.763 112.164 110.018 112.061 110.253C111.958 110.489 111.808 110.701 111.62 110.876C111.431 111.051 111.209 111.185 110.967 111.271C110.724 111.356 110.466 111.39 110.21 111.371H1.87006C1.39903 111.337 0.958494 111.125 0.636963 110.779C0.315432 110.433 0.136719 109.979 0.136719 109.506C0.136719 109.034 0.315432 108.579 0.636963 108.233C0.958494 107.887 1.39903 107.676 1.87006 107.641Z" fill="white"/>
<path d="M1.87 96.4312H57.87C58.366 96.4312 58.8416 96.6282 59.1923 96.9789C59.543 97.3296 59.74 97.8052 59.74 98.3012C59.74 98.7971 59.543 99.2728 59.1923 99.6234C58.8416 99.9741 58.366 100.171 57.87 100.171H1.87C1.37405 100.171 0.898407 99.9741 0.547714 99.6234C0.197021 99.2728 0 98.7971 0 98.3012C0 97.8052 0.197021 97.3296 0.547714 96.9789C0.898407 96.6282 1.37405 96.4312 1.87 96.4312Z" fill="white"/>
<path d="M1.87 83.3512H50.44C50.936 83.3512 51.4116 83.5482 51.7623 83.8989C52.113 84.2496 52.31 84.7252 52.31 85.2212C52.31 85.7171 52.113 86.1928 51.7623 86.5435C51.4116 86.8942 50.936 87.0912 50.44 87.0912H1.87C1.37405 87.0912 0.898407 86.8942 0.547714 86.5435C0.197021 86.1928 0 85.7171 0 85.2212C0 84.7252 0.197021 84.2496 0.547714 83.8989C0.898407 83.5482 1.37405 83.3512 1.87 83.3512Z" fill="white"/>
</svg>
