<svg width="134" height="100" viewBox="0 0 134 100" fill="none" xmlns="http://www.w3.org/2000/svg">
<path d="M133.41 9.69002C133.413 9.37401 133.353 9.06059 133.234 8.76774C133.115 8.4749 132.94 8.20842 132.718 7.98356C132.496 7.75871 132.231 7.57993 131.94 7.45748C131.649 7.33503 131.336 7.27132 131.02 7.27002H126.23V2.42002C126.231 2.10185 126.17 1.78657 126.048 1.49236C125.927 1.19816 125.749 0.930851 125.524 0.70587C125.299 0.480888 125.032 0.302687 124.738 0.181539C124.443 0.0603916 124.128 -0.00130213 123.81 2.08348e-05H109.41C108.773 0.00530536 108.163 0.262922 107.715 0.716474C107.267 1.17003 107.017 1.78257 107.02 2.42002V7.27002H103.52C103.203 7.27001 102.889 7.33274 102.597 7.4546C102.304 7.57646 102.039 7.75504 101.816 7.98002C101.593 8.20501 101.416 8.47195 101.297 8.76544C101.177 9.05893 101.117 9.37317 101.12 9.69002L101.19 16.01H83.19C80.28 16.01 77.19 17.62 77.19 21.71C77.19 22.53 77.19 25.22 78.94 25.88H70.65C65.93 25.88 63.23 26.73 63.23 31.81C63.23 35.26 65.72 37.35 69.69 37.35H90.53C89.842 38.0348 89.3399 38.8836 89.0711 39.8163C88.8023 40.7491 88.7758 41.735 88.994 42.6808C89.2122 43.6267 89.6679 44.5013 90.3181 45.222C90.9683 45.9428 91.7915 46.4859 92.71 46.8C93.4762 47.0781 94.285 47.2202 95.1 47.22H99.89V76.29C99.8874 76.606 99.9472 76.9195 100.066 77.2123C100.185 77.5051 100.36 77.7716 100.582 77.9965C100.804 78.2213 101.069 78.4001 101.36 78.5226C101.651 78.645 101.964 78.7087 102.28 78.71H107.07V83.56C107.062 84.1924 107.303 84.8027 107.74 85.2591C108.178 85.7156 108.778 85.9817 109.41 86H114.64V90.84C114.64 93.51 112.05 95.68 109.41 95.68H90.31C89.0334 95.6721 87.8121 95.158 86.9141 94.2506C86.016 93.3432 85.5147 92.1166 85.52 90.84V55.7C85.52 54.37 84.45 53.7 83.13 53.7H73.56V52.04C73.5613 51.7235 73.5003 51.4099 73.3804 51.117C73.2605 50.8241 73.0841 50.5577 72.8612 50.333C72.6383 50.1082 72.3734 49.9296 72.0815 49.8073C71.7896 49.685 71.4765 49.6213 71.16 49.62H65.52C65.52 48.28 64.77 46.62 63.45 46.62H6.55C2.55 46.62 0 49.26 0 53.27V58.12C0 62.12 2.59 64.4 6.55 64.41H63.41C64.73 64.41 65.48 63.09 65.48 61.75H71.12C71.7584 61.7447 72.3688 61.4874 72.8183 61.0342C73.2678 60.5809 73.52 59.9684 73.52 59.33V57.66H81.74V90.81C81.74 96.16 84.98 99.27 90.27 99.27H109.41C114.33 99.27 118.41 96.16 118.41 90.81V86H123.77C124.407 85.9947 125.017 85.7371 125.465 85.2836C125.913 84.83 126.163 84.2175 126.16 83.58V78.73H130.95C131.266 78.7287 131.579 78.665 131.87 78.5426C132.161 78.4201 132.426 78.2413 132.648 78.0165C132.87 77.7916 133.045 77.5251 133.164 77.2323C133.283 76.9395 133.343 76.626 133.34 76.31L133.41 9.69002ZM110.95 7.31002V3.42002H122.41V7.27002L110.95 7.31002ZM103.67 74.7V46C103.67 44.66 103.55 43.57 102.23 43.57H95.05C94.4082 43.57 93.7926 43.3151 93.3388 42.8612C92.885 42.4074 92.63 41.7918 92.63 41.15C92.63 40.5082 92.885 39.8927 93.3388 39.4388C93.7926 38.985 94.4082 38.73 95.05 38.73C95.6918 38.73 96.3074 38.4751 96.7612 38.0212C97.215 37.5674 97.47 36.9518 97.47 36.31C97.47 35.6682 97.215 35.0527 96.7612 34.5988C96.3074 34.145 95.6918 33.89 95.05 33.89H68.77C68.4703 33.8825 68.1755 33.8123 67.9045 33.6841C67.6336 33.5559 67.3924 33.3724 67.1965 33.1455C67.0006 32.9185 66.8544 32.6531 66.7672 32.3663C66.6799 32.0795 66.6537 31.7776 66.69 31.48C66.69 30.14 67.34 28.86 68.69 28.86H82.27C82.5814 28.8803 82.8938 28.838 83.1886 28.7358C83.4835 28.6335 83.7549 28.4733 83.9869 28.2646C84.2189 28.0559 84.4069 27.8029 84.5396 27.5204C84.6724 27.238 84.7473 26.9319 84.76 26.62C84.7271 25.994 84.4655 25.4018 84.025 24.9557C83.5845 24.5097 82.9956 24.2408 82.37 24.2C81.07 23.99 80.76 23.12 80.76 21.78C80.7587 21.4635 80.8197 21.1499 80.9396 20.857C81.0595 20.5641 81.2359 20.2977 81.4588 20.073C81.6817 19.8482 81.9466 19.6696 82.2385 19.5473C82.5304 19.425 82.8435 19.3613 83.16 19.36H102.3C102.922 19.3472 103.515 19.0945 103.955 18.6547C104.394 18.2148 104.647 17.6219 104.66 17V10.83H129.56V74.66L103.67 74.7ZM110.44 82.86V78.75H122.92V82.86H110.44ZM70.44 53.32V58.17H65.61V53.32H70.44ZM61.6 60.59H6.60001C5.96257 60.5847 5.35319 60.3271 4.90526 59.8736C4.45733 59.42 4.20734 58.8075 4.21001 58.17V53.32C4.20734 52.6826 4.45733 52.07 4.90526 51.6165C5.35319 51.1629 5.96257 50.9053 6.60001 50.9H61.6V60.59Z" fill="white"/>
<path d="M105.73 36.06C105.73 35 105.28 34.14 103.96 34.14H101.57C101.307 34.121 101.043 34.1564 100.794 34.244C100.545 34.3316 100.317 34.4696 100.124 34.6493C99.9306 34.8289 99.7765 35.0465 99.6712 35.2884C99.5658 35.5302 99.5115 35.7912 99.5115 36.055C99.5115 36.3188 99.5658 36.5798 99.6712 36.8217C99.7765 37.0635 99.9306 37.2811 100.124 37.4608C100.317 37.6405 100.545 37.7784 100.794 37.866C101.043 37.9536 101.307 37.989 101.57 37.97H103.96C105.28 38 105.73 37.11 105.73 36.06Z" fill="white"/>
<path d="M104.05 26.64C104.05 25.64 103.61 24.73 102.28 24.73H90.4901C89.9835 24.73 89.4977 24.9312 89.1395 25.2894C88.7813 25.6476 88.5801 26.1334 88.5801 26.64C88.5801 27.1465 88.7813 27.6324 89.1395 27.9906C89.4977 28.3487 89.9835 28.55 90.4901 28.55H102.28C103.61 28.55 104.05 27.7 104.05 26.64Z" fill="white"/>
</svg>
