<svg xmlns="http://www.w3.org/2000/svg" xmlns:xlink="http://www.w3.org/1999/xlink" width="323.923" height="193.119" viewBox="0 0 323.923 193.119">
  <defs>
    <style>
      .cls-1 {
        fill: url(#linear-gradient);
      }

      .cls-2 {
        clip-path: url(#clip-path);
      }

      .cls-3 {
        fill: url(#linear-gradient-3);
      }

      .cls-4 {
        fill: #fff;
      }
    </style>
    <linearGradient id="linear-gradient" x1="0.5" x2="0.5" y2="1" gradientUnits="objectBoundingBox">
      <stop offset="0" stop-color="#8c0d1c"/>
      <stop offset="1" stop-color="#8c0d1c" stop-opacity="0.102"/>
    </linearGradient>
    <clipPath id="clip-path">
      <path id="Path_23" data-name="Path 23" class="cls-1" d="M191.35,213.57h0M204.83,26.74c-.58,1.09-1,2.37-1.55,3.51-1.22,2.61-2.47,3.91-4.27,3.56-5.27-1-10.15,3.28-15.45,4-3.6.51-7.94,1.39-11.52.38-1.86-.53-2-1.4-3.06-4.41-1.67-4.85-4.62-3.36-7.57-1.87-1.75.88-3.5,1.77-5,1.32-3.07-.91-5.47-4.38-8.44-1.18-2.06,2.23-3.36,1.8-5.53,1.41-1.3-.24-1-1.47-2.3.54-.28.41-.39,1.47-.67,1.93a5.76,5.76,0,0,1-1.81,2.12c-2.15,1.31-4.78-.55-6.93-1.43s-5.13-.3-7-2.38a13.69,13.69,0,0,1-1.45-3c-1.19-2.44-1.32-3.06-2.31-.89.45-1-.48,1.93-.77,2.52a4.47,4.47,0,0,1-2.2,2.17c-2.14.9-2.9-2.09-4.84-2.74a11.79,11.79,0,0,0-4.37-.3,16.24,16.24,0,0,1-3.2,0c-2.37-.35-4.51-4.13-6.9-3.16s-4.62,4.94-7.3,5.51a7,7,0,0,1-3.91-.72A6.72,6.72,0,0,0,82.59,33c-1.22.29-2.16,1.2-3.37.58-1-.48-1.7-2.08-2.51-2.39a1.77,1.77,0,0,0-1.17.23,2.16,2.16,0,0,1-1.17.24c-1.08-.25-2-1.78-3.06-2.08a4.16,4.16,0,0,0-2.23.06A2.88,2.88,0,0,1,66,29c-1.38-1.22-4.17-3.89-5.81-4.07-1.82-.19-2.78,6.38-4.85,7.6a3.6,3.6,0,0,1-2.12.33,8.06,8.06,0,0,0-5.61,2.2A15.12,15.12,0,0,1,34.23,37.9c-2.73-.65-2-2.91-3.69-6.38-1.54-3.08-4-.64-5.94,1l-.05.06-.18.16h0l-.57.47a1.23,1.23,0,0,1-1.13.26c-1.46.18-2.5-.76-3.76-1.61a4.45,4.45,0,0,1-1.7,1.49A17,17,0,0,1,15.94,39a67.58,67.58,0,0,0-3,8.84c-.83,3.28-.18,5-.63,8.13A15.5,15.5,0,0,1,11,59.83a6.47,6.47,0,0,1,.09,1.08,8.07,8.07,0,0,1-.35,2.63c.52,4.4,1.74,6.79,3.57,10.14,2,3.67.47,5,.57,10.14.07,3.51,1,6.87,1.14,10.39.16,3,0,5.66.42,8.56a139.255,139.255,0,0,1,1,15.49,6.08,6.08,0,0,1,.17,6.39c.09,4,.38,9.59-.18,12.89s-2,3.16-3.14,5.14c-2.74,4.71.18,12.45.69,18.34.7,8.13-1.24,14.42-1.58,22.26-.19,4.31,1.67,7.6,2.39,11.37.9,4.64.61,9.9,3.31,12.09a3.38,3.38,0,0,0,2.34.53c1.06,0,2.12-.05,2.91,1.14,1.3,2,.34,4.44,1.12,6.72,1.28,3.7,5.79-1.95,7.56-2.8a16.39,16.39,0,0,0,6.1-4.28c1-1.12,2.16-2,3.35-1.47,1.65.76,2.37,3.9,3.18,6.76.65-.17,1.3-.18,1.86-.33,1.89-.49,3.78-4,5.76-2.34,1.4,1.21,1.45,4.8,2.94,5.76a3,3,0,0,0,2.34-.15,4.79,4.79,0,0,1,1.51-.34,8.93,8.93,0,0,0,3.55-.55c1-.37,1.88-1,2.95-.33s1.64,1.72,2.67,1.86a11.148,11.148,0,0,0,2.16,0,12.383,12.383,0,0,1,1.71-.06c1.5.08,2.43-.93,3.82-1.33a3.56,3.56,0,0,1,1.87.06,2.6,2.6,0,0,0,2.75-.56c2-1.82,3-5.32,5.42-4.29a2.72,2.72,0,0,1,1.43,1,4.522,4.522,0,0,1,.25.49c1.44-1.15,3.11-1.26,4.08.9.83.8,1.26,2.23,2.39,3.35,1.94,1.92,5,.67,7,.11a18.53,18.53,0,0,0,7.94-4.48c2.21-2,4.42-4.62,6.81-5.5a4.16,4.16,0,0,1,3.24.21c.82,0,1,.44.7,1.23q.7-.62,1.44-1.17a7.3,7.3,0,0,1,4.32-.06,11.059,11.059,0,0,0,2.93.28c4.85-.45,10.16-3.26,15-2a8.21,8.21,0,0,1,5.56,4c1,1.73,1.27,3.91,2.51,5,.06-.19.14-.43.25-.73,2.28-6.62,6.33-8.52,8.69-1.92,1,2.8.71,5.49,2.84,5.29.89-.08,2-1.31,2.84-1.9,2.89-2,5.84-2.11,8.7-3.86,3.71-2.27,6.3-7.73,9.19-3.6a2.06,2.06,0,0,1,1.94-.11c1.22.57,1.72,2,2.1,3.15.25.7.85,3.59.4,1.33a8.138,8.138,0,0,1,.41.88,2.8,2.8,0,0,1,.16.46c.47.29.94.53,1.21.42-.59.22,1.51-3.4,1.53-3.43,1.15-1.84,2.28-3.36,3.86-2.84,2,.67,1.8,2.76,2.77,5.83,1.24,3.94,2.94,3.41,4.78,3,1.56-2.71,3.35-2.69,5.31-1.31-.69-.48-.11-.22.45.43,1.24-1.11,2.18-2.87,4-2,.8.38,1.56,1.3,1.52,3.24,0,.49,4.21.12,8.22-.25a51.755,51.755,0,0,1,7-.44c1.83.53,1.67.29,3.1-1.44a21.25,21.25,0,0,1,4.1-3.71c2.26-1.57,3.44-.5,5.11,1.81a2.19,2.19,0,0,1,1.9.09c1.16-1.37,2.27-2.37,3.83-.87s2.39,4,4.17,4.82c2.38,1.12,4.53.32,6.9-.25,2.2-.53,3.9-.21,6.12-1.31,2.83-1.4,5.32-3.75,8.05-5.68,2.39-1.69,5.34-3.61,7.87-2.75a7.2,7.2,0,0,1,3.13,1.53,4.31,4.31,0,0,1,.32.4l.06-.06c.42-.34.75-1.06,1.18-1.41,1.21-1,4.66-1.82,5.85.61,3.71-.29,7.43-1.59,11.16-1.67s7.42-1.14,11.16-.88a9.62,9.62,0,0,1,7.63,4.1c.92,1.25,2,2.85,2.91,4.33.44-.64,1-1.32,1.15-1.64,2.15-4.73,2.21-13,3.38-18.83a26.07,26.07,0,0,1,2.21-5.9c2.37-5.71,1.46-7.57-.61-11.95-1.24-2.64-2.33-5.57-.87-8.93.7-1.61,2-1.65,2.68-3.09a37,37,0,0,0,1-8.83,5.749,5.749,0,0,1-.1-.92c-.42-3.92-1.56-6.83-1.82-10.92s-.23-8.14-.86-12.24c-.58-3.8-2.36-8.47-2.3-12.64a12.33,12.33,0,0,1,1.28-5.23,6.36,6.36,0,0,1,0-4.48,15.791,15.791,0,0,1,1.19-2.22c1.09-1.89,1.29-1.32,1.44-3.51.46-6.86-2-6.22-2.91-10.93a8.56,8.56,0,0,1,.61-5.37c1.61-3.6,4-2.85,3.9-9.41,0-2.72-.37-5.24-.49-7.88a3.69,3.69,0,0,1-1.08-2.62,8,8,0,0,1,.18-2.13c-.16.48-.14,0-.08-.49s.22-1.18.14,0a3.8,3.8,0,0,1-.06.5,1.246,1.246,0,0,0,.06-.18,27.893,27.893,0,0,1,1.1-3.23c-.43-3.77-2.63-7.78-2.89-12.22-.07-1.18.54-5.35.27-6.23-.42-1.32-2.34-.55-3.08-2.07a5.156,5.156,0,0,1-.21-.49c-2.18-2.89-5.26-9.7-7.46-8.35-1.22.75-2.2,2.5-3.52,3a6.58,6.58,0,0,1-4.4.08,5.87,5.87,0,0,1-2-1c-1-.84-.53-1.63-1.1-.94-.71.88-1.06,4.27-1.93,5.52-1.74,2.47-3.67,1.4-5.53.22-2.48-1.58-4.83-.76-7.31-2.29-1.87-1.15-2.11-.5-3.91,0a2.54,2.54,0,0,1-2.65-.9c-1.1-1.18-2.49-6.76-3.82-6.09-.51.26-1.84,5.51-2.63,6.48a3.81,3.81,0,0,1-5.16.85c-1-.07-1.82-.8-2.6-2.6a3.659,3.659,0,0,1-.23-1.08,8.12,8.12,0,0,0-2.6-.2,7,7,0,0,1-1.8-.08c-1.42-.39-2.51-.85-4-.36-1.23.41-2.15,1.12-3.39.72-1.52-.48-2.72-2.52-4.24-3.16-2.67-1.14-4.89,1-7.29,3l-.22.18-.2.19c-.36.32-.67.86-1,1.2a3.11,3.11,0,0,1-2.22.87,24,24,0,0,1-7.94-1c-1.15-.36-2.14-1.13-3.27-.5s-1.68,2.25-2.94,2.38c-1,.09-1.63-.5-2.53-1.45-1.57-1.67-2.36-2.2-4.13-2.17a5.871,5.871,0,0,1-3.451-1.121c-1.2-.8-2-2-3.459-1.179-.38.22-.66,1.11-1.06,1.31-2,1.05-2.64.95-4.41-1-2.31-2.57-4.42-2.06-6.74-4.4-.65-.66-.93-1.06-1.17-1.06s-.54.65-1.4,2.27"/>
    </clipPath>
    <linearGradient id="linear-gradient-3" x1="0.5" y1="0" x2="0.5" y2="1" xlink:href="#linear-gradient"/>
  </defs>
  <g id="Layer_2" data-name="Layer 2" transform="translate(-10.74 -24.39)">
    <g id="Layer_1" data-name="Layer 1">
      <path id="Path_22" data-name="Path 22" class="cls-1" d="M191.35,213.57h0M204.83,26.74c-.58,1.09-1,2.37-1.55,3.51-1.22,2.61-2.47,3.91-4.27,3.56-5.27-1-10.15,3.28-15.45,4-3.6.51-7.94,1.39-11.52.38-1.86-.53-2-1.4-3.06-4.41-1.67-4.85-4.62-3.36-7.57-1.87-1.75.88-3.5,1.77-5,1.32-3.07-.91-5.47-4.38-8.44-1.18-2.06,2.23-3.36,1.8-5.53,1.41-1.3-.24-1-1.47-2.3.54-.28.41-.39,1.47-.67,1.93a5.76,5.76,0,0,1-1.81,2.12c-2.15,1.31-4.78-.55-6.93-1.43s-5.13-.3-7-2.38a13.69,13.69,0,0,1-1.45-3c-1.19-2.44-1.32-3.06-2.31-.89.45-1-.48,1.93-.77,2.52a4.47,4.47,0,0,1-2.2,2.17c-2.14.9-2.9-2.09-4.84-2.74a11.79,11.79,0,0,0-4.37-.3,16.24,16.24,0,0,1-3.2,0c-2.37-.35-4.51-4.13-6.9-3.16s-4.62,4.94-7.3,5.51a7,7,0,0,1-3.91-.72A6.72,6.72,0,0,0,82.59,33c-1.22.29-2.16,1.2-3.37.58-1-.48-1.7-2.08-2.51-2.39a1.77,1.77,0,0,0-1.17.23,2.16,2.16,0,0,1-1.17.24c-1.08-.25-2-1.78-3.06-2.08a4.16,4.16,0,0,0-2.23.06A2.88,2.88,0,0,1,66,29c-1.38-1.22-4.17-3.89-5.81-4.07-1.82-.19-2.78,6.38-4.85,7.6a3.6,3.6,0,0,1-2.12.33,8.06,8.06,0,0,0-5.61,2.2A15.12,15.12,0,0,1,34.23,37.9c-2.73-.65-2-2.91-3.69-6.38-1.54-3.08-4-.64-5.94,1l-.05.06-.18.16h0l-.57.47a1.23,1.23,0,0,1-1.13.26c-1.46.18-2.5-.76-3.76-1.61a4.45,4.45,0,0,1-1.7,1.49A17,17,0,0,1,15.94,39a67.58,67.58,0,0,0-3,8.84c-.83,3.28-.18,5-.63,8.13A15.5,15.5,0,0,1,11,59.83a6.47,6.47,0,0,1,.09,1.08,8.07,8.07,0,0,1-.35,2.63c.52,4.4,1.74,6.79,3.57,10.14,2,3.67.47,5,.57,10.14.07,3.51,1,6.87,1.14,10.39.16,3,0,5.66.42,8.56a139.255,139.255,0,0,1,1,15.49,6.08,6.08,0,0,1,.17,6.39c.09,4,.38,9.59-.18,12.89s-2,3.16-3.14,5.14c-2.74,4.71.18,12.45.69,18.34.7,8.13-1.24,14.42-1.58,22.26-.19,4.31,1.67,7.6,2.39,11.37.9,4.64.61,9.9,3.31,12.09a3.38,3.38,0,0,0,2.34.53c1.06,0,2.12-.05,2.91,1.14,1.3,2,.34,4.44,1.12,6.72,1.28,3.7,5.79-1.95,7.56-2.8a16.39,16.39,0,0,0,6.1-4.28c1-1.12,2.16-2,3.35-1.47,1.65.76,2.37,3.9,3.18,6.76.65-.17,1.3-.18,1.86-.33,1.89-.49,3.78-4,5.76-2.34,1.4,1.21,1.45,4.8,2.94,5.76a3,3,0,0,0,2.34-.15,4.79,4.79,0,0,1,1.51-.34,8.93,8.93,0,0,0,3.55-.55c1-.37,1.88-1,2.95-.33s1.64,1.72,2.67,1.86a11.148,11.148,0,0,0,2.16,0,12.383,12.383,0,0,1,1.71-.06c1.5.08,2.43-.93,3.82-1.33a3.56,3.56,0,0,1,1.87.06,2.6,2.6,0,0,0,2.75-.56c2-1.82,3-5.32,5.42-4.29a2.72,2.72,0,0,1,1.43,1,4.522,4.522,0,0,1,.25.49c1.44-1.15,3.11-1.26,4.08.9.83.8,1.26,2.23,2.39,3.35,1.94,1.92,5,.67,7,.11a18.53,18.53,0,0,0,7.94-4.48c2.21-2,4.42-4.62,6.81-5.5a4.16,4.16,0,0,1,3.24.21c.82,0,1,.44.7,1.23q.7-.62,1.44-1.17a7.3,7.3,0,0,1,4.32-.06,11.059,11.059,0,0,0,2.93.28c4.85-.45,10.16-3.26,15-2a8.21,8.21,0,0,1,5.56,4c1,1.73,1.27,3.91,2.51,5,.06-.19.14-.43.25-.73,2.28-6.62,6.33-8.52,8.69-1.92,1,2.8.71,5.49,2.84,5.29.89-.08,2-1.31,2.84-1.9,2.89-2,5.84-2.11,8.7-3.86,3.71-2.27,6.3-7.73,9.19-3.6a2.06,2.06,0,0,1,1.94-.11c1.22.57,1.72,2,2.1,3.15.25.7.85,3.59.4,1.33a8.138,8.138,0,0,1,.41.88,2.8,2.8,0,0,1,.16.46c.47.29.94.53,1.21.42-.59.22,1.51-3.4,1.53-3.43,1.15-1.84,2.28-3.36,3.86-2.84,2,.67,1.8,2.76,2.77,5.83,1.24,3.94,2.94,3.41,4.78,3,1.56-2.71,3.35-2.69,5.31-1.31-.69-.48-.11-.22.45.43,1.24-1.11,2.18-2.87,4-2,.8.38,1.56,1.3,1.52,3.24,0,.49,4.21.12,8.22-.25a51.755,51.755,0,0,1,7-.44c1.83.53,1.67.29,3.1-1.44a21.25,21.25,0,0,1,4.1-3.71c2.26-1.57,3.44-.5,5.11,1.81a2.19,2.19,0,0,1,1.9.09c1.16-1.37,2.27-2.37,3.83-.87s2.39,4,4.17,4.82c2.38,1.12,4.53.32,6.9-.25,2.2-.53,3.9-.21,6.12-1.31,2.83-1.4,5.32-3.75,8.05-5.68,2.39-1.69,5.34-3.61,7.87-2.75a7.2,7.2,0,0,1,3.13,1.53,4.31,4.31,0,0,1,.32.4l.06-.06c.42-.34.75-1.06,1.18-1.41,1.21-1,4.66-1.82,5.85.61,3.71-.29,7.43-1.59,11.16-1.67s7.42-1.14,11.16-.88a9.62,9.62,0,0,1,7.63,4.1c.92,1.25,2,2.85,2.91,4.33.44-.64,1-1.32,1.15-1.64,2.15-4.73,2.21-13,3.38-18.83a26.07,26.07,0,0,1,2.21-5.9c2.37-5.71,1.46-7.57-.61-11.95-1.24-2.64-2.33-5.57-.87-8.93.7-1.61,2-1.65,2.68-3.09a37,37,0,0,0,1-8.83,5.749,5.749,0,0,1-.1-.92c-.42-3.92-1.56-6.83-1.82-10.92s-.23-8.14-.86-12.24c-.58-3.8-2.36-8.47-2.3-12.64a12.33,12.33,0,0,1,1.28-5.23,6.36,6.36,0,0,1,0-4.48,15.791,15.791,0,0,1,1.19-2.22c1.09-1.89,1.29-1.32,1.44-3.51.46-6.86-2-6.22-2.91-10.93a8.56,8.56,0,0,1,.61-5.37c1.61-3.6,4-2.85,3.9-9.41,0-2.72-.37-5.24-.49-7.88a3.69,3.69,0,0,1-1.08-2.62,8,8,0,0,1,.18-2.13c-.16.48-.14,0-.08-.49s.22-1.18.14,0a3.8,3.8,0,0,1-.06.5,1.246,1.246,0,0,0,.06-.18,27.893,27.893,0,0,1,1.1-3.23c-.43-3.77-2.63-7.78-2.89-12.22-.07-1.18.54-5.35.27-6.23-.42-1.32-2.34-.55-3.08-2.07a5.156,5.156,0,0,1-.21-.49c-2.18-2.89-5.26-9.7-7.46-8.35-1.22.75-2.2,2.5-3.52,3a6.58,6.58,0,0,1-4.4.08,5.87,5.87,0,0,1-2-1c-1-.84-.53-1.63-1.1-.94-.71.88-1.06,4.27-1.93,5.52-1.74,2.47-3.67,1.4-5.53.22-2.48-1.58-4.83-.76-7.31-2.29-1.87-1.15-2.11-.5-3.91,0a2.54,2.54,0,0,1-2.65-.9c-1.1-1.18-2.49-6.76-3.82-6.09-.51.26-1.84,5.51-2.63,6.48a3.81,3.81,0,0,1-5.16.85c-1-.07-1.82-.8-2.6-2.6a3.659,3.659,0,0,1-.23-1.08,8.12,8.12,0,0,0-2.6-.2,7,7,0,0,1-1.8-.08c-1.42-.39-2.51-.85-4-.36-1.23.41-2.15,1.12-3.39.72-1.52-.48-2.72-2.52-4.24-3.16-2.67-1.14-4.89,1-7.29,3l-.22.18-.2.19c-.36.32-.67.86-1,1.2a3.11,3.11,0,0,1-2.22.87,24,24,0,0,1-7.94-1c-1.15-.36-2.14-1.13-3.27-.5s-1.68,2.25-2.94,2.38c-1,.09-1.63-.5-2.53-1.45-1.57-1.67-2.36-2.2-4.13-2.17a5.871,5.871,0,0,1-3.451-1.121c-1.2-.8-2-2-3.459-1.179-.38.22-.66,1.11-1.06,1.31-2,1.05-2.64.95-4.41-1-2.31-2.57-4.42-2.06-6.74-4.4-.65-.66-.93-1.06-1.17-1.06s-.54.65-1.4,2.27"/>
      <g id="Group_6" data-name="Group 6" class="cls-2">
        <rect id="Rectangle_5" data-name="Rectangle 5" class="cls-3" width="324.06" height="194.36" transform="translate(10.71 24.47)"/>
      </g>
      <path id="Path_25" data-name="Path 25" class="cls-4" d="M125.75,78.71l10.56-10.57a5.61,5.61,0,0,1,7.93,0l72,72v.06a1.83,1.83,0,0,1,.32.48l.06.13v.06l7.93,23.78a1.87,1.87,0,0,1-2.35,2.36L198.45,159h-.06l-.13-.06a1.86,1.86,0,0,1-.47-.32h-.07l-72-72a5.59,5.59,0,0,1,0-7.92m94.1,83.53-5.79-17.36-11.58,11.58ZM199,154.63l13.21-13.21L153.48,82.66,148.2,88l35,35a1.87,1.87,0,0,1-2.59,2.69l-.05-.05-35-35-5.28,5.28ZM128.39,84l9.25,9.25,6.59-6.61L150.85,80l-9.25-9.24a1.86,1.86,0,0,0-2.64,0L128.39,81.34a1.88,1.88,0,0,0,0,2.65Z"/>
      <path id="Path_26" data-name="Path 26" class="cls-4" d="M121.54,174.14H229.88a1.87,1.87,0,1,1,0,3.73H121.54a1.87,1.87,0,0,1,0-3.73"/>
      <path id="Path_27" data-name="Path 27" class="cls-4" d="M121.54,162.93h56a1.87,1.87,0,0,1,0,3.74h-56a1.87,1.87,0,1,1,0-3.74"/>
      <path id="Path_28" data-name="Path 28" class="cls-4" d="M121.54,149.85h48.57a1.87,1.87,0,0,1,0,3.74H121.54a1.87,1.87,0,0,1,0-3.74"/>
    </g>
  </g>
</svg>
