<svg xmlns="http://www.w3.org/2000/svg" xmlns:xlink="http://www.w3.org/1999/xlink" width="323.683" height="192.819" viewBox="0 0 323.683 192.819">
  <defs>
    <style>
      .cls-1 {
        fill: url(#linear-gradient);
      }

      .cls-2 {
        clip-path: url(#clip-path);
      }

      .cls-3 {
        fill: url(#linear-gradient-3);
      }

      .cls-4 {
        fill: #fff;
      }
    </style>
    <linearGradient id="linear-gradient" x1="0.5" x2="0.5" y2="1" gradientUnits="objectBoundingBox">
      <stop offset="0" stop-color="#123e84"/>
      <stop offset="1" stop-color="#123e84" stop-opacity="0.102"/>
    </linearGradient>
    <clipPath id="clip-path">
      <path id="Path_18" data-name="Path 18" class="cls-1" d="M191,213.47h0m13.46-186.6c-.58,1.09-1,2.37-1.55,3.5-1.21,2.62-2.46,3.91-4.26,3.56-5.27-1-10.14,3.28-15.44,4-3.59.5-7.93,1.39-11.5.38-1.86-.53-2-1.4-3.06-4.41-1.66-4.84-4.61-3.35-7.56-1.87-1.75.89-3.5,1.77-5,1.33-3.06-.92-5.47-4.38-8.43-1.19-2.06,2.24-3.36,1.81-5.52,1.41-1.3-.23-1-1.47-2.3.54-.28.41-.39,1.47-.67,1.93a5.67,5.67,0,0,1-1.81,2.12c-2.14,1.31-4.77-.55-6.92-1.43s-5.13-.3-7-2.38a13.25,13.25,0,0,1-1.45-3c-1.19-2.43-1.31-3.05-2.31-.89.45-1-.47,1.93-.77,2.52a4.47,4.47,0,0,1-2.2,2.17c-2.13.9-2.88-2.09-4.82-2.73a11.81,11.81,0,0,0-4.37-.3,17,17,0,0,1-3.2,0C102,31.8,99.9,28,97.52,29c-2.55,1-4.62,4.93-7.3,5.5a7,7,0,0,1-3.9-.71,6.73,6.73,0,0,0-3.94-.7c-1.22.29-2.15,1.2-3.37.59-1-.48-1.69-2.08-2.5-2.39a1.82,1.82,0,0,0-1.17.22,2.09,2.09,0,0,1-1.17.25c-1.08-.25-2-1.78-3-2.08a4.06,4.06,0,0,0-2.23.06,2.88,2.88,0,0,1-3.11-.61c-1.38-1.22-4.17-3.89-5.8-4.06-1.82-.2-2.78,6.37-4.84,7.58A3.54,3.54,0,0,1,53,33a8,8,0,0,0-5.61,2.19A15.06,15.06,0,0,1,34.09,38c-2.74-.65-2-2.91-3.7-6.37-1.53-3.08-4-.64-5.92,1l-.06.06-.18.16h0l-.57.47a1.19,1.19,0,0,1-1.13.26c-1.45.18-2.49-.75-3.75-1.6a4.58,4.58,0,0,1-1.69,1.49,17.22,17.22,0,0,1-1.28,5.61,66.9,66.9,0,0,0-3,8.83c-.83,3.27-.18,5-.63,8.12a15.27,15.27,0,0,1-1.35,3.88A6.56,6.56,0,0,1,10.94,61a8.07,8.07,0,0,1-.35,2.63c.51,4.39,1.73,6.78,3.56,10.12,2,3.67.48,5,.58,10.13.06,3.51.94,6.86,1.14,10.38.16,2.94,0,5.65.41,8.55a138.909,138.909,0,0,1,1,15.47,6.08,6.08,0,0,1,.17,6.39c.09,4,.38,9.57-.18,12.86s-2,3.17-3.14,5.14c-2.73,4.7.19,12.43.69,18.32.7,8.12-1.23,14.4-1.58,22.23-.19,4.31,1.68,7.59,2.4,11.35.89,4.64.6,9.89,3.3,12.08a3.31,3.31,0,0,0,2.33.52c1.06,0,2.12,0,2.91,1.15,1.31,2,.34,4.43,1.13,6.7,1.27,3.71,5.77-1.94,7.54-2.78A16.54,16.54,0,0,0,39,208c1-1.11,2.15-2,3.34-1.46,1.65.76,2.36,3.9,3.18,6.75.65-.16,1.3-.18,1.85-.33,1.89-.48,3.78-4,5.75-2.33,1.41,1.21,1.45,4.79,3,5.75.61.39,1.49.12,2.33-.15a5.14,5.14,0,0,1,1.51-.35,8.7,8.7,0,0,0,3.54-.54c1-.37,1.88-1,3-.33s1.63,1.72,2.67,1.86a11.061,11.061,0,0,0,2.15,0,14.239,14.239,0,0,1,1.72-.05c1.49.07,2.42-.93,3.81-1.33a3.52,3.52,0,0,1,1.86.06,2.6,2.6,0,0,0,2.75-.56c2-1.82,3-5.31,5.42-4.29a2.71,2.71,0,0,1,1.42,1.05,3.669,3.669,0,0,1,.26.48c1.44-1.15,3.1-1.25,4.06.9.83.81,1.27,2.23,2.39,3.34,1.95,1.92,5,.67,7,.11a18.41,18.41,0,0,0,7.94-4.47c2.2-2,4.41-4.62,6.8-5.49a4.14,4.14,0,0,1,3.23.21c.82,0,1.06.44.7,1.22.48-.41,1-.79,1.44-1.16a7.29,7.29,0,0,1,4.32-.06,11.45,11.45,0,0,0,2.93.28c4.83-.44,10.14-3.26,15-2a8.18,8.18,0,0,1,5.56,4c1,1.73,1.26,3.9,2.5,5,.07-.19.15-.43.25-.73,2.29-6.61,6.33-8.51,8.69-1.91,1,2.79.71,5.47,2.83,5.28.89-.08,2-1.31,2.84-1.9,2.88-2,5.83-2.11,8.68-3.85,3.71-2.27,6.3-7.73,9.19-3.6a2,2,0,0,1,1.93-.11c1.22.57,1.72,2,2.1,3.15.24.7.85,3.58.4,1.32a8.593,8.593,0,0,1,.41.89c.09.23.11.3.16.45.47.3.93.53,1.21.42-.59.22,1.5-3.39,1.52-3.43,1.16-1.83,2.28-3.35,3.85-2.83,2,.67,1.81,2.76,2.78,5.82,1.23,3.93,2.94,3.41,4.77,3,1.55-2.71,3.35-2.69,5.3-1.31-.68-.48-.11-.22.45.43,1.24-1.11,2.18-2.87,4-2,.8.38,1.56,1.3,1.52,3.24,0,.49,4.2.12,8.21-.25a51.55,51.55,0,0,1,7-.44c1.83.52,1.66.29,3.1-1.44a20.62,20.62,0,0,1,4.09-3.71c2.25-1.56,3.44-.5,5.1,1.82a2.22,2.22,0,0,1,1.9.08c1.16-1.36,2.26-2.36,3.83-.87s2.38,4,4.16,4.82c2.37,1.11,4.53.32,6.89-.25,2.2-.53,3.9-.22,6.11-1.31,2.83-1.39,5.32-3.75,8-5.67,2.39-1.69,5.33-3.61,7.87-2.75a7.31,7.31,0,0,1,3.12,1.52c.11.13.22.27.32.41l.06-.06c.42-.34.75-1.06,1.18-1.41,1.21-1,4.66-1.82,5.84.61,3.71-.29,7.43-1.59,11.15-1.66s7.41-1.14,11.14-.89a9.64,9.64,0,0,1,7.63,4.09c.92,1.25,2,2.86,2.9,4.33.44-.64,1-1.32,1.15-1.63,2.15-4.73,2.2-13,3.38-18.81a26.26,26.26,0,0,1,2.2-5.9c2.37-5.7,1.46-7.55-.6-11.93-1.25-2.63-2.33-5.56-.88-8.92.7-1.61,2-1.65,2.68-3.08a37.533,37.533,0,0,0,1-8.83,5.63,5.63,0,0,1-.1-.91c-.42-3.91-1.56-6.82-1.81-10.91s-.23-8.13-.87-12.23c-.58-3.79-2.35-8.45-2.3-12.62a12.48,12.48,0,0,1,1.28-5.22,6.41,6.41,0,0,1,0-4.48,16.782,16.782,0,0,1,1.19-2.21c1.1-1.89,1.29-1.32,1.44-3.51.46-6.85-1.95-6.21-2.9-10.92a8.53,8.53,0,0,1,.6-5.36c1.61-3.6,4-2.84,3.9-9.4,0-2.72-.37-5.23-.49-7.87a3.73,3.73,0,0,1-1.2-2.67,8,8,0,0,1,.18-2.13c-.16.48-.14,0-.08-.49s.21-1.18.14,0a3.8,3.8,0,0,1-.06.5.231.231,0,0,1,.06-.18,27.911,27.911,0,0,1,1.1-3.23c-.43-3.77-2.63-7.77-2.88-12.2-.07-1.19.53-5.35.26-6.22-.41-1.33-2.34-.55-3.07-2.08a4.1,4.1,0,0,1-.21-.48c-2.18-2.89-5.25-9.7-7.45-8.35-1.22.76-2.2,2.5-3.52,3a6.64,6.64,0,0,1-4.4.07,5.57,5.57,0,0,1-2-1c-1-.83-.54-1.62-1.1-.93-.71.87-1.06,4.26-1.93,5.51-1.74,2.47-3.67,1.4-5.52.22-2.48-1.58-4.82-.76-7.3-2.29-1.87-1.14-2.11-.5-3.91,0a2.51,2.51,0,0,1-2.64-.9c-1.1-1.18-2.49-6.75-3.82-6.08-.51.26-1.84,5.5-2.62,6.47a3.81,3.81,0,0,1-5.16.85c-1-.07-1.82-.79-2.59-2.59a3.171,3.171,0,0,1-.23-1.09,8.149,8.149,0,0,0-2.6-.19,7.43,7.43,0,0,1-1.8-.09c-1.42-.39-2.51-.85-4-.35-1.22.41-2.15,1.12-3.38.72-1.52-.49-2.72-2.52-4.23-3.16-2.68-1.14-4.89,1-7.28,3l-.23.19-.2.18c-.35.33-.67.87-1,1.21a3.08,3.08,0,0,1-2.21.86,23.45,23.45,0,0,1-7.94-1c-1.14-.35-2.13-1.13-3.26-.5s-1.68,2.26-2.94,2.38c-1,.1-1.63-.5-2.53-1.45-1.56-1.67-2.35-2.2-4.12-2.16A5.84,5.84,0,0,1,222.69,31c-1.21-.8-2-2-3.46-1.18-.38.22-.66,1.1-1.06,1.31-2,1.05-2.63.94-4.4-1-2.31-2.57-4.42-2.06-6.73-4.39-.65-.66-.93-1.06-1.17-1.06s-.54.65-1.4,2.26" transform="translate(-0.12 -0.59)"/>
    </clipPath>
    <linearGradient id="linear-gradient-3" x1="0.5" y1="0" x2="0.5" y2="1" xlink:href="#linear-gradient"/>
  </defs>
  <g id="Layer_2" data-name="Layer 2" transform="translate(-10.47 -24.09)">
    <g id="Layer_1" data-name="Layer 1">
      <path id="Path_17" data-name="Path 17" class="cls-1" d="M191,213.47h0m13.46-186.6c-.58,1.09-1,2.37-1.55,3.5-1.21,2.62-2.46,3.91-4.26,3.56-5.27-1-10.14,3.28-15.44,4-3.59.5-7.93,1.39-11.5.38-1.86-.53-2-1.4-3.06-4.41-1.66-4.84-4.61-3.35-7.56-1.87-1.75.89-3.5,1.77-5,1.33-3.06-.92-5.47-4.38-8.43-1.19-2.06,2.24-3.36,1.81-5.52,1.41-1.3-.23-1-1.47-2.3.54-.28.41-.39,1.47-.67,1.93a5.67,5.67,0,0,1-1.81,2.12c-2.14,1.31-4.77-.55-6.92-1.43s-5.13-.3-7-2.38a13.25,13.25,0,0,1-1.45-3c-1.19-2.43-1.31-3.05-2.31-.89.45-1-.47,1.93-.77,2.52a4.47,4.47,0,0,1-2.2,2.17c-2.13.9-2.88-2.09-4.82-2.73a11.81,11.81,0,0,0-4.37-.3,17,17,0,0,1-3.2,0C102,31.8,99.9,28,97.52,29c-2.55,1-4.62,4.93-7.3,5.5a7,7,0,0,1-3.9-.71,6.73,6.73,0,0,0-3.94-.7c-1.22.29-2.15,1.2-3.37.59-1-.48-1.69-2.08-2.5-2.39a1.82,1.82,0,0,0-1.17.22,2.09,2.09,0,0,1-1.17.25c-1.08-.25-2-1.78-3-2.08a4.06,4.06,0,0,0-2.23.06,2.88,2.88,0,0,1-3.11-.61c-1.38-1.22-4.17-3.89-5.8-4.06-1.82-.2-2.78,6.37-4.84,7.58A3.54,3.54,0,0,1,53,33a8,8,0,0,0-5.61,2.19A15.06,15.06,0,0,1,34.09,38c-2.74-.65-2-2.91-3.7-6.37-1.53-3.08-4-.64-5.92,1l-.06.06-.18.16h0l-.57.47a1.19,1.19,0,0,1-1.13.26c-1.45.18-2.49-.75-3.75-1.6a4.58,4.58,0,0,1-1.69,1.49,17.22,17.22,0,0,1-1.28,5.61,66.9,66.9,0,0,0-3,8.83c-.83,3.27-.18,5-.63,8.12a15.27,15.27,0,0,1-1.35,3.88A6.56,6.56,0,0,1,10.94,61a8.07,8.07,0,0,1-.35,2.63c.51,4.39,1.73,6.78,3.56,10.12,2,3.67.48,5,.58,10.13.06,3.51.94,6.86,1.14,10.38.16,2.94,0,5.65.41,8.55a138.909,138.909,0,0,1,1,15.47,6.08,6.08,0,0,1,.17,6.39c.09,4,.38,9.57-.18,12.86s-2,3.17-3.14,5.14c-2.73,4.7.19,12.43.69,18.32.7,8.12-1.23,14.4-1.58,22.23-.19,4.31,1.68,7.59,2.4,11.35.89,4.64.6,9.89,3.3,12.08a3.31,3.31,0,0,0,2.33.52c1.06,0,2.12,0,2.91,1.15,1.31,2,.34,4.43,1.13,6.7,1.27,3.71,5.77-1.94,7.54-2.78A16.54,16.54,0,0,0,39,208c1-1.11,2.15-2,3.34-1.46,1.65.76,2.36,3.9,3.18,6.75.65-.16,1.3-.18,1.85-.33,1.89-.48,3.78-4,5.75-2.33,1.41,1.21,1.45,4.79,3,5.75.61.39,1.49.12,2.33-.15a5.14,5.14,0,0,1,1.51-.35,8.7,8.7,0,0,0,3.54-.54c1-.37,1.88-1,3-.33s1.63,1.72,2.67,1.86a11.061,11.061,0,0,0,2.15,0,14.239,14.239,0,0,1,1.72-.05c1.49.07,2.42-.93,3.81-1.33a3.52,3.52,0,0,1,1.86.06,2.6,2.6,0,0,0,2.75-.56c2-1.82,3-5.31,5.42-4.29a2.71,2.71,0,0,1,1.42,1.05,3.669,3.669,0,0,1,.26.48c1.44-1.15,3.1-1.25,4.06.9.83.81,1.27,2.23,2.39,3.34,1.95,1.92,5,.67,7,.11a18.41,18.41,0,0,0,7.94-4.47c2.2-2,4.41-4.62,6.8-5.49a4.14,4.14,0,0,1,3.23.21c.82,0,1.06.44.7,1.22.48-.41,1-.79,1.44-1.16a7.29,7.29,0,0,1,4.32-.06,11.45,11.45,0,0,0,2.93.28c4.83-.44,10.14-3.26,15-2a8.18,8.18,0,0,1,5.56,4c1,1.73,1.26,3.9,2.5,5,.07-.19.15-.43.25-.73,2.29-6.61,6.33-8.51,8.69-1.91,1,2.79.71,5.47,2.83,5.28.89-.08,2-1.31,2.84-1.9,2.88-2,5.83-2.11,8.68-3.85,3.71-2.27,6.3-7.73,9.19-3.6a2,2,0,0,1,1.93-.11c1.22.57,1.72,2,2.1,3.15.24.7.85,3.58.4,1.32a8.593,8.593,0,0,1,.41.89c.09.23.11.3.16.45.47.3.93.53,1.21.42-.59.22,1.5-3.39,1.52-3.43,1.16-1.83,2.28-3.35,3.85-2.83,2,.67,1.81,2.76,2.78,5.82,1.23,3.93,2.94,3.41,4.77,3,1.55-2.71,3.35-2.69,5.3-1.31-.68-.48-.11-.22.45.43,1.24-1.11,2.18-2.87,4-2,.8.38,1.56,1.3,1.52,3.24,0,.49,4.2.12,8.21-.25a51.55,51.55,0,0,1,7-.44c1.83.52,1.66.29,3.1-1.44a20.62,20.62,0,0,1,4.09-3.71c2.25-1.56,3.44-.5,5.1,1.82a2.22,2.22,0,0,1,1.9.08c1.16-1.36,2.26-2.36,3.83-.87s2.38,4,4.16,4.82c2.37,1.11,4.53.32,6.89-.25,2.2-.53,3.9-.22,6.11-1.31,2.83-1.39,5.32-3.75,8-5.67,2.39-1.69,5.33-3.61,7.87-2.75a7.31,7.31,0,0,1,3.12,1.52c.11.13.22.27.32.41l.06-.06c.42-.34.75-1.06,1.18-1.41,1.21-1,4.66-1.82,5.84.61,3.71-.29,7.43-1.59,11.15-1.66s7.41-1.14,11.14-.89a9.64,9.64,0,0,1,7.63,4.09c.92,1.25,2,2.86,2.9,4.33.44-.64,1-1.32,1.15-1.63,2.15-4.73,2.2-13,3.38-18.81a26.26,26.26,0,0,1,2.2-5.9c2.37-5.7,1.46-7.55-.6-11.93-1.25-2.63-2.33-5.56-.88-8.92.7-1.61,2-1.65,2.68-3.08a37.533,37.533,0,0,0,1-8.83,5.63,5.63,0,0,1-.1-.91c-.42-3.91-1.56-6.82-1.81-10.91s-.23-8.13-.87-12.23c-.58-3.79-2.35-8.45-2.3-12.62a12.48,12.48,0,0,1,1.28-5.22,6.41,6.41,0,0,1,0-4.48,16.782,16.782,0,0,1,1.19-2.21c1.1-1.89,1.29-1.32,1.44-3.51.46-6.85-1.95-6.21-2.9-10.92a8.53,8.53,0,0,1,.6-5.36c1.61-3.6,4-2.84,3.9-9.4,0-2.72-.37-5.23-.49-7.87a3.73,3.73,0,0,1-1.2-2.67,8,8,0,0,1,.18-2.13c-.16.48-.14,0-.08-.49s.21-1.18.14,0a3.8,3.8,0,0,1-.06.5.231.231,0,0,1,.06-.18,27.911,27.911,0,0,1,1.1-3.23c-.43-3.77-2.63-7.77-2.88-12.2-.07-1.19.53-5.35.26-6.22-.41-1.33-2.34-.55-3.07-2.08a4.1,4.1,0,0,1-.21-.48c-2.18-2.89-5.25-9.7-7.45-8.35-1.22.76-2.2,2.5-3.52,3a6.64,6.64,0,0,1-4.4.07,5.57,5.57,0,0,1-2-1c-1-.83-.54-1.62-1.1-.93-.71.87-1.06,4.26-1.93,5.51-1.74,2.47-3.67,1.4-5.52.22-2.48-1.58-4.82-.76-7.3-2.29-1.87-1.14-2.11-.5-3.91,0a2.51,2.51,0,0,1-2.64-.9c-1.1-1.18-2.49-6.75-3.82-6.08-.51.26-1.84,5.5-2.62,6.47a3.81,3.81,0,0,1-5.16.85c-1-.07-1.82-.79-2.59-2.59a3.171,3.171,0,0,1-.23-1.09,8.149,8.149,0,0,0-2.6-.19,7.43,7.43,0,0,1-1.8-.09c-1.42-.39-2.51-.85-4-.35-1.22.41-2.15,1.12-3.38.72-1.52-.49-2.72-2.52-4.23-3.16-2.68-1.14-4.89,1-7.28,3l-.23.19-.2.18c-.35.33-.67.87-1,1.21a3.08,3.08,0,0,1-2.21.86,23.45,23.45,0,0,1-7.94-1c-1.14-.35-2.13-1.13-3.26-.5s-1.68,2.26-2.94,2.38c-1,.1-1.63-.5-2.53-1.45-1.56-1.67-2.35-2.2-4.12-2.16A5.84,5.84,0,0,1,222.69,31c-1.21-.8-2-2-3.46-1.18-.38.22-.66,1.1-1.06,1.31-2,1.05-2.63.94-4.4-1-2.31-2.57-4.42-2.06-6.73-4.39-.65-.66-.93-1.06-1.17-1.06s-.54.65-1.4,2.26" transform="translate(-0.12 -0.59)"/>
      <g id="Group_5" data-name="Group 5" class="cls-2">
        <rect id="Rectangle_4" data-name="Rectangle 4" class="cls-3" width="323.66" height="194.12" transform="translate(9.3 21.53)"/>
      </g>
      <path id="Path_19" data-name="Path 19" class="cls-4" d="M124.06,141.76,99.25,120.22,135,89.06c2.29-2,3.34-4,1.07-6.12s-4.07-.72-6.53,1.3L92.21,117a4.41,4.41,0,0,0,0,6.88L129.5,156.6c1.23,1,2.71,2.55,4.31,2.55a3.84,3.84,0,0,0,3-1.45c1.43-2.34.4-3.72-1.89-5.73" transform="translate(-0.12 -0.59)"/>
      <path id="Path_20" data-name="Path 20" class="cls-4" d="M219.68,99.21l24.81,21.54-35.71,31.16c-2.29,2-3.34,4.05-1.07,6.13s4.06.71,6.53-1.31L251.53,124a4.41,4.41,0,0,0,.68-6.2,4.31,4.31,0,0,0-.68-.67L214.24,84.41c-1.23-1-2.71-2.54-4.32-2.54a3.81,3.81,0,0,0-3,1.44c-1.43,2.35-.4,3.72,1.89,5.73" transform="translate(-0.12 -0.59)"/>
      <path id="Path_21" data-name="Path 21" class="cls-4" d="M193.15,71.7a4.42,4.42,0,0,0-6,2.48L148.68,163.5c-1.08,2.52-.37,4.52,2.57,5.77a3.9,3.9,0,0,0,.64.26,4.47,4.47,0,0,0,5.39-2.74l38.31-89.12c1.17-3.06.42-4.88-2.44-6" transform="translate(-0.12 -0.59)"/>
    </g>
  </g>
</svg>
