<svg xmlns="http://www.w3.org/2000/svg" xmlns:xlink="http://www.w3.org/1999/xlink" width="324.433" height="193.259" viewBox="0 0 324.433 193.259">
  <defs>
    <style>
      .cls-1 {
        fill: url(#linear-gradient);
      }

      .cls-2 {
        clip-path: url(#clip-path);
      }

      .cls-3 {
        fill: url(#linear-gradient-3);
      }

      .cls-4 {
        fill: #fff;
      }
    </style>
    <linearGradient id="linear-gradient" x1="0.5" x2="0.5" y2="1" gradientUnits="objectBoundingBox">
      <stop offset="0" stop-color="#11631d"/>
      <stop offset="1" stop-color="#11631d" stop-opacity="0.102"/>
    </linearGradient>
    <clipPath id="clip-path">
      <path id="Path_10" data-name="Path 10" class="cls-1" d="M191.66,214.34h0m13.5-187c-.58,1.1-1,2.37-1.56,3.51-1.22,2.62-2.47,3.92-4.27,3.57-5.28-1-10.16,3.28-15.48,4-3.6.51-7.94,1.4-11.52.38-1.87-.53-2-1.4-3.07-4.41-1.67-4.86-4.62-3.37-7.58-1.88-1.75.89-3.51,1.77-5,1.33-3.08-.92-5.48-4.39-8.45-1.19-2.07,2.24-3.37,1.81-5.53,1.42-1.31-.24-1-1.47-2.31.54-.28.41-.39,1.47-.67,1.93a5.8,5.8,0,0,1-1.81,2.13c-2.15,1.3-4.79-.56-6.94-1.44s-5.14-.3-7-2.38a14,14,0,0,1-1.46-3c-1.18-2.43-1.31-3.06-2.31-.89.45-1-.47,1.93-.77,2.52a4.45,4.45,0,0,1-2.2,2.18c-2.14.9-2.9-2.09-4.84-2.74a11.86,11.86,0,0,0-4.38-.3,17.14,17.14,0,0,1-3.21,0c-2.36-.34-4.51-4.13-6.9-3.16-2.55,1-4.63,4.95-7.31,5.52a6.93,6.93,0,0,1-3.91-.72,6.76,6.76,0,0,0-4-.69c-1.22.29-2.16,1.2-3.38.58-1-.48-1.69-2.09-2.5-2.39a1.77,1.77,0,0,0-1.18.22,2.09,2.09,0,0,1-1.17.25c-1.08-.25-2-1.78-3.06-2.09a4.06,4.06,0,0,0-2.23.07,2.9,2.9,0,0,1-3.12-.62c-1.38-1.22-4.18-3.89-5.82-4.07-1.81-.19-2.78,6.38-4.85,7.61a3.6,3.6,0,0,1-2.12.33,8.05,8.05,0,0,0-5.62,2.2,15.12,15.12,0,0,1-13.36,2.86c-2.74-.66-2-2.92-3.7-6.39-1.54-3.08-4-.65-5.94,1l-.06.06-.18.17h0l-.57.47a1.2,1.2,0,0,1-1.13.25c-1.46.18-2.5-.75-3.76-1.6a4.61,4.61,0,0,1-1.7,1.49A17.22,17.22,0,0,1,16,39.53a67.86,67.86,0,0,0-3,8.86c-.83,3.28-.18,5-.63,8.14a15.5,15.5,0,0,1-1.35,3.89,6.47,6.47,0,0,1,.09,1.08,8.17,8.17,0,0,1-.35,2.64c.51,4.4,1.74,6.79,3.57,10.14,2,3.68.47,5,.57,10.15.07,3.52,1,6.88,1.15,10.41.16,3,0,5.67.41,8.57a137.253,137.253,0,0,1,1,15.51,6.07,6.07,0,0,1,.18,6.4c.09,4,.37,9.6-.18,12.9s-2,3.17-3.15,5.15c-2.74,4.71.18,12.46.69,18.36.7,8.14-1.23,14.43-1.58,22.28-.19,4.32,1.67,7.62,2.4,11.38.89,4.65.6,9.92,3.31,12.11a3.37,3.37,0,0,0,2.34.53c1.06,0,2.12-.05,2.91,1.14,1.31,2,.34,4.45,1.13,6.72,1.28,3.72,5.79-1.95,7.56-2.79a16.57,16.57,0,0,0,6.11-4.29c1-1.12,2.16-2,3.36-1.47,1.65.76,2.36,3.91,3.18,6.77.65-.17,1.3-.19,1.86-.33,1.89-.49,3.78-4.05,5.76-2.35,1.41,1.22,1.46,4.81,3,5.77.62.4,1.5.12,2.34-.15a4.849,4.849,0,0,1,1.52-.34,8.78,8.78,0,0,0,3.55-.55c1-.37,1.88-1,2.95-.33s1.64,1.72,2.68,1.86a11.149,11.149,0,0,0,2.16,0,14.1,14.1,0,0,1,1.71-.06c1.5.08,2.44-.93,3.83-1.33a3.52,3.52,0,0,1,1.86.06,2.62,2.62,0,0,0,2.76-.56c2-1.82,3-5.32,5.43-4.3a2.67,2.67,0,0,1,1.42,1,3.2,3.2,0,0,1,.26.48c1.44-1.15,3.11-1.25,4.08.9.83.81,1.27,2.24,2.39,3.36,2,1.92,5,.67,7.05.11a18.58,18.58,0,0,0,8-4.49c2.2-2,4.42-4.62,6.82-5.5a4.14,4.14,0,0,1,3.23.21c.83,0,1.06.44.7,1.23.48-.41,1-.8,1.45-1.17a7.3,7.3,0,0,1,4.32-.06,11.09,11.09,0,0,0,2.94.28c4.85-.44,10.16-3.27,15-2a8.21,8.21,0,0,1,5.57,4c1,1.73,1.27,3.91,2.51,5,.07-.19.14-.43.25-.73,2.29-6.63,6.34-8.53,8.7-1.92,1,2.8.72,5.49,2.85,5.29.89-.08,2-1.31,2.84-1.9,2.89-2,5.84-2.12,8.71-3.87,3.71-2.26,6.31-7.74,9.2-3.6a2.06,2.06,0,0,1,1.94-.11c1.22.57,1.72,2,2.11,3.16.24.7.85,3.59.4,1.32,0,0,.32.66.41.89a3.527,3.527,0,0,1,.15.46c.48.29.94.52,1.22.42-.59.22,1.5-3.4,1.53-3.44,1.15-1.84,2.28-3.36,3.86-2.84,2,.67,1.81,2.77,2.78,5.84,1.23,3.94,2.94,3.41,4.78,3,1.56-2.71,3.36-2.7,5.32-1.31-.69-.48-.11-.22.45.43,1.24-1.11,2.18-2.88,4-2,.81.38,1.57,1.31,1.52,3.25,0,.49,4.22.12,8.24-.25a51.753,51.753,0,0,1,7-.44c1.84.53,1.67.29,3.11-1.44a20.7,20.7,0,0,1,4.1-3.72c2.26-1.57,3.45-.5,5.12,1.82a2.22,2.22,0,0,1,1.9.08c1.16-1.37,2.27-2.36,3.84-.86s2.39,4,4.17,4.83c2.38,1.11,4.54.32,6.9-.26,2.21-.53,3.91-.21,6.13-1.31,2.84-1.4,5.34-3.76,8.06-5.68,2.39-1.69,5.35-3.62,7.89-2.76a7.22,7.22,0,0,1,3.12,1.53,3.287,3.287,0,0,1,.33.41.15.15,0,0,1,.05-.06c.42-.35.76-1.07,1.19-1.42,1.21-1,4.67-1.82,5.85.61,3.72-.29,7.45-1.59,11.18-1.67s7.43-1.14,11.17-.88a9.64,9.64,0,0,1,7.64,4.1c.93,1.25,2,2.86,2.92,4.34.43-.64,1-1.33,1.15-1.64,2.15-4.74,2.2-13,3.38-18.86a25.6,25.6,0,0,1,2.21-5.9c2.38-5.72,1.46-7.58-.61-12-1.24-2.65-2.33-5.58-.87-8.94.7-1.62,2-1.66,2.68-3.1a37,37,0,0,0,1-8.84,4.78,4.78,0,0,1-.09-.92c-.43-3.92-1.57-6.84-1.82-10.93s-.24-8.16-.87-12.26c-.58-3.81-2.36-8.48-2.31-12.66A12.38,12.38,0,0,1,331,113a6.4,6.4,0,0,1-.05-4.48,18.378,18.378,0,0,1,1.2-2.23c1.1-1.89,1.29-1.31,1.44-3.51.46-6.87-2-6.23-2.91-10.94a8.59,8.59,0,0,1,.61-5.38c1.61-3.61,4-2.85,3.9-9.42,0-2.73-.37-5.25-.49-7.89a3.73,3.73,0,0,1-1.08-2.62,8,8,0,0,1,.19-2.13c-.17.47-.15,0-.08-.49s.21-1.19.13,0a1.636,1.636,0,0,1-.05.5.263.263,0,0,1,.06-.19A27.858,27.858,0,0,1,334.91,61c-.43-3.78-2.63-7.79-2.89-12.23-.07-1.19.54-5.36.27-6.24-.42-1.32-2.34-.55-3.08-2.08a5.005,5.005,0,0,1-.21-.48c-2.19-2.9-5.26-9.72-7.47-8.37-1.22.76-2.2,2.5-3.53,3a6.58,6.58,0,0,1-4.4.08,5.87,5.87,0,0,1-2-1c-1-.84-.54-1.63-1.1-.94-.72.88-1.06,4.27-1.94,5.52-1.74,2.48-3.67,1.41-5.53.22-2.49-1.58-4.84-.76-7.32-2.29-1.87-1.15-2.11-.5-3.92,0a2.52,2.52,0,0,1-2.65-.9c-1.1-1.18-2.49-6.77-3.83-6.09-.5.25-1.84,5.51-2.63,6.48a3.81,3.81,0,0,1-5.16.85c-1-.07-1.83-.8-2.6-2.6a3.171,3.171,0,0,1-.23-1.09,8.49,8.49,0,0,0-2.61-.19,7,7,0,0,1-1.8-.09c-1.42-.39-2.52-.85-4-.35-1.22.41-2.15,1.12-3.39.72-1.52-.48-2.72-2.53-4.24-3.17-2.68-1.14-4.9,1-7.3,3l-.23.18c-.05.06-.12.11-.19.18-.36.33-.68.87-1,1.21a3.09,3.09,0,0,1-2.22.87,24.05,24.05,0,0,1-7.95-1c-1.15-.36-2.14-1.14-3.27-.5s-1.68,2.25-2.95,2.38c-1,.1-1.63-.5-2.53-1.46-1.57-1.67-2.36-2.2-4.13-2.16a5.92,5.92,0,0,1-3.45-1.12c-1.21-.8-2-2-3.47-1.18-.38.22-.66,1.1-1.06,1.31-2,1.05-2.64.95-4.42-1-2.31-2.57-4.43-2.06-6.74-4.4-.65-.66-.93-1.06-1.18-1.06s-.54.65-1.39,2.27" transform="translate(-0.11 -0.59)"/>
    </clipPath>
    <linearGradient id="linear-gradient-3" x1="0.5" y1="0" x2="0.5" y2="1" xlink:href="#linear-gradient"/>
  </defs>
  <g id="Layer_2" data-name="Layer 2" transform="translate(-10.65 -24.42)">
    <g id="Layer_1" data-name="Layer 1">
      <path id="Path_9" data-name="Path 9" class="cls-1" d="M191.66,214.34h0m13.5-187c-.58,1.1-1,2.37-1.56,3.51-1.22,2.62-2.47,3.92-4.27,3.57-5.28-1-10.16,3.28-15.48,4-3.6.51-7.94,1.4-11.52.38-1.87-.53-2-1.4-3.07-4.41-1.67-4.86-4.62-3.37-7.58-1.88-1.75.89-3.51,1.77-5,1.33-3.08-.92-5.48-4.39-8.45-1.19-2.07,2.24-3.37,1.81-5.53,1.42-1.31-.24-1-1.47-2.31.54-.28.41-.39,1.47-.67,1.93a5.8,5.8,0,0,1-1.81,2.13c-2.15,1.3-4.79-.56-6.94-1.44s-5.14-.3-7-2.38a14,14,0,0,1-1.46-3c-1.18-2.43-1.31-3.06-2.31-.89.45-1-.47,1.93-.77,2.52a4.45,4.45,0,0,1-2.2,2.18c-2.14.9-2.9-2.09-4.84-2.74a11.86,11.86,0,0,0-4.38-.3,17.14,17.14,0,0,1-3.21,0c-2.36-.34-4.51-4.13-6.9-3.16-2.55,1-4.63,4.95-7.31,5.52a6.93,6.93,0,0,1-3.91-.72,6.76,6.76,0,0,0-4-.69c-1.22.29-2.16,1.2-3.38.58-1-.48-1.69-2.09-2.5-2.39a1.77,1.77,0,0,0-1.18.22,2.09,2.09,0,0,1-1.17.25c-1.08-.25-2-1.78-3.06-2.09a4.06,4.06,0,0,0-2.23.07,2.9,2.9,0,0,1-3.12-.62c-1.38-1.22-4.18-3.89-5.82-4.07-1.81-.19-2.78,6.38-4.85,7.61a3.6,3.6,0,0,1-2.12.33,8.05,8.05,0,0,0-5.62,2.2,15.12,15.12,0,0,1-13.36,2.86c-2.74-.66-2-2.92-3.7-6.39-1.54-3.08-4-.65-5.94,1l-.06.06-.18.17h0l-.57.47a1.2,1.2,0,0,1-1.13.25c-1.46.18-2.5-.75-3.76-1.6a4.61,4.61,0,0,1-1.7,1.49A17.22,17.22,0,0,1,16,39.53a67.86,67.86,0,0,0-3,8.86c-.83,3.28-.18,5-.63,8.14a15.5,15.5,0,0,1-1.35,3.89,6.47,6.47,0,0,1,.09,1.08,8.17,8.17,0,0,1-.35,2.64c.51,4.4,1.74,6.79,3.57,10.14,2,3.68.47,5,.57,10.15.07,3.52,1,6.88,1.15,10.41.16,3,0,5.67.41,8.57a137.253,137.253,0,0,1,1,15.51,6.07,6.07,0,0,1,.18,6.4c.09,4,.37,9.6-.18,12.9s-2,3.17-3.15,5.15c-2.74,4.71.18,12.46.69,18.36.7,8.14-1.23,14.43-1.58,22.28-.19,4.32,1.67,7.62,2.4,11.38.89,4.65.6,9.92,3.31,12.11a3.37,3.37,0,0,0,2.34.53c1.06,0,2.12-.05,2.91,1.14,1.31,2,.34,4.45,1.13,6.72,1.28,3.72,5.79-1.95,7.56-2.79a16.57,16.57,0,0,0,6.11-4.29c1-1.12,2.16-2,3.36-1.47,1.65.76,2.36,3.91,3.18,6.77.65-.17,1.3-.19,1.86-.33,1.89-.49,3.78-4.05,5.76-2.35,1.41,1.22,1.46,4.81,3,5.77.62.4,1.5.12,2.34-.15a4.849,4.849,0,0,1,1.52-.34,8.78,8.78,0,0,0,3.55-.55c1-.37,1.88-1,2.95-.33s1.64,1.72,2.68,1.86a11.149,11.149,0,0,0,2.16,0,14.1,14.1,0,0,1,1.71-.06c1.5.08,2.44-.93,3.83-1.33a3.52,3.52,0,0,1,1.86.06,2.62,2.62,0,0,0,2.76-.56c2-1.82,3-5.32,5.43-4.3a2.67,2.67,0,0,1,1.42,1,3.2,3.2,0,0,1,.26.48c1.44-1.15,3.11-1.25,4.08.9.83.81,1.27,2.24,2.39,3.36,2,1.92,5,.67,7.05.11a18.58,18.58,0,0,0,8-4.49c2.2-2,4.42-4.62,6.82-5.5a4.14,4.14,0,0,1,3.23.21c.83,0,1.06.44.7,1.23.48-.41,1-.8,1.45-1.17a7.3,7.3,0,0,1,4.32-.06,11.09,11.09,0,0,0,2.94.28c4.85-.44,10.16-3.27,15-2a8.21,8.21,0,0,1,5.57,4c1,1.73,1.27,3.91,2.51,5,.07-.19.14-.43.25-.73,2.29-6.63,6.34-8.53,8.7-1.92,1,2.8.72,5.49,2.85,5.29.89-.08,2-1.31,2.84-1.9,2.89-2,5.84-2.12,8.71-3.87,3.71-2.26,6.31-7.74,9.2-3.6a2.06,2.06,0,0,1,1.94-.11c1.22.57,1.72,2,2.11,3.16.24.7.85,3.59.4,1.32,0,0,.32.66.41.89a3.527,3.527,0,0,1,.15.46c.48.29.94.52,1.22.42-.59.22,1.5-3.4,1.53-3.44,1.15-1.84,2.28-3.36,3.86-2.84,2,.67,1.81,2.77,2.78,5.84,1.23,3.94,2.94,3.41,4.78,3,1.56-2.71,3.36-2.7,5.32-1.31-.69-.48-.11-.22.45.43,1.24-1.11,2.18-2.88,4-2,.81.38,1.57,1.31,1.52,3.25,0,.49,4.22.12,8.24-.25a51.753,51.753,0,0,1,7-.44c1.84.53,1.67.29,3.11-1.44a20.7,20.7,0,0,1,4.1-3.72c2.26-1.57,3.45-.5,5.12,1.82a2.22,2.22,0,0,1,1.9.08c1.16-1.37,2.27-2.36,3.84-.86s2.39,4,4.17,4.83c2.38,1.11,4.54.32,6.9-.26,2.21-.53,3.91-.21,6.13-1.31,2.84-1.4,5.34-3.76,8.06-5.68,2.39-1.69,5.35-3.62,7.89-2.76a7.22,7.22,0,0,1,3.12,1.53,3.287,3.287,0,0,1,.33.41.15.15,0,0,1,.05-.06c.42-.35.76-1.07,1.19-1.42,1.21-1,4.67-1.82,5.85.61,3.72-.29,7.45-1.59,11.18-1.67s7.43-1.14,11.17-.88a9.64,9.64,0,0,1,7.64,4.1c.93,1.25,2,2.86,2.92,4.34.43-.64,1-1.33,1.15-1.64,2.15-4.74,2.2-13,3.38-18.86a25.6,25.6,0,0,1,2.21-5.9c2.38-5.72,1.46-7.58-.61-12-1.24-2.65-2.33-5.58-.87-8.94.7-1.62,2-1.66,2.68-3.1a37,37,0,0,0,1-8.84,4.78,4.78,0,0,1-.09-.92c-.43-3.92-1.57-6.84-1.82-10.93s-.24-8.16-.87-12.26c-.58-3.81-2.36-8.48-2.31-12.66A12.38,12.38,0,0,1,331,113a6.4,6.4,0,0,1-.05-4.48,18.378,18.378,0,0,1,1.2-2.23c1.1-1.89,1.29-1.31,1.44-3.51.46-6.87-2-6.23-2.91-10.94a8.59,8.59,0,0,1,.61-5.38c1.61-3.61,4-2.85,3.9-9.42,0-2.73-.37-5.25-.49-7.89a3.73,3.73,0,0,1-1.08-2.62,8,8,0,0,1,.19-2.13c-.17.47-.15,0-.08-.49s.21-1.19.13,0a1.636,1.636,0,0,1-.05.5.263.263,0,0,1,.06-.19A27.858,27.858,0,0,1,334.91,61c-.43-3.78-2.63-7.79-2.89-12.23-.07-1.19.54-5.36.27-6.24-.42-1.32-2.34-.55-3.08-2.08a5.005,5.005,0,0,1-.21-.48c-2.19-2.9-5.26-9.72-7.47-8.37-1.22.76-2.2,2.5-3.53,3a6.58,6.58,0,0,1-4.4.08,5.87,5.87,0,0,1-2-1c-1-.84-.54-1.63-1.1-.94-.72.88-1.06,4.27-1.94,5.52-1.74,2.48-3.67,1.41-5.53.22-2.49-1.58-4.84-.76-7.32-2.29-1.87-1.15-2.11-.5-3.92,0a2.52,2.52,0,0,1-2.65-.9c-1.1-1.18-2.49-6.77-3.83-6.09-.5.25-1.84,5.51-2.63,6.48a3.81,3.81,0,0,1-5.16.85c-1-.07-1.83-.8-2.6-2.6a3.171,3.171,0,0,1-.23-1.09,8.49,8.49,0,0,0-2.61-.19,7,7,0,0,1-1.8-.09c-1.42-.39-2.52-.85-4-.35-1.22.41-2.15,1.12-3.39.72-1.52-.48-2.72-2.53-4.24-3.17-2.68-1.14-4.9,1-7.3,3l-.23.18c-.05.06-.12.11-.19.18-.36.33-.68.87-1,1.21a3.09,3.09,0,0,1-2.22.87,24.05,24.05,0,0,1-7.95-1c-1.15-.36-2.14-1.14-3.27-.5s-1.68,2.25-2.95,2.38c-1,.1-1.63-.5-2.53-1.46-1.57-1.67-2.36-2.2-4.13-2.16a5.92,5.92,0,0,1-3.45-1.12c-1.21-.8-2-2-3.47-1.18-.38.22-.66,1.1-1.06,1.31-2,1.05-2.64.95-4.42-1-2.31-2.57-4.43-2.06-6.74-4.4-.65-.66-.93-1.06-1.18-1.06s-.54.65-1.39,2.27" transform="translate(-0.11 -0.59)"/>
      <g id="Group_4" data-name="Group 4" class="cls-2">
        <rect id="Rectangle_3" data-name="Rectangle 3" class="cls-3" width="324.43" height="194.59" transform="translate(10.69 24.43)"/>
      </g>
      <path id="Path_14" data-name="Path 14" class="cls-4" d="M119.6,171.94V164h4v-4h-4v-7.91h7.91v-4H119.6v-7.91h4v-3.95h-4v-7.91h7.91v-4H119.6v-7.91h4v-4h-4V104.5h7.91v-4H119.6V92.82h4v-4h-4V81h7.91V77H119.6V69.08h-4V173.92a2,2,0,0,0,2,2H234.33v-4Z" transform="translate(-0.11 -0.59)"/>
      <path id="Path_15" data-name="Path 15" class="cls-4" d="M137,166.72a7.94,7.94,0,0,0,12.23-6.65,7.81,7.81,0,0,0-1-3.72l15.84-11.88a7.85,7.85,0,0,0,11-1.23,6.93,6.93,0,0,0,.65-1l13,3.74v.2a7.92,7.92,0,0,0,15.83,0h0a7.9,7.9,0,0,0-1.61-4.7l17.61-22a7.94,7.94,0,1,0-2.9-2.72L200,139.05a7,7,0,0,0-1-.38,7.9,7.9,0,0,0-9,3.56l-13-3.72v-.2a7.9,7.9,0,1,0-15.19,2.98l-16.16,12.13a7.911,7.911,0,0,0-8.57,13.3Zm87.4-58.08a4,4,0,1,1-4,4,4,4,0,0,1,4-4M193,145.16a3.91,3.91,0,1,1-.16,1.05,3.43,3.43,0,0,1,.16-1.05m-27.69-8h0A4,4,0,0,1,173,138.3h0a3.49,3.49,0,0,1-.16,1.06,4,4,0,0,1-7.6-2.22Zm-23.9,19a4,4,0,1,1-4,3.95,4,4,0,0,1,4-3.95" transform="translate(-0.11 -0.59)"/>
      <path id="Path_16" data-name="Path 16" class="cls-4" d="M141.36,138.31a7.88,7.88,0,0,0,5.87-13.17l19.4-30.76a7.59,7.59,0,0,0,7.2-1.23l15.68,12.33a7.89,7.89,0,0,0,7.23,11.09h0a7.9,7.9,0,0,0,7.9-7.9,7.661,7.661,0,0,0-.3-2.13l14.26-8.35a7.88,7.88,0,0,0,5.82,2.56h0a7.92,7.92,0,1,0-7.94-7.91,7.62,7.62,0,0,0,.23,1.85l-14.38,8.42a7.92,7.92,0,0,0-5.64-2.36h0a7.76,7.76,0,0,0-4.74,1.64L176.29,90.05a7.91,7.91,0,1,0-13,2.22L143.93,123a7.73,7.73,0,0,0-2.57-.46,7.91,7.91,0,1,0,0,15.82Zm83.08-49.45a4,4,0,1,1,0,7.93h0a3.94,3.94,0,0,1-3.43-2,4.2,4.2,0,0,1-.53-2,4,4,0,0,1,4-4M196.75,104.7a4,4,0,1,1-4,4,4,4,0,0,1,4-4Zm-27.7-21.77a4,4,0,1,1-4,3.95,4,4,0,0,1,4-3.95m-27.69,43.52a4,4,0,1,1-4,4,4,4,0,0,1,4-4" transform="translate(-0.11 -0.59)"/>
    </g>
  </g>
</svg>
