<svg width="119" height="107" viewBox="0 0 119 107" fill="none" xmlns="http://www.w3.org/2000/svg">
<path d="M4 102.86V94.92H8V90.92H4V83.01H11.91V79.01H4V71.1H8V67.15H4V59.24H11.91V55.24H4V47.33H8V43.33H4V35.42H11.91V31.42H4V23.74H8V19.74H4V11.92H11.91V7.92H4V0H0V104.84C0 105.37 0.210712 105.879 0.585785 106.254C0.960858 106.629 1.46957 106.84 2 106.84H118.73V102.84L4 102.86Z" fill="white"/>
<path d="M21.4 97.64C22.5973 98.4088 23.9792 98.8417 25.4012 98.8935C26.8232 98.9453 28.2329 98.6139 29.4829 97.9342C30.733 97.2545 31.7774 96.2514 32.507 95.0298C33.2365 93.8081 33.6244 92.4129 33.63 90.99C33.6125 89.686 33.2687 88.4071 32.63 87.27L48.47 75.39C50.0942 76.6796 52.1626 77.2741 54.2237 77.0436C56.2847 76.8131 58.1708 75.7765 59.47 74.16C59.715 73.846 59.9325 73.5114 60.12 73.16L73.12 76.9C73.12 76.96 73.12 77.03 73.12 77.1C73.1929 79.1505 74.0587 81.0927 75.5351 82.5175C77.0115 83.9423 78.9832 84.7386 81.035 84.7386C83.0868 84.7386 85.0585 83.9423 86.5349 82.5175C88.0113 81.0927 88.8771 79.1505 88.95 77.1C88.9327 75.4009 88.3681 73.7527 87.34 72.4L104.95 50.4C106.645 51.3269 108.621 51.6037 110.506 51.1786C112.391 50.7535 114.056 49.6556 115.189 48.0907C116.323 46.5258 116.847 44.6013 116.663 42.6778C116.479 40.7542 115.6 38.9638 114.191 37.6419C112.781 36.32 110.938 35.5574 109.007 35.497C107.076 35.4367 105.188 36.0827 103.699 37.3139C102.21 38.5452 101.221 40.2773 100.917 42.1856C100.614 44.0938 101.016 46.0473 102.05 47.68L84.4 69.97C84.0768 69.818 83.7425 69.691 83.4 69.59C81.7175 69.1014 79.9202 69.1859 78.291 69.8304C76.6618 70.4748 75.293 71.6426 74.4 73.15L61.4 69.43C61.4 69.36 61.4 69.3 61.4 69.23C61.405 67.5137 60.853 65.8422 59.827 64.4664C58.801 63.0906 57.3563 62.0848 55.71 61.6C54.2792 61.1724 52.7562 61.1608 51.319 61.5664C49.8818 61.972 48.5897 62.7782 47.5936 63.8908C46.5974 65.0033 45.9384 66.3763 45.6934 67.8494C45.4484 69.3225 45.6276 70.8349 46.21 72.21L30.05 84.34C29.1767 83.7773 28.2011 83.3921 27.179 83.2064C26.1568 83.0207 25.1081 83.0382 24.0927 83.2578C23.0773 83.4774 22.1151 83.8948 21.261 84.4863C20.4069 85.0778 19.6777 85.8317 19.115 86.705C18.5523 87.5783 18.1671 88.5539 17.9814 89.576C17.7957 90.5982 17.8132 91.6469 18.0328 92.6623C18.2524 93.6777 18.6698 94.6399 19.2613 95.494C19.8528 96.3481 20.6067 97.0773 21.48 97.64H21.4ZM108.8 39.56C109.591 39.56 110.364 39.7946 111.022 40.2341C111.68 40.6736 112.193 41.2984 112.496 42.0293C112.798 42.7602 112.877 43.5644 112.723 44.3404C112.569 45.1163 112.188 45.829 111.628 46.3884C111.069 46.9478 110.356 47.3288 109.58 47.4831C108.804 47.6375 108 47.5583 107.269 47.2555C106.538 46.9528 105.914 46.4401 105.474 45.7823C105.035 45.1245 104.8 44.3511 104.8 43.56C104.8 42.4991 105.221 41.4817 105.972 40.7316C106.722 39.9814 107.739 39.56 108.8 39.56ZM77.4 76.08C77.6809 75.1297 78.3122 74.3216 79.1662 73.8189C80.0202 73.3163 81.0331 73.1566 82.0003 73.3722C82.9675 73.5878 83.8167 74.1626 84.3764 74.9804C84.936 75.7982 85.1642 76.7979 85.0149 77.7775C84.8657 78.7572 84.35 79.6436 83.5722 80.2575C82.7944 80.8715 81.8125 81.1673 80.825 81.085C79.8375 81.0028 78.9181 80.5487 78.2526 79.8145C77.5871 79.0803 77.2252 78.1208 77.24 77.13C77.2385 76.7738 77.2925 76.4196 77.4 76.08ZM49.71 68.08C50.0471 67.2491 50.6536 66.5555 51.4322 66.1107C52.2107 65.6658 53.1162 65.4955 54.0031 65.627C54.8901 65.7585 55.7072 66.1842 56.3232 66.8358C56.9392 67.4874 57.3185 68.327 57.4 69.22C57.4016 69.5795 57.3476 69.937 57.24 70.28C56.841 71.155 56.1401 71.8569 55.2658 72.2572C54.3914 72.6576 53.4021 72.7295 52.479 72.4599C51.5559 72.1902 50.7609 71.5971 50.2395 70.789C49.7181 69.981 49.5053 69.0122 49.64 68.06L49.71 68.08ZM25.81 87.08C26.6032 87.0801 27.3785 87.316 28.0374 87.7577C28.6962 88.1995 29.2088 88.8272 29.5101 89.561C29.8113 90.2948 29.8875 91.1017 29.7291 91.8789C29.5706 92.6562 29.1847 93.3688 28.6203 93.9262C28.0558 94.4835 27.3384 94.8605 26.5592 95.0091C25.7801 95.1578 24.9743 95.0714 24.2443 94.761C23.5143 94.4505 22.8931 93.9301 22.4597 93.2657C22.0262 92.6014 21.8001 91.8232 21.81 91.03C21.8231 89.9778 22.2504 88.9732 22.9991 88.2338C23.7478 87.4945 24.7577 87.0799 25.81 87.08Z" fill="white"/>
<path d="M25.7601 69.2301C27.288 69.2358 28.7846 68.7972 30.0677 67.9678C31.3509 67.1383 32.3652 65.9536 32.9872 64.5581C33.6092 63.1625 33.8121 61.6162 33.5712 60.1075C33.3302 58.5987 32.6558 57.1925 31.6301 56.0601L51.0301 25.3001C52.2368 25.7172 53.5293 25.8231 54.7878 25.6081C56.0463 25.3931 57.2303 24.8641 58.2301 24.0701L73.9101 36.4001C73.3765 37.6027 73.1521 38.9196 73.2573 40.2311C73.3625 41.5426 73.794 42.8069 74.5126 43.909C75.2311 45.0112 76.2139 45.9162 77.3714 46.5416C78.5289 47.167 79.8244 47.4931 81.1401 47.4901C83.2353 47.4901 85.2447 46.6577 86.7262 45.1762C88.2078 43.6947 89.0401 41.6853 89.0401 39.5901C89.0408 38.8695 88.9398 38.1524 88.7401 37.4601L103 29.1101C103.739 29.9176 104.638 30.5623 105.64 31.0031C106.642 31.4439 107.725 31.671 108.82 31.6701C110.386 31.6661 111.916 31.198 113.216 30.3249C114.516 29.4518 115.528 28.2129 116.124 26.7648C116.72 25.3166 116.873 23.7243 116.565 22.189C116.256 20.6538 115.499 19.2444 114.39 18.1392C113.28 17.034 111.868 16.2824 110.332 15.9796C108.795 15.6768 107.204 15.8362 105.758 16.4377C104.312 17.0393 103.077 18.056 102.209 19.3593C101.34 20.6626 100.878 22.1941 100.88 23.7601C100.881 24.3838 100.958 25.0051 101.11 25.6101L86.7301 34.0301C85.9933 33.2826 85.1152 32.689 84.147 32.2839C83.1788 31.8788 82.1397 31.6701 81.0901 31.6701C79.3721 31.677 77.705 32.2538 76.3501 33.3101L60.6901 20.9701C61.2679 19.6622 61.4804 18.2222 61.3049 16.8033C61.1295 15.3843 60.5728 14.0394 59.694 12.9116C58.8151 11.7838 57.647 10.9153 56.3139 10.3985C54.9808 9.88167 53.5326 9.73585 52.1232 9.97652C50.7138 10.2172 49.396 10.8354 48.31 11.7653C47.2239 12.6953 46.4103 13.9022 45.9555 15.2577C45.5007 16.6132 45.4219 18.0667 45.7273 19.4634C46.0327 20.8602 46.711 22.1481 47.6901 23.1901L28.3301 53.9201C27.5057 53.6221 26.6367 53.4666 25.7601 53.4601C24.7213 53.4601 23.6928 53.6647 22.7331 54.0622C21.7734 54.4597 20.9014 55.0423 20.1669 55.7768C19.4324 56.5114 18.8497 57.3833 18.4522 58.343C18.0547 59.3027 17.8501 60.3313 17.8501 61.3701C17.8501 62.4088 18.0547 63.4374 18.4522 64.3971C18.8497 65.3568 19.4324 66.2288 20.1669 66.9633C20.9014 67.6978 21.7734 68.2804 22.7331 68.6779C23.6928 69.0755 24.7213 69.2801 25.7601 69.2801V69.2301ZM108.84 19.7801C109.405 19.7048 109.979 19.7512 110.525 19.916C111.07 20.0808 111.574 20.3603 112.003 20.7357C112.432 21.1112 112.776 21.5739 113.011 22.0929C113.246 22.6119 113.368 23.1752 113.368 23.7451C113.368 24.3149 113.246 24.8782 113.011 25.3972C112.776 25.9162 112.432 26.3789 112.003 26.7544C111.574 27.1298 111.07 27.4093 110.525 27.5741C109.979 27.7389 109.405 27.7853 108.84 27.7101C108.143 27.7102 107.457 27.5251 106.855 27.1737C106.252 26.8223 105.754 26.3172 105.41 25.7101C105.069 25.098 104.887 24.4105 104.88 23.7101C104.88 22.6492 105.302 21.6318 106.052 20.8816C106.802 20.1315 107.819 19.7101 108.88 19.7101L108.84 19.7801ZM81.1501 35.6201C81.9412 35.6201 82.7146 35.8547 83.3724 36.2942C84.0302 36.7337 84.5429 37.3584 84.8456 38.0893C85.1484 38.8202 85.2276 39.6245 85.0732 40.4004C84.9189 41.1763 84.5379 41.8891 83.9785 42.4485C83.4191 43.0079 82.7064 43.3889 81.9305 43.5432C81.1545 43.6975 80.3503 43.6183 79.6194 43.3156C78.8885 43.0128 78.2637 42.5001 77.8242 41.8423C77.3847 41.1845 77.1501 40.4112 77.1501 39.6201C77.1501 38.5592 77.5715 37.5418 78.3217 36.7916C79.0718 36.0415 80.0892 35.6201 81.1501 35.6201ZM53.4501 13.8501C54.2433 13.8501 55.0187 14.086 55.6775 14.5278C56.3363 14.9696 56.8489 15.5973 57.1502 16.3311C57.4514 17.0649 57.5276 17.8717 57.3692 18.649C57.2108 19.4263 56.8248 20.1389 56.2604 20.6962C55.696 21.2536 54.9785 21.6305 54.1994 21.7792C53.4202 21.9278 52.6144 21.8415 51.8844 21.531C51.1544 21.2206 50.5332 20.7001 50.0998 20.0358C49.6663 19.3715 49.4402 18.5932 49.4501 17.8001C49.4633 16.7479 49.8905 15.7433 50.6392 15.0039C51.3879 14.2645 52.3978 13.85 53.4501 13.8501ZM25.7601 57.3701C26.5512 57.3701 27.3246 57.6047 27.9824 58.0442C28.6402 58.4837 29.1529 59.1084 29.4556 59.8393C29.7584 60.5702 29.8376 61.3745 29.6832 62.1504C29.5289 62.9263 29.1479 63.6391 28.5885 64.1985C28.0291 64.7579 27.3164 65.1389 26.5405 65.2932C25.7645 65.4475 24.9603 65.3683 24.2294 65.0656C23.4985 64.7628 22.8737 64.2501 22.4342 63.5923C21.9947 62.9346 21.7601 62.1612 21.7601 61.3701C21.7601 60.3092 22.1815 59.2918 22.9317 58.5416C23.6818 57.7915 24.6992 57.3701 25.7601 57.3701Z" fill="white"/>
</svg>
