<svg xmlns="http://www.w3.org/2000/svg" xmlns:xlink="http://www.w3.org/1999/xlink" width="324.393" height="193.304" viewBox="0 0 324.393 193.304">
  <defs>
    <style>
      .cls-1 {
        fill: url(#linear-gradient);
      }

      .cls-2 {
        clip-path: url(#clip-path);
      }

      .cls-3 {
        fill: url(#linear-gradient-3);
      }

      .cls-4 {
        fill: #fff;
      }
    </style>
    <linearGradient id="linear-gradient" x1="0.5" x2="0.5" y2="1" gradientUnits="objectBoundingBox">
      <stop offset="0.01" stop-color="#e8b72e"/>
      <stop offset="1" stop-color="#e8b72e" stop-opacity="0.102"/>
    </linearGradient>
    <clipPath id="clip-path">
      <path id="Path_2" data-name="Path 2" class="cls-1" d="M191.71,213.42h0m13.49-187c-.58,1.1-1,2.38-1.55,3.51-1.22,2.62-2.47,3.92-4.28,3.57-5.28-1-10.16,3.28-15.47,4-3.6.5-7.94,1.39-11.52.37-1.87-.53-2-1.4-3.07-4.41-1.67-4.86-4.62-3.36-7.57-1.87-1.76.88-3.51,1.77-5,1.32-3.07-.91-5.48-4.39-8.45-1.18-2.07,2.23-3.36,1.8-5.53,1.41-1.31-.24-1-1.47-2.31.54-.27.41-.39,1.47-.67,1.93A5.71,5.71,0,0,1,138,37.75c-2.15,1.3-4.78-.56-6.94-1.44s-5.13-.3-7-2.38a14,14,0,0,1-1.45-3c-1.19-2.43-1.31-3.06-2.31-.89.45-1-.47,1.94-.77,2.53a4.47,4.47,0,0,1-2.2,2.17c-2.14.9-2.9-2.09-4.84-2.74a11.85,11.85,0,0,0-4.38-.3,16.34,16.34,0,0,1-3.21,0c-2.36-.34-4.51-4.13-6.9-3.16-2.55,1-4.63,4.95-7.31,5.52a7,7,0,0,1-3.91-.72,6.72,6.72,0,0,0-3.94-.69c-1.23.29-2.17,1.2-3.39.58-1-.48-1.69-2.08-2.5-2.39a1.75,1.75,0,0,0-1.18.23,2.15,2.15,0,0,1-1.17.24c-1.07-.25-2-1.78-3.06-2.09a4,4,0,0,0-2.22.07,2.91,2.91,0,0,1-3.12-.61c-1.39-1.23-4.18-3.9-5.82-4.08-1.82-.19-2.78,6.39-4.85,7.61a3.63,3.63,0,0,1-2.13.33,8,8,0,0,0-5.61,2.2A15.12,15.12,0,0,1,34.43,37.6c-2.74-.66-2-2.92-3.7-6.39-1.54-3.08-4-.65-5.94,1l-.06.06-.17.16h0l-.57.47a1.22,1.22,0,0,1-1.13.26c-1.45.18-2.5-.76-3.76-1.61A4.45,4.45,0,0,1,17.39,33a16.84,16.84,0,0,1-1.28,5.63,68.21,68.21,0,0,0-3,8.85c-.83,3.27-.17,5-.63,8.13a15.06,15.06,0,0,1-1.35,3.9,6.35,6.35,0,0,1,.09,1.07,8.09,8.09,0,0,1-.35,2.64c.52,4.41,1.74,6.8,3.57,10.15,2,3.67.48,5,.58,10.15.06,3.52,1,6.88,1.14,10.4.16,3,0,5.67.41,8.57a135,135,0,0,1,1,15.51,6.07,6.07,0,0,1,.18,6.4c.09,4,.37,9.59-.18,12.89s-2,3.17-3.15,5.15c-2.73,4.72.19,12.46.69,18.36.7,8.14-1.23,14.43-1.58,22.28-.19,4.32,1.68,7.62,2.4,11.38.89,4.65.6,9.92,3.31,12.11a3.32,3.32,0,0,0,2.34.52c1.06,0,2.12,0,2.91,1.15,1.31,2,.34,4.44,1.13,6.72,1.28,3.71,5.79-1.95,7.56-2.79a16.49,16.49,0,0,0,6.11-4.3c1-1.11,2.16-2,3.36-1.47,1.65.77,2.36,3.91,3.18,6.78.65-.17,1.3-.19,1.86-.34,1.89-.48,3.78-4.05,5.76-2.34,1.41,1.21,1.45,4.8,3,5.77.61.39,1.5.12,2.34-.15a5.14,5.14,0,0,1,1.51-.35,8.59,8.59,0,0,0,3.55-.55c1-.36,1.89-1,3-.33s1.63,1.73,2.67,1.87a11.171,11.171,0,0,0,2.16,0,14.242,14.242,0,0,1,1.72,0c1.49.07,2.43-.93,3.82-1.34a3.57,3.57,0,0,1,1.87.06,2.56,2.56,0,0,0,2.75-.56c2-1.82,3-5.32,5.43-4.29a2.77,2.77,0,0,1,1.43,1c.09.16.18.32.26.49,1.44-1.15,3.1-1.26,4.07.9.83.81,1.27,2.24,2.39,3.35,2,1.93,5,.67,7.05.11a18.66,18.66,0,0,0,8-4.48c2.2-2,4.42-4.63,6.81-5.5a4.08,4.08,0,0,1,3.24.21c.82,0,1.06.44.7,1.22.48-.41,1-.8,1.44-1.16a7.25,7.25,0,0,1,4.33-.06,11.53,11.53,0,0,0,2.94.28c4.84-.45,10.16-3.27,15-2a8.19,8.19,0,0,1,5.57,4c1,1.73,1.26,3.91,2.5,5,.07-.19.15-.42.25-.72,2.29-6.63,6.34-8.54,8.71-1.93,1,2.81.71,5.49,2.84,5.3.89-.08,2-1.31,2.84-1.91,2.89-2,5.84-2.11,8.7-3.86,3.72-2.27,6.32-7.74,9.21-3.6a2.05,2.05,0,0,1,1.94-.11c1.22.57,1.72,2,2.11,3.15.24.7.85,3.59.4,1.33,0,0,.31.66.41.89a3.391,3.391,0,0,1,.15.45c.48.3.94.53,1.22.42-.6.22,1.5-3.4,1.52-3.43,1.16-1.84,2.29-3.37,3.87-2.84,2,.67,1.81,2.76,2.77,5.84,1.24,3.93,2.95,3.41,4.79,3,1.56-2.71,3.36-2.69,5.31-1.3-.68-.49-.11-.23.45.43,1.24-1.11,2.19-2.88,4-2,.8.38,1.56,1.3,1.52,3.25,0,.49,4.21.12,8.23-.25a50.138,50.138,0,0,1,7-.44c1.83.52,1.67.29,3.1-1.44a21,21,0,0,1,4.1-3.72c2.26-1.57,3.45-.5,5.12,1.82a2.22,2.22,0,0,1,1.9.08c1.16-1.37,2.27-2.37,3.84-.87s2.38,4,4.17,4.83c2.38,1.11,4.53.32,6.9-.25,2.21-.53,3.91-.22,6.13-1.31,2.84-1.4,5.33-3.76,8.06-5.69,2.39-1.69,5.34-3.62,7.88-2.75a7.35,7.35,0,0,1,3.13,1.52c.11.13.22.27.32.41l.06-.06c.42-.34.75-1.07,1.18-1.41,1.22-1,4.67-1.82,5.85.6,3.73-.29,7.45-1.58,11.18-1.66s7.43-1.14,11.17-.89a9.65,9.65,0,0,1,7.64,4.11c.92,1.25,2,2.85,2.91,4.33.44-.64,1-1.32,1.15-1.63,2.16-4.74,2.21-13,3.39-18.86a25.869,25.869,0,0,1,2.21-5.91c2.37-5.71,1.46-7.57-.61-11.95-1.24-2.64-2.33-5.58-.88-8.94.71-1.62,2-1.66,2.69-3.1a37,37,0,0,0,1-8.84,5.629,5.629,0,0,1-.1-.92c-.42-3.92-1.56-6.83-1.82-10.93s-.23-8.15-.86-12.26c-.59-3.8-2.36-8.47-2.31-12.65a12.519,12.519,0,0,1,1.28-5.23,6.47,6.47,0,0,1,0-4.48,15.309,15.309,0,0,1,1.2-2.22c1.09-1.9,1.29-1.32,1.44-3.52.46-6.87-2-6.22-2.91-10.94a8.56,8.56,0,0,1,.6-5.37c1.62-3.61,4-2.86,3.91-9.43,0-2.72-.37-5.24-.49-7.89a3.67,3.67,0,0,1-1.08-2.62,7.65,7.65,0,0,1,.18-2.13c-.16.48-.14,0-.08-.49s.21-1.18.14,0a3.8,3.8,0,0,1-.06.5,1.249,1.249,0,0,0,.06-.18,27.911,27.911,0,0,1,1.1-3.23c-.43-3.78-2.63-7.79-2.89-12.23-.07-1.19.54-5.36.26-6.24-.41-1.32-2.33-.55-3.08-2.08-.07-.16-.14-.32-.2-.48-2.19-2.9-5.26-9.72-7.47-8.37-1.22.76-2.21,2.51-3.53,3a6.58,6.58,0,0,1-4.4.08,5.87,5.87,0,0,1-2-1c-1-.84-.54-1.63-1.1-.94-.72.88-1.06,4.28-1.94,5.52-1.74,2.48-3.67,1.4-5.53.22-2.49-1.58-4.83-.76-7.32-2.28-1.87-1.16-2.11-.51-3.91,0a2.54,2.54,0,0,1-2.66-.9c-1.1-1.18-2.49-6.77-3.82-6.09-.51.25-1.84,5.51-2.63,6.48a3.81,3.81,0,0,1-5.16.85c-1-.07-1.83-.79-2.61-2.6a3.658,3.658,0,0,1-.23-1.09,8.42,8.42,0,0,0-2.6-.19,7,7,0,0,1-1.8-.08c-1.42-.4-2.52-.85-4-.36-1.23.41-2.16,1.12-3.4.72-1.51-.48-2.71-2.52-4.23-3.17-2.68-1.13-4.9,1-7.3,3l-.23.18-.19.18c-.36.33-.68.87-1,1.21a3.05,3.05,0,0,1-2.22.87,24.05,24.05,0,0,1-8-1c-1.15-.36-2.14-1.14-3.27-.5s-1.68,2.26-3,2.38c-1,.1-1.63-.5-2.53-1.45-1.57-1.67-2.36-2.21-4.13-2.17a5.85,5.85,0,0,1-3.45-1.12c-1.21-.8-2-2-3.46-1.18-.39.22-.67,1.1-1.07,1.31-2,1.05-2.64.95-4.41-1-2.32-2.58-4.43-2.07-6.75-4.41-.65-.66-.93-1.06-1.17-1.06s-.54.66-1.4,2.27" transform="translate(-0.12 -0.59)"/>
    </clipPath>
    <linearGradient id="linear-gradient-3" x1="0.5" x2="0.5" y2="1" gradientUnits="objectBoundingBox">
      <stop offset="0" stop-color="#e29127"/>
      <stop offset="1" stop-color="#e29127" stop-opacity="0.102"/>
    </linearGradient>
  </defs>
  <g id="Layer_2" data-name="Layer 2" transform="translate(-10.75 -23.51)">
    <g id="Layer_1" data-name="Layer 1">
      <path id="Path_1" data-name="Path 1" class="cls-1" d="M191.71,213.42h0m13.49-187c-.58,1.1-1,2.38-1.55,3.51-1.22,2.62-2.47,3.92-4.28,3.57-5.28-1-10.16,3.28-15.47,4-3.6.5-7.94,1.39-11.52.37-1.87-.53-2-1.4-3.07-4.41-1.67-4.86-4.62-3.36-7.57-1.87-1.76.88-3.51,1.77-5,1.32-3.07-.91-5.48-4.39-8.45-1.18-2.07,2.23-3.36,1.8-5.53,1.41-1.31-.24-1-1.47-2.31.54-.27.41-.39,1.47-.67,1.93A5.71,5.71,0,0,1,138,37.75c-2.15,1.3-4.78-.56-6.94-1.44s-5.13-.3-7-2.38a14,14,0,0,1-1.45-3c-1.19-2.43-1.31-3.06-2.31-.89.45-1-.47,1.94-.77,2.53a4.47,4.47,0,0,1-2.2,2.17c-2.14.9-2.9-2.09-4.84-2.74a11.85,11.85,0,0,0-4.38-.3,16.34,16.34,0,0,1-3.21,0c-2.36-.34-4.51-4.13-6.9-3.16-2.55,1-4.63,4.95-7.31,5.52a7,7,0,0,1-3.91-.72,6.72,6.72,0,0,0-3.94-.69c-1.23.29-2.17,1.2-3.39.58-1-.48-1.69-2.08-2.5-2.39a1.75,1.75,0,0,0-1.18.23,2.15,2.15,0,0,1-1.17.24c-1.07-.25-2-1.78-3.06-2.09a4,4,0,0,0-2.22.07,2.91,2.91,0,0,1-3.12-.61c-1.39-1.23-4.18-3.9-5.82-4.08-1.82-.19-2.78,6.39-4.85,7.61a3.63,3.63,0,0,1-2.13.33,8,8,0,0,0-5.61,2.2A15.12,15.12,0,0,1,34.43,37.6c-2.74-.66-2-2.92-3.7-6.39-1.54-3.08-4-.65-5.94,1l-.06.06-.17.16h0l-.57.47a1.22,1.22,0,0,1-1.13.26c-1.45.18-2.5-.76-3.76-1.61A4.45,4.45,0,0,1,17.39,33a16.84,16.84,0,0,1-1.28,5.63,68.21,68.21,0,0,0-3,8.85c-.83,3.27-.17,5-.63,8.13a15.06,15.06,0,0,1-1.35,3.9,6.35,6.35,0,0,1,.09,1.07,8.09,8.09,0,0,1-.35,2.64c.52,4.41,1.74,6.8,3.57,10.15,2,3.67.48,5,.58,10.15.06,3.52,1,6.88,1.14,10.4.16,3,0,5.67.41,8.57a135,135,0,0,1,1,15.51,6.07,6.07,0,0,1,.18,6.4c.09,4,.37,9.59-.18,12.89s-2,3.17-3.15,5.15c-2.73,4.72.19,12.46.69,18.36.7,8.14-1.23,14.43-1.58,22.28-.19,4.32,1.68,7.62,2.4,11.38.89,4.65.6,9.92,3.31,12.11a3.32,3.32,0,0,0,2.34.52c1.06,0,2.12,0,2.91,1.15,1.31,2,.34,4.44,1.13,6.72,1.28,3.71,5.79-1.95,7.56-2.79a16.49,16.49,0,0,0,6.11-4.3c1-1.11,2.16-2,3.36-1.47,1.65.77,2.36,3.91,3.18,6.78.65-.17,1.3-.19,1.86-.34,1.89-.48,3.78-4.05,5.76-2.34,1.41,1.21,1.45,4.8,3,5.77.61.39,1.5.12,2.34-.15a5.14,5.14,0,0,1,1.51-.35,8.59,8.59,0,0,0,3.55-.55c1-.36,1.89-1,3-.33s1.63,1.73,2.67,1.87a11.171,11.171,0,0,0,2.16,0,14.242,14.242,0,0,1,1.72,0c1.49.07,2.43-.93,3.82-1.34a3.57,3.57,0,0,1,1.87.06,2.56,2.56,0,0,0,2.75-.56c2-1.82,3-5.32,5.43-4.29a2.77,2.77,0,0,1,1.43,1c.09.16.18.32.26.49,1.44-1.15,3.1-1.26,4.07.9.83.81,1.27,2.24,2.39,3.35,2,1.93,5,.67,7.05.11a18.66,18.66,0,0,0,8-4.48c2.2-2,4.42-4.63,6.81-5.5a4.08,4.08,0,0,1,3.24.21c.82,0,1.06.44.7,1.22.48-.41,1-.8,1.44-1.16a7.25,7.25,0,0,1,4.33-.06,11.53,11.53,0,0,0,2.94.28c4.84-.45,10.16-3.27,15-2a8.19,8.19,0,0,1,5.57,4c1,1.73,1.26,3.91,2.5,5,.07-.19.15-.42.25-.72,2.29-6.63,6.34-8.54,8.71-1.93,1,2.81.71,5.49,2.84,5.3.89-.08,2-1.31,2.84-1.91,2.89-2,5.84-2.11,8.7-3.86,3.72-2.27,6.32-7.74,9.21-3.6a2.05,2.05,0,0,1,1.94-.11c1.22.57,1.72,2,2.11,3.15.24.7.85,3.59.4,1.33,0,0,.31.66.41.89a3.391,3.391,0,0,1,.15.45c.48.3.94.53,1.22.42-.6.22,1.5-3.4,1.52-3.43,1.16-1.84,2.29-3.37,3.87-2.84,2,.67,1.81,2.76,2.77,5.84,1.24,3.93,2.95,3.41,4.79,3,1.56-2.71,3.36-2.69,5.31-1.3-.68-.49-.11-.23.45.43,1.24-1.11,2.19-2.88,4-2,.8.38,1.56,1.3,1.52,3.25,0,.49,4.21.12,8.23-.25a50.138,50.138,0,0,1,7-.44c1.83.52,1.67.29,3.1-1.44a21,21,0,0,1,4.1-3.72c2.26-1.57,3.45-.5,5.12,1.82a2.22,2.22,0,0,1,1.9.08c1.16-1.37,2.27-2.37,3.84-.87s2.38,4,4.17,4.83c2.38,1.11,4.53.32,6.9-.25,2.21-.53,3.91-.22,6.13-1.31,2.84-1.4,5.33-3.76,8.06-5.69,2.39-1.69,5.34-3.62,7.88-2.75a7.35,7.35,0,0,1,3.13,1.52c.11.13.22.27.32.41l.06-.06c.42-.34.75-1.07,1.18-1.41,1.22-1,4.67-1.82,5.85.6,3.73-.29,7.45-1.58,11.18-1.66s7.43-1.14,11.17-.89a9.65,9.65,0,0,1,7.64,4.11c.92,1.25,2,2.85,2.91,4.33.44-.64,1-1.32,1.15-1.63,2.16-4.74,2.21-13,3.39-18.86a25.869,25.869,0,0,1,2.21-5.91c2.37-5.71,1.46-7.57-.61-11.95-1.24-2.64-2.33-5.58-.88-8.94.71-1.62,2-1.66,2.69-3.1a37,37,0,0,0,1-8.84,5.629,5.629,0,0,1-.1-.92c-.42-3.92-1.56-6.83-1.82-10.93s-.23-8.15-.86-12.26c-.59-3.8-2.36-8.47-2.31-12.65a12.519,12.519,0,0,1,1.28-5.23,6.47,6.47,0,0,1,0-4.48,15.309,15.309,0,0,1,1.2-2.22c1.09-1.9,1.29-1.32,1.44-3.52.46-6.87-2-6.22-2.91-10.94a8.56,8.56,0,0,1,.6-5.37c1.62-3.61,4-2.86,3.91-9.43,0-2.72-.37-5.24-.49-7.89a3.67,3.67,0,0,1-1.08-2.62,7.65,7.65,0,0,1,.18-2.13c-.16.48-.14,0-.08-.49s.21-1.18.14,0a3.8,3.8,0,0,1-.06.5,1.249,1.249,0,0,0,.06-.18,27.911,27.911,0,0,1,1.1-3.23c-.43-3.78-2.63-7.79-2.89-12.23-.07-1.19.54-5.36.26-6.24-.41-1.32-2.33-.55-3.08-2.08-.07-.16-.14-.32-.2-.48-2.19-2.9-5.26-9.72-7.47-8.37-1.22.76-2.21,2.51-3.53,3a6.58,6.58,0,0,1-4.4.08,5.87,5.87,0,0,1-2-1c-1-.84-.54-1.63-1.1-.94-.72.88-1.06,4.28-1.94,5.52-1.74,2.48-3.67,1.4-5.53.22-2.49-1.58-4.83-.76-7.32-2.28-1.87-1.16-2.11-.51-3.91,0a2.54,2.54,0,0,1-2.66-.9c-1.1-1.18-2.49-6.77-3.82-6.09-.51.25-1.84,5.51-2.63,6.48a3.81,3.81,0,0,1-5.16.85c-1-.07-1.83-.79-2.61-2.6a3.658,3.658,0,0,1-.23-1.09,8.42,8.42,0,0,0-2.6-.19,7,7,0,0,1-1.8-.08c-1.42-.4-2.52-.85-4-.36-1.23.41-2.16,1.12-3.4.72-1.51-.48-2.71-2.52-4.23-3.17-2.68-1.13-4.9,1-7.3,3l-.23.18-.19.18c-.36.33-.68.87-1,1.21a3.05,3.05,0,0,1-2.22.87,24.05,24.05,0,0,1-8-1c-1.15-.36-2.14-1.14-3.27-.5s-1.68,2.26-3,2.38c-1,.1-1.63-.5-2.53-1.45-1.57-1.67-2.36-2.21-4.13-2.17a5.85,5.85,0,0,1-3.45-1.12c-1.21-.8-2-2-3.46-1.18-.39.22-.67,1.1-1.07,1.31-2,1.05-2.64.95-4.41-1-2.32-2.58-4.43-2.07-6.75-4.41-.65-.66-.93-1.06-1.17-1.06s-.54.66-1.4,2.27" transform="translate(-0.12 -0.59)"/>
      <g id="Group_2" data-name="Group 2">
        <g id="Group_1" data-name="Group 1" class="cls-2">
          <rect id="Rectangle_1" data-name="Rectangle 1" class="cls-3" width="324.39" height="194.56" transform="translate(10.54 23.52)"/>
        </g>
        <path id="Path_4" data-name="Path 4" class="cls-4" d="M238,81.69a2.4,2.4,0,0,0-2.39-2.42h-4.79V74.42A2.41,2.41,0,0,0,228.4,72H214a2.41,2.41,0,0,0-2.39,2.42v4.85h-3.5a2.4,2.4,0,0,0-2.4,2.42l.07,6.32h-18c-2.91,0-6,1.61-6,5.7,0,.82,0,3.51,1.75,4.17h-8.29c-4.72,0-7.42.85-7.42,5.93,0,3.45,2.49,5.54,6.46,5.54h20.84a5.71,5.71,0,0,0,2.18,9.45,7,7,0,0,0,2.39.42h4.79v29.07a2.4,2.4,0,0,0,2.39,2.42h4.79v4.85A2.41,2.41,0,0,0,214,158h5.23v4.84c0,2.67-2.59,4.84-5.23,4.84H194.9a4.82,4.82,0,0,1-4.79-4.84V127.7c0-1.33-1.07-2-2.39-2h-9.57v-1.66a2.41,2.41,0,0,0-2.4-2.42h-5.64c0-1.34-.75-3-2.07-3h-56.9c-4,0-6.55,2.64-6.55,6.65v4.85c0,4,2.59,6.28,6.55,6.29H168c1.32,0,2.07-1.32,2.07-2.66h5.64a2.42,2.42,0,0,0,2.4-2.42v-1.67h8.22v33.15c0,5.35,3.24,8.46,8.53,8.46H214c4.92,0,9-3.11,9-8.46V158h5.36a2.41,2.41,0,0,0,2.39-2.42v-4.85h4.79a2.4,2.4,0,0,0,2.39-2.42m-22.39-69V75.42H227v3.85Zm-7.28,67.39V118c0-1.34-.12-2.43-1.44-2.43h-7.18a2.42,2.42,0,0,1,0-4.84,2.42,2.42,0,1,0,0-4.84H173.36a2.15,2.15,0,0,1-2.08-2.41c0-1.34.65-2.62,2-2.62h13.58a2.34,2.34,0,0,0,2.49-2.24,2.56,2.56,0,0,0-2.39-2.42c-1.3-.21-1.61-1.08-1.61-2.42a2.41,2.41,0,0,1,2.4-2.42h19.14A2.41,2.41,0,0,0,209.25,89V82.83h24.9v63.83Zm6.77,8.16v-4.11h12.48v4.11Zm-40-29.54v4.85H170.2v-4.85Zm-8.84,7.27h-55a2.41,2.41,0,0,1-2.39-2.42v-4.85a2.41,2.41,0,0,1,2.39-2.42h55Z" transform="translate(-0.12 -0.59)"/>
      </g>
      <path id="Path_5" data-name="Path 5" class="cls-4" d="M210.32,108.06c0-1.06-.45-1.92-1.77-1.92h-2.39a1.92,1.92,0,1,0,0,3.83h2.39C209.87,110,210.32,109.11,210.32,108.06Z" transform="translate(-0.12 -0.59)"/>
      <path id="Path_6" data-name="Path 6" class="cls-4" d="M208.64,98.64a1.674,1.674,0,0,0-1.77-1.91H195.08a1.91,1.91,0,0,0,0,3.82h11.79C208.2,100.55,208.64,99.7,208.64,98.64Z" transform="translate(-0.12 -0.59)"/>
    </g>
  </g>
</svg>
