<svg id="Layer_1" xmlns="http://www.w3.org/2000/svg" viewBox="55.22 44.22 600 600"><defs><style>.cls-1{fill:#f15a29;}.cls-2{fill:#f7941e;}</style></defs><title>CAMPSTER LOGO final</title><path class="cls-1" d="M207.66,280c-.54,1.59-1.11,3.17-1.64,4.77,0,0-7.89,22.41-19.44,74.09a294.16,294.16,0,0,0-5.65,42.71c-1,20.06-2,47.51,22.3,54.44,2.05.58,4.13,1.06,6.2,1.58l7.93,1.85c9.45,2,41.21,6.13,50.86,7.25l.17-47.12,43.23-85.95Z"/><path class="cls-2" d="M385,187.67a44.6,44.6,0,0,0-5.58-8c-12.58-16.83-31.68-26.16-59.41-29.48-27.14-3.26-47.42,14.52-62.95,34.13-12.93,16.33-23.49,34.32-32.4,53.21L331,295.14Z"/><path class="cls-1" d="M400.82,246.75l-32.7,68.53L409,337.46l-.87-20.23A654.11,654.11,0,0,0,400.82,246.75Z"/><path class="cls-2" d="M268.22,466.67c29.18,2.33,85.67,3.88,113.6-6,19.39-6.89,24.78-12.59,27-34.14a378.34,378.34,0,0,0,1.71-41.87l-60.6-31.26-40,83.75Z"/><path d="M523.74,404.1c-11.19-62.61-26.5-134.55-42.23-196.14-5-19.63-10.51-39.16-18.55-57.76-7.75-17.91-19.28-22.58-37-15.28-6.2,2.55-11.71,6.35-17.05,10.47-2.69,2.09-4.7,6.67-9.16,4.11-4-2.3-2.84-6.67-2.84-10.27a99,99,0,0,0-3-22.47c-7.2-30.39-47.3-42.84-69.68-21.5-10.29,9.8-15.06,21.62-19.11,35.27-.74,2.49-2.72,10.56.78,9.47,11.45-3.56,26.9-1.42,26.9-1.42,2.88-20.41,8.86-26.82,25.38-25.8,9.34.58,17.63,15,13.81,23.84-1.51,3.5-4.22,2.5-6.77,2.49-5.75,0-12.54-.69-25.05,1,10,1.91,10.52,2.78,14.26,3.89,13.37,4,27.44,14,38.33,28.23a93.71,93.71,0,0,1,17.62,39.32q1,5.46,2,10.91c4.86,27.17,8.53,54.5,9.73,82.13.6,13.65,1.31,27.3,1.83,40.95.58,15.41.87,30.81.44,46.2a371.93,371.93,0,0,1-3.47,42.71c-.88,6.1.73,6.77,5.53,4.85,11.43-4.61,18.5-12.66,20.07-25.77.39-3.3.59-6.64.69-10l40.71,21c8.53,6.52,17.49,4.64,26-1C520.72,419.13,525.45,413.69,523.74,404.1Zm-77.26-68c-2.76-43.56-7.09-86.91-15.78-129.7-1-5-2.15-10-3.53-14.89l1.82-3.83,44.59,184.76-.05,0-23.46-12.72C446.82,357,446.72,339.94,446.48,336.14Z"/><path d="M174.23,522a42,42,0,0,1,9.77,1.15,48.89,48.89,0,0,1,10.32,3.93V538a48.69,48.69,0,0,0-10-4.57,32.54,32.54,0,0,0-9.59-1.41,24.05,24.05,0,0,0-11.28,2.63,19.08,19.08,0,0,0-7.82,7.41,21.9,21.9,0,0,0,0,21.36,18.76,18.76,0,0,0,7.8,7.32,24.35,24.35,0,0,0,11.32,2.59,29.87,29.87,0,0,0,9.21-1.41A66.55,66.55,0,0,0,195,566.78v10.85A50.43,50.43,0,0,1,184.5,582a43.44,43.44,0,0,1-11.15,1.28,35.56,35.56,0,0,1-16.56-3.76,27.84,27.84,0,0,1-11.47-10.83,29.82,29.82,0,0,1-4.18-15.48,30.93,30.93,0,0,1,4.3-16.19,29.07,29.07,0,0,1,11.83-11.06A36.44,36.44,0,0,1,174.23,522Z"/><path d="M236.66,522.79l25.87,59.67H250.58l-6.08-14.52h-26l-5.66,14.52H200.93l24.15-59.67ZM221.9,559.18h18.91l-9.9-23.62Z"/><path d="M280.8,522.79l19.25,23.53,19.25-23.53h10.1v59.67H318.08v-41.9h-.34l-16.94,21h-1.59l-16.94-21h-.34v41.9H270.61V522.79Z"/><path d="M366.17,522.79q8.2,0,13.35,4.85a17.71,17.71,0,0,1-.06,25q-5.2,4.79-13.71,4.78H354.84v25H343.52V522.79Zm-2.81,25.63a10.7,10.7,0,0,0,7.06-2.12,7.67,7.67,0,0,0,2.54-6.25q0-8.25-10.4-8.25h-7.72v16.62Z"/><path d="M406.2,522.79v25.12h30.4V522.79h11.32v59.67H436.6v-25.2H406.2v25.2H394.88V522.79Z"/><path d="M472.94,522.79v34.73a19.23,19.23,0,0,0,1.58,8.5,12.52,12.52,0,0,0,5.13,5.21,16.46,16.46,0,0,0,8.31,2,18.39,18.39,0,0,0,8.82-1.95,12.12,12.12,0,0,0,5.31-5.29c1.12-2.24,1.68-5.33,1.68-9.29v-34h11.32v35.45q0,12-7.09,18.52t-20,6.47a31.46,31.46,0,0,1-14.11-3,20.58,20.58,0,0,1-9.12-8.52,26.18,26.18,0,0,1-3.15-13.09V522.79Z"/><path d="M550.26,522.79q8.06,0,13.12,4.27a13.39,13.39,0,0,1,5.08,10.68,12.57,12.57,0,0,1-2.12,7.22,14.39,14.39,0,0,1-6.14,4.95v.51a16.8,16.8,0,0,1,9.54,5.58,14.91,14.91,0,0,1,3.41,9.76,16.13,16.13,0,0,1-2.49,8.86,15.39,15.39,0,0,1-6.92,5.88,25.49,25.49,0,0,1-10.42,2H528.79V522.79Zm-3,24.77a10.68,10.68,0,0,0,7.09-2.18,7.48,7.48,0,0,0,2.6-6.06,6.83,6.83,0,0,0-2.39-5.49,9.41,9.41,0,0,0-6.29-2h-8.14v15.76Zm2.64,25.89c3.83,0,6.72-.74,8.68-2.2a7.59,7.59,0,0,0,2.94-6.47,7.08,7.08,0,0,0-2.92-6,12.65,12.65,0,0,0-7.82-2.2H540.11v16.87Z"/><path d="M505.94,609.58a2.31,2.31,0,0,1,1.61,3.92,2.2,2.2,0,0,1-3.2,0,2.28,2.28,0,0,1,0-3.24A2.17,2.17,0,0,1,505.94,609.58Z"/><path d="M513.81,593.44a2,2,0,0,1,1.45.61,2,2,0,0,1,.6,1.47,2.06,2.06,0,0,1-.6,1.46,1.94,1.94,0,0,1-2.88,0,2,2,0,0,1-.61-1.46,2.1,2.1,0,0,1,2-2.08Zm1.81,6.48v14H512v-14Z"/><path d="M527.75,599.65a4.49,4.49,0,0,1,3.52,1.47,5.63,5.63,0,0,1,1.32,3.89v8.91H529v-8.53a3.33,3.33,0,0,0-.64-2.16,2.11,2.11,0,0,0-1.74-.8,2.73,2.73,0,0,0-1.58.51,7.4,7.4,0,0,0-1.62,1.67v9.31h-3.62v-14h3.62v2a6.62,6.62,0,0,1,2.06-1.72A5.16,5.16,0,0,1,527.75,599.65Z"/><path d="M538.41,609.58a2.34,2.34,0,0,1,2.27,2.31,2.2,2.2,0,0,1-.67,1.61,2.13,2.13,0,0,1-1.6.69,2.16,2.16,0,0,1-1.6-.69,2.28,2.28,0,0,1,0-3.24A2.18,2.18,0,0,1,538.41,609.58Z"/><path d="M548.12,596.2h.29v3.72h4.71v2.78h-4.71v6.46a2.13,2.13,0,0,0,.56,1.53,2,2,0,0,0,1.53.59,6.11,6.11,0,0,0,2.92-.93v2.95a9,9,0,0,1-3.68.89,4.94,4.94,0,0,1-3.63-1.29,4.7,4.7,0,0,1-1.3-3.5v-6.7h-2.15v-.6Z"/><path d="M559.52,593v8.91h.09a5.21,5.21,0,0,1,4.22-2.23,4.54,4.54,0,0,1,3.53,1.46A5.45,5.45,0,0,1,568.7,605v9h-3.6v-8.26a3.49,3.49,0,0,0-.66-2.24,2.13,2.13,0,0,0-1.79-.84,2.77,2.77,0,0,0-1.55.48,7.15,7.15,0,0,0-1.58,1.59v9.27H555.9V593Z"/></svg>
