<svg width="106" height="129" fill="none" xmlns="http://www.w3.org/2000/svg"><path d="M101.57 15.52L77.96 81.75 4.43 55.21l-2.74 3.54 78.34 28.43 25.09-70.9-3.55-.76z" fill="url(#paint0_linear)"/><path d="M44.07 3.32L5.74 52.82l70.38 25.45 22.53-63.46L44.07 3.32z" fill="url(#paint1_radial)"/><path d="M42.69.3L.5 54.11l77.45 27.66 24.8-69L42.69.28z" stroke="#0373B1" stroke-width="1.42" stroke-miterlimit="3"/><path d="M52.57 45.97c-.03-.29.14-.74.52-1.34-1.76.47-3.53.76-5.33.9-1.8.12-3.42.04-4.86-.26a9.85 9.85 0 01-3.99-1.72 3.98 3.98 0 01-1.7-3.09c-.06-1.24.44-2.48 1.5-3.74 1.29-1.54 3.32-2.93 6.08-4.17a28.07 28.07 0 018.36-2.35c2.82-.32 5.24-.27 7.28.16 1.55.32 2.86.85 3.9 1.6a4.63 4.63 0 011.95 2.77L69 32.68l4.79 1-12 8.94a117.66 117.66 0 00-2.73 2.08c-.23.28-.24.55-.04.83.2.27.57.46 1.09.57.95.2 2.44.17 4.49-.1 2.7-.36 5.19-1.05 7.48-2.1a14.77 14.77 0 005.18-3.67c1.36-1.62 1.87-3.28 1.53-5.01-.35-1.72-1.69-3.33-4-4.8-2.32-1.48-5.31-2.6-8.98-3.37a45.16 45.16 0 00-12.8-.8c-4.36.34-8.32 1.3-11.88 2.87-3.57 1.59-6.3 3.5-8.2 5.77-2 2.37-2.76 4.62-2.3 6.72.46 2.12 2.15 3.95 5.06 5.52a41.11 41.11 0 0010.94 3.73c4.68.97 8.97 1.37 12.85 1.17 3.88-.2 7.13-.74 9.73-1.63l4.85 1c-1.76.83-4.2 1.53-7.3 2.13-3.1.58-6.43.87-10 .85a60.55 60.55 0 01-11.81-1.4 53.72 53.72 0 01-10.28-3.11c-2.89-1.25-5.05-2.67-6.48-4.28-1.43-1.59-2.13-3.24-2.12-4.93.04-2.14.94-4.26 2.72-6.38 1.98-2.36 4.76-4.42 8.35-6.18a42.42 42.42 0 0114.34-4.08 52.32 52.32 0 0116.34.96c4.43.92 8 2.25 10.7 3.96 2.7 1.72 4.25 3.76 4.65 6.13.32 2.03-.34 4.04-2 6-2.35 2.8-6.28 4.92-11.75 6.32-4.9 1.28-9.28 1.51-13.15.7a8.97 8.97 0 01-2.74-.92c-.6-.35-.92-.75-.96-1.2zm-9.07-8.01c-1.13 1.33-1.42 2.49-.88 3.47.54.98 1.55 1.63 3.05 1.93 1 .21 2.18.27 3.56.18a21.6 21.6 0 004.38-.78 19.03 19.03 0 004.53-1.94 14.11 14.11 0 003.5-2.75c1.09-1.34 1.34-2.5.76-3.48-.58-.99-1.74-1.66-3.47-2.02-1.14-.24-2.34-.3-3.62-.2-1.27.1-2.68.41-4.2.92-1.54.5-3.01 1.2-4.42 2.08a13.13 13.13 0 00-3.2 2.59z" fill="url(#paint2_linear)"/><path d="M52.57 45.97c-.03-.29.14-.74.52-1.34-1.76.47-3.53.76-5.33.9-1.8.12-3.42.04-4.86-.26a9.85 9.85 0 01-3.99-1.72 3.98 3.98 0 01-1.7-3.09c-.06-1.24.44-2.48 1.5-3.74 1.29-1.54 3.32-2.93 6.08-4.17a28.07 28.07 0 018.36-2.35c2.82-.32 5.24-.27 7.28.16 1.55.32 2.86.85 3.9 1.6a4.63 4.63 0 011.95 2.77L69 32.68l4.79 1-12 8.94a117.66 117.66 0 00-2.73 2.08c-.23.28-.24.55-.04.83.2.27.57.46 1.09.57.95.2 2.44.17 4.49-.1 2.7-.36 5.19-1.05 7.48-2.1a14.77 14.77 0 005.18-3.67c1.36-1.62 1.87-3.28 1.53-5.01-.35-1.72-1.69-3.33-4-4.8-2.32-1.48-5.31-2.6-8.98-3.37a45.16 45.16 0 00-12.8-.8c-4.36.34-8.32 1.3-11.88 2.87-3.57 1.59-6.3 3.5-8.2 5.77-2 2.37-2.76 4.62-2.3 6.72.46 2.12 2.15 3.95 5.06 5.52a41.11 41.11 0 0010.94 3.73c4.68.97 8.97 1.37 12.85 1.17 3.88-.2 7.13-.74 9.73-1.63l4.85 1c-1.76.83-4.2 1.53-7.3 2.13-3.1.58-6.43.87-10 .85a60.55 60.55 0 01-11.81-1.4 53.72 53.72 0 01-10.28-3.11c-2.89-1.25-5.05-2.67-6.48-4.28-1.43-1.59-2.13-3.24-2.12-4.93.04-2.14.94-4.26 2.72-6.38 1.98-2.36 4.76-4.42 8.35-6.18a42.42 42.42 0 0114.34-4.08 52.32 52.32 0 0116.34.96c4.43.92 8 2.25 10.7 3.96 2.7 1.72 4.25 3.76 4.65 6.13.32 2.03-.34 4.04-2 6-2.35 2.8-6.28 4.92-11.75 6.32-4.9 1.28-9.28 1.51-13.15.7a8.97 8.97 0 01-2.74-.92c-.6-.35-.92-.75-.96-1.2zm-9.07-8.01c-1.13 1.33-1.42 2.49-.88 3.47.54.98 1.55 1.63 3.05 1.93 1 .21 2.18.27 3.56.18a21.6 21.6 0 004.38-.78 19.03 19.03 0 004.53-1.94 14.11 14.11 0 003.5-2.75c1.09-1.34 1.34-2.5.76-3.48-.58-.99-1.74-1.66-3.47-2.02-1.14-.24-2.34-.3-3.62-.2-1.27.1-2.68.41-4.2.92-1.54.5-3.01 1.2-4.42 2.08a13.13 13.13 0 00-3.2 2.59z" fill="#1D65AB"/><path d="M9.16 117.32v-7.27H7.03v-1.49h5.7v1.49H10.6v7.27H9.16zM13.67 117.32v-8.76h1.45V112h2.83v-3.44h1.45v8.76h-1.45v-3.83h-2.83v3.83h-1.45zM27.37 117.32H25.8l-.63-1.98H22.3l-.6 1.98h-1.53l2.79-8.76h1.55l2.86 8.76zm-2.66-3.47l-1-3.24-.96 3.24h1.96zM28.1 117.32v-8.76h1.44v8.76H28.1zM34.73 117.32L33 108.56h1.5l1.07 6.02 1.3-6.02h1.72l1.26 6.11 1.1-6.1h1.45l-1.72 8.75h-1.54l-1.44-6.55-1.42 6.55h-1.55zM43.17 117.32v-8.76h5.32v1.49H44.6v1.94h3.61v1.46h-3.6v2.38h4.01v1.49h-5.46zM49.85 108.56h2.87c.78 0 1.34.07 1.66.22.32.14.58.39.8.75.21.36.33.77.33 1.23 0 .42-.1.8-.28 1.15-.19.34-.43.58-.74.75.43.15.77.41 1 .77.24.36.36.81.36 1.34 0 .64-.15 1.18-.46 1.62-.3.44-.66.71-1.08.8-.3.08-.97.12-2.03.12h-2.44v-8.75zm1.44 1.46v2.01h.95c.57 0 .93 0 1.06-.03a.91.91 0 00.58-.3c.13-.17.2-.4.2-.7 0-.25-.06-.46-.16-.62a.76.76 0 00-.42-.3 8.84 8.84 0 00-1.37-.06h-.84zm0 3.48v2.33h1.34c.6 0 .97-.03 1.14-.09.16-.06.3-.18.42-.36s.17-.41.17-.69c0-.28-.06-.51-.19-.7a.91.91 0 00-.48-.38 4.6 4.6 0 00-1.23-.1h-1.17zM57.07 117.32v-8.76h2.16l1.3 5.98 1.28-5.98h2.18v8.76h-1.35v-6.9l-1.43 6.9h-1.39l-1.42-6.9v6.9h-1.33zM71.9 117.32h-1.57l-.63-1.98h-2.86l-.6 1.98H64.7l2.8-8.76h1.54l2.86 8.76zm-2.66-3.47l-1-3.24-.96 3.24h1.96zM75.24 117.46c-1.76 0-2.74-1-2.94-3l1.42-.17c.16 1.12.68 1.68 1.57 1.68.44 0 .78-.12 1.02-.35.26-.22.37-.5.37-.85 0-.2-.03-.37-.12-.5a.94.94 0 00-.4-.35c-.18-.09-.61-.23-1.3-.45a4.61 4.61 0 01-1.36-.6 2.3 2.3 0 01-.69-.87 2.65 2.65 0 01-.25-1.14c0-.48.1-.9.32-1.3.22-.37.52-.66.9-.85.38-.2.85-.3 1.42-.3.84 0 1.5.23 1.97.69.47.46.73 1.12.76 1.97l-1.45.07c-.07-.47-.2-.8-.41-.98a1.35 1.35 0 00-.91-.29c-.4 0-.7.08-.91.25a.74.74 0 00-.03 1.2c.2.17.64.34 1.32.54.72.21 1.25.43 1.57.66.33.24.57.53.75.9.16.37.25.81.25 1.34 0 .77-.23 1.4-.7 1.92-.45.52-1.19.78-2.17.78zM80.96 117.32v-7.27h-2.12v-1.49h5.7v1.49H82.4v7.27h-1.45zM85.48 117.32v-8.76h5.32v1.49h-3.88v1.94h3.6v1.46h-3.6v2.38h4.02v1.49h-5.46zM92.16 117.32v-8.76h3.05c.78 0 1.34.08 1.67.24.33.15.6.43.82.82.22.39.33.85.33 1.39 0 .68-.17 1.23-.5 1.65-.32.42-.78.69-1.4.78.32.23.58.47.78.74.2.26.48.74.83 1.42l.87 1.72h-1.74l-1.03-1.91c-.38-.69-.63-1.12-.77-1.3-.13-.17-.27-.29-.43-.36-.14-.06-.39-.1-.72-.1h-.3v3.67h-1.46zm1.46-5.05h1.06c.66 0 1.07-.03 1.25-.09a.8.8 0 00.43-.35c.11-.18.17-.41.17-.7 0-.27-.06-.5-.17-.67a.9.9 0 00-.45-.35 6.05 6.05 0 00-1.17-.07h-1.13v2.23zM7.37 127.99l2.76-8.75h1.02l2.93 8.75H13l-.83-2.65H9.14l-.77 2.65h-1zm2.05-3.6h2.45l-.74-2.42c-.24-.74-.4-1.35-.51-1.82-.1.56-.23 1.12-.4 1.67l-.8 2.58zM16.92 125.14l.9-.08c.06.48.16.86.33 1.13.17.27.41.48.72.65.32.17.67.24 1.06.24.57 0 1-.13 1.31-.4.31-.28.47-.64.47-1.08 0-.25-.06-.48-.17-.68-.11-.2-.28-.35-.5-.47-.23-.11-.73-.29-1.48-.51-.68-.2-1.16-.4-1.45-.61a2.12 2.12 0 01-.9-1.83c0-.7.23-1.28.68-1.73a2.53 2.53 0 011.85-.67c.53 0 1 .1 1.4.3.4.22.72.53.93.92.23.39.34.86.35 1.39l-.9.07c-.06-.56-.22-.98-.51-1.26-.3-.27-.7-.4-1.24-.4s-.95.1-1.23.35c-.28.25-.42.55-.42.93 0 .35.1.63.31.82.2.2.68.4 1.4.6.7.19 1.2.35 1.49.5.44.23.76.52.99.88.22.36.33.8.33 1.3s-.12.96-.35 1.37c-.24.41-.56.72-.96.94-.4.21-.9.32-1.46.32-.89 0-1.6-.26-2.12-.8a3.04 3.04 0 01-.83-2.2zM26 125.14l.9-.08c.05.48.16.86.33 1.13.16.27.4.48.72.65.31.17.66.24 1.06.24.56 0 1-.13 1.3-.4.32-.28.48-.64.48-1.08 0-.25-.06-.48-.17-.68-.12-.2-.28-.35-.5-.47-.23-.11-.73-.29-1.49-.51-.67-.2-1.15-.4-1.44-.61a2.12 2.12 0 01-.9-1.83c0-.7.22-1.28.68-1.73a2.53 2.53 0 011.85-.67c.53 0 1 .1 1.4.3.4.22.71.53.93.92.22.39.34.86.35 1.39l-.91.07c-.05-.56-.22-.98-.5-1.26-.3-.27-.71-.4-1.24-.4-.54 0-.95.1-1.23.35-.29.25-.42.55-.42.93 0 .35.1.63.3.82.21.2.68.4 1.4.6.71.19 1.21.35 1.5.5.43.23.76.52.98.88.23.36.33.8.33 1.3s-.11.96-.35 1.37c-.23.41-.55.72-.96.94-.4.21-.89.32-1.45.32-.9 0-1.6-.26-2.13-.8a3.08 3.08 0 01-.83-2.2zM36 126.74a5.1 5.1 0 01-.87-3.02c0-1.48.33-2.63.99-3.43.65-.8 1.47-1.2 2.45-1.2.64 0 1.21.17 1.73.53s.93.88 1.24 1.56c.3.68.46 1.5.46 2.43 0 1.3-.29 2.35-.88 3.17a3 3 0 01-2.54 1.35 2.98 2.98 0 01-2.57-1.39zm.12-3c0 1.08.23 1.9.71 2.5a2.13 2.13 0 003.47 0c.47-.6.7-1.48.7-2.65 0-.75-.11-1.41-.36-2.01a2.52 2.52 0 00-.84-1.09 2.12 2.12 0 00-3 .48c-.46.6-.68 1.52-.68 2.77zM50.69 124.91l.95.3a4.11 4.11 0 01-1.1 2.2c-.54.48-1.18.72-1.93.72-.67 0-1.24-.16-1.7-.49a3.39 3.39 0 01-1.16-1.55 6.48 6.48 0 01-.45-2.53c0-.96.15-1.78.45-2.45.3-.67.7-1.17 1.22-1.5.52-.35 1.09-.52 1.72-.52.7 0 1.3.22 1.8.65.5.43.84 1.06 1.04 1.89l-.93.27c-.32-1.2-.96-1.8-1.92-1.8-.48 0-.89.11-1.24.35a2.5 2.5 0 00-.84 1.15c-.2.52-.31 1.17-.31 1.96 0 1.19.21 2.09.63 2.68a1.97 1.97 0 003.03.36c.36-.38.61-.94.74-1.69zM55.4 127.98v-8.74h.94V128h-.95zM59.62 127.98l2.76-8.74h1.01l2.94 8.75h-1.09l-.83-2.66H61.4l-.77 2.66h-1zm2.04-3.58h2.46l-.75-2.43a24 24 0 01-.5-1.82c-.1.56-.23 1.12-.4 1.67l-.8 2.58zM70.58 127.98v-7.71h-2.36v-1.03h5.69v1.03h-2.38v7.72h-.95zM77.44 127.98v-8.74h.95V128h-.95zM83.06 126.74a5.1 5.1 0 01-.88-3.02c0-1.48.33-2.63.99-3.43.66-.8 1.48-1.2 2.46-1.2.63 0 1.2.17 1.73.53.51.36.93.88 1.24 1.56.3.68.46 1.5.46 2.43 0 1.3-.3 2.35-.88 3.17a3 3 0 01-2.54 1.35 3 3 0 01-2.58-1.39zm.11-3c0 1.08.24 1.9.71 2.5a2.13 2.13 0 003.48 0c.47-.6.7-1.48.7-2.65 0-.75-.12-1.41-.36-2.01a2.52 2.52 0 00-.84-1.09 2.12 2.12 0 00-3 .48c-.46.6-.69 1.52-.69 2.77zM92.62 127.98v-8.74h.98l3.76 6.9v-6.9h.91V128h-.97l-3.75-6.88v6.88h-.93zM13.51 97c-.12.19-.3.34-.54.5-.22.12-.45.2-.7.24.32.3.49.69.49 1.14v4.58h-.84l-1.6-3.4a.82.82 0 00-.32-.33.56.56 0 00-.35-.1l-.14.01c-.39.06-.58.3-.58.7v1.18c.03-.01.07-.03.12-.03l.27-.03c.29 0 .54.1.75.3.2.2.31.43.31.73a1.04 1.04 0 01-.32.76 1 1 0 01-.77.31c-.36 0-.65-.1-.85-.3-.2-.23-.32-.5-.32-.83v-2.15c0-.32.11-.59.33-.8.2-.2.42-.34.66-.39l.32-.03.27-.03c.15 0 .3 0 .43.04.13.02.25.06.37.13a1 1 0 01.49.53l.96 2.08v-2.74c0-.36-.16-.65-.46-.9a1.72 1.72 0 00-1.13-.39c-.89 0-1.48.36-1.78 1.06h-.85c.16-.52.47-.94.96-1.25a3.45 3.45 0 012.48-.35l.23.05.26.07.14.02c.15 0 .3-.06.45-.16.2-.17.37-.37.5-.64l.76.42zm-3.72 5.47c0-.1-.05-.2-.16-.3a.41.41 0 00-.32-.14.53.53 0 00-.35.14c-.06.06-.1.16-.12.3 0 .07 0 .14.03.19.02.04.05.1.1.13.04.04.1.06.15.08a.9.9 0 00.2.04l.18-.02c.05-.02.1-.05.15-.1.09-.1.14-.2.14-.32zM19.78 102.6c0 .56-.25.86-.75.86h-.29c-.12-.38-.39-.75-.78-1.12a3.32 3.32 0 00-1.33-.78v.95a1 1 0 01-.27.71c-.19.19-.44.28-.76.28-.34 0-.62-.11-.87-.34a1.33 1.33 0 01-.36-.94c0-.35.15-.66.45-.94.15-.13.32-.23.5-.3.17-.07.35-.1.55-.1v-1.69a.48.48 0 01-.13.04l-.26.03c-.3 0-.56-.1-.78-.3-.1-.08-.18-.19-.24-.3a1.04 1.04 0 01.22-1.15c.21-.23.48-.33.8-.33.35 0 .63.1.83.32.21.2.32.46.32.8v2.62c.19.02.37.07.58.15a4.83 4.83 0 011.75 1.33v-5.16h.81v5.36h.01zm-3.87-4.36a.42.42 0 00-.14-.3.44.44 0 00-.32-.14.45.45 0 00-.33.15c-.08.06-.12.17-.14.3 0 .07 0 .13.03.18.02.05.05.1.1.15l.15.07.2.04a.43.43 0 00.45-.45zm-.04 4.17v-.86c-.22 0-.4.06-.54.19a.61.61 0 00-.2.45c0 .17.04.3.1.42.07.1.19.16.34.18.2.01.3-.12.3-.38zM25.14 103.46h-.81v-4.43c0-.38-.12-.69-.34-.93a1.3 1.3 0 00-.95-.36c-.35 0-.65.1-.87.28-.24.18-.41.44-.55.78h-.85c.14-.5.4-.9.8-1.22.4-.32.9-.47 1.49-.47.6 0 1.1.15 1.5.48.39.31.58.74.58 1.29v4.58zM31.63 103.46h-.82V99.4c0-.44-.13-.82-.4-1.15a1.62 1.62 0 00-1.3-.53c-.53 0-.96.16-1.29.47-.33.32-.5.69-.5 1.1a3.8 3.8 0 00.08.88l.2 1v.74l-.02.17.12-.94a8.34 8.34 0 01.55-1.74c.23-.47.58-.7 1.08-.7.28 0 .54.1.76.3.23.2.33.45.33.75a1 1 0 01-.31.73c-.2.2-.47.3-.78.3-.27 0-.5-.07-.72-.24-.1.27-.23.72-.4 1.36-.08.27-.14.53-.2.78l-.16.75h-.87v-.98c0-.42-.1-1.09-.3-2a15.89 15.89 0 01-.15-1.18 2 2 0 01.7-1.53 2.85 2.85 0 011.95-.66c.74 0 1.34.2 1.8.62a2 2 0 01.67 1.51v4.24h-.02zm-1.84-3.7c0-.1-.05-.2-.15-.3a.4.4 0 00-.33-.15.46.46 0 00-.34.15c-.07.05-.11.16-.14.3 0 .14.05.24.14.33.04.04.1.07.18.09l.16.03.17-.02c.05-.02.1-.05.15-.1.1-.1.16-.2.16-.32zM38.34 102.6c0 .56-.26.86-.76.86h-.28c-.13-.38-.4-.75-.78-1.12a3.32 3.32 0 00-1.33-.78v.95c0 .28-.1.52-.28.71-.18.19-.44.28-.77.28s-.62-.11-.87-.34a1.33 1.33 0 01-.35-.94c0-.35.14-.66.45-.94.14-.13.31-.23.49-.3.17-.07.36-.1.55-.1v-1.69a.48.48 0 01-.12.04l-.27.03c-.3 0-.56-.1-.78-.3a.9.9 0 01-.32-.72 1 1 0 01.31-.74c.2-.22.47-.32.8-.32.34 0 .63.1.82.32.22.2.33.46.33.8v2.62c.18.02.37.07.57.15a4.83 4.83 0 011.75 1.33v-5.16h.82v5.36h.02zm-3.87-4.36a.42.42 0 00-.13-.3.44.44 0 00-.33-.14.45.45 0 00-.33.15c-.07.06-.12.17-.13.3 0 .07.01.13.03.18.02.05.05.1.11.15l.15.07.2.04c.12 0 .23-.04.31-.12.07-.1.12-.2.12-.33zm-.05 4.17v-.86c-.21 0-.39.06-.53.19a.61.61 0 00-.21.45c0 .17.03.3.1.42.08.1.2.16.34.18.2.01.3-.12.3-.38zM44.78 102.49c0 .34-.07.6-.21.74-.13.15-.33.22-.6.22h-.27l-1.33-2.89-1.3 2.89h-1.1v-5.16c0-.33.12-.6.32-.8.2-.21.5-.32.87-.32.31 0 .58.1.78.32.22.2.33.44.33.74 0 .28-.11.52-.32.72-.2.2-.46.3-.76.3h-.23a.36.36 0 01-.16-.06v3.13l1.3-2.76h.58l1.29 2.76v-5.08h.81v5.25zm-3.12-4.25a.42.42 0 00-.14-.3.42.42 0 00-.32-.15.45.45 0 00-.33.15c-.07.06-.1.17-.13.3 0 .07.01.13.03.18.02.05.05.1.1.14.05.04.1.06.17.08l.16.03c.08 0 .14 0 .18-.02.04-.02.1-.04.14-.1a.4.4 0 00.14-.3zM44.78 106.17c0 .39-.1.69-.28.89-.19.2-.5.29-.93.29H41.6v-.56c.22 0 .37-.03.46-.09.08-.06.1-.2.1-.39v-.33l-.32.07c-.3 0-.55-.1-.75-.29a.93.93 0 01-.29-.7c0-.28.1-.52.3-.7.19-.19.43-.29.74-.29.33 0 .6.1.8.3.22.2.34.44.34.75v1.65h.3c.29 0 .47-.05.56-.14a.91.91 0 00.08-.22c.02-.09.03-.2.03-.33v-1.95h.81v2.04h.02zm-2.48-1.12a.4.4 0 00-.12-.3.55.55 0 00-.32-.13.4.4 0 00-.3.12.49.49 0 00-.14.31c0 .12.04.23.12.3.07.07.18.11.32.13a.4.4 0 00.3-.12.55.55 0 00.14-.31zM45.98 94a2.05 2.05 0 01-.89 1.54 3.04 3.04 0 01-1.68.48c-.26 0-.54-.03-.8-.09.15-.07.27-.17.36-.28.1-.1.17-.24.22-.4l-.17.02a.93.93 0 01-.64-.25 1.04 1.04 0 01-.19-.28.84.84 0 01.19-.94c.08-.08.18-.13.29-.18.1-.05.22-.07.35-.07.28 0 .52.09.7.26.2.18.29.4.29.66a2.31 2.31 0 01-.14.78c-.02.06-.07.13-.13.22.22 0 .4-.04.6-.13.18-.08.34-.2.51-.37.3-.29.43-.6.43-.96h.7zm-2.58.4c0-.26-.13-.4-.4-.4s-.4.14-.4.4c0 .24.13.37.4.37s.4-.13.4-.37zM51.26 103.46h-.82V99.4c0-.47-.13-.85-.4-1.16-.29-.34-.71-.5-1.25-.5-.5 0-.92.13-1.25.41-.33.29-.52.56-.55.82l-.03.57a5 5 0 00.22 1.44c.14.65.21 1.08.21 1.28l.12-.2.16-.22c.04-.07.08-.13.13-.18l.24-.29.54-.6a1.13 1.13 0 01-.61-.37c-.16-.2-.24-.42-.24-.65 0-.27.11-.52.32-.73.22-.21.49-.32.79-.32.28 0 .55.11.76.32.11.1.19.2.25.32.06.13.09.26.09.4 0 .22-.04.39-.12.52a1.5 1.5 0 01-.15.23l-.17.22-.94 1.13-.63.86c-.2.3-.35.55-.44.74h-.88v-.9a11.33 11.33 0 00-.22-1.6c-.07-.38-.14-.7-.17-.95a4.65 4.65 0 01-.06-.7c0-.62.23-1.14.71-1.56a2.79 2.79 0 011.94-.63c.73 0 1.33.2 1.78.61.46.42.69.92.69 1.52v4.22h-.02zm-1.95-3.7c0-.1-.05-.2-.15-.3a.42.42 0 00-.33-.15.48.48 0 00-.35.15c-.08.06-.12.16-.14.3 0 .08.01.14.03.18l.1.16.15.08c.05.02.12.03.21.04a.5.5 0 00.33-.12c.1-.1.15-.21.15-.33zM51.26 106.17c0 .39-.1.69-.28.89-.18.2-.5.29-.93.29H48.1v-.56c.21 0 .37-.03.46-.09.07-.06.1-.2.1-.39v-.33l-.33.07c-.3 0-.55-.1-.73-.29a.93.93 0 01-.3-.7c0-.28.1-.52.3-.7.2-.19.44-.29.73-.29.33 0 .6.1.81.3.22.2.34.44.34.75v1.65h.29c.3 0 .48-.05.57-.14a.91.91 0 00.07-.22c.02-.09.03-.2.03-.33v-1.95h.82v2.04h.01zm-2.48-1.12a.4.4 0 00-.12-.3.55.55 0 00-.32-.13.4.4 0 00-.3.12.49.49 0 00-.14.31c0 .12.04.23.13.3.07.07.17.11.31.13a.4.4 0 00.3-.12c.08-.06.12-.17.14-.31zM55.43 102.47c0 .14-.03.28-.08.4s-.13.23-.24.35c-.2.2-.46.31-.78.31-.36 0-.66-.1-.87-.3-.2-.23-.32-.5-.32-.83v-5.15h.82v4.26c.05-.03.2-.05.39-.06.28 0 .53.1.75.28.22.2.33.44.33.74zm-.6-.01a.42.42 0 00-.14-.3.48.48 0 00-.68 0c-.07.06-.11.16-.13.3 0 .07 0 .13.03.18.02.04.05.1.1.14l.15.08a.9.9 0 00.2.04c.12 0 .23-.04.33-.13a.4.4 0 00.14-.31zm3.7 0c0 .16-.03.3-.08.4-.04.13-.13.24-.24.36-.2.2-.46.31-.78.31-.36 0-.66-.1-.87-.3-.1-.12-.18-.23-.23-.37-.06-.14-.09-.3-.09-.45v-5.15h.82v4.26c.06-.03.2-.05.39-.06.28 0 .53.1.75.29a.9.9 0 01.33.72zm-.6 0a.4.4 0 00-.15-.3.41.41 0 00-.32-.14.49.49 0 00-.35.14c-.07.06-.11.16-.13.3 0 .07 0 .13.03.18l.1.14.15.08a.9.9 0 00.2.04c.12 0 .23-.04.33-.13a.4.4 0 00.14-.31zM64.4 103.46h-.84l-1.6-3.4a.82.82 0 00-.32-.33.63.63 0 00-.35-.1l-.14.01c-.39.06-.58.3-.58.7v1.18a.48.48 0 01.12-.04l.27-.03c.3 0 .55.1.75.28.2.2.31.44.31.74a.9.9 0 01-.07.4c-.05.12-.14.23-.25.35a1 1 0 01-.77.31c-.36 0-.65-.1-.85-.3-.2-.23-.32-.5-.32-.83v-2.15c0-.32.11-.59.33-.8.2-.2.42-.34.67-.39l.32-.04.27-.03c.16 0 .3 0 .43.04.13.03.25.06.37.13a1 1 0 01.49.53l.96 2.08v-2.75c0-.35-.16-.65-.46-.9a1.72 1.72 0 00-1.13-.39c-.89 0-1.48.36-1.78 1.06h-.86c.16-.53.47-.94.96-1.25a3.45 3.45 0 011.72-.44c.68 0 1.24.16 1.69.48.45.32.67.74.67 1.28v4.6h-.01zm-2.96-1a.4.4 0 00-.15-.3.42.42 0 00-.33-.14.55.55 0 00-.34.14.46.46 0 00-.1.48c.02.04.05.1.1.14l.14.08a.9.9 0 00.2.04.5.5 0 00.18-.03.6.6 0 00.15-.09.5.5 0 00.15-.32zM68.57 102.47c0 .14-.03.28-.08.4s-.14.23-.26.35c-.2.2-.46.31-.78.31-.36 0-.64-.1-.87-.3-.2-.23-.31-.5-.31-.83v-5.15h.81v4.26c.06-.03.2-.05.4-.06.28 0 .53.1.74.28.24.2.35.44.35.74zm-.62-.01a.42.42 0 00-.14-.3.48.48 0 00-.67 0 .43.43 0 00-.14.3c0 .07.01.13.03.18l.1.14.16.08a.9.9 0 00.2.04c.12 0 .23-.04.32-.13a.4.4 0 00.14-.31zM73.9 102.4c0 .33-.1.6-.3.82-.21.2-.5.31-.88.31-.31 0-.57-.1-.79-.3a1.1 1.1 0 01-.31-.77c0-.28.1-.52.32-.72.22-.2.47-.3.76-.3h.24c.05 0 .1.02.16.05v-2.48c0-.37-.15-.67-.45-.92a1.6 1.6 0 00-1.06-.38c-.37 0-.72.1-1.07.28-.3.18-.5.45-.63.78h-.85c.17-.55.5-.96.95-1.25a3.08 3.08 0 011.65-.44c.64 0 1.18.16 1.61.48.44.32.66.75.66 1.28v3.56zm-.72.06c0-.1-.05-.22-.15-.3a.42.42 0 00-.34-.14.55.55 0 00-.34.14.46.46 0 00-.1.47c.02.05.05.1.1.15l.15.08.2.04a.48.48 0 00.33-.12c.1-.1.15-.2.15-.32zM74 93.13c0 .37-.18.66-.54.9-.36.24-.77.37-1.22.37H71.44c-.08 0-.15 0-.24.03-.14 0-.3.08-.48.23a.66.66 0 00-.25.54c0 .19.07.35.2.48.1.09.2.14.3.14l.59-.8.08.08c.03.03.05.06.06.1l.33.3a.88.88 0 01.9-.74.9.9 0 01.63.25 1 1 0 01.19.26c.05.1.07.2.07.32 0 .24-.09.44-.28.6a1.2 1.2 0 01-.7.24 1.44 1.44 0 01-.68-.15c-.22-.1-.41-.25-.57-.43l-.36.53h-.46a1 1 0 01-.75-.32 1.1 1.1 0 01-.32-.83c0-.33.14-.64.41-.9.26-.23.52-.37.81-.4l.47-.06H72.24c.27 0 .5-.06.68-.17a.72.72 0 00.25-.58H74zm-.7 2.47c0-.22-.13-.34-.36-.34-.24 0-.35.12-.35.34 0 .23.11.34.35.34.23 0 .35-.11.35-.34zM80.76 101.99c0 .49-.11.87-.34 1.12-.22.23-.63.35-1.2.35h-3.69v-.6c.31 0 .53-.05.65-.14.11-.1.17-.28.17-.56v-2.97a.48.48 0 01-.13.04l-.26.03c-.3 0-.55-.1-.77-.3a.9.9 0 01-.3-.72A1.07 1.07 0 0176 97.17c.35 0 .64.11.84.33.22.2.32.46.32.8v4.53h1.62c.5 0 .8-.05.95-.17.14-.13.22-.4.22-.82v-4.6h.81v4.75zm-4.32-3.75a.42.42 0 00-.14-.3.48.48 0 00-.33-.14.47.47 0 00-.34.15c-.07.06-.12.17-.14.3 0 .07.01.13.03.18.02.05.05.1.1.15l.15.07.2.04c.13 0 .24-.04.33-.12.1-.1.14-.2.14-.33zM85.39 102.47c0 .14-.03.28-.08.4s-.14.23-.24.35a1 1 0 01-.78.31c-.36 0-.64-.1-.86-.3a1.18 1.18 0 01-.3-.83v-8.24l-1.09 1.05c-.2-.42-.36-.75-.5-.98a3.6 3.6 0 00-1.35-1.4l.7-.45a3.38 3.38 0 011.16 1.26l.22.37 1.08-1.04c.16 0 .3.08.42.23a1.24 1.24 0 01.18.6v7.7a.52.52 0 01.12-.04l.26-.03c.3 0 .55.1.76.28.2.22.3.47.3.76zm-.59-.01c0-.1-.05-.22-.15-.3a.41.41 0 00-.33-.14.49.49 0 00-.34.14.52.52 0 00-.13.3c0 .07.01.13.03.18.02.04.05.1.1.13.05.04.1.07.19.09l.15.03.18-.02c.05-.02.1-.05.15-.1a.4.4 0 00.15-.31zM91.72 103.46h-.81v-4.72c0-.6-.21-.9-.61-.9-.13 0-.23.11-.28.33l-1.78 5.29h-.9v-4.27a.48.48 0 01-.12.04 1.14 1.14 0 01-1.04-.26.88.88 0 01-.22-.32 1.04 1.04 0 01.22-1.15c.22-.22.48-.32.8-.32.36 0 .64.1.84.32.22.2.33.47.33.8v2.13l-.02.42-.07.6-.02.31-.05.4.07-.33c.02-.08.03-.13.06-.18.09-.34.15-.6.22-.79l.97-2.98c.15-.46.48-.7 1.03-.7.42 0 .75.12.99.35.11.1.21.25.27.43.06.18.1.4.1.66v4.84h.02zm-4.28-5.22a.42.42 0 00-.13-.3.48.48 0 00-.34-.14.47.47 0 00-.34.15c-.08.06-.12.17-.14.3 0 .07.01.13.03.18.02.05.06.1.11.15l.15.07.2.04c.12 0 .23-.04.33-.12.08-.1.13-.2.13-.33zM97.9 101.99c0 .5-.12.87-.34 1.1-.23.24-.63.36-1.2.36h-2.94v-2.2c0-.3.08-.56.22-.76.08-.08.22-.18.43-.31a1.27 1.27 0 01-.57-.31.84.84 0 01-.24-.61v-.98c0-.34.1-.61.3-.82.21-.2.5-.3.88-.3.3 0 .56.1.78.32.21.2.32.44.32.74 0 .28-.1.52-.33.73-.1.1-.22.17-.33.22-.12.05-.26.07-.41.07a.87.87 0 01-.4-.06c0 .18.1.33.28.48.2.14.47.2.82.2h.49v.64h-.51c-.6 0-.92.27-.92.8v1.52h1.68c.5 0 .81-.05.95-.17.15-.13.23-.4.23-.82v-4.6h.8V102zm-2.96-3.75a.42.42 0 00-.14-.3.48.48 0 00-.33-.14.47.47 0 00-.35.15c-.07.06-.11.17-.13.3 0 .07 0 .13.03.18.02.05.04.1.1.15l.15.07.2.04c.12 0 .23-.04.33-.12.09-.1.14-.2.14-.33z" fill="#1F65AA"/><defs><linearGradient id="paint0_linear" x1="14.57" y1="23.37" x2="92.88" y2="51.88" gradientUnits="userSpaceOnUse"><stop stop-color="#0675B6"/><stop offset=".39" stop-color="#0E71B3"/><stop offset=".99" stop-color="#1B67AC"/><stop offset="1" stop-color="#1B67AC"/></linearGradient><linearGradient id="paint2_linear" x1="29.68" y1="29.37" x2="79.48" y2="47.49" gradientUnits="userSpaceOnUse"><stop stop-color="#0675B6"/><stop offset=".39" stop-color="#0E71B3"/><stop offset=".99" stop-color="#1B67AC"/><stop offset="1" stop-color="#1B67AC"/></linearGradient><radialGradient id="paint1_radial" cx="0" cy="0" r="1" gradientUnits="userSpaceOnUse" gradientTransform="matrix(42.0387 0 0 42.4605 52.2 40.8)"><stop stop-color="#fff"/><stop offset=".23" stop-color="#F7FAFC"/><stop offset=".58" stop-color="#E2EDF3"/><stop offset="1" stop-color="#C0D7E4"/></radialGradient></defs></svg>