<svg width="106" height="129" viewBox="0 0 106 129" fill="none" xmlns="http://www.w3.org/2000/svg">
<path d="M101.567 15.52L77.9568 81.7535L4.42701 55.2093L1.68848 58.7498L80.0302 87.1817L105.117 16.2731L101.567 15.52Z" fill="url(#paint0_linear)"/>
<path d="M44.0671 3.32324L5.7373 52.8223L76.1177 78.2711L98.652 14.8055L44.0671 3.32324Z" fill="url(#paint1_radial)"/>
<path d="M42.6881 0.292969L0.514648 54.115L77.9566 81.784L102.76 12.7729L42.6881 0.292969Z" stroke="#0373B1" stroke-width="1.4173" stroke-miterlimit="3"/>
<path d="M52.5658 45.9659C52.5364 45.6823 52.7125 45.2324 53.0939 44.626C51.3334 45.0955 49.5631 45.3889 47.7635 45.5258C45.9639 45.653 44.3404 45.5747 42.9026 45.2715C41.3182 44.939 39.9783 44.3619 38.9122 43.5502C37.8363 42.7384 37.2691 41.7016 37.2104 40.4595C37.1517 39.2174 37.6505 37.9753 38.7068 36.7234C39.9978 35.1781 42.0322 33.7892 44.7903 32.5471C47.5484 31.305 50.3358 30.5226 53.1526 30.1998C55.9694 29.877 58.3949 29.9259 60.4293 30.3563C61.9844 30.679 63.2852 31.2072 64.3219 31.9505C65.3684 32.684 66.0139 33.6132 66.278 34.7282L68.997 32.684L73.7894 33.6817L61.7887 42.621C60.1261 43.8729 59.2165 44.5673 59.06 44.7043C58.835 44.9781 58.8155 45.252 59.0209 45.5258C59.2263 45.7997 59.5881 45.9855 60.1065 46.1029C61.0552 46.2985 62.5516 46.2691 64.5957 45.9953C67.2952 45.6432 69.7892 44.9488 72.0778 43.8925C74.3665 42.8362 76.0976 41.6136 77.2615 40.2346C78.621 38.611 79.1296 36.9483 78.7872 35.2172C78.4449 33.4958 77.105 31.8918 74.787 30.415C72.469 28.9381 69.4762 27.8231 65.8085 27.0505C61.6225 26.18 57.3582 25.9062 53.0059 26.2485C48.6536 26.5908 44.6925 27.5493 41.1324 29.1239C37.5625 30.7084 34.8239 32.6254 32.9265 34.8944C30.9313 37.2613 30.1684 39.5108 30.6281 41.6136C31.0878 43.7262 32.7798 45.5649 35.6944 47.1298C38.609 48.6947 42.2571 49.9368 46.629 50.8562C51.3138 51.8342 55.5977 52.2254 59.4806 52.0298C63.3634 51.8342 66.6105 51.2865 69.2121 50.3965L74.0633 51.4039C72.3028 52.2255 69.8674 52.9296 66.767 53.5262C63.6666 54.1131 60.3315 54.3967 56.7616 54.3772C53.1917 54.3478 49.2502 53.8881 44.9468 52.9883C40.9857 52.157 37.5527 51.1203 34.6675 49.8684C31.7822 48.6165 29.6207 47.1983 28.1928 45.5943C26.7648 44.0001 26.0606 42.3472 26.0704 40.6649C26.1095 38.523 27.0093 36.4006 28.7894 34.2783C30.7748 31.9212 33.5525 29.8575 37.1419 28.097C41.5236 25.9355 46.3062 24.576 51.4801 24.0185C56.6638 23.461 62.1115 23.7838 67.8233 24.977C72.2539 25.8964 75.814 27.2265 78.5134 28.9381C81.2128 30.6595 82.7679 32.7036 83.1689 35.0705C83.4916 37.1048 82.8266 39.1098 81.1737 41.0659C78.8166 43.8729 74.8946 45.9855 69.4175 47.3939C64.5175 48.6653 60.1358 48.9001 56.2726 48.0981C55.0402 47.8438 54.1306 47.5308 53.534 47.1689C52.9276 46.8168 52.6147 46.4158 52.5658 45.9659ZM43.4992 37.9557C42.3745 39.2859 42.0811 40.4497 42.619 41.4278C43.1569 42.4058 44.1741 43.0611 45.6705 43.3643C46.6681 43.5697 47.8516 43.6284 49.2306 43.5404C50.5999 43.4524 52.0669 43.1883 53.6123 42.7579C55.1576 42.3276 56.6736 41.6821 58.1406 40.8214C59.6077 39.9607 60.7716 39.0511 61.6323 38.0731C62.7277 36.7332 62.982 35.5693 62.4049 34.5912C61.8181 33.6034 60.664 32.9286 58.9328 32.5667C57.7885 32.3319 56.5855 32.2635 55.3141 32.3711C54.0426 32.4787 52.6342 32.7818 51.1085 33.2904C49.5729 33.799 48.0961 34.4837 46.6877 35.3737C45.2597 36.2539 44.2034 37.1146 43.4992 37.9557Z" fill="url(#paint2_linear)"/>
<path d="M52.5658 45.9659C52.5364 45.6823 52.7125 45.2324 53.0939 44.626C51.3334 45.0955 49.5631 45.3889 47.7635 45.5258C45.9639 45.653 44.3404 45.5747 42.9026 45.2715C41.3182 44.939 39.9783 44.3619 38.9122 43.5502C37.8363 42.7384 37.2691 41.7016 37.2104 40.4595C37.1517 39.2174 37.6505 37.9753 38.7068 36.7234C39.9978 35.1781 42.0322 33.7892 44.7903 32.5471C47.5484 31.305 50.3358 30.5226 53.1526 30.1998C55.9694 29.877 58.3949 29.9259 60.4293 30.3563C61.9844 30.679 63.2852 31.2072 64.3219 31.9505C65.3684 32.684 66.0139 33.6132 66.278 34.7282L68.997 32.684L73.7894 33.6817L61.7887 42.621C60.1261 43.8729 59.2165 44.5673 59.06 44.7043C58.835 44.9781 58.8155 45.252 59.0209 45.5258C59.2263 45.7997 59.5881 45.9855 60.1065 46.1029C61.0552 46.2985 62.5516 46.2691 64.5957 45.9953C67.2952 45.6432 69.7892 44.9488 72.0778 43.8925C74.3665 42.8362 76.0976 41.6136 77.2615 40.2346C78.621 38.611 79.1296 36.9483 78.7872 35.2172C78.4449 33.4958 77.105 31.8918 74.787 30.415C72.469 28.9381 69.4762 27.8231 65.8085 27.0505C61.6225 26.18 57.3582 25.9062 53.0059 26.2485C48.6536 26.5908 44.6925 27.5493 41.1324 29.1239C37.5625 30.7084 34.8239 32.6254 32.9265 34.8944C30.9313 37.2613 30.1684 39.5108 30.6281 41.6136C31.0878 43.7262 32.7798 45.5649 35.6944 47.1298C38.609 48.6947 42.2571 49.9368 46.629 50.8562C51.3138 51.8342 55.5977 52.2254 59.4806 52.0298C63.3634 51.8342 66.6105 51.2865 69.2121 50.3965L74.0633 51.4039C72.3028 52.2255 69.8674 52.9296 66.767 53.5262C63.6666 54.1131 60.3315 54.3967 56.7616 54.3772C53.1917 54.3478 49.2502 53.8881 44.9468 52.9883C40.9857 52.157 37.5527 51.1203 34.6675 49.8684C31.7822 48.6165 29.6207 47.1983 28.1928 45.5943C26.7648 44.0001 26.0606 42.3472 26.0704 40.6649C26.1095 38.523 27.0093 36.4006 28.7894 34.2783C30.7748 31.9212 33.5525 29.8575 37.1419 28.097C41.5236 25.9355 46.3062 24.576 51.4801 24.0185C56.6638 23.461 62.1115 23.7838 67.8233 24.977C72.2539 25.8964 75.814 27.2265 78.5134 28.9381C81.2128 30.6595 82.7679 32.7036 83.1689 35.0705C83.4916 37.1048 82.8266 39.1098 81.1737 41.0659C78.8166 43.8729 74.8946 45.9855 69.4175 47.3939C64.5175 48.6653 60.1358 48.9001 56.2726 48.0981C55.0402 47.8438 54.1306 47.5308 53.534 47.1689C52.9276 46.8168 52.6147 46.4158 52.5658 45.9659ZM43.4992 37.9557C42.3745 39.2859 42.0811 40.4497 42.619 41.4278C43.1569 42.4058 44.1741 43.0611 45.6705 43.3643C46.6681 43.5697 47.8516 43.6284 49.2306 43.5404C50.5999 43.4524 52.0669 43.1883 53.6123 42.7579C55.1576 42.3276 56.6736 41.6821 58.1406 40.8214C59.6077 39.9607 60.7716 39.0511 61.6323 38.0731C62.7277 36.7332 62.982 35.5693 62.4049 34.5912C61.8181 33.6034 60.664 32.9286 58.9328 32.5667C57.7885 32.3319 56.5855 32.2635 55.3141 32.3711C54.0426 32.4787 52.6342 32.7818 51.1085 33.2904C49.5729 33.799 48.0961 34.4837 46.6877 35.3737C45.2597 36.2539 44.2034 37.1146 43.4992 37.9557Z" fill="#1D65AB"/>
<path d="M9.16047 117.317V110.05H7.02832V108.563H12.7303V110.05H10.5982V117.317H9.16047Z" fill="#1F65AA"/>
<path d="M13.6689 117.316V108.562H15.1165V112.005H17.9528V108.562H19.4003V117.316H17.9528V113.491H15.1165V117.316H13.6689Z" fill="#1F65AA"/>
<path d="M27.3713 117.316H25.7966L25.1707 115.34H22.305L21.7084 117.316H20.1729L22.9603 108.562H24.5056L27.3713 117.316ZM24.711 113.853L23.7134 110.606L22.7451 113.853H24.711Z" fill="#1F65AA"/>
<path d="M28.0957 117.316V108.562H29.5433V117.316H28.0957Z" fill="#1F65AA"/>
<path d="M34.7262 117.316L33.0049 108.562H34.4915L35.5674 114.577L36.8682 108.562H38.5895L39.8512 114.675L40.9466 108.562H42.4039L40.6826 117.316H39.1373L37.6995 110.772L36.2813 117.316H34.7262Z" fill="#1F65AA"/>
<path d="M43.167 117.316V108.562H48.4876V110.049H44.6145V111.985H48.2235V113.452H44.6243V115.829H48.6343V117.316H43.167Z" fill="#1F65AA"/>
<path d="M49.8467 108.562H52.7222C53.5046 108.562 54.0621 108.63 54.3751 108.777C54.6978 108.924 54.9619 109.168 55.1771 109.53C55.3923 109.892 55.5096 110.303 55.5096 110.763C55.5096 111.183 55.4118 111.565 55.226 111.907C55.0402 112.249 54.7956 112.494 54.4925 112.66C54.9228 112.807 55.2553 113.071 55.4901 113.433C55.7346 113.795 55.852 114.244 55.852 114.773C55.852 115.408 55.6955 115.946 55.3923 116.386C55.0891 116.827 54.7272 117.1 54.3066 117.198C54.0132 117.267 53.3384 117.306 52.2821 117.306H49.8369V108.562H49.8467ZM51.2942 110.019V112.034H52.2429C52.8102 112.034 53.1721 112.024 53.2992 112.005C53.5437 111.966 53.7394 111.858 53.8763 111.692C54.0132 111.525 54.0817 111.291 54.0817 111.007C54.0817 110.753 54.023 110.538 53.9154 110.381C53.798 110.225 53.6611 110.117 53.5046 110.078C53.3481 110.039 52.8787 110.019 52.1256 110.019H51.2942ZM51.2942 113.501V115.829H52.6341C53.221 115.829 53.6024 115.8 53.7687 115.741C53.935 115.682 54.0719 115.555 54.1893 115.379C54.3066 115.203 54.3555 114.968 54.3555 114.694C54.3555 114.411 54.2968 114.176 54.1697 113.99C54.0523 113.804 53.8861 113.677 53.6905 113.609C53.4851 113.54 53.0743 113.501 52.4581 113.501H51.2942Z" fill="#1F65AA"/>
<path d="M57.0654 117.316V108.562H59.2269L60.5277 114.538L61.809 108.562H63.99V117.316H62.6403V110.42L61.2123 117.316H59.8235L58.3956 110.42V117.316H57.0654Z" fill="#1F65AA"/>
<path d="M71.9025 117.316H70.3279L69.7019 115.34H66.8362L66.2396 117.316H64.7041L67.4915 108.562H69.0369L71.9025 117.316ZM69.2422 113.853L68.2446 110.606L67.2764 113.853H69.2422Z" fill="#1F65AA"/>
<path d="M75.2369 117.462C73.4764 117.462 72.4983 116.464 72.3027 114.459L73.7209 114.293C73.8774 115.408 74.3958 115.966 75.2858 115.966C75.726 115.966 76.0683 115.848 76.3128 115.623C76.5671 115.398 76.6845 115.115 76.6845 114.772C76.6845 114.577 76.6453 114.401 76.5573 114.264C76.4693 114.127 76.3421 114.009 76.1563 113.921C75.9802 113.833 75.5499 113.687 74.8555 113.472C74.2393 113.286 73.7894 113.08 73.496 112.865C73.2123 112.65 72.9776 112.357 72.8113 112.004C72.6451 111.652 72.557 111.271 72.557 110.86C72.557 110.381 72.6646 109.951 72.8798 109.569C73.095 109.188 73.3982 108.904 73.7796 108.708C74.161 108.513 74.6305 108.415 75.1978 108.415C76.0389 108.415 76.704 108.64 77.1735 109.1C77.643 109.559 77.8972 110.215 77.9266 111.066L76.4791 111.144C76.4106 110.674 76.2737 110.342 76.0683 110.156C75.8531 109.97 75.5499 109.872 75.1587 109.872C74.7675 109.872 74.4642 109.951 74.2491 110.117C74.0339 110.283 73.9263 110.479 73.9263 110.723C73.9263 110.958 74.0241 111.163 74.2197 111.32C74.4153 111.486 74.8555 111.662 75.5401 111.858C76.2639 112.073 76.792 112.288 77.1148 112.523C77.4376 112.758 77.6821 113.051 77.8581 113.423C78.0244 113.794 78.1124 114.234 78.1124 114.763C78.1124 115.525 77.8777 116.161 77.4082 116.68C76.9583 117.198 76.2248 117.462 75.2369 117.462Z" fill="#1F65AA"/>
<path d="M80.9593 117.316V110.049H78.8369V108.562H84.539V110.049H82.4068V117.316H80.9593Z" fill="#1F65AA"/>
<path d="M85.4775 117.316V108.562H90.7981V110.049H86.925V111.985H90.5243V113.452H86.925V115.829H90.935V117.316H85.4775Z" fill="#1F65AA"/>
<path d="M92.1582 117.316V108.562H95.2097C95.9921 108.562 96.5496 108.64 96.8821 108.797C97.2146 108.953 97.4885 109.227 97.7036 109.618C97.9188 110.01 98.0264 110.469 98.0264 111.007C98.0264 111.692 97.8601 112.239 97.5374 112.66C97.2146 113.081 96.7452 113.345 96.1388 113.442C96.4518 113.667 96.706 113.912 96.9114 114.176C97.1168 114.44 97.3907 114.919 97.7428 115.604L98.6132 117.316H96.8723L95.8356 115.408C95.4639 114.724 95.2097 114.293 95.0727 114.117C94.9358 113.941 94.7989 113.824 94.6424 113.755C94.4957 113.687 94.2512 113.658 93.9187 113.658H93.6252V117.316H92.1582ZM93.6155 112.269H94.6815C95.3368 112.269 95.7476 112.239 95.9334 112.181C96.1094 112.122 96.2562 112.005 96.3637 111.829C96.4713 111.653 96.53 111.418 96.53 111.134C96.53 110.86 96.4713 110.635 96.3637 110.459C96.2562 110.293 96.0997 110.176 95.9138 110.107C95.7769 110.068 95.3857 110.039 94.7402 110.039H93.6057V112.269H93.6155Z" fill="#1F65AA"/>
<path d="M7.37109 127.987L10.1292 119.243H11.1464L14.0805 127.987H12.9949L12.1635 125.336H9.14136L8.3687 127.987H7.37109ZM9.41521 124.397H11.8701L11.1268 121.972C10.8921 121.229 10.7258 120.622 10.6182 120.153C10.5204 120.71 10.3933 121.268 10.227 121.825L9.41521 124.397Z" fill="#1F65AA"/>
<path d="M16.917 125.139L17.8266 125.061C17.8755 125.54 17.9831 125.922 18.1493 126.186C18.3156 126.46 18.5601 126.675 18.8731 126.841C19.1861 127.007 19.5382 127.085 19.9294 127.085C20.4967 127.085 20.927 126.949 21.24 126.675C21.5529 126.401 21.7094 126.039 21.7094 125.599C21.7094 125.345 21.6507 125.12 21.5432 124.924C21.4258 124.728 21.2595 124.572 21.0346 124.455C20.8096 124.337 20.3108 124.161 19.5577 123.936C18.8829 123.731 18.4036 123.535 18.1102 123.33C17.8266 123.124 17.6016 122.87 17.4451 122.557C17.2887 122.244 17.2104 121.892 17.2104 121.501C17.2104 120.797 17.4354 120.22 17.895 119.77C18.3547 119.32 18.9709 119.095 19.7436 119.095C20.2717 119.095 20.7412 119.202 21.1422 119.408C21.5432 119.623 21.8561 119.926 22.0713 120.317C22.2963 120.709 22.4136 121.178 22.4234 121.706L21.5138 121.784C21.4649 121.217 21.2987 120.797 21.0052 120.523C20.7118 120.249 20.301 120.112 19.7729 120.112C19.235 120.112 18.8242 120.229 18.5406 120.474C18.2569 120.718 18.12 121.022 18.12 121.403C18.12 121.755 18.2276 122.029 18.433 122.225C18.6384 122.42 19.1078 122.616 19.8316 122.811C20.5358 123.007 21.0346 123.173 21.3182 123.32C21.7583 123.545 22.0811 123.838 22.306 124.2C22.531 124.562 22.6386 125.002 22.6386 125.501C22.6386 126 22.5212 126.46 22.2865 126.87C22.0517 127.281 21.729 127.594 21.328 127.809C20.927 128.024 20.438 128.132 19.8707 128.132C18.9807 128.132 18.2765 127.868 17.7483 127.33C17.2006 126.782 16.9366 126.059 16.917 125.139Z" fill="#1F65AA"/>
<path d="M25.9932 125.139L26.9027 125.061C26.9517 125.54 27.0592 125.922 27.2255 126.186C27.3918 126.46 27.6363 126.675 27.9493 126.841C28.2622 127.007 28.6143 127.085 29.0056 127.085C29.5728 127.085 30.0032 126.949 30.3161 126.675C30.6291 126.401 30.7856 126.039 30.7856 125.599C30.7856 125.345 30.7269 125.12 30.6193 124.924C30.502 124.728 30.3357 124.572 30.1107 124.455C29.8858 124.337 29.387 124.161 28.6339 123.936C27.959 123.731 27.4798 123.535 27.1864 123.33C26.9027 123.124 26.6778 122.87 26.5213 122.557C26.3648 122.244 26.2866 121.892 26.2866 121.501C26.2866 120.797 26.5115 120.22 26.9712 119.77C27.4309 119.32 28.0471 119.095 28.8197 119.095C29.3479 119.095 29.8173 119.202 30.2183 119.408C30.6193 119.623 30.9323 119.926 31.1475 120.317C31.3724 120.709 31.4898 121.178 31.4996 121.706L30.59 121.784C30.5411 121.217 30.3748 120.797 30.0814 120.523C29.788 120.249 29.3772 120.112 28.8491 120.112C28.3111 120.112 27.9004 120.229 27.6167 120.474C27.3331 120.718 27.1962 121.022 27.1962 121.403C27.1962 121.755 27.3037 122.029 27.5091 122.225C27.7145 122.42 28.184 122.616 28.9077 122.811C29.6119 123.007 30.1107 123.173 30.3944 123.32C30.8345 123.545 31.1573 123.838 31.3822 124.2C31.6072 124.562 31.7148 125.002 31.7148 125.501C31.7148 126 31.5974 126.46 31.3627 126.87C31.1279 127.281 30.8052 127.594 30.4042 127.809C30.0032 128.024 29.5141 128.132 28.9469 128.132C28.0568 128.132 27.3527 127.868 26.8245 127.33C26.2866 126.782 26.0127 126.059 25.9932 125.139Z" fill="#1F65AA"/>
<path d="M36.0082 126.744C35.4213 125.912 35.1279 124.905 35.1279 123.721C35.1279 122.235 35.4605 121.09 36.1158 120.288C36.7711 119.486 37.5926 119.085 38.5707 119.085C39.2064 119.085 39.7834 119.261 40.3018 119.623C40.8202 119.985 41.231 120.504 41.5439 121.178C41.8471 121.863 42.0036 122.675 42.0036 123.614C42.0036 124.905 41.7102 125.961 41.1234 126.783C40.4779 127.682 39.627 128.132 38.5804 128.132C37.4948 128.132 36.6439 127.663 36.0082 126.744ZM36.1158 123.741C36.1158 124.817 36.3505 125.648 36.8297 126.245C37.2992 126.841 37.8763 127.135 38.5609 127.135C39.2553 127.135 39.8323 126.832 40.3018 126.235C40.7713 125.638 41.006 124.758 41.006 123.594C41.006 122.841 40.8886 122.176 40.6441 121.579C40.4583 121.13 40.1747 120.768 39.803 120.494C39.4313 120.22 39.0206 120.083 38.5707 120.083C37.8567 120.083 37.2699 120.376 36.8102 120.973C36.3407 121.57 36.1158 122.489 36.1158 123.741Z" fill="#1F65AA"/>
<path d="M50.6888 124.914L51.6376 125.208C51.4224 126.186 51.0605 126.919 50.5324 127.408C50.0042 127.888 49.3587 128.132 48.6056 128.132C47.9405 128.132 47.3733 127.966 46.9038 127.643C46.4343 127.32 46.0431 126.802 45.7497 126.088C45.4465 125.374 45.2998 124.523 45.2998 123.555C45.2998 122.596 45.4465 121.775 45.7497 121.11C46.0529 120.444 46.4539 119.936 46.9723 119.603C47.4906 119.261 48.0579 119.095 48.6936 119.095C49.388 119.095 49.9847 119.31 50.4835 119.74C50.9823 120.171 51.3344 120.797 51.53 121.628L50.6008 121.902C50.2781 120.699 49.6423 120.092 48.6839 120.092C48.2046 120.092 47.7938 120.21 47.4417 120.454C47.0896 120.699 46.8158 121.08 46.6006 121.599C46.3952 122.117 46.2876 122.772 46.2876 123.555C46.2876 124.748 46.5028 125.648 46.9234 126.244C47.3439 126.841 47.9112 127.144 48.6056 127.144C49.124 127.144 49.5739 126.958 49.9455 126.596C50.3074 126.215 50.5617 125.658 50.6888 124.914Z" fill="#1F65AA"/>
<path d="M55.3936 127.985V119.242H56.3424V127.985H55.3936Z" fill="#1F65AA"/>
<path d="M59.6182 127.985L62.3763 119.242H63.3935L66.3277 127.985H65.242L64.4107 125.335H61.3885L60.6158 127.985H59.6182ZM61.6623 124.396H64.1172L63.3739 121.97C63.1392 121.227 62.9729 120.621 62.8653 120.151C62.7675 120.709 62.6404 121.266 62.4741 121.824L61.6623 124.396Z" fill="#1F65AA"/>
<path d="M70.5827 127.985V120.269H68.2158V119.242H73.9081V120.269H71.5314V127.985H70.5827Z" fill="#1F65AA"/>
<path d="M77.4385 127.985V119.242H78.3873V127.985H77.4385Z" fill="#1F65AA"/>
<path d="M83.0629 126.744C82.476 125.912 82.1826 124.905 82.1826 123.721C82.1826 122.235 82.5054 121.09 83.1704 120.288C83.8257 119.486 84.6473 119.085 85.6253 119.085C86.2611 119.085 86.8381 119.261 87.3565 119.623C87.8748 119.985 88.2856 120.504 88.5986 121.178C88.9018 121.863 89.0583 122.675 89.0583 123.614C89.0583 124.905 88.7649 125.961 88.178 126.783C87.5325 127.682 86.6816 128.132 85.6351 128.132C84.5593 128.132 83.7084 127.663 83.0629 126.744ZM83.1704 123.741C83.1704 124.817 83.4052 125.648 83.8844 126.245C84.3539 126.841 84.9309 127.135 85.6156 127.135C86.31 127.135 86.887 126.832 87.3565 126.235C87.8259 125.638 88.0607 124.758 88.0607 123.594C88.0607 122.841 87.9433 122.176 87.6988 121.579C87.513 121.13 87.2293 120.768 86.8577 120.494C86.486 120.22 86.0752 120.083 85.6253 120.083C84.9114 120.083 84.3245 120.376 83.8649 120.973C83.3954 121.57 83.1704 122.489 83.1704 123.741Z" fill="#1F65AA"/>
<path d="M92.6182 127.985V119.242H93.5962L97.3617 126.137V119.242H98.2713V127.985H97.303L93.5473 121.11V127.985H92.6182Z" fill="#1F65AA"/>
<path d="M13.5127 97.0016C13.3855 97.1874 13.2095 97.3439 12.9748 97.5004C12.7498 97.6178 12.5151 97.7058 12.2608 97.7449C12.5933 98.0481 12.7596 98.4296 12.7596 98.8795V103.457H11.9185L10.3145 100.053C10.246 99.926 10.1482 99.8184 10.0015 99.7304C9.91347 99.6619 9.7961 99.6326 9.64939 99.6326C9.59071 99.6326 9.54181 99.6326 9.51247 99.6424C9.12125 99.701 8.92564 99.9358 8.92564 100.347V101.52C8.96476 101.51 9.00388 101.491 9.05279 101.491C9.10169 101.481 9.18971 101.471 9.31686 101.462C9.61027 101.462 9.86456 101.559 10.07 101.755C10.2753 101.951 10.3829 102.195 10.3829 102.488C10.3829 102.635 10.3536 102.772 10.3047 102.889C10.2558 103.007 10.1678 103.134 10.0602 103.251C9.87435 103.457 9.61027 103.564 9.28752 103.564C8.92564 103.564 8.64201 103.457 8.43662 103.251C8.23123 103.026 8.12364 102.753 8.12364 102.43V100.278C8.12364 99.9553 8.23123 99.6913 8.4464 99.4859C8.64201 99.2805 8.86696 99.1435 9.11147 99.0946C9.18971 99.0849 9.2973 99.0653 9.43422 99.0555C9.57115 99.036 9.65917 99.0262 9.6983 99.0262C9.85478 99.0262 10.0015 99.036 10.1286 99.0653C10.2558 99.0946 10.3829 99.1338 10.5003 99.2022C10.7155 99.3 10.872 99.4761 10.9893 99.7304L11.9478 101.814V99.0653C11.9478 98.7132 11.7913 98.4198 11.4881 98.1655C11.1751 97.9112 10.8035 97.7841 10.3634 97.7841C9.47335 97.7841 8.87674 98.1362 8.58332 98.8404H7.73242C7.88891 98.322 8.20188 97.9014 8.69091 97.5884C8.93542 97.4515 9.19949 97.3342 9.48313 97.2657C9.76676 97.1874 10.07 97.1483 10.4123 97.1483C10.5394 97.1483 10.6666 97.1581 10.7839 97.1679C10.9013 97.1777 11.0284 97.1972 11.1751 97.2363C11.2534 97.2559 11.3219 97.2657 11.4001 97.2853C11.4881 97.3146 11.5761 97.3342 11.6642 97.3635C11.6935 97.3733 11.7424 97.3831 11.8011 97.3831C11.9478 97.3831 12.1043 97.3244 12.251 97.2168C12.4564 97.0505 12.6227 96.8451 12.7498 96.5811L13.5127 97.0016ZM9.78632 102.469C9.78632 102.361 9.73742 102.264 9.62983 102.166C9.55159 102.078 9.444 102.029 9.30708 102.029C9.17993 102.029 9.07235 102.078 8.96476 102.166C8.8963 102.234 8.85718 102.332 8.83762 102.469C8.83762 102.537 8.8474 102.606 8.86696 102.655C8.88652 102.704 8.91586 102.753 8.96476 102.792C9.01366 102.831 9.06257 102.85 9.12125 102.87C9.17015 102.889 9.23861 102.899 9.31686 102.909C9.3951 102.909 9.45378 102.899 9.50269 102.889C9.55159 102.87 9.60049 102.841 9.64939 102.792C9.73742 102.694 9.78632 102.586 9.78632 102.469Z" fill="#1F65AA"/>
<path d="M19.7817 102.596C19.7817 103.163 19.5274 103.456 19.0286 103.456H18.7449C18.6178 103.085 18.3537 102.713 17.9625 102.341C17.7571 102.146 17.5419 101.979 17.317 101.852C17.092 101.725 16.8671 101.627 16.6323 101.559V102.508C16.6323 102.791 16.5443 103.026 16.3585 103.222C16.1727 103.407 15.9184 103.505 15.5956 103.505C15.2631 103.505 14.9794 103.388 14.7251 103.163C14.4904 102.909 14.373 102.596 14.373 102.224C14.373 101.872 14.5198 101.559 14.8229 101.285C14.9697 101.148 15.1359 101.05 15.312 100.982C15.488 100.913 15.6739 100.874 15.8695 100.874V99.192C15.8303 99.2116 15.7912 99.2214 15.7423 99.2312C15.6934 99.2409 15.6054 99.2507 15.4782 99.2605C15.1848 99.2605 14.9208 99.1627 14.6958 98.9671C14.598 98.8791 14.5198 98.7715 14.4611 98.6541C14.4024 98.5367 14.373 98.3998 14.373 98.2433C14.373 97.9597 14.4806 97.7152 14.686 97.5C14.8914 97.2848 15.1555 97.1772 15.4782 97.1772C15.8303 97.1772 16.114 97.2848 16.3096 97.5C16.5248 97.6956 16.6323 97.9597 16.6323 98.302V100.923C16.8182 100.943 17.004 100.992 17.2094 101.07C17.4148 101.158 17.63 101.275 17.8647 101.422C18.3146 101.696 18.6765 102.019 18.9601 102.4V97.2359H19.7719V102.596H19.7817ZM15.9086 98.2433C15.9086 98.126 15.8597 98.0281 15.7717 97.9401C15.6836 97.8521 15.576 97.8032 15.4489 97.8032C15.3218 97.8032 15.2142 97.8521 15.1164 97.9499C15.0381 98.0086 14.999 98.1162 14.9794 98.2531C14.9794 98.3216 14.9892 98.3802 15.0088 98.4292C15.0283 98.4781 15.0577 98.527 15.1164 98.5759C15.1653 98.6052 15.2142 98.6345 15.2631 98.6541C15.312 98.6737 15.3804 98.6834 15.4587 98.6932C15.5858 98.6932 15.6934 98.6541 15.7814 98.5661C15.8695 98.4683 15.9086 98.3705 15.9086 98.2433ZM15.8695 102.41V101.549C15.6543 101.549 15.4782 101.608 15.3315 101.735C15.1946 101.862 15.1261 102.019 15.1261 102.195C15.1261 102.361 15.1653 102.498 15.2337 102.605C15.3022 102.713 15.4196 102.772 15.5663 102.791C15.7619 102.801 15.8695 102.674 15.8695 102.41Z" fill="#1F65AA"/>
<path d="M25.1414 103.456H24.3296V99.0254C24.3296 98.6537 24.2123 98.3407 23.9873 98.0962C23.7526 97.8615 23.4298 97.7441 23.0386 97.7441C22.6865 97.7441 22.3931 97.8322 22.1681 98.018C21.9334 98.2038 21.7574 98.4581 21.6204 98.8004H20.7695C20.9065 98.3016 21.1705 97.8908 21.5715 97.5779C21.9627 97.2649 22.4616 97.1084 23.0582 97.1084C23.6646 97.1084 24.1634 97.2649 24.5546 97.5876C24.9458 97.9006 25.1414 98.331 25.1414 98.8787V103.456Z" fill="#1F65AA"/>
<path d="M31.6259 103.456H30.8141V99.4073C30.8141 98.9672 30.6772 98.5858 30.4033 98.263C30.0904 97.9109 29.6698 97.7349 29.1123 97.7349C28.5842 97.7349 28.1538 97.8914 27.8213 98.2043C27.4888 98.5173 27.3225 98.889 27.3225 99.3095C27.3225 99.4464 27.3225 99.5931 27.3421 99.7399C27.3518 99.8866 27.3714 100.033 27.4007 100.19L27.5963 101.178V101.559V101.686C27.5963 101.764 27.5963 101.843 27.5963 101.921C27.5866 101.999 27.5768 102.048 27.5768 102.087L27.7039 101.148C27.7724 100.796 27.8506 100.473 27.9387 100.2C28.0267 99.9159 28.1245 99.6616 28.2516 99.4073C28.4766 98.9379 28.8287 98.7031 29.3275 98.7031C29.6111 98.7031 29.8654 98.8009 30.0904 99.0063C30.3153 99.2117 30.4229 99.4562 30.4229 99.7594C30.4229 100.043 30.3153 100.297 30.1099 100.493C29.9045 100.698 29.6405 100.796 29.3275 100.796C29.0634 100.796 28.8287 100.718 28.6135 100.552C28.5157 100.816 28.3788 101.266 28.2027 101.911C28.1343 102.175 28.0658 102.439 28.0169 102.694C27.9582 102.948 27.8995 103.192 27.8506 103.437H26.9802V102.459C26.9802 102.038 26.8824 101.373 26.6868 100.464C26.6476 100.239 26.6085 100.014 26.5792 99.7888C26.5498 99.5638 26.5303 99.3975 26.5303 99.2802C26.5303 98.6934 26.765 98.1848 27.2345 97.7544C27.7528 97.3045 28.3983 97.0894 29.1808 97.0894C29.9241 97.0894 30.5207 97.2947 30.9706 97.7055C31.4205 98.1261 31.6455 98.6249 31.6455 99.2215V103.456H31.6259ZM29.7872 99.7692C29.7872 99.6518 29.7383 99.554 29.6405 99.4562C29.5622 99.3584 29.4546 99.3095 29.3079 99.3095C29.171 99.3095 29.0634 99.3584 28.9656 99.4562C28.8971 99.5149 28.858 99.6225 28.8287 99.7692C28.8287 99.8963 28.8776 100.004 28.9656 100.092C29.0145 100.131 29.0732 100.16 29.1514 100.18C29.2297 100.2 29.2786 100.209 29.3079 100.209C29.3862 100.209 29.4449 100.2 29.484 100.19C29.5329 100.17 29.5818 100.141 29.6307 100.092C29.7383 99.9942 29.7872 99.8866 29.7872 99.7692Z" fill="#1F65AA"/>
<path d="M38.3354 102.596C38.3354 103.163 38.0811 103.456 37.5823 103.456H37.2986C37.1715 103.085 36.9074 102.713 36.5162 102.341C36.3108 102.146 36.0957 101.979 35.8707 101.852C35.6457 101.725 35.4208 101.627 35.1861 101.559V102.508C35.1861 102.791 35.0883 103.026 34.9122 103.222C34.7264 103.407 34.4721 103.505 34.1396 103.505C33.807 103.505 33.5234 103.388 33.2691 103.163C33.0344 102.909 32.917 102.596 32.917 102.224C32.917 101.872 33.0637 101.559 33.3669 101.285C33.5136 101.148 33.6799 101.05 33.8559 100.982C34.032 100.913 34.2178 100.874 34.4134 100.874V99.192C34.3743 99.2116 34.3352 99.2214 34.2863 99.2312C34.2374 99.2409 34.1493 99.2507 34.0222 99.2605C33.7288 99.2605 33.4647 99.1627 33.2397 98.9671C33.1419 98.8791 33.0637 98.7715 33.005 98.6541C32.9463 98.5367 32.917 98.3998 32.917 98.2433C32.917 97.9597 33.0148 97.7152 33.23 97.5C33.4354 97.2848 33.6994 97.1772 34.0222 97.1772C34.3743 97.1772 34.6579 97.2848 34.8535 97.5C35.0687 97.6956 35.1763 97.9597 35.1763 98.302V100.923C35.3621 100.943 35.5479 100.992 35.7533 101.07C35.9587 101.158 36.1739 101.275 36.4086 101.422C36.8585 101.696 37.2204 102.019 37.504 102.4V97.2359H38.3158V102.596H38.3354ZM34.4721 98.2433C34.4721 98.126 34.4232 98.0281 34.3352 97.9401C34.2471 97.8521 34.1396 97.8032 34.0124 97.8032C33.8853 97.8032 33.7777 97.8521 33.6799 97.9499C33.6114 98.0086 33.5625 98.1162 33.5527 98.2531C33.5527 98.3216 33.5625 98.3802 33.5821 98.4292C33.6016 98.4781 33.631 98.527 33.6896 98.5759C33.7386 98.6052 33.7875 98.6345 33.8364 98.6541C33.8853 98.6737 33.9537 98.6834 34.032 98.6932C34.1591 98.6932 34.2667 98.6541 34.3547 98.5661C34.4232 98.4683 34.4721 98.3705 34.4721 98.2433ZM34.4232 102.41V101.549C34.208 101.549 34.032 101.608 33.8853 101.735C33.7483 101.862 33.6799 102.019 33.6799 102.195C33.6799 102.361 33.7092 102.498 33.7875 102.605C33.8559 102.713 33.9733 102.772 34.12 102.791C34.3156 102.801 34.4232 102.674 34.4232 102.41Z" fill="#1F65AA"/>
<path d="M44.7807 102.488C44.7807 102.83 44.7123 103.085 44.5656 103.231C44.4384 103.378 44.2428 103.447 43.9787 103.447H43.6951L42.3747 100.561L41.0642 103.447H39.9785V98.2922C39.9785 97.9597 40.0861 97.6858 40.2915 97.4805C40.4969 97.2751 40.7903 97.1675 41.162 97.1675C41.4749 97.1675 41.739 97.2751 41.9444 97.4902C42.1596 97.6858 42.2672 97.9304 42.2672 98.2336C42.2672 98.5074 42.1596 98.7519 41.9542 98.9475C41.7488 99.1529 41.4945 99.2507 41.1913 99.2507C41.0739 99.2507 40.9957 99.2507 40.9566 99.2409C40.9077 99.2409 40.8588 99.2214 40.8001 99.192V102.322L42.1009 99.5637H42.6779L43.969 102.322V97.2359H44.7807V102.488ZM41.6608 98.2433C41.6608 98.126 41.6119 98.0282 41.5238 97.9401C41.4358 97.8423 41.3282 97.7934 41.2011 97.7934C41.0739 97.7934 40.9663 97.8423 40.8685 97.9401C40.8001 97.9988 40.761 98.1064 40.7414 98.2433C40.7414 98.3118 40.7512 98.3705 40.7707 98.4194C40.7903 98.4683 40.8196 98.5172 40.8685 98.5563C40.9174 98.5954 40.9761 98.6248 41.0446 98.6443C41.1228 98.6639 41.1717 98.6737 41.2011 98.6737C41.2793 98.6737 41.338 98.6639 41.3771 98.6541C41.4163 98.6346 41.4749 98.6052 41.5238 98.5563C41.6119 98.4781 41.6608 98.3705 41.6608 98.2433Z" fill="#1F65AA"/>
<path d="M44.7805 106.165C44.7805 106.557 44.6827 106.86 44.4968 107.055C44.311 107.251 43.998 107.349 43.5677 107.349H41.6018V106.791C41.817 106.791 41.9735 106.762 42.0615 106.703C42.1397 106.635 42.1691 106.498 42.1691 106.312V105.979L41.8365 106.048C41.5431 106.048 41.2888 105.95 41.0932 105.764C40.8976 105.578 40.7998 105.344 40.7998 105.06C40.7998 104.776 40.8976 104.542 41.0932 104.356C41.2888 104.17 41.5333 104.072 41.8365 104.072C42.1691 104.072 42.4429 104.17 42.6483 104.375C42.8635 104.561 42.9809 104.806 42.9809 105.119V106.772H43.2743C43.5677 106.772 43.7535 106.723 43.8415 106.625C43.8709 106.566 43.9002 106.498 43.9198 106.41C43.9393 106.322 43.9491 106.214 43.9491 106.077V104.131L44.7609 104.121V106.165H44.7805ZM42.2962 105.05C42.2962 104.933 42.2571 104.835 42.1789 104.757C42.1006 104.679 41.993 104.64 41.8561 104.62C41.7289 104.62 41.6311 104.659 41.5529 104.737C41.4747 104.816 41.4258 104.923 41.416 105.05C41.416 105.168 41.4551 105.275 41.5431 105.354C41.6116 105.422 41.7192 105.461 41.8561 105.481C41.9832 105.481 42.081 105.442 42.1593 105.363C42.2278 105.295 42.2767 105.187 42.2962 105.05Z" fill="#1F65AA"/>
<path d="M45.9844 94.008C45.9159 94.6633 45.6225 95.1719 45.0944 95.5436C44.8694 95.6903 44.6151 95.8076 44.3315 95.8957C44.0478 95.9739 43.7447 96.0228 43.4121 96.0228C43.148 96.0228 42.8742 95.9935 42.6101 95.9348C42.7568 95.8565 42.884 95.7587 42.972 95.6511C43.0698 95.5436 43.1383 95.4066 43.1872 95.2501L43.0209 95.2697C42.7862 95.2697 42.571 95.1915 42.3754 95.0154C42.2971 94.9372 42.2385 94.8394 42.1896 94.7416C42.1407 94.634 42.1211 94.5264 42.1211 94.409C42.1211 94.1743 42.2091 93.9689 42.3754 93.8026C42.4634 93.7244 42.5612 93.6657 42.6688 93.6168C42.7764 93.5679 42.8937 93.5483 43.0209 93.5483C43.3045 93.5483 43.5393 93.6364 43.7251 93.8124C43.9109 93.9885 44.0087 94.2134 44.0087 94.4677C44.0087 94.6731 43.9892 94.8296 43.9598 94.9665C43.9207 95.1034 43.8914 95.1915 43.8718 95.2501C43.8522 95.3088 43.8033 95.3773 43.7447 95.4653C43.9598 95.4653 44.1457 95.4262 44.3315 95.3382C44.5173 95.2599 44.6836 95.1328 44.8498 94.9665C45.1433 94.6829 45.2802 94.3699 45.2802 94.008H45.9844ZM43.4023 94.3992C43.4023 94.145 43.2654 94.008 43.0013 94.008C42.7275 94.008 42.5906 94.1352 42.5906 94.3992C42.5906 94.6438 42.7275 94.7709 43.0013 94.7709C43.2654 94.7709 43.4023 94.6438 43.4023 94.3992Z" fill="#1F65AA"/>
<path d="M51.2558 103.456H50.444V99.4068C50.444 98.9373 50.3071 98.5559 50.043 98.2527C49.7496 97.9104 49.329 97.7441 48.7911 97.7441C48.2825 97.7441 47.8717 97.8811 47.5392 98.1647C47.2067 98.4483 47.0208 98.7222 46.9915 98.9765L46.9622 99.5535C46.9622 99.7296 46.9817 99.9252 47.0111 100.16C47.0404 100.385 47.0991 100.659 47.1773 100.991C47.324 101.637 47.3925 102.067 47.3925 102.272C47.4316 102.204 47.4707 102.145 47.5099 102.077C47.549 102.008 47.6077 101.94 47.6664 101.852C47.7055 101.783 47.7544 101.725 47.8033 101.666C47.8717 101.578 47.95 101.49 48.038 101.382L48.5759 100.776C48.351 100.727 48.1456 100.61 47.9695 100.414C47.8131 100.209 47.7348 99.9936 47.7348 99.7589C47.7348 99.4948 47.8424 99.2405 48.0478 99.0254C48.2727 98.82 48.5368 98.7124 48.84 98.7124C49.1236 98.7124 49.3877 98.82 49.6029 99.0254C49.7105 99.1232 49.7887 99.2308 49.8474 99.3481C49.9061 99.4753 49.9354 99.6122 49.9354 99.7589C49.9354 99.9741 49.8963 100.14 49.8181 100.267C49.7789 100.346 49.73 100.424 49.6714 100.502C49.6127 100.58 49.554 100.659 49.4953 100.717L48.5564 101.852C48.351 102.126 48.1456 102.409 47.9304 102.713C47.725 103.016 47.5783 103.26 47.4903 103.446H46.6101V102.546C46.6101 102.331 46.5905 102.106 46.5612 101.862C46.5318 101.617 46.4731 101.314 46.3949 100.942C46.3166 100.571 46.2482 100.258 46.2188 100.003C46.1797 99.7491 46.1602 99.5144 46.1602 99.2992C46.1602 98.6831 46.3949 98.1647 46.8741 97.7441C47.3534 97.3138 47.9989 97.1084 48.8107 97.1084C49.5442 97.1084 50.1408 97.3138 50.5907 97.7246C51.0504 98.1353 51.2754 98.6439 51.2754 99.2405V103.456H51.2558ZM49.3095 99.7687C49.3095 99.6513 49.2606 99.5535 49.1628 99.4557C49.0747 99.3579 48.9672 99.309 48.8302 99.309C48.6933 99.309 48.5759 99.3579 48.4781 99.4557C48.3999 99.5242 48.3608 99.622 48.3412 99.7687C48.3412 99.8372 48.351 99.8958 48.3705 99.9447C48.3901 99.9936 48.4292 100.043 48.4781 100.101C48.527 100.14 48.5759 100.16 48.6248 100.179C48.6737 100.199 48.7422 100.209 48.8302 100.219C48.9574 100.219 49.0747 100.179 49.1628 100.101C49.2606 99.9936 49.3095 99.8861 49.3095 99.7687Z" fill="#1F65AA"/>
<path d="M51.2648 106.165C51.2648 106.557 51.167 106.86 50.9812 107.055C50.7954 107.251 50.4824 107.349 50.052 107.349H48.0862V106.791C48.3013 106.791 48.4578 106.762 48.5458 106.703C48.6241 106.635 48.6534 106.498 48.6534 106.312V105.979L48.3209 106.048C48.0275 106.048 47.7732 105.95 47.5874 105.764C47.3918 105.578 47.2939 105.344 47.2939 105.06C47.2939 104.776 47.3918 104.542 47.5874 104.356C47.783 104.17 48.0275 104.072 48.3209 104.072C48.6534 104.072 48.9273 104.17 49.1327 104.375C49.3479 104.561 49.4652 104.806 49.4652 105.119V106.772H49.7586C50.052 106.772 50.2379 106.723 50.3259 106.625C50.3552 106.566 50.3846 106.498 50.4041 106.41C50.4237 106.322 50.4335 106.214 50.4335 106.077V104.131L51.2453 104.121V106.165H51.2648ZM48.7806 105.05C48.7806 104.933 48.7415 104.835 48.6632 104.757C48.585 104.679 48.4774 104.64 48.3405 104.62C48.2133 104.62 48.1155 104.659 48.0373 104.737C47.959 104.816 47.9101 104.923 47.9003 105.05C47.9003 105.168 47.9395 105.275 48.0275 105.354C48.0959 105.422 48.2035 105.461 48.3405 105.481C48.4676 105.481 48.5654 105.442 48.6437 105.363C48.7219 105.295 48.761 105.187 48.7806 105.05Z" fill="#1F65AA"/>
<path d="M55.4322 102.468C55.4322 102.615 55.4028 102.752 55.3539 102.869C55.305 102.987 55.217 103.104 55.1094 103.221C54.904 103.427 54.6498 103.534 54.327 103.534C53.9651 103.534 53.6717 103.427 53.4565 103.221C53.2511 102.997 53.1436 102.723 53.1436 102.4V97.2456H53.9553V101.51C54.014 101.481 54.1509 101.461 54.3466 101.451C54.6302 101.451 54.8845 101.549 55.0997 101.735C55.3246 101.93 55.4322 102.175 55.4322 102.468ZM54.8258 102.459C54.8258 102.341 54.7769 102.243 54.6889 102.155C54.5911 102.067 54.4835 102.018 54.3563 102.018C54.2194 102.018 54.1118 102.067 54.014 102.155C53.9358 102.224 53.8967 102.322 53.8771 102.459C53.8771 102.527 53.8869 102.586 53.9064 102.635C53.926 102.684 53.9553 102.732 54.014 102.781C54.0629 102.811 54.1118 102.84 54.1607 102.86C54.2096 102.879 54.2781 102.889 54.3563 102.899C54.4835 102.899 54.5911 102.86 54.6889 102.772C54.7769 102.693 54.8258 102.586 54.8258 102.459ZM58.5326 102.468C58.5326 102.615 58.5033 102.752 58.4544 102.869C58.4055 102.987 58.3174 103.104 58.2098 103.221C58.0045 103.427 57.7502 103.534 57.4274 103.534C57.0655 103.534 56.7721 103.427 56.5569 103.221C56.4591 103.114 56.3809 102.997 56.332 102.86C56.2733 102.723 56.244 102.566 56.244 102.41V97.2554H57.0557V101.52C57.1242 101.49 57.2514 101.471 57.447 101.461C57.7306 101.461 57.9849 101.559 58.2001 101.745C58.425 101.93 58.5326 102.175 58.5326 102.468ZM57.9262 102.459C57.9262 102.341 57.8773 102.243 57.7795 102.155C57.7013 102.067 57.5937 102.018 57.4568 102.018C57.3198 102.018 57.2122 102.067 57.1144 102.155C57.0362 102.224 56.9971 102.322 56.9775 102.459C56.9775 102.527 56.9873 102.586 57.0068 102.635C57.0264 102.684 57.0655 102.732 57.1144 102.781C57.1633 102.811 57.2122 102.84 57.2611 102.86C57.31 102.879 57.3785 102.889 57.4568 102.899C57.5839 102.899 57.6915 102.86 57.7893 102.772C57.8773 102.693 57.9262 102.586 57.9262 102.459Z" fill="#1F65AA"/>
<path d="M64.4002 103.456H63.5591L61.9551 100.053C61.8866 99.9257 61.7888 99.8181 61.6421 99.73C61.5541 99.6714 61.4367 99.6322 61.29 99.6322C61.2313 99.6322 61.1824 99.6322 61.1531 99.642C60.7619 99.7007 60.5663 99.9354 60.5663 100.346V101.52C60.6054 101.5 60.6445 101.491 60.6934 101.481C60.7423 101.471 60.8303 101.461 60.9575 101.451C61.2509 101.451 61.5052 101.549 61.7106 101.735C61.916 101.931 62.0236 102.175 62.0236 102.469C62.0236 102.615 62.004 102.752 61.9453 102.87C61.8964 102.987 61.8084 103.104 61.7008 103.222C61.515 103.427 61.2509 103.535 60.9281 103.535C60.5663 103.535 60.2826 103.427 60.0772 103.222C59.8719 102.997 59.7643 102.723 59.7643 102.4V100.248C59.7643 99.9257 59.8718 99.6616 60.087 99.4562C60.2826 99.2508 60.5076 99.1139 60.7619 99.065C60.8401 99.0454 60.9477 99.0356 61.0846 99.0161C61.2216 98.9965 61.3096 98.9867 61.3487 98.9867C61.5052 98.9867 61.6519 98.9965 61.779 99.0259C61.9062 99.0552 62.0333 99.0943 62.1507 99.1628C62.3659 99.2606 62.5224 99.4366 62.6397 99.6909L63.5982 101.774V99.0161C63.5982 98.6738 63.4417 98.3706 63.1385 98.1163C62.8256 97.862 62.4539 97.7348 62.0138 97.7348C61.1238 97.7348 60.5271 98.0869 60.2337 98.7911H59.373C59.5295 98.263 59.8425 97.8522 60.3315 97.5392C60.576 97.4023 60.8401 97.2849 61.1238 97.2165C61.4074 97.1382 61.7106 97.0991 62.0529 97.0991C62.7278 97.0991 63.2852 97.2556 63.7351 97.5784C64.185 97.9011 64.41 98.3217 64.41 98.8596V103.456H64.4002ZM61.4367 102.459C61.4367 102.351 61.3878 102.244 61.29 102.156C61.2118 102.068 61.1042 102.019 60.9575 102.019C60.8401 102.019 60.7228 102.068 60.6152 102.156C60.5467 102.224 60.4978 102.322 60.488 102.459C60.488 102.527 60.4978 102.586 60.5174 102.635C60.5369 102.684 60.5663 102.733 60.6152 102.782C60.6641 102.811 60.713 102.84 60.7619 102.86C60.8108 102.879 60.8792 102.889 60.9575 102.899C61.0357 102.899 61.0944 102.889 61.1433 102.87C61.1922 102.85 61.2411 102.821 61.29 102.782C61.378 102.684 61.4367 102.576 61.4367 102.459Z" fill="#1F65AA"/>
<path d="M68.567 102.468C68.567 102.615 68.5376 102.752 68.4887 102.869C68.4398 102.987 68.3518 103.104 68.2344 103.221C68.029 103.427 67.7747 103.534 67.452 103.534C67.0901 103.534 66.8065 103.427 66.5815 103.221C66.3761 102.997 66.2686 102.723 66.2686 102.4V97.2456H67.0803V101.51C67.139 101.481 67.2759 101.461 67.4716 101.451C67.765 101.451 68.0095 101.549 68.2247 101.735C68.4594 101.93 68.567 102.175 68.567 102.468ZM67.9508 102.459C67.9508 102.341 67.9019 102.243 67.8139 102.155C67.7161 102.067 67.6085 102.018 67.4813 102.018C67.3444 102.018 67.2368 102.067 67.139 102.155C67.0608 102.224 67.0119 102.322 67.0021 102.459C67.0021 102.527 67.0119 102.586 67.0314 102.635C67.051 102.684 67.0901 102.732 67.139 102.781C67.1879 102.811 67.2368 102.84 67.2857 102.86C67.3346 102.879 67.4031 102.889 67.4813 102.899C67.6085 102.899 67.7161 102.86 67.8139 102.772C67.9019 102.693 67.9508 102.586 67.9508 102.459Z" fill="#1F65AA"/>
<path d="M73.9068 102.4C73.9068 102.732 73.7992 103.006 73.5939 103.221C73.3885 103.427 73.095 103.534 72.7234 103.534C72.4104 103.534 72.1463 103.427 71.9312 103.221C71.7258 102.996 71.6182 102.742 71.6182 102.458C71.6182 102.175 71.7258 101.94 71.9409 101.735C72.1561 101.539 72.4104 101.431 72.7038 101.431C72.8212 101.431 72.8994 101.431 72.9386 101.441C72.9875 101.441 73.0364 101.461 73.095 101.49V99.0059C73.095 98.644 72.9483 98.3408 72.6549 98.0865C72.3615 97.842 72.0094 97.7148 71.5888 97.7148C71.2172 97.7148 70.8651 97.8029 70.5228 97.9887C70.2294 98.1745 70.0142 98.4386 69.887 98.7711H69.0361C69.2122 98.2234 69.5349 97.8126 69.9946 97.5192C70.2391 97.3823 70.4837 97.2649 70.7575 97.1965C71.0216 97.1182 71.315 97.0791 71.6378 97.0791C72.2833 97.0791 72.8212 97.2356 73.2515 97.5583C73.6917 97.8811 73.9068 98.3115 73.9068 98.8396V102.4ZM73.1831 102.458C73.1831 102.351 73.1342 102.243 73.0266 102.155C72.9483 102.067 72.8408 102.018 72.694 102.018C72.5767 102.018 72.4593 102.067 72.3517 102.155C72.2833 102.224 72.2344 102.321 72.2246 102.458C72.2246 102.527 72.2344 102.586 72.2539 102.634C72.2735 102.683 72.3028 102.732 72.3517 102.781C72.4006 102.811 72.4495 102.84 72.4984 102.859C72.5473 102.879 72.6158 102.889 72.694 102.899C72.7723 102.899 72.831 102.889 72.8799 102.869C72.9288 102.85 72.9777 102.82 73.0266 102.781C73.1342 102.683 73.1831 102.576 73.1831 102.458Z" fill="#1F65AA"/>
<path d="M73.9948 93.1279C73.9948 93.4996 73.8188 93.793 73.4569 94.0375C73.1048 94.2723 72.694 94.3994 72.2441 94.3994H71.6671C71.5888 94.3994 71.5203 94.3994 71.4421 94.3994C71.3639 94.3994 71.2856 94.4092 71.1976 94.4287C71.0607 94.4287 70.9042 94.507 70.7183 94.6635C70.5619 94.7906 70.4738 94.9667 70.4738 95.2014C70.4738 95.3872 70.5423 95.5535 70.6792 95.6807C70.777 95.7687 70.8748 95.8176 70.9726 95.8176L71.5595 95.0156C71.5888 95.0449 71.6182 95.0743 71.6377 95.1036C71.6671 95.1329 71.6866 95.1623 71.6964 95.1916L72.0289 95.4948C72.0583 95.2992 72.1561 95.1329 72.3223 94.9765C72.4886 94.8298 72.6842 94.7613 72.9287 94.7613C73.1732 94.7613 73.3884 94.8395 73.5645 95.0058C73.6427 95.084 73.7014 95.1721 73.7503 95.2699C73.7992 95.3677 73.8188 95.4753 73.8188 95.5926C73.8188 95.8274 73.7307 96.0328 73.5449 96.199C73.4569 96.2773 73.3493 96.3359 73.2222 96.3751C73.1048 96.4142 72.9776 96.4435 72.8407 96.4435C72.7233 96.4435 72.606 96.4338 72.4886 96.4044C72.3712 96.3751 72.2637 96.3359 72.1561 96.2773C71.9409 96.1795 71.7453 96.0328 71.5888 95.8469L71.2269 96.3751H70.7672C70.4836 96.3751 70.2391 96.2773 70.0239 96.0621C69.8088 95.8567 69.7012 95.5731 69.7012 95.2308C69.7012 94.8982 69.8381 94.595 70.112 94.3309C70.3662 94.0962 70.6303 93.9593 70.9237 93.9299C71.1585 93.8908 71.315 93.8713 71.3932 93.8713H71.5986H71.9311H72.2441C72.5082 93.8713 72.7331 93.8126 72.919 93.705C73.0852 93.5681 73.1732 93.3725 73.1732 93.1182H73.9948V93.1279ZM73.2906 95.6024C73.2906 95.3775 73.1733 95.2601 72.9385 95.2601C72.7038 95.2601 72.5864 95.3775 72.5864 95.6024C72.5864 95.8274 72.7038 95.9447 72.9385 95.9447C73.1733 95.9349 73.2906 95.8274 73.2906 95.6024Z" fill="#1F65AA"/>
<path d="M80.7628 101.989C80.7628 102.478 80.6455 102.86 80.4205 103.114C80.1956 103.339 79.7946 103.456 79.2273 103.456H75.5303V102.86C75.8433 102.86 76.0584 102.811 76.1758 102.723C76.2932 102.625 76.3518 102.439 76.3518 102.156V99.192C76.3127 99.2116 76.2736 99.2214 76.2247 99.2311C76.1758 99.2409 76.0878 99.2507 75.9606 99.2605C75.6672 99.2605 75.4129 99.1627 75.188 98.9671C75.0902 98.879 75.0119 98.7715 74.963 98.6541C74.9043 98.5367 74.8848 98.3998 74.8848 98.2433C74.8848 97.9597 74.9924 97.7152 75.1977 97.5C75.4031 97.2848 75.677 97.1772 75.9997 97.1772C76.3518 97.1772 76.6355 97.2848 76.8409 97.5C77.056 97.6956 77.1636 97.9597 77.1636 98.302V102.83H78.7774C79.2762 102.83 79.5892 102.781 79.7261 102.664C79.8728 102.527 79.9511 102.253 79.9511 101.843V97.2359H80.7628V101.989ZM76.4399 98.2433C76.4399 98.1259 76.391 98.0281 76.3029 97.9401C76.2051 97.8521 76.0975 97.8032 75.9704 97.8032C75.8433 97.8032 75.7259 97.8521 75.6281 97.9499C75.5596 98.0086 75.5107 98.1162 75.4912 98.2531C75.4912 98.3216 75.5009 98.3802 75.5205 98.4291C75.5401 98.478 75.5694 98.527 75.6281 98.5759C75.677 98.6052 75.7259 98.6345 75.7748 98.6541C75.8237 98.6737 75.8922 98.6834 75.9704 98.6932C76.0975 98.6932 76.2051 98.6541 76.3029 98.5661C76.391 98.4683 76.4399 98.3705 76.4399 98.2433Z" fill="#1F65AA"/>
<path d="M85.3897 102.468C85.3897 102.615 85.3604 102.752 85.3115 102.869C85.2626 102.987 85.1746 103.104 85.067 103.222C84.8811 103.427 84.6171 103.535 84.2943 103.535C83.9324 103.535 83.6488 103.427 83.4336 103.222C83.3358 103.114 83.2576 102.987 83.2087 102.86C83.1598 102.732 83.1304 102.576 83.1304 102.4V94.1648L82.0448 95.2113C81.8492 94.7908 81.6829 94.4582 81.546 94.2333C81.1255 93.5486 80.6755 93.0792 80.1865 92.8347L80.8907 92.3848C81.233 92.5902 81.5753 92.9227 81.8981 93.3922C81.947 93.4606 81.9959 93.5389 82.0546 93.6367C82.1133 93.7345 82.1817 93.8616 82.2698 94.0083L83.3456 92.9716C83.5119 92.9716 83.6586 93.0498 83.7662 93.1965C83.8151 93.2748 83.864 93.3628 83.8933 93.4704C83.9227 93.578 83.9422 93.6856 83.9422 93.8029V101.5C83.9813 101.481 84.0205 101.471 84.0694 101.461C84.1183 101.451 84.2063 101.441 84.3334 101.432C84.6269 101.432 84.8812 101.53 85.0865 101.715C85.2821 101.931 85.3897 102.175 85.3897 102.468ZM84.8029 102.459C84.8029 102.351 84.754 102.243 84.6464 102.155C84.5682 102.067 84.4606 102.019 84.3237 102.019C84.1867 102.019 84.0791 102.067 83.9813 102.155C83.9129 102.224 83.8738 102.322 83.8542 102.459C83.8542 102.527 83.864 102.586 83.8835 102.635C83.9031 102.684 83.9324 102.732 83.9813 102.772C84.0302 102.811 84.0889 102.84 84.1672 102.86C84.2454 102.879 84.2943 102.889 84.3237 102.889C84.4019 102.889 84.4606 102.879 84.4997 102.869C84.5486 102.85 84.5975 102.821 84.6464 102.772C84.754 102.684 84.8029 102.576 84.8029 102.459Z" fill="#1F65AA"/>
<path d="M91.7169 103.456H90.9051V98.7421C90.9051 98.1455 90.6997 97.8423 90.2987 97.8423C90.1716 97.8423 90.0738 97.9499 90.0151 98.1748L88.2448 103.456H87.345V99.192C87.3059 99.2116 87.2668 99.2214 87.2179 99.2311C87.169 99.2409 87.0809 99.2507 86.9538 99.2605C86.6604 99.2605 86.4061 99.1627 86.1811 98.9671C86.0833 98.879 86.0051 98.7715 85.9562 98.6541C85.8975 98.5367 85.8682 98.3998 85.8682 98.2433C85.8682 97.9597 85.9757 97.7152 86.1811 97.5C86.3963 97.2848 86.6604 97.1772 86.9831 97.1772C87.3352 97.1772 87.6189 97.2848 87.8243 97.5C88.0394 97.6956 88.147 97.9695 88.147 98.302V100.434C88.147 100.542 88.1372 100.679 88.1275 100.855C88.1079 101.031 88.0883 101.226 88.059 101.451C88.059 101.539 88.0492 101.647 88.0394 101.764C88.0296 101.882 88.0101 102.009 87.9905 102.156C88.0199 102.019 88.0492 101.911 88.059 101.833C88.0785 101.755 88.0883 101.696 88.1177 101.647C88.2057 101.305 88.2742 101.041 88.3426 100.864L89.3109 97.8814C89.4576 97.4218 89.7901 97.187 90.3378 97.187C90.7584 97.187 91.0909 97.3044 91.3257 97.5293C91.443 97.6369 91.5408 97.7836 91.5995 97.9597C91.6582 98.1357 91.6973 98.3509 91.6973 98.615V103.456H91.7169ZM87.4428 98.2433C87.4428 98.1259 87.3939 98.0281 87.3059 97.9401C87.2081 97.8521 87.1005 97.8032 86.9734 97.8032C86.8462 97.8032 86.7288 97.8521 86.631 97.9499C86.5528 98.0086 86.5137 98.1162 86.4941 98.2531C86.4941 98.3216 86.5039 98.3802 86.5235 98.4291C86.543 98.478 86.5821 98.527 86.631 98.5759C86.6799 98.6052 86.7288 98.6345 86.7777 98.6541C86.8266 98.6737 86.8951 98.6834 86.9734 98.6932C87.1005 98.6932 87.2081 98.6541 87.3059 98.5661C87.3939 98.4683 87.4428 98.3705 87.4428 98.2433Z" fill="#1F65AA"/>
<path d="M97.8986 101.989C97.8986 102.488 97.7813 102.859 97.5563 103.094C97.3314 103.329 96.9304 103.446 96.3631 103.446H93.4192V101.255C93.4192 100.942 93.4974 100.688 93.6441 100.492C93.7224 100.414 93.8593 100.306 94.0745 100.179C93.8397 100.121 93.6539 100.013 93.4974 99.8664C93.3409 99.7001 93.2627 99.5045 93.2627 99.26V98.282C93.2627 97.9397 93.3605 97.6658 93.5659 97.4604C93.7713 97.255 94.0647 97.1572 94.4364 97.1572C94.7493 97.1572 95.0036 97.2648 95.2188 97.48C95.434 97.6756 95.5415 97.9201 95.5415 98.2233C95.5415 98.4971 95.434 98.7416 95.209 98.947C95.1014 99.0448 94.9938 99.1231 94.8765 99.172C94.7591 99.2209 94.6222 99.2404 94.4657 99.2404C94.2701 99.2404 94.1429 99.2209 94.0745 99.1818C94.0745 99.3578 94.1625 99.5143 94.3483 99.661C94.5439 99.7979 94.8178 99.8664 95.1699 99.8664H95.6589V100.502H95.1503C94.5439 100.502 94.231 100.766 94.231 101.304V102.82H95.9132C96.412 102.82 96.725 102.771 96.8619 102.654C97.0086 102.517 97.0869 102.243 97.0869 101.832V97.2355H97.8986V101.989ZM94.9352 98.2428C94.9352 98.1255 94.8863 98.0277 94.7982 97.9397C94.7004 97.8516 94.5928 97.8027 94.4657 97.8027C94.3385 97.8027 94.2212 97.8516 94.1234 97.9494C94.0451 98.0081 94.006 98.1157 93.9865 98.2526C93.9865 98.3211 93.9962 98.3798 94.0158 98.4287C94.0354 98.4776 94.0647 98.5265 94.1234 98.5754C94.1723 98.6047 94.2212 98.6341 94.2701 98.6536C94.319 98.6732 94.3874 98.683 94.4657 98.6927C94.5928 98.6927 94.7004 98.6536 94.7982 98.5656C94.8863 98.4678 94.9352 98.37 94.9352 98.2428Z" fill="#1F65AA"/>
<defs>
<linearGradient id="paint0_linear" x1="14.5681" y1="23.3732" x2="92.8811" y2="51.8768" gradientUnits="userSpaceOnUse">
<stop stop-color="#0675B6"/>
<stop offset="0.3948" stop-color="#0E71B3"/>
<stop offset="0.9945" stop-color="#1B67AC"/>
<stop offset="1" stop-color="#1B67AC"/>
</linearGradient>
<radialGradient id="paint1_radial" cx="0" cy="0" r="1" gradientUnits="userSpaceOnUse" gradientTransform="translate(52.1965 40.7985) scale(42.0387 42.4605)">
<stop stop-color="white"/>
<stop offset="0.2289" stop-color="#F7FAFC"/>
<stop offset="0.5774" stop-color="#E2EDF3"/>
<stop offset="1" stop-color="#C0D7E4"/>
</radialGradient>
<linearGradient id="paint2_linear" x1="29.6846" y1="29.3715" x2="79.4762" y2="47.4942" gradientUnits="userSpaceOnUse">
<stop stop-color="#0675B6"/>
<stop offset="0.3948" stop-color="#0E71B3"/>
<stop offset="0.9945" stop-color="#1B67AC"/>
<stop offset="1" stop-color="#1B67AC"/>
</linearGradient>
</defs>
</svg>
