<svg width="843" height="1208" viewBox="0 0 843 1208" fill="none" xmlns="http://www.w3.org/2000/svg">
<g style="mix-blend-mode:color-dodge">
<path d="M94.9701 833.42C94.9701 840.776 92.9491 846.637 88.907 851.003C84.784 855.288 79.3272 857.43 72.5364 857.43C71.6472 857.43 70.3133 857.349 68.5347 857.187L34.4598 852.943C29.2051 852.296 24.5971 850.639 20.6358 847.971C16.6745 845.223 13.6025 841.706 11.4198 837.421C9.23707 833.056 8.1457 828.205 8.1457 822.87C8.1457 815.513 10.1668 809.652 14.2089 805.287C18.1701 800.921 23.3844 798.739 29.8518 798.739C30.5794 798.739 31.7516 798.819 33.3684 798.981L36.0362 799.345C36.4404 799.426 36.8042 799.628 37.1276 799.951C37.3701 800.194 37.4914 800.517 37.4914 800.921L37.4914 814.624C37.4914 815.028 37.3701 815.352 37.1276 815.594C36.8042 815.837 36.4404 815.917 36.0362 815.837L33.4897 815.594C33.1663 815.513 32.6409 815.473 31.9133 815.473C29.2455 815.473 27.0628 816.281 25.3651 817.898C23.6674 819.515 22.8185 821.738 22.8185 824.568C22.8185 827.72 23.8695 830.388 25.9714 832.571C28.0733 834.754 30.8219 836.047 34.2173 836.451L68.8985 840.696C69.3027 840.776 69.9091 840.817 70.7175 840.817C73.6278 840.817 75.9722 839.968 77.7507 838.27C79.4484 836.492 80.2973 834.188 80.2973 831.358C80.2973 828.286 79.3676 825.699 77.5082 823.597C75.6489 821.496 73.1023 820.283 69.8686 819.96L62.3503 818.989C61.9461 818.989 61.744 819.151 61.744 819.475L61.744 828.691C61.744 829.095 61.6228 829.418 61.3802 829.661C61.0569 829.903 60.6931 829.984 60.2889 829.903L49.2539 828.569C48.8497 828.488 48.5263 828.327 48.2838 828.084C47.9604 827.761 47.7988 827.397 47.7988 826.993L47.7988 802.134C47.7988 801.73 47.9604 801.406 48.2838 801.164C48.5263 800.921 48.8497 800.84 49.2539 800.921L68.5348 803.347C76.619 804.317 83.0459 807.55 87.8156 813.048C92.5853 818.545 94.9701 825.336 94.9701 833.42ZM94.9701 769.1C94.9701 776.376 92.9087 782.156 88.7857 786.441C84.6628 790.725 79.1655 792.868 72.2939 792.868C70.3537 792.868 68.8985 792.787 67.9284 792.625L10.571 785.592C10.1668 785.592 9.84339 785.43 9.60086 785.107C9.27749 784.783 9.11581 784.42 9.11581 784.015L9.11581 770.313C9.11581 769.909 9.27749 769.585 9.60086 769.343C9.84339 769.1 10.1668 769.019 10.571 769.1L68.7773 776.255C69.2623 776.335 69.9091 776.376 70.7175 776.376C73.6278 776.376 75.9722 775.567 77.7508 773.951C79.4484 772.253 80.2973 770.03 80.2973 767.281C80.2973 764.128 79.2463 761.501 77.1444 759.399C75.0426 757.216 72.2535 755.923 68.7773 755.519L10.571 748.364C10.1668 748.283 9.8434 748.122 9.60087 747.879C9.2775 747.556 9.11581 747.192 9.11581 746.788L9.11582 732.964C9.11582 732.559 9.2775 732.236 9.60087 731.994C9.8434 731.751 10.1668 731.67 10.571 731.751L67.9284 738.784C73.264 739.431 77.9933 741.129 82.1162 743.877C86.1583 746.626 89.3112 750.183 91.5748 754.549C93.8383 758.914 94.9701 763.765 94.9701 769.1ZM94 691.36C94 692.249 93.5958 692.734 92.7874 692.815L59.3188 700.576C58.9954 700.738 58.8337 700.94 58.8337 701.182L58.8337 708.579C58.8337 708.984 59.0358 709.186 59.44 709.186L92.5449 713.309C92.9491 713.389 93.3129 713.592 93.6362 713.915C93.8788 714.157 94 714.481 94 714.885L94 728.588C94 729.477 93.515 729.922 92.5449 729.922L10.571 719.857C10.1668 719.776 9.8434 719.574 9.60087 719.251C9.2775 718.927 9.11582 718.563 9.11582 718.159L9.11582 689.541C9.11582 683.155 11.056 678.102 14.9365 674.383C18.736 670.664 23.8695 668.805 30.3369 668.805C32.2771 668.805 33.7322 668.886 34.7024 669.048C39.8762 669.613 44.363 671.271 48.1626 674.019C51.9621 676.687 54.7916 680.123 56.651 684.327C56.8127 684.731 57.0956 684.852 57.4998 684.691L92.3024 675.596L92.7874 675.596C93.5958 675.596 94 676.081 94 677.051L94 691.36ZM23.7887 704.214C23.7887 704.537 23.9908 704.78 24.395 704.941L45.131 707.488C45.5352 707.488 45.7373 707.326 45.7373 707.003L45.7373 696.696C45.7373 693.462 44.5651 690.794 42.2207 688.692C39.7954 686.59 36.6426 685.539 32.7621 685.539C30.0135 685.539 27.8308 686.307 26.2139 687.843C24.5971 689.379 23.7887 691.441 23.7887 694.028L23.7887 704.214ZM94.9701 640.021C94.9701 647.297 92.9087 653.077 88.7857 657.362C84.6628 661.646 79.1655 663.789 72.2939 663.789C70.3537 663.789 68.8986 663.708 67.9285 663.546L10.571 656.513C10.1668 656.513 9.84341 656.351 9.60088 656.028C9.27751 655.705 9.11583 655.341 9.11583 654.937L9.11583 641.234C9.11583 640.83 9.27751 640.506 9.60088 640.264C9.84341 640.021 10.1668 639.94 10.571 640.021L68.7773 647.176C69.2624 647.257 69.9091 647.297 70.7175 647.297C73.6278 647.297 75.9723 646.489 77.7508 644.872C79.4485 643.174 80.2973 640.951 80.2973 638.202C80.2973 635.049 79.2464 632.422 77.1445 630.32C75.0426 628.137 72.2535 626.844 68.7773 626.44L10.571 619.285C10.1668 619.204 9.84342 619.043 9.60089 618.8C9.27752 618.477 9.11583 618.113 9.11583 617.709L9.11584 603.885C9.11584 603.481 9.27752 603.157 9.60089 602.915C9.84342 602.672 10.1668 602.591 10.571 602.672L67.9285 609.705C73.264 610.352 77.9933 612.05 82.1163 614.798C86.1584 617.547 89.3112 621.104 91.5748 625.47C93.8384 629.835 94.9701 634.686 94.9701 640.021ZM94.9702 551.933C94.9702 559.29 92.9491 565.151 88.907 569.516C84.7841 573.801 79.3272 575.943 72.5365 575.943C71.6472 575.943 70.3133 575.862 68.5348 575.701L34.4598 571.456C29.2051 570.81 24.5971 569.152 20.6358 566.485C16.6746 563.736 13.6026 560.219 11.4198 555.935C9.23711 551.569 8.14574 546.719 8.14575 541.383C8.14575 534.026 10.1668 528.165 14.2089 523.8C18.1702 519.434 23.3845 517.252 29.8518 517.252C30.5794 517.252 31.7516 517.333 33.3685 517.494L36.0363 517.858C36.4405 517.939 36.8043 518.141 37.1276 518.464C37.3702 518.707 37.4914 519.03 37.4914 519.434L37.4914 533.137C37.4914 533.541 37.3702 533.865 37.1276 534.107C36.8043 534.35 36.4405 534.431 36.0363 534.35L33.4897 534.107C33.1664 534.026 32.6409 533.986 31.9133 533.986C29.2455 533.986 27.0628 534.794 25.3651 536.411C23.6674 538.028 22.8186 540.251 22.8186 543.081C22.8186 546.234 23.8695 548.901 25.9714 551.084C28.0733 553.267 30.822 554.56 34.2173 554.965L68.8986 559.209C69.3028 559.29 69.9091 559.33 70.7175 559.33C73.6278 559.33 75.9723 558.481 77.7508 556.783C79.4485 555.005 80.2973 552.701 80.2973 549.871C80.2973 546.799 79.3676 544.213 77.5083 542.111C75.6489 540.009 73.1024 538.796 69.8687 538.473L62.3504 537.503C61.9462 537.503 61.7441 537.664 61.7441 537.988L61.7441 547.204C61.7441 547.608 61.6228 547.931 61.3803 548.174C61.0569 548.416 60.6931 548.497 60.2889 548.416L49.254 547.082C48.8497 547.002 48.5264 546.84 48.2838 546.597C47.9605 546.274 47.7988 545.91 47.7988 545.506L47.7988 520.647C47.7988 520.243 47.9605 519.919 48.2839 519.677C48.5264 519.434 48.8497 519.354 49.254 519.434L68.5348 521.86C76.619 522.83 83.046 526.063 87.8156 531.561C92.5853 537.058 94.9702 543.849 94.9702 551.933ZM94.9702 487.613C94.9702 494.889 92.9087 500.669 88.7857 504.954C84.6628 509.239 79.1655 511.381 72.294 511.381C70.3537 511.381 68.8986 511.3 67.9285 511.138L10.571 504.105C10.1668 504.105 9.84343 503.943 9.60091 503.62C9.27754 503.297 9.11585 502.933 9.11585 502.529L9.11585 488.826C9.11585 488.422 9.27754 488.098 9.60091 487.856C9.84344 487.613 10.1668 487.532 10.571 487.613L68.7773 494.768C69.2624 494.849 69.9091 494.889 70.7175 494.889C73.6279 494.889 75.9723 494.081 77.7508 492.464C79.4485 490.766 80.2973 488.543 80.2973 485.794C80.2973 482.641 79.2464 480.014 77.1445 477.912C75.0426 475.729 72.2535 474.436 68.7773 474.032L10.571 466.877C10.1668 466.796 9.84344 466.635 9.60091 466.392C9.27754 466.069 9.11586 465.705 9.11586 465.301L9.11586 451.477C9.11586 451.073 9.27754 450.749 9.60091 450.507C9.84344 450.264 10.1668 450.183 10.571 450.264L67.9285 457.297C73.2641 457.944 77.9933 459.642 82.1163 462.391C86.1584 465.139 89.3112 468.696 91.5748 473.062C93.8384 477.427 94.9702 482.278 94.9702 487.613ZM94.0001 409.873C94.0001 410.762 93.5959 411.247 92.7874 411.328L59.3188 419.089C58.9954 419.251 58.8338 419.453 58.8338 419.695L58.8338 427.093C58.8338 427.497 59.0359 427.699 59.4401 427.699L92.5449 431.822C92.9491 431.903 93.3129 432.105 93.6363 432.428C93.8788 432.671 94.0001 432.994 94.0001 433.398L94.0001 447.101C94.0001 447.99 93.515 448.435 92.5449 448.435L10.571 438.37C10.1668 438.289 9.84344 438.087 9.60092 437.764C9.27755 437.44 9.11586 437.077 9.11586 436.672L9.11587 408.054C9.11587 401.668 11.0561 396.615 14.9365 392.896C18.7361 389.178 23.8696 387.318 30.3369 387.318C32.2771 387.318 33.7323 387.399 34.7024 387.561C39.8763 388.127 44.363 389.784 48.1626 392.533C51.9622 395.2 54.7917 398.636 56.651 402.84C56.8127 403.244 57.0957 403.365 57.4999 403.204L92.3024 394.109L92.7874 394.109C93.5959 394.109 94.0001 394.594 94.0001 395.564L94.0001 409.873ZM23.7887 422.727C23.7887 423.05 23.9908 423.293 24.395 423.455L45.131 426.001C45.5352 426.001 45.7373 425.839 45.7373 425.516L45.7373 415.209C45.7373 411.975 44.5651 409.307 42.2207 407.205C39.7954 405.103 36.6426 404.053 32.7622 404.053C30.0136 404.053 27.8308 404.821 26.214 406.357C24.5971 407.893 23.7887 409.954 23.7887 412.541L23.7887 422.727ZM94.9702 358.534C94.9702 365.81 92.9087 371.59 88.7858 375.875C84.6628 380.16 79.1656 382.302 72.294 382.302C70.3538 382.302 68.8986 382.221 67.9285 382.059L10.571 375.026C10.1668 375.026 9.84345 374.864 9.60093 374.541C9.27756 374.218 9.11587 373.854 9.11587 373.45L9.11587 359.747C9.11587 359.343 9.27756 359.019 9.60093 358.777C9.84346 358.534 10.1668 358.453 10.571 358.534L68.7773 365.689C69.2624 365.77 69.9091 365.81 70.7176 365.81C73.6279 365.81 75.9723 365.002 77.7508 363.385C79.4485 361.687 80.2973 359.464 80.2974 356.715C80.2974 353.563 79.2464 350.935 77.1445 348.833C75.0426 346.651 72.2536 345.357 68.7774 344.953L10.571 337.798C10.1668 337.717 9.84346 337.556 9.60093 337.313C9.27756 336.99 9.11588 336.626 9.11588 336.222L9.11588 322.398C9.11588 321.994 9.27756 321.67 9.60093 321.428C9.84346 321.185 10.1668 321.104 10.571 321.185L67.9285 328.219C73.2641 328.865 77.9934 330.563 82.1163 333.312C86.1584 336.06 89.3112 339.617 91.5748 343.983C93.8384 348.348 94.9702 353.199 94.9702 358.534Z" fill="#002144"/>
</g>
<g style="mix-blend-mode:color-dodge">
<path d="M209.97 1039.95C209.97 1047.3 207.949 1053.16 203.907 1057.53C199.784 1061.81 194.327 1063.96 187.536 1063.96C186.647 1063.96 185.313 1063.87 183.535 1063.71L149.46 1059.47C144.205 1058.82 139.597 1057.16 135.636 1054.5C131.675 1051.75 128.603 1048.23 126.42 1043.95C124.237 1039.58 123.146 1034.73 123.146 1029.4C123.146 1022.04 125.167 1016.18 129.209 1011.81C133.17 1007.45 138.384 1005.26 144.852 1005.26C145.579 1005.26 146.752 1005.34 148.368 1005.51L151.036 1005.87C151.44 1005.95 151.804 1006.15 152.128 1006.48C152.37 1006.72 152.491 1007.04 152.491 1007.45L152.491 1021.15C152.491 1021.55 152.37 1021.88 152.128 1022.12C151.804 1022.36 151.44 1022.44 151.036 1022.36L148.49 1022.12C148.166 1022.04 147.641 1022 146.913 1022C144.245 1022 142.063 1022.81 140.365 1024.42C138.667 1026.04 137.819 1028.26 137.819 1031.09C137.819 1034.25 138.869 1036.91 140.971 1039.1C143.073 1041.28 145.822 1042.57 149.217 1042.98L183.899 1047.22C184.303 1047.3 184.909 1047.34 185.717 1047.34C188.628 1047.34 190.972 1046.49 192.751 1044.8C194.448 1043.02 195.297 1040.71 195.297 1037.88C195.297 1034.81 194.368 1032.22 192.508 1030.12C190.649 1028.02 188.102 1026.81 184.869 1026.49L177.35 1025.52C176.946 1025.52 176.744 1025.68 176.744 1026L176.744 1035.22C176.744 1035.62 176.623 1035.94 176.38 1036.19C176.057 1036.43 175.693 1036.51 175.289 1036.43L164.254 1035.09C163.85 1035.01 163.526 1034.85 163.284 1034.61C162.96 1034.29 162.799 1033.92 162.799 1033.52L162.799 1008.66C162.799 1008.26 162.96 1007.93 163.284 1007.69C163.526 1007.45 163.85 1007.37 164.254 1007.45L183.535 1009.87C191.619 1010.84 198.046 1014.08 202.816 1019.57C207.585 1025.07 209.97 1031.86 209.97 1039.95ZM209.97 975.626C209.97 982.902 207.909 988.682 203.786 992.966C199.663 997.251 194.165 999.393 187.294 999.393C185.354 999.393 183.899 999.312 182.928 999.151L125.571 992.118C125.167 992.118 124.843 991.956 124.601 991.632C124.277 991.309 124.116 990.945 124.116 990.541L124.116 976.838C124.116 976.434 124.278 976.111 124.601 975.868C124.843 975.626 125.167 975.545 125.571 975.626L183.777 982.78C184.262 982.861 184.909 982.902 185.718 982.902C188.628 982.902 190.972 982.093 192.751 980.476C194.448 978.779 195.297 976.555 195.297 973.807C195.297 970.654 194.246 968.027 192.144 965.925C190.043 963.742 187.254 962.448 183.777 962.044L125.571 954.89C125.167 954.809 124.843 954.647 124.601 954.405C124.278 954.081 124.116 953.718 124.116 953.313L124.116 939.489C124.116 939.085 124.278 938.762 124.601 938.519C124.843 938.277 125.167 938.196 125.571 938.277L182.928 945.31C188.264 945.957 192.993 947.654 197.116 950.403C201.158 953.152 204.311 956.709 206.575 961.074C208.838 965.44 209.97 970.29 209.97 975.626ZM209 897.886C209 898.775 208.596 899.26 207.787 899.341L174.319 907.102C173.995 907.263 173.834 907.465 173.834 907.708L173.834 915.105C173.834 915.509 174.036 915.711 174.44 915.711L207.545 919.834C207.949 919.915 208.313 920.117 208.636 920.441C208.879 920.683 209 921.006 209 921.411L209 935.113C209 936.003 208.515 936.447 207.545 936.447L125.571 926.382C125.167 926.302 124.843 926.1 124.601 925.776C124.278 925.453 124.116 925.089 124.116 924.685L124.116 896.067C124.116 889.68 126.056 884.628 129.936 880.909C133.736 877.19 138.87 875.331 145.337 875.331C147.277 875.331 148.732 875.412 149.702 875.573C154.876 876.139 159.363 877.796 163.163 880.545C166.962 883.213 169.792 886.649 171.651 890.852C171.813 891.257 172.096 891.378 172.5 891.216L207.302 882.121L207.787 882.121C208.596 882.121 209 882.606 209 883.577L209 897.886ZM138.789 910.74C138.789 911.063 138.991 911.305 139.395 911.467L160.131 914.014C160.535 914.014 160.737 913.852 160.737 913.529L160.737 903.221C160.737 899.988 159.565 897.32 157.221 895.218C154.795 893.116 151.643 892.065 147.762 892.065C145.014 892.065 142.831 892.833 141.214 894.369C139.597 895.905 138.789 897.966 138.789 900.553L138.789 910.74ZM209.97 846.547C209.97 853.823 207.909 859.603 203.786 863.887C199.663 868.172 194.166 870.314 187.294 870.314C185.354 870.314 183.899 870.234 182.928 870.072L125.571 863.039C125.167 863.039 124.843 862.877 124.601 862.554C124.278 862.23 124.116 861.866 124.116 861.462L124.116 847.759C124.116 847.355 124.278 847.032 124.601 846.789C124.843 846.547 125.167 846.466 125.571 846.547L183.777 853.701C184.262 853.782 184.909 853.823 185.718 853.823C188.628 853.823 190.972 853.014 192.751 851.397C194.448 849.7 195.297 847.476 195.297 844.728C195.297 841.575 194.246 838.948 192.144 836.846C190.043 834.663 187.254 833.37 183.777 832.965L125.571 825.811C125.167 825.73 124.843 825.568 124.601 825.326C124.278 825.002 124.116 824.639 124.116 824.234L124.116 810.41C124.116 810.006 124.278 809.683 124.601 809.44C124.843 809.198 125.167 809.117 125.571 809.198L182.928 816.231C188.264 816.878 192.993 818.575 197.116 821.324C201.158 824.073 204.311 827.63 206.575 831.995C208.838 836.361 209.97 841.211 209.97 846.547ZM209.97 758.459C209.97 765.815 207.949 771.676 203.907 776.042C199.784 780.326 194.327 782.469 187.536 782.469C186.647 782.469 185.313 782.388 183.535 782.226L149.46 777.982C144.205 777.335 139.597 775.678 135.636 773.01C131.675 770.262 128.603 766.745 126.42 762.46C124.237 758.095 123.146 753.244 123.146 747.909C123.146 740.552 125.167 734.691 129.209 730.326C133.17 725.96 138.384 723.777 144.852 723.777C145.579 723.777 146.752 723.858 148.368 724.02L151.036 724.384C151.44 724.464 151.804 724.667 152.128 724.99C152.37 725.232 152.491 725.556 152.491 725.96L152.491 739.663C152.491 740.067 152.37 740.39 152.128 740.633C151.804 740.875 151.44 740.956 151.036 740.875L148.49 740.633C148.166 740.552 147.641 740.512 146.913 740.512C144.246 740.512 142.063 741.32 140.365 742.937C138.667 744.554 137.819 746.777 137.819 749.606C137.819 752.759 138.87 755.427 140.971 757.61C143.073 759.792 145.822 761.086 149.217 761.49L183.899 765.734C184.303 765.815 184.909 765.856 185.718 765.856C188.628 765.856 190.972 765.007 192.751 763.309C194.448 761.531 195.297 759.227 195.297 756.397C195.297 753.325 194.368 750.738 192.508 748.636C190.649 746.534 188.102 745.322 184.869 744.998L177.35 744.028C176.946 744.028 176.744 744.19 176.744 744.513L176.744 753.729C176.744 754.134 176.623 754.457 176.38 754.699C176.057 754.942 175.693 755.023 175.289 754.942L164.254 753.608C163.85 753.527 163.526 753.366 163.284 753.123C162.96 752.8 162.799 752.436 162.799 752.032L162.799 727.173C162.799 726.768 162.96 726.445 163.284 726.203C163.526 725.96 163.85 725.879 164.254 725.96L183.535 728.385C191.619 729.355 198.046 732.589 202.816 738.086C207.585 743.584 209.97 750.374 209.97 758.459ZM209.97 694.139C209.97 701.415 207.909 707.195 203.786 711.48C199.663 715.764 194.166 717.906 187.294 717.906C185.354 717.906 183.899 717.826 182.928 717.664L125.571 710.631C125.167 710.631 124.843 710.469 124.601 710.146C124.278 709.822 124.116 709.458 124.116 709.054L124.116 695.352C124.116 694.947 124.278 694.624 124.601 694.381C124.843 694.139 125.167 694.058 125.571 694.139L183.777 701.293C184.262 701.374 184.909 701.415 185.718 701.415C188.628 701.415 190.972 700.606 192.751 698.989C194.448 697.292 195.297 695.069 195.297 692.32C195.297 689.167 194.246 686.54 192.144 684.438C190.043 682.255 187.254 680.962 183.777 680.557L125.571 673.403C125.167 673.322 124.843 673.16 124.601 672.918C124.278 672.594 124.116 672.231 124.116 671.826L124.116 658.002C124.116 657.598 124.278 657.275 124.601 657.032C124.843 656.79 125.167 656.709 125.571 656.79L182.928 663.823C188.264 664.47 192.993 666.168 197.116 668.916C201.158 671.665 204.311 675.222 206.575 679.587C208.838 683.953 209.97 688.803 209.97 694.139ZM209 616.399C209 617.288 208.596 617.773 207.787 617.854L174.319 625.615C173.995 625.776 173.834 625.979 173.834 626.221L173.834 633.618C173.834 634.022 174.036 634.224 174.44 634.224L207.545 638.347C207.949 638.428 208.313 638.63 208.636 638.954C208.879 639.196 209 639.52 209 639.924L209 653.627C209 654.516 208.515 654.96 207.545 654.96L125.571 644.896C125.167 644.815 124.843 644.613 124.601 644.289C124.278 643.966 124.116 643.602 124.116 643.198L124.116 614.58C124.116 608.193 126.056 603.141 129.937 599.422C133.736 595.703 138.87 593.844 145.337 593.844C147.277 593.844 148.732 593.925 149.702 594.086C154.876 594.652 159.363 596.31 163.163 599.058C166.962 601.726 169.792 605.162 171.651 609.366C171.813 609.77 172.096 609.891 172.5 609.729L207.302 600.635L207.787 600.635C208.596 600.635 209 601.12 209 602.09L209 616.399ZM138.789 629.253C138.789 629.576 138.991 629.819 139.395 629.98L160.131 632.527C160.535 632.527 160.737 632.365 160.737 632.042L160.737 621.734C160.737 618.501 159.565 615.833 157.221 613.731C154.795 611.629 151.643 610.578 147.762 610.578C145.014 610.578 142.831 611.346 141.214 612.882C139.597 614.418 138.789 616.48 138.789 619.067L138.789 629.253ZM209.97 565.06C209.97 572.336 207.909 578.116 203.786 582.401C199.663 586.685 194.166 588.828 187.294 588.828C185.354 588.828 183.899 588.747 182.929 588.585L125.571 581.552C125.167 581.552 124.843 581.39 124.601 581.067C124.278 580.743 124.116 580.38 124.116 579.975L124.116 566.273C124.116 565.868 124.278 565.545 124.601 565.302C124.843 565.06 125.167 564.979 125.571 565.06L183.777 572.214C184.262 572.295 184.909 572.336 185.718 572.336C188.628 572.336 190.972 571.527 192.751 569.91C194.449 568.213 195.297 565.99 195.297 563.241C195.297 560.088 194.246 557.461 192.145 555.359C190.043 553.176 187.254 551.883 183.777 551.478L125.571 544.324C125.167 544.243 124.843 544.081 124.601 543.839C124.278 543.516 124.116 543.152 124.116 542.748L124.116 528.924C124.116 528.519 124.278 528.196 124.601 527.953C124.843 527.711 125.167 527.63 125.571 527.711L182.929 534.744C188.264 535.391 192.993 537.089 197.116 539.837C201.158 542.586 204.311 546.143 206.575 550.508C208.838 554.874 209.97 559.724 209.97 565.06ZM209.97 476.972C209.97 484.328 207.949 490.189 203.907 494.555C199.784 498.84 194.327 500.982 187.537 500.982C186.647 500.982 185.313 500.901 183.535 500.739L149.46 496.495C144.205 495.848 139.597 494.191 135.636 491.523C131.675 488.775 128.603 485.258 126.42 480.973C124.237 476.608 123.146 471.757 123.146 466.422C123.146 459.065 125.167 453.204 129.209 448.839C133.17 444.473 138.385 442.291 144.852 442.291C145.579 442.291 146.752 442.371 148.369 442.533L151.036 442.897C151.441 442.978 151.804 443.18 152.128 443.503C152.37 443.746 152.491 444.069 152.491 444.473L152.491 458.176C152.491 458.58 152.37 458.904 152.128 459.146C151.804 459.389 151.441 459.469 151.036 459.389L148.49 459.146C148.166 459.065 147.641 459.025 146.913 459.025C144.246 459.025 142.063 459.833 140.365 461.45C138.667 463.067 137.819 465.29 137.819 468.12C137.819 471.272 138.87 473.94 140.971 476.123C143.073 478.306 145.822 479.599 149.217 480.003L183.899 484.248C184.303 484.328 184.909 484.369 185.718 484.369C188.628 484.369 190.972 483.52 192.751 481.822C194.449 480.044 195.297 477.74 195.297 474.91C195.297 471.838 194.368 469.251 192.508 467.149C190.649 465.048 188.102 463.835 184.869 463.512L177.35 462.541C176.946 462.541 176.744 462.703 176.744 463.027L176.744 472.243C176.744 472.647 176.623 472.97 176.38 473.213C176.057 473.455 175.693 473.536 175.289 473.455L164.254 472.121C163.85 472.04 163.526 471.879 163.284 471.636C162.961 471.313 162.799 470.949 162.799 470.545L162.799 445.686C162.799 445.282 162.961 444.958 163.284 444.716C163.526 444.473 163.85 444.392 164.254 444.473L183.535 446.899C191.619 447.869 198.046 451.102 202.816 456.6C207.585 462.097 209.97 468.888 209.97 476.972ZM209.97 412.652C209.97 419.928 207.909 425.708 203.786 429.993C199.663 434.277 194.166 436.42 187.294 436.42C185.354 436.42 183.899 436.339 182.929 436.177L125.571 429.144C125.167 429.144 124.843 428.982 124.601 428.659C124.278 428.335 124.116 427.972 124.116 427.567L124.116 413.865C124.116 413.46 124.278 413.137 124.601 412.895C124.843 412.652 125.167 412.571 125.571 412.652L183.777 419.807C184.262 419.887 184.909 419.928 185.718 419.928C188.628 419.928 190.972 419.119 192.751 417.503C194.449 415.805 195.297 413.582 195.297 410.833C195.297 407.68 194.246 405.053 192.145 402.951C190.043 400.768 187.254 399.475 183.777 399.071L125.571 391.916C125.167 391.835 124.843 391.673 124.601 391.431C124.278 391.108 124.116 390.744 124.116 390.34L124.116 376.516C124.116 376.111 124.278 375.788 124.601 375.545C124.843 375.303 125.167 375.222 125.571 375.303L182.929 382.336C188.264 382.983 192.993 384.681 197.116 387.429C201.158 390.178 204.311 393.735 206.575 398.1C208.838 402.466 209.97 407.316 209.97 412.652ZM209 334.912C209 335.801 208.596 336.286 207.787 336.367L174.319 344.128C173.995 344.29 173.834 344.492 173.834 344.734L173.834 352.131C173.834 352.536 174.036 352.738 174.44 352.738L207.545 356.861C207.949 356.941 208.313 357.144 208.636 357.467C208.879 357.709 209 358.033 209 358.437L209 372.14C209 373.029 208.515 373.474 207.545 373.474L125.571 363.409C125.167 363.328 124.843 363.126 124.601 362.802C124.278 362.479 124.116 362.115 124.116 361.711L124.116 333.093C124.116 326.706 126.056 321.654 129.937 317.935C133.736 314.216 138.87 312.357 145.337 312.357C147.277 312.357 148.732 312.438 149.702 312.599C154.876 313.165 159.363 314.823 163.163 317.571C166.962 320.239 169.792 323.675 171.651 327.879C171.813 328.283 172.096 328.404 172.5 328.242L207.302 319.148L207.787 319.148C208.596 319.148 209 319.633 209 320.603L209 334.912ZM138.789 347.766C138.789 348.089 138.991 348.332 139.395 348.493L160.131 351.04C160.535 351.04 160.737 350.878 160.737 350.555L160.737 340.248C160.737 337.014 159.565 334.346 157.221 332.244C154.795 330.142 151.643 329.091 147.762 329.091C145.014 329.091 142.831 329.859 141.214 331.395C139.597 332.931 138.789 334.993 138.789 337.58L138.789 347.766ZM209.97 283.573C209.97 290.849 207.909 296.629 203.786 300.914C199.663 305.198 194.166 307.341 187.294 307.341C185.354 307.341 183.899 307.26 182.929 307.098L125.571 300.065C125.167 300.065 124.844 299.903 124.601 299.58C124.278 299.256 124.116 298.893 124.116 298.488L124.116 284.786C124.116 284.382 124.278 284.058 124.601 283.816C124.844 283.573 125.167 283.492 125.571 283.573L183.777 290.728C184.262 290.808 184.909 290.849 185.718 290.849C188.628 290.849 190.972 290.04 192.751 288.424C194.449 286.726 195.297 284.503 195.297 281.754C195.297 278.601 194.246 275.974 192.145 273.872C190.043 271.689 187.254 270.396 183.777 269.992L125.571 262.837C125.167 262.756 124.844 262.595 124.601 262.352C124.278 262.029 124.116 261.665 124.116 261.261L124.116 247.437C124.116 247.032 124.278 246.709 124.601 246.467C124.844 246.224 125.167 246.143 125.571 246.224L182.929 253.257C188.264 253.904 192.993 255.602 197.116 258.35C201.158 261.099 204.311 264.656 206.575 269.022C208.838 273.387 209.97 278.238 209.97 283.573Z" fill="#002144"/>
</g>
<g style="mix-blend-mode:color-dodge">
<path d="M326.969 942.485C326.969 949.842 324.948 955.703 320.906 960.068C316.783 964.353 311.326 966.495 304.535 966.495C303.646 966.495 302.312 966.414 300.534 966.253L266.459 962.008C261.204 961.362 256.596 959.704 252.635 957.037C248.674 954.288 245.602 950.771 243.419 946.487C241.236 942.121 240.145 937.271 240.145 931.935C240.145 924.578 242.166 918.717 246.208 914.352C250.169 909.986 255.383 907.804 261.851 907.804C262.578 907.804 263.751 907.885 265.367 908.046L268.035 908.41C268.439 908.491 268.803 908.693 269.127 909.016C269.369 909.259 269.49 909.582 269.49 909.986L269.49 923.689C269.49 924.093 269.369 924.417 269.127 924.659C268.803 924.902 268.439 924.983 268.035 924.902L265.489 924.659C265.165 924.578 264.64 924.538 263.912 924.538C261.245 924.538 259.062 925.346 257.364 926.963C255.666 928.58 254.818 930.803 254.818 933.633C254.818 936.786 255.869 939.453 257.97 941.636C260.072 943.819 262.821 945.112 266.216 945.517L300.898 949.761C301.302 949.842 301.908 949.882 302.717 949.882C305.627 949.882 307.971 949.033 309.75 947.335C311.447 945.557 312.296 943.253 312.296 940.423C312.296 937.351 311.367 934.765 309.507 932.663C307.648 930.561 305.101 929.348 301.868 929.025L294.349 928.055C293.945 928.055 293.743 928.216 293.743 928.54L293.743 937.756C293.743 938.16 293.622 938.483 293.379 938.726C293.056 938.968 292.692 939.049 292.288 938.968L281.253 937.634C280.849 937.554 280.525 937.392 280.283 937.149C279.959 936.826 279.798 936.462 279.798 936.058L279.798 911.199C279.798 910.795 279.959 910.471 280.283 910.229C280.525 909.986 280.849 909.906 281.253 909.986L300.534 912.412C308.618 913.382 315.045 916.615 319.815 922.113C324.584 927.61 326.969 934.401 326.969 942.485ZM326.969 878.165C326.969 885.441 324.908 891.221 320.785 895.506C316.662 899.791 311.165 901.933 304.293 901.933C302.353 901.933 300.898 901.852 299.927 901.69L242.57 894.657C242.166 894.657 241.842 894.495 241.6 894.172C241.277 893.849 241.115 893.485 241.115 893.081L241.115 879.378C241.115 878.974 241.277 878.65 241.6 878.408C241.842 878.165 242.166 878.084 242.57 878.165L300.776 885.32C301.261 885.401 301.908 885.441 302.717 885.441C305.627 885.441 307.971 884.633 309.75 883.016C311.447 881.318 312.296 879.095 312.296 876.346C312.296 873.193 311.245 870.566 309.143 868.464C307.042 866.281 304.253 864.988 300.776 864.584L242.57 857.429C242.166 857.348 241.842 857.187 241.6 856.944C241.277 856.621 241.115 856.257 241.115 855.853L241.115 842.029C241.115 841.625 241.277 841.301 241.6 841.059C241.842 840.816 242.166 840.735 242.57 840.816L299.927 847.849C305.263 848.496 309.992 850.194 314.115 852.943C318.157 855.691 321.31 859.248 323.574 863.614C325.837 867.979 326.969 872.83 326.969 878.165ZM325.999 800.425C325.999 801.314 325.595 801.799 324.786 801.88L291.318 809.641C290.994 809.803 290.833 810.005 290.833 810.247L290.833 817.645C290.833 818.049 291.035 818.251 291.439 818.251L324.544 822.374C324.948 822.455 325.312 822.657 325.635 822.98C325.878 823.223 325.999 823.546 325.999 823.95L325.999 837.653C325.999 838.542 325.514 838.987 324.544 838.987L242.57 828.922C242.166 828.841 241.842 828.639 241.6 828.316C241.277 827.992 241.115 827.629 241.115 827.224L241.115 798.606C241.115 792.22 243.055 787.167 246.935 783.448C250.735 779.73 255.869 777.87 262.336 777.87C264.276 777.87 265.731 777.951 266.701 778.113C271.875 778.679 276.362 780.336 280.162 783.085C283.961 785.752 286.791 789.188 288.65 793.392C288.812 793.796 289.095 793.917 289.499 793.756L324.301 784.661L324.786 784.661C325.595 784.661 325.999 785.146 325.999 786.116L325.999 800.425ZM255.788 813.279C255.788 813.602 255.99 813.845 256.394 814.007L277.13 816.553C277.534 816.553 277.736 816.391 277.736 816.068L277.736 805.761C277.736 802.527 276.564 799.859 274.22 797.757C271.794 795.655 268.642 794.605 264.761 794.605C262.013 794.605 259.83 795.373 258.213 796.909C256.596 798.445 255.788 800.506 255.788 803.093L255.788 813.279ZM326.969 749.086C326.969 756.362 324.908 762.142 320.785 766.427C316.662 770.712 311.165 772.854 304.293 772.854C302.353 772.854 300.898 772.773 299.927 772.611L242.57 765.578C242.166 765.578 241.842 765.416 241.6 765.093C241.277 764.77 241.115 764.406 241.115 764.002L241.115 750.299C241.115 749.895 241.277 749.571 241.6 749.329C241.842 749.086 242.166 749.006 242.57 749.086L300.776 756.241C301.261 756.322 301.908 756.362 302.717 756.362C305.627 756.362 307.971 755.554 309.75 753.937C311.447 752.239 312.296 750.016 312.296 747.267C312.296 744.115 311.245 741.487 309.143 739.385C307.042 737.203 304.253 735.909 300.776 735.505L242.57 728.35C242.166 728.27 241.842 728.108 241.6 727.865C241.277 727.542 241.115 727.178 241.115 726.774L241.115 712.95C241.115 712.546 241.277 712.222 241.6 711.98C241.842 711.737 242.166 711.656 242.57 711.737L299.927 718.771C305.263 719.417 309.992 721.115 314.115 723.864C318.157 726.612 321.31 730.169 323.574 734.535C325.837 738.9 326.969 743.751 326.969 749.086ZM326.969 660.998C326.969 668.355 324.948 674.216 320.906 678.581C316.783 682.866 311.326 685.008 304.536 685.008C303.646 685.008 302.312 684.927 300.534 684.766L266.459 680.522C261.204 679.875 256.596 678.218 252.635 675.55C248.674 672.801 245.602 669.284 243.419 665C241.236 660.634 240.145 655.784 240.145 650.448C240.145 643.092 242.166 637.231 246.208 632.865C250.169 628.5 255.384 626.317 261.851 626.317C262.578 626.317 263.751 626.398 265.368 626.559L268.035 626.923C268.44 627.004 268.803 627.206 269.127 627.53C269.369 627.772 269.49 628.095 269.49 628.5L269.49 642.202C269.49 642.607 269.369 642.93 269.127 643.172C268.803 643.415 268.44 643.496 268.035 643.415L265.489 643.172C265.165 643.092 264.64 643.051 263.912 643.051C261.245 643.051 259.062 643.86 257.364 645.476C255.666 647.093 254.818 649.316 254.818 652.146C254.818 655.299 255.869 657.967 257.97 660.149C260.072 662.332 262.821 663.626 266.216 664.03L300.898 668.274C301.302 668.355 301.908 668.395 302.717 668.395C305.627 668.395 307.971 667.546 309.75 665.849C311.448 664.07 312.296 661.766 312.296 658.937C312.296 655.865 311.367 653.278 309.507 651.176C307.648 649.074 305.101 647.861 301.868 647.538L294.349 646.568C293.945 646.568 293.743 646.73 293.743 647.053L293.743 656.269C293.743 656.673 293.622 656.996 293.379 657.239C293.056 657.482 292.692 657.562 292.288 657.482L281.253 656.148C280.849 656.067 280.525 655.905 280.283 655.663C279.96 655.339 279.798 654.975 279.798 654.571L279.798 629.712C279.798 629.308 279.96 628.985 280.283 628.742C280.525 628.5 280.849 628.419 281.253 628.5L300.534 630.925C308.618 631.895 315.045 635.129 319.815 640.626C324.584 646.123 326.969 652.914 326.969 660.998ZM326.969 596.678C326.969 603.954 324.908 609.734 320.785 614.019C316.662 618.304 311.165 620.446 304.293 620.446C302.353 620.446 300.898 620.365 299.928 620.204L242.57 613.17C242.166 613.17 241.842 613.009 241.6 612.685C241.277 612.362 241.115 611.998 241.115 611.594L241.115 597.891C241.115 597.487 241.277 597.164 241.6 596.921C241.842 596.678 242.166 596.598 242.57 596.678L300.776 603.833C301.261 603.914 301.908 603.954 302.717 603.954C305.627 603.954 307.971 603.146 309.75 601.529C311.448 599.831 312.296 597.608 312.296 594.86C312.296 591.707 311.245 589.079 309.144 586.977C307.042 584.795 304.253 583.501 300.776 583.097L242.57 575.942C242.166 575.862 241.842 575.7 241.6 575.457C241.277 575.134 241.115 574.77 241.115 574.366L241.115 560.542C241.115 560.138 241.277 559.814 241.6 559.572C241.842 559.329 242.166 559.249 242.57 559.329L299.928 566.363C305.263 567.009 309.992 568.707 314.115 571.456C318.157 574.204 321.31 577.761 323.574 582.127C325.837 586.492 326.969 591.343 326.969 596.678ZM325.999 518.938C325.999 519.828 325.595 520.313 324.786 520.394L291.318 528.154C290.994 528.316 290.833 528.518 290.833 528.761L290.833 536.158C290.833 536.562 291.035 536.764 291.439 536.764L324.544 540.887C324.948 540.968 325.312 541.17 325.635 541.493C325.878 541.736 325.999 542.059 325.999 542.463L325.999 556.166C325.999 557.055 325.514 557.5 324.544 557.5L242.57 547.435C242.166 547.354 241.842 547.152 241.6 546.829C241.277 546.506 241.115 546.142 241.115 545.738L241.115 517.119C241.115 510.733 243.055 505.68 246.936 501.962C250.735 498.243 255.869 496.383 262.336 496.383C264.276 496.383 265.731 496.464 266.701 496.626C271.875 497.192 276.362 498.849 280.162 501.598C283.961 504.266 286.791 507.701 288.65 511.905C288.812 512.309 289.095 512.431 289.499 512.269L324.301 503.174L324.786 503.174C325.595 503.174 325.999 503.659 325.999 504.629L325.999 518.938ZM255.788 531.792C255.788 532.116 255.99 532.358 256.394 532.52L277.13 535.066C277.534 535.066 277.736 534.905 277.736 534.581L277.736 524.274C277.736 521.04 276.564 518.372 274.22 516.271C271.794 514.169 268.642 513.118 264.761 513.118C262.013 513.118 259.83 513.886 258.213 515.422C256.596 516.958 255.788 519.019 255.788 521.606L255.788 531.792ZM326.969 467.599C326.969 474.875 324.908 480.655 320.785 484.94C316.662 489.225 311.165 491.367 304.293 491.367C302.353 491.367 300.898 491.286 299.928 491.125L242.57 484.091C242.166 484.091 241.842 483.93 241.6 483.606C241.277 483.283 241.115 482.919 241.115 482.515L241.115 468.812C241.115 468.408 241.277 468.085 241.6 467.842C241.842 467.599 242.166 467.519 242.57 467.599L300.776 474.754C301.261 474.835 301.908 474.875 302.717 474.875C305.627 474.875 307.971 474.067 309.75 472.45C311.448 470.752 312.296 468.529 312.296 465.781C312.296 462.628 311.245 460 309.144 457.898C307.042 455.716 304.253 454.422 300.776 454.018L242.57 446.863C242.166 446.783 241.842 446.621 241.6 446.378C241.277 446.055 241.115 445.691 241.115 445.287L241.115 431.463C241.115 431.059 241.277 430.735 241.6 430.493C241.842 430.25 242.166 430.17 242.57 430.25L299.928 437.284C305.263 437.93 309.992 439.628 314.115 442.377C318.157 445.125 321.31 448.682 323.574 453.048C325.837 457.413 326.969 462.264 326.969 467.599ZM326.969 379.511C326.969 386.868 324.948 392.729 320.906 397.094C316.783 401.379 311.326 403.521 304.536 403.521C303.646 403.521 302.312 403.441 300.534 403.279L266.459 399.035C261.204 398.388 256.596 396.731 252.635 394.063C248.674 391.314 245.602 387.798 243.419 383.513C241.236 379.148 240.145 374.297 240.145 368.961C240.145 361.605 242.166 355.744 246.208 351.378C250.169 347.013 255.384 344.83 261.851 344.83C262.579 344.83 263.751 344.911 265.368 345.073L268.035 345.436C268.44 345.517 268.803 345.719 269.127 346.043C269.369 346.285 269.491 346.609 269.491 347.013L269.491 360.716C269.491 361.12 269.369 361.443 269.127 361.686C268.803 361.928 268.44 362.009 268.035 361.928L265.489 361.686C265.165 361.605 264.64 361.564 263.912 361.564C261.245 361.564 259.062 362.373 257.364 363.99C255.667 365.606 254.818 367.83 254.818 370.659C254.818 373.812 255.869 376.48 257.97 378.662C260.072 380.845 262.821 382.139 266.216 382.543L300.898 386.787C301.302 386.868 301.908 386.908 302.717 386.908C305.627 386.908 307.971 386.06 309.75 384.362C311.448 382.583 312.296 380.279 312.296 377.45C312.296 374.378 311.367 371.791 309.507 369.689C307.648 367.587 305.101 366.374 301.868 366.051L294.349 365.081C293.945 365.081 293.743 365.243 293.743 365.566L293.743 374.782C293.743 375.186 293.622 375.51 293.379 375.752C293.056 375.995 292.692 376.076 292.288 375.995L281.253 374.661C280.849 374.58 280.525 374.418 280.283 374.176C279.96 373.852 279.798 373.489 279.798 373.084L279.798 348.225C279.798 347.821 279.96 347.498 280.283 347.255C280.525 347.013 280.849 346.932 281.253 347.013L300.534 349.438C308.618 350.408 315.045 353.642 319.815 359.139C324.584 364.636 326.969 371.427 326.969 379.511ZM326.969 315.192C326.969 322.467 324.908 328.248 320.785 332.532C316.662 336.817 311.165 338.959 304.293 338.959C302.353 338.959 300.898 338.878 299.928 338.717L242.57 331.683C242.166 331.683 241.843 331.522 241.6 331.198C241.277 330.875 241.115 330.511 241.115 330.107L241.115 316.404C241.115 316 241.277 315.677 241.6 315.434C241.843 315.192 242.166 315.111 242.57 315.192L300.776 322.346C301.261 322.427 301.908 322.467 302.717 322.467C305.627 322.467 307.971 321.659 309.75 320.042C311.448 318.344 312.296 316.121 312.296 313.373C312.296 310.22 311.245 307.592 309.144 305.491C307.042 303.308 304.253 302.014 300.776 301.61L242.57 294.456C242.166 294.375 241.843 294.213 241.6 293.971C241.277 293.647 241.115 293.283 241.115 292.879L241.115 279.055C241.115 278.651 241.277 278.328 241.6 278.085C241.843 277.843 242.166 277.762 242.57 277.843L299.928 284.876C305.263 285.523 309.992 287.22 314.115 289.969C318.157 292.717 321.31 296.275 323.574 300.64C325.837 305.005 326.969 309.856 326.969 315.192ZM325.999 237.451C325.999 238.341 325.595 238.826 324.787 238.907L291.318 246.667C290.995 246.829 290.833 247.031 290.833 247.274L290.833 254.671C290.833 255.075 291.035 255.277 291.439 255.277L324.544 259.4C324.948 259.481 325.312 259.683 325.635 260.006C325.878 260.249 325.999 260.572 325.999 260.977L325.999 274.679C325.999 275.569 325.514 276.013 324.544 276.013L242.57 265.948C242.166 265.867 241.843 265.665 241.6 265.342C241.277 265.019 241.115 264.655 241.115 264.251L241.115 235.633C241.115 229.246 243.055 224.193 246.936 220.475C250.735 216.756 255.869 214.897 262.336 214.897C264.276 214.897 265.731 214.977 266.701 215.139C271.875 215.705 276.362 217.362 280.162 220.111C283.961 222.779 286.791 226.214 288.65 230.418C288.812 230.822 289.095 230.944 289.499 230.782L324.301 221.687L324.787 221.687C325.595 221.687 325.999 222.172 325.999 223.142L325.999 237.451ZM255.788 250.305C255.788 250.629 255.99 250.871 256.394 251.033L277.13 253.579C277.534 253.579 277.736 253.418 277.736 253.094L277.736 242.787C277.736 239.553 276.564 236.886 274.22 234.784C271.795 232.682 268.642 231.631 264.761 231.631C262.013 231.631 259.83 232.399 258.213 233.935C256.596 235.471 255.788 237.532 255.788 240.119L255.788 250.305ZM326.969 186.113C326.969 193.388 324.908 199.169 320.785 203.453C316.662 207.738 311.165 209.88 304.293 209.88C302.353 209.88 300.898 209.799 299.928 209.638L242.57 202.604C242.166 202.604 241.843 202.443 241.6 202.119C241.277 201.796 241.115 201.432 241.115 201.028L241.115 187.325C241.115 186.921 241.277 186.598 241.6 186.355C241.843 186.113 242.166 186.032 242.57 186.113L300.776 193.267C301.261 193.348 301.908 193.388 302.717 193.388C305.627 193.388 307.971 192.58 309.75 190.963C311.448 189.266 312.296 187.042 312.296 184.294C312.296 181.141 311.245 178.514 309.144 176.412C307.042 174.229 304.253 172.935 300.776 172.531L242.57 165.377C242.166 165.296 241.843 165.134 241.6 164.892C241.277 164.568 241.115 164.204 241.115 163.8L241.115 149.976C241.115 149.572 241.277 149.249 241.6 149.006C241.843 148.764 242.166 148.683 242.57 148.764L299.928 155.797C305.263 156.444 309.992 158.141 314.115 160.89C318.157 163.639 321.31 167.196 323.574 171.561C325.837 175.927 326.969 180.777 326.969 186.113Z" fill="#002144" fill-opacity="0.9"/>
</g>
<g style="mix-blend-mode:color-dodge">
<path d="M439.969 864.182C439.969 871.539 437.948 877.4 433.906 881.765C429.783 886.05 424.326 888.192 417.535 888.192C416.646 888.192 415.312 888.111 413.534 887.95L379.459 883.706C374.204 883.059 369.596 881.402 365.635 878.734C361.674 875.985 358.602 872.469 356.419 868.184C354.236 863.818 353.145 858.968 353.145 853.632C353.145 846.276 355.166 840.415 359.208 836.049C363.169 831.684 368.383 829.501 374.851 829.501C375.578 829.501 376.751 829.582 378.367 829.743L381.035 830.107C381.439 830.188 381.803 830.39 382.127 830.714C382.369 830.956 382.49 831.279 382.49 831.684L382.49 845.386C382.49 845.791 382.369 846.114 382.127 846.357C381.803 846.599 381.439 846.68 381.035 846.599L378.489 846.357C378.165 846.276 377.64 846.235 376.912 846.235C374.245 846.235 372.062 847.044 370.364 848.661C368.666 850.277 367.818 852.501 367.818 855.33C367.818 858.483 368.869 861.151 370.97 863.333C373.072 865.516 375.821 866.81 379.216 867.214L413.898 871.458C414.302 871.539 414.908 871.579 415.717 871.579C418.627 871.579 420.971 870.73 422.75 869.033C424.447 867.254 425.296 864.95 425.296 862.121C425.296 859.049 424.367 856.462 422.507 854.36C420.648 852.258 418.101 851.045 414.868 850.722L407.349 849.752C406.945 849.752 406.743 849.914 406.743 850.237L406.743 859.453C406.743 859.857 406.622 860.181 406.379 860.423C406.056 860.666 405.692 860.746 405.288 860.666L394.253 859.332C393.849 859.251 393.525 859.089 393.283 858.847C392.959 858.523 392.798 858.159 392.798 857.755L392.798 832.896C392.798 832.492 392.959 832.169 393.283 831.926C393.525 831.684 393.849 831.603 394.253 831.684L413.534 834.109C421.618 835.079 428.045 838.313 432.815 843.81C437.584 849.307 439.969 856.098 439.969 864.182ZM439.969 799.863C439.969 807.138 437.908 812.919 433.785 817.203C429.662 821.488 424.165 823.63 417.293 823.63C415.353 823.63 413.898 823.549 412.927 823.388L355.57 816.354C355.166 816.354 354.842 816.193 354.6 815.869C354.277 815.546 354.115 815.182 354.115 814.778L354.115 801.075C354.115 800.671 354.277 800.348 354.6 800.105C354.842 799.863 355.166 799.782 355.57 799.863L413.776 807.017C414.261 807.098 414.908 807.138 415.717 807.138C418.627 807.138 420.971 806.33 422.75 804.713C424.447 803.015 425.296 800.792 425.296 798.044C425.296 794.891 424.245 792.263 422.143 790.161C420.042 787.979 417.253 786.685 413.776 786.281L355.57 779.127C355.166 779.046 354.842 778.884 354.6 778.641C354.277 778.318 354.115 777.954 354.115 777.55L354.115 763.726C354.115 763.322 354.277 762.999 354.6 762.756C354.842 762.513 355.166 762.433 355.57 762.513L412.927 769.547C418.263 770.193 422.992 771.891 427.115 774.64C431.157 777.388 434.31 780.945 436.574 785.311C438.837 789.676 439.969 794.527 439.969 799.863ZM438.999 722.122C438.999 723.012 438.595 723.497 437.786 723.578L404.318 731.338C403.994 731.5 403.833 731.702 403.833 731.945L403.833 739.342C403.833 739.746 404.035 739.948 404.439 739.948L437.544 744.071C437.948 744.152 438.312 744.354 438.635 744.677C438.878 744.92 438.999 745.243 438.999 745.647L438.999 759.35C438.999 760.239 438.514 760.684 437.544 760.684L355.57 750.619C355.166 750.538 354.842 750.336 354.6 750.013C354.277 749.69 354.115 749.326 354.115 748.922L354.115 720.303C354.115 713.917 356.055 708.864 359.935 705.146C363.735 701.427 368.869 699.567 375.336 699.567C377.276 699.567 378.731 699.648 379.701 699.81C384.875 700.376 389.362 702.033 393.162 704.782C396.961 707.45 399.791 710.885 401.65 715.089C401.812 715.493 402.095 715.615 402.499 715.453L437.301 706.358L437.786 706.358C438.595 706.358 438.999 706.843 438.999 707.813L438.999 722.122ZM368.788 734.976C368.788 735.3 368.99 735.542 369.394 735.704L390.13 738.25C390.534 738.25 390.736 738.089 390.736 737.765L390.736 727.458C390.736 724.224 389.564 721.557 387.22 719.455C384.794 717.353 381.642 716.302 377.761 716.302C375.013 716.302 372.83 717.07 371.213 718.606C369.596 720.142 368.788 722.203 368.788 724.79L368.788 734.976ZM439.969 670.784C439.969 678.059 437.908 683.84 433.785 688.124C429.662 692.409 424.165 694.551 417.293 694.551C415.353 694.551 413.898 694.47 412.927 694.309L355.57 687.275C355.166 687.275 354.842 687.114 354.6 686.79C354.277 686.467 354.115 686.103 354.115 685.699L354.115 671.996C354.115 671.592 354.277 671.269 354.6 671.026C354.842 670.784 355.166 670.703 355.57 670.784L413.776 677.938C414.261 678.019 414.908 678.059 415.717 678.059C418.627 678.059 420.971 677.251 422.75 675.634C424.447 673.936 425.296 671.713 425.296 668.965C425.296 665.812 424.245 663.184 422.143 661.083C420.042 658.9 417.253 657.606 413.776 657.202L355.57 650.048C355.166 649.967 354.842 649.805 354.6 649.563C354.277 649.239 354.115 648.875 354.115 648.471L354.115 634.647C354.115 634.243 354.277 633.92 354.6 633.677C354.842 633.435 355.166 633.354 355.57 633.435L412.927 640.468C418.263 641.115 422.992 642.812 427.115 645.561C431.157 648.31 434.31 651.867 436.574 656.232C438.837 660.598 439.969 665.448 439.969 670.784ZM439.969 582.695C439.969 590.052 437.948 595.913 433.906 600.279C429.783 604.563 424.326 606.706 417.536 606.706C416.646 606.706 415.312 606.625 413.534 606.463L379.459 602.219C374.204 601.572 369.596 599.915 365.635 597.247C361.674 594.498 358.602 590.982 356.419 586.697C354.236 582.332 353.145 577.481 353.145 572.146C353.145 564.789 355.166 558.928 359.208 554.562C363.169 550.197 368.384 548.014 374.851 548.014C375.578 548.014 376.751 548.095 378.368 548.257L381.035 548.62C381.44 548.701 381.803 548.903 382.127 549.227C382.369 549.469 382.49 549.793 382.49 550.197L382.49 563.9C382.49 564.304 382.369 564.627 382.127 564.87C381.803 565.112 381.44 565.193 381.035 565.112L378.489 564.87C378.165 564.789 377.64 564.748 376.912 564.748C374.245 564.748 372.062 565.557 370.364 567.174C368.666 568.791 367.818 571.014 367.818 573.843C367.818 576.996 368.869 579.664 370.97 581.847C373.072 584.029 375.821 585.323 379.216 585.727L413.898 589.971C414.302 590.052 414.908 590.092 415.717 590.092C418.627 590.092 420.971 589.244 422.75 587.546C424.448 585.767 425.296 583.463 425.296 580.634C425.296 577.562 424.367 574.975 422.507 572.873C420.648 570.771 418.101 569.559 414.868 569.235L407.349 568.265C406.945 568.265 406.743 568.427 406.743 568.75L406.743 577.966C406.743 578.37 406.622 578.694 406.379 578.936C406.056 579.179 405.692 579.26 405.288 579.179L394.253 577.845C393.849 577.764 393.525 577.602 393.283 577.36C392.96 577.036 392.798 576.673 392.798 576.268L392.798 551.41C392.798 551.005 392.96 550.682 393.283 550.439C393.525 550.197 393.849 550.116 394.253 550.197L413.534 552.622C421.618 553.592 428.045 556.826 432.815 562.323C437.584 567.82 439.969 574.611 439.969 582.695ZM439.969 518.376C439.969 525.652 437.908 531.432 433.785 535.716C429.662 540.001 424.165 542.143 417.293 542.143C415.353 542.143 413.898 542.062 412.928 541.901L355.57 534.868C355.166 534.868 354.842 534.706 354.6 534.382C354.277 534.059 354.115 533.695 354.115 533.291L354.115 519.588C354.115 519.184 354.277 518.861 354.6 518.618C354.842 518.376 355.166 518.295 355.57 518.376L413.776 525.53C414.261 525.611 414.908 525.652 415.717 525.652C418.627 525.652 420.971 524.843 422.75 523.226C424.448 521.529 425.296 519.305 425.296 516.557C425.296 513.404 424.245 510.777 422.144 508.675C420.042 506.492 417.253 505.198 413.776 504.794L355.57 497.64C355.166 497.559 354.842 497.397 354.6 497.155C354.277 496.831 354.115 496.468 354.115 496.063L354.115 482.239C354.115 481.835 354.277 481.512 354.6 481.269C354.842 481.027 355.166 480.946 355.57 481.027L412.928 488.06C418.263 488.707 422.992 490.404 427.115 493.153C431.157 495.902 434.31 499.459 436.574 503.824C438.837 508.19 439.969 513.04 439.969 518.376ZM438.999 440.636C438.999 441.525 438.595 442.01 437.786 442.091L404.318 449.852C403.994 450.013 403.833 450.215 403.833 450.458L403.833 457.855C403.833 458.259 404.035 458.461 404.439 458.461L437.544 462.584C437.948 462.665 438.312 462.867 438.635 463.191C438.878 463.433 438.999 463.756 438.999 464.161L438.999 477.863C438.999 478.753 438.514 479.197 437.544 479.197L355.57 469.132C355.166 469.052 354.842 468.85 354.6 468.526C354.277 468.203 354.115 467.839 354.115 467.435L354.115 438.817C354.115 432.43 356.055 427.378 359.936 423.659C363.735 419.94 368.869 418.081 375.336 418.081C377.276 418.081 378.731 418.162 379.701 418.323C384.875 418.889 389.362 420.546 393.162 423.295C396.961 425.963 399.791 429.399 401.65 433.602C401.812 434.007 402.095 434.128 402.499 433.966L437.301 424.871L437.786 424.871C438.595 424.871 438.999 425.356 438.999 426.327L438.999 440.636ZM368.788 453.49C368.788 453.813 368.99 454.055 369.394 454.217L390.13 456.764C390.534 456.764 390.736 456.602 390.736 456.279L390.736 445.971C390.736 442.738 389.564 440.07 387.22 437.968C384.794 435.866 381.642 434.815 377.761 434.815C375.013 434.815 372.83 435.583 371.213 437.119C369.596 438.655 368.788 440.716 368.788 443.303L368.788 453.49ZM439.969 389.297C439.969 396.573 437.908 402.353 433.785 406.637C429.662 410.922 424.165 413.064 417.293 413.064C415.353 413.064 413.898 412.983 412.928 412.822L355.57 405.789C355.166 405.789 354.842 405.627 354.6 405.303C354.277 404.98 354.115 404.616 354.115 404.212L354.115 390.509C354.115 390.105 354.277 389.782 354.6 389.539C354.842 389.297 355.166 389.216 355.57 389.297L413.776 396.451C414.261 396.532 414.908 396.573 415.717 396.573C418.627 396.573 420.971 395.764 422.75 394.147C424.448 392.45 425.296 390.226 425.296 387.478C425.296 384.325 424.245 381.698 422.144 379.596C420.042 377.413 417.253 376.119 413.776 375.715L355.57 368.561C355.166 368.48 354.842 368.318 354.6 368.076C354.277 367.752 354.115 367.389 354.115 366.984L354.115 353.16C354.115 352.756 354.277 352.433 354.6 352.19C354.842 351.948 355.166 351.867 355.57 351.948L412.928 358.981C418.263 359.628 422.992 361.325 427.115 364.074C431.157 366.823 434.31 370.38 436.574 374.745C438.837 379.111 439.969 383.961 439.969 389.297ZM439.969 301.209C439.969 308.565 437.948 314.426 433.906 318.792C429.783 323.076 424.326 325.219 417.536 325.219C416.646 325.219 415.312 325.138 413.534 324.976L379.459 320.732C374.204 320.085 369.596 318.428 365.635 315.76C361.674 313.012 358.602 309.495 356.419 305.21C354.236 300.845 353.145 295.994 353.145 290.659C353.145 283.302 355.166 277.441 359.208 273.076C363.169 268.71 368.384 266.527 374.851 266.527C375.579 266.527 376.751 266.608 378.368 266.77L381.035 267.134C381.44 267.214 381.803 267.417 382.127 267.74C382.369 267.982 382.491 268.306 382.491 268.71L382.491 282.413C382.491 282.817 382.369 283.14 382.127 283.383C381.803 283.625 381.44 283.706 381.035 283.625L378.489 283.383C378.165 283.302 377.64 283.262 376.912 283.262C374.245 283.262 372.062 284.07 370.364 285.687C368.667 287.304 367.818 289.527 367.818 292.356C367.818 295.509 368.869 298.177 370.97 300.36C373.072 302.542 375.821 303.836 379.216 304.24L413.898 308.484C414.302 308.565 414.908 308.606 415.717 308.606C418.627 308.606 420.971 307.757 422.75 306.059C424.448 304.281 425.296 301.977 425.296 299.147C425.296 296.075 424.367 293.488 422.507 291.386C420.648 289.284 418.101 288.072 414.868 287.748L407.349 286.778C406.945 286.778 406.743 286.94 406.743 287.263L406.743 296.479C406.743 296.884 406.622 297.207 406.379 297.449C406.056 297.692 405.692 297.773 405.288 297.692L394.253 296.358C393.849 296.277 393.525 296.116 393.283 295.873C392.96 295.55 392.798 295.186 392.798 294.782L392.798 269.923C392.798 269.518 392.96 269.195 393.283 268.953C393.525 268.71 393.849 268.629 394.253 268.71L413.534 271.135C421.618 272.105 428.045 275.339 432.815 280.836C437.584 286.334 439.969 293.124 439.969 301.209ZM439.969 236.889C439.969 244.165 437.908 249.945 433.785 254.229C429.662 258.514 424.165 260.656 417.293 260.656C415.353 260.656 413.898 260.576 412.928 260.414L355.57 253.381C355.166 253.381 354.843 253.219 354.6 252.896C354.277 252.572 354.115 252.208 354.115 251.804L354.115 238.101C354.115 237.697 354.277 237.374 354.6 237.131C354.843 236.889 355.166 236.808 355.57 236.889L413.776 244.043C414.261 244.124 414.908 244.165 415.717 244.165C418.627 244.165 420.971 243.356 422.75 241.739C424.448 240.042 425.296 237.819 425.296 235.07C425.296 231.917 424.245 229.29 422.144 227.188C420.042 225.005 417.253 223.712 413.776 223.307L355.57 216.153C355.166 216.072 354.843 215.91 354.6 215.668C354.277 215.344 354.115 214.981 354.115 214.576L354.115 200.752C354.115 200.348 354.277 200.025 354.6 199.782C354.843 199.54 355.166 199.459 355.57 199.54L412.928 206.573C418.263 207.22 422.992 208.917 427.115 211.666C431.157 214.415 434.31 217.972 436.574 222.337C438.837 226.703 439.969 231.553 439.969 236.889ZM438.999 159.149C438.999 160.038 438.595 160.523 437.787 160.604L404.318 168.365C403.995 168.526 403.833 168.729 403.833 168.971L403.833 176.368C403.833 176.772 404.035 176.974 404.439 176.974L437.544 181.097C437.948 181.178 438.312 181.38 438.635 181.704C438.878 181.946 438.999 182.27 438.999 182.674L438.999 196.377C438.999 197.266 438.514 197.71 437.544 197.71L355.57 187.646C355.166 187.565 354.843 187.363 354.6 187.039C354.277 186.716 354.115 186.352 354.115 185.948L354.115 157.33C354.115 150.943 356.055 145.891 359.936 142.172C363.735 138.453 368.869 136.594 375.336 136.594C377.276 136.594 378.731 136.675 379.701 136.836C384.875 137.402 389.362 139.059 393.162 141.808C396.961 144.476 399.791 147.912 401.65 152.115C401.812 152.52 402.095 152.641 402.499 152.479L437.301 143.385L437.787 143.385C438.595 143.385 438.999 143.87 438.999 144.84L438.999 159.149ZM368.788 172.003C368.788 172.326 368.99 172.569 369.394 172.73L390.13 175.277C390.534 175.277 390.736 175.115 390.736 174.792L390.736 164.484C390.736 161.251 389.564 158.583 387.22 156.481C384.795 154.379 381.642 153.328 377.761 153.328C375.013 153.328 372.83 154.096 371.213 155.632C369.596 157.168 368.788 159.23 368.788 161.817L368.788 172.003ZM439.969 107.81C439.969 115.086 437.908 120.866 433.785 125.151C429.662 129.435 424.165 131.578 417.293 131.578C415.353 131.578 413.898 131.497 412.928 131.335L355.57 124.302C355.166 124.302 354.843 124.14 354.6 123.817C354.277 123.493 354.115 123.13 354.115 122.725L354.115 109.023C354.115 108.618 354.277 108.295 354.6 108.052C354.843 107.81 355.166 107.729 355.57 107.81L413.776 114.964C414.261 115.045 414.908 115.086 415.717 115.086C418.627 115.086 420.971 114.277 422.75 112.66C424.448 110.963 425.296 108.74 425.296 105.991C425.296 102.838 424.245 100.211 422.144 98.1089C420.042 95.9261 417.253 94.6327 413.776 94.2285L355.57 87.0739C355.166 86.9931 354.843 86.8314 354.6 86.5889C354.277 86.2655 354.115 85.9017 354.115 85.4975L354.115 71.6735C354.115 71.2693 354.277 70.9459 354.6 70.7034C354.843 70.4609 355.166 70.38 355.57 70.4609L412.928 77.4941C418.263 78.1409 422.992 79.8386 427.115 82.5872C431.157 85.3358 434.31 88.8929 436.574 93.2583C438.837 97.6238 439.969 102.474 439.969 107.81Z" fill="#002144" fill-opacity="0.7"/>
</g>
<g style="mix-blend-mode:color-dodge">
<path d="M577.97 1081.6C577.97 1088.95 575.949 1094.81 571.907 1099.18C567.784 1103.46 562.327 1105.61 555.536 1105.61C554.647 1105.61 553.313 1105.53 551.535 1105.36L517.46 1101.12C512.205 1100.47 507.597 1098.82 503.636 1096.15C499.675 1093.4 496.603 1089.88 494.42 1085.6C492.237 1081.23 491.146 1076.38 491.146 1071.05C491.146 1063.69 493.167 1057.83 497.209 1053.46C501.17 1049.1 506.384 1046.92 512.852 1046.92C513.579 1046.92 514.752 1047 516.368 1047.16L519.036 1047.52C519.44 1047.6 519.804 1047.8 520.128 1048.13C520.37 1048.37 520.491 1048.69 520.491 1049.1L520.491 1062.8C520.491 1063.2 520.37 1063.53 520.128 1063.77C519.804 1064.01 519.44 1064.09 519.036 1064.01L516.49 1063.77C516.166 1063.69 515.641 1063.65 514.913 1063.65C512.245 1063.65 510.063 1064.46 508.365 1066.07C506.667 1067.69 505.819 1069.91 505.819 1072.74C505.819 1075.9 506.869 1078.56 508.971 1080.75C511.073 1082.93 513.822 1084.22 517.217 1084.63L551.899 1088.87C552.303 1088.95 552.909 1088.99 553.717 1088.99C556.628 1088.99 558.972 1088.14 560.751 1086.45C562.448 1084.67 563.297 1082.36 563.297 1079.53C563.297 1076.46 562.368 1073.88 560.508 1071.77C558.649 1069.67 556.102 1068.46 552.869 1068.14L545.35 1067.17C544.946 1067.17 544.744 1067.33 544.744 1067.65L544.744 1076.87C544.744 1077.27 544.623 1077.59 544.38 1077.84C544.057 1078.08 543.693 1078.16 543.289 1078.08L532.254 1076.75C531.85 1076.66 531.526 1076.5 531.284 1076.26C530.96 1075.94 530.799 1075.57 530.799 1075.17L530.799 1050.31C530.799 1049.91 530.96 1049.58 531.284 1049.34C531.526 1049.1 531.85 1049.02 532.254 1049.1L551.535 1051.52C559.619 1052.49 566.046 1055.73 570.816 1061.22C575.585 1066.72 577.97 1073.51 577.97 1081.6ZM577.97 1017.28C577.97 1024.55 575.909 1030.33 571.786 1034.62C567.663 1038.9 562.165 1041.04 555.294 1041.04C553.354 1041.04 551.899 1040.96 550.928 1040.8L493.571 1033.77C493.167 1033.77 492.843 1033.61 492.601 1033.28C492.277 1032.96 492.116 1032.6 492.116 1032.19L492.116 1018.49C492.116 1018.09 492.277 1017.76 492.601 1017.52C492.843 1017.28 493.167 1017.2 493.571 1017.28L551.777 1024.43C552.262 1024.51 552.909 1024.55 553.718 1024.55C556.628 1024.55 558.972 1023.74 560.751 1022.13C562.448 1020.43 563.297 1018.21 563.297 1015.46C563.297 1012.3 562.246 1009.68 560.144 1007.58C558.043 1005.39 555.254 1004.1 551.777 1003.7L493.571 996.541C493.167 996.46 492.843 996.298 492.601 996.056C492.278 995.732 492.116 995.368 492.116 994.964L492.116 981.14C492.116 980.736 492.278 980.413 492.601 980.17C492.843 979.928 493.167 979.847 493.571 979.928L550.928 986.961C556.264 987.608 560.993 989.305 565.116 992.054C569.158 994.802 572.311 998.36 574.575 1002.73C576.838 1007.09 577.97 1011.94 577.97 1017.28ZM577 939.537C577 940.426 576.596 940.911 575.787 940.992L542.319 948.752C541.995 948.914 541.834 949.116 541.834 949.359L541.834 956.756C541.834 957.16 542.036 957.362 542.44 957.362L575.545 961.485C575.949 961.566 576.313 961.768 576.636 962.091C576.879 962.334 577 962.657 577 963.062L577 976.764C577 977.654 576.515 978.098 575.545 978.098L493.571 968.033C493.167 967.952 492.843 967.75 492.601 967.427C492.278 967.104 492.116 966.74 492.116 966.336L492.116 937.718C492.116 931.331 494.056 926.278 497.936 922.56C501.736 918.841 506.87 916.982 513.337 916.982C515.277 916.982 516.732 917.062 517.702 917.224C522.876 917.79 527.363 919.447 531.163 922.196C534.962 924.864 537.792 928.299 539.651 932.503C539.813 932.907 540.096 933.029 540.5 932.867L575.302 923.772L575.787 923.772C576.596 923.772 577 924.257 577 925.227L577 939.537ZM506.789 952.39C506.789 952.714 506.991 952.956 507.395 953.118L528.131 955.664C528.535 955.664 528.737 955.503 528.737 955.179L528.737 944.872C528.737 941.638 527.565 938.971 525.221 936.869C522.795 934.767 519.643 933.716 515.762 933.716C513.014 933.716 510.831 934.484 509.214 936.02C507.597 937.556 506.789 939.617 506.789 942.204L506.789 952.39ZM577.97 888.198C577.97 895.473 575.909 901.254 571.786 905.538C567.663 909.823 562.166 911.965 555.294 911.965C553.354 911.965 551.899 911.884 550.928 911.723L493.571 904.689C493.167 904.689 492.843 904.528 492.601 904.204C492.278 903.881 492.116 903.517 492.116 903.113L492.116 889.41C492.116 889.006 492.278 888.683 492.601 888.44C492.843 888.198 493.167 888.117 493.571 888.198L551.777 895.352C552.262 895.433 552.909 895.473 553.718 895.473C556.628 895.473 558.972 894.665 560.751 893.048C562.448 891.351 563.297 889.127 563.297 886.379C563.297 883.226 562.246 880.599 560.144 878.497C558.043 876.314 555.254 875.02 551.777 874.616L493.571 867.462C493.167 867.381 492.843 867.219 492.601 866.977C492.278 866.653 492.116 866.289 492.116 865.885L492.116 852.061C492.116 851.657 492.278 851.334 492.601 851.091C492.843 850.849 493.167 850.768 493.571 850.849L550.928 857.882C556.264 858.529 560.993 860.226 565.116 862.975C569.158 865.724 572.311 869.281 574.575 873.646C576.838 878.012 577.97 882.862 577.97 888.198ZM577.97 800.109C577.97 807.466 575.949 813.327 571.907 817.693C567.784 821.977 562.327 824.12 555.536 824.12C554.647 824.12 553.313 824.039 551.535 823.877L517.46 819.633C512.205 818.986 507.597 817.329 503.636 814.661C499.675 811.912 496.603 808.396 494.42 804.111C492.237 799.746 491.146 794.895 491.146 789.56C491.146 782.203 493.167 776.342 497.209 771.976C501.17 767.611 506.384 765.428 512.852 765.428C513.579 765.428 514.752 765.509 516.368 765.671L519.036 766.035C519.44 766.115 519.804 766.317 520.128 766.641C520.37 766.883 520.491 767.207 520.491 767.611L520.491 781.314C520.491 781.718 520.37 782.041 520.128 782.284C519.804 782.526 519.44 782.607 519.036 782.526L516.49 782.284C516.166 782.203 515.641 782.163 514.913 782.163C512.246 782.163 510.063 782.971 508.365 784.588C506.667 786.205 505.819 788.428 505.819 791.257C505.819 794.41 506.87 797.078 508.971 799.261C511.073 801.443 513.822 802.737 517.217 803.141L551.899 807.385C552.303 807.466 552.909 807.507 553.718 807.507C556.628 807.507 558.972 806.658 560.751 804.96C562.448 803.181 563.297 800.877 563.297 798.048C563.297 794.976 562.368 792.389 560.508 790.287C558.649 788.185 556.102 786.973 552.869 786.649L545.35 785.679C544.946 785.679 544.744 785.841 544.744 786.164L544.744 795.38C544.744 795.784 544.623 796.108 544.38 796.35C544.057 796.593 543.693 796.674 543.289 796.593L532.254 795.259C531.85 795.178 531.526 795.016 531.284 794.774C530.96 794.451 530.799 794.087 530.799 793.683L530.799 768.824C530.799 768.419 530.96 768.096 531.284 767.853C531.526 767.611 531.85 767.53 532.254 767.611L551.535 770.036C559.619 771.006 566.046 774.24 570.816 779.737C575.585 785.235 577.97 792.025 577.97 800.109ZM577.97 735.79C577.97 743.066 575.909 748.846 571.786 753.13C567.663 757.415 562.166 759.557 555.294 759.557C553.354 759.557 551.899 759.477 550.928 759.315L493.571 752.282C493.167 752.282 492.843 752.12 492.601 751.797C492.278 751.473 492.116 751.109 492.116 750.705L492.116 737.002C492.116 736.598 492.278 736.275 492.601 736.032C492.843 735.79 493.167 735.709 493.571 735.79L551.777 742.944C552.262 743.025 552.909 743.066 553.718 743.066C556.628 743.066 558.972 742.257 560.751 740.64C562.448 738.943 563.297 736.719 563.297 733.971C563.297 730.818 562.246 728.191 560.144 726.089C558.043 723.906 555.254 722.613 551.777 722.208L493.571 715.054C493.167 714.973 492.843 714.811 492.601 714.569C492.278 714.245 492.116 713.882 492.116 713.477L492.116 699.653C492.116 699.249 492.278 698.926 492.601 698.683C492.843 698.441 493.167 698.36 493.571 698.441L550.928 705.474C556.264 706.121 560.993 707.818 565.116 710.567C569.158 713.316 572.311 716.873 574.575 721.238C576.838 725.604 577.97 730.454 577.97 735.79ZM577 658.05C577 658.939 576.596 659.424 575.787 659.505L542.319 667.266C541.995 667.427 541.834 667.629 541.834 667.872L541.834 675.269C541.834 675.673 542.036 675.875 542.44 675.875L575.545 679.998C575.949 680.079 576.313 680.281 576.636 680.605C576.879 680.847 577 681.171 577 681.575L577 695.277C577 696.167 576.515 696.611 575.545 696.611L493.571 686.547C493.167 686.466 492.843 686.264 492.601 685.94C492.278 685.617 492.116 685.253 492.116 684.849L492.116 656.231C492.116 649.844 494.056 644.792 497.937 641.073C501.736 637.354 506.87 635.495 513.337 635.495C515.277 635.495 516.732 635.576 517.702 635.737C522.876 636.303 527.363 637.96 531.163 640.709C534.962 643.377 537.792 646.813 539.651 651.016C539.813 651.421 540.096 651.542 540.5 651.38L575.302 642.285L575.787 642.285C576.596 642.285 577 642.771 577 643.741L577 658.05ZM506.789 670.904C506.789 671.227 506.991 671.469 507.395 671.631L528.131 674.178C528.535 674.178 528.737 674.016 528.737 673.693L528.737 663.385C528.737 660.152 527.565 657.484 525.221 655.382C522.795 653.28 519.643 652.229 515.762 652.229C513.014 652.229 510.831 652.997 509.214 654.533C507.597 656.069 506.789 658.131 506.789 660.717L506.789 670.904ZM577.97 606.711C577.97 613.987 575.909 619.767 571.786 624.051C567.663 628.336 562.166 630.478 555.294 630.478C553.354 630.478 551.899 630.398 550.929 630.236L493.571 623.203C493.167 623.203 492.843 623.041 492.601 622.718C492.278 622.394 492.116 622.03 492.116 621.626L492.116 607.923C492.116 607.519 492.278 607.196 492.601 606.953C492.843 606.711 493.167 606.63 493.571 606.711L551.777 613.865C552.262 613.946 552.909 613.987 553.718 613.987C556.628 613.987 558.972 613.178 560.751 611.561C562.449 609.864 563.297 607.64 563.297 604.892C563.297 601.739 562.246 599.112 560.145 597.01C558.043 594.827 555.254 593.534 551.777 593.129L493.571 585.975C493.167 585.894 492.843 585.732 492.601 585.49C492.278 585.166 492.116 584.803 492.116 584.398L492.116 570.574C492.116 570.17 492.278 569.847 492.601 569.604C492.843 569.362 493.167 569.281 493.571 569.362L550.929 576.395C556.264 577.042 560.993 578.739 565.116 581.488C569.158 584.237 572.311 587.794 574.575 592.159C576.838 596.525 577.97 601.375 577.97 606.711ZM577.97 518.623C577.97 525.979 575.949 531.84 571.907 536.206C567.784 540.49 562.327 542.633 555.537 542.633C554.647 542.633 553.313 542.552 551.535 542.39L517.46 538.146C512.205 537.499 507.597 535.842 503.636 533.174C499.675 530.426 496.603 526.909 494.42 522.624C492.237 518.259 491.146 513.408 491.146 508.073C491.146 500.716 493.167 494.855 497.209 490.49C501.17 486.124 506.385 483.941 512.852 483.941C513.579 483.941 514.752 484.022 516.369 484.184L519.036 484.548C519.441 484.629 519.804 484.831 520.128 485.154C520.37 485.397 520.491 485.72 520.491 486.124L520.491 499.827C520.491 500.231 520.37 500.554 520.128 500.797C519.804 501.039 519.441 501.12 519.036 501.039L516.49 500.797C516.166 500.716 515.641 500.676 514.913 500.676C512.246 500.676 510.063 501.484 508.365 503.101C506.667 504.718 505.819 506.941 505.819 509.77C505.819 512.923 506.87 515.591 508.971 517.774C511.073 519.957 513.822 521.25 517.217 521.654L551.899 525.898C552.303 525.979 552.909 526.02 553.718 526.02C556.628 526.02 558.972 525.171 560.751 523.473C562.449 521.695 563.297 519.391 563.297 516.561C563.297 513.489 562.368 510.902 560.508 508.8C558.649 506.698 556.102 505.486 552.869 505.162L545.35 504.192C544.946 504.192 544.744 504.354 544.744 504.677L544.744 513.893C544.744 514.298 544.623 514.621 544.38 514.863C544.057 515.106 543.693 515.187 543.289 515.106L532.254 513.772C531.85 513.691 531.526 513.53 531.284 513.287C530.961 512.964 530.799 512.6 530.799 512.196L530.799 487.337C530.799 486.933 530.961 486.609 531.284 486.367C531.526 486.124 531.85 486.043 532.254 486.124L551.535 488.549C559.619 489.519 566.046 492.753 570.816 498.25C575.585 503.748 577.97 510.538 577.97 518.623ZM577.97 454.303C577.97 461.579 575.909 467.359 571.786 471.644C567.663 475.928 562.166 478.07 555.294 478.07C553.354 478.07 551.899 477.99 550.929 477.828L493.571 470.795C493.167 470.795 492.843 470.633 492.601 470.31C492.278 469.986 492.116 469.622 492.116 469.218L492.116 455.516C492.116 455.111 492.278 454.788 492.601 454.545C492.843 454.303 493.167 454.222 493.571 454.303L551.777 461.457C552.262 461.538 552.909 461.579 553.718 461.579C556.628 461.579 558.972 460.77 560.751 459.153C562.449 457.456 563.297 455.233 563.297 452.484C563.297 449.331 562.246 446.704 560.145 444.602C558.043 442.419 555.254 441.126 551.777 440.721L493.571 433.567C493.167 433.486 492.843 433.324 492.601 433.082C492.278 432.758 492.116 432.395 492.116 431.99L492.116 418.166C492.116 417.762 492.278 417.439 492.601 417.196C492.843 416.954 493.167 416.873 493.571 416.954L550.929 423.987C556.264 424.634 560.993 426.332 565.116 429.08C569.158 431.829 572.311 435.386 574.575 439.751C576.838 444.117 577.97 448.967 577.97 454.303ZM577 376.563C577 377.452 576.596 377.937 575.787 378.018L542.319 385.779C541.995 385.94 541.834 386.143 541.834 386.385L541.834 393.782C541.834 394.186 542.036 394.388 542.44 394.388L575.545 398.511C575.949 398.592 576.313 398.794 576.636 399.118C576.879 399.36 577 399.684 577 400.088L577 413.791C577 414.68 576.515 415.124 575.545 415.124L493.571 405.06C493.167 404.979 492.843 404.777 492.601 404.453C492.278 404.13 492.116 403.766 492.116 403.362L492.116 374.744C492.116 368.357 494.056 363.305 497.937 359.586C501.736 355.867 506.87 354.008 513.337 354.008C515.277 354.008 516.732 354.089 517.702 354.25C522.876 354.816 527.363 356.474 531.163 359.222C534.962 361.89 537.792 365.326 539.651 369.53C539.813 369.934 540.096 370.055 540.5 369.893L575.302 360.799L575.787 360.799C576.596 360.799 577 361.284 577 362.254L577 376.563ZM506.789 389.417C506.789 389.74 506.991 389.983 507.395 390.144L528.131 392.691C528.535 392.691 528.737 392.529 528.737 392.206L528.737 381.898C528.737 378.665 527.565 375.997 525.221 373.895C522.795 371.793 519.643 370.742 515.762 370.742C513.014 370.742 510.831 371.51 509.214 373.046C507.597 374.582 506.789 376.644 506.789 379.231L506.789 389.417ZM577.97 325.224C577.97 332.5 575.909 338.28 571.786 342.565C567.663 346.849 562.166 348.992 555.294 348.992C553.354 348.992 551.899 348.911 550.929 348.749L493.571 341.716C493.167 341.716 492.843 341.554 492.601 341.231C492.278 340.907 492.116 340.544 492.116 340.139L492.116 326.437C492.116 326.032 492.278 325.709 492.601 325.467C492.843 325.224 493.167 325.143 493.571 325.224L551.777 332.379C552.262 332.459 552.909 332.5 553.718 332.5C556.628 332.5 558.972 331.691 560.751 330.075C562.449 328.377 563.297 326.154 563.297 323.405C563.297 320.252 562.246 317.625 560.145 315.523C558.043 313.34 555.254 312.047 551.777 311.643L493.571 304.488C493.167 304.407 492.844 304.245 492.601 304.003C492.278 303.68 492.116 303.316 492.116 302.912L492.116 289.088C492.116 288.683 492.278 288.36 492.601 288.117C492.844 287.875 493.167 287.794 493.571 287.875L550.929 294.908C556.264 295.555 560.993 297.253 565.116 300.001C569.158 302.75 572.311 306.307 574.575 310.672C576.838 315.038 577.97 319.888 577.97 325.224Z" fill="#002144" fill-opacity="0.5"/>
</g>
<g style="mix-blend-mode:color-dodge">
<path d="M694.97 999.129C694.97 1006.49 692.949 1012.35 688.907 1016.71C684.784 1021 679.327 1023.14 672.536 1023.14C671.647 1023.14 670.313 1023.06 668.535 1022.9L634.46 1018.65C629.205 1018.01 624.597 1016.35 620.636 1013.68C616.675 1010.93 613.603 1007.42 611.42 1003.13C609.237 998.765 608.146 993.915 608.146 988.579C608.146 981.222 610.167 975.361 614.209 970.996C618.17 966.63 623.384 964.448 629.852 964.448C630.579 964.448 631.752 964.529 633.368 964.69L636.036 965.054C636.44 965.135 636.804 965.337 637.128 965.66C637.37 965.903 637.491 966.226 637.491 966.63L637.491 980.333C637.491 980.737 637.37 981.061 637.128 981.303C636.804 981.546 636.44 981.627 636.036 981.546L633.49 981.303C633.166 981.222 632.641 981.182 631.913 981.182C629.245 981.182 627.063 981.99 625.365 983.607C623.667 985.224 622.819 987.447 622.819 990.277C622.819 993.43 623.869 996.097 625.971 998.28C628.073 1000.46 630.822 1001.76 634.217 1002.16L668.899 1006.4C669.303 1006.49 669.909 1006.53 670.717 1006.53C673.628 1006.53 675.972 1005.68 677.751 1003.98C679.448 1002.2 680.297 999.897 680.297 997.068C680.297 993.996 679.368 991.409 677.508 989.307C675.649 987.205 673.102 985.992 669.869 985.669L662.35 984.699C661.946 984.699 661.744 984.86 661.744 985.184L661.744 994.4C661.744 994.804 661.623 995.127 661.38 995.37C661.057 995.612 660.693 995.693 660.289 995.612L649.254 994.278C648.85 994.198 648.526 994.036 648.284 993.793C647.96 993.47 647.799 993.106 647.799 992.702L647.799 967.843C647.799 967.439 647.96 967.116 648.284 966.873C648.526 966.63 648.85 966.55 649.254 966.63L668.535 969.056C676.619 970.026 683.046 973.26 687.816 978.757C692.585 984.254 694.97 991.045 694.97 999.129ZM694.97 934.809C694.97 942.085 692.909 947.865 688.786 952.15C684.663 956.435 679.165 958.577 672.294 958.577C670.354 958.577 668.899 958.496 667.928 958.334L610.571 951.301C610.167 951.301 609.843 951.139 609.601 950.816C609.277 950.493 609.116 950.129 609.116 949.725L609.116 936.022C609.116 935.618 609.278 935.294 609.601 935.052C609.843 934.809 610.167 934.728 610.571 934.809L668.777 941.964C669.262 942.045 669.909 942.085 670.718 942.085C673.628 942.085 675.972 941.277 677.751 939.66C679.448 937.962 680.297 935.739 680.297 932.99C680.297 929.838 679.246 927.21 677.144 925.108C675.043 922.926 672.254 921.632 668.777 921.228L610.571 914.073C610.167 913.992 609.843 913.831 609.601 913.588C609.278 913.265 609.116 912.901 609.116 912.497L609.116 898.673C609.116 898.269 609.278 897.945 609.601 897.703C609.843 897.46 610.167 897.379 610.571 897.46L667.928 904.494C673.264 905.14 677.993 906.838 682.116 909.587C686.158 912.335 689.311 915.892 691.575 920.258C693.838 924.623 694.97 929.474 694.97 934.809ZM694 857.069C694 857.958 693.596 858.444 692.787 858.524L659.319 866.285C658.995 866.447 658.834 866.649 658.834 866.892L658.834 874.289C658.834 874.693 659.036 874.895 659.44 874.895L692.545 879.018C692.949 879.099 693.313 879.301 693.636 879.624C693.879 879.867 694 880.19 694 880.594L694 894.297C694 895.186 693.515 895.631 692.545 895.631L610.571 885.566C610.167 885.485 609.843 885.283 609.601 884.96C609.278 884.636 609.116 884.273 609.116 883.868L609.116 855.25C609.116 848.864 611.056 843.811 614.936 840.092C618.736 836.374 623.87 834.514 630.337 834.514C632.277 834.514 633.732 834.595 634.702 834.757C639.876 835.323 644.363 836.98 648.163 839.729C651.962 842.396 654.792 845.832 656.651 850.036C656.813 850.44 657.096 850.561 657.5 850.4L692.302 841.305L692.787 841.305C693.596 841.305 694 841.79 694 842.76L694 857.069ZM623.789 869.923C623.789 870.246 623.991 870.489 624.395 870.651L645.131 873.197C645.535 873.197 645.737 873.036 645.737 872.712L645.737 862.405C645.737 859.171 644.565 856.503 642.221 854.401C639.795 852.3 636.643 851.249 632.762 851.249C630.014 851.249 627.831 852.017 626.214 853.553C624.597 855.089 623.789 857.15 623.789 859.737L623.789 869.923ZM694.97 805.73C694.97 813.006 692.909 818.786 688.786 823.071C684.663 827.356 679.166 829.498 672.294 829.498C670.354 829.498 668.899 829.417 667.928 829.255L610.571 822.222C610.167 822.222 609.843 822.06 609.601 821.737C609.278 821.414 609.116 821.05 609.116 820.646L609.116 806.943C609.116 806.539 609.278 806.215 609.601 805.973C609.843 805.73 610.167 805.65 610.571 805.73L668.777 812.885C669.262 812.966 669.909 813.006 670.718 813.006C673.628 813.006 675.972 812.198 677.751 810.581C679.448 808.883 680.297 806.66 680.297 803.911C680.297 800.759 679.246 798.131 677.144 796.029C675.043 793.847 672.254 792.553 668.777 792.149L610.571 784.994C610.167 784.914 609.843 784.752 609.601 784.509C609.278 784.186 609.116 783.822 609.116 783.418L609.116 769.594C609.116 769.19 609.278 768.866 609.601 768.624C609.843 768.381 610.167 768.3 610.571 768.381L667.928 775.415C673.264 776.061 677.993 777.759 682.116 780.508C686.158 783.256 689.311 786.813 691.575 791.179C693.838 795.544 694.97 800.395 694.97 805.73ZM694.97 717.642C694.97 724.999 692.949 730.86 688.907 735.225C684.784 739.51 679.327 741.652 672.536 741.652C671.647 741.652 670.313 741.571 668.535 741.41L634.46 737.166C629.205 736.519 624.597 734.862 620.636 732.194C616.675 729.445 613.603 725.928 611.42 721.644C609.237 717.278 608.146 712.428 608.146 707.092C608.146 699.736 610.167 693.875 614.209 689.509C618.17 685.144 623.384 682.961 629.852 682.961C630.579 682.961 631.752 683.042 633.368 683.203L636.036 683.567C636.44 683.648 636.804 683.85 637.128 684.174C637.37 684.416 637.491 684.739 637.491 685.144L637.491 698.846C637.491 699.251 637.37 699.574 637.128 699.816C636.804 700.059 636.44 700.14 636.036 700.059L633.49 699.816C633.166 699.736 632.641 699.695 631.913 699.695C629.246 699.695 627.063 700.504 625.365 702.12C623.667 703.737 622.819 705.96 622.819 708.79C622.819 711.943 623.87 714.611 625.971 716.793C628.073 718.976 630.822 720.27 634.217 720.674L668.899 724.918C669.303 724.999 669.909 725.039 670.718 725.039C673.628 725.039 675.972 724.19 677.751 722.493C679.448 720.714 680.297 718.41 680.297 715.581C680.297 712.509 679.368 709.922 677.508 707.82C675.649 705.718 673.102 704.505 669.869 704.182L662.35 703.212C661.946 703.212 661.744 703.374 661.744 703.697L661.744 712.913C661.744 713.317 661.623 713.64 661.38 713.883C661.057 714.126 660.693 714.206 660.289 714.126L649.254 712.792C648.85 712.711 648.526 712.549 648.284 712.307C647.96 711.983 647.799 711.619 647.799 711.215L647.799 686.356C647.799 685.952 647.96 685.629 648.284 685.386C648.526 685.144 648.85 685.063 649.254 685.144L668.535 687.569C676.619 688.539 683.046 691.773 687.816 697.27C692.585 702.767 694.97 709.558 694.97 717.642ZM694.97 653.323C694.97 660.598 692.909 666.379 688.786 670.663C684.663 674.948 679.166 677.09 672.294 677.09C670.354 677.09 668.899 677.009 667.928 676.848L610.571 669.814C610.167 669.814 609.843 669.653 609.601 669.329C609.278 669.006 609.116 668.642 609.116 668.238L609.116 654.535C609.116 654.131 609.278 653.808 609.601 653.565C609.843 653.322 610.167 653.242 610.571 653.322L668.777 660.477C669.262 660.558 669.909 660.598 670.718 660.598C673.628 660.598 675.972 659.79 677.751 658.173C679.448 656.475 680.297 654.252 680.297 651.504C680.297 648.351 679.246 645.723 677.144 643.621C675.043 641.439 672.254 640.145 668.777 639.741L610.571 632.586C610.167 632.506 609.843 632.344 609.601 632.101C609.278 631.778 609.116 631.414 609.116 631.01L609.116 617.186C609.116 616.782 609.278 616.458 609.601 616.216C609.843 615.973 610.167 615.893 610.571 615.973L667.928 623.007C673.264 623.653 677.993 625.351 682.116 628.1C686.158 630.848 689.311 634.405 691.575 638.771C693.838 643.136 694.97 647.987 694.97 653.323ZM694 575.582C694 576.472 693.596 576.957 692.787 577.038L659.319 584.798C658.995 584.96 658.834 585.162 658.834 585.405L658.834 592.802C658.834 593.206 659.036 593.408 659.44 593.408L692.545 597.531C692.949 597.612 693.313 597.814 693.636 598.137C693.879 598.38 694 598.703 694 599.107L694 612.81C694 613.699 693.515 614.144 692.545 614.144L610.571 604.079C610.167 603.998 609.843 603.796 609.601 603.473C609.278 603.15 609.116 602.786 609.116 602.382L609.116 573.763C609.116 567.377 611.056 562.324 614.937 558.606C618.736 554.887 623.87 553.027 630.337 553.027C632.277 553.027 633.732 553.108 634.702 553.27C639.876 553.836 644.363 555.493 648.163 558.242C651.962 560.91 654.792 564.345 656.651 568.549C656.813 568.953 657.096 569.075 657.5 568.913L692.302 559.818L692.787 559.818C693.596 559.818 694 560.303 694 561.273L694 575.582ZM623.789 588.436C623.789 588.76 623.991 589.002 624.395 589.164L645.131 591.71C645.535 591.71 645.737 591.549 645.737 591.225L645.737 580.918C645.737 577.684 644.565 575.016 642.221 572.915C639.795 570.813 636.643 569.762 632.762 569.762C630.014 569.762 627.831 570.53 626.214 572.066C624.597 573.602 623.789 575.663 623.789 578.25L623.789 588.436ZM694.97 524.244C694.97 531.519 692.909 537.3 688.786 541.584C684.663 545.869 679.166 548.011 672.294 548.011C670.354 548.011 668.899 547.93 667.929 547.769L610.571 540.735C610.167 540.735 609.843 540.574 609.601 540.25C609.278 539.927 609.116 539.563 609.116 539.159L609.116 525.456C609.116 525.052 609.278 524.729 609.601 524.486C609.843 524.244 610.167 524.163 610.571 524.244L668.777 531.398C669.262 531.479 669.909 531.519 670.718 531.519C673.628 531.519 675.972 530.711 677.751 529.094C679.449 527.396 680.297 525.173 680.297 522.425C680.297 519.272 679.246 516.644 677.145 514.542C675.043 512.36 672.254 511.066 668.777 510.662L610.571 503.508C610.167 503.427 609.843 503.265 609.601 503.022C609.278 502.699 609.116 502.335 609.116 501.931L609.116 488.107C609.116 487.703 609.278 487.38 609.601 487.137C609.843 486.894 610.167 486.814 610.571 486.894L667.929 493.928C673.264 494.574 677.993 496.272 682.116 499.021C686.158 501.769 689.311 505.326 691.575 509.692C693.838 514.057 694.97 518.908 694.97 524.244ZM694.97 436.155C694.97 443.512 692.949 449.373 688.907 453.739C684.784 458.023 679.327 460.165 672.537 460.165C671.647 460.165 670.313 460.085 668.535 459.923L634.46 455.679C629.205 455.032 624.597 453.375 620.636 450.707C616.675 447.958 613.603 444.442 611.42 440.157C609.237 435.792 608.146 430.941 608.146 425.605C608.146 418.249 610.167 412.388 614.209 408.022C618.17 403.657 623.385 401.474 629.852 401.474C630.579 401.474 631.752 401.555 633.369 401.717L636.036 402.08C636.441 402.161 636.804 402.363 637.128 402.687C637.37 402.929 637.491 403.253 637.491 403.657L637.491 417.36C637.491 417.764 637.37 418.087 637.128 418.33C636.804 418.572 636.441 418.653 636.036 418.572L633.49 418.33C633.166 418.249 632.641 418.208 631.913 418.208C629.246 418.208 627.063 419.017 625.365 420.634C623.667 422.251 622.819 424.474 622.819 427.303C622.819 430.456 623.87 433.124 625.971 435.307C628.073 437.489 630.822 438.783 634.217 439.187L668.899 443.431C669.303 443.512 669.909 443.552 670.718 443.552C673.628 443.552 675.972 442.704 677.751 441.006C679.449 439.227 680.297 436.923 680.297 434.094C680.297 431.022 679.368 428.435 677.508 426.333C675.649 424.231 673.102 423.019 669.869 422.695L662.35 421.725C661.946 421.725 661.744 421.887 661.744 422.21L661.744 431.426C661.744 431.83 661.623 432.154 661.38 432.396C661.057 432.639 660.693 432.72 660.289 432.639L649.254 431.305C648.85 431.224 648.526 431.062 648.284 430.82C647.961 430.496 647.799 430.133 647.799 429.728L647.799 404.869C647.799 404.465 647.961 404.142 648.284 403.899C648.526 403.657 648.85 403.576 649.254 403.657L668.535 406.082C676.619 407.052 683.046 410.286 687.816 415.783C692.585 421.28 694.97 428.071 694.97 436.155ZM694.97 371.836C694.97 379.111 692.909 384.892 688.786 389.176C684.663 393.461 679.166 395.603 672.294 395.603C670.354 395.603 668.899 395.522 667.929 395.361L610.571 388.327C610.167 388.327 609.843 388.166 609.601 387.842C609.278 387.519 609.116 387.155 609.116 386.751L609.116 373.048C609.116 372.644 609.278 372.321 609.601 372.078C609.843 371.836 610.167 371.755 610.571 371.836L668.777 378.99C669.262 379.071 669.909 379.111 670.718 379.111C673.628 379.111 675.972 378.303 677.751 376.686C679.449 374.988 680.297 372.765 680.297 370.017C680.297 366.864 679.246 364.236 677.145 362.135C675.043 359.952 672.254 358.658 668.777 358.254L610.571 351.1C610.167 351.019 609.843 350.857 609.601 350.615C609.278 350.291 609.116 349.927 609.116 349.523L609.116 335.699C609.116 335.295 609.278 334.972 609.601 334.729C609.843 334.487 610.167 334.406 610.571 334.487L667.929 341.52C673.264 342.167 677.993 343.864 682.116 346.613C686.158 349.362 689.311 352.919 691.575 357.284C693.838 361.65 694.97 366.5 694.97 371.836ZM694 294.096C694 294.985 693.596 295.47 692.787 295.551L659.319 303.312C658.995 303.473 658.834 303.675 658.834 303.918L658.834 311.315C658.834 311.719 659.036 311.921 659.44 311.921L692.545 316.044C692.949 316.125 693.313 316.327 693.636 316.65C693.879 316.893 694 317.216 694 317.621L694 331.323C694 332.213 693.515 332.657 692.545 332.657L610.571 322.592C610.167 322.512 609.843 322.309 609.601 321.986C609.278 321.663 609.116 321.299 609.116 320.895L609.116 292.277C609.116 285.89 611.056 280.837 614.937 277.119C618.736 273.4 623.87 271.541 630.337 271.541C632.277 271.541 633.732 271.621 634.702 271.783C639.876 272.349 644.363 274.006 648.163 276.755C651.962 279.423 654.792 282.858 656.651 287.062C656.813 287.466 657.096 287.588 657.5 287.426L692.302 278.331L692.787 278.331C693.596 278.331 694 278.816 694 279.786L694 294.096ZM623.789 306.949C623.789 307.273 623.991 307.515 624.395 307.677L645.131 310.224C645.535 310.224 645.737 310.062 645.737 309.738L645.737 299.431C645.737 296.197 644.565 293.53 642.221 291.428C639.795 289.326 636.643 288.275 632.762 288.275C630.014 288.275 627.831 289.043 626.214 290.579C624.597 292.115 623.789 294.176 623.789 296.763L623.789 306.949ZM694.97 242.757C694.97 250.032 692.909 255.813 688.786 260.097C684.663 264.382 679.166 266.524 672.294 266.524C670.354 266.524 668.899 266.443 667.929 266.282L610.571 259.248C610.167 259.248 609.844 259.087 609.601 258.763C609.278 258.44 609.116 258.076 609.116 257.672L609.116 243.969C609.116 243.565 609.278 243.242 609.601 242.999C609.844 242.757 610.167 242.676 610.571 242.757L668.777 249.911C669.262 249.992 669.909 250.032 670.718 250.032C673.628 250.032 675.972 249.224 677.751 247.607C679.449 245.91 680.297 243.686 680.297 240.938C680.297 237.785 679.246 235.158 677.145 233.056C675.043 230.873 672.254 229.579 668.777 229.175L610.571 222.021C610.167 221.94 609.844 221.778 609.601 221.536C609.278 221.212 609.116 220.848 609.116 220.444L609.116 206.62C609.116 206.216 609.278 205.893 609.601 205.65C609.844 205.408 610.167 205.327 610.571 205.408L667.929 212.441C673.264 213.088 677.993 214.785 682.116 217.534C686.158 220.283 689.311 223.84 691.575 228.205C693.838 232.571 694.97 237.421 694.97 242.757Z" fill="#002144" fill-opacity="0.3"/>
</g>
<g style="mix-blend-mode:color-dodge">
<path d="M808.97 900.002C808.97 907.359 806.949 913.22 802.907 917.585C798.784 921.87 793.327 924.012 786.536 924.012C785.647 924.012 784.313 923.931 782.535 923.77L748.46 919.525C743.205 918.879 738.597 917.221 734.636 914.554C730.675 911.805 727.603 908.288 725.42 904.004C723.237 899.638 722.146 894.788 722.146 889.452C722.146 882.096 724.167 876.234 728.209 871.869C732.17 867.504 737.384 865.321 743.852 865.321C744.579 865.321 745.752 865.402 747.368 865.563L750.036 865.927C750.44 866.008 750.804 866.21 751.128 866.533C751.37 866.776 751.491 867.099 751.491 867.504L751.491 881.206C751.491 881.61 751.37 881.934 751.128 882.176C750.804 882.419 750.44 882.5 750.036 882.419L747.49 882.176C747.166 882.096 746.641 882.055 745.913 882.055C743.245 882.055 741.063 882.864 739.365 884.48C737.667 886.097 736.819 888.32 736.819 891.15C736.819 894.303 737.869 896.97 739.971 899.153C742.073 901.336 744.822 902.629 748.217 903.034L782.899 907.278C783.303 907.359 783.909 907.399 784.717 907.399C787.628 907.399 789.972 906.55 791.751 904.853C793.448 903.074 794.297 900.77 794.297 897.941C794.297 894.869 793.368 892.282 791.508 890.18C789.649 888.078 787.102 886.865 783.869 886.542L776.35 885.572C775.946 885.572 775.744 885.733 775.744 886.057L775.744 895.273C775.744 895.677 775.623 896 775.38 896.243C775.057 896.485 774.693 896.566 774.289 896.485L763.254 895.152C762.85 895.071 762.526 894.909 762.284 894.666C761.96 894.343 761.799 893.979 761.799 893.575L761.799 868.716C761.799 868.312 761.96 867.989 762.284 867.746C762.526 867.504 762.85 867.423 763.254 867.504L782.535 869.929C790.619 870.899 797.046 874.133 801.816 879.63C806.585 885.127 808.97 891.918 808.97 900.002ZM808.97 835.682C808.97 842.958 806.909 848.738 802.786 853.023C798.663 857.308 793.165 859.45 786.294 859.45C784.354 859.45 782.899 859.369 781.928 859.207L724.571 852.174C724.167 852.174 723.843 852.012 723.601 851.689C723.277 851.366 723.116 851.002 723.116 850.598L723.116 836.895C723.116 836.491 723.278 836.167 723.601 835.925C723.843 835.682 724.167 835.602 724.571 835.682L782.777 842.837C783.262 842.918 783.909 842.958 784.718 842.958C787.628 842.958 789.972 842.15 791.751 840.533C793.448 838.835 794.297 836.612 794.297 833.863C794.297 830.711 793.246 828.083 791.144 825.981C789.043 823.799 786.254 822.505 782.777 822.101L724.571 814.946C724.167 814.866 723.843 814.704 723.601 814.461C723.278 814.138 723.116 813.774 723.116 813.37L723.116 799.546C723.116 799.142 723.278 798.818 723.601 798.576C723.843 798.333 724.167 798.252 724.571 798.333L781.928 805.367C787.264 806.013 791.993 807.711 796.116 810.46C800.158 813.208 803.311 816.765 805.575 821.131C807.838 825.496 808.97 830.347 808.97 835.682ZM808 757.942C808 758.832 807.596 759.317 806.787 759.397L773.319 767.158C772.995 767.32 772.834 767.522 772.834 767.765L772.834 775.162C772.834 775.566 773.036 775.768 773.44 775.768L806.545 779.891C806.949 779.972 807.313 780.174 807.636 780.497C807.879 780.74 808 781.063 808 781.467L808 795.17C808 796.059 807.515 796.504 806.545 796.504L724.571 786.439C724.167 786.358 723.843 786.156 723.601 785.833C723.278 785.509 723.116 785.146 723.116 784.741L723.116 756.123C723.116 749.737 725.056 744.684 728.936 740.965C732.736 737.247 737.87 735.387 744.337 735.387C746.277 735.387 747.732 735.468 748.702 735.63C753.876 736.196 758.363 737.853 762.163 740.602C765.962 743.269 768.792 746.705 770.651 750.909C770.813 751.313 771.096 751.434 771.5 751.273L806.302 742.178L806.787 742.178C807.596 742.178 808 742.663 808 743.633L808 757.942ZM737.789 770.796C737.789 771.12 737.991 771.362 738.395 771.524L759.131 774.07C759.535 774.07 759.737 773.909 759.737 773.585L759.737 763.278C759.737 760.044 758.565 757.376 756.221 755.274C753.795 753.173 750.643 752.122 746.762 752.122C744.014 752.122 741.831 752.89 740.214 754.426C738.597 755.962 737.789 758.023 737.789 760.61L737.789 770.796ZM808.97 706.603C808.97 713.879 806.909 719.659 802.786 723.944C798.663 728.229 793.166 730.371 786.294 730.371C784.354 730.371 782.899 730.29 781.928 730.128L724.571 723.095C724.167 723.095 723.843 722.934 723.601 722.61C723.278 722.287 723.116 721.923 723.116 721.519L723.116 707.816C723.116 707.412 723.278 707.088 723.601 706.846C723.843 706.603 724.167 706.523 724.571 706.603L782.777 713.758C783.262 713.839 783.909 713.879 784.718 713.879C787.628 713.879 789.972 713.071 791.751 711.454C793.448 709.756 794.297 707.533 794.297 704.784C794.297 701.632 793.246 699.004 791.144 696.902C789.043 694.72 786.254 693.426 782.777 693.022L724.571 685.867C724.167 685.787 723.843 685.625 723.601 685.382C723.278 685.059 723.116 684.695 723.116 684.291L723.116 670.467C723.116 670.063 723.278 669.739 723.601 669.497C723.843 669.254 724.167 669.174 724.571 669.254L781.928 676.288C787.264 676.934 791.993 678.632 796.116 681.381C800.158 684.129 803.311 687.686 805.575 692.052C807.838 696.417 808.97 701.268 808.97 706.603ZM808.97 618.515C808.97 625.872 806.949 631.733 802.907 636.098C798.784 640.383 793.327 642.525 786.536 642.525C785.647 642.525 784.313 642.444 782.535 642.283L748.46 638.039C743.205 637.392 738.597 635.735 734.636 633.067C730.675 630.318 727.603 626.802 725.42 622.517C723.237 618.151 722.146 613.301 722.146 607.965C722.146 600.609 724.167 594.748 728.209 590.382C732.17 586.017 737.384 583.834 743.852 583.834C744.579 583.834 745.752 583.915 747.368 584.076L750.036 584.44C750.44 584.521 750.804 584.723 751.128 585.047C751.37 585.289 751.491 585.612 751.491 586.017L751.491 599.719C751.491 600.124 751.37 600.447 751.128 600.69C750.804 600.932 750.44 601.013 750.036 600.932L747.49 600.69C747.166 600.609 746.641 600.568 745.913 600.568C743.246 600.568 741.063 601.377 739.365 602.994C737.667 604.61 736.819 606.834 736.819 609.663C736.819 612.816 737.87 615.484 739.971 617.666C742.073 619.849 744.822 621.143 748.217 621.547L782.899 625.791C783.303 625.872 783.909 625.912 784.718 625.912C787.628 625.912 789.972 625.063 791.751 623.366C793.448 621.587 794.297 619.283 794.297 616.454C794.297 613.382 793.368 610.795 791.508 608.693C789.649 606.591 787.102 605.378 783.869 605.055L776.35 604.085C775.946 604.085 775.744 604.247 775.744 604.57L775.744 613.786C775.744 614.19 775.623 614.514 775.38 614.756C775.057 614.999 774.693 615.079 774.289 614.999L763.254 613.665C762.85 613.584 762.526 613.422 762.284 613.18C761.96 612.856 761.799 612.492 761.799 612.088L761.799 587.229C761.799 586.825 761.96 586.502 762.284 586.259C762.526 586.017 762.85 585.936 763.254 586.017L782.535 588.442C790.619 589.412 797.046 592.646 801.816 598.143C806.585 603.64 808.97 610.431 808.97 618.515ZM808.97 554.196C808.97 561.471 806.909 567.252 802.786 571.536C798.663 575.821 793.166 577.963 786.294 577.963C784.354 577.963 782.899 577.882 781.928 577.721L724.571 570.687C724.167 570.687 723.843 570.526 723.601 570.202C723.278 569.879 723.116 569.515 723.116 569.111L723.116 555.408C723.116 555.004 723.278 554.681 723.601 554.438C723.843 554.196 724.167 554.115 724.571 554.196L782.777 561.35C783.262 561.431 783.909 561.471 784.718 561.471C787.628 561.471 789.972 560.663 791.751 559.046C793.448 557.348 794.297 555.125 794.297 552.377C794.297 549.224 793.246 546.596 791.144 544.494C789.043 542.312 786.254 541.018 782.777 540.614L724.571 533.46C724.167 533.379 723.843 533.217 723.601 532.974C723.278 532.651 723.116 532.287 723.116 531.883L723.116 518.059C723.116 517.655 723.278 517.332 723.601 517.089C723.843 516.846 724.167 516.766 724.571 516.846L781.928 523.88C787.264 524.526 791.993 526.224 796.116 528.973C800.158 531.721 803.311 535.278 805.575 539.644C807.838 544.009 808.97 548.86 808.97 554.196ZM808 476.455C808 477.345 807.596 477.83 806.787 477.911L773.319 485.671C772.995 485.833 772.834 486.035 772.834 486.278L772.834 493.675C772.834 494.079 773.036 494.281 773.44 494.281L806.545 498.404C806.949 498.485 807.313 498.687 807.636 499.01C807.879 499.253 808 499.576 808 499.98L808 513.683C808 514.572 807.515 515.017 806.545 515.017L724.571 504.952C724.167 504.871 723.843 504.669 723.601 504.346C723.278 504.023 723.116 503.659 723.116 503.255L723.116 474.636C723.116 468.25 725.056 463.197 728.937 459.479C732.736 455.76 737.87 453.9 744.337 453.9C746.277 453.9 747.732 453.981 748.702 454.143C753.876 454.709 758.363 456.366 762.163 459.115C765.962 461.783 768.792 465.218 770.651 469.422C770.813 469.826 771.096 469.948 771.5 469.786L806.302 460.691L806.787 460.691C807.596 460.691 808 461.176 808 462.146L808 476.455ZM737.789 489.309C737.789 489.633 737.991 489.875 738.395 490.037L759.131 492.583C759.535 492.583 759.737 492.422 759.737 492.098L759.737 481.791C759.737 478.557 758.565 475.89 756.221 473.788C753.795 471.686 750.643 470.635 746.762 470.635C744.014 470.635 741.831 471.403 740.214 472.939C738.597 474.475 737.789 476.536 737.789 479.123L737.789 489.309ZM808.97 425.117C808.97 432.392 806.909 438.173 802.786 442.457C798.663 446.742 793.166 448.884 786.294 448.884C784.354 448.884 782.899 448.803 781.929 448.642L724.571 441.608C724.167 441.608 723.843 441.447 723.601 441.123C723.278 440.8 723.116 440.436 723.116 440.032L723.116 426.329C723.116 425.925 723.278 425.602 723.601 425.359C723.843 425.117 724.167 425.036 724.571 425.117L782.777 432.271C783.262 432.352 783.909 432.392 784.718 432.392C787.628 432.392 789.972 431.584 791.751 429.967C793.449 428.269 794.297 426.046 794.297 423.298C794.297 420.145 793.246 417.517 791.145 415.416C789.043 413.233 786.254 411.939 782.777 411.535L724.571 404.381C724.167 404.3 723.843 404.138 723.601 403.896C723.278 403.572 723.116 403.208 723.116 402.804L723.116 388.98C723.116 388.576 723.278 388.253 723.601 388.01C723.843 387.768 724.167 387.687 724.571 387.768L781.929 394.801C787.264 395.448 791.993 397.145 796.116 399.894C800.158 402.642 803.311 406.2 805.575 410.565C807.838 414.93 808.97 419.781 808.97 425.117ZM808.97 337.028C808.97 344.385 806.949 350.246 802.907 354.612C798.784 358.896 793.327 361.039 786.537 361.039C785.647 361.039 784.313 360.958 782.535 360.796L748.46 356.552C743.205 355.905 738.597 354.248 734.636 351.58C730.675 348.831 727.603 345.315 725.42 341.03C723.237 336.665 722.146 331.814 722.146 326.479C722.146 319.122 724.167 313.261 728.209 308.895C732.17 304.53 737.385 302.347 743.852 302.347C744.579 302.347 745.752 302.428 747.369 302.59L750.036 302.953C750.441 303.034 750.804 303.236 751.128 303.56C751.37 303.802 751.491 304.126 751.491 304.53L751.491 318.233C751.491 318.637 751.37 318.96 751.128 319.203C750.804 319.445 750.441 319.526 750.036 319.445L747.49 319.203C747.166 319.122 746.641 319.081 745.913 319.081C743.246 319.081 741.063 319.89 739.365 321.507C737.667 323.124 736.819 325.347 736.819 328.176C736.819 331.329 737.87 333.997 739.971 336.18C742.073 338.362 744.822 339.656 748.217 340.06L782.899 344.304C783.303 344.385 783.909 344.425 784.718 344.425C787.628 344.425 789.972 343.577 791.751 341.879C793.449 340.1 794.297 337.796 794.297 334.967C794.297 331.895 793.368 329.308 791.508 327.206C789.649 325.104 787.102 323.892 783.869 323.568L776.35 322.598C775.946 322.598 775.744 322.76 775.744 323.083L775.744 332.299C775.744 332.703 775.623 333.027 775.38 333.269C775.057 333.512 774.693 333.593 774.289 333.512L763.254 332.178C762.85 332.097 762.526 331.935 762.284 331.693C761.961 331.369 761.799 331.006 761.799 330.601L761.799 305.743C761.799 305.338 761.961 305.015 762.284 304.772C762.526 304.53 762.85 304.449 763.254 304.53L782.535 306.955C790.619 307.925 797.046 311.159 801.816 316.656C806.585 322.153 808.97 328.944 808.97 337.028ZM808.97 272.709C808.97 279.984 806.909 285.765 802.786 290.049C798.663 294.334 793.166 296.476 786.294 296.476C784.354 296.476 782.899 296.395 781.929 296.234L724.571 289.2C724.167 289.2 723.843 289.039 723.601 288.715C723.278 288.392 723.116 288.028 723.116 287.624L723.116 273.921C723.116 273.517 723.278 273.194 723.601 272.951C723.843 272.709 724.167 272.628 724.571 272.709L782.777 279.863C783.262 279.944 783.909 279.984 784.718 279.984C787.628 279.984 789.972 279.176 791.751 277.559C793.449 275.862 794.297 273.638 794.297 270.89C794.297 267.737 793.246 265.11 791.145 263.008C789.043 260.825 786.254 259.531 782.777 259.127L724.571 251.973C724.167 251.892 723.843 251.73 723.601 251.488C723.278 251.164 723.116 250.8 723.116 250.396L723.116 236.572C723.116 236.168 723.278 235.845 723.601 235.602C723.843 235.36 724.167 235.279 724.571 235.36L781.929 242.393C787.264 243.04 791.993 244.737 796.116 247.486C800.158 250.235 803.311 253.792 805.575 258.157C807.838 262.523 808.97 267.373 808.97 272.709ZM808 194.969C808 195.858 807.596 196.343 806.787 196.424L773.319 204.185C772.995 204.346 772.834 204.548 772.834 204.791L772.834 212.188C772.834 212.592 773.036 212.794 773.44 212.794L806.545 216.917C806.949 216.998 807.313 217.2 807.636 217.524C807.879 217.766 808 218.089 808 218.494L808 232.196C808 233.086 807.515 233.53 806.545 233.53L724.571 223.465C724.167 223.385 723.843 223.182 723.601 222.859C723.278 222.536 723.116 222.172 723.116 221.768L723.116 193.15C723.116 186.763 725.056 181.71 728.937 177.992C732.736 174.273 737.87 172.414 744.337 172.414C746.277 172.414 747.732 172.494 748.702 172.656C753.876 173.222 758.363 174.879 762.163 177.628C765.962 180.296 768.792 183.732 770.651 187.935C770.813 188.34 771.096 188.461 771.5 188.299L806.302 179.204L806.787 179.204C807.596 179.204 808 179.689 808 180.66L808 194.969ZM737.789 207.822C737.789 208.146 737.991 208.388 738.395 208.55L759.131 211.097C759.535 211.097 759.737 210.935 759.737 210.612L759.737 200.304C759.737 197.07 758.565 194.403 756.221 192.301C753.795 190.199 750.643 189.148 746.762 189.148C744.014 189.148 741.831 189.916 740.214 191.452C738.597 192.988 737.789 195.049 737.789 197.636L737.789 207.822ZM808.97 143.63C808.97 150.906 806.909 156.686 802.786 160.97C798.663 165.255 793.166 167.397 786.294 167.397C784.354 167.397 782.899 167.316 781.929 167.155L724.571 160.122C724.167 160.122 723.844 159.96 723.601 159.636C723.278 159.313 723.116 158.949 723.116 158.545L723.116 144.842C723.116 144.438 723.278 144.115 723.601 143.872C723.844 143.63 724.167 143.549 724.571 143.63L782.777 150.784C783.262 150.865 783.909 150.906 784.718 150.906C787.628 150.906 789.972 150.097 791.751 148.48C793.449 146.783 794.297 144.559 794.297 141.811C794.297 138.658 793.246 136.031 791.145 133.929C789.043 131.746 786.254 130.452 782.777 130.048L724.571 122.894C724.167 122.813 723.844 122.651 723.601 122.409C723.278 122.085 723.116 121.722 723.116 121.317L723.116 107.493C723.116 107.089 723.278 106.766 723.601 106.523C723.844 106.281 724.167 106.2 724.571 106.281L781.929 113.314C787.264 113.961 791.993 115.658 796.116 118.407C800.158 121.156 803.311 124.713 805.575 129.078C807.838 133.444 808.97 138.294 808.97 143.63Z" fill="#002144" fill-opacity="0.2"/>
</g>
</svg>
