<svg width="233" height="16" viewBox="0 0 233 16" fill="none" xmlns="http://www.w3.org/2000/svg">
<path d="M1 7C0.447715 7 0 7.44772 0 8C0 8.55228 0.447715 9 1 9V7ZM232.707 8.70711C233.098 8.31658 233.098 7.68342 232.707 7.29289L226.343 0.928932C225.953 0.538408 225.319 0.538408 224.929 0.928932C224.538 1.31946 224.538 1.95262 224.929 2.34315L230.586 8L224.929 13.6569C224.538 14.0474 224.538 14.6805 224.929 15.0711C225.319 15.4616 225.953 15.4616 226.343 15.0711L232.707 8.70711ZM1 9H232V7H1V9Z" fill="#F2F6FC"/>
</svg>
