<svg width="440" height="131" viewBox="0 0 440 131" fill="none" xmlns="http://www.w3.org/2000/svg">
<g filter="url(#filter0_i)">
<path d="M97.6486 124.295C97.6907 124.228 97.7357 124.163 97.7778 124.095L97.7928 124.099H97.7958C97.877 124.217 97.9852 124.275 98.1054 124.306C98.1234 124.299 98.1414 124.299 98.1595 124.292C98.5862 123.987 98.9979 123.648 99.5299 123.542C100.501 123.624 101.465 123.024 102.442 123.509C102.541 123.692 102.64 123.875 102.743 124.058C103.094 124.2 103.503 124.187 103.803 124.462L103.818 124.472C104.101 124.685 104.398 124.217 104.678 124.492L104.672 124.489C104.768 124.838 104.99 125.038 105.345 125.059C105.501 125.069 105.643 125.109 105.781 125.167C105.877 125.167 105.973 125.167 106.066 125.164C106.28 124.994 106.478 125.025 106.694 125.181C106.839 125.286 107.019 125.34 107.184 125.418C107.238 125.327 107.292 125.238 107.347 125.147C107.377 125.177 107.377 125.228 107.416 125.252C108.41 125.269 109.432 125.215 110.006 126.31C110.075 126.358 110.114 126.425 110.129 126.51C110.298 126.493 110.466 126.483 110.631 126.476C110.637 126.459 110.649 126.446 110.655 126.425C110.688 126.439 110.721 126.453 110.755 126.47C110.944 126.466 111.13 126.486 111.32 126.514C111.416 126.364 111.512 126.215 111.545 126.049C111.617 125.71 111.821 125.598 112.107 125.499C112.332 125.421 112.326 125.35 112.17 124.909C112.257 124.814 112.344 124.719 112.431 124.624C112.522 124.652 112.606 124.696 112.678 124.757C112.993 125.174 113.33 125.574 113.799 125.822C113.943 125.764 114.069 125.669 114.205 125.55C114.298 125.469 114.466 125.483 114.601 125.455C114.607 125.537 114.631 125.615 114.667 125.686C114.67 125.727 114.685 125.764 114.691 125.805C114.797 125.74 114.887 125.649 114.956 125.523C115.049 125.357 115.163 125.201 115.268 125.042C115.374 124.95 115.476 124.858 115.581 124.767C115.993 124.187 116.573 123.943 117.249 123.888C117.327 123.698 117.456 123.58 117.67 123.6C118.144 123.644 118.595 123.57 119.016 123.339C119.115 123.434 119.217 123.532 119.32 123.627C119.509 123.831 119.698 124.034 119.885 124.241C119.966 124.258 120.044 124.278 120.122 124.299C120.582 124.072 121.066 123.997 121.573 124.058C121.661 124.058 121.751 124.068 121.835 124.089C122.03 124.089 122.229 124.085 122.424 124.085C122.52 124.17 122.613 124.255 122.709 124.34C122.797 124.343 122.884 124.35 122.971 124.356C123.064 124.275 123.163 124.194 123.262 124.119C123.44 124.092 123.62 124.068 123.797 124.041C123.87 123.851 123.945 123.665 124.173 123.62C124.185 123.549 124.182 123.478 124.164 123.407C124.266 123.542 124.368 123.678 124.474 123.81C124.416 123.77 124.356 123.746 124.284 123.743C124.338 123.848 124.395 123.956 124.45 124.061C124.531 124.089 124.615 124.105 124.699 124.112C124.993 124.424 125.396 124.431 125.772 124.509C125.991 124.753 126.25 124.74 126.514 124.611C126.758 124.492 126.998 124.363 127.238 124.238C127.244 124.309 127.259 124.38 127.277 124.451C127.434 124.628 127.677 124.716 127.839 124.889C127.86 124.784 127.882 124.679 127.906 124.574C128.302 124.455 128.627 124.655 128.963 124.814L128.969 124.818C129.075 124.709 129.18 124.597 129.288 124.489C129.363 124.499 129.438 124.502 129.513 124.499C130.033 124.631 130.532 124.591 131.007 124.323C131.277 124.316 131.548 124.306 131.818 124.299C131.815 124.295 131.815 124.289 131.812 124.282C131.809 124.278 131.806 124.275 131.806 124.275H131.809C131.722 124.092 131.713 123.909 131.848 123.729C132.212 123.705 132.573 123.658 132.936 123.668C133.577 123.685 134.087 123.461 134.457 122.922C134.634 122.884 134.809 122.851 134.986 122.813C135.308 122.745 135.5 122.884 135.581 123.2C135.716 123.18 135.864 123.186 135.987 123.132C136.359 122.969 136.699 123.01 137.024 123.251C137.189 123.254 137.354 123.258 137.519 123.261C137.595 123.244 137.67 123.22 137.745 123.22C137.769 123.22 137.793 123.285 137.817 123.315L137.841 123.336C137.94 123.325 138.039 123.315 138.139 123.305C138.319 123.298 138.499 123.291 138.679 123.288C138.694 123.213 138.716 123.142 138.743 123.071C139.115 123.034 139.488 122.834 139.864 123.057C139.999 123.071 140.143 123.057 140.266 123.105C140.888 123.349 141.498 123.322 142.108 123.074C142.123 122.996 142.139 122.922 142.157 122.844C142.631 122.844 143.106 122.844 143.581 122.844C143.867 122.762 144.152 122.681 144.438 122.603C144.543 122.515 144.645 122.427 144.75 122.338H144.753C144.762 122.165 144.771 121.989 144.783 121.816C145.009 121.735 145.231 121.738 145.462 121.819C145.658 121.891 145.859 121.938 146.06 121.992C146.063 121.982 146.069 121.972 146.075 121.959C146.099 121.952 146.123 121.945 146.148 121.938C146.181 121.799 146.214 121.663 146.247 121.524C146.839 121.45 147.353 121.165 147.879 120.904C148.245 120.89 148.615 120.897 148.978 120.86C149.039 120.853 149.093 120.86 149.147 120.86C149.261 120.799 149.387 120.765 149.498 120.697C149.82 120.629 150.12 120.439 150.469 120.504C150.743 120.602 150.869 120.853 151.043 121.06C151.139 121.151 151.235 121.243 151.332 121.334C151.422 121.416 151.509 121.497 151.59 121.585C151.611 121.636 151.647 121.65 151.674 121.694C151.821 121.731 151.966 121.782 152.095 121.884C152.182 121.952 152.272 122.016 152.359 122.084C152.582 122.111 152.81 122.121 153.006 122.213C153.123 122.284 153.219 122.376 153.303 122.488C153.601 122.403 153.895 122.315 154.196 122.247C154.716 122.125 155.193 122.22 155.599 122.6C155.791 122.623 155.987 122.65 156.179 122.674C156.362 122.654 156.549 122.63 156.732 122.61C156.843 122.559 156.954 122.505 157.063 122.454C157.15 122.511 157.24 122.566 157.327 122.623L157.288 122.678C157.294 122.681 157.3 122.681 157.306 122.684C157.312 122.664 157.321 122.644 157.327 122.623C157.706 122.637 158.087 122.65 158.466 122.667C158.553 122.671 158.637 122.684 158.719 122.712C158.779 122.661 158.845 122.637 158.923 122.647C159.491 122.423 160.08 122.284 160.687 122.23C160.945 122.511 161.237 122.766 161.453 123.074C161.682 123.4 161.952 123.62 162.301 123.8C162.544 123.926 162.731 124.163 162.941 124.35C163.148 124.787 163.479 125.12 163.809 125.452C163.972 125.286 164.134 125.123 164.299 124.957C164.603 125.208 164.939 125.265 165.306 125.133C165.435 125.086 165.568 125.038 165.697 124.987C165.691 124.95 165.673 124.92 165.67 124.882C165.736 124.662 165.85 124.516 166.105 124.621C166.289 124.641 166.472 124.665 166.655 124.685C167.323 124.801 168.014 124.76 168.663 124.998C168.858 125.174 169.063 125.184 169.3 125.079C169.562 124.964 169.736 125.116 169.874 125.33C169.811 125.327 169.751 125.337 169.694 125.364C169.742 125.442 169.778 125.523 169.799 125.611C170.142 125.845 170.394 126.168 170.631 126.503C170.923 126.391 171.19 126.419 171.413 126.653C171.542 126.792 171.659 126.944 171.782 127.09C172.011 127.077 172.254 126.999 172.459 127.06C172.897 127.189 173.144 126.931 173.411 126.673C173.432 126.748 173.447 126.826 173.462 126.9C173.456 127.083 173.441 127.263 173.447 127.446C173.456 127.816 173.655 128.033 174.003 128.111C174.027 128.02 174.039 127.928 174.042 127.833C174.421 127.741 174.451 127.748 174.529 127.979C174.568 128.098 174.583 128.223 174.61 128.345C174.692 128.345 174.773 128.355 174.848 128.386C174.941 128.393 175.034 128.399 175.13 128.406C175.876 128.45 176.618 128.528 177.363 128.532C177.871 128.532 178.379 128.437 178.887 128.369C179.211 128.328 179.53 128.247 179.855 128.209C180.143 128.179 180.408 128.267 180.621 128.484C180.714 128.583 180.807 128.684 180.903 128.783C180.861 128.823 180.816 128.867 180.774 128.908C180.786 128.925 180.798 128.939 180.81 128.956C180.843 128.898 180.843 128.823 180.906 128.779C181.348 128.616 181.805 128.562 182.271 128.569C182.556 128.671 182.845 128.772 183.13 128.874L183.154 128.895C183.47 129.19 183.972 129.176 184.254 129.529C184.387 129.298 184.669 129.4 184.843 129.268C184.991 129.339 185.135 129.407 185.282 129.475L185.27 129.495C185.498 129.508 185.724 129.525 185.952 129.539C186.388 129.261 186.601 129.556 186.806 129.882L186.812 129.888C186.863 129.943 186.917 129.997 186.968 130.051C186.956 129.99 186.926 129.932 186.926 129.865C186.956 129.729 187.01 129.607 187.094 129.498C187.193 129.41 187.302 129.339 187.419 129.281C187.644 129.152 187.788 128.922 188.008 128.789C188.056 128.786 188.104 128.772 188.149 128.779C188.666 128.84 189.18 128.654 189.685 128.698C190.151 128.739 190.613 128.8 191.082 128.796C191.085 128.715 191.106 128.637 191.142 128.566C191.356 128.599 191.584 128.596 191.737 128.793C192.191 128.922 192.648 129.051 193.102 129.179C193.189 129.281 193.273 129.386 193.36 129.488C193.372 129.576 193.396 129.661 193.429 129.743C193.51 129.732 193.586 129.746 193.658 129.783C193.748 129.875 193.751 129.977 193.685 130.082L193.676 130.102C193.577 130.088 193.477 130.075 193.381 130.061C193.39 130.244 193.402 130.431 193.411 130.614C193.417 130.621 193.423 130.631 193.432 130.638C193.529 130.58 193.634 130.543 193.733 130.492C193.727 130.482 193.724 130.468 193.721 130.458C193.739 130.458 193.76 130.458 193.778 130.458L193.781 130.451C193.799 130.451 193.817 130.445 193.835 130.445C193.94 130.394 194.039 130.336 194.148 130.292C194.202 130.234 194.259 130.177 194.313 130.116C194.436 129.885 194.674 129.871 194.884 129.804C194.893 129.722 194.899 129.637 194.911 129.556C195.193 129.529 195.479 129.502 195.761 129.475C195.891 129.502 196.017 129.525 196.146 129.553C196.149 129.536 196.155 129.519 196.158 129.502C196.185 129.495 196.209 129.505 196.236 129.502C196.242 129.495 196.245 129.488 196.251 129.485C197.021 129.207 197.622 128.667 198.235 128.145L198.238 128.111C198.376 128.172 198.478 128.277 198.556 128.406L198.55 128.416C198.628 128.494 198.637 128.599 198.64 128.701C198.887 128.82 199.136 128.793 199.383 128.671C199.452 128.528 199.56 128.443 199.716 128.427L199.725 128.416C199.776 128.243 199.891 128.138 200.05 128.07C200.164 128.023 200.266 127.955 200.375 127.897C200.45 127.925 200.528 127.925 200.603 127.894C200.693 127.975 200.786 128.057 200.876 128.138C200.967 128.131 201.051 128.148 201.132 128.182C201.141 128.271 201.147 128.359 201.15 128.447C201.195 128.471 201.237 128.494 201.282 128.515C201.336 128.433 201.396 128.362 201.411 128.254C201.408 128.237 201.402 128.233 201.399 128.216C201.45 128.196 201.504 128.182 201.55 128.148C202.033 127.792 202.574 127.718 203.148 127.779C203.242 127.789 203.335 127.789 203.428 127.796C203.629 127.955 203.828 128.114 204.029 128.271C204.119 128.281 204.206 128.301 204.293 128.328C205.174 128.742 205.721 128.203 206.247 127.609C206.277 127.538 206.289 127.463 206.283 127.385C206.508 127.348 206.725 127.348 206.929 127.487C207.19 127.667 207.461 127.83 207.728 128.003C207.734 128.159 207.81 128.264 207.963 128.304C208.017 128.355 208.071 128.406 208.128 128.457C208.831 128.308 209.495 127.857 210.229 127.975C210.25 127.975 210.271 127.979 210.289 127.982C210.292 127.836 210.295 127.687 210.298 127.541C210.382 127.528 210.469 127.518 210.556 127.511C210.746 127.317 210.935 127.121 211.145 126.951C211.064 126.778 210.977 126.605 210.902 126.429C210.815 126.225 210.938 126.086 211.193 126.103C211.287 126.11 211.377 126.151 211.467 126.178C211.581 126.069 211.698 125.957 211.816 125.849C211.981 125.835 212.149 125.818 212.314 125.805C212.426 125.72 212.537 125.635 212.645 125.55C212.687 125.303 212.81 125.106 212.967 124.916C213.084 124.774 213.15 124.584 213.237 124.414C213.366 124.282 213.538 124.224 213.7 124.15C213.817 124.105 213.934 124.082 214.06 124.072C214.316 124.051 214.574 124.011 214.833 124.065C214.968 124.099 215.094 124.153 215.208 124.231C215.317 124.323 215.413 124.424 215.497 124.54C215.503 124.55 215.503 124.56 215.509 124.574C215.533 124.509 215.557 124.448 215.584 124.387C216.239 122.966 217.048 124.136 217.796 124.251C217.988 124.411 218.19 124.38 218.394 124.282C218.821 123.977 219.233 123.637 219.764 123.532C220.735 123.614 221.7 123.013 222.677 123.498C222.776 123.682 222.875 123.865 222.977 124.048C223.329 124.19 223.737 124.177 224.038 124.451L224.053 124.462C224.335 124.675 224.633 124.207 224.915 124.482L224.909 124.479C225.006 124.828 225.228 125.028 225.583 125.048C225.862 125.065 226.103 125.181 226.343 125.306C226.403 125.367 226.409 125.452 226.43 125.53C226.487 125.445 226.55 125.364 226.644 125.32C226.728 125.293 226.815 125.293 226.902 125.313C227.064 125.723 227.341 125.862 227.749 125.686L227.755 125.696C227.972 125.978 228.011 126.273 227.813 126.585C227.789 126.595 227.77 126.592 227.746 126.598C227.752 126.673 227.755 126.744 227.761 126.815C228.029 126.955 228.29 127.155 228.591 126.883C228.696 126.9 228.801 126.921 228.906 126.938C228.988 126.924 229.072 126.921 229.153 126.934C229.471 126.731 229.79 126.653 230.169 126.805C230.523 126.948 230.77 126.775 230.884 126.405C231.058 126.48 231.233 126.554 231.407 126.629C231.41 126.595 231.41 126.564 231.413 126.531C231.221 126.412 231.175 126.215 231.151 126.005C231.395 125.944 231.638 125.883 231.882 125.828C231.984 125.659 232.128 125.55 232.332 125.479C232.558 125.401 232.552 125.33 232.396 124.889C232.483 124.794 232.57 124.699 232.657 124.604C232.747 124.631 232.831 124.675 232.903 124.736C233.228 125.164 233.568 125.574 234.054 125.822L234.133 125.91L234.103 126.025C234.103 126.029 234.1 126.032 234.1 126.035C234.112 126.029 234.121 126.025 234.133 126.022C234.301 125.734 234.508 125.476 234.8 125.296C235.085 125.123 235.115 124.838 235.145 124.55C235.44 124.58 235.731 124.591 236.011 124.526C236.402 124.112 236.903 123.916 237.477 123.868C237.556 123.678 237.685 123.559 237.898 123.58C238.373 123.624 238.824 123.549 239.245 123.319C239.344 123.414 239.446 123.512 239.548 123.607C239.584 123.648 239.62 123.685 239.656 123.726C239.755 123.729 239.846 123.712 239.945 123.722C240.296 123.763 240.663 123.532 241.048 123.614C241.075 123.576 241.051 123.532 241.063 123.492H241.066L241.048 123.61C241.054 123.688 241.063 123.763 241.072 123.838C241.111 123.875 241.153 123.916 241.192 123.953C241.339 123.953 241.474 123.98 241.598 124.034C241.667 124.038 241.73 124.024 241.799 124.031C241.889 124.031 241.976 124.041 242.061 124.061C242.256 124.061 242.454 124.058 242.65 124.058C242.746 124.143 242.839 124.228 242.935 124.312C243.022 124.316 243.109 124.323 243.197 124.329C243.29 124.248 243.389 124.167 243.488 124.092C243.665 124.065 243.846 124.041 244.023 124.014C244.095 123.824 244.17 123.637 244.399 123.593C244.411 123.522 244.408 123.451 244.39 123.38C244.492 123.515 244.594 123.651 244.699 123.783C244.642 123.743 244.582 123.719 244.51 123.715C244.564 123.821 244.621 123.929 244.675 124.034C244.756 124.061 244.84 124.078 244.925 124.085C245.021 124.187 245.141 124.224 245.258 124.272C245.279 124.194 245.324 124.129 245.327 124.038C245.324 124.021 245.318 124.004 245.315 123.987C245.496 123.902 245.67 123.8 245.877 123.804C246.015 124.092 246.259 124.177 246.553 124.197C246.977 124.228 247.374 124.092 247.774 124C248.053 123.936 248.188 124.078 248.326 124.289C248.459 124.489 248.627 124.465 248.783 124.299C249.045 124.278 249.27 124.367 249.487 124.485C249.496 124.475 249.502 124.468 249.511 124.458C249.586 124.468 249.661 124.472 249.736 124.468C250.256 124.601 250.755 124.56 251.23 124.292C251.5 124.285 251.771 124.275 252.041 124.268C252.038 124.265 252.038 124.258 252.035 124.251C252.032 124.248 252.029 124.245 252.029 124.245H252.032C251.945 124.061 251.933 123.878 252.071 123.698C252.435 123.675 252.795 123.627 253.159 123.637C253.799 123.654 254.31 123.431 254.68 122.891C254.857 122.854 255.031 122.82 255.209 122.783C255.53 122.715 255.722 122.854 255.804 123.169C255.939 123.149 256.086 123.156 256.209 123.102C256.582 122.939 256.922 122.979 257.246 123.22C257.411 123.224 257.577 123.227 257.742 123.23C257.817 123.213 257.892 123.19 257.967 123.19C257.991 123.19 258.015 123.254 258.039 123.285L258.064 123.305C258.163 123.295 258.262 123.285 258.361 123.275C258.541 123.268 258.722 123.261 258.902 123.258C258.917 123.183 258.938 123.112 258.965 123.041C259.338 123.003 259.71 122.803 260.086 123.027C260.221 123.041 260.366 123.027 260.489 123.074C260.777 123.19 261.066 123.23 261.351 123.23C261.472 123 261.649 122.83 261.898 122.745C262.172 122.83 262.148 122.603 262.193 122.45C262.289 122.454 262.388 122.461 262.484 122.464L262.475 122.447C262.617 122.288 262.74 122.115 262.848 121.928C262.932 121.786 263.037 121.66 263.118 121.518C263.142 121.467 263.172 121.419 263.2 121.372C263.344 121.426 263.479 121.494 263.614 121.569C263.774 121.443 263.936 121.318 264.098 121.192C264.131 121.114 264.146 121.029 264.149 120.944C264.251 120.853 264.357 120.765 264.459 120.673C264.819 120.704 265.201 120.704 265.312 121.175C265.475 121.165 265.634 121.155 265.796 121.145C265.82 121.07 265.862 121.005 265.919 120.955C265.919 120.866 265.922 120.778 265.922 120.69C266.205 120.504 266.49 120.317 266.773 120.13C266.926 120.134 267.076 120.137 267.23 120.144C267.266 120.286 267.302 120.432 267.341 120.575C267.509 120.585 267.677 120.595 267.846 120.602C267.84 120.514 267.864 120.432 267.912 120.358C267.9 120.263 267.903 120.171 267.918 120.08C268.182 119.964 268.447 119.852 268.714 119.737L268.711 119.73C268.861 119.591 269.06 119.605 269.237 119.554C269.165 119.635 269.18 119.696 269.306 119.734C269.396 119.73 269.484 119.74 269.568 119.768C269.676 119.676 269.787 119.581 269.895 119.489C270.082 119.561 270.268 119.632 270.454 119.703C270.773 119.754 271.07 119.713 271.314 119.472C271.683 119.432 272.05 119.374 272.42 119.361C272.597 119.354 272.774 119.432 272.955 119.469C272.961 119.547 272.985 119.618 273.024 119.686C273.039 119.788 273.057 119.89 273.072 119.991C273.42 119.9 273.769 119.808 274.118 119.713L274.133 119.71C274.232 119.788 274.322 119.876 274.409 119.971C274.301 120.273 274.538 120.419 274.701 120.602C274.806 120.68 274.914 120.758 275.019 120.836C275.473 120.643 275.927 120.436 276.441 120.524C276.555 120.609 276.66 120.748 276.786 120.768C277.357 120.856 277.865 121.08 278.361 121.372C278.647 121.538 278.977 121.616 279.29 121.735C279.416 121.874 279.581 121.948 279.762 121.945C280.158 121.935 280.558 121.911 280.955 121.891C280.961 121.843 280.958 121.792 280.976 121.752C281.147 121.311 281.348 121.199 281.682 121.355C281.931 121.47 282.181 121.582 282.427 121.697C282.713 121.87 282.986 121.67 283.266 121.67C283.512 121.911 283.828 121.921 284.137 121.945C284.438 122.179 284.735 122.186 285.033 122.054C285.129 122.043 285.222 122.013 285.306 121.942L285.297 121.928C285.39 121.931 285.484 121.921 285.577 121.901C285.658 121.921 285.739 121.938 285.82 121.955C285.835 122.138 285.847 122.318 285.862 122.501C285.898 122.569 285.925 122.64 285.943 122.715C286.202 122.84 286.457 122.966 286.716 123.091C286.809 123.197 286.902 123.298 286.998 123.403C287.572 123.495 288.146 123.583 288.72 123.675C288.886 123.736 289.048 123.831 289.219 123.855C289.574 123.905 289.838 123.77 289.922 123.38C290 123.363 290.079 123.336 290.154 123.305C290.617 123.329 291.082 123.353 291.545 123.376C291.56 123.454 291.572 123.529 291.578 123.607C291.617 123.777 291.789 123.78 291.891 123.871H291.894C291.975 123.848 292.053 123.861 292.131 123.882C292.248 124.96 293.168 124.702 293.823 124.889C294.28 124.767 294.659 125.201 295.115 125.069C295.121 124.998 295.136 124.93 295.158 124.862C295.209 124.716 295.191 124.57 295.139 124.428C295.44 124.248 295.762 124.122 296.107 124.092C296.639 124.048 297.099 123.817 297.556 123.566C297.643 123.665 297.727 123.76 297.814 123.858C297.829 124.041 297.847 124.224 297.865 124.407C297.766 124.397 297.667 124.387 297.568 124.377L297.559 124.397C297.496 124.506 297.505 124.607 297.598 124.696C297.673 124.73 297.748 124.74 297.829 124.73C297.865 124.811 297.892 124.896 297.907 124.984C297.997 125.082 298.088 125.184 298.178 125.282C298.638 125.394 299.097 125.506 299.557 125.618C299.719 125.808 299.945 125.798 300.161 125.822C300.194 125.747 300.212 125.669 300.215 125.588C300.684 125.567 301.15 125.608 301.616 125.635C302.124 125.662 302.626 125.455 303.148 125.496C303.194 125.499 303.242 125.486 303.29 125.479C303.506 125.337 303.644 125.103 303.861 124.967C303.978 124.906 304.083 124.828 304.176 124.74C304.254 124.628 304.306 124.502 304.33 124.37C304.33 124.306 304.297 124.248 304.281 124.187C304.336 124.238 304.39 124.292 304.444 124.346L304.45 124.35C304.666 124.665 304.889 124.953 305.315 124.658C305.544 124.665 305.772 124.672 305.997 124.679L305.988 124.699C306.136 124.763 306.286 124.828 306.433 124.892C306.605 124.75 306.887 124.845 307.013 124.607C307.308 124.95 307.81 124.916 308.134 125.201L308.158 125.221C308.447 125.313 308.738 125.405 309.027 125.496C309.493 125.486 309.946 125.415 310.382 125.235C310.442 125.191 310.439 125.116 310.469 125.059C310.481 125.076 310.493 125.089 310.505 125.106C310.463 125.15 310.421 125.194 310.379 125.238C310.475 125.333 310.575 125.432 310.671 125.527C310.89 125.734 311.161 125.815 311.446 125.771C311.768 125.723 312.083 125.632 312.408 125.578C312.913 125.493 313.417 125.377 313.925 125.36C314.668 125.333 315.416 125.384 316.161 125.401C316.254 125.405 316.351 125.408 316.444 125.411C316.522 125.438 316.603 125.445 316.684 125.442C316.714 125.564 316.735 125.689 316.777 125.805C316.865 126.035 316.895 126.039 317.27 125.934C317.27 125.839 317.279 125.747 317.3 125.656C317.652 125.723 317.856 125.93 317.877 126.3C317.889 126.483 317.88 126.663 317.88 126.846C317.895 126.924 317.916 126.999 317.94 127.073C318.196 126.805 318.433 126.541 318.878 126.649C319.085 126.7 319.329 126.615 319.554 126.592C319.683 126.734 319.804 126.883 319.939 127.016C320.17 127.243 320.438 127.26 320.723 127.138C320.732 127.117 320.738 127.097 320.747 127.077C320.75 127.08 320.753 127.08 320.759 127.083L320.723 127.138C320.976 127.463 321.237 127.775 321.589 127.996C321.616 128.084 321.652 128.165 321.703 128.24C321.646 128.271 321.589 128.284 321.526 128.281C321.673 128.484 321.853 128.633 322.109 128.508C322.343 128.393 322.547 128.393 322.749 128.566C322.833 128.593 322.917 128.589 323.004 128.606C323.016 128.596 323.019 128.593 323.031 128.586C323.332 128.342 323.677 128.25 324.056 128.277C324.282 128.294 324.51 128.308 324.735 128.325C324.828 128.226 324.934 128.142 325.051 128.07H325.054C325.381 127.867 325.454 128.209 325.622 128.349L325.634 128.359L325.628 128.488L325.643 128.616C325.673 128.606 325.706 128.603 325.739 128.593C325.742 128.586 325.745 128.583 325.748 128.579C325.745 128.538 325.724 128.511 325.715 128.474C325.844 128.42 325.973 128.369 326.103 128.315C326.412 128.186 326.701 128.233 326.974 128.389C327.043 128.389 327.112 128.376 327.182 128.379C327.242 128.315 327.299 128.25 327.359 128.186C327.377 128.162 327.395 128.138 327.419 128.121C327.476 128.06 327.53 127.999 327.587 127.938C327.605 127.955 327.62 127.972 327.641 127.989C327.738 127.945 327.831 127.897 327.879 127.806C328.089 127.626 328.303 127.446 328.513 127.267C329.195 127.111 329.931 127.284 330.587 126.934C331.149 127.107 331.765 126.965 332.306 127.25C332.603 127.365 332.717 127.592 332.69 127.904C332.663 127.986 332.624 128.043 332.591 128.108C332.642 128.172 332.696 128.237 332.747 128.304C332.913 128.27 333.078 128.233 333.246 128.199C333.454 128.159 333.661 128.121 333.868 128.084C333.871 128.104 333.88 128.128 333.883 128.148C334.199 127.823 334.638 127.819 335.055 127.755C335.14 127.64 335.239 127.535 335.308 127.412C335.41 127.233 335.524 127.111 335.753 127.134C335.987 127.158 336.224 127.151 336.462 127.158C336.48 126.961 336.531 126.771 336.729 126.7C336.949 126.622 337.177 126.571 337.405 126.524C337.595 126.486 337.775 126.517 337.913 126.676C338.037 126.819 338.136 126.992 338.283 127.104C338.55 127.307 338.575 127.565 338.52 127.863C338.505 127.955 338.52 128.053 338.523 128.148L338.493 128.274L338.505 128.399C338.478 128.423 338.454 128.45 338.43 128.474C338.629 128.65 338.83 128.83 339.031 129.006C339.212 129.013 339.395 129.02 339.575 129.027C339.62 128.8 339.732 128.61 339.903 128.457C339.987 128.457 340.071 128.454 340.158 128.45C340.236 128.427 340.312 128.396 340.39 128.386C340.423 128.382 340.462 128.427 340.498 128.45C340.57 128.45 340.642 128.45 340.711 128.447C340.934 128.267 341.15 128.247 341.354 128.477C341.448 128.576 341.544 128.671 341.637 128.769C341.604 128.786 341.571 128.806 341.538 128.823C341.547 128.83 341.553 128.837 341.562 128.847L341.637 128.769C341.718 128.783 341.796 128.796 341.877 128.81C342.007 128.779 342.133 128.745 342.265 128.722C342.439 128.691 342.614 128.671 342.788 128.647L342.782 128.684C342.962 128.664 343.146 128.64 343.326 128.62C343.506 128.593 343.686 128.552 343.87 128.542C344.336 128.515 344.642 128.291 344.78 127.833C344.916 127.711 345.087 127.609 345.18 127.456C345.363 127.161 345.598 126.988 345.928 126.907C346.046 126.88 346.142 126.751 346.247 126.666C346.43 126.646 346.617 126.626 346.8 126.605C346.812 126.68 346.827 126.754 346.848 126.829C347.073 126.893 347.299 126.955 347.518 127.029C347.744 127.104 347.975 127.148 348.203 127.066C348.832 126.849 349.282 127.107 349.667 127.596C349.955 127.962 350.355 128.243 350.517 128.711C351.037 128.62 351.539 128.671 351.996 128.956C352.245 129.112 352.498 129.19 352.786 129.159C352.789 129.159 352.792 129.159 352.798 129.159C352.973 129.146 353.15 129.135 353.324 129.122C353.424 129.108 353.523 129.095 353.619 129.081L353.643 129.101C353.67 129.135 353.694 129.196 353.718 129.196C353.793 129.193 353.868 129.166 353.943 129.149C354.109 129.146 354.274 129.142 354.439 129.139C354.542 129.207 354.644 129.224 354.749 129.254C354.983 129.244 355.218 129.237 355.455 129.224C355.464 129.22 355.473 129.224 355.482 129.217C355.602 129.159 355.75 129.163 355.885 129.135C355.912 129.234 355.972 129.278 356.02 129.342C356.125 129.305 356.236 129.281 356.36 129.295C356.459 129.329 356.537 129.403 356.612 129.475C356.747 129.441 356.883 129.41 357.015 129.376C357.366 128.823 357.868 128.583 358.508 128.576C358.869 128.572 359.233 128.508 359.593 128.474C359.723 128.287 359.708 128.104 359.611 127.925C359.611 127.925 359.608 127.921 359.608 127.918C359.605 127.914 359.605 127.908 359.602 127.904C359.873 127.887 360.143 127.867 360.411 127.85C360.877 127.565 361.375 127.504 361.898 127.619C361.974 127.613 362.049 127.616 362.124 127.623C362.226 127.511 362.328 127.395 362.43 127.28L362.436 127.284C362.779 127.429 363.113 127.619 363.503 127.487C363.521 127.382 363.539 127.273 363.557 127.168C363.726 127.334 363.972 127.412 364.134 127.585C364.158 127.653 364.173 127.724 364.182 127.796C364.42 127.663 364.651 127.524 364.892 127.395C365.15 127.256 365.409 127.233 365.637 127.47C366.016 127.535 366.418 127.528 366.725 127.826C366.809 127.83 366.893 127.843 366.977 127.867C367.037 127.972 367.095 128.077 367.155 128.179C367.086 128.179 367.022 128.159 366.965 128.118C367.073 128.25 367.179 128.379 367.287 128.511C367.266 128.44 367.263 128.369 367.272 128.298C367.5 128.247 367.566 128.057 367.632 127.863C367.81 127.83 367.987 127.799 368.164 127.765C368.261 127.687 368.357 127.606 368.447 127.518C368.534 127.524 368.621 127.524 368.708 127.528C368.711 127.518 368.717 127.507 368.72 127.501C368.72 127.501 368.723 127.501 368.723 127.504L368.708 127.531C368.807 127.613 368.904 127.694 369 127.775C369.195 127.769 369.394 127.758 369.589 127.752C369.676 127.769 369.763 127.775 369.853 127.772C370.361 127.813 370.842 127.721 371.293 127.477C371.374 127.494 371.452 127.511 371.533 127.528C371.729 127.724 371.924 127.921 372.119 128.118C372.224 128.209 372.327 128.304 372.432 128.396C372.847 128.152 373.294 128.057 373.769 128.084C373.986 128.098 374.109 127.972 374.178 127.779C374.851 127.697 375.422 127.433 375.813 126.839C375.915 126.744 376.014 126.649 376.116 126.554C376.215 126.392 376.324 126.232 376.411 126.063C376.528 125.832 376.699 125.689 376.955 125.659C377.15 125.666 377.318 125.591 377.481 125.489C377.481 125.493 377.478 125.496 377.478 125.499L377.451 125.615L377.532 125.7C378.028 125.927 378.382 126.327 378.719 126.741C378.794 126.799 378.878 126.839 378.971 126.863C379.055 126.765 379.14 126.666 379.224 126.568C379.052 126.13 379.043 126.059 379.266 125.974C379.545 125.866 379.75 125.747 379.807 125.405C379.846 125.184 380.002 124.984 380.107 124.774C380.3 124.848 380.492 124.92 380.684 124.994C380.783 124.621 381.024 124.438 381.385 124.567C381.766 124.706 382.085 124.618 382.394 124.401C382.478 124.411 382.56 124.407 382.641 124.39C382.746 124.404 382.854 124.418 382.959 124.434C383.251 124.153 383.518 124.346 383.792 124.472C383.801 124.543 383.807 124.618 383.816 124.689C383.792 124.699 383.774 124.696 383.75 124.706C383.56 125.025 383.611 125.316 383.84 125.591L383.846 125.601C384.249 125.408 384.528 125.537 384.705 125.94C384.792 125.957 384.88 125.954 384.964 125.923C385.057 125.876 385.114 125.791 385.168 125.703C385.192 125.781 385.201 125.862 385.264 125.923C385.508 126.042 385.754 126.147 386.034 126.154C386.388 126.164 386.62 126.354 386.725 126.7H386.719C386.809 126.782 386.899 126.785 386.989 126.765C387.001 126.751 387.013 126.737 387.025 126.727C387.173 126.531 387.371 126.453 387.605 126.453C387.687 126.432 387.765 126.402 387.846 126.395C387.873 126.395 387.903 126.459 387.933 126.497C388.02 126.51 388.104 126.527 388.188 126.548C388.191 126.642 388.219 126.727 388.273 126.805C388.222 126.805 388.173 126.805 388.122 126.809C388.152 126.849 388.152 126.9 388.167 126.944C388.336 126.978 388.507 127.005 388.666 127.063C388.771 127.243 388.88 127.423 388.985 127.602C389.147 127.677 389.309 127.684 389.469 127.707C389.712 127.701 389.959 127.643 390.208 127.497C390.349 127.562 390.496 127.596 390.644 127.64C391.058 127.548 391.473 127.44 391.891 127.46C392.42 127.334 392.82 126.982 393.234 126.659C393.436 126.551 393.634 126.514 393.832 126.666C394.584 126.754 395.431 127.891 396.038 126.449C396.065 126.388 396.086 126.324 396.107 126.259C396.113 126.269 396.116 126.28 396.119 126.29C396.209 126.398 396.309 126.5 396.42 126.588C396.54 126.663 396.666 126.714 396.802 126.741C397.063 126.785 397.315 126.734 397.574 126.704C397.697 126.69 397.814 126.659 397.932 126.612C398.091 126.534 398.259 126.466 398.385 126.33C398.466 126.157 398.527 125.964 398.638 125.818C398.788 125.622 398.905 125.421 398.935 125.174C399.043 125.086 399.152 124.998 399.257 124.906C399.422 124.886 399.587 124.865 399.753 124.845C399.864 124.733 399.978 124.618 400.089 124.506C400.182 124.529 400.273 124.57 400.366 124.57C400.621 124.577 400.738 124.431 400.645 124.234C400.564 124.061 400.471 123.892 400.384 123.722C400.588 123.546 400.771 123.342 400.952 123.142C401.039 123.132 401.123 123.119 401.207 123.105C401.204 122.959 401.204 122.81 401.201 122.661C401.222 122.661 401.243 122.664 401.261 122.664C402.346 122.8 403.233 121.687 404.372 122.148C405.339 122.013 406.304 121.83 407.29 121.959C407.335 121.965 407.383 121.942 407.428 121.935C407.527 122.003 407.626 122.074 407.723 122.142C407.756 122.064 407.783 121.982 407.804 121.901C408.158 121.928 408.438 121.796 408.669 121.518C408.835 121.318 409.042 121.25 409.294 121.375C409.631 121.545 409.977 121.701 410.316 121.864C410.322 121.952 410.331 122.04 410.343 122.128C410.427 122.162 410.512 122.172 410.602 122.162C410.695 122.24 410.791 122.318 410.884 122.396C410.959 122.362 411.034 122.359 411.11 122.383C411.215 122.321 411.317 122.247 411.428 122.196C411.587 122.121 411.699 122.013 411.741 121.84L411.75 121.83C411.906 121.806 412.011 121.718 412.074 121.572C412.318 121.44 412.564 121.402 412.814 121.514C412.82 121.619 412.832 121.721 412.913 121.796L412.907 121.806C412.988 121.935 413.096 122.033 413.234 122.091L413.237 122.057C413.832 121.514 414.415 120.955 415.173 120.646C415.266 120.541 415.341 120.388 415.458 120.337C415.762 120.208 416.077 120.097 416.399 120.032C417.105 119.89 417.754 119.628 418.319 119.16C418.692 119.055 419.061 118.954 419.434 118.848C419.533 118.757 419.633 118.665 419.735 118.577C419.732 118.482 419.735 118.387 419.744 118.292C420.137 118.245 420.555 118.296 420.868 117.963C420.931 117.96 420.994 117.956 421.057 117.953C421.057 117.967 421.042 117.973 421.042 117.987C422.13 118.638 423.212 118.58 424.288 117.956C424.462 117.96 424.633 117.963 424.808 117.967C424.814 117.963 424.82 117.963 424.826 117.96C425.06 118.224 425.394 118.19 425.691 118.255C425.82 118.377 425.932 118.563 426.085 118.614C426.424 118.723 426.767 118.872 427.14 118.781C427.236 118.794 427.329 118.784 427.416 118.743C427.413 118.553 427.41 118.367 427.407 118.177C427.75 117.868 427.915 117.468 427.987 117.02C428.08 116.922 428.173 116.824 428.264 116.725C428.531 116.681 428.799 116.651 429.06 116.589C429.379 116.511 429.577 116.637 429.703 116.925C430.019 116.946 430.061 116.739 430.112 116.478C430.166 116.199 430.361 116.098 430.626 116.128C430.818 116.149 430.983 116.227 431.11 116.383L431.119 116.386C431.302 116.573 431.491 116.556 431.687 116.41L431.684 116.393C432.035 116.088 432.582 115.881 432.24 115.226C432.231 115.216 432.216 115.209 432.207 115.195C432.408 115.158 432.6 115.101 432.76 114.948C433.018 114.7 433.321 114.602 433.67 114.626C434.319 114.632 434.932 114.51 435.44 114.056C435.596 114.131 435.75 114.205 435.906 114.28C436.14 114.025 436.561 114.317 436.768 113.974C436.796 113.557 436.988 113.255 437.364 113.086C437.46 113.177 437.553 113.272 437.649 113.364C437.856 113.34 438.088 113.391 438.238 113.177C438.394 113.188 438.551 113.211 438.707 113.225C438.776 113.133 438.845 113.038 438.911 112.947C438.896 112.747 438.881 112.547 438.866 112.346C438.881 112.258 438.884 112.167 438.878 112.075C438.902 111.556 438.797 111.064 438.542 110.613C438.557 110.532 438.569 110.447 438.581 110.366C438.767 110.159 438.953 109.952 439.14 109.745C439.227 109.637 439.314 109.525 439.401 109.416C439.149 109.002 439.041 108.548 439.053 108.059C439.059 107.839 438.932 107.717 438.74 107.652C438.638 106.967 438.361 106.391 437.766 106.014C437.67 105.916 437.574 105.814 437.478 105.712C437.315 105.617 437.156 105.509 436.985 105.427C436.757 105.315 436.609 105.146 436.573 104.885C436.573 104.685 436.495 104.515 436.39 104.356C436.393 104.356 436.396 104.359 436.399 104.359L436.513 104.379L436.594 104.295C436.802 103.779 437.177 103.406 437.574 103.046C437.628 102.968 437.664 102.88 437.685 102.785C437.586 102.704 437.487 102.619 437.388 102.538C436.967 102.728 436.898 102.741 436.808 102.514C436.693 102.232 436.57 102.029 436.234 101.981C436.017 101.951 435.816 101.795 435.605 101.697C435.672 101.496 435.735 101.3 435.801 101.1C435.434 101.008 435.245 100.771 435.362 100.398C435.485 100.001 435.386 99.6819 435.167 99.3698C435.173 99.285 435.167 99.2002 435.146 99.1188C435.155 99.0103 435.167 98.9018 435.176 98.7932C434.89 98.5049 435.071 98.2234 435.185 97.9419C435.257 97.9317 435.326 97.9216 435.398 97.9114C435.407 97.9351 435.407 97.9555 435.416 97.9792C435.735 98.159 436.017 98.0979 436.279 97.8571L436.288 97.8503C436.086 97.4467 436.201 97.1551 436.591 96.9617C436.606 96.8702 436.597 96.7854 436.567 96.7006C436.516 96.6056 436.432 96.5513 436.345 96.4971C436.42 96.4699 436.501 96.4564 436.558 96.3919C436.666 96.1375 436.76 95.8832 436.757 95.5983C436.754 95.2353 436.931 94.9945 437.267 94.8724V94.8792C437.517 94.574 437.039 94.3026 437.225 94.0008L437.234 93.9838C437.484 93.6548 437.439 93.241 437.553 92.8747C437.724 92.7594 437.896 92.6441 438.067 92.5288C438.47 91.5011 437.817 90.5582 437.829 89.561C437.688 89.0251 437.33 88.6283 437.003 88.2145C436.892 88.0144 436.847 87.8109 436.988 87.604C437.048 86.8341 438.13 85.9285 436.699 85.3587C436.639 85.335 436.576 85.3146 436.513 85.2943C436.522 85.2875 436.534 85.2841 436.543 85.2807C436.648 85.1857 436.741 85.0806 436.823 84.9653C436.889 84.8398 436.937 84.7109 436.961 84.5684C436.994 84.3005 436.937 84.0427 436.898 83.7816C436.88 83.6561 436.847 83.5374 436.799 83.4187C436.717 83.2559 436.645 83.0897 436.51 82.9642C436.339 82.8862 436.149 82.8319 435.999 82.7234C435.801 82.5775 435.602 82.4656 435.359 82.4385C435.269 82.3299 435.179 82.2248 435.089 82.1196C435.062 81.9501 435.037 81.7839 435.01 81.6143C434.896 81.5024 434.782 81.3938 434.665 81.2819C434.683 81.1869 434.719 81.092 434.719 80.997C434.716 80.7358 434.572 80.6205 434.379 80.7223C434.214 80.8104 434.052 80.9122 433.889 81.0072C433.709 80.8037 433.508 80.6239 433.303 80.4475C433.291 80.3593 433.276 80.2712 433.255 80.1864C433.111 80.1931 432.967 80.1999 432.823 80.2067C432.823 80.1864 432.826 80.166 432.823 80.1457C432.919 79.0332 431.801 78.1615 432.213 76.9846C432.047 76.001 431.837 75.0208 431.927 74.0101C431.93 73.966 431.909 73.9151 431.897 73.871C431.96 73.7693 432.026 73.6641 432.089 73.5624C432.011 73.5319 431.933 73.5047 431.852 73.4878C431.867 73.1248 431.729 72.8433 431.446 72.6161C431.248 72.4567 431.17 72.243 431.287 71.9818C431.44 71.6325 431.581 71.2764 431.729 70.9202C431.816 70.9101 431.9 70.8999 431.984 70.8829C432.014 70.7981 432.023 70.71 432.008 70.6184C432.08 70.52 432.155 70.4217 432.228 70.3233C432.192 70.2487 432.185 70.1707 432.207 70.0927C432.14 69.9875 432.068 69.8858 432.014 69.7738C431.936 69.6144 431.828 69.5059 431.654 69.4652L431.645 69.455C431.618 69.2956 431.527 69.1905 431.383 69.1294C431.245 68.8852 431.2 68.6376 431.299 68.3765C431.401 68.3663 431.5 68.3493 431.572 68.2645L431.581 68.2713C431.705 68.1831 431.798 68.0712 431.849 67.9254H431.816C431.266 67.3352 430.698 66.7586 430.37 65.9955C430.364 65.9921 430.358 65.9853 430.352 65.9819C430.346 65.9548 430.355 65.9277 430.346 65.9005C430.301 65.8971 430.256 65.887 430.214 65.8768C430.148 65.8293 430.088 65.7784 430.061 65.714C429.926 65.4087 429.805 65.0899 429.73 64.7643C429.598 64.1945 429.367 63.679 429.051 63.2041C429.057 63.1973 429.066 63.1906 429.072 63.1838C429.252 63.16 429.43 63.1363 429.61 63.1159C429.604 63.2177 429.598 63.3194 429.592 63.4212L429.613 63.428C429.721 63.489 429.82 63.4755 429.902 63.3805C429.932 63.3025 429.941 63.2245 429.926 63.1431C430.004 63.1024 430.085 63.0752 430.169 63.0549C430.262 62.9599 430.358 62.865 430.451 62.77C430.545 62.2952 430.641 61.8237 430.734 61.3489C430.914 61.1759 430.896 60.9453 430.914 60.7248C430.842 60.6943 430.764 60.6773 430.686 60.6773C430.65 60.1991 430.674 59.7209 430.683 59.2426C430.692 58.7237 430.472 58.2149 430.497 57.6824C430.5 57.635 430.485 57.5875 430.476 57.54C430.331 57.3229 430.097 57.1906 429.956 56.9736C429.892 56.8583 429.814 56.7497 429.721 56.6581C429.61 56.5835 429.487 56.5327 429.355 56.5123C429.291 56.5157 429.237 56.5496 429.177 56.5666C429.225 56.5089 429.276 56.4513 429.327 56.397L429.334 56.3902C429.634 56.1596 429.908 55.9188 429.607 55.4948C429.604 55.2608 429.604 55.0301 429.601 54.7961L429.622 54.8063C429.679 54.6537 429.736 54.501 429.793 54.345C429.649 54.1754 429.73 53.8803 429.496 53.7616C429.82 53.4496 429.769 52.9375 430.037 52.5949L430.055 52.5678C430.133 52.2693 430.214 51.9708 430.295 51.669C430.268 51.1941 430.184 50.7328 429.995 50.2919C429.95 50.2309 429.874 50.2377 429.817 50.2071C429.832 50.1936 429.847 50.18 429.862 50.1664C429.907 50.2071 429.95 50.2478 429.995 50.2919C430.085 50.1902 430.175 50.085 430.265 49.9833C430.46 49.7493 430.53 49.4745 430.479 49.1828C430.421 48.8538 430.319 48.535 430.256 48.2094C430.157 47.6973 430.025 47.1851 429.992 46.6662C429.941 45.9065 429.965 45.1433 429.956 44.3802C429.956 44.2852 429.956 44.1869 429.956 44.0919C429.98 44.0105 429.983 43.9291 429.98 43.8443C430.097 43.8104 430.22 43.7833 430.331 43.7358C430.554 43.6374 430.557 43.6069 430.439 43.2304C430.346 43.2338 430.256 43.227 430.166 43.2101C430.22 42.8505 430.415 42.6335 430.776 42.5962C430.953 42.5792 431.131 42.5792 431.311 42.5724C431.386 42.5521 431.458 42.5317 431.53 42.5046C431.26 42.2502 430.992 42.0162 431.086 41.5617C431.131 41.348 431.038 41.1038 431.007 40.8732C431.143 40.7375 431.284 40.6086 431.41 40.4662C431.627 40.222 431.633 39.9472 431.503 39.6589C431.813 39.391 432.11 39.1129 432.315 38.7466C432.399 38.7161 432.477 38.6754 432.549 38.6211C432.579 38.6787 432.594 38.7364 432.594 38.8008C432.79 38.6448 432.928 38.4549 432.796 38.1971C432.675 37.9631 432.669 37.7528 432.829 37.5425C433.012 36.8642 432.925 36.1621 432.994 35.4736C433.003 35.2837 433.009 35.0971 433.018 34.9072C433.102 34.6392 432.955 34.5341 432.732 34.4832C432.693 34.49 432.666 34.5103 432.63 34.5171C432.573 34.3882 432.516 34.256 432.462 34.1271C432.303 33.7608 432.339 33.4148 432.561 33.0858C432.39 32.9298 432.216 32.7772 432.044 32.6212C432.348 32.2617 432.648 31.8987 433.06 31.6579C433.228 31.4273 433.448 31.2204 433.553 30.966C433.703 30.5997 433.899 30.3046 434.199 30.0503C434.488 29.8095 434.716 29.494 434.971 29.2091C434.875 28.5952 434.698 28.0051 434.439 27.4387C434.442 27.3573 434.418 27.2894 434.361 27.2351C434.379 27.1504 434.388 27.0622 434.385 26.974C434.373 26.5873 434.358 26.1973 434.346 25.8106C434.325 25.8039 434.304 25.7971 434.286 25.7937C434.289 25.7869 434.289 25.7801 434.292 25.7733L434.346 25.8106C434.394 25.7157 434.442 25.6207 434.491 25.5291C434.433 25.4206 434.373 25.3121 434.316 25.2001C434.283 25.0136 434.247 24.827 434.214 24.6405C434.226 24.4404 434.235 24.2437 434.247 24.0436C434.59 23.606 434.65 23.1108 434.494 22.5885C434.403 22.2867 434.298 21.9916 434.196 21.6965C434.298 21.6049 434.382 21.4998 434.445 21.3743C434.521 21.1674 434.515 20.9334 434.527 20.7061C434.584 20.6112 434.644 20.5162 434.701 20.4212C434.788 20.2822 434.833 20.1329 434.857 19.9769C434.896 19.9464 434.908 19.9091 434.956 19.8853C435.037 19.7938 435.113 19.6988 435.185 19.6038C435.269 19.4987 435.35 19.3935 435.434 19.2918C435.624 19.1019 435.861 18.9526 435.936 18.6677C435.975 18.3082 435.771 18.0165 435.681 17.6909C435.605 17.5824 435.566 17.4569 435.497 17.3416C435.491 17.2839 435.494 17.2296 435.485 17.1686C435.422 16.7989 435.404 16.4224 435.365 16.0493C435.074 15.5338 434.758 15.0284 434.644 14.4281C434.506 14.4043 434.37 14.3806 434.232 14.3569C434.226 14.3331 434.214 14.3094 434.208 14.2856C434.196 14.2822 434.187 14.2789 434.175 14.2721C434.214 14.0652 434.247 13.8549 434.304 13.6514C434.37 13.4106 434.355 13.1833 434.262 12.9595C434.091 12.9629 433.92 12.9629 433.751 12.9663V12.9629C433.658 12.8645 433.565 12.7628 433.469 12.6644C433.37 12.3795 433.27 12.0912 433.171 11.8063C433.138 11.3213 433.102 10.8363 433.069 10.3547C432.994 10.3445 432.916 10.3343 432.841 10.3241C432.558 9.71702 432.486 9.09634 432.681 8.44852C432.72 8.31964 432.696 8.1738 432.702 8.03474C432.799 7.83463 432.79 7.6413 432.75 7.45136C432.51 7.46154 432.27 7.47511 432.035 7.52937C431.825 7.70913 431.611 7.88889 431.401 8.06865C431.278 8.30946 430.815 8.26198 430.827 8.61811C430.821 8.61811 430.815 8.61472 430.812 8.61472L430.794 8.63507C430.232 8.58419 429.7 8.71986 429.168 8.87927L429.153 8.75039L429.159 8.6215L429.147 8.61133C428.979 8.47227 428.907 8.1297 428.579 8.33321H428.576C428.459 8.40443 428.354 8.48922 428.261 8.58758C428.035 8.57063 427.807 8.55706 427.581 8.5401C427.203 8.51297 426.857 8.60454 426.557 8.84875C426.127 9.21505 426.127 9.21505 425.7 8.8284C425.427 8.90301 425.153 8.97763 424.877 9.05225C424.766 8.98102 424.651 8.9098 424.54 8.84196C424.462 8.72325 424.366 8.61133 424.312 8.48244C424.192 8.19415 424.029 8.0517 423.687 8.04152C423.227 8.02456 422.773 7.90585 422.313 7.83124C422.205 7.75323 422.103 7.63113 421.983 7.60738C421.67 7.53955 421.342 7.53955 421.03 7.46832C420.654 7.38353 420.321 7.40388 419.969 7.59382C419.735 7.71931 419.446 7.73966 419.179 7.80749C419.122 7.87872 419.077 7.97029 419.004 8.02117C418.59 8.32303 418.379 8.36712 418.028 8.05848C417.676 7.74644 417.282 7.74305 416.874 7.71592C416.844 7.68539 416.811 7.62773 416.78 7.63113C416.699 7.63452 416.621 7.66165 416.54 7.682C416.176 7.48528 415.915 7.61077 415.717 7.94655C415.338 7.95673 414.962 7.97369 414.584 7.98047C414.211 7.99065 413.977 7.83802 413.856 7.44458C413.706 6.95618 413.3 6.68145 412.88 6.44742C412.886 6.35245 412.895 6.26088 412.907 6.16591C412.85 6.10486 412.781 6.07094 412.696 6.06416C412.702 5.98276 412.684 5.90475 412.642 5.83352C412.342 5.73856 412.059 5.54862 411.72 5.69107C411.642 5.72499 411.524 5.73856 411.452 5.70464C411.046 5.5147 410.755 5.68429 410.469 5.96919C410.142 6.2914 409.79 6.59326 409.448 6.90191C409.288 6.85103 409.126 6.79677 408.967 6.74589C408.79 6.79337 408.615 6.87817 408.435 6.88495C407.873 6.9053 407.308 6.90191 406.743 6.9053C406.743 6.84086 406.761 6.77302 406.743 6.70858C406.542 6.29819 406.256 6.07773 405.79 6.26088L405.784 6.26766C405.487 6.36941 405.27 6.73572 404.886 6.55596C404.585 6.69502 404.285 6.83408 403.984 6.97992C403.72 7.1088 403.521 7.31231 403.392 7.58025C402.644 7.67861 401.898 7.77697 401.15 7.87533C401.12 7.97708 401.174 8.05848 401.198 8.15006C401.18 8.15006 401.159 8.15006 401.141 8.14666L401.138 8.15345C401.051 8.14666 400.967 8.15684 400.886 8.18058C400.79 8.27555 400.693 8.37052 400.597 8.46887C400.465 8.69273 400.228 8.69951 400.017 8.76056C400.005 8.84196 399.996 8.92675 399.981 9.00816C399.696 9.02511 399.413 9.04207 399.128 9.05564C398.56 8.91658 397.992 8.78091 397.424 8.64185C397.357 8.64863 397.291 8.65542 397.225 8.6622C397.225 8.64185 397.231 8.6215 397.231 8.60115C396.91 8.12631 396.465 8.1738 396.002 8.29929C395.729 8.46887 395.47 8.72664 395.173 8.78769C394.695 8.88605 394.316 9.12008 393.938 9.39481C393.745 9.6017 393.493 9.75772 393.433 10.0664C393.436 10.0833 393.442 10.0867 393.445 10.1037C393.394 10.124 393.336 10.1342 393.291 10.1647C392.796 10.5039 392.252 10.5548 391.681 10.4734C391.587 10.4598 391.494 10.4564 391.401 10.4462C391.206 10.28 391.01 10.1138 390.818 9.94766C390.728 9.93409 390.641 9.91035 390.557 9.87982C389.691 9.43551 389.126 9.95444 388.579 10.5276C388.546 10.5989 388.531 10.6735 388.534 10.7515C388.306 10.782 388.089 10.7718 387.891 10.626C387.635 10.4395 387.371 10.2631 387.113 10.0833C387.11 9.92391 387.04 9.82216 386.89 9.77468C386.797 9.67971 386.704 9.58474 386.608 9.48978C386.521 9.41855 386.427 9.43212 386.331 9.46264L386.334 9.45925C386.31 9.28967 386.286 9.12347 386.265 8.95389C386.184 8.93693 386.106 8.94032 386.028 8.96745C386.007 9.13704 385.983 9.30663 385.962 9.47621C385.986 9.51013 386.028 9.48299 386.055 9.49995C386.025 9.49317 385.992 9.48299 385.962 9.47621C385.817 9.4796 385.676 9.48299 385.532 9.48638V9.48299C385.291 9.20148 385.102 8.88605 384.925 8.56045C384.744 8.38069 384.636 8.08561 384.306 8.13649C384.209 8.39087 384.116 8.64524 384.02 8.89623C383.575 9.1947 383.149 9.154 382.74 8.82161C382.596 8.7029 382.445 8.59437 382.295 8.48244C382.049 8.39765 381.802 8.37391 381.55 8.45531C381.363 8.54349 381.171 8.59098 380.982 8.62828C380.976 8.62828 380.973 8.62828 380.97 8.62828C380.955 8.63507 380.94 8.63846 380.928 8.64524C380.675 8.68255 380.423 8.66559 380.161 8.53671C379.921 8.45192 379.666 8.63168 379.425 8.50618C379.254 8.49601 379.079 8.48244 378.908 8.47227C378.824 8.53671 378.764 8.62489 378.704 8.70969C378.208 8.73343 377.727 8.64864 377.261 8.48583C377.102 8.43157 376.976 8.26876 376.838 8.15684C376.618 8.1331 376.399 8.09918 376.176 8.08561C375.81 8.06865 375.479 7.95673 375.188 7.7227C375.085 7.82445 374.983 7.9262 374.881 8.02795C374.397 8.05848 373.937 7.96351 373.499 7.7634C373.108 7.99064 372.723 8.07205 372.348 7.93977C372.294 7.91264 372.236 7.88889 372.191 7.85498C372.164 7.79053 372.14 7.72609 372.116 7.65826C371.909 7.54972 371.702 7.44458 371.494 7.33605C371.491 7.24108 371.464 7.1529 371.41 7.07489C371.461 7.07149 371.509 7.07149 371.56 7.07149C371.509 6.99349 371.479 6.90869 371.476 6.81373C371.392 6.79337 371.308 6.77642 371.221 6.76285C371.191 6.72893 371.161 6.6611 371.134 6.6611C371.052 6.66449 370.971 6.69841 370.89 6.71876C370.656 6.71876 370.454 6.79677 370.31 6.99348C370.217 7.09524 370.121 7.1936 370.028 7.29195C369.953 7.3123 369.877 7.33605 369.802 7.35979C369.868 7.91603 369.559 8.22128 369.108 8.42817C368.952 8.45192 368.798 8.47566 368.642 8.49601C368.624 8.57063 368.603 8.64863 368.582 8.71986C368.438 8.88945 368.276 9.04546 368.212 9.26932C368.065 9.20148 367.915 9.13365 367.768 9.06581C367.744 9.12686 367.729 9.19131 367.714 9.25236C367.359 9.13026 367.028 8.89284 366.62 9.01494C366.605 9.09295 366.584 9.17096 366.56 9.24897C366.463 9.33715 366.394 9.44229 366.349 9.56439L366.283 9.55761C365.514 9.63562 364.762 9.89 363.978 9.79842V9.8052C363.804 9.90017 363.626 9.99514 363.452 10.0901C363.431 10.2834 363.41 10.4734 363.392 10.6667C363.581 10.7956 363.62 10.9923 363.632 11.1992C363.308 11.267 362.983 11.3552 362.656 11.3993C362.424 11.4298 362.187 11.4027 361.953 11.3993C361.85 11.3077 361.748 11.2162 361.646 11.1246L361.535 11.0567L361.421 11.1212C361.219 11.0262 361.015 10.9312 360.813 10.8363C360.621 11.2365 360.348 11.5621 359.963 11.7758C359.671 11.9386 359.632 12.2201 359.59 12.5084C359.125 12.4439 358.668 12.4032 358.238 12.678C358.043 12.8001 357.811 12.8713 357.592 12.9459C357.366 13.0239 357.132 13.0273 356.91 12.9256C356.783 12.8679 356.66 12.8001 356.516 12.8849C355.969 13.2139 355.395 13.2512 354.767 13.1562C354.418 13.1019 354.043 13.319 353.661 13.224C353.634 13.2613 353.655 13.3054 353.64 13.3427H353.637L353.658 13.224C353.655 13.146 353.649 13.0714 353.64 12.9934C353.601 12.9527 353.562 12.912 353.523 12.8713C353.231 12.8577 352.985 12.7492 352.801 12.5118C352.705 12.4507 352.603 12.41 352.492 12.3965C352.324 12.41 352.158 12.41 351.996 12.3558C351.966 12.3456 351.939 12.3286 351.912 12.3185C351.903 12.3015 351.891 12.2879 351.879 12.271C351.68 11.9352 351.629 11.9047 351.35 11.9895C351.29 12.0064 351.23 12.0234 351.167 12.0437C350.875 12.0234 350.569 12.0573 350.325 11.8572C350.202 11.8233 350.076 11.8199 349.949 11.8436C349.922 11.8538 349.91 11.8775 349.883 11.8911C349.88 11.8877 349.874 11.8843 349.871 11.8775C349.862 11.8911 349.853 11.9047 349.844 11.9182C349.616 12.0403 349.481 12.2337 349.427 12.488C349.384 12.5321 349.345 12.5728 349.303 12.6169C349.12 12.6339 348.934 12.6508 348.75 12.6644C348.723 12.661 348.693 12.6576 348.666 12.6508C348.534 12.5186 348.369 12.4338 348.161 12.4134C348.092 12.4066 348.026 12.4236 347.96 12.4236C347.954 12.3863 347.942 12.3456 347.936 12.3083C347.84 12.3015 347.741 12.2947 347.644 12.2913C347.278 12.0878 346.908 11.8809 346.541 11.6774C346.427 11.5825 346.334 11.4671 346.268 11.3315C346.268 11.2535 346.253 11.1788 346.223 11.1076C346.118 11.0907 346.013 11.0703 345.91 11.05C345.829 11.0567 345.745 11.0669 345.664 11.0839C345.661 11.1788 345.658 11.2738 345.658 11.3688C345.357 11.3688 345.102 11.2297 344.841 11.0974C344.744 11.1483 344.732 11.2128 344.762 11.2908C344.582 11.1585 344.393 11.033 344.164 11.0398C344.035 11.0432 343.852 11.0635 343.786 11.1517C343.744 11.2026 343.699 11.1992 343.656 11.2399C343.572 11.1619 343.491 11.0839 343.41 11.0059C343.263 10.9075 343.128 10.782 342.968 10.7176C342.731 10.6226 342.487 10.5446 342.244 10.4666C342.241 10.453 342.241 10.4361 342.238 10.4225C342.142 10.0019 341.883 9.82555 341.463 9.89C341.324 9.87304 341.189 9.92052 341.054 9.87304C341.009 9.79842 340.943 9.75772 340.853 9.75433C340.681 9.85608 340.576 10.0087 340.522 10.202C340.51 10.2461 340.477 10.2767 340.453 10.314C340.39 10.3275 340.33 10.3343 340.267 10.3547C340.167 10.1681 340.071 9.98157 339.972 9.79164C339.879 9.67971 339.768 9.59831 339.632 9.55083C339.437 9.53048 339.269 9.58814 339.109 9.67293C339.037 9.59153 338.932 9.53387 338.833 9.47282L338.827 9.47621C337.998 9.53048 337.165 9.58814 336.339 9.41855C336.248 9.40159 336.152 9.40838 336.062 9.41855C335.774 9.44908 335.521 9.37107 335.272 9.21505C334.815 8.93354 334.313 8.87927 333.793 8.97424C333.631 8.50618 333.231 8.22467 332.943 7.85837C332.558 7.36996 332.107 7.11219 331.479 7.32926C331.251 7.41066 331.022 7.36657 330.794 7.29195C330.572 7.21734 330.346 7.15968 330.124 7.09184C330.103 7.01723 330.088 6.94261 330.076 6.86799C329.892 6.88834 329.706 6.90869 329.523 6.92904C329.417 7.01044 329.321 7.13933 329.204 7.16985C328.874 7.24786 328.639 7.42423 328.456 7.71931C328.363 7.86854 328.191 7.97029 328.056 8.09579C327.918 8.55367 327.608 8.77752 327.146 8.80465C326.965 8.81483 326.785 8.85553 326.602 8.88266C326.421 8.90301 326.238 8.92675 326.058 8.9471L326.064 8.9098C325.889 8.93354 325.715 8.95389 325.541 8.98441C325.411 9.00816 325.282 9.04207 325.153 9.0726C325.072 9.05903 324.994 9.04546 324.913 9.0319L324.837 9.10991C324.831 9.10312 324.822 9.09295 324.813 9.08616C324.847 9.06921 324.88 9.04886 324.913 9.0319C324.819 8.93354 324.723 8.83857 324.63 8.74021C324.426 8.50958 324.209 8.52993 323.987 8.70969C323.915 8.70969 323.843 8.71308 323.774 8.71308C323.738 8.68934 323.698 8.64524 323.665 8.64863C323.587 8.65881 323.512 8.68934 323.434 8.71308C323.35 8.71647 323.266 8.71986 323.179 8.71986C323.007 8.87249 322.896 9.06242 322.851 9.28967C322.671 9.28288 322.487 9.2761 322.307 9.26932C322.106 9.09295 321.907 8.91319 321.706 8.73682C321.73 8.71308 321.757 8.68594 321.781 8.6622L321.769 8.53671L321.799 8.41122C321.796 8.31625 321.781 8.21789 321.796 8.12631C321.85 7.82784 321.823 7.57007 321.559 7.36657C321.414 7.25465 321.312 7.08167 321.189 6.93922C321.051 6.77981 320.871 6.74928 320.681 6.78659C320.453 6.83408 320.224 6.88495 320.005 6.96296C319.807 7.03419 319.756 7.22751 319.738 7.42084C319.5 7.41406 319.263 7.42084 319.028 7.3971C318.8 7.37336 318.686 7.49546 318.584 7.67522C318.514 7.79732 318.415 7.90585 318.331 8.02117C317.913 8.08561 317.475 8.08561 317.159 8.41461C317.153 8.39426 317.147 8.37052 317.144 8.35017C316.937 8.38747 316.729 8.42478 316.522 8.46548C316.357 8.4994 316.191 8.53671 316.023 8.57063C315.972 8.50618 315.918 8.44174 315.867 8.37391C315.903 8.30947 315.942 8.25181 315.966 8.17041C315.993 7.85837 315.879 7.63112 315.581 7.51581C315.037 7.2343 314.424 7.37336 313.862 7.20038C313.207 7.54633 312.474 7.37336 311.789 7.53277C311.578 7.71253 311.365 7.89229 311.155 8.07205C311.031 8.31286 310.569 8.26537 310.581 8.6215C310.575 8.6215 310.569 8.61811 310.566 8.61811L310.547 8.63846C309.988 8.58758 309.454 8.72325 308.922 8.88266L308.907 8.75378L308.913 8.62489L308.901 8.61472C308.732 8.47566 308.66 8.1331 308.333 8.3366H308.33C308.212 8.40782 308.107 8.49262 308.014 8.59098C307.789 8.57402 307.56 8.56045 307.335 8.54349C306.956 8.51636 306.611 8.60793 306.31 8.85214C305.88 9.21844 305.88 9.21844 305.454 8.83179C305.18 8.9064 304.907 8.98102 304.63 9.05564C304.519 8.98441 304.405 8.91319 304.294 8.84535C304.215 8.72664 304.119 8.61472 304.065 8.48583C303.945 8.19754 303.783 8.05509 303.44 8.04491C302.98 8.02795 302.526 7.90924 302.067 7.83463C301.955 7.75662 301.856 7.63452 301.736 7.61077C301.423 7.54294 301.096 7.54294 300.783 7.47172C300.408 7.38692 300.074 7.40727 299.722 7.59721C299.488 7.7227 299.2 7.74305 298.932 7.81089C298.875 7.88211 298.83 7.97369 298.758 8.02456C298.343 8.32642 298.133 8.37052 297.781 8.06187C297.429 7.74983 297.036 7.74644 296.627 7.71931C296.594 7.68878 296.564 7.63112 296.534 7.63452C296.453 7.63791 296.375 7.66504 296.294 7.68539C295.933 7.48867 295.668 7.61417 295.47 7.94994C295.091 7.96012 294.716 7.97708 294.337 7.98386C293.964 7.99404 293.73 7.84141 293.61 7.44797C293.46 6.95957 293.057 6.68484 292.633 6.45081C292.639 6.35585 292.648 6.26427 292.66 6.1693C292.603 6.10825 292.534 6.07433 292.45 6.06755C292.456 5.98615 292.438 5.90814 292.396 5.83692C292.095 5.74195 291.813 5.55201 291.473 5.69446C291.395 5.72838 291.278 5.74195 291.206 5.70803C290.8 5.5181 290.508 5.68768 290.223 5.97258C289.895 6.29479 289.544 6.59666 289.201 6.9053C289.042 6.85443 288.88 6.80016 288.72 6.74928C288.543 6.79677 288.369 6.88156 288.188 6.88834C287.626 6.90869 287.061 6.9053 286.496 6.90869C286.496 6.84425 286.514 6.77642 286.496 6.71197C286.295 6.30158 286.009 6.08112 285.544 6.26427L285.538 6.27105C285.24 6.3728 285.024 6.73911 284.642 6.55935C284.342 6.69841 284.038 6.83747 283.741 6.98331C283.476 7.11219 283.278 7.3157 283.148 7.58364C282.4 7.682 281.655 7.78036 280.907 7.87872C280.876 7.98047 280.931 8.06187 280.955 8.15345C280.937 8.15345 280.916 8.15345 280.898 8.15006L280.895 8.15684C280.807 8.15005 280.723 8.16023 280.642 8.18397C280.546 8.27894 280.45 8.37391 280.354 8.47227C280.263 8.62489 280.125 8.67238 279.981 8.70969C279.53 8.68255 279.082 8.6622 278.632 8.63507C278.538 8.62828 278.445 8.6215 278.349 8.61472C278.274 8.58419 278.193 8.57402 278.112 8.57402C278.085 8.45192 278.07 8.32642 278.031 8.20771C277.952 7.97369 277.922 7.9703 277.544 8.06187C277.541 8.15684 277.529 8.24841 277.505 8.33999C277.156 8.25859 276.961 8.04491 276.949 7.67522C276.943 7.49206 276.958 7.31231 276.964 7.12915C276.952 7.05114 276.934 6.97653 276.913 6.90191C276.648 7.15968 276.399 7.41745 275.96 7.28856C275.753 7.22751 275.509 7.30552 275.284 7.31909C275.16 7.17325 275.046 7.02062 274.914 6.88156C274.692 6.64414 274.424 6.6204 274.133 6.73232C273.892 6.39655 273.643 6.07433 273.3 5.84031C273.279 5.75212 273.243 5.66733 273.195 5.59271C273.252 5.56558 273.312 5.5554 273.372 5.5588C273.234 5.34851 273.057 5.19588 272.798 5.30781C272.561 5.41295 272.357 5.40617 272.161 5.22641C271.512 4.98899 270.821 5.02969 270.154 4.91437C269.97 4.89402 269.787 4.87028 269.604 4.84993C269.348 4.74479 269.234 4.89063 269.168 5.11109C269.171 5.15179 269.189 5.17893 269.195 5.21623C269.066 5.26372 268.934 5.3112 268.804 5.36208C268.435 5.49775 268.101 5.44009 267.798 5.18571C267.635 5.3519 267.473 5.5147 267.308 5.6809C266.977 5.34512 266.644 5.01273 266.439 4.57859C266.226 4.39205 266.039 4.15463 265.796 4.02914C265.45 3.85277 265.177 3.63231 264.949 3.30332C264.732 2.99128 264.441 2.7369 264.182 2.45878C263.575 2.51305 262.986 2.65211 262.418 2.87596C262.34 2.86579 262.271 2.88953 262.214 2.9404C262.133 2.91666 262.046 2.8997 261.961 2.89631C261.583 2.88275 261.201 2.86918 260.822 2.85222C260.816 2.87257 260.807 2.89292 260.801 2.91327C260.795 2.90988 260.789 2.90988 260.783 2.90649L260.822 2.85222C260.735 2.79795 260.645 2.74029 260.558 2.68263C260.447 2.73351 260.336 2.78778 260.227 2.83865C260.044 2.859 259.861 2.88275 259.674 2.9031C259.482 2.87935 259.287 2.85222 259.094 2.82848C258.692 2.44861 258.211 2.35364 257.691 2.47574C257.39 2.54358 257.096 2.63176 256.798 2.71655C256.717 2.60463 256.621 2.51305 256.501 2.44182C256.305 2.35025 256.077 2.34007 255.855 2.31294C255.768 2.24511 255.677 2.18066 255.59 2.11283C255.461 2.01108 255.317 1.9602 255.169 1.92289C255.142 1.88219 255.106 1.86863 255.085 1.81775C255.001 1.72957 254.917 1.64477 254.827 1.56677C254.731 1.47519 254.635 1.38361 254.538 1.29204C254.367 1.08514 254.238 0.834158 253.964 0.735799C253.616 0.671357 253.318 0.861292 252.994 0.929126C252.882 0.99696 252.756 1.03088 252.642 1.09193C252.585 1.09193 252.531 1.08854 252.471 1.09193C252.107 1.12924 251.737 1.12245 251.371 1.13602C250.848 1.39718 250.331 1.68208 249.739 1.7567C249.706 1.89576 249.673 2.03143 249.64 2.17049C249.616 2.17727 249.592 2.18405 249.568 2.19084C249.562 2.20101 249.559 2.21119 249.553 2.22476C249.351 2.17049 249.15 2.11961 248.955 2.05178C248.726 1.97038 248.504 1.96699 248.275 2.04839C248.266 2.22136 248.257 2.39773 248.245 2.57071H248.242C248.137 2.65889 248.035 2.74708 247.93 2.83526C247.644 2.91666 247.359 2.99806 247.073 3.07946C246.598 3.07946 246.124 3.07946 245.649 3.07946C245.634 3.15747 245.619 3.23209 245.601 3.3101C244.991 3.55769 244.381 3.58483 243.758 3.34062C243.635 3.29314 243.491 3.30671 243.356 3.29314C242.98 3.06929 242.607 3.2694 242.235 3.30671C242.205 3.37793 242.184 3.44916 242.172 3.52378C241.991 3.53056 241.811 3.53734 241.631 3.54073C241.532 3.55091 241.432 3.56108 241.333 3.57126L241.309 3.55091C241.285 3.51699 241.261 3.45255 241.237 3.45594C241.162 3.45594 241.087 3.47968 241.012 3.49664C240.846 3.49325 240.681 3.48986 240.516 3.48647C240.191 3.24566 239.852 3.20496 239.479 3.36776C239.359 3.42203 239.209 3.41524 239.073 3.43559C238.992 3.11677 238.8 2.97771 238.478 3.04894C238.304 3.08625 238.127 3.12016 237.949 3.15747C237.58 3.69675 237.066 3.92061 236.429 3.90365C236.068 3.89347 235.704 3.94435 235.341 3.9647C235.202 4.14785 235.215 4.331 235.302 4.51076H235.299C235.299 4.51076 235.302 4.51415 235.305 4.51754C235.308 4.52094 235.308 4.52772 235.311 4.5345C235.04 4.54129 234.77 4.55146 234.499 4.55824C234.024 4.82619 233.526 4.86689 233.006 4.73461C232.931 4.738 232.855 4.73461 232.78 4.72444C232.675 4.83297 232.57 4.9449 232.462 5.05343L232.456 5.05004C232.119 4.89063 231.795 4.69052 231.398 4.80923C231.377 4.91437 231.356 5.01952 231.332 5.12466C231.169 4.95507 230.926 4.8635 230.77 4.68713C230.749 4.6159 230.737 4.54468 230.731 4.47345C230.49 4.59895 230.253 4.72783 230.006 4.84654C229.742 4.97542 229.486 4.98899 229.264 4.74479C228.888 4.66339 228.486 4.66 228.191 4.34796C228.107 4.34118 228.023 4.32422 227.942 4.29708C227.888 4.19194 227.831 4.08341 227.776 3.97826C227.846 3.98166 227.909 4.00201 227.966 4.0461C227.864 3.91043 227.761 3.77476 227.656 3.64249C227.674 3.71371 227.677 3.78494 227.665 3.85616C227.434 3.89686 227.362 4.0868 227.287 4.27673C227.109 4.30387 226.929 4.32761 226.752 4.35474C226.653 4.42936 226.553 4.50737 226.46 4.59216C226.373 4.58199 226.286 4.57859 226.199 4.5752C226.103 4.49041 226.009 4.40562 225.913 4.32083C225.718 4.32083 225.52 4.32422 225.324 4.32422C225.237 4.30387 225.15 4.29369 225.063 4.29369C224.558 4.23264 224.071 4.30726 223.611 4.5345C223.533 4.51415 223.452 4.4938 223.374 4.47684C223.184 4.27334 222.998 4.06984 222.809 3.86295C222.71 3.76798 222.607 3.66962 222.505 3.57465C222.082 3.80529 221.631 3.8799 221.159 3.83581C220.946 3.81546 220.816 3.93417 220.738 4.12411C220.062 4.17837 219.482 4.42258 219.07 5.00256C218.965 5.09413 218.86 5.18571 218.758 5.27729C218.653 5.4367 218.538 5.59271 218.445 5.75891C218.319 5.98615 218.145 6.12182 217.886 6.14217C217.691 6.1286 217.52 6.19644 217.357 6.2914C217.357 6.28801 217.36 6.28462 217.363 6.28123L217.393 6.16591L217.315 6.07773C216.828 5.83013 216.489 5.41974 216.164 4.99238C216.092 4.93133 216.008 4.88724 215.918 4.86011C215.831 4.95507 215.743 5.05004 215.656 5.14501C215.813 5.58932 215.819 5.65716 215.593 5.73516C215.311 5.83352 215.103 5.94545 215.031 6.28462C214.986 6.50508 214.821 6.69841 214.71 6.9053C214.52 6.8239 214.331 6.74589 214.142 6.66449C214.027 7.03079 213.781 7.20716 213.426 7.06471C213.048 6.91208 212.729 6.99009 212.411 7.1936C212.329 7.18003 212.245 7.18003 212.164 7.19699C212.059 7.18003 211.954 7.15968 211.849 7.14272C211.548 7.41406 211.287 7.21055 211.019 7.07489C211.013 7.00027 211.01 6.92904 211.004 6.85443C211.028 6.84764 211.046 6.84764 211.07 6.84086C211.269 6.52882 211.23 6.23374 211.013 5.95223L211.007 5.94206C210.598 6.11843 210.322 5.98276 210.16 5.56897C210.072 5.54862 209.988 5.54862 209.901 5.57575C209.808 5.62324 209.745 5.70464 209.688 5.78604C209.667 5.70803 209.661 5.62324 209.601 5.56219C209.36 5.43669 209.12 5.32138 208.84 5.30442C208.486 5.28407 208.263 5.08396 208.167 4.73461L208.173 4.738C207.894 4.46328 207.593 4.93133 207.311 4.71765L207.296 4.70748C206.995 4.42936 206.586 4.44632 206.235 4.30387C206.136 4.12072 206.033 3.93756 205.934 3.75441C204.958 3.2694 203.996 3.86973 203.022 3.78833C202.49 3.89347 202.078 4.23264 201.652 4.53789C201.447 4.63965 201.246 4.66678 201.054 4.50737C200.308 4.39205 199.5 3.22531 198.842 4.64304C198.815 4.70409 198.791 4.76853 198.767 4.82958C198.761 4.81941 198.761 4.80584 198.755 4.79906C198.668 4.68713 198.571 4.58199 198.466 4.49041C198.349 4.4124 198.226 4.35474 198.09 4.32422C197.832 4.26995 197.577 4.31065 197.318 4.331C197.195 4.34118 197.075 4.36492 196.958 4.40901C196.795 4.48024 196.624 4.54129 196.495 4.67356C196.408 4.84315 196.341 5.03308 196.224 5.17553C196.068 5.36547 195.942 5.56219 195.903 5.80978C195.791 5.89457 195.68 5.97937 195.572 6.06416C195.407 6.07773 195.239 6.09469 195.073 6.10825C194.956 6.21679 194.842 6.32532 194.725 6.43725C194.634 6.41011 194.544 6.36602 194.451 6.36263C194.196 6.34567 194.072 6.48812 194.16 6.68823C194.235 6.8646 194.322 7.03419 194.403 7.21055C194.193 7.38014 194.003 7.57347 193.814 7.77018C193.727 7.77697 193.643 7.78714 193.556 7.80071C193.553 7.94655 193.55 8.09579 193.547 8.24163C193.526 8.24163 193.504 8.23824 193.486 8.23485C192.408 8.05848 191.482 9.13704 190.361 8.63507C189.387 8.73343 188.417 8.88266 187.437 8.71647C187.392 8.70968 187.344 8.73004 187.299 8.73682C187.202 8.66559 187.106 8.59098 187.01 8.51636C186.974 8.59437 186.944 8.67238 186.92 8.75378C186.568 8.71647 186.283 8.83518 186.042 9.10651C185.871 9.29984 185.661 9.36089 185.411 9.22522C185.081 9.04207 184.744 8.87588 184.408 8.69951C184.405 8.61133 184.399 8.52314 184.39 8.43496C184.308 8.39765 184.221 8.38408 184.134 8.39087C184.044 8.30946 183.951 8.22806 183.861 8.14666C183.785 8.17719 183.71 8.18058 183.632 8.15345C183.524 8.21111 183.419 8.27894 183.308 8.32642C183.145 8.39426 183.031 8.4994 182.983 8.67238L182.974 8.68255C182.818 8.69951 182.707 8.7843 182.64 8.92675C182.394 9.04886 182.148 9.07599 181.898 8.95728C181.895 8.85214 181.886 8.75039 181.808 8.67238L181.814 8.6622C181.736 8.53332 181.634 8.42817 181.495 8.36712L181.492 8.40104C180.879 8.92336 180.278 9.45925 179.509 9.74076C179.503 9.74755 179.5 9.75433 179.494 9.75772C179.467 9.76111 179.443 9.75094 179.416 9.75772C179.41 9.80181 179.398 9.84591 179.386 9.89C179.335 9.95444 179.281 10.0121 179.214 10.0358C178.908 10.1512 178.586 10.2529 178.265 10.3072C177.7 10.4021 177.18 10.6023 176.696 10.8905C176.69 10.8838 176.684 10.8736 176.675 10.8668C176.666 10.6837 176.654 10.4971 176.645 10.314C176.744 10.3275 176.843 10.3411 176.939 10.3547L176.948 10.3343C177.015 10.2258 177.009 10.1274 176.921 10.0358C176.849 9.99853 176.771 9.98496 176.693 9.99514C176.66 9.91374 176.636 9.82895 176.624 9.74076C176.537 9.63901 176.453 9.53387 176.365 9.43212C175.912 9.30323 175.455 9.17435 175.001 9.04546C174.845 8.84874 174.619 8.85214 174.406 8.81822C174.37 8.88945 174.349 8.96746 174.346 9.04886C173.877 9.05225 173.414 8.9912 172.948 8.9505C172.444 8.9064 171.933 9.09295 171.413 9.0319C171.368 9.02511 171.32 9.03868 171.272 9.04207C171.049 9.17435 170.905 9.40498 170.682 9.53387C170.565 9.59153 170.457 9.66275 170.358 9.75094C170.277 9.85947 170.22 9.98157 170.19 10.1172C170.19 10.1817 170.22 10.2393 170.232 10.3038C170.181 10.2495 170.127 10.1953 170.075 10.141L170.069 10.1376C169.865 9.81538 169.652 9.51691 169.216 9.79503C168.988 9.78146 168.762 9.7645 168.534 9.75094L168.546 9.73059C168.402 9.66275 168.254 9.59153 168.107 9.52369C167.933 9.65936 167.65 9.55422 167.518 9.78485C167.235 9.43212 166.734 9.44568 166.418 9.15061L166.394 9.13026C166.109 9.02851 165.82 8.92675 165.534 8.82161C165.069 8.81483 164.612 8.8691 164.17 9.0319C164.11 9.0726 164.11 9.15061 164.074 9.20827C164.062 9.19131 164.05 9.17774 164.038 9.16078C164.08 9.11669 164.125 9.07599 164.167 9.03529C164.074 8.93693 163.981 8.83518 163.885 8.73682C163.671 8.52314 163.407 8.43157 163.118 8.46209C162.794 8.49601 162.475 8.57741 162.151 8.6215C161.643 8.68594 161.135 8.7843 160.627 8.7843C159.882 8.78091 159.139 8.70629 158.397 8.65881C158.304 8.65203 158.208 8.64524 158.114 8.63846C158.039 8.60793 157.958 8.59776 157.877 8.59776C157.85 8.47566 157.835 8.35017 157.796 8.23146C157.718 7.99743 157.688 7.99404 157.309 8.08561C157.306 8.18058 157.294 8.27216 157.27 8.36373C156.921 8.28233 156.723 8.06865 156.714 7.69896C156.711 7.51581 156.723 7.33605 156.729 7.1529C156.717 7.07489 156.699 7.00027 156.678 6.92565C156.414 7.18342 156.164 7.44119 155.725 7.3123C155.518 7.25125 155.275 7.32926 155.049 7.34283C154.926 7.19699 154.812 7.04436 154.679 6.9053C154.457 6.66788 154.19 6.64414 153.898 6.75607C153.658 6.42029 153.408 6.09808 153.066 5.86405C153.045 5.77587 153.009 5.69107 152.96 5.61646C153.018 5.58932 153.078 5.57915 153.141 5.58254C153.003 5.37225 152.825 5.21963 152.567 5.33155C152.329 5.43669 152.125 5.42991 151.93 5.25015C151.281 5.01273 150.589 5.05343 149.922 4.93811C149.739 4.91776 149.555 4.89402 149.372 4.87367C149.117 4.76853 149.006 4.91437 148.936 5.13483C148.939 5.17553 148.957 5.20267 148.963 5.23998C148.834 5.28746 148.702 5.33494 148.573 5.38582C148.203 5.52149 147.87 5.46383 147.566 5.20945C147.404 5.37564 147.238 5.53845 147.076 5.70464C146.746 5.36886 146.412 5.03647 146.208 4.60234C145.997 4.41579 145.808 4.17837 145.568 4.05288C145.222 3.87651 144.948 3.65605 144.72 3.32706C144.504 3.01502 144.212 2.76064 143.954 2.48252C143.347 2.53679 142.758 2.67585 142.19 2.8997C142.111 2.88953 142.042 2.91327 141.985 2.96415C141.901 2.9404 141.817 2.92345 141.733 2.92005C141.354 2.90649 140.972 2.89292 140.594 2.87596C140.585 2.89631 140.579 2.91666 140.573 2.93701C140.567 2.93362 140.561 2.93362 140.555 2.93023L140.594 2.87596C140.507 2.82169 140.416 2.76404 140.329 2.70638C140.218 2.75725 140.107 2.81152 139.999 2.86239C139.815 2.88275 139.632 2.90649 139.446 2.92684C139.253 2.9031 139.058 2.87596 138.866 2.85222C138.46 2.47235 137.982 2.37738 137.462 2.49948C137.162 2.56732 136.867 2.6555 136.57 2.74029C136.489 2.62837 136.392 2.53679 136.272 2.46557C136.077 2.37399 135.848 2.36382 135.626 2.33668C135.539 2.26885 135.449 2.20441 135.362 2.13657C135.232 2.03482 135.088 1.98394 134.941 1.94664C134.914 1.90594 134.878 1.89237 134.857 1.84149C134.773 1.75331 134.688 1.66852 134.598 1.59051C134.502 1.49893 134.406 1.40736 134.31 1.31578C134.138 1.10889 134.009 0.8579 133.736 0.759541C133.387 0.695099 133.09 0.885034 132.765 0.952868C132.654 1.0207 132.528 1.05462 132.413 1.11567C132.356 1.11567 132.302 1.11228 132.245 1.11567C131.882 1.15298 131.512 1.14619 131.145 1.15976C130.622 1.42092 130.105 1.70583 129.513 1.78044C129.48 1.9195 129.447 2.05517 129.414 2.19423C129.39 2.20101 129.366 2.2078 129.342 2.21458C129.336 2.22476 129.333 2.23493 129.327 2.2485C129.126 2.19423 128.924 2.14335 128.729 2.07552C128.501 1.99412 128.278 1.99073 128.05 2.07213C128.041 2.24511 128.029 2.42147 128.02 2.59445H128.017C127.912 2.68263 127.809 2.77082 127.704 2.859C127.419 2.9404 127.133 3.0218 126.848 3.10321C126.373 3.10321 125.898 3.10321 125.423 3.10321C125.408 3.18121 125.39 3.25583 125.375 3.33384C124.765 3.58144 124.155 3.60857 123.533 3.36437C123.41 3.31688 123.265 3.33045 123.13 3.31688C122.755 3.09303 122.382 3.29314 122.009 3.33045C121.982 3.40168 121.958 3.4729 121.946 3.54752C121.766 3.5543 121.585 3.56109 121.405 3.56448C121.306 3.57465 121.207 3.58483 121.108 3.595L121.084 3.57465C121.06 3.54073 121.036 3.47629 121.011 3.47968C120.936 3.47968 120.861 3.50343 120.786 3.52038C120.621 3.51699 120.456 3.5136 120.29 3.51021C119.966 3.2694 119.626 3.2287 119.253 3.3915C119.13 3.44577 118.983 3.43898 118.848 3.45933C118.767 3.14051 118.574 3.00145 118.253 3.07268C118.078 3.10999 117.901 3.14391 117.724 3.18121C117.354 3.72049 116.84 3.94435 116.203 3.92739C115.842 3.91721 115.479 3.96809 115.115 3.98844C114.98 4.17159 114.989 4.35474 115.076 4.5345H115.073C115.073 4.5345 115.076 4.53789 115.079 4.54129C115.082 4.54468 115.082 4.55146 115.085 4.55824C114.815 4.56503 114.544 4.5752 114.274 4.58199C113.799 4.84993 113.297 4.89063 112.78 4.75836C112.705 4.76175 112.63 4.75836 112.555 4.74818C112.45 4.85671 112.344 4.96864 112.236 5.07717L112.23 5.07378C111.894 4.91437 111.569 4.71426 111.172 4.83297C111.151 4.93812 111.127 5.04326 111.106 5.1484C110.944 4.97882 110.7 4.88724 110.544 4.71087C110.523 4.63965 110.511 4.56842 110.505 4.49719C110.265 4.62269 110.027 4.75157 109.781 4.87028C109.516 4.99917 109.258 5.01273 109.039 4.76853C108.663 4.68713 108.26 4.68374 107.966 4.3717C107.882 4.36492 107.797 4.34796 107.716 4.32083C107.662 4.21568 107.605 4.10715 107.551 4.00201C107.62 4.0054 107.683 4.02575 107.74 4.06984C107.638 3.93417 107.536 3.7985 107.431 3.66623C107.449 3.73745 107.452 3.80868 107.44 3.8799C107.211 3.92061 107.136 4.11054 107.064 4.30048C106.887 4.32761 106.706 4.35135 106.529 4.37848C106.43 4.4531 106.331 4.53111 106.238 4.6159C106.15 4.60573 106.063 4.60234 105.976 4.59895C105.88 4.51415 105.787 4.42936 105.691 4.34457C105.495 4.34457 105.297 4.34796 105.102 4.34796C105.014 4.32761 104.927 4.31743 104.84 4.31743C104.335 4.25638 103.848 4.331 103.389 4.55824C103.311 4.53789 103.229 4.51754 103.151 4.50059C102.962 4.29708 102.776 4.09358 102.586 3.88669C102.487 3.79172 102.385 3.69336 102.283 3.59839C101.859 3.82903 101.408 3.90365 100.936 3.85955C100.723 3.8392 100.594 3.95791 100.516 4.14785C99.8394 4.20212 99.2594 4.44632 98.8477 5.0263C98.7425 5.11787 98.6373 5.20945 98.5351 5.30103C98.43 5.46044 98.3158 5.61646 98.2226 5.78265C98.0964 6.00989 97.9221 6.14556 97.6636 6.16591C97.4683 6.15234 97.297 6.22018 97.1347 6.31514C97.1347 6.31175 97.1377 6.30836 97.1407 6.30497L97.1707 6.18965L97.0926 6.10147C96.6058 5.85387 96.2662 5.44348 95.9416 5.01612C95.8665 4.95507 95.7853 4.91098 95.6952 4.88385C95.608 4.97882 95.5209 5.07378 95.4337 5.16875C95.59 5.61306 95.596 5.6809 95.3706 5.75891C95.0851 5.85727 94.8807 5.96919 94.8086 6.30836C94.7635 6.52882 94.5982 6.72215 94.487 6.92904C94.2977 6.84764 94.1084 6.76963 93.919 6.68823C93.8048 7.05454 93.5584 7.2309 93.2038 7.08845C92.8251 6.93583 92.5066 7.01384 92.188 7.21734C92.1069 7.20377 92.0227 7.20377 91.9416 7.22073C91.8364 7.20377 91.7312 7.18342 91.626 7.16646C91.3255 7.4378 91.0641 7.2343 90.7966 7.09863C90.7906 7.02401 90.7876 6.95278 90.7816 6.87817C90.8056 6.87138 90.8236 6.87138 90.8477 6.8646C91.046 6.55256 91.0069 6.25749 90.7906 5.97598L90.7846 5.9658C90.3758 6.14217 90.0994 6.0065 89.9371 5.59271C89.8499 5.57236 89.7658 5.57236 89.6786 5.5995C89.5855 5.64698 89.5223 5.72838 89.4652 5.80978C89.4442 5.73177 89.4382 5.64698 89.3781 5.58593C89.1377 5.46044 88.8973 5.34512 88.6178 5.32816C88.2631 5.30781 88.0407 5.1077 87.9446 4.75836L87.9506 4.76175C87.6711 4.48702 87.3706 4.95507 87.0911 4.7414L87.0761 4.73122C86.7755 4.4531 86.3668 4.47006 86.0152 4.32761C85.916 4.14446 85.8139 3.96131 85.7147 3.77815C84.738 3.29314 83.7763 3.89347 82.8026 3.81207C82.2706 3.91721 81.8589 4.25638 81.4322 4.56164C81.2278 4.66339 81.0265 4.69052 80.8371 4.53111C80.0918 4.41579 79.2834 3.24905 78.6253 4.66678C78.5982 4.72783 78.5742 4.79227 78.5501 4.85332C78.5441 4.84315 78.5441 4.82958 78.5381 4.8228C78.451 4.71087 78.3578 4.60573 78.2496 4.51415C78.1324 4.43614 78.0092 4.37848 77.874 4.34796C77.6155 4.29369 77.36 4.33439 77.1016 4.35474C76.9784 4.36492 76.8582 4.38866 76.741 4.43275C76.5787 4.50398 76.4074 4.56503 76.2781 4.6973C76.191 4.86689 76.1249 5.05682 76.0077 5.19928C75.8514 5.38921 75.7252 5.58593 75.6861 5.83352C75.5749 5.91832 75.4637 6.00311 75.3555 6.0879C75.1902 6.10147 75.022 6.11843 74.8567 6.13199C74.7395 6.24053 74.6253 6.34906 74.508 6.46099C74.4179 6.43385 74.3277 6.38976 74.2346 6.38637C73.9791 6.36941 73.8559 6.51186 73.9431 6.71197C74.0182 6.88834 74.1054 7.05793 74.1865 7.2343C73.9761 7.40388 73.7868 7.59721 73.5975 7.79393C73.5103 7.80071 73.4262 7.81088 73.339 7.82445C73.336 7.97029 73.333 8.11953 73.33 8.26537C73.3089 8.26537 73.2879 8.26198 73.2699 8.25859C72.191 8.08222 71.2624 9.16078 70.1444 8.65881C69.1707 8.75717 68.2 8.9064 67.2203 8.74021C67.1752 8.73343 67.1271 8.75378 67.082 8.76056C66.9859 8.68934 66.8897 8.61472 66.7935 8.5401C66.7575 8.61811 66.7274 8.69612 66.7034 8.77752C66.3488 8.74021 66.0663 8.85892 65.8258 9.13026C65.6545 9.32358 65.4412 9.38463 65.1947 9.24897C64.8642 9.06581 64.5276 8.89962 64.191 8.72325C64.188 8.63507 64.182 8.54688 64.1729 8.4587C64.0918 8.42139 64.0047 8.40782 63.9175 8.41461C63.8273 8.33321 63.7342 8.25181 63.644 8.17041C63.5689 8.20093 63.4938 8.20432 63.4156 8.17719C63.3074 8.23485 63.2022 8.30268 63.0911 8.35017C62.9288 8.418 62.8146 8.52314 62.7665 8.69612L62.7575 8.70629C62.6012 8.72325 62.49 8.80804 62.4239 8.9505C62.3157 9.00476 62.2075 9.0319 62.0993 9.04546C62.0422 8.94371 61.9791 8.84196 61.919 8.74021C61.8138 8.55706 61.6395 8.49262 61.4472 8.49601C61.4291 8.49601 61.4111 8.4994 61.3931 8.4994C61.351 8.46887 61.33 8.41461 61.2789 8.39426L61.2759 8.42817C61.2398 8.4587 61.2038 8.48583 61.1677 8.51636C61.0264 8.52314 60.8882 8.52314 60.75 8.54349C60.5426 8.57741 60.4584 8.75378 60.4043 8.94371C60.1729 8.89284 59.9385 8.85214 59.7131 8.78769C59.4938 8.72325 59.3585 8.82161 59.2263 8.97763C59.1361 9.08616 59.0189 9.17096 58.9167 9.26932C58.496 9.25236 58.0633 9.17096 57.6936 9.43212C57.6936 9.40838 57.6906 9.38803 57.6906 9.36428C57.4802 9.36089 57.2699 9.3575 57.0595 9.36089C56.8912 9.36089 56.7199 9.36768 56.5516 9.37107C56.5125 9.29645 56.4735 9.22183 56.4314 9.15061C56.4765 9.09295 56.5276 9.04546 56.5666 8.96745C56.6478 8.66559 56.5787 8.42139 56.3082 8.25181C55.8243 7.87194 55.1962 7.89229 54.6733 7.61756C53.9671 7.83463 53.2759 7.52598 52.5756 7.55312C52.3352 7.68878 52.0948 7.82784 51.8544 7.9669C51.6891 8.18058 51.2443 8.04491 51.1932 8.39765C51.1872 8.39426 51.1842 8.39426 51.1782 8.39087L51.1572 8.40782C50.6162 8.25181 50.0662 8.28572 49.5163 8.33999L49.5253 8.21111L49.5553 8.08561L49.5463 8.07544C49.4051 7.90924 49.3991 7.55651 49.0384 7.69557H49.0354C48.9092 7.74305 48.789 7.80749 48.6778 7.8855C48.4584 7.82784 48.239 7.77018 48.0197 7.71253C47.653 7.61417 47.2954 7.63791 46.9558 7.82106C46.4689 8.09918 46.4689 8.09918 46.1173 7.6413C45.8348 7.66165 45.5523 7.68539 45.2698 7.70574C45.1737 7.61417 45.0745 7.52598 44.9783 7.43441C44.9242 7.30213 44.8491 7.17664 44.8191 7.03758C44.7529 6.73232 44.6177 6.56274 44.2841 6.48473C43.8363 6.38298 43.4096 6.17948 42.9738 6.02007C42.9498 5.99633 42.9287 5.96919 42.9077 5.94206C42.8356 6.09129 42.7665 6.24392 42.6943 6.39655C42.5591 6.41011 42.4239 6.42029 42.2886 6.43385C42.1714 6.52543 42.0662 6.64414 41.934 6.70519C41.5223 6.89852 41.0985 7.07489 40.6808 7.25804C40.6628 7.21055 40.6538 7.15629 40.6237 7.11219C40.3502 6.87138 40.0707 6.79677 39.7762 7.08167L39.7732 7.08845C39.5839 7.25804 39.5328 7.6006 39.1932 7.58703C39.0129 7.78714 38.8296 7.98386 38.6523 8.18736C38.496 8.36712 38.4088 8.5808 38.3938 8.82161C37.8679 9.13026 37.342 9.44229 36.813 9.75094C36.8221 9.83573 36.8852 9.87982 36.9332 9.94087C36.9182 9.94766 36.9032 9.95105 36.8912 9.95783V9.96461C36.8251 9.98836 36.765 10.0223 36.7109 10.0664C36.6688 10.1681 36.6267 10.2699 36.5816 10.3716C36.5606 10.5141 36.4704 10.5921 36.3743 10.6667C36.0317 10.7888 35.6891 10.9143 35.3465 11.0364C35.2743 11.0601 35.2022 11.0873 35.1301 11.111C35.1391 11.1348 35.1211 11.1653 35.076 11.2026C35.061 11.2162 35.0369 11.189 35.0189 11.189C35.058 11.1653 35.094 11.1381 35.1331 11.111C35.067 11.111 35.0039 11.1314 34.9438 11.1551C34.8867 11.0737 34.8386 10.9821 34.7725 10.9075C34.6432 10.7583 34.6192 10.7651 34.3667 10.9516C34.3938 11.0228 34.4118 11.0941 34.4208 11.1721C34.1384 11.2229 33.925 11.1246 33.8048 10.8532C33.7477 10.7176 33.7026 10.5785 33.6515 10.4428C33.6184 10.3886 33.5824 10.3377 33.5433 10.2902C33.4231 10.5683 33.3179 10.8363 32.9513 10.8804C32.78 10.9007 32.6207 11.0364 32.4554 11.1178C32.3202 11.0466 32.1879 10.9719 32.0467 10.9075C31.8093 10.8024 31.6019 10.8668 31.4186 11.0432C31.4186 11.0601 31.4186 11.0771 31.4156 11.0941C31.4126 11.0941 31.4096 11.0941 31.4066 11.0907L31.4186 11.0398C31.1391 10.8668 30.8536 10.704 30.529 10.6396C30.487 10.5819 30.4329 10.531 30.3758 10.4869C30.4088 10.4496 30.4509 10.4225 30.499 10.4055C30.3307 10.2936 30.1534 10.2326 29.9941 10.4021C29.8498 10.5548 29.6936 10.6158 29.4952 10.5446C28.9392 10.5751 28.4374 10.8227 27.9054 10.9482C27.7612 10.9889 27.6199 11.033 27.4757 11.0737C27.2533 11.0771 27.2142 11.2195 27.2292 11.4061C27.2443 11.4332 27.2653 11.4502 27.2833 11.4773C27.2022 11.5553 27.1181 11.6333 27.0369 11.7079C26.8025 11.925 26.535 11.9895 26.2345 11.8979C26.1624 12.0709 26.0933 12.2472 26.0211 12.4202C25.6725 12.2744 25.3239 12.1319 25.0384 11.8741C24.825 11.8029 24.6117 11.6842 24.3953 11.6672C24.0827 11.6435 23.8123 11.5655 23.5448 11.3959C23.2893 11.2331 22.9948 11.1348 22.7183 11.0093C22.2826 11.2433 21.8859 11.5316 21.5313 11.8809C21.4712 11.8979 21.4261 11.9352 21.399 11.9929C21.3299 11.9996 21.2638 12.0166 21.1977 12.0403C20.9092 12.1489 20.6237 12.2608 20.3352 12.3693C20.3352 12.3863 20.3352 12.4032 20.3382 12.4202C20.3322 12.4202 20.3292 12.4202 20.3232 12.4202L20.3382 12.3693C20.254 12.3558 20.1729 12.3422 20.0887 12.3286C20.0226 12.4032 19.9565 12.4745 19.8874 12.5491C19.7582 12.6237 19.6259 12.6983 19.4967 12.7729C19.3464 12.817 19.1932 12.8577 19.0429 12.9018C18.6252 12.7458 18.2405 12.8272 17.8919 13.0816C17.6905 13.2274 17.4952 13.3868 17.2999 13.5429C17.2037 13.4852 17.1045 13.4479 16.9963 13.4309C16.822 13.4241 16.6507 13.4886 16.4764 13.5395C16.3893 13.5191 16.3051 13.4988 16.218 13.475C16.1999 13.4716 16.1849 13.4784 16.1669 13.475C16.1458 13.4988 16.1128 13.5157 16.0978 13.5462C16.0226 13.5157 15.9475 13.5089 15.8694 13.5259C15.686 13.7871 15.4216 14.0007 15.4456 14.3772C15.4516 14.4654 15.4276 14.5807 15.3735 14.6418C15.07 14.9742 15.1361 15.3133 15.3074 15.6796C15.5057 16.1002 15.671 16.5343 15.8513 16.9651C15.7521 17.1041 15.653 17.2432 15.5538 17.3823C15.5418 17.5688 15.5658 17.7655 15.5147 17.9419C15.3555 18.4947 15.1751 19.0408 15.0008 19.5903C14.9407 19.5699 14.8836 19.5326 14.8175 19.5258C14.3757 19.5937 14.0782 19.7972 14.1023 20.3093L14.1053 20.3195C14.1053 20.6383 14.3787 20.9639 14.0872 21.2793C14.1233 21.6151 14.1533 21.9509 14.1954 22.2867C14.2315 22.5817 14.3577 22.8395 14.5651 23.0498C14.4208 23.8061 14.2766 24.5625 14.1323 25.3154C14.2165 25.3765 14.3126 25.3494 14.4028 25.3528C14.3968 25.3697 14.3878 25.3901 14.3817 25.407L14.3878 25.4138C14.3547 25.4952 14.3367 25.58 14.3337 25.6682C14.3908 25.7937 14.4509 25.9158 14.508 26.0413C14.6733 26.2414 14.6041 26.472 14.5951 26.6959C14.6672 26.7332 14.7394 26.7705 14.8115 26.8078C14.7364 27.0893 14.6612 27.3708 14.5861 27.6523C14.2796 28.1611 13.973 28.6664 13.6635 29.1752C13.6485 29.2396 13.6364 29.3075 13.6214 29.3753C13.6004 29.3685 13.5884 29.355 13.5673 29.3482C13.0264 29.511 12.9272 29.9553 12.8971 30.4437C12.9663 30.7625 13.1255 31.0949 13.0865 31.4035C13.0264 31.8953 13.1225 32.3397 13.2608 32.7908C13.39 33.0417 13.4561 33.3368 13.7236 33.4928C13.7386 33.4962 13.7476 33.4894 13.7627 33.4928C13.7657 33.5505 13.7567 33.6082 13.7717 33.659C13.928 34.2492 13.8077 34.7919 13.5523 35.321C13.5102 35.4058 13.4772 35.4973 13.4381 35.5821C13.2217 35.7178 13.0083 35.8535 12.792 35.9925C12.7499 36.0739 12.7018 36.1519 12.6447 36.2232C11.9595 36.9218 12.26 37.6341 12.6207 38.3464C12.6748 38.4006 12.7409 38.4379 12.813 38.4583C12.7679 38.6889 12.6928 38.8958 12.4944 39.0417C12.239 39.2282 11.9926 39.4317 11.7431 39.625C11.5959 39.5775 11.4757 39.6115 11.3855 39.7437C11.2683 39.8048 11.1511 39.8658 11.0339 39.9269C10.9407 39.9879 10.9227 40.0829 10.9227 40.1847L10.9197 40.1813C10.7574 40.1507 10.5921 40.1202 10.4268 40.0897C10.3847 40.1609 10.3637 40.2389 10.3637 40.3237C10.514 40.3983 10.6642 40.473 10.8145 40.5476C10.8536 40.534 10.8415 40.4865 10.8656 40.4662C10.8476 40.4933 10.8295 40.5204 10.8145 40.5476C10.7724 40.6866 10.7304 40.8291 10.6883 40.9681H10.6853C10.3487 41.1106 9.99406 41.1988 9.63944 41.2666C9.41705 41.3853 9.10751 41.3955 9.05041 41.7347C9.25477 41.9076 9.46213 42.0806 9.66649 42.2502C9.80173 42.7759 9.63343 43.1761 9.19166 43.4678C9.03839 43.5696 8.88813 43.6815 8.73786 43.79C8.58159 44.0003 8.48242 44.2343 8.47941 44.5057C8.50045 44.716 8.48843 44.9161 8.45837 45.1094C8.45837 45.1128 8.45537 45.1162 8.45537 45.123C8.45537 45.1399 8.45537 45.1535 8.45537 45.1705C8.41029 45.4248 8.31412 45.6656 8.11277 45.8793C7.9595 46.0862 8.04665 46.3915 7.85131 46.5814C7.78519 46.7442 7.72208 46.9104 7.65597 47.0732C7.68903 47.175 7.75214 47.2631 7.81224 47.3479C7.677 47.8363 7.4456 48.2773 7.14808 48.6775C7.0459 48.8131 6.85657 48.8844 6.70931 48.9861C6.61615 49.193 6.51697 49.3931 6.43583 49.6068C6.3036 49.9561 6.09624 50.241 5.7897 50.4513C5.85281 50.5802 5.91292 50.7125 5.97603 50.8448C5.8498 51.323 5.6184 51.7402 5.29383 52.1031C5.38098 52.5542 5.3359 52.9544 5.09248 53.2732C5.0504 53.3173 5.00833 53.3614 4.96325 53.3953C4.89413 53.3987 4.82801 53.4055 4.75889 53.4089C4.5936 53.5751 4.42831 53.7447 4.26303 53.9109C4.17287 53.8803 4.08271 53.8837 3.99556 53.9109C4.00758 53.86 4.0226 53.8125 4.03763 53.765C3.95048 53.7922 3.86032 53.7922 3.77317 53.765C3.72508 53.8396 3.68301 53.9177 3.64394 53.9957C3.60187 54.0126 3.52974 54.0228 3.52373 54.0465C3.50269 54.1279 3.5057 54.2161 3.49969 54.3009C3.42456 54.5282 3.43658 54.7486 3.57181 54.9521C3.63493 55.0742 3.69804 55.1963 3.76115 55.3218C3.75814 55.3998 3.75514 55.4812 3.75514 55.5592C4.29308 55.6712 4.4764 56.068 4.52749 56.57C4.50044 56.7294 4.47339 56.8854 4.44334 57.0448C4.50946 57.0855 4.57257 57.1296 4.63267 57.1771C4.74687 57.3704 4.83703 57.5773 5.02636 57.7062C4.91817 57.8283 4.80698 57.9504 4.69578 58.0759C4.74387 58.1166 4.79796 58.1539 4.85206 58.1878C4.62666 58.4931 4.30209 58.7406 4.28406 59.1748C4.35318 59.2155 4.4193 59.2596 4.48241 59.3071C4.5335 59.4292 4.60863 59.5309 4.71081 59.6089L4.68376 59.6734C4.51246 60.4433 4.51246 61.2539 4.17888 61.9865L4.18489 61.9899C4.21795 62.19 4.251 62.3901 4.28106 62.5902C4.45236 62.6716 4.62366 62.7496 4.79496 62.831C4.97227 62.6886 5.16761 62.7123 5.36596 62.7666C5.32689 63.1024 5.30585 63.4449 5.24274 63.7773C5.19766 64.0114 5.09849 64.2318 5.02035 64.4591C4.90315 64.5303 4.78594 64.6015 4.66874 64.6693L4.56956 64.7575L4.5936 64.8864C4.44034 65.0526 4.29007 65.2188 4.1368 65.3884C4.44635 65.7004 4.66273 66.0701 4.74086 66.511C4.80097 66.8434 5.0504 66.9723 5.30285 67.1046C5.09849 67.5353 4.91517 67.9661 5.03237 68.4714C5.08647 68.6987 5.07745 68.9463 5.07745 69.1837C5.08046 69.4279 5.00533 69.6551 4.84304 69.8417C4.74988 69.9468 4.6477 70.0418 4.68076 70.2114C4.81299 70.8456 4.66874 71.4154 4.38023 71.9954C4.21795 72.3176 4.30209 72.7518 4.09473 73.0909C4.11877 73.1282 4.16986 73.1215 4.19991 73.1486V73.152L4.09774 73.0943C4.02561 73.074 3.95348 73.0536 3.87835 73.0401C3.82726 73.0638 3.77918 73.0909 3.72809 73.1147C3.6229 73.3928 3.44559 73.5963 3.1661 73.698C3.07895 73.7693 3.00983 73.8575 2.96175 73.9626C2.92268 74.1288 2.86858 74.2916 2.7664 74.4307C2.69728 74.5222 2.62215 74.607 2.54101 74.6884C2.09022 74.9564 2.20442 75.6076 1.77767 75.8891C1.70555 75.9976 1.66347 76.1197 1.64845 76.2486C1.66347 76.6319 1.84679 76.8964 2.1954 77.0457C2.21344 77.049 2.22846 77.049 2.24649 77.0524C2.26152 77.2559 2.29157 77.4594 2.21644 77.6562C1.90389 77.6867 1.74161 77.8902 1.6214 78.1683C1.44709 78.5651 1.43207 78.9891 1.37497 79.4063C1.33289 79.698 1.15859 79.776 0.918167 79.8336C0.689767 79.8913 0.653704 80.0609 0.746867 80.2678C0.716815 80.3763 0.653704 80.4611 0.599609 80.5527C0.722825 80.9495 0.849046 81.3429 0.972262 81.7398C1.07444 81.7499 1.14657 81.6821 1.22771 81.6414C1.23071 81.6618 1.23372 81.6787 1.23673 81.6991H1.24274C1.25175 81.7872 1.27579 81.8687 1.31486 81.9501C1.42606 82.0281 1.53425 82.1095 1.64544 82.1875C1.88586 82.279 1.93395 82.5165 2.03011 82.7166C2.11126 82.7132 2.1924 82.7098 2.27354 82.7064C2.34266 82.9879 2.40878 83.2728 2.47489 83.5543C2.44484 84.1513 2.41479 84.7448 2.38774 85.3418C2.40577 85.4062 2.42681 85.4706 2.44484 85.5351C2.4238 85.5385 2.40577 85.5351 2.38474 85.5385C1.98804 85.9489 2.11126 86.3864 2.31561 86.8307C2.52899 87.0749 2.8235 87.2886 2.9347 87.5769C3.11501 88.0382 3.40953 88.3773 3.74312 88.7063C3.97452 88.8623 4.17287 89.0896 4.4794 89.093C4.49443 89.0896 4.49744 89.0794 4.51246 89.076C4.53951 89.1235 4.56355 89.1778 4.59961 89.2185C5.01434 89.656 5.1646 90.1919 5.19165 90.782C5.19466 90.877 5.20668 90.972 5.21569 91.067C5.09248 91.2908 4.96626 91.5181 4.84304 91.7453C4.84605 91.8369 4.84004 91.9284 4.82501 92.02C4.55454 92.9731 5.15559 93.4445 5.80773 93.8922C5.88286 93.9126 5.95499 93.9126 6.03012 93.8956C6.09924 94.1195 6.1323 94.3399 6.02712 94.5638C5.89188 94.8555 5.77167 95.1506 5.64545 95.4456C5.49518 95.4762 5.40503 95.5677 5.39 95.7237C5.31787 95.8357 5.24274 95.9476 5.16761 96.0595C5.11652 96.1579 5.14657 96.2529 5.19466 96.341L5.19165 96.3376C5.03538 96.3919 4.8761 96.4462 4.71682 96.5005C4.71682 96.5852 4.73485 96.6633 4.77091 96.7379C4.93921 96.7277 5.1045 96.7209 5.27279 96.7107C5.29984 96.6802 5.26678 96.6429 5.2788 96.6124C5.2758 96.6463 5.27279 96.6768 5.27279 96.7107C5.30285 96.8532 5.3329 96.999 5.35995 97.1415H5.35694C5.12854 97.4332 4.86107 97.6842 4.58158 97.9216C4.44334 98.1353 4.17888 98.2981 4.28707 98.6203C4.54853 98.6711 4.80998 98.7186 5.07144 98.7695C5.43808 99.1629 5.48016 99.5971 5.23373 100.072C5.14657 100.238 5.06844 100.411 4.98729 100.581C4.95123 100.842 4.97227 101.096 5.09849 101.334C5.21569 101.507 5.29984 101.69 5.36596 101.873C5.36896 101.876 5.36596 101.883 5.36896 101.886C5.37798 101.9 5.38399 101.914 5.393 101.927C5.47415 102.175 5.5042 102.433 5.42907 102.717C5.393 102.975 5.61239 103.199 5.53425 103.464C5.55529 103.64 5.57633 103.813 5.59736 103.989C5.6755 104.064 5.76866 104.108 5.86483 104.152C5.97603 104.647 5.98204 105.146 5.91292 105.644C5.88887 105.814 5.75664 105.97 5.67249 106.129C5.69053 106.357 5.69654 106.584 5.72659 106.808C5.77467 107.181 5.72959 107.534 5.55829 107.866C5.6755 107.951 5.7897 108.032 5.9069 108.117C6.02411 108.599 6.0181 109.077 5.9039 109.555C6.19541 109.908 6.34267 110.278 6.28256 110.681C6.26453 110.739 6.25251 110.8 6.22847 110.854C6.17137 110.891 6.11427 110.929 6.05416 110.966C5.98805 111.193 5.92193 111.421 5.85582 111.651C5.76265 111.672 5.68451 111.716 5.6214 111.783C5.60938 111.733 5.59736 111.685 5.59135 111.634C5.52524 111.702 5.4501 111.746 5.35995 111.766C5.35394 111.855 5.35394 111.943 5.35694 112.034C5.32689 112.072 5.26979 112.112 5.2758 112.14C5.29383 112.221 5.33891 112.296 5.37497 112.374C5.41705 112.611 5.53125 112.798 5.74763 112.906C5.86183 112.981 5.97302 113.059 6.08722 113.137C6.12028 113.208 6.15634 113.279 6.1924 113.35C6.71833 113.184 7.06393 113.439 7.34643 113.852C7.39751 114.005 7.4486 114.158 7.49669 114.307C7.57182 114.31 7.64996 114.317 7.72509 114.327C7.91442 114.439 8.09474 114.578 8.32013 114.599C8.28106 114.761 8.245 114.921 8.20593 115.084C8.26904 115.097 8.33215 115.101 8.39827 115.104C8.34718 115.484 8.17588 115.86 8.36822 116.247C8.44635 116.247 8.52449 116.254 8.60263 116.264C8.7048 116.345 8.819 116.396 8.94523 116.417L8.95124 116.484C9.16461 117.244 9.54928 117.953 9.60037 118.757H9.60638C9.7296 118.916 9.85281 119.076 9.97603 119.235C10.1654 119.221 10.3517 119.204 10.541 119.191C10.6282 118.981 10.8115 118.903 11.0098 118.852C11.1361 119.167 11.2773 119.476 11.3795 119.798C11.4516 120.025 11.4666 120.269 11.5087 120.504C11.4396 120.622 11.3705 120.744 11.2983 120.863L11.2533 120.989L11.3374 121.09C11.2833 121.311 11.2292 121.531 11.1751 121.755C11.4065 121.823 11.6169 121.928 11.8122 122.06C12.0707 121.921 12.3292 121.779 12.5966 121.663C12.7589 121.592 12.9542 121.602 13.1346 121.572C13.1676 121.643 13.2157 121.701 13.2758 121.748C13.3269 121.836 13.375 121.928 13.4261 122.016C13.7206 121.803 14.0151 121.592 14.3096 121.379L14.3216 121.372C14.4419 121.409 14.5561 121.46 14.6703 121.518C14.6733 121.84 14.9467 121.891 15.1601 121.999C15.2863 122.033 15.4126 122.067 15.5388 122.104C15.8964 121.758 16.248 121.402 16.7589 121.297C16.8941 121.334 17.0444 121.426 17.1646 121.399C17.7296 121.277 18.2826 121.301 18.8476 121.392C19.1721 121.443 19.5087 121.399 19.8393 121.396C20.0076 121.48 20.1849 121.49 20.3532 121.423C20.7229 121.27 21.0865 121.104 21.4501 120.941C21.4411 120.894 21.4201 120.849 21.4201 120.802C21.4291 120.327 21.5763 120.151 21.943 120.175C22.2165 120.191 22.4869 120.208 22.7604 120.222C23.085 120.28 23.2743 119.995 23.5358 119.893C23.8483 120.029 24.1458 119.924 24.4464 119.832C24.807 119.94 25.0895 119.839 25.3239 119.608C25.4111 119.564 25.4862 119.5 25.5403 119.401L25.5283 119.391C25.6154 119.361 25.6996 119.316 25.7807 119.266C25.8649 119.255 25.946 119.242 26.0271 119.228C26.1023 119.394 26.1774 119.561 26.2555 119.723C26.3126 119.774 26.3637 119.832 26.4058 119.893C26.6913 119.917 26.9738 119.94 27.2593 119.968C27.3825 120.032 27.5057 120.093 27.632 120.158C28.1999 120.035 28.7679 119.91 29.3359 119.788C29.5132 119.788 29.6966 119.815 29.8679 119.778C29.9911 119.747 30.0692 119.679 30.1504 119.615C30.499 119.757 30.8446 119.903 31.1962 120.029C31.5989 120.171 31.7732 120.47 31.8333 120.87C32.1639 121.27 32.5395 121.1 32.9152 120.958C33.0114 120.944 33.1045 120.951 33.1977 120.978C33.1977 121.005 33.2368 121.029 33.3119 121.046C33.357 121.056 33.39 121.002 33.4261 120.968C33.4622 121.036 33.4952 121.1 33.5373 121.165C33.5373 121.172 33.5373 121.178 33.5403 121.185C33.5433 121.185 33.5463 121.189 33.5523 121.189C33.5553 121.192 33.5553 121.195 33.5583 121.199C33.6214 121.307 33.6846 121.416 33.7477 121.521L33.7687 121.555C34.1414 121.969 34.5681 122.315 35.079 122.518C35.5057 122.684 35.9625 122.783 36.3472 122.379C36.5546 122.325 36.7589 122.271 36.9663 122.213C37.0414 122.247 37.1166 122.25 37.1947 122.223C37.3209 122.162 37.4441 122.098 37.5764 122.043C37.8468 121.931 38.1113 121.891 38.3698 122.091C38.4779 122.176 38.6132 122.237 38.7454 122.277C39.0369 122.366 39.2954 122.294 39.5148 122.077V122.074C39.8844 122.057 40.248 122.06 40.6147 122.155C40.8822 122.227 41.1677 122.294 41.4381 122.267C41.8949 122.22 42.3457 122.043 42.8025 122.026C43.3074 122.006 43.8153 122.152 44.3172 121.976C44.3893 121.914 44.4224 121.84 44.4194 121.745C44.4945 121.758 44.5666 121.748 44.6387 121.718C44.9152 121.474 45.1977 121.494 45.4832 121.701H45.4862C46.7034 122.165 47.9535 122.06 49.2037 121.925C49.8679 121.575 50.6252 122.501 51.2623 121.769C51.5058 121.596 51.632 121.368 51.5508 121.056C51.5478 121.053 51.5448 121.05 51.5418 121.046C51.662 121.036 51.7822 121.022 51.8995 121.019C52.4554 120.992 52.9813 120.673 53.5554 120.846C54.1504 120.71 54.6974 120.466 55.1511 120.039C55.1842 120.008 55.1932 119.954 55.2113 119.91C55.2954 119.896 55.3795 119.879 55.4637 119.856C55.5809 119.7 55.7522 119.7 55.9205 119.696C56.0858 119.693 56.2511 119.69 56.4164 119.703C56.5786 119.737 56.7109 119.829 56.8461 119.92C56.9453 119.961 57.0475 119.978 57.1557 119.978C57.354 119.954 57.5824 120.042 57.7206 119.812C57.7597 119.747 57.7838 119.679 57.7988 119.608C58.0753 119.493 58.3518 119.377 58.6282 119.266C58.7154 119.286 58.8056 119.333 58.8927 119.327C59.6621 119.276 60.4284 119.225 61.1527 118.909C61.5824 118.621 62.0843 118.689 62.5561 118.597C62.6343 118.546 62.7094 118.452 62.7875 118.452C63.3104 118.462 63.8213 118.584 64.2691 118.835C64.6989 119.079 65.1136 119.238 65.6065 119.167C65.8048 119.14 66.0002 119.232 66.1053 119.391C66.4029 119.839 66.8296 119.944 67.3165 119.954C67.644 119.961 67.9746 120.015 68.3022 120.046C68.5426 120.303 68.8612 120.286 69.1707 120.3C69.4231 120.544 69.7657 120.646 70.0242 120.877H70.0272C70.1654 121.012 70.3398 121.05 70.5231 121.073C70.6433 121.067 70.7575 121.043 70.8687 120.999C71.031 120.931 71.1872 120.86 71.3435 120.788C71.4457 120.734 71.5449 120.666 71.635 120.592C71.7162 120.504 71.7793 120.402 71.8213 120.29C71.8784 120.269 71.9386 120.249 71.9957 120.229C72.4825 120.103 72.6748 120.999 73.2368 120.619C73.7988 120.731 74.3638 120.833 74.8717 121.124L74.8807 121.131C75.1963 121.314 75.2894 121.002 75.4577 120.86C75.7342 120.615 76.0197 120.819 76.3022 120.843C76.6718 121.063 77.1076 121.124 77.4712 121.355L77.4923 121.345C77.6756 121.338 77.8589 121.334 78.0422 121.324C78.3608 121.301 78.5351 121.111 78.6163 120.809C78.9048 120.86 79.1091 121.022 79.2504 121.287C79.4457 121.657 79.644 122.026 80.0227 122.243C80.0528 122.41 80.0798 122.572 80.1099 122.739C80.2782 122.762 80.4465 122.783 80.6117 122.806C81.1827 122.864 81.5884 122.505 82.0272 122.226C82.2166 122.223 82.4029 122.216 82.5922 122.213H82.5952C82.5982 122.308 82.6012 122.399 82.6042 122.494C82.9769 122.43 83.1512 122.393 83.2534 122.271C83.2954 122.254 83.3375 122.25 83.3796 122.23C83.4818 122.186 83.5869 122.148 83.6891 122.115C83.7432 122.101 83.7973 122.108 83.8544 122.098C84.209 122.973 84.8401 122.64 85.4412 122.447C85.6756 122.257 85.9431 122.176 86.1865 122.383C86.5652 122.705 86.9859 122.796 87.4577 122.735C87.5359 122.756 87.617 122.769 87.6982 122.776C87.7192 122.857 87.7402 122.942 87.7552 123.027C88.0287 123.037 88.3022 123.051 88.5757 123.061C88.6508 123.336 88.7951 123.536 89.0866 123.6C89.2128 123.627 89.336 123.675 89.4592 123.712C89.6516 123.692 89.8409 123.675 90.0332 123.658C90.0332 123.688 90.0633 123.715 90.1204 123.746C90.1805 123.78 90.2436 123.756 90.3097 123.678C90.8567 123.78 91.4096 123.861 91.9536 123.994C92.4675 124.119 92.9513 124.095 93.4562 123.916C93.8439 123.78 94.2977 123.878 94.6493 123.59C95.0971 123.529 95.5449 123.475 95.9957 123.566C96.1069 123.634 96.2271 123.695 96.3443 123.756C96.732 123.875 97.1347 124.211 97.5194 124.272C97.5915 124.285 97.6215 124.282 97.6486 124.295Z" fill="url(#paint0_linear)" fill-opacity="0.9"/>
</g>
<defs>
<filter id="filter0_i" x="0.599609" y="0.722656" width="442.802" height="133.915" filterUnits="userSpaceOnUse" color-interpolation-filters="sRGB">
<feFlood flood-opacity="0" result="BackgroundImageFix"/>
<feBlend mode="normal" in="SourceGraphic" in2="BackgroundImageFix" result="shape"/>
<feColorMatrix in="SourceAlpha" type="matrix" values="0 0 0 0 0 0 0 0 0 0 0 0 0 0 0 0 0 0 127 0" result="hardAlpha"/>
<feOffset dx="4" dy="4"/>
<feGaussianBlur stdDeviation="3"/>
<feComposite in2="hardAlpha" operator="arithmetic" k2="-1" k3="1"/>
<feColorMatrix type="matrix" values="0 0 0 0 0 0 0 0 0 0 0 0 0 0 0 0 0 0 0.25 0"/>
<feBlend mode="normal" in2="shape" result="effect1_innerShadow"/>
</filter>
<linearGradient id="paint0_linear" x1="0.644688" y1="65.7034" x2="439.416" y2="65.7034" gradientUnits="userSpaceOnUse">
<stop stop-color="#F89742"/>
<stop offset="1" stop-color="#F7784F"/>
</linearGradient>
</defs>
</svg>
