<svg width="194" height="194" fill="none" xmlns="http://www.w3.org/2000/svg"><path d="M97.1 193.75a96.87 96.87 0 1196.88-96.88 105.3 105.3 0 01-2.3 21.31 6.22 6.22 0 01-7.39 4.73 6.2 6.2 0 01-4.72-7.39 87.22 87.22 0 002.3-18.65 84.77 84.77 0 10-45.53 75.2 6.07 6.07 0 019.46 4.64 6.05 6.05 0 01-3.89 6.02 95.78 95.78 0 01-44.8 11.02z" fill="#F2F6FC" fill-opacity=".8"/><path d="M163.7 169.53a6.05 6.05 0 01-6.05-6.06v-48.43a6.05 6.05 0 1112.11 0v48.43a6.05 6.05 0 01-6.05 6.06zM163.7 193.75a6.05 6.05 0 100-12.11 6.05 6.05 0 000 12.1z" fill="#F89742"/><path d="M61.74 130.54a6.18 6.18 0 011.7-8.48l33.66-22.4V42.38a6.05 6.05 0 0112.11 0v60.55a6.17 6.17 0 01-2.66 5.08l-36.33 24.22a6.66 6.66 0 01-8.48-1.7z" fill="#F2F6FC" fill-opacity=".8"/></svg>