<svg width="194" height="194" viewBox="0 0 194 194" fill="none" xmlns="http://www.w3.org/2000/svg">
<path d="M97.1057 193.746C77.946 193.746 59.2165 188.065 43.2858 177.42C27.3551 166.776 14.9386 151.646 7.6065 133.945C0.274395 116.244 -1.64402 96.7658 2.09386 77.9742C5.83173 59.1827 15.058 41.9215 28.606 28.3735C42.1539 14.8256 59.4151 5.59931 78.2066 1.86143C96.9982 -1.87644 116.476 0.0419733 134.177 7.37408C151.879 14.7062 167.008 27.1227 177.653 43.0534C188.297 58.9841 193.979 77.7135 193.979 96.8732C193.939 104.037 193.168 111.178 191.678 118.185C191.503 118.98 191.173 119.733 190.708 120.401C190.242 121.069 189.649 121.638 188.963 122.076C188.277 122.515 187.511 122.814 186.71 122.957C185.908 123.099 185.087 123.083 184.292 122.908C183.496 122.733 182.744 122.403 182.076 121.937C181.408 121.471 180.839 120.879 180.4 120.193C179.962 119.507 179.663 118.741 179.52 117.94C179.377 117.138 179.394 116.316 179.569 115.521C181.005 109.406 181.777 103.154 181.87 96.8732C181.857 78.3701 175.789 60.3795 164.594 45.6474C153.399 30.9153 137.691 20.2511 119.867 15.2825C102.043 10.314 83.0837 11.3139 65.8816 18.1298C48.6796 24.9457 34.1803 37.2032 24.5968 53.0311C15.0134 68.8591 10.8723 87.3881 12.8056 105.79C14.7389 124.192 22.6404 141.456 35.3041 154.946C47.9678 168.437 64.6979 177.413 82.9409 180.506C101.184 183.598 119.937 180.635 136.339 172.071C137.045 171.588 137.846 171.26 138.688 171.108C139.53 170.957 140.394 170.986 141.225 171.193C142.055 171.4 142.831 171.78 143.504 172.309C144.176 172.839 144.729 173.504 145.125 174.262C145.521 175.021 145.752 175.854 145.803 176.708C145.854 177.562 145.723 178.417 145.419 179.217C145.115 180.017 144.646 180.743 144.041 181.348C143.436 181.953 142.709 182.423 141.91 182.727C128.096 189.996 112.715 193.779 97.1057 193.746Z" fill="#F2F6FC" fill-opacity="0.8"/>
<path d="M163.706 169.528C162.1 169.528 160.56 168.89 159.425 167.755C158.289 166.619 157.651 165.079 157.651 163.474V115.037C157.651 113.431 158.289 111.891 159.425 110.756C160.56 109.62 162.1 108.982 163.706 108.982C165.312 108.982 166.852 109.62 167.987 110.756C169.123 111.891 169.761 113.431 169.761 115.037V163.474C169.761 165.079 169.123 166.619 167.987 167.755C166.852 168.89 165.312 169.528 163.706 169.528Z" fill="#F89742"/>
<path d="M163.706 193.746C167.05 193.746 169.761 191.036 169.761 187.692C169.761 184.348 167.05 181.637 163.706 181.637C160.362 181.637 157.651 184.348 157.651 187.692C157.651 191.036 160.362 193.746 163.706 193.746Z" fill="#F89742"/>
<path d="M61.7448 130.537C60.8621 129.183 60.5452 127.537 60.8621 125.952C61.1791 124.368 62.1046 122.97 63.4401 122.06L97.1035 99.6582V42.382C97.1035 40.7762 97.7414 39.2362 98.8768 38.1007C100.012 36.9653 101.552 36.3274 103.158 36.3274C104.764 36.3274 106.304 36.9653 107.439 38.1007C108.575 39.2362 109.213 40.7762 109.213 42.382V102.928C109.214 103.928 108.972 104.913 108.508 105.799C108.044 106.685 107.371 107.445 106.549 108.014L70.2212 132.232C68.8376 133.004 67.2241 133.257 65.6706 132.946C64.117 132.636 62.7251 131.781 61.7448 130.537Z" fill="#F2F6FC" fill-opacity="0.8"/>
</svg>
