<svg width="588" height="286" viewBox="0 0 588 286" fill="none" xmlns="http://www.w3.org/2000/svg">
<mask id="mask0" mask-type="alpha" maskUnits="userSpaceOnUse" x="1" y="17" width="575" height="238">
<path d="M37.5776 18.974C37.5776 18.688 37.692 18.4593 37.9208 18.2877C38.1495 18.0589 38.4069 17.9445 38.6929 17.9445H50.4466C51.0758 17.9445 51.3903 18.2877 51.3903 18.974L44.2695 76.9705C44.2123 77.2565 44.0693 77.5138 43.8405 77.7426C43.6117 77.9142 43.3544 78 43.0684 78H30.7999C30.2279 78 29.8562 77.7426 29.6846 77.2279L19.9041 45.4842C19.7897 45.3127 19.6753 45.2555 19.5609 45.3127C19.4465 45.3127 19.3893 45.427 19.3893 45.6558L15.7002 76.9705C15.643 77.2565 15.5 77.5138 15.2713 77.7426C15.0997 77.9142 14.8709 78 14.5849 78H2.83119C2.54521 78 2.31643 77.9142 2.14484 77.7426C1.97325 77.5138 1.91606 77.2565 1.97325 76.9705L9.09412 18.974C9.15131 18.688 9.26571 18.4593 9.43729 18.2877C9.66608 18.0589 9.92346 17.9445 10.2094 17.9445H22.4779C22.9927 17.9445 23.3359 18.2019 23.5074 18.7166L33.2879 50.2887C33.3451 50.4603 33.4309 50.5461 33.5453 50.5461C33.6597 50.5461 33.7455 50.4317 33.8027 50.2029L37.5776 18.974ZM106.576 29.0977C106.519 29.3836 106.376 29.641 106.147 29.8698C105.976 30.0414 105.747 30.1272 105.461 30.1272H84.0127C83.7839 30.1272 83.6123 30.2702 83.4979 30.5562L82.211 41.2804C82.211 41.5663 82.3254 41.7093 82.5542 41.7093H95.509C96.1382 41.7093 96.4527 42.0525 96.4527 42.7388L95.1658 52.8625C95.1086 53.1485 94.9657 53.4058 94.7369 53.6346C94.5653 53.8062 94.3365 53.892 94.0505 53.892H81.0957C80.8669 53.892 80.6953 54.035 80.5809 54.321L79.2082 65.3883C79.2082 65.6743 79.3512 65.8173 79.6372 65.8173H101.086C101.372 65.8173 101.6 65.9317 101.772 66.1605C101.944 66.3321 102.001 66.5609 101.944 66.8468L100.742 76.9705C100.685 77.2565 100.542 77.5138 100.313 77.7426C100.085 77.9142 99.8273 78 99.5413 78H64.8807C64.5947 78 64.3659 77.9142 64.1944 77.7426C64.0228 77.5138 63.9656 77.2565 64.0228 76.9705L71.1436 18.974C71.2008 18.688 71.3152 18.4593 71.4868 18.2877C71.7156 18.0589 71.973 17.9445 72.259 17.9445H106.92C107.549 17.9445 107.863 18.2877 107.863 18.974L106.576 29.0977ZM131.981 78C131.352 78 131.009 77.714 130.952 77.1421L124.603 19.0598C124.603 18.3163 124.975 17.9445 125.718 17.9445H138.073C138.702 17.9445 139.016 18.2591 139.016 18.8882L140.904 48.6586C140.904 48.8302 140.961 48.916 141.075 48.916C141.247 48.916 141.361 48.8302 141.419 48.6586L150.17 18.8882C150.341 18.2591 150.742 17.9445 151.371 17.9445H162.095C162.724 17.9445 163.039 18.2591 163.039 18.8882L165.012 48.6586C165.069 48.8302 165.155 48.916 165.269 48.916C165.384 48.916 165.469 48.8302 165.527 48.6586L174.192 18.8882C174.363 18.2591 174.764 17.9445 175.393 17.9445H187.404C188.148 17.9445 188.405 18.3163 188.176 19.0598L168.701 77.0563C168.529 77.6854 168.129 78 167.5 78H156.261C155.632 78 155.317 77.6854 155.317 77.0563L153.43 45.7416C153.373 45.57 153.287 45.4842 153.172 45.4842C153.058 45.4842 152.972 45.57 152.915 45.7416L144.078 77.0563C143.907 77.6854 143.506 78 142.877 78H131.981ZM264.327 18.974C264.327 18.688 264.442 18.4593 264.67 18.2877C264.899 18.0589 265.157 17.9445 265.443 17.9445H277.196C277.825 17.9445 278.14 18.2877 278.14 18.974L271.019 76.9705C270.962 77.2565 270.819 77.5138 270.59 77.7426C270.361 77.9142 270.104 78 269.818 78H257.55C256.978 78 256.606 77.7426 256.434 77.2279L246.654 45.4842C246.539 45.3127 246.425 45.2555 246.311 45.3127C246.196 45.3127 246.139 45.427 246.139 45.6558L242.45 76.9705C242.393 77.2565 242.25 77.5138 242.021 77.7426C241.849 77.9142 241.621 78 241.335 78H229.581C229.295 78 229.066 77.9142 228.895 77.7426C228.723 77.5138 228.666 77.2565 228.723 76.9705L235.844 18.974C235.901 18.688 236.015 18.4593 236.187 18.2877C236.416 18.0589 236.673 17.9445 236.959 17.9445H249.228C249.742 17.9445 250.086 18.2019 250.257 18.7166L260.038 50.2887C260.095 50.4603 260.181 50.5461 260.295 50.5461C260.409 50.5461 260.495 50.4317 260.552 50.2029L264.327 18.974ZM309.988 78.8579C304.497 78.8579 300.122 77.3137 296.862 74.2251C293.659 71.1365 292.057 67.0184 292.057 61.8708C292.057 61.1845 292.115 60.1549 292.229 58.7822L294.889 37.1623C295.346 33.2158 296.604 29.7554 298.663 26.7812C300.723 23.7499 303.382 21.4048 306.642 19.7462C309.902 18.0875 313.534 17.2582 317.538 17.2582C323.086 17.2582 327.462 18.8024 330.664 21.891C333.925 24.9224 335.555 29.0119 335.555 34.1595C335.555 34.7886 335.498 35.7896 335.383 37.1623L332.724 58.7822C332.209 62.7859 330.922 66.3035 328.863 69.3348C326.804 72.3662 324.144 74.7112 320.884 76.3699C317.624 78.0286 313.992 78.8579 309.988 78.8579ZM311.533 66.5895C313.42 66.5895 315.05 65.9317 316.423 64.6162C317.795 63.2435 318.596 61.4704 318.825 59.297L321.57 36.8191C321.628 36.5331 321.656 36.1327 321.656 35.618C321.656 33.7877 321.141 32.3006 320.112 31.1567C319.14 30.0128 317.795 29.4408 316.08 29.4408C314.135 29.4408 312.505 30.1272 311.189 31.4999C309.874 32.8154 309.073 34.5885 308.787 36.8191L305.956 59.297C305.899 59.583 305.87 60.0119 305.87 60.5839C305.87 62.4142 306.385 63.8727 307.414 64.9594C308.444 66.0461 309.817 66.5895 311.533 66.5895ZM376.238 78C375.666 78 375.323 77.714 375.209 77.1421L370.233 54.4068C370.118 54.178 369.975 54.0636 369.804 54.0636H366.458C366.343 54.0636 366.229 54.1208 366.115 54.2352C366.057 54.2924 366.029 54.3782 366.029 54.4926L363.283 76.9705C363.226 77.2565 363.083 77.5138 362.854 77.7426C362.683 77.9142 362.454 78 362.168 78H350.329C350.043 78 349.814 77.9142 349.642 77.7426C349.471 77.5138 349.413 77.2565 349.471 76.9705L356.592 18.974C356.649 18.688 356.763 18.4593 356.935 18.2877C357.164 18.0589 357.421 17.9445 357.707 17.9445H378.984C383.674 17.9445 387.391 19.3744 390.137 22.2342C392.882 25.0368 394.255 28.8117 394.255 33.5589C394.255 34.8744 394.198 35.8754 394.083 36.5617C393.683 40.1078 392.568 43.2536 390.737 45.999C388.907 48.6872 386.562 50.7176 383.702 52.0903C383.531 52.1475 383.445 52.3191 383.445 52.6051L389.622 76.7989V77.0563C389.622 77.6854 389.279 78 388.593 78H376.238ZM369.461 30.1272C369.232 30.1272 369.06 30.2702 368.946 30.5562L367.487 42.7388C367.373 43.0248 367.487 43.1678 367.831 43.1678H373.664C375.666 43.1678 377.296 42.4815 378.555 41.1088C379.813 39.7361 380.442 37.8772 380.442 35.5322C380.442 33.8735 379.956 32.558 378.984 31.5857C378.069 30.6134 376.839 30.1272 375.295 30.1272H369.461ZM447.297 18.6309C447.526 18.1733 447.926 17.9445 448.498 17.9445H460.252C460.538 17.9445 460.766 18.0589 460.938 18.2877C461.11 18.4593 461.167 18.688 461.11 18.974L453.989 76.9705C453.932 77.2565 453.789 77.5138 453.56 77.7426C453.388 77.9142 453.159 78 452.873 78H441.034C440.748 78 440.519 77.9142 440.348 77.7426C440.176 77.5138 440.119 77.2565 440.176 76.9705L444.551 41.3661C444.609 41.1374 444.58 41.023 444.466 41.023C444.351 40.9658 444.237 41.023 444.122 41.1946L436.229 52.3477C435.943 52.8053 435.514 53.0341 434.943 53.0341H432.626C432.111 53.0341 431.768 52.8053 431.597 52.3477L426.449 41.1946C426.335 41.023 426.22 40.9658 426.106 41.023C425.991 41.023 425.934 41.1374 425.934 41.3661L421.559 76.9705C421.502 77.2565 421.359 77.5138 421.13 77.7426C420.958 77.9142 420.729 78 420.443 78H408.604C408.318 78 408.089 77.9142 407.918 77.7426C407.746 77.5138 407.689 77.2565 407.746 76.9705L414.867 18.974C414.924 18.688 415.038 18.4593 415.21 18.2877C415.439 18.0589 415.696 17.9445 415.982 17.9445H427.736C428.251 17.9445 428.594 18.1733 428.765 18.6309L435.886 34.2453C436.001 34.5885 436.172 34.5885 436.401 34.2453L447.297 18.6309ZM533.679 78C533.393 78 533.164 77.9142 532.992 77.7426C532.821 77.5138 532.764 77.2565 532.821 76.9705L539.942 18.974C539.999 18.688 540.113 18.4593 540.285 18.2877C540.514 18.0589 540.771 17.9445 541.057 17.9445H552.897C553.183 17.9445 553.411 18.0589 553.583 18.2877C553.755 18.4593 553.812 18.688 553.755 18.974L548.006 65.3883C548.006 65.6743 548.149 65.8173 548.435 65.8173H570.227C570.513 65.8173 570.742 65.9317 570.913 66.1605C571.085 66.3321 571.142 66.5609 571.085 66.8468L569.798 76.9705C569.798 77.2565 569.684 77.5138 569.455 77.7426C569.226 77.9142 568.969 78 568.683 78H533.679ZM41.4383 106.802C41.5527 106.23 41.8673 105.945 42.382 105.945H46.6717C47.2437 105.945 47.4724 106.23 47.3581 106.802L40.2372 165.142C40.1228 165.714 39.8082 166 39.2935 166H34.7464C34.2316 166 33.9457 165.8 33.8885 165.399L17.1587 119.5C17.1015 119.385 17.0157 119.328 16.9013 119.328C16.8441 119.328 16.7869 119.414 16.7297 119.586L11.239 165.142C11.1246 165.714 10.81 166 10.2952 166H6.09134C5.57658 166 5.3192 165.714 5.3192 165.142L12.5259 106.802C12.6403 106.23 12.9548 105.945 13.4696 105.945H17.9309C18.5028 105.945 18.8174 106.145 18.8746 106.545L35.5185 152.616C35.6901 152.902 35.8331 152.874 35.9475 152.53L41.4383 106.802ZM105.058 110.406C104.944 110.978 104.629 111.264 104.115 111.264H79.1486C78.9198 111.264 78.8054 111.378 78.8054 111.607L76.1458 132.884C76.1458 133.112 76.2602 133.227 76.489 133.227H93.3045C93.8765 133.227 94.1053 133.513 93.9909 134.085L93.5619 137.688C93.4475 138.26 93.1329 138.546 92.6182 138.546H75.8026C75.5739 138.546 75.4595 138.66 75.4595 138.889L72.7999 160.338C72.7999 160.452 72.8285 160.538 72.8857 160.595C72.9428 160.652 73 160.681 73.0572 160.681H98.0232C98.3091 160.681 98.5093 160.767 98.6237 160.938C98.7953 161.11 98.8525 161.31 98.7953 161.539L98.3663 165.142C98.252 165.714 97.9374 166 97.4226 166H67.0517C66.5369 166 66.2795 165.714 66.2795 165.142L73.4862 106.802C73.6006 106.23 73.9152 105.945 74.4299 105.945H104.801C105.373 105.945 105.602 106.23 105.487 106.802L105.058 110.406ZM132.58 166C132.351 166 132.151 165.943 131.979 165.828C131.808 165.657 131.722 165.457 131.722 165.228L125.459 106.888V106.717C125.459 106.488 125.516 106.316 125.631 106.202C125.802 106.03 126.002 105.945 126.231 105.945H130.778C131.293 105.945 131.55 106.202 131.55 106.717L136.097 152.788C136.097 152.959 136.155 153.045 136.269 153.045C136.383 153.045 136.469 152.959 136.526 152.788L151.369 106.717C151.54 106.202 151.883 105.945 152.398 105.945H156.602C157.117 105.945 157.374 106.202 157.374 106.717L161.321 152.788C161.321 152.959 161.349 153.045 161.407 153.045C161.521 153.045 161.607 152.959 161.664 152.788L177.193 106.717C177.364 106.202 177.707 105.945 178.222 105.945H182.512C183.026 105.945 183.227 106.259 183.112 106.888L162.951 165.228C162.722 165.743 162.379 166 161.921 166H157.717C157.145 166 156.859 165.743 156.859 165.228L153.085 118.47C153.085 118.299 153.056 118.213 152.999 118.213C152.942 118.213 152.856 118.299 152.741 118.47L137.642 165.228C137.47 165.743 137.127 166 136.612 166H132.58ZM237.409 166C237.18 166 236.98 165.943 236.808 165.828C236.637 165.657 236.551 165.457 236.551 165.228L230.288 106.888V106.717C230.288 106.488 230.345 106.316 230.46 106.202C230.631 106.03 230.831 105.945 231.06 105.945H235.607C236.122 105.945 236.379 106.202 236.379 106.717L240.926 152.788C240.926 152.959 240.984 153.045 241.098 153.045C241.212 153.045 241.298 152.959 241.355 152.788L256.198 106.717C256.369 106.202 256.712 105.945 257.227 105.945H261.431C261.946 105.945 262.203 106.202 262.203 106.717L266.15 152.788C266.15 152.959 266.178 153.045 266.236 153.045C266.35 153.045 266.436 152.959 266.493 152.788L282.022 106.717C282.193 106.202 282.536 105.945 283.051 105.945H287.341C287.856 105.945 288.056 106.259 287.941 106.888L267.78 165.228C267.551 165.743 267.208 166 266.75 166H262.546C261.974 166 261.688 165.743 261.688 165.228L257.914 118.47C257.914 118.299 257.885 118.213 257.828 118.213C257.771 118.213 257.685 118.299 257.57 118.47L242.471 165.228C242.299 165.743 241.956 166 241.441 166H237.409ZM341.108 110.406C340.993 110.978 340.679 111.264 340.164 111.264H315.198C314.969 111.264 314.855 111.378 314.855 111.607L312.195 132.884C312.195 133.112 312.31 133.227 312.539 133.227H329.354C329.926 133.227 330.155 133.513 330.04 134.085L329.612 137.688C329.497 138.26 329.183 138.546 328.668 138.546H311.852C311.623 138.546 311.509 138.66 311.509 138.889L308.849 160.338C308.849 160.452 308.878 160.538 308.935 160.595C308.992 160.652 309.05 160.681 309.107 160.681H334.073C334.359 160.681 334.559 160.767 334.673 160.938C334.845 161.11 334.902 161.31 334.845 161.539L334.416 165.142C334.302 165.714 333.987 166 333.472 166H303.101C302.587 166 302.329 165.714 302.329 165.142L309.536 106.802C309.65 106.23 309.965 105.945 310.48 105.945H340.85C341.422 105.945 341.651 106.23 341.537 106.802L341.108 110.406ZM387.261 134.685C386.975 134.743 386.946 134.886 387.175 135.114C391.579 137.459 393.781 141.406 393.781 146.954C393.781 147.526 393.724 148.441 393.609 149.699C392.98 154.847 391.007 158.851 387.69 161.71C384.372 164.57 380.283 166 375.421 166H359.035C358.52 166 358.263 165.714 358.263 165.142L365.469 106.802C365.584 106.23 365.898 105.945 366.413 105.945H382.113C386.689 105.945 390.264 107.088 392.837 109.376C395.411 111.607 396.698 114.81 396.698 118.985C396.698 119.5 396.641 120.386 396.526 121.645C396.126 124.79 395.125 127.479 393.524 129.709C391.979 131.883 389.892 133.541 387.261 134.685ZM371.132 111.264C370.903 111.264 370.788 111.378 370.788 111.607L368.215 132.283C368.215 132.512 368.329 132.626 368.558 132.626H378.939C382.485 132.626 385.345 131.511 387.518 129.28C389.692 126.993 390.778 123.961 390.778 120.186C390.778 117.384 389.949 115.21 388.29 113.666C386.689 112.064 384.43 111.264 381.513 111.264H371.132ZM375.936 160.595C379.482 160.595 382.371 159.365 384.601 156.906C386.832 154.389 387.947 151.043 387.947 146.868C387.947 143.951 387.118 141.663 385.459 140.005C383.8 138.346 381.513 137.517 378.596 137.517H367.957C367.843 137.517 367.728 137.545 367.614 137.602C367.557 137.66 367.528 137.745 367.528 137.86L364.783 160.252C364.783 160.481 364.897 160.595 365.126 160.595H375.936ZM37.5776 194.974C37.5776 194.688 37.692 194.459 37.9208 194.288C38.1495 194.059 38.4069 193.945 38.6929 193.945H50.4466C51.0758 193.945 51.3903 194.288 51.3903 194.974L44.2695 252.97C44.2123 253.256 44.0693 253.514 43.8405 253.743C43.6117 253.914 43.3544 254 43.0684 254H30.7999C30.2279 254 29.8562 253.743 29.6846 253.228L19.9041 221.484C19.7897 221.313 19.6753 221.255 19.5609 221.313C19.4465 221.313 19.3893 221.427 19.3893 221.656L15.7002 252.97C15.643 253.256 15.5 253.514 15.2713 253.743C15.0997 253.914 14.8709 254 14.5849 254H2.83119C2.54521 254 2.31643 253.914 2.14484 253.743C1.97325 253.514 1.91606 253.256 1.97325 252.97L9.09412 194.974C9.15131 194.688 9.26571 194.459 9.43729 194.288C9.66608 194.059 9.92346 193.945 10.2094 193.945H22.4779C22.9927 193.945 23.3359 194.202 23.5074 194.717L33.2879 226.289C33.3451 226.46 33.4309 226.546 33.5453 226.546C33.6597 226.546 33.7455 226.432 33.8027 226.203L37.5776 194.974ZM106.576 205.098C106.519 205.384 106.376 205.641 106.147 205.87C105.976 206.041 105.747 206.127 105.461 206.127H84.0127C83.7839 206.127 83.6123 206.27 83.4979 206.556L82.211 217.28C82.211 217.566 82.3254 217.709 82.5542 217.709H95.509C96.1382 217.709 96.4527 218.052 96.4527 218.739L95.1658 228.862C95.1086 229.148 94.9657 229.406 94.7369 229.635C94.5653 229.806 94.3365 229.892 94.0505 229.892H81.0957C80.8669 229.892 80.6953 230.035 80.5809 230.321L79.2082 241.388C79.2082 241.674 79.3512 241.817 79.6372 241.817H101.086C101.372 241.817 101.6 241.932 101.772 242.16C101.944 242.332 102.001 242.561 101.944 242.847L100.742 252.97C100.685 253.256 100.542 253.514 100.313 253.743C100.085 253.914 99.8273 254 99.5413 254H64.8807C64.5947 254 64.3659 253.914 64.1944 253.743C64.0228 253.514 63.9656 253.256 64.0228 252.97L71.1436 194.974C71.2008 194.688 71.3152 194.459 71.4868 194.288C71.7156 194.059 71.973 193.945 72.259 193.945H106.92C107.549 193.945 107.863 194.288 107.863 194.974L106.576 205.098ZM131.981 254C131.352 254 131.009 253.714 130.952 253.142L124.603 195.06C124.603 194.316 124.975 193.945 125.718 193.945H138.073C138.702 193.945 139.016 194.259 139.016 194.888L140.904 224.659C140.904 224.83 140.961 224.916 141.075 224.916C141.247 224.916 141.361 224.83 141.419 224.659L150.17 194.888C150.341 194.259 150.742 193.945 151.371 193.945H162.095C162.724 193.945 163.039 194.259 163.039 194.888L165.012 224.659C165.069 224.83 165.155 224.916 165.269 224.916C165.384 224.916 165.469 224.83 165.527 224.659L174.192 194.888C174.363 194.259 174.764 193.945 175.393 193.945H187.404C188.148 193.945 188.405 194.316 188.176 195.06L168.701 253.056C168.529 253.685 168.129 254 167.5 254H156.261C155.632 254 155.317 253.685 155.317 253.056L153.43 221.742C153.373 221.57 153.287 221.484 153.172 221.484C153.058 221.484 152.972 221.57 152.915 221.742L144.078 253.056C143.907 253.685 143.506 254 142.877 254H131.981ZM241.335 254C240.705 254 240.362 253.714 240.305 253.142L233.956 195.06C233.956 194.316 234.328 193.945 235.072 193.945H247.426C248.055 193.945 248.37 194.259 248.37 194.888L250.257 224.659C250.257 224.83 250.314 224.916 250.429 224.916C250.6 224.916 250.715 224.83 250.772 224.659L259.523 194.888C259.694 194.259 260.095 193.945 260.724 193.945H271.448C272.077 193.945 272.392 194.259 272.392 194.888L274.365 224.659C274.422 224.83 274.508 224.916 274.623 224.916C274.737 224.916 274.823 224.83 274.88 224.659L283.545 194.888C283.717 194.259 284.117 193.945 284.746 193.945H296.757C297.501 193.945 297.758 194.316 297.529 195.06L278.054 253.056C277.883 253.685 277.482 254 276.853 254H265.614C264.985 254 264.67 253.685 264.67 253.056L262.783 221.742C262.726 221.57 262.64 221.484 262.526 221.484C262.411 221.484 262.325 221.57 262.268 221.742L253.432 253.056C253.26 253.685 252.86 254 252.23 254H241.335ZM338.535 254.858C333.044 254.858 328.668 253.314 325.408 250.225C322.205 247.137 320.604 243.018 320.604 237.871C320.604 237.184 320.661 236.155 320.775 234.782L323.435 213.162C323.893 209.216 325.151 205.755 327.21 202.781C329.269 199.75 331.929 197.405 335.189 195.746C338.449 194.087 342.081 193.258 346.085 193.258C351.633 193.258 356.008 194.802 359.211 197.891C362.471 200.922 364.101 205.012 364.101 210.159C364.101 210.789 364.044 211.79 363.93 213.162L361.27 234.782C360.755 238.786 359.468 242.303 357.409 245.335C355.35 248.366 352.691 250.711 349.43 252.37C346.17 254.029 342.538 254.858 338.535 254.858ZM340.079 242.589C341.966 242.589 343.597 241.932 344.969 240.616C346.342 239.244 347.143 237.47 347.371 235.297L350.117 212.819C350.174 212.533 350.203 212.133 350.203 211.618C350.203 209.788 349.688 208.301 348.658 207.157C347.686 206.013 346.342 205.441 344.626 205.441C342.681 205.441 341.051 206.127 339.736 207.5C338.42 208.815 337.62 210.588 337.334 212.819L334.502 235.297C334.445 235.583 334.417 236.012 334.417 236.584C334.417 238.414 334.931 239.873 335.961 240.959C336.99 242.046 338.363 242.589 340.079 242.589ZM418.083 254C417.511 254 417.168 253.714 417.053 253.142L412.077 230.407C411.963 230.178 411.82 230.064 411.648 230.064H408.302C408.188 230.064 408.074 230.121 407.959 230.235C407.902 230.292 407.873 230.378 407.873 230.493L405.128 252.97C405.071 253.256 404.928 253.514 404.699 253.743C404.527 253.914 404.299 254 404.013 254H392.173C391.887 254 391.658 253.914 391.487 253.743C391.315 253.514 391.258 253.256 391.315 252.97L398.436 194.974C398.493 194.688 398.608 194.459 398.779 194.288C399.008 194.059 399.265 193.945 399.551 193.945H420.828C425.518 193.945 429.236 195.374 431.981 198.234C434.727 201.037 436.099 204.812 436.099 209.559C436.099 210.874 436.042 211.875 435.928 212.562C435.527 216.108 434.412 219.254 432.582 221.999C430.752 224.687 428.407 226.718 425.547 228.09C425.375 228.148 425.289 228.319 425.289 228.605L431.467 252.799V253.056C431.467 253.685 431.123 254 430.437 254H418.083ZM411.305 206.127C411.076 206.127 410.905 206.27 410.79 206.556L409.332 218.739C409.217 219.025 409.332 219.168 409.675 219.168H415.509C417.511 219.168 419.141 218.481 420.399 217.109C421.657 215.736 422.287 213.877 422.287 211.532C422.287 209.874 421.8 208.558 420.828 207.586C419.913 206.613 418.683 206.127 417.139 206.127H411.305ZM463.918 254C463.632 254 463.403 253.914 463.232 253.743C463.06 253.514 463.003 253.256 463.06 252.97L470.181 194.974C470.238 194.688 470.352 194.459 470.524 194.288C470.753 194.059 471.01 193.945 471.296 193.945H483.136C483.422 193.945 483.651 194.059 483.822 194.288C483.994 194.459 484.051 194.688 483.994 194.974L478.246 241.388C478.246 241.674 478.388 241.817 478.674 241.817H500.466C500.752 241.817 500.981 241.932 501.152 242.16C501.324 242.332 501.381 242.561 501.324 242.847L500.037 252.97C500.037 253.256 499.923 253.514 499.694 253.743C499.465 253.914 499.208 254 498.922 254H463.918ZM532.144 254C531.858 254 531.629 253.914 531.458 253.743C531.286 253.514 531.229 253.256 531.286 252.97L538.407 194.974C538.464 194.688 538.578 194.459 538.75 194.288C538.979 194.059 539.236 193.945 539.522 193.945H558.054C563.544 193.945 567.891 195.346 571.094 198.148C574.297 200.894 575.899 204.612 575.899 209.302C575.899 209.816 575.841 210.646 575.727 211.79L572.724 236.155C572.267 239.701 571.037 242.818 569.035 245.506C567.091 248.195 564.517 250.282 561.314 251.769C558.168 253.256 554.622 254 550.675 254H532.144ZM546.471 241.388C546.471 241.674 546.614 241.817 546.9 241.817L552.391 241.732C554.05 241.732 555.48 241.074 556.681 239.758C557.939 238.443 558.74 236.67 559.083 234.439L561.657 213.42C561.714 213.134 561.743 212.676 561.743 212.047C561.743 210.217 561.285 208.787 560.37 207.757C559.512 206.671 558.282 206.127 556.681 206.127H551.276C551.047 206.127 550.876 206.27 550.761 206.556L546.471 241.388Z" fill="black"/>
<path d="M474.852 52.8479L509.061 18.5464C510.314 17.5484 512.198 18.5009 512.198 19.9935V66.8704C512.198 67.9194 511.349 68.7708 510.304 68.7708C509.811 68.7708 509.339 68.5806 509.068 68.3069L499.59 60.0237L491.86 78.1383C491.729 78.4473 491.482 78.6909 491.171 78.8176C491.019 78.8756 490.86 78.9062 490.701 78.9062C490.531 78.9062 490.362 78.8705 490.203 78.8023L482.069 75.3053C481.428 75.0321 481.129 74.2869 481.404 73.6434L488.887 56.1013H476.201C475.155 56.1013 474.306 55.2499 474.306 54.2009C474.306 53.8942 474.384 53.433 474.852 52.8479Z" fill="black"/>
<mask mask-type="luminance" maskUnits="userSpaceOnUse" x="0" y="0" width="0" height="0" fill="black">
<rect fill="white" width="0" height="0"/>
</mask>
<path d="M410.441 141.203C410.033 141.612 410.033 142.274 410.441 142.683L417.1 149.341C417.508 149.75 418.171 149.75 418.579 149.341C418.988 148.933 418.988 148.27 418.579 147.862L412.661 141.943L418.579 136.024C418.988 135.616 418.988 134.953 418.579 134.545C418.171 134.136 417.508 134.136 417.1 134.545L410.441 141.203ZM573.743 142.683C574.151 142.274 574.151 141.612 573.743 141.203L567.084 134.545C566.676 134.136 566.013 134.136 565.605 134.545C565.196 134.953 565.196 135.616 565.605 136.024L571.523 141.943L565.605 147.862C565.196 148.27 565.196 148.933 565.605 149.341C566.013 149.75 566.676 149.75 567.084 149.341L573.743 142.683ZM411.181 142.989L573.003 142.989L573.003 140.897L411.181 140.897L411.181 142.989Z" fill="black" mask="url(#)"/>
<path d="M482.42 120.526C482.392 120.554 482.378 120.582 482.378 120.61C482.392 120.638 482.42 120.652 482.461 120.652H488.237C488.307 120.652 488.362 120.68 488.404 120.735C488.446 120.777 488.46 120.833 488.446 120.903L488.258 122.493C488.244 122.563 488.209 122.626 488.153 122.681C488.111 122.723 488.055 122.744 487.986 122.744H479.26C479.19 122.744 479.134 122.723 479.093 122.681C479.051 122.626 479.037 122.563 479.051 122.493L479.218 120.987C479.232 120.875 479.288 120.77 479.385 120.673C480.222 119.878 481.576 118.496 483.445 116.529L484.575 115.358C485.998 113.865 486.758 112.735 486.856 111.968C486.926 111.396 486.786 110.928 486.437 110.566C486.089 110.203 485.6 110.022 484.973 110.022C484.345 110.022 483.815 110.203 483.382 110.566C482.964 110.928 482.72 111.41 482.65 112.01L482.566 112.554C482.566 112.623 482.538 112.686 482.482 112.742C482.427 112.784 482.364 112.805 482.294 112.805H480.411C480.341 112.805 480.285 112.784 480.243 112.742C480.202 112.686 480.188 112.623 480.202 112.554L480.306 111.654C480.488 110.524 481.039 109.624 481.959 108.955C482.88 108.271 483.975 107.929 485.245 107.929C486.068 107.929 486.779 108.083 487.379 108.39C487.993 108.682 488.46 109.094 488.781 109.624C489.102 110.14 489.262 110.726 489.262 111.382C489.262 112.721 488.502 114.221 486.981 115.881C486.172 116.801 484.917 118.085 483.215 119.731C483.215 119.731 482.95 119.996 482.42 120.526ZM503.285 108.264C503.355 108.152 503.453 108.097 503.578 108.097H505.462C505.531 108.097 505.587 108.124 505.629 108.18C505.671 108.222 505.685 108.278 505.671 108.348L503.934 122.493C503.92 122.563 503.885 122.626 503.829 122.681C503.788 122.723 503.732 122.744 503.662 122.744H501.779C501.709 122.744 501.653 122.723 501.611 122.681C501.57 122.626 501.556 122.563 501.57 122.493L502.804 112.512C502.804 112.47 502.79 112.442 502.762 112.428C502.734 112.414 502.706 112.428 502.679 112.47L499.644 116.488C499.575 116.599 499.477 116.655 499.351 116.655H498.41C498.284 116.655 498.201 116.599 498.159 116.488L496.087 112.491C496.073 112.449 496.045 112.435 496.003 112.449C495.975 112.463 495.962 112.491 495.962 112.533L494.727 122.493C494.727 122.563 494.699 122.626 494.643 122.681C494.587 122.723 494.525 122.744 494.455 122.744H492.593C492.523 122.744 492.467 122.723 492.425 122.681C492.383 122.626 492.369 122.563 492.383 122.493L494.12 108.348C494.134 108.278 494.162 108.222 494.204 108.18C494.26 108.124 494.322 108.097 494.392 108.097H496.254C496.394 108.097 496.485 108.152 496.527 108.264L499.205 113.433C499.219 113.46 499.24 113.474 499.268 113.474C499.296 113.474 499.317 113.46 499.331 113.433L503.285 108.264Z" fill="black"/>
</mask>
<g mask="url(#mask0)">
<rect x="-25.3906" y="-9.35449" width="620.066" height="295.333" fill="url(#paint0_linear)"/>
</g>
<defs>
<linearGradient id="paint0_linear" x1="284.657" y1="282.342" x2="284.657" y2="-6.40963" gradientUnits="userSpaceOnUse">
<stop stop-color="#F15E30"/>
<stop offset="0.26" stop-color="#F26231"/>
<stop offset="0.53" stop-color="#F36F35"/>
<stop offset="0.81" stop-color="#F6843C"/>
<stop offset="1" stop-color="#F89742"/>
</linearGradient>
</defs>
</svg>
