<svg width="16" height="205" fill="none" xmlns="http://www.w3.org/2000/svg"><path d="M8.7.35a1 1 0 00-1.4 0L.92 6.72a1 1 0 001.41 1.41L8 2.48l5.66 5.65a1 1 0 101.41-1.41L8.71.35zM7.3 203.77a1 1 0 001.4 0l6.37-6.37a1 1 0 10-1.41-1.4L8 201.64l-5.66-5.66a1 1 0 10-1.41 1.41l6.36 6.37zM7 1.07v2.52h2V1.06H7zm0 7.57v5.05h2V8.64H7zm0 10.1v5.05h2v-5.05H7zm0 10.1v5.05h2v-5.05H7zm0 10.1v5.05h2v-5.05H7zm0 10.1v5.05h2v-5.05H7zm0 10.1v5.05h2v-5.05H7zm0 10.1v5.05h2v-5.05H7zm0 10.1v5.05h2v-5.05H7zm0 10.1v5.05h2v-5.05H7zm0 10.1v5.05h2v-5.05H7zm0 10.1v5.05h2v-5.05H7zm0 10.1v5.05h2v-5.05H7zm0 10.1v5.05h2v-5.05H7zm0 10.1v5.05h2v-5.05H7zm0 10.1v5.05h2v-5.05H7zm0 10.1v5.05h2v-5.05H7zm0 10.1v5.05h2v-5.05H7zm0 10.1v5.05h2v-5.05H7zm0 10.1v5.05h2v-5.05H7zm0 10.1v2.52h2v-2.52H7z" fill="#FF5D29" mask="url(#)"/></svg>