<svg width="180" height="80" viewBox="0 0 180 80" fill="none" xmlns="http://www.w3.org/2000/svg">
<mask id="mask0" mask-type="alpha" maskUnits="userSpaceOnUse" x="0" y="5" width="180" height="74">
<path d="M11.6818 5.65045C11.6818 5.56155 11.7174 5.49043 11.7885 5.43708C11.8596 5.36596 11.9397 5.3304 12.0286 5.3304H15.6825C15.878 5.3304 15.9758 5.43708 15.9758 5.65045L13.7622 23.6799C13.7444 23.7689 13.6999 23.8489 13.6288 23.92C13.5577 23.9733 13.4777 24 13.3888 24H9.57484C9.39703 24 9.28146 23.92 9.22812 23.76L6.18764 13.8917C6.15208 13.8384 6.11652 13.8206 6.08096 13.8384C6.04539 13.8384 6.02761 13.874 6.02761 13.9451L4.88077 23.6799C4.86299 23.7689 4.81853 23.8489 4.74741 23.92C4.69407 23.9733 4.62295 24 4.53405 24H0.880138C0.791235 24 0.720113 23.9733 0.666771 23.92C0.61343 23.8489 0.595649 23.7689 0.61343 23.6799L2.82711 5.65045C2.84489 5.56155 2.88045 5.49043 2.93379 5.43708C3.00492 5.36596 3.08493 5.3304 3.17383 5.3304H6.98776C7.14779 5.3304 7.25447 5.41041 7.30781 5.57044L10.3483 15.3853C10.3661 15.4387 10.3927 15.4653 10.4283 15.4653C10.4639 15.4653 10.4905 15.4298 10.5083 15.3586L11.6818 5.65045ZM33.1317 8.79761C33.1139 8.88652 33.0694 8.96653 32.9983 9.03765C32.945 9.09099 32.8738 9.11766 32.7849 9.11766H26.1172C26.0461 9.11766 25.9928 9.16211 25.9572 9.25102L25.5571 12.5849C25.5571 12.6738 25.5927 12.7182 25.6638 12.7182H29.6911C29.8867 12.7182 29.9845 12.8249 29.9845 13.0383L29.5844 16.1854C29.5667 16.2743 29.5222 16.3544 29.4511 16.4255C29.3977 16.4788 29.3266 16.5055 29.2377 16.5055H25.2104C25.1393 16.5055 25.086 16.5499 25.0504 16.6388L24.6237 20.0794C24.6237 20.1683 24.6681 20.2127 24.757 20.2127H31.4247C31.5136 20.2127 31.5848 20.2483 31.6381 20.3194C31.6914 20.3728 31.7092 20.4439 31.6914 20.5328L31.318 23.6799C31.3003 23.7689 31.2558 23.8489 31.1847 23.92C31.1136 23.9733 31.0336 24 30.9447 24H20.1696C20.0807 24 20.0096 23.9733 19.9563 23.92C19.9029 23.8489 19.8851 23.7689 19.9029 23.6799L22.1166 5.65045C22.1344 5.56155 22.1699 5.49043 22.2233 5.43708C22.2944 5.36596 22.3744 5.3304 22.4633 5.3304H33.2383C33.4339 5.3304 33.5317 5.43708 33.5317 5.65045L33.1317 8.79761ZM41.0294 24C40.8338 24 40.7271 23.9111 40.7093 23.7333L38.7357 5.67712C38.7357 5.44597 38.8512 5.3304 39.0824 5.3304H42.923C43.1186 5.3304 43.2164 5.42819 43.2164 5.62378L43.8031 14.8786C43.8031 14.9319 43.8209 14.9586 43.8565 14.9586C43.9098 14.9586 43.9454 14.9319 43.9632 14.8786L46.6836 5.62378C46.7369 5.42819 46.8614 5.3304 47.057 5.3304H50.3908C50.5864 5.3304 50.6842 5.42819 50.6842 5.62378L51.2976 14.8786C51.3154 14.9319 51.3421 14.9586 51.3777 14.9586C51.4132 14.9586 51.4399 14.9319 51.4577 14.8786L54.1514 5.62378C54.2048 5.42819 54.3292 5.3304 54.5248 5.3304H58.2587C58.4899 5.3304 58.5699 5.44597 58.4988 5.67712L52.4445 23.7066C52.3911 23.9022 52.2667 24 52.0711 24H48.5772C48.3816 24 48.2838 23.9022 48.2838 23.7066L47.6971 13.9718C47.6793 13.9184 47.6526 13.8917 47.6171 13.8917C47.5815 13.8917 47.5548 13.9184 47.5371 13.9718L44.79 23.7066C44.7366 23.9022 44.6121 24 44.4166 24H41.0294ZM82.1721 5.65045C82.1721 5.56155 82.2076 5.49043 82.2788 5.43708C82.3499 5.36596 82.4299 5.3304 82.5188 5.3304H86.1727C86.3683 5.3304 86.4661 5.43708 86.4661 5.65045L84.2524 23.6799C84.2346 23.7689 84.1902 23.8489 84.119 23.92C84.0479 23.9733 83.9679 24 83.879 24H80.0651C79.8873 24 79.7717 23.92 79.7184 23.76L76.6779 13.8917C76.6423 13.8384 76.6068 13.8206 76.5712 13.8384C76.5356 13.8384 76.5178 13.874 76.5178 13.9451L75.371 23.6799C75.3532 23.7689 75.3088 23.8489 75.2376 23.92C75.1843 23.9733 75.1132 24 75.0243 24H71.3704C71.2815 24 71.2103 23.9733 71.157 23.92C71.1037 23.8489 71.0859 23.7689 71.1037 23.6799L73.3173 5.65045C73.3351 5.56155 73.3707 5.49043 73.424 5.43708C73.4952 5.36596 73.5752 5.3304 73.6641 5.3304H77.478C77.638 5.3304 77.7447 5.41041 77.798 5.57044L80.8385 15.3853C80.8563 15.4387 80.883 15.4653 80.9185 15.4653C80.9541 15.4653 80.9808 15.4298 80.9986 15.3586L82.1721 5.65045ZM96.3668 24.2667C94.6599 24.2667 93.2997 23.7866 92.2862 22.8265C91.2904 21.8663 90.7926 20.5861 90.7926 18.9859C90.7926 18.7725 90.8104 18.4525 90.8459 18.0257L91.6727 11.3047C91.815 10.0778 92.2061 9.00209 92.8462 8.0775C93.4863 7.13513 94.3131 6.40613 95.3266 5.89049C96.3401 5.37485 97.4692 5.11703 98.7138 5.11703C100.439 5.11703 101.799 5.59711 102.794 6.55726C103.808 7.49963 104.315 8.77094 104.315 10.3712C104.315 10.5668 104.297 10.8779 104.261 11.3047L103.435 18.0257C103.275 19.2704 102.874 20.3639 102.234 21.3062C101.594 22.2486 100.767 22.9776 99.754 23.4933C98.7405 24.0089 97.6114 24.2667 96.3668 24.2667ZM96.8469 20.4528C97.4336 20.4528 97.9404 20.2483 98.3671 19.8393C98.7938 19.4126 99.0428 18.8614 99.1139 18.1858L99.9674 11.198C99.9851 11.1091 99.994 10.9846 99.994 10.8246C99.994 10.2556 99.834 9.79332 99.514 9.43771C99.2117 9.0821 98.7938 8.9043 98.2604 8.9043C97.6559 8.9043 97.1491 9.11766 96.7402 9.5444C96.3312 9.95335 96.0823 10.5045 95.9934 11.198L95.1133 18.1858C95.0955 18.2747 95.0866 18.408 95.0866 18.5858C95.0866 19.1548 95.2466 19.6082 95.5667 19.946C95.8867 20.2839 96.3135 20.4528 96.8469 20.4528ZM116.962 24C116.784 24 116.678 23.9111 116.642 23.7333L115.095 16.6655C115.06 16.5944 115.015 16.5588 114.962 16.5588H113.922C113.886 16.5588 113.851 16.5766 113.815 16.6122C113.797 16.63 113.788 16.6566 113.788 16.6922L112.935 23.6799C112.917 23.7689 112.873 23.8489 112.801 23.92C112.748 23.9733 112.677 24 112.588 24H108.908C108.819 24 108.747 23.9733 108.694 23.92C108.641 23.8489 108.623 23.7689 108.641 23.6799L110.854 5.65045C110.872 5.56155 110.908 5.49043 110.961 5.43708C111.032 5.36596 111.112 5.3304 111.201 5.3304H117.816C119.274 5.3304 120.429 5.77491 121.283 6.66394C122.136 7.53519 122.563 8.70871 122.563 10.1845C122.563 10.5934 122.545 10.9046 122.51 11.118C122.385 12.2204 122.038 13.1983 121.469 14.0518C120.901 14.8875 120.172 15.5187 119.282 15.9454C119.229 15.9632 119.202 16.0165 119.202 16.1054L121.123 23.6266V23.7066C121.123 23.9022 121.016 24 120.803 24H116.962ZM114.855 9.11766C114.784 9.11766 114.731 9.16211 114.695 9.25102L114.242 13.0383C114.206 13.1272 114.242 13.1716 114.348 13.1716H116.162C116.784 13.1716 117.291 12.9583 117.682 12.5315C118.073 12.1048 118.269 11.5269 118.269 10.7979C118.269 10.2823 118.118 9.87334 117.816 9.57107C117.531 9.2688 117.149 9.11766 116.669 9.11766H114.855ZM139.052 5.54377C139.123 5.40152 139.248 5.3304 139.426 5.3304H143.08C143.168 5.3304 143.24 5.36596 143.293 5.43708C143.346 5.49043 143.364 5.56155 143.346 5.65045L141.133 23.6799C141.115 23.7689 141.07 23.8489 140.999 23.92C140.946 23.9733 140.875 24 140.786 24H137.105C137.016 24 136.945 23.9733 136.892 23.92C136.839 23.8489 136.821 23.7689 136.839 23.6799L138.199 12.6115C138.217 12.5404 138.208 12.5049 138.172 12.5049C138.137 12.4871 138.101 12.5049 138.065 12.5582L135.612 16.0254C135.523 16.1677 135.389 16.2388 135.212 16.2388H134.492C134.332 16.2388 134.225 16.1677 134.171 16.0254L132.571 12.5582C132.536 12.5049 132.5 12.4871 132.465 12.5049C132.429 12.5049 132.411 12.5404 132.411 12.6115L131.051 23.6799C131.033 23.7689 130.989 23.8489 130.918 23.92C130.864 23.9733 130.793 24 130.704 24H127.024C126.935 24 126.864 23.9733 126.81 23.92C126.757 23.8489 126.739 23.7689 126.757 23.6799L128.971 5.65045C128.988 5.56155 129.024 5.49043 129.077 5.43708C129.148 5.36596 129.228 5.3304 129.317 5.3304H132.971C133.131 5.3304 133.238 5.40152 133.291 5.54377L135.505 10.3979C135.541 10.5045 135.594 10.5045 135.665 10.3979L139.052 5.54377ZM165.906 24C165.817 24 165.746 23.9733 165.693 23.92C165.639 23.8489 165.622 23.7689 165.639 23.6799L167.853 5.65045C167.871 5.56155 167.906 5.49043 167.96 5.43708C168.031 5.36596 168.111 5.3304 168.2 5.3304H171.88C171.969 5.3304 172.04 5.36596 172.094 5.43708C172.147 5.49043 172.165 5.56155 172.147 5.65045L170.36 20.0794C170.36 20.1683 170.405 20.2127 170.493 20.2127H177.268C177.357 20.2127 177.428 20.2483 177.481 20.3194C177.535 20.3728 177.552 20.4439 177.535 20.5328L177.134 23.6799C177.134 23.7689 177.099 23.8489 177.028 23.92C176.957 23.9733 176.877 24 176.788 24H165.906ZM12.882 32.5971C12.9176 32.4193 13.0154 32.3304 13.1754 32.3304H14.5089C14.6868 32.3304 14.7579 32.4193 14.7223 32.5971L12.5086 50.7333C12.4731 50.9111 12.3753 51 12.2153 51H10.8017C10.6417 51 10.5528 50.9378 10.535 50.8133L5.33417 36.5444C5.31639 36.5088 5.28972 36.4911 5.25416 36.4911C5.23638 36.4911 5.2186 36.5177 5.20082 36.5711L3.49388 50.7333C3.45832 50.9111 3.36053 51 3.2005 51H1.89363C1.73361 51 1.65359 50.9111 1.65359 50.7333L3.89395 32.5971C3.92951 32.4193 4.0273 32.3304 4.18732 32.3304H5.57421C5.75201 32.3304 5.84981 32.3926 5.86759 32.5171L11.0417 46.8393C11.0951 46.9282 11.1395 46.9194 11.1751 46.8127L12.882 32.5971ZM32.6597 33.7173C32.6242 33.8951 32.5264 33.984 32.3663 33.984H24.6051C24.534 33.984 24.4984 34.0196 24.4984 34.0907L23.6716 40.705C23.6716 40.7762 23.7072 40.8117 23.7783 40.8117H29.0058C29.1836 40.8117 29.2547 40.9006 29.2192 41.0784L29.0858 42.1986C29.0503 42.3764 28.9525 42.4653 28.7924 42.4653H23.5649C23.4938 42.4653 23.4583 42.5009 23.4583 42.572L22.6315 49.2397C22.6315 49.2753 22.6404 49.302 22.6581 49.3197C22.6759 49.3375 22.6937 49.3464 22.7115 49.3464H30.4727C30.5616 49.3464 30.6238 49.3731 30.6594 49.4264C30.7127 49.4798 30.7305 49.542 30.7127 49.6131L30.5794 50.7333C30.5438 50.9111 30.446 51 30.286 51H20.8445C20.6845 51 20.6045 50.9111 20.6045 50.7333L22.8448 32.5971C22.8804 32.4193 22.9782 32.3304 23.1382 32.3304H32.5797C32.7575 32.3304 32.8286 32.4193 32.7931 32.5971L32.6597 33.7173ZM41.2154 51C41.1443 51 41.0821 50.9822 41.0287 50.9467C40.9754 50.8933 40.9487 50.8311 40.9487 50.76L39.0017 32.6238V32.5704C39.0017 32.4993 39.0195 32.446 39.0551 32.4104C39.1084 32.3571 39.1707 32.3304 39.2418 32.3304H40.6553C40.8154 32.3304 40.8954 32.4104 40.8954 32.5704L42.3089 46.8927C42.3089 46.946 42.3267 46.9727 42.3623 46.9727C42.3978 46.9727 42.4245 46.946 42.4423 46.8927L47.0563 32.5704C47.1097 32.4104 47.2164 32.3304 47.3764 32.3304H48.6833C48.8433 32.3304 48.9233 32.4104 48.9233 32.5704L50.1502 46.8927C50.1502 46.946 50.1591 46.9727 50.1768 46.9727C50.2124 46.9727 50.2391 46.946 50.2568 46.8927L55.0843 32.5704C55.1376 32.4104 55.2443 32.3304 55.4043 32.3304H56.7379C56.8979 32.3304 56.9601 32.4282 56.9246 32.6238L50.6569 50.76C50.5858 50.92 50.4791 51 50.3369 51H49.03C48.8522 51 48.7633 50.92 48.7633 50.76L47.5898 36.2243C47.5898 36.171 47.5809 36.1443 47.5631 36.1443C47.5453 36.1443 47.5186 36.171 47.4831 36.2243L42.789 50.76C42.7357 50.92 42.629 51 42.469 51H41.2154ZM73.8039 51C73.7328 51 73.6705 50.9822 73.6172 50.9467C73.5638 50.8933 73.5372 50.8311 73.5372 50.76L71.5902 32.6238V32.5704C71.5902 32.4993 71.608 32.446 71.6435 32.4104C71.6969 32.3571 71.7591 32.3304 71.8302 32.3304H73.2438C73.4038 32.3304 73.4838 32.4104 73.4838 32.5704L74.8974 46.8927C74.8974 46.946 74.9152 46.9727 74.9507 46.9727C74.9863 46.9727 75.013 46.946 75.0307 46.8927L79.6448 32.5704C79.6981 32.4104 79.8048 32.3304 79.9648 32.3304H81.2717C81.4317 32.3304 81.5118 32.4104 81.5118 32.5704L82.7386 46.8927C82.7386 46.946 82.7475 46.9727 82.7653 46.9727C82.8008 46.9727 82.8275 46.946 82.8453 46.8927L87.6727 32.5704C87.7261 32.4104 87.8328 32.3304 87.9928 32.3304H89.3263C89.4863 32.3304 89.5486 32.4282 89.513 32.6238L83.2454 50.76C83.1742 50.92 83.0676 51 82.9253 51H81.6184C81.4406 51 81.3517 50.92 81.3517 50.76L80.1782 36.2243C80.1782 36.171 80.1693 36.1443 80.1515 36.1443C80.1338 36.1443 80.1071 36.171 80.0715 36.2243L75.3775 50.76C75.3241 50.92 75.2174 51 75.0574 51H73.8039ZM106.041 33.7173C106.005 33.8951 105.908 33.984 105.748 33.984H97.9864C97.9153 33.984 97.8797 34.0196 97.8797 34.0907L97.0529 40.705C97.0529 40.7762 97.0885 40.8117 97.1596 40.8117H102.387C102.565 40.8117 102.636 40.9006 102.6 41.0784L102.467 42.1986C102.432 42.3764 102.334 42.4653 102.174 42.4653H96.9463C96.8751 42.4653 96.8396 42.5009 96.8396 42.572L96.0128 49.2397C96.0128 49.2753 96.0217 49.302 96.0395 49.3197C96.0572 49.3375 96.075 49.3464 96.0928 49.3464H103.854C103.943 49.3464 104.005 49.3731 104.041 49.4264C104.094 49.4798 104.112 49.542 104.094 49.6131L103.961 50.7333C103.925 50.9111 103.827 51 103.667 51H94.2258C94.0658 51 93.9858 50.9111 93.9858 50.7333L96.2262 32.5971C96.2617 32.4193 96.3595 32.3304 96.5195 32.3304H105.961C106.139 32.3304 106.21 32.4193 106.174 32.5971L106.041 33.7173ZM120.389 41.2651C120.3 41.2829 120.291 41.3274 120.362 41.3985C121.731 42.1275 122.416 43.3544 122.416 45.0791C122.416 45.2569 122.398 45.5414 122.362 45.9325C122.167 47.5328 121.553 48.7774 120.522 49.6665C119.491 50.5555 118.219 51 116.708 51H111.614C111.454 51 111.374 50.9111 111.374 50.7333L113.614 32.5971C113.65 32.4193 113.748 32.3304 113.908 32.3304H118.788C120.211 32.3304 121.322 32.686 122.122 33.3972C122.922 34.0907 123.322 35.0864 123.322 36.3844C123.322 36.5444 123.305 36.82 123.269 37.2112C123.145 38.1891 122.834 39.0248 122.336 39.7182C121.856 40.3939 121.207 40.9095 120.389 41.2651ZM115.375 33.984C115.303 33.984 115.268 34.0196 115.268 34.0907L114.468 40.5184C114.468 40.5895 114.503 40.625 114.574 40.625H117.802C118.904 40.625 119.793 40.2783 120.469 39.5849C121.144 38.8737 121.482 37.9313 121.482 36.7578C121.482 35.8865 121.224 35.2109 120.709 34.7308C120.211 34.2329 119.509 33.984 118.602 33.984H115.375ZM116.868 49.3197C117.971 49.3197 118.868 48.9375 119.562 48.1729C120.255 47.3905 120.602 46.3504 120.602 45.0524C120.602 44.1456 120.344 43.4344 119.829 42.9187C119.313 42.4031 118.602 42.1453 117.695 42.1453H114.388C114.352 42.1453 114.317 42.1542 114.281 42.1719C114.263 42.1897 114.254 42.2164 114.254 42.252L113.401 49.2131C113.401 49.2842 113.436 49.3197 113.508 49.3197H116.868ZM11.6818 59.6505C11.6818 59.5615 11.7174 59.4904 11.7885 59.4371C11.8596 59.366 11.9397 59.3304 12.0286 59.3304H15.6825C15.878 59.3304 15.9758 59.4371 15.9758 59.6505L13.7622 77.6799C13.7444 77.7689 13.6999 77.8489 13.6288 77.92C13.5577 77.9733 13.4777 78 13.3888 78H9.57484C9.39703 78 9.28146 77.92 9.22812 77.76L6.18764 67.8917C6.15208 67.8384 6.11652 67.8206 6.08096 67.8384C6.04539 67.8384 6.02761 67.874 6.02761 67.9451L4.88077 77.6799C4.86299 77.7689 4.81853 77.8489 4.74741 77.92C4.69407 77.9733 4.62295 78 4.53405 78H0.880138C0.791235 78 0.720113 77.9733 0.666771 77.92C0.61343 77.8489 0.595649 77.7689 0.61343 77.6799L2.82711 59.6505C2.84489 59.5615 2.88045 59.4904 2.93379 59.4371C3.00492 59.366 3.08493 59.3304 3.17383 59.3304H6.98776C7.14779 59.3304 7.25447 59.4104 7.30781 59.5704L10.3483 69.3853C10.3661 69.4387 10.3927 69.4653 10.4283 69.4653C10.4639 69.4653 10.4905 69.4298 10.5083 69.3586L11.6818 59.6505ZM33.1317 62.7976C33.1139 62.8865 33.0694 62.9665 32.9983 63.0376C32.945 63.091 32.8738 63.1177 32.7849 63.1177H26.1172C26.0461 63.1177 25.9928 63.1621 25.9572 63.251L25.5571 66.5849C25.5571 66.6738 25.5927 66.7182 25.6638 66.7182H29.6911C29.8867 66.7182 29.9845 66.8249 29.9845 67.0383L29.5844 70.1854C29.5667 70.2743 29.5222 70.3544 29.4511 70.4255C29.3977 70.4788 29.3266 70.5055 29.2377 70.5055H25.2104C25.1393 70.5055 25.086 70.5499 25.0504 70.6388L24.6237 74.0794C24.6237 74.1683 24.6681 74.2127 24.757 74.2127H31.4247C31.5136 74.2127 31.5848 74.2483 31.6381 74.3194C31.6914 74.3728 31.7092 74.4439 31.6914 74.5328L31.318 77.6799C31.3003 77.7689 31.2558 77.8489 31.1847 77.92C31.1136 77.9733 31.0336 78 30.9447 78H20.1696C20.0807 78 20.0096 77.9733 19.9563 77.92C19.9029 77.8489 19.8851 77.7689 19.9029 77.6799L22.1166 59.6505C22.1344 59.5615 22.1699 59.4904 22.2233 59.4371C22.2944 59.366 22.3744 59.3304 22.4633 59.3304H33.2383C33.4339 59.3304 33.5317 59.4371 33.5317 59.6505L33.1317 62.7976ZM41.0294 78C40.8338 78 40.7271 77.9111 40.7093 77.7333L38.7357 59.6771C38.7357 59.446 38.8512 59.3304 39.0824 59.3304H42.923C43.1186 59.3304 43.2164 59.4282 43.2164 59.6238L43.8031 68.8786C43.8031 68.9319 43.8209 68.9586 43.8565 68.9586C43.9098 68.9586 43.9454 68.9319 43.9632 68.8786L46.6836 59.6238C46.7369 59.4282 46.8614 59.3304 47.057 59.3304H50.3908C50.5864 59.3304 50.6842 59.4282 50.6842 59.6238L51.2976 68.8786C51.3154 68.9319 51.3421 68.9586 51.3777 68.9586C51.4132 68.9586 51.4399 68.9319 51.4577 68.8786L54.1514 59.6238C54.2048 59.4282 54.3292 59.3304 54.5248 59.3304H58.2587C58.4899 59.3304 58.5699 59.446 58.4988 59.6771L52.4445 77.7066C52.3911 77.9022 52.2667 78 52.0711 78H48.5772C48.3816 78 48.2838 77.9022 48.2838 77.7066L47.6971 67.9718C47.6793 67.9184 47.6526 67.8917 47.6171 67.8917C47.5815 67.8917 47.5548 67.9184 47.5371 67.9718L44.79 77.7066C44.7366 77.9022 44.6121 78 44.4166 78H41.0294ZM75.0243 78C74.8287 78 74.722 77.9111 74.7042 77.7333L72.7306 59.6771C72.7306 59.446 72.8462 59.3304 73.0773 59.3304H76.9179C77.1135 59.3304 77.2113 59.4282 77.2113 59.6238L77.798 68.8786C77.798 68.9319 77.8158 68.9586 77.8514 68.9586C77.9047 68.9586 77.9403 68.9319 77.9581 68.8786L80.6785 59.6238C80.7318 59.4282 80.8563 59.3304 81.0519 59.3304H84.3858C84.5813 59.3304 84.6791 59.4282 84.6791 59.6238L85.2926 68.8786C85.3103 68.9319 85.337 68.9586 85.3726 68.9586C85.4081 68.9586 85.4348 68.9319 85.4526 68.8786L88.1463 59.6238C88.1997 59.4282 88.3241 59.3304 88.5197 59.3304H92.2537C92.4848 59.3304 92.5648 59.446 92.4937 59.6771L86.4394 77.7066C86.3861 77.9022 86.2616 78 86.066 78H82.5721C82.3765 78 82.2788 77.9022 82.2788 77.7066L81.692 67.9718C81.6742 67.9184 81.6475 67.8917 81.612 67.8917C81.5764 67.8917 81.5497 67.9184 81.532 67.9718L78.7849 77.7066C78.7315 77.9022 78.6071 78 78.4115 78H75.0243ZM105.241 78.2667C103.534 78.2667 102.174 77.7866 101.16 76.8265C100.165 75.8663 99.6669 74.5861 99.6669 72.9859C99.6669 72.7725 99.6847 72.4525 99.7202 72.0257L100.547 65.3047C100.689 64.0778 101.08 63.0021 101.721 62.0775C102.361 61.1351 103.187 60.4061 104.201 59.8905C105.214 59.3749 106.344 59.117 107.588 59.117C109.313 59.117 110.673 59.5971 111.669 60.5573C112.682 61.4996 113.189 62.7709 113.189 64.3712C113.189 64.5668 113.171 64.8779 113.136 65.3047L112.309 72.0257C112.149 73.2704 111.749 74.3639 111.109 75.3062C110.469 76.2486 109.642 76.9776 108.628 77.4933C107.615 78.0089 106.486 78.2667 105.241 78.2667ZM105.721 74.4528C106.308 74.4528 106.815 74.2483 107.241 73.8393C107.668 73.4126 107.917 72.8614 107.988 72.1858L108.842 65.198C108.859 65.1091 108.868 64.9846 108.868 64.8246C108.868 64.2556 108.708 63.7933 108.388 63.4377C108.086 63.0821 107.668 62.9043 107.135 62.9043C106.53 62.9043 106.023 63.1177 105.614 63.5444C105.206 63.9533 104.957 64.5045 104.868 65.198L103.988 72.1858C103.97 72.2747 103.961 72.408 103.961 72.5858C103.961 73.1548 104.121 73.6082 104.441 73.946C104.761 74.2839 105.188 74.4528 105.721 74.4528ZM129.97 78C129.793 78 129.686 77.9111 129.65 77.7333L128.103 70.6655C128.068 70.5944 128.023 70.5588 127.97 70.5588H126.93C126.894 70.5588 126.859 70.5766 126.823 70.6122C126.805 70.63 126.797 70.6566 126.797 70.6922L125.943 77.6799C125.925 77.7689 125.881 77.8489 125.81 77.92C125.756 77.9733 125.685 78 125.596 78H121.916C121.827 78 121.756 77.9733 121.702 77.92C121.649 77.8489 121.631 77.7689 121.649 77.6799L123.863 59.6505C123.881 59.5615 123.916 59.4904 123.969 59.4371C124.041 59.366 124.121 59.3304 124.21 59.3304H130.824C132.282 59.3304 133.438 59.7749 134.291 60.6639C135.145 61.5352 135.571 62.7087 135.571 64.1845C135.571 64.5934 135.554 64.9046 135.518 65.118C135.393 66.2204 135.047 67.1983 134.478 68.0518C133.909 68.8875 133.18 69.5187 132.291 69.9454C132.237 69.9632 132.211 70.0165 132.211 70.1054L134.131 77.6266V77.7066C134.131 77.9022 134.024 78 133.811 78H129.97ZM127.863 63.1177C127.792 63.1177 127.739 63.1621 127.703 63.251L127.25 67.0383C127.214 67.1272 127.25 67.1716 127.357 67.1716H129.17C129.793 67.1716 130.299 66.9583 130.691 66.5315C131.082 66.1048 131.277 65.5269 131.277 64.7979C131.277 64.2823 131.126 63.8733 130.824 63.5711C130.539 63.2688 130.157 63.1177 129.677 63.1177H127.863ZM144.219 78C144.13 78 144.059 77.9733 144.006 77.92C143.953 77.8489 143.935 77.7689 143.953 77.6799L146.166 59.6505C146.184 59.5615 146.22 59.4904 146.273 59.4371C146.344 59.366 146.424 59.3304 146.513 59.3304H150.194C150.282 59.3304 150.354 59.366 150.407 59.4371C150.46 59.4904 150.478 59.5615 150.46 59.6505L148.673 74.0794C148.673 74.1683 148.718 74.2127 148.807 74.2127H155.581C155.67 74.2127 155.741 74.2483 155.794 74.3194C155.848 74.3728 155.866 74.4439 155.848 74.5328L155.448 77.6799C155.448 77.7689 155.412 77.8489 155.341 77.92C155.27 77.9733 155.19 78 155.101 78H144.219ZM165.429 78C165.34 78 165.269 77.9733 165.216 77.92C165.162 77.8489 165.144 77.7689 165.162 77.6799L167.376 59.6505C167.394 59.5615 167.429 59.4904 167.483 59.4371C167.554 59.366 167.634 59.3304 167.723 59.3304H173.483C175.19 59.3304 176.542 59.766 177.537 60.6373C178.533 61.4907 179.031 62.6465 179.031 64.1045C179.031 64.2645 179.013 64.5223 178.978 64.8779L178.044 72.4525C177.902 73.5549 177.52 74.5239 176.897 75.3596C176.293 76.1953 175.493 76.8443 174.497 77.3066C173.519 77.7689 172.417 78 171.19 78H165.429ZM169.883 74.0794C169.883 74.1683 169.927 74.2127 170.016 74.2127L171.723 74.1861C172.239 74.1861 172.683 73.9816 173.057 73.5726C173.448 73.1637 173.697 72.6125 173.804 71.919L174.604 65.3847C174.621 65.2958 174.63 65.1535 174.63 64.958C174.63 64.389 174.488 63.9445 174.204 63.6244C173.937 63.2866 173.555 63.1177 173.057 63.1177H171.376C171.305 63.1177 171.252 63.1621 171.216 63.251L169.883 74.0794Z" fill="black"/>
<path d="M147.618 16.429L158.253 5.76559C158.642 5.45534 159.228 5.75145 159.228 6.21546V20.7882C159.228 21.1143 158.964 21.379 158.639 21.379C158.486 21.379 158.339 21.3198 158.255 21.2348L155.309 18.6597L152.906 24.2911C152.865 24.3871 152.788 24.4629 152.691 24.5022C152.644 24.5203 152.595 24.5298 152.545 24.5298C152.493 24.5298 152.44 24.5187 152.391 24.4975L149.862 23.4104C149.663 23.3254 149.57 23.0938 149.655 22.8937L151.981 17.4404H148.038C147.713 17.4404 147.449 17.1757 147.449 16.8496C147.449 16.7542 147.473 16.6109 147.618 16.429Z" fill="black"/>
<mask mask-type="luminance" maskUnits="userSpaceOnUse" x="0" y="0" width="0" height="0" fill="black">
<rect fill="white" width="0" height="0"/>
</mask>
<path d="M127.595 43.8962C127.468 44.0232 127.468 44.2291 127.595 44.3562L129.665 46.4261C129.792 46.5531 129.998 46.5531 130.125 46.4261C130.252 46.299 130.252 46.0931 130.125 45.9661L128.285 44.1262L130.125 42.2862C130.252 42.1592 130.252 41.9533 130.125 41.8263C129.998 41.6992 129.792 41.6992 129.665 41.8263L127.595 43.8962ZM178.361 44.3561C178.488 44.2291 178.488 44.0232 178.361 43.8962L176.291 41.8263C176.164 41.6992 175.958 41.6992 175.831 41.8263C175.704 41.9533 175.704 42.1592 175.831 42.2862L177.671 44.1262L175.831 45.9661C175.704 46.0931 175.704 46.299 175.831 46.4261C175.958 46.5531 176.164 46.5531 176.291 46.4261L178.361 44.3561ZM127.825 44.4514L178.131 44.4514L178.131 43.8009L127.825 43.8009L127.825 44.4514Z" fill="black" mask="url(#)"/>
<path d="M149.971 37.3182C149.962 37.3268 149.958 37.3355 149.958 37.3442C149.962 37.3529 149.971 37.3572 149.984 37.3572H151.779C151.801 37.3572 151.818 37.3659 151.831 37.3832C151.845 37.3962 151.849 37.4136 151.845 37.4353L151.786 37.9297C151.782 37.9513 151.771 37.9709 151.753 37.9882C151.74 38.0012 151.723 38.0077 151.701 38.0077H148.989C148.967 38.0077 148.95 38.0012 148.937 37.9882C148.924 37.9709 148.919 37.9513 148.924 37.9297L148.976 37.4613C148.98 37.4266 148.997 37.3941 149.028 37.3637C149.288 37.1165 149.709 36.6872 150.29 36.0757L150.641 35.7114C151.083 35.2474 151.32 34.8961 151.35 34.6576C151.372 34.4798 151.328 34.3345 151.22 34.2218C151.112 34.109 150.96 34.0526 150.765 34.0526C150.57 34.0526 150.405 34.109 150.27 34.2218C150.14 34.3345 150.064 34.4841 150.043 34.6706L150.017 34.8397C150.017 34.8614 150.008 34.8809 149.991 34.8983C149.973 34.9113 149.954 34.9178 149.932 34.9178H149.347C149.325 34.9178 149.308 34.9113 149.295 34.8983C149.282 34.8809 149.277 34.8614 149.282 34.8397L149.314 34.56C149.37 34.2087 149.542 33.929 149.828 33.7209C150.114 33.5084 150.455 33.4021 150.849 33.4021C151.105 33.4021 151.326 33.4498 151.513 33.5452C151.704 33.6363 151.849 33.7642 151.949 33.929C152.048 34.0895 152.098 34.2716 152.098 34.4755C152.098 34.8918 151.862 35.358 151.389 35.874C151.138 36.1603 150.747 36.5592 150.218 37.071C150.218 37.071 150.136 37.1534 149.971 37.3182ZM156.458 33.5062C156.479 33.4715 156.51 33.4542 156.549 33.4542H157.134C157.156 33.4542 157.173 33.4628 157.186 33.4802C157.199 33.4932 157.204 33.5105 157.199 33.5322L156.659 37.9297C156.655 37.9513 156.644 37.9709 156.627 37.9882C156.614 38.0012 156.596 38.0077 156.575 38.0077H155.989C155.968 38.0077 155.95 38.0012 155.937 37.9882C155.924 37.9709 155.92 37.9513 155.924 37.9297L156.308 34.8267C156.308 34.8137 156.304 34.805 156.295 34.8007C156.286 34.7964 156.278 34.8007 156.269 34.8137L155.326 36.0627C155.304 36.0974 155.274 36.1147 155.235 36.1147H154.942C154.903 36.1147 154.877 36.0974 154.864 36.0627L154.22 34.8202C154.216 34.8072 154.207 34.8029 154.194 34.8072C154.185 34.8115 154.181 34.8202 154.181 34.8332L153.797 37.9297C153.797 37.9513 153.788 37.9709 153.771 37.9882C153.754 38.0012 153.734 38.0077 153.712 38.0077H153.134C153.112 38.0077 153.094 38.0012 153.081 37.9882C153.068 37.9709 153.064 37.9513 153.068 37.9297L153.608 33.5322C153.613 33.5105 153.621 33.4932 153.634 33.4802C153.652 33.4628 153.671 33.4542 153.693 33.4542H154.272C154.315 33.4542 154.343 33.4715 154.356 33.5062L155.189 35.1129C155.193 35.1216 155.2 35.126 155.209 35.126C155.217 35.126 155.224 35.1216 155.228 35.1129L156.458 33.5062Z" fill="black"/>
</mask>
<g mask="url(#mask0)">
<rect x="-9.97461" y="-3.46936" width="228.545" height="96.7089" fill="url(#paint0_linear)"/>
</g>
<defs>
<linearGradient id="paint0_linear" x1="104.304" y1="92.0488" x2="104.304" y2="-2.50504" gradientUnits="userSpaceOnUse">
<stop stop-color="#F15E30"/>
<stop offset="0.26" stop-color="#F26231"/>
<stop offset="0.53" stop-color="#F36F35"/>
<stop offset="0.81" stop-color="#F6843C"/>
<stop offset="1" stop-color="#F89742"/>
</linearGradient>
</defs>
</svg>
