<svg xmlns="http://www.w3.org/2000/svg" width="528.63" height="361.21"><defs><style>.a{fill:#ff5d29}.c{fill:#f2f6fc}</style></defs><path class="a" d="M126.33.45a2.89 2.89 0 00-1.22 1.64 2.07 2.07 0 00.13 2.02 3.56 3.56 0 001.36 1.38 3.11 3.11 0 001.96.27 3.64 3.64 0 001.46-.5 4.27 4.27 0 00.76-1.28 3.31 3.31 0 00.23-1.62 3.71 3.71 0 00-.9-1.42 3.2 3.2 0 00-1.82-.9 2.58 2.58 0 00-1.96.41zm247.8 2.64a1.42 1.42 0 00-.6.45 1.48 1.48 0 00-.2.7 2 2 0 00.53 1.01c.5.55.76.6 2.77.54 2.05-.06 2.25-.12 2.6-.74a2.05 2.05 0 00.22-1.42c-.17-.74-.17-.74-2.54-.72a16.42 16.42 0 00-2.77.18zm13.97.75a2.64 2.64 0 00-.7 1.19 1.52 1.52 0 00.2.74 7.48 7.48 0 002.96.4c2.03.07 2.8 0 2.9-.25a2.73 2.73 0 00.15-.8 1.96 1.96 0 00-.61-1.08 3.67 3.67 0 00-2.4-.78c-1.73-.16-1.83-.14-2.5.58zm-35.18 1.19a5.04 5.04 0 00-1.7.56 1.36 1.36 0 00-.6 1.22 2.27 2.27 0 00.94 1.68 6.65 6.65 0 001.7 1.16 2.35 2.35 0 001.28.1 2.83 2.83 0 00.97-.61 6.77 6.77 0 00.87-1.32 4.38 4.38 0 00.46-1.62 1.77 1.77 0 00-.34-1.08 2.42 2.42 0 00-1.42-.3c-.6.02-1.57.12-2.16.2zm50.53.57a2.2 2.2 0 00-.88.79 1.35 1.35 0 00-.25.68 10.52 10.52 0 002.09.4c1.11.15 2.3.27 2.64.28.53 0 .58-.09.4-.7a2.43 2.43 0 00-1.15-1.22 4.08 4.08 0 00-1.62-.49 3.95 3.95 0 00-1.23.25zM120.72 7.4a4.92 4.92 0 01-1.06 1.69 6.44 6.44 0 00-1.07 1.41c-.11.32.02.6.44.85a1.97 1.97 0 001.39.2 3.13 3.13 0 001.42-.91 2.62 2.62 0 00.63-1.82 1.93 1.93 0 00-.6-1.63 2.45 2.45 0 00-.79-.54c-.1 0-.26.34-.36.75zm245.17-.13a3.67 3.67 0 00-.97 1.14 3 3 0 00.03 1.49 4 4 0 00.96 1.61 3.01 3.01 0 001.97.78 2.4 2.4 0 002.13-.6 2.93 2.93 0 001.05-1.6 4.83 4.83 0 000-1.61A2.35 2.35 0 00370 7.21a4.33 4.33 0 00-2.12-.54 2.92 2.92 0 00-2 .6zm22.35.37c-.01.13.27.5.64.84a2.46 2.46 0 001.47.6 2.24 2.24 0 001.15-.27l.88-.67c.5-.35.38-.38-1.22-.4a13.38 13.38 0 01-2.32-.17c-.31-.09-.58-.06-.6.07zm28.93.9c-.3.5-.24.56.82.7a4.35 4.35 0 001.19.07 2.36 2.36 0 00-.2-.7.9.9 0 00-.86-.6 1.23 1.23 0 00-.95.54zm-285.37.62a2.55 2.55 0 00-.87 1.82 2.03 2.03 0 00.63 2.1 2.8 2.8 0 002.03 1.09c1.2.17 1.3.13 2.23-.83a2.7 2.7 0 00.98-1.82 3.82 3.82 0 00-.47-1.62 3.03 3.03 0 00-1.08-1.08 5.04 5.04 0 00-1.68-.27 2.63 2.63 0 00-1.78.6zm249.12-.26a3.7 3.7 0 00-1.49 1.08 3.26 3.26 0 00-.56 1.65 3.86 3.86 0 00.4 1.6 2.47 2.47 0 001.35 1.02 5.28 5.28 0 002.03.1c.6-.1 1.26-.22 1.49-.28a1.61 1.61 0 00.74-.8 4.4 4.4 0 00.34-1.62 2.75 2.75 0 00-.68-1.75 3.27 3.27 0 00-1.28-.97l-1.02-.25a3.26 3.26 0 00-1.32.22zm-49.09.19c-.3.12-1.13.39-1.85.58a4.58 4.58 0 00-1.62.72c-.24.27-.2.53.15 1.08a2.88 2.88 0 001.62 1.06 4.95 4.95 0 001.97.15 3.61 3.61 0 001.56-1 2.58 2.58 0 00.74-1.72c0-.48-.1-.89-.2-.9l-1.02-.12a3.4 3.4 0 00-1.35.15zm70.15.67a1.5 1.5 0 00.8 1.21 4.46 4.46 0 001.85.61 3.08 3.08 0 001.75-.4 1.54 1.54 0 00.73-1.01c0-.47-.27-.57-2.02-.8a33.97 33.97 0 00-2.57-.28c-.4 0-.54.18-.54.67zm-57.24.12a2.83 2.83 0 00-1.69.85 2.88 2.88 0 00-.53 1.86 3.04 3.04 0 00.47 1.8 3.81 3.81 0 001.07.87 4.66 4.66 0 001.7.3 2.56 2.56 0 001.95-.79 2.15 2.15 0 00.88-2.15 2.3 2.3 0 00-.68-2.03 3.22 3.22 0 00-1.35-.79 6.7 6.7 0 00-1.82.08zm49.74 1.9a2.73 2.73 0 00-1.2 1.55c-.22.76-.22 1.03 0 1.08a.48.48 0 01.32.47c0 .28.3.42 1.01.45.98.04.98.05.14.13-.49.06-.88.19-.87.3a3 3 0 00.57.87 2.27 2.27 0 001.68.78c1.02.09 1.2 0 2-.95.5-.57 1-1.19 1.15-1.38a1.65 1.65 0 00.26-.87 3.9 3.9 0 00-.4-1.35 3 3 0 00-1.35-1.21 5.27 5.27 0 00-1.7-.4 3.88 3.88 0 00-1.61.53zm37.43-.1c-.4.2-.71.43-.67.51a7.49 7.49 0 001.75.47 3.61 3.61 0 001.69.13 1.34 1.34 0 00-.4-.6c-.22-.23-.31-.42-.2-.43s-.04-.12-.34-.25a2.61 2.61 0 00-.81-.22 3.89 3.89 0 00-1.02.39zm-15.8.57a2.16 2.16 0 00.76 1.23 4.58 4.58 0 001.73.64c.88.14 1.2.06 1.69-.41.33-.32.56-.73.51-.92a5.28 5.28 0 00-2.23-.8c-1.17-.24-2.23-.46-2.35-.46s-.16.32-.1.73zm-58.06.1a3.06 3.06 0 00-1.02 1.05 3.44 3.44 0 00-.47 1.35 4.52 4.52 0 00.47 1.49 2.26 2.26 0 00.95 1.08 2.37 2.37 0 01.88.53 1.43 1.43 0 001.28.26 2.3 2.3 0 001.32-.74l.43-.6c-3.39 0-3.57-.06-3.57-.54 0-.41.2-.55.8-.59.46-.02 1.4-.14 2.1-.27a2.52 2.52 0 001.42-.56 1.97 1.97 0 00-.27-1.14 3.18 3.18 0 00-1.21-1.22 4.27 4.27 0 00-1.7-.38 4.15 4.15 0 00-1.4.28zm-36.83.91a3.56 3.56 0 00-1.01 1.9c-.38 1.36-.37 1.54.06 2.28a3.04 3.04 0 001.08 1.08 5.11 5.11 0 001.7.27 2.53 2.53 0 001.9-.74 2.9 2.9 0 00.99-1.82c.14-.97.07-1.16-.73-1.89l-1.26-1.14a2.23 2.23 0 00-1.24-.34 3.15 3.15 0 00-1.49.4zm88.19.6a3.32 3.32 0 00-1.16.71c-.48.46-.61.87-.6 1.93a4.18 4.18 0 00.44 2.02 5.24 5.24 0 00.89 1.02 3.04 3.04 0 001.5.34 1.84 1.84 0 001.72-.75 6.85 6.85 0 001.01-1.89c.34-1 .34-1.23-.02-1.82a3.71 3.71 0 00-1.01-1.05 4.71 4.71 0 00-1.42-.51 4.18 4.18 0 00-1.35 0zm35.7.55a1.14 1.14 0 00-.31 1.08 1.49 1.49 0 00.62.86 9.9 9.9 0 001.76.53c1.06.24 1.36.23 1.69-.1a1.38 1.38 0 00.27-1.22 2.07 2.07 0 00-.74-1.22 3.72 3.72 0 00-1.72-.4 2.3 2.3 0 00-1.57.47zm-320.92.18a3.62 3.62 0 00-1.29 1 3.42 3.42 0 00-.43 1.65 2.34 2.34 0 00.74 1.79 3.88 3.88 0 001.7.97 2.67 2.67 0 001.82-.23 3.54 3.54 0 001.35-1.38 2.04 2.04 0 00.15-1.96 3.24 3.24 0 00-1-1.48 4.6 4.6 0 00-1.45-.6 3.27 3.27 0 00-1.59.24zm211.65 1.08a3.62 3.62 0 00-1.28 1 3.74 3.74 0 00-.44 1.79 2.36 2.36 0 00.75 1.92 3.64 3.64 0 001.82.98 2.46 2.46 0 001.97-.3A3.78 3.78 0 00340 19.6a2 2 0 00.05-2 3.85 3.85 0 00-1.05-1.54 4.23 4.23 0 00-1.49-.64 3.43 3.43 0 00-1.65.25zm35.85.47a1.78 1.78 0 00-.9.85 2.99 2.99 0 00.07 1.6 2.65 2.65 0 001.18 1.56 3.37 3.37 0 003.65 0 2.4 2.4 0 001.16-1.7 2.45 2.45 0 00-.06-1.9c-.35-.72-.42-.74-2.39-.71a11.28 11.28 0 00-2.7.3zm50.8.9c-.84.63-.89.76-.76 1.95a5.68 5.68 0 00.6 2.02 2.2 2.2 0 001.07.9 6.71 6.71 0 001.68.06c1.04-.08 1.07-.11 1.14-1.16.04-.6.2-1.14.36-1.21.2-.1.2-.37 0-.88a2.8 2.8 0 00-.89-1.15 2.45 2.45 0 00-1.08-.4.67.67 0 01-.6-.4c-.08-.22-.25-.4-.39-.4a3.89 3.89 0 00-1.13.68zm-284.25.13a2.77 2.77 0 00-1.01.86 3.4 3.4 0 00-.43 1.64 4.38 4.38 0 00.27 1.55 2.77 2.77 0 001.08.94 4.77 4.77 0 001.78.4 2.19 2.19 0 001.76-.81 1.87 1.87 0 00.65-2.02 2.8 2.8 0 00-1.01-2.03 2.38 2.38 0 00-1.7-.8 4.98 4.98 0 00-1.38.27zm247.76.5a4.05 4.05 0 00-1.01 1.28 3.35 3.35 0 00-.2 1.8 2.68 2.68 0 00.97 1.68 2.85 2.85 0 002.1.69 3.2 3.2 0 002.02-.54 3.28 3.28 0 001.01-1.5 3.35 3.35 0 000-1.88 2.6 2.6 0 00-1.15-1.49 4.38 4.38 0 00-1.98-.53 3.15 3.15 0 00-1.76.5zm73.02-.05c-.25.09-.37.46-.33 1.06a2.55 2.55 0 00.73 1.6 2.19 2.19 0 001.75.67 1.94 1.94 0 001.63-.6 2.07 2.07 0 00.54-.88 1.67 1.67 0 00-.28-.68 4.12 4.12 0 00-1.55-.87 7.16 7.16 0 00-1.69-.45 3.43 3.43 0 00-.8.16zm-109.66.84a3.81 3.81 0 00-.87 1.07 4.29 4.29 0 00-.3 1.62 2.9 2.9 0 00.34 1.43 5.46 5.46 0 001 .87 3.68 3.68 0 001.76.47 3.15 3.15 0 001.82-.54 3.29 3.29 0 001.01-1.49 3.35 3.35 0 000-1.89 2.6 2.6 0 00-1.14-1.48 4.26 4.26 0 00-1.96-.53 3.03 3.03 0 00-1.66.47zm-48.08.75l-2.3.86a1.74 1.74 0 00-.87.7c-.14.3-.02.57.4.85a2.36 2.36 0 001.69.26 6.3 6.3 0 001.96-.68 3.68 3.68 0 001.21-1.2c.28-.57.27-.74-.07-1.04s-.68-.25-2.02.26zm11.7 0a2.71 2.71 0 00-1.02.93 4.82 4.82 0 00-.27 1.68 2.36 2.36 0 00.67 1.9 3.38 3.38 0 001.56.9 4.8 4.8 0 001.63 0 3.4 3.4 0 001.42-.9 2.37 2.37 0 00.67-1.96 3.52 3.52 0 00-.35-1.64 5.6 5.6 0 00-1-.87 3.3 3.3 0 00-1.62-.45 4.43 4.43 0 00-1.7.41zm87.71.8a3.03 3.03 0 00-1.28 1.2 4.29 4.29 0 00-.4 1.62 1.81 1.81 0 00.6 1.34 4.25 4.25 0 002.1.7 9.58 9.58 0 002.23 0 1.61 1.61 0 001.01-.69 4.46 4.46 0 00.33-1.42 3.19 3.19 0 00-.41-1.61 3.55 3.55 0 00-1.4-1.15 4.71 4.71 0 00-1.42-.4 4.78 4.78 0 00-1.35.42zm37.34-.2a3.1 3.1 0 00-1.12.7 2.03 2.03 0 00-.61 1.25 2.7 2.7 0 00.75 1.45 1.74 1.74 0 001.84.67 3.41 3.41 0 001.57-.5 1.88 1.88 0 00.46-1.35 1.97 1.97 0 00-.62-1.52 3.13 3.13 0 00-1.2-.68 3.25 3.25 0 00-1.07-.01zm-322.23.6a3.32 3.32 0 00-1.16 1 2.99 2.99 0 00-.55 1.5 3.61 3.61 0 00.3 1.34 3.81 3.81 0 00.89 1.07 3.14 3.14 0 001.65.48 3.05 3.05 0 001.83-.53 3.27 3.27 0 001.01-1.5 2.28 2.28 0 00-.2-1.93 2.65 2.65 0 00-1.35-1.35 4.43 4.43 0 00-1.35-.34 4.15 4.15 0 00-1.07.26zm248.12.48a3.28 3.28 0 00-1.29 1.34 4.46 4.46 0 00-.39 1.28 2.64 2.64 0 00.27.94 1.06 1.06 0 001.02.54 20.87 20.87 0 002.5-.32 7.4 7.4 0 002.1-.6 1.39 1.39 0 00.34-.96 2.81 2.81 0 00-.48-1.33 3.62 3.62 0 00-1.36-1.01 4.75 4.75 0 00-1.35-.35 4.21 4.21 0 00-1.36.47zm-36.47.6a3.3 3.3 0 00-1.16.99 3.13 3.13 0 00-.55 1.9 2.3 2.3 0 00.82 1.96 2.38 2.38 0 002.18.81 2.31 2.31 0 002.17-.8 2.34 2.34 0 00.79-1.96 3.8 3.8 0 00-.4-1.75 3.62 3.62 0 00-2.64-1.4 4.4 4.4 0 00-1.2.25zm86.71 1.48a2.58 2.58 0 00-.99 1.69c-.11.77-.03 1.12.34 1.48a6.74 6.74 0 002.7.8c1.9.3 2.25.3 2.64-.06a1.99 1.99 0 00.44-1.41 4.9 4.9 0 00-.35-1.72 2.77 2.77 0 00-1.08-1.08 4.82 4.82 0 00-1.8-.37 2.85 2.85 0 00-1.9.67zm-121.39-.21a8.52 8.52 0 00-1.62.53 6.83 6.83 0 00-1.56 1 1.94 1.94 0 00-.61 1.18.94.94 0 00.48.8 4.54 4.54 0 011.15.93 2.06 2.06 0 001.49.75 3.86 3.86 0 001.69-.53c.48-.3.89-.7.9-.88a3.44 3.44 0 00.02-.47l-.1-1.37a3.62 3.62 0 00-.49-1.7c-.22-.26-.47-.44-.54-.41a7.78 7.78 0 01-.8.17zm158.02.38a2.5 2.5 0 00-.45 1.38 3.9 3.9 0 00.23 1.19 2.31 2.31 0 00.94.8 3.89 3.89 0 001.43.37 2.31 2.31 0 001.36-.67 2.2 2.2 0 00.66-1.62 1.3 1.3 0 00-.68-1.35 6.02 6.02 0 00-1.84-.57c-1.01-.14-1.23-.08-1.65.47zm-321.56.49a2.42 2.42 0 00-.79 1.75 4.21 4.21 0 00.32 1.65 2.86 2.86 0 001.22 1.08 4.77 4.77 0 001.58.4 2.62 2.62 0 001.62-.95 2.43 2.43 0 00.92-2.02 2.25 2.25 0 00-.81-1.9 2.3 2.3 0 00-2.05-.8 2.23 2.23 0 00-2 .79zm212 .69a3.87 3.87 0 00-1.05 1.28 2.87 2.87 0 00-.27 1.76 3.48 3.48 0 00.77 1.5c.54.56.8.62 2.1.51a4.64 4.64 0 002.36-.77 1.66 1.66 0 00.88-1.72 2.37 2.37 0 00-.94-2.02 2.4 2.4 0 00-2.1-.95 3.82 3.82 0 00-1.76.4zm-36.82.88a3.59 3.59 0 00-1 1.28 2.4 2.4 0 00-.07 1.75 4.05 4.05 0 00.73 1.43 3.65 3.65 0 001.34.74 2.88 2.88 0 003.86-2.64 4.01 4.01 0 00-.48-1.68 3.03 3.03 0 00-1.08-1.08 4.92 4.92 0 00-1.62-.28 3.38 3.38 0 00-1.68.48zm-160.47.4a4.1 4.1 0 00-.98.85 3.03 3.03 0 00-.48 1.65 3.47 3.47 0 00.36 1.62 3.16 3.16 0 001.15.89 4.11 4.11 0 001.73.27c.78-.07.96-.2 1.04-.76a6.83 6.83 0 00-.72-2.42 9.28 9.28 0 00-1.2-2.07.7.7 0 00-.9-.04zm233.5.11c-.5.08-.58.24-.5.84l.2 1.23a1.6 1.6 0 00.77.87 3.81 3.81 0 001.56.38 4.23 4.23 0 001.48-.26 2.33 2.33 0 00.95-1.15 5.18 5.18 0 00.34-1.4c0-.5-.2-.55-2.1-.57a26.44 26.44 0 00-2.7.06zm50.29.47a3.44 3.44 0 00-.37 1.71c.02 1.02.13 1.2.9 1.6a10.67 10.67 0 001.56.64 2.18 2.18 0 001.42-.18 2.57 2.57 0 001-.9 3.23 3.23 0 00.28-1.22 2.56 2.56 0 00-.6-1.38c-.52-.59-.87-.7-2.2-.76s-1.65.02-1.99.49zm-36.16.86a4.08 4.08 0 00-.92 1.42.98.98 0 00.3.75 8.82 8.82 0 002.71.48c1.9.13 2.45.09 2.77-.24a1.36 1.36 0 00.4-.67 4.62 4.62 0 00-.6-1.26 4 4 0 00-1.08-1.21 4.78 4.78 0 00-1.6-.23 2.14 2.14 0 00-1.97.96zm-282.92.45a12.7 12.7 0 00-1.16 1.82 2.74 2.74 0 00-.34 1.49 1.25 1.25 0 00.77.74 5.24 5.24 0 001.27.2 2.83 2.83 0 001.55-.94 2.57 2.57 0 00.93-1.82 3.13 3.13 0 00-.54-1.62 1.7 1.7 0 00-1.17-.74 2.03 2.03 0 00-1.3.87zm210.2-.04a4.48 4.48 0 00-1 .89 3.15 3.15 0 00-.48 1.78 2.19 2.19 0 00.82 2.03 2.45 2.45 0 002.19.8 2.15 2.15 0 002.14-.87 2.86 2.86 0 00-1.91-4.82 3.77 3.77 0 00-1.76.19zm37.71.3l-1.82.38a1.07 1.07 0 00-.78.72 2.98 2.98 0 00.34 1.68c.48 1.01.57 1.08 1.59 1.03.59-.03 1.56-.14 2.16-.24a3.74 3.74 0 001.56-.62 1.47 1.47 0 00.47-.91 3.71 3.71 0 00-.37-1.21 2.31 2.31 0 00-.81-.95 1.86 1.86 0 00-.78-.17c-.19.02-.89.14-1.56.29zm122.7.36c-.58.6-.61.75-.31 1.34.18.37.48.68.67.68a6.43 6.43 0 011.49.54c.85.4 1.28.47 1.69.27.38-.2.54-.54.54-1.22a1.98 1.98 0 00-.75-1.62 2.33 2.33 0 00-1.7-.68 2.12 2.12 0 00-1.63.68zm-14.2.06a1.1 1.1 0 00.41.8 2.07 2.07 0 001.04.34 3.8 3.8 0 001.01-.13c.23-.07.41-.25.41-.4s-.27-.37-.6-.5a11.84 11.84 0 00-1.43-.41c-.65-.16-.81-.1-.83.29zm-182.95.22c-.44.22-.78.5-.76.6a4.02 4.02 0 01-.09.8l-.12.6c1.79-.8 2.45-.97 2.64-.91a.46.46 0 01.2.58 2.75 2.75 0 01-1.25 1.01 6.04 6.04 0 00-1.41.9c-.24.27-.15.5.37 1.01a3.4 3.4 0 001.76.82 2.38 2.38 0 002.02-.48 3.32 3.32 0 001.17-1.44 3.62 3.62 0 00.08-1.55c-.14-.6-.31-.73-.91-.71h-1.08c-.18-.01-.28-.21-.2-.43a.91.91 0 00-.27-.81 1.42 1.42 0 00-.88-.4 3.9 3.9 0 00-1.27.4zm160.61.32a2.61 2.61 0 00-.37 1.71 3.61 3.61 0 00.34 1.62 2.13 2.13 0 001.12.51c.45.08.77.05.7-.06s.08-.2.3-.2a2.27 2.27 0 001.1-.75 2.46 2.46 0 00.67-1.34 2.31 2.31 0 00-.68-1.29 2.17 2.17 0 00-1.72-.67 2 2 0 00-1.46.46zm-321.29.35a3.54 3.54 0 00-1.12 1.07 4.05 4.05 0 00-.27 1.48 2.78 2.78 0 002.7 2.56 4.6 4.6 0 001.62-.27 2.77 2.77 0 00.95-1.08 2.45 2.45 0 000-2.7 2.67 2.67 0 00-.88-1.04 6.38 6.38 0 00-1.31-.39 2.26 2.26 0 00-1.69.37zm284.36-.01c-.5.29-.9.68-.87.87a1.7 1.7 0 00.24.64 4.21 4.21 0 001.82.47c.89.1 2.06.26 2.6.37.89.19.99.15 1.16-.46a1.08 1.08 0 00-.3-1.18 5.51 5.51 0 00-1.24-.87 3.44 3.44 0 00-3.41.16zm-35.54.25c-.4.23-.71.51-.71.62s.45.13 1.01.03a9.34 9.34 0 011.83-.12c.44.03.74 0 .67-.06a7.6 7.6 0 00-1.1-.51c-.86-.34-1.06-.34-1.7.03zm-36.67.6a3.14 3.14 0 00-1.46.92 2.9 2.9 0 00-.56 1.87 2.33 2.33 0 00.67 1.88 4.03 4.03 0 001.49.94 3.35 3.35 0 001.49.06 4.79 4.79 0 001.1-.45 4.08 4.08 0 00.88-.94 3 3 0 00.46-1.42c0-.4-.1-.74-.21-.73s-.39-.38-.6-.85a2.95 2.95 0 00-.68-1 5.95 5.95 0 00-.98-.32 4.05 4.05 0 00-1.6.03zm-37 .86a2.9 2.9 0 00-1.26.87 4.69 4.69 0 00-.46 1.33 3.48 3.48 0 00.23 1.69 3 3 0 001.2 1.27 4.79 4.79 0 001.78.4 2.31 2.31 0 001.9-.94 2.58 2.58 0 00.91-1.76 4.08 4.08 0 00-.34-1.5 3 3 0 00-.88-1.04 4.79 4.79 0 00-1.35-.51 3.78 3.78 0 00-1.74.18zm124.1.55a3.34 3.34 0 00-1.19.73.95.95 0 00-.16.79c.1.27 1.01.56 2.81.9 2.22.4 2.71.43 2.87.13a1.76 1.76 0 00.21-.63 2.58 2.58 0 00-.74-1 5.56 5.56 0 00-1.49-1.01 3.6 3.6 0 00-1.08-.27 6.44 6.44 0 00-1.23.35zm-285.3.41a3.4 3.4 0 00-1.01 1.51 2.32 2.32 0 00.2 1.96 2.37 2.37 0 001.6 1.41 1.97 1.97 0 002.1-.07 3.55 3.55 0 001.4-1.34 2.58 2.58 0 00.27-1.62 3.98 3.98 0 00-.78-1.44 2.57 2.57 0 00-1.82-.83 2.24 2.24 0 00-1.96.41zm321.34.37c-.55.7-.64 1-.45 1.55a2.92 2.92 0 00.61 1 3.55 3.55 0 001.45.5c.85.14 1.17.07 1.5-.31a3.83 3.83 0 00.5-1.72c.07-.97 0-1.3-.4-1.57a3.27 3.27 0 00-1.51-.34 1.8 1.8 0 00-1.7.88zm-72.83-.27a2.1 2.1 0 00-.88.94c-.23.6-.22.6 2.3.54 2.34-.06 2.52-.1 2.37-.58a1.92 1.92 0 00-.9-.87 3.98 3.98 0 00-1.49-.37 3.71 3.71 0 00-1.4.33zm-14.01.1c-1.27.08-1.42.15-1.42.7a2.61 2.61 0 00.4 1.2c.33.49.67.61 1.7.61a12.22 12.22 0 002.2-.2 1.76 1.76 0 001.35-1.1c.38-.78.38-.91.03-1.14a4 4 0 00-1.63-.2l-2.63.13zm-22.99.85a2.7 2.7 0 00-.7 1.21c-.1.4-.05.72.1.72a.44.44 0 00.37-.2 6.28 6.28 0 011.76-.67 6.38 6.38 0 001.66-.61 1.59 1.59 0 00-.4-.54 2.18 2.18 0 00-1.33-.4 2.51 2.51 0 00-1.46.49zm59.14.34a2.83 2.83 0 001.83.52 4.84 4.84 0 001.75-.32c.6-.3.6-.32.07-.52a10.9 10.9 0 00-2.43-.22h-1.9zm-95.15.16a4.03 4.03 0 00-1.01.72 2.98 2.98 0 00-.77 1.25 3.85 3.85 0 00.12 1.62 2.97 2.97 0 00.9 1.38 4.7 4.7 0 001.5.6 2.96 2.96 0 001.87-.3 2.63 2.63 0 001.38-1.41 2.49 2.49 0 00.09-1.96 2.66 2.66 0 00-1.18-1.55 3.75 3.75 0 00-1.69-.51 4.8 4.8 0 00-1.2.17zM113.01 34.9a5.46 5.46 0 00-1 .88 2.92 2.92 0 00-.34 1.43 3.56 3.56 0 00.37 1.61 3.15 3.15 0 001.15.97 3.27 3.27 0 001.72.21 3.22 3.22 0 001.54-.76 3.45 3.45 0 00.77-1.43 2.6 2.6 0 00-.26-1.68 2.91 2.91 0 00-1.38-1.28 5.05 5.05 0 00-1.42-.41 2.59 2.59 0 00-1.15.46zm162.33.01c-.45.25-1.24.73-1.76 1.08a2 2 0 00-1.02 1.29 1.97 1.97 0 00.75 1.48 2.3 2.3 0 002.03.8 2.53 2.53 0 002.03-.74 2.98 2.98 0 00.96-1.68 2.46 2.46 0 00-.41-1.82c-.36-.57-.77-.88-1.16-.87a3.7 3.7 0 00-1.42.46zm75.11-.27c-.28.05-1.06.23-1.72.4a10.62 10.62 0 01-1.87.33.92.92 0 00-.88.62c-.18.49-.08.74.52 1.29a3.86 3.86 0 001.69.83 2.87 2.87 0 003.02-1.38 4.67 4.67 0 00.55-1.25.75.75 0 00-.36-.68 1.65 1.65 0 00-.95-.16zm84.28.2a3.35 3.35 0 00-1.22.8c-.2.3-.22.52-.04.68a8.14 8.14 0 001.89.66 17.27 17.27 0 001.94.42 1.41 1.41 0 00.75-.4c.38-.36.36-.48-.19-1.28a6.58 6.58 0 00-.88-1.07 1.53 1.53 0 00-.8-.18 5.5 5.5 0 00-1.45.38zm-72.76.05a2.62 2.62 0 00-.93.74l-.52.63a11.48 11.48 0 003.2-.57c.54-.29.53-.3-.06-.37-.33-.04-.55-.2-.47-.34s-.08-.26-.34-.24a4.84 4.84 0 00-.88.15zm-213.18.46a3.48 3.48 0 00-.45.78 2.26 2.26 0 00.18 1.35 3.41 3.41 0 00.81 1.2.87.87 0 00.83.14c.33-.17.32-.4-.09-1.55a12.85 12.85 0 00-.75-1.8c-.2-.31-.34-.35-.53-.12zm175.88.53a3.5 3.5 0 00-1.15 1.36 4.63 4.63 0 00-.47 1.31 1.68 1.68 0 00.4.81c.38.44.49.45 1.69.05.7-.24 1.83-.57 2.5-.74.87-.23 1.23-.47 1.3-.86a1.92 1.92 0 00-.68-1.28 3.32 3.32 0 00-3.6-.65zm145.95.19a2.02 2.02 0 00.56.8 1.86 1.86 0 001.08.54c.3 0 .5-.1.44-.2a4.94 4.94 0 00-1.1-.8c-.55-.33-.99-.48-.98-.34zm-182.57.66a3.84 3.84 0 00-1.14.88 3.5 3.5 0 00-.34 1.62 2.6 2.6 0 00.62 1.88 3.28 3.28 0 001.62.95 3.14 3.14 0 001.94-.2 3 3 0 001.35-1.22 3.87 3.87 0 00.4-1.34 3.5 3.5 0 00-.33-1.24 3.07 3.07 0 00-.88-1.05 5 5 0 00-1.49-.52 2.69 2.69 0 00-1.74.24zm161.1.45a1.77 1.77 0 00-.75.86 4.26 4.26 0 00-.2 1.05 1.8 1.8 0 00.54 1.01 2.15 2.15 0 001.49.54c.52 0 .99-.15 1.04-.34.07-.2-.2-.35-.74-.37a4.29 4.29 0 01-1.45-.33c-.34-.17-.6-.49-.6-.71a.61.61 0 01.4-.54 2.9 2.9 0 011.42.29 3.4 3.4 0 011.2.74c.12.21.24.14.37-.22a2.18 2.18 0 00.03-1.08 1.74 1.74 0 00-.84-.88 2.91 2.91 0 00-1.04-.31 2.85 2.85 0 00-.87.3zm-322.4.74a2.52 2.52 0 00-.01 3.82 2.63 2.63 0 001.89.8 3.11 3.11 0 001.76-.54 3 3 0 00.97-1.42 2.95 2.95 0 00-.07-1.67 3.4 3.4 0 00-.97-1.29 3.15 3.15 0 00-1.69-.49 2.65 2.65 0 00-1.89.79zm358.13-.18a1.03 1.03 0 00.45 1.09 5.77 5.77 0 001.26.76 2.5 2.5 0 001.28.12.74.74 0 00.6-.62c0-.3-.54-.73-1.55-1.21a13.77 13.77 0 00-1.72-.74c-.1 0-.24.27-.32.6zM338.3 39.16c-.67.68-.9 1.15-.86 1.68.05.5.25.78.61.84a6.87 6.87 0 002.17-.47 11.46 11.46 0 012.09-.57.68.68 0 00.6-.4 1.36 1.36 0 00-.06-.85 2.31 2.31 0 00-.95-.8 4.62 4.62 0 00-1.71-.38 2.31 2.31 0 00-1.9.95zm161.62-.68a2.1 2.1 0 00-.88.65 1.39 1.39 0 00-.15.97 2.05 2.05 0 001.01.98 6.85 6.85 0 011.29.81.96.96 0 001.08.14 1.5 1.5 0 00.88-.94 1.9 1.9 0 00-.05-1.19 3.73 3.73 0 00-.74-.9 3.19 3.19 0 00-1.17-.6 2.68 2.68 0 00-1.27.08zm-198.2 1.22a2.55 2.55 0 00-.73 3.3 2.67 2.67 0 002.82 1.69 2.23 2.23 0 001.96-.81 3.01 3.01 0 00.82-1.29 9.22 9.22 0 00-.03-1.14 3.72 3.72 0 00-.3-1.15 2.75 2.75 0 00-1.05-.87 4.6 4.6 0 00-1.74-.4 2.9 2.9 0 00-1.75.67zm-160.52.4a2.6 2.6 0 00-1.15 1.48 2.42 2.42 0 00.13 1.89 3 3 0 001.22 1.35 3.91 3.91 0 001.35.4 3.12 3.12 0 001.15-.3 3.83 3.83 0 001.08-.88 2.98 2.98 0 00.47-1.58 4.29 4.29 0 00-.27-1.55 2.75 2.75 0 00-1.08-.95 3.93 3.93 0 00-1.42-.4 3.71 3.71 0 00-1.48.54zm321.19.12c-.3.46-.27.73.1 1.57a2.82 2.82 0 001.12 1.3 2.1 2.1 0 001.7-.07 2.23 2.23 0 001.15-.76 2.72 2.72 0 00-.14-1.28 2.17 2.17 0 00-.82-1.15 4.28 4.28 0 00-1.66-.22c-.79.05-1.21.22-1.45.62zm-196.99.23a2.7 2.7 0 00-1.2 1.27 4.57 4.57 0 00-.14 1.21 3.55 3.55 0 00.39 1.18 2.96 2.96 0 001.1 1 3.77 3.77 0 001.41.38 4.12 4.12 0 001.49-.4 2.77 2.77 0 001.08-.94 4.55 4.55 0 00.27-1.62 2.25 2.25 0 00-.81-1.89 2.2 2.2 0 00-1.7-.8 4.75 4.75 0 00-1.9.61zm-160.75.5a3.28 3.28 0 00-1.18 1.44 2.23 2.23 0 00.26 1.86 3.39 3.39 0 001.04 1.32 4.5 4.5 0 001.62.26 2.02 2.02 0 001.83-.85 2.59 2.59 0 00.74-1.78 2.5 2.5 0 00-.74-1.76 3.1 3.1 0 00-1.69-.97 2.3 2.3 0 00-1.88.49zm175.08 1.7a3.44 3.44 0 00-1.18 1.29 2.88 2.88 0 00-.27 1.75 3.04 3.04 0 00.98 1.55 2.79 2.79 0 002.05.68 2.25 2.25 0 002.03-.81 2.3 2.3 0 00.78-1.9 2.52 2.52 0 00-.74-1.9 2.66 2.66 0 00-1.82-.94 3.24 3.24 0 00-1.83.3zm196.51.57c-.25.51-.25.8-.03 1.14a4.74 4.74 0 00.95.92 4.37 4.37 0 001.45.63 1.43 1.43 0 001.42-.4 1.93 1.93 0 00.61-.83 4 4 0 00-.94-1.21 2.38 2.38 0 00-2.04-.95c-.9.01-1.14.13-1.42.7zm-357.74.32a3.35 3.35 0 00-.88 1.27 2.44 2.44 0 00-.02 1.69 2.85 2.85 0 001.16 1.43 3.73 3.73 0 001.48.54 3.99 3.99 0 001.42-.4 2.77 2.77 0 001.09-.95 4.1 4.1 0 00.27-1.48 2.77 2.77 0 00-2.78-2.56 3.22 3.22 0 00-1.74.47zm200.36 0a12 12 0 01-1.97.9 5.05 5.05 0 00-1.82.98c-.07.19.16.61.5.94a3.84 3.84 0 003.29.77 3.7 3.7 0 001.17-1 2.2 2.2 0 00.54-1.72c-.07-.78-.2-.96-.77-1.02a1.46 1.46 0 00-.94.17zm-24.27 1.33a2.98 2.98 0 00-1.44.84 4.01 4.01 0 00-.83 1.26 3.29 3.29 0 00.02 1.28 3.52 3.52 0 00.84 1.42 2.1 2.1 0 001.55.66 3.46 3.46 0 001.44-.34 10.81 10.81 0 001.29-.93 1.79 1.79 0 00.72-1.48 3.09 3.09 0 00-.47-1.54 3.62 3.62 0 00-1.35-1 4.46 4.46 0 00-.95-.32 7.15 7.15 0 01-.82.16zm-161.8 1.33a2.94 2.94 0 00-1 1.72 2.46 2.46 0 00.4 1.82 2.52 2.52 0 001.44 1.1 3.83 3.83 0 001.7-.01 3.55 3.55 0 001.28-.7 3.24 3.24 0 00.65-1.55 1.88 1.88 0 00-.62-1.97 2.74 2.74 0 00-1.89-1.02 1.89 1.89 0 00-1.97.62zm124.92-.52a2.92 2.92 0 00-1.29.9 2.69 2.69 0 00-.69 1.8 3.1 3.1 0 00.55 1.76 3.27 3.27 0 001.49 1 2.75 2.75 0 001.94-.1 2.98 2.98 0 001.36-1 4.07 4.07 0 00.35-1.65 2.25 2.25 0 00-.81-1.82 2.8 2.8 0 00-1.22-.81 3.21 3.21 0 01-.74-.1 2.55 2.55 0 00-.94.03zM96.33 47.33a4.82 4.82 0 00-1.04 1.94 1.41 1.41 0 00.47 1.56 3.4 3.4 0 001.58.76 3.27 3.27 0 001.71-.2 2.48 2.48 0 001.53-2.4 2.51 2.51 0 00-.95-1.74 2.49 2.49 0 00-1.68-.93 2.4 2.4 0 00-1.62 1.02zm212.09.73a7.1 7.1 0 00-1.55.98 2.04 2.04 0 00-.3 1.1 3.94 3.94 0 00.36 1.49 2.3 2.3 0 00.8.94 2.73 2.73 0 00.93.2 7.58 7.58 0 001.82-.53 4.33 4.33 0 001.72-1.15 1.77 1.77 0 00.13-1.55 2.72 2.72 0 00-1.18-1.56 3.54 3.54 0 00-1.2-.59 9.35 9.35 0 00-1.53.67zm-161 .28a3.07 3.07 0 00-1.32 1.27 2.88 2.88 0 00-.28 1.68 3.36 3.36 0 00.86 1.48 2.96 2.96 0 003.76 0 3.25 3.25 0 00.85-1.48 3.4 3.4 0 00-.14-1.55 2.63 2.63 0 00-.9-1.11 5.14 5.14 0 00-1.29-.53 3.04 3.04 0 00-1.55.25zm321.6-.16c-.23.14-.35.3-.28.35s.65.3 1.29.55c1 .4 1.15.4 1.15.05 0-.22-.37-.58-.82-.8a7.1 7.1 0 00-.87-.4 2.5 2.5 0 00-.48.26zm-198.06.64a3.1 3.1 0 00-.96 1.62 2.6 2.6 0 00.2 1.8 3.67 3.67 0 001 1.21 3.47 3.47 0 001.63.4 2.54 2.54 0 001.84-.74 3.05 3.05 0 001.02-1.86c.17-1.04.11-1.18-.83-2.09a2.54 2.54 0 00-2.08-.97 2.77 2.77 0 00-1.81.64zm-160.31.32a3.16 3.16 0 00-1.32 1.27 2.05 2.05 0 00-.15 1.82 3.01 3.01 0 00.97 1.42 3.8 3.8 0 001.8.47 2.2 2.2 0 001.9-.8 2.36 2.36 0 00.79-1.7 3.08 3.08 0 00-.48-1.53 3.62 3.62 0 00-1.35-1 5.19 5.19 0 00-1.08-.35 6.25 6.25 0 00-1.08.41zm394.34.25a1.46 1.46 0 00.72 1.23 2.94 2.94 0 001.48.54c.41 0 .75-.13.75-.27s-.52-.61-1.15-1.03l-1.46-.96c-.2-.12-.32.04-.34.5zm-22.26 1.24a.57.57 0 00-.27.81 1.26 1.26 0 00.75.7 3.38 3.38 0 011.08.65 2.62 2.62 0 001.08.57 1.62 1.62 0 00.88-.11.73.73 0 00.35-.54c0-.18-.73-.8-1.63-1.35s-1.66-1-1.7-1a4.4 4.4 0 00-.54.27zm36.16-.1a1.8 1.8 0 00-.18 1.08 2.52 2.52 0 00.58 1.43 3.08 3.08 0 001.29.7 2.4 2.4 0 001.35-.13 1.09 1.09 0 00.6-.84 1.96 1.96 0 00-.73-1.15 9.16 9.16 0 00-1.42-.95 2.98 2.98 0 00-.97-.33 1.02 1.02 0 00-.52.19zm-233.42.56a2.45 2.45 0 00-1.32 1.55 1.92 1.92 0 000 1.89 1.4 1.4 0 001.06.9 3.07 3.07 0 001.68-.62 5.06 5.06 0 011.22-.68 3.08 3.08 0 00.94-.54c.72-.52.73-.58.34-1.35a3 3 0 00-1.35-1.22 5.12 5.12 0 00-1.28-.4 4.66 4.66 0 00-1.29.48zm-161 .81a3.84 3.84 0 00-.88 1.08 3.4 3.4 0 00-.3 1.28 3.09 3.09 0 002.57 2.48 1.96 1.96 0 002.02-.67 2.5 2.5 0 00.07-3.85 2.54 2.54 0 00-1.9-.79 2.98 2.98 0 00-1.58.48zm124.58-.06a2.58 2.58 0 00-1.3 1.4 3.58 3.58 0 00-.27 1.76 3.11 3.11 0 00.96 1.42 2.74 2.74 0 001.9.67 2.63 2.63 0 001.82-.63 3.33 3.33 0 00.95-1.49 2.6 2.6 0 00-.2-1.72 3.25 3.25 0 00-.88-1.18 4.65 4.65 0 00-1.29-.46 3 3 0 00-1.7.24zm50.57 1.85a3.83 3.83 0 00-1 1 3.3 3.3 0 00-.45 1.45 1.62 1.62 0 00.4 1.15c.35.28.8.16 2.55-.67 1.35-.64 2.2-1.21 2.3-1.55.12-.38-.04-.73-.5-1.15a2.38 2.38 0 00-1.7-.6 3.72 3.72 0 00-1.6.38zm-160.39.34a4.36 4.36 0 00-1.02.73 2.99 2.99 0 00-.77 1.39 2.73 2.73 0 00.18 1.48 4 4 0 00.9 1.14 3.08 3.08 0 001.66.47 3.6 3.6 0 001.69-.4 2.94 2.94 0 00.9-1.41 2.35 2.35 0 000-1.69 3.95 3.95 0 00-.76-1.12 3.2 3.2 0 00-1.43-.6 3.63 3.63 0 00-1.35.02zm123.36.72a3.36 3.36 0 00-.98 1.42 3.22 3.22 0 00.05 1.6 2.8 2.8 0 00.89 1.23 4.88 4.88 0 001.37.6 2.98 2.98 0 001.69-.22 2.49 2.49 0 001.34-1.35 2.83 2.83 0 00.2-1.8 3.33 3.33 0 00-.94-1.48 2.63 2.63 0 00-1.8-.63 2.76 2.76 0 00-1.83.64zm-171.94.53a5.97 5.97 0 00-.98 1.34c-.13.36-.02.49.5.54a1.49 1.49 0 001.18-.47 3.6 3.6 0 00.64-.95 1.07 1.07 0 00-.19-.87c-.31-.41-.41-.38-1.15.41zm11.9-.35a3.33 3.33 0 00-1.15 1 2.83 2.83 0 00-.56 1.36 3.75 3.75 0 00.39 1.35 2.77 2.77 0 001.08 1.08 4.2 4.2 0 001.52.34 2.63 2.63 0 001.63-.74 2.26 2.26 0 00.86-1.69 3.44 3.44 0 00-.41-1.68 2.5 2.5 0 00-1.48-1.01 8.57 8.57 0 00-1.14-.26 5.78 5.78 0 00-.74.25zm49.93 2.41a2.53 2.53 0 00-.79 1.62 3.8 3.8 0 00.32 1.51 3 3 0 001.28 1.11 3.22 3.22 0 001.83.26 2.52 2.52 0 001.43-.9 3.1 3.1 0 00.54-1.76 2.29 2.29 0 00-.82-1.82 2.26 2.26 0 00-1.92-.8 2.18 2.18 0 00-1.87.78zm124.96-.54a3.46 3.46 0 00-1.15 1.01 2.99 2.99 0 00-.55 1.5 4.67 4.67 0 00.14 1.15.8.8 0 00.74.4 2.92 2.92 0 001.32-.47l1.82-1.21c.62-.41 1.12-.9 1.13-1.08a1.48 1.48 0 00-.48-.81 3.02 3.02 0 00-1.42-.6 3.7 3.7 0 00-1.55.12zm-161.2.85a3.55 3.55 0 00-.88 1.07 3.62 3.62 0 00-.45 1.4 2.64 2.64 0 00.47 1.27 3.4 3.4 0 001.29.97 2.95 2.95 0 001.75.1 2.88 2.88 0 001.42-.85 3.19 3.19 0 00.47-1.62 2.75 2.75 0 00-2.63-2.62 3.5 3.5 0 00-1.45.29zm124.16.25a2.6 2.6 0 00-1.15 1.48 2.43 2.43 0 00.14 1.9 3 3 0 001.21 1.34 3.9 3.9 0 001.36.4 3.12 3.12 0 001.14-.3 3.83 3.83 0 001.08-.88 2.97 2.97 0 00.47-1.58 3.48 3.48 0 00-.46-1.7 2.9 2.9 0 00-1.29-.95 5.07 5.07 0 00-1.21-.26 3.75 3.75 0 00-1.3.55zm286.06.24c-.48.18-.4.3.74 1.06 1.22.81 1.3.83 1.42.32a1.23 1.23 0 00-.4-1.08 1.65 1.65 0 00-.88-.52 3.8 3.8 0 00-.89.22zm-235.64 1.72a2.87 2.87 0 00-.88 1.28 1.67 1.67 0 00.11 1.08c.23.35.36.33 1.02-.16a18.55 18.55 0 012.02-1.2c1.1-.58 1.22-.73.94-1.14-.21-.32-.66-.47-1.4-.47a2.78 2.78 0 00-1.8.6zm-284.57.26c-.36.16-.65.43-.63.59s.05.78.08 1.37a5.42 5.42 0 00.43 1.82 1.7 1.7 0 001.12.9 3.5 3.5 0 001.52-.12 2.47 2.47 0 001.16-.9 3.46 3.46 0 00.37-1.5 2.3 2.3 0 00-.82-1.68 2.17 2.17 0 00-1.68-.8 4.76 4.76 0 00-1.55.32zm124.47-.02a4.24 4.24 0 00-1 .87 2.68 2.68 0 00-.48 1.45 3.78 3.78 0 00.26 1.42 2.76 2.76 0 001.08.94 4.42 4.42 0 001.65.4 2.24 2.24 0 001.62-.8 2.4 2.4 0 00.79-1.63 4.34 4.34 0 00-.4-1.61 2.2 2.2 0 00-1.3-1.09 5.56 5.56 0 00-1.27-.26 2.67 2.67 0 00-.95.31zm123.48.44a3.4 3.4 0 00-.9 1.27 3.43 3.43 0 00-.14 1.55 3.07 3.07 0 00.96 1.42 2.74 2.74 0 001.91.67 2.2 2.2 0 001.9-.8 2.3 2.3 0 00.78-1.9 2.76 2.76 0 00-2.77-2.68 3.23 3.23 0 00-1.74.47zm-160.7.84a2.02 2.02 0 00-.89 1.87 2.21 2.21 0 00.68 1.77 3.28 3.28 0 001.42.83 3.58 3.58 0 001.68-.26 2.8 2.8 0 001.22-.94 3.82 3.82 0 00.27-1.42 2.7 2.7 0 00-.48-1.45 3.84 3.84 0 00-1.07-.88 3.42 3.42 0 00-1.28-.3 3.03 3.03 0 00-1.56.78zm126.16 2.17a6.03 6.03 0 00-1.62 1.68c0 .2.24.4.54.43a3.7 3.7 0 001.82-1.01c.9-.76 1.28-1.29 1.28-1.76 0-.37-.09-.67-.2-.66a12.34 12.34 0 00-1.83 1.32zm-75.7-.23a2.37 2.37 0 00-.7 1.75 2.47 2.47 0 00.84 1.73 2.26 2.26 0 001.91.81 2.2 2.2 0 001.9-.8 2.3 2.3 0 00.79-1.76 2.25 2.25 0 00-.81-1.75 2.29 2.29 0 00-2.01-.81 2 2 0 00-1.93.83zm124.35.09a2.75 2.75 0 00-.92 1.75 1.92 1.92 0 00.38 1.24c.36.36.53.32 1.55-.34.64-.4 1.55-1.05 2.04-1.41s.88-.83.87-1.02-.27-.52-.61-.74a3.2 3.2 0 00-1.51-.4 2.32 2.32 0 00-1.8.92zm-159.91-.05a3.9 3.9 0 00-1.13.7 2.75 2.75 0 00-.63 1.26 3.1 3.1 0 00.2 1.59 2.8 2.8 0 001.1 1.14 4.2 4.2 0 001.58.37 2.24 2.24 0 001.62-.8 2.3 2.3 0 00.79-1.76 2.62 2.62 0 00-.63-1.69 3 3 0 00-1.45-.89 3.31 3.31 0 00-1.45.08zm123.37.57a3.28 3.28 0 00-.97 1.48 3.33 3.33 0 00.06 1.6 2.87 2.87 0 00.95 1.2 3.73 3.73 0 001.78.48 2.2 2.2 0 001.9-.81 2.4 2.4 0 00.79-1.62 4.19 4.19 0 00-.34-1.51 2.77 2.77 0 00-1.08-1.08 4.08 4.08 0 00-1.54-.37 2.93 2.93 0 00-1.55.63zm-73.34 1.77a2.41 2.41 0 00-.8 1.75 3.9 3.9 0 00.26 1.5 2.77 2.77 0 001.08.95 4.1 4.1 0 001.48.4 2.9 2.9 0 001.5-.74c.8-.72.83-.79.55-1.96a5.25 5.25 0 00-.96-1.95 1.98 1.98 0 00-1.51-.74 2.21 2.21 0 00-1.6.8zm358.15-.18c-.01.4.34.87 1.01 1.38.63.47 1.2.7 1.5.6.26-.09.48-.25.49-.36a5.27 5.27 0 00-1.22-1.21 5.95 5.95 0 00-1.5-1.01c-.15 0-.28.27-.28.6zm-234.08.16a1.98 1.98 0 00-.64 1.21c-.02.4.02.69.1.65s.75-.48 1.5-1c1.18-.81 1.28-.95.8-1.11a4.73 4.73 0 00-.85-.22 1.88 1.88 0 00-.9.47zm-160.2.3a2.8 2.8 0 00-1.01.87 3.11 3.11 0 00-.44 1.5 2.66 2.66 0 00.75 1.72 2.7 2.7 0 003.92 0 2.93 2.93 0 00.74-1.52 3.84 3.84 0 00-.34-1.38 2.77 2.77 0 00-1.08-1.08 3.5 3.5 0 00-1.35-.35 4.27 4.27 0 00-1.2.25zm124.23.22a3.22 3.22 0 00-1.25 1.14 3.8 3.8 0 00-.35 1.42 2.73 2.73 0 00.74 1.56 2.83 2.83 0 001.83.98 2.04 2.04 0 001.96-.56 2.92 2.92 0 001.04-1.58 2.87 2.87 0 00-.27-1.75 2.82 2.82 0 00-.9-1.11 6.47 6.47 0 00-1.18-.4 2.63 2.63 0 00-1.62.3zm-161.08.71a2.8 2.8 0 00-1.04 1.14 3.1 3.1 0 00-.2 1.58 2.93 2.93 0 00.62 1.3 3.6 3.6 0 001.7.65 1.82 1.82 0 002.1-.69 2.6 2.6 0 00.87-1.53 3.84 3.84 0 00-.33-1.38 2.78 2.78 0 00-1.08-1.08 3.56 3.56 0 00-1.36-.36 3.45 3.45 0 00-1.29.37zm-73.33 1.66a2.39 2.39 0 00-1.02 1.27 2.48 2.48 0 00-.03 1.55 3.24 3.24 0 00.75 1.11 3.64 3.64 0 001.45.62 1.92 1.92 0 001.56-.24 1.47 1.47 0 00.6-1.02 5.63 5.63 0 00-.42-1.69 6.37 6.37 0 00-.89-1.56 1.38 1.38 0 00-.85-.46 3.74 3.74 0 00-1.15.42zm124.28-.05a2.6 2.6 0 00-1.15 1.07 3.9 3.9 0 00-.34 1.4 3.22 3.22 0 00.27 1.2 2.77 2.77 0 001.08.95 3.91 3.91 0 001.36.4 3.59 3.59 0 001.24-.34 2.77 2.77 0 001.09-1.08 3.8 3.8 0 00.37-1.41 2.7 2.7 0 00-.74-1.47 3.46 3.46 0 00-1.56-.93 3.28 3.28 0 00-1.62.21zm124.03.28a3.85 3.85 0 00-1 1 2.81 2.81 0 00-.43 1.25 2.93 2.93 0 00.26 1.14c.24.5.33.51 1 .17a20.35 20.35 0 002.17-1.41c.78-.58 1.42-1.2 1.42-1.38s-.27-.52-.6-.75a2.9 2.9 0 00-1.43-.4 3.25 3.25 0 00-1.4.38zm-48.58 1.45c-1.16 1.15-1.24 1.3-.85 1.67s.43.36.42 0c-.01-.22.04-.3.12-.2s.48-.1.88-.47a3.13 3.13 0 01.95-.67c.11 0 .14-.34.07-.74a2.93 2.93 0 00-.23-.8 8.32 8.32 0 00-1.36 1.2zm-112.76-.27a1.9 1.9 0 00-.72 1.49 4.94 4.94 0 00.46 1.53 1.96 1.96 0 001.48 1.08 3.38 3.38 0 001.7.04 3.58 3.58 0 001.22-1 2.7 2.7 0 00.6-1.26 3.97 3.97 0 00-.4-1.28 2.76 2.76 0 00-.96-1.08 4.39 4.39 0 00-1.57-.27 2.3 2.3 0 00-1.81.75zm124.06.08a2.35 2.35 0 00-.8 1.88 2.2 2.2 0 00.76 1.8 2.25 2.25 0 001.94.74 2.34 2.34 0 001.89-.67 3.39 3.39 0 00.86-1.48 2.36 2.36 0 00-.34-1.68 3.23 3.23 0 00-1.11-1.15 4.42 4.42 0 00-1.51-.28 2.17 2.17 0 00-1.7.84zm-73.1 1.57a2.47 2.47 0 00-.8 1.82 2.05 2.05 0 00.73 1.78 2.18 2.18 0 001.83.75 3.71 3.71 0 001.69-.42 2.73 2.73 0 00.86-1.41 3.41 3.41 0 000-1.76 2.37 2.37 0 00-1.06-1.14 4.38 4.38 0 00-1.65-.4 2.21 2.21 0 00-1.6.78zm124.34.3a1.85 1.85 0 00-.54.8c0 .16.07.28.15.28a4.38 4.38 0 00.96-.81c.57-.56.68-.81.4-.81a1.8 1.8 0 00-.97.54zm-161.1.52a2.55 2.55 0 00-.8 1.68 2.92 2.92 0 00.52 1.64 2.36 2.36 0 001.56.91 3.05 3.05 0 001.9-.27 2.06 2.06 0 001.14-1.38 2.28 2.28 0 00-.12-1.82A2.85 2.85 0 00116.4 72a4.09 4.09 0 00-1.52-.34 2.21 2.21 0 00-1.6.78zm124.96-.52a3.43 3.43 0 00-1.18 1 2.1 2.1 0 00-.43 1.84 2.7 2.7 0 00.84 1.68 2.54 2.54 0 001.77.6 3.72 3.72 0 001.77-.46 2.85 2.85 0 00.95-1.35 2.4 2.4 0 00-.15-1.82 2.49 2.49 0 00-1.35-1.35 4.6 4.6 0 00-1.29-.39 4.08 4.08 0 00-.93.25zM77.9 73.49a5.97 5.97 0 00-1.13 1.86c-.35 1-.35 1.18.01 1.56a2.58 2.58 0 001.22.58 3.05 3.05 0 001.57-.2 2.85 2.85 0 001.15-1.24 4.57 4.57 0 00.39-1.22 3.86 3.86 0 00-.54-1.21c-.39-.62-.75-.88-1.24-.88a2.37 2.37 0 00-1.43.74zm85.77.93a2.77 2.77 0 00-.41 1.48 4.16 4.16 0 00.3 1.43 2.91 2.91 0 001.28.96c.82.34 1.05.36 1.21.07a1 1 0 00.04-.76 8 8 0 01-.28-1.49 3.6 3.6 0 00-.65-1.68 1.8 1.8 0 00-.78-.6c-.14 0-.46.26-.7.59zm-35.6.09a2.71 2.71 0 00-1 .93 3.92 3.92 0 00-.29 1.42 2.74 2.74 0 00.47 1.5 3.17 3.17 0 001.57.85 2.44 2.44 0 001.82-.14 2.68 2.68 0 001.02-.93 3.89 3.89 0 00.27-1.41 3.13 3.13 0 00-.4-1.49 2.82 2.82 0 00-1.42-.87 9.68 9.68 0 00-1.15-.26 5.13 5.13 0 00-.89.4zm123.85.14a3.55 3.55 0 00-.88 1.07 3.64 3.64 0 00-.45 1.4 2.74 2.74 0 00.54 1.35c.48.65.72.74 2.03.74 1.13 0 1.62-.13 2.03-.54.3-.3.48-.63.4-.74s-.41.07-.74.4a2.09 2.09 0 01-1.09.6c-.29 0-.47-.2-.47-.52a2.83 2.83 0 011.07-1.42 3.02 3.02 0 001.1-1.42 1.08 1.08 0 00-.67-.87 4.1 4.1 0 00-1.57-.33 3.09 3.09 0 00-1.3.28zm-160.4.56a4.18 4.18 0 00-1.01.87 2.69 2.69 0 00-.47 1.45 2.78 2.78 0 002.7 2.49 2.14 2.14 0 001.76-.67 2.2 2.2 0 00.66-1.62 4.08 4.08 0 00-.27-1.48 2.75 2.75 0 00-1.08-.95 3.61 3.61 0 00-1.28-.4 2.71 2.71 0 00-1.02.3zm123.54.57a3.12 3.12 0 00-.87 1.55 2.25 2.25 0 00.27 1.68 3.45 3.45 0 001.33 1.14 2.55 2.55 0 001.83.15 2.77 2.77 0 001.42-.93 3.41 3.41 0 00.47-1.64 2.78 2.78 0 00-2.69-2.56 2.58 2.58 0 00-1.77.6zm-73.53 1.72a1.97 1.97 0 00-.72 1.82 2.27 2.27 0 00.64 1.7 3.57 3.57 0 001.77.74 1.76 1.76 0 001.96-.66 2.25 2.25 0 00.8-1.89 1.84 1.84 0 00-.8-1.75 2.74 2.74 0 00-1.86-.67 2.32 2.32 0 00-1.8.7zm124.33.32a1.4 1.4 0 00-.45.88c.03.28.2.24.65-.19a7.38 7.38 0 011.16-.87c.5-.28.5-.3-.16-.3a1.9 1.9 0 00-1.2.48zm-248.81.04a1.54 1.54 0 00-.4 1.19 2.28 2.28 0 00.67 1.64 2.36 2.36 0 00.94.69 1.6 1.6 0 00.61-.21c.26-.16.2-.6-.29-1.89a4.26 4.26 0 00-.88-1.68 1.65 1.65 0 00-.66.26zm87.7.57a2.43 2.43 0 00-.7 1.62 3.35 3.35 0 00.51 1.47 2.9 2.9 0 001.22.94 3.36 3.36 0 001.6.06 2.8 2.8 0 001.35-.88 2.96 2.96 0 00.5-1.55 4.05 4.05 0 00-.2-1.32 2.3 2.3 0 00-.95-.8 4.48 4.48 0 00-1.67-.37 1.94 1.94 0 00-1.66.82zm124.36.08a3.15 3.15 0 00-.92 1.62 3.44 3.44 0 00.25 1.31 3.03 3.03 0 001.08 1.08 3.87 3.87 0 001.64.47 2.24 2.24 0 001.62-.8 2.3 2.3 0 00.79-1.76 4.06 4.06 0 00-.27-1.48 2.77 2.77 0 00-1.22-.95 5.01 5.01 0 00-1.51-.4 2.95 2.95 0 00-1.47.91zm-72.99 1.31a3.53 3.53 0 00-1 1.28 2.61 2.61 0 00.05 1.55 2.79 2.79 0 00.89 1.29 3.6 3.6 0 001.68.4 3.21 3.21 0 001.52-.34 2.93 2.93 0 001.05-2.22 3.24 3.24 0 00-.27-1.21 2.79 2.79 0 00-1.21-.95 4.97 4.97 0 00-1.45-.4 2.7 2.7 0 00-1.26.6zm-36.89.9a1.84 1.84 0 00-.83 1.89 1.93 1.93 0 00.83 1.86 2.76 2.76 0 001.77.68 2.19 2.19 0 001.76-.81 2.3 2.3 0 00.78-1.69 2.69 2.69 0 00-.47-1.45 3.82 3.82 0 00-1.07-.87 3.37 3.37 0 00-1.27-.3 3.04 3.04 0 00-1.5.69zm124.07.36a2.41 2.41 0 00-.8 1.75 2.12 2.12 0 00.8 1.78 2.3 2.3 0 001.96.82 2.18 2.18 0 001.76-.61 3.62 3.62 0 00.79-1.7c.16-.96.09-1.16-.68-1.95a2.26 2.26 0 00-1.96-.88 2.18 2.18 0 00-1.88.79zm-160.8.5a2.52 2.52 0 00-.83 1.66 3.45 3.45 0 00.25 1.37 2.9 2.9 0 001.29.96 3.6 3.6 0 001.75.27 2.57 2.57 0 001.3-.9 3.12 3.12 0 00.54-1.62 2.51 2.51 0 00-.62-1.54 3.03 3.03 0 00-1.74-.85 1.67 1.67 0 00-1.94.65zm124.04.3a2.42 2.42 0 00-.79 1.7 2.63 2.63 0 00.45 1.47 3.03 3.03 0 002.52 1.17 2.24 2.24 0 001.62-.8 2.3 2.3 0 00.8-1.76 2.78 2.78 0 00-2.73-2.56 2.18 2.18 0 00-1.88.79zm-196.86.98a2.5 2.5 0 00-1.02 1.07 4.01 4.01 0 00-.27 1.21 2.68 2.68 0 00.81 1.35 2.26 2.26 0 001.9.8 1.85 1.85 0 001.75-.8 2.86 2.86 0 00.68-1.35 3.88 3.88 0 00-.4-1.35 2.2 2.2 0 00-1.3-1.08 5.39 5.39 0 00-1.14-.26 3.99 3.99 0 00-1.01.4zm124.47-.1a2.65 2.65 0 00-1.25.84 3.17 3.17 0 00-.44 1.54 2.85 2.85 0 00.47 1.56 2.88 2.88 0 001.3.83 3.93 3.93 0 001.69 0 1.93 1.93 0 001.28-1.04 3.88 3.88 0 00.4-1.34 3.44 3.44 0 00-.26-1.15 2.27 2.27 0 00-.88-.92 6.5 6.5 0 00-1.05-.43 3.13 3.13 0 00-1.27.12zm123.72.33a2.8 2.8 0 00-.93.84 1.35 1.35 0 00-.17 1.02c.16.42.3.37 1.26-.48a5.34 5.34 0 011.28-.96.18.18 0 00.17-.22c-.01-.13-.25-.3-.53-.38a1.77 1.77 0 00-1.09.18zm-161.22 1.1a2.3 2.3 0 00-.66 1.75 1.96 1.96 0 00.73 1.77 2.38 2.38 0 001.9.68 1.9 1.9 0 001.82-.82 2.9 2.9 0 00.67-1.62 2.33 2.33 0 00-.8-1.62 2.26 2.26 0 00-1.91-.8 2.14 2.14 0 00-1.75.66zm124.06 0a3.61 3.61 0 00-.83 1.42 2.84 2.84 0 00.07 1.4 2.74 2.74 0 002.67 1.68 1.97 1.97 0 001.82-.83 2.69 2.69 0 00.75-1.64 3.63 3.63 0 00-.27-1.35 2.75 2.75 0 00-1.08-.94 4.35 4.35 0 00-1.64-.4 2.15 2.15 0 00-1.5.67zm-196.9 1.5c-.2.38-.16.9.13 1.81a6.28 6.28 0 00.94 1.89c.51.57.6.58 1.36.2a1.94 1.94 0 00.94-.94 4.42 4.42 0 00-.13-1.62 3.97 3.97 0 00-.68-1.49 2.23 2.23 0 00-1.34-.4c-.67 0-1.02.16-1.22.54zm124.2-.22a3.2 3.2 0 00-1.02 1.19 2.35 2.35 0 00.96 3.23 3.04 3.04 0 001.89.27 1.96 1.96 0 001.55-1.04 3.69 3.69 0 00.54-1.35 3.48 3.48 0 00-.33-1.18 2.78 2.78 0 00-1.09-1.08 3.43 3.43 0 00-1.35-.35 3.1 3.1 0 00-1.16.3zm-37.12 1.15a1.8 1.8 0 00-.87 1.72 3.5 3.5 0 00.41 1.6 2.77 2.77 0 001.36.87 2.5 2.5 0 001.82-.08 2.59 2.59 0 001.25-1.15 2.8 2.8 0 00.22-1.47 3.8 3.8 0 00-.64-1.3 2.42 2.42 0 00-1.58-.76 2.02 2.02 0 00-1.98.57zm124.69-.25a2.79 2.79 0 00-1.13 1.06 3.65 3.65 0 00-.34 1.35 3.22 3.22 0 00.27 1.22 2.76 2.76 0 001.08.94 2.46 2.46 0 002.7 0 2.24 2.24 0 001.1-1.28 3.68 3.68 0 00.13-1.55 2.93 2.93 0 00-.76-1.25 3.38 3.38 0 00-1.43-.72 3.03 3.03 0 00-1.62.23zM74.14 87.52a2.83 2.83 0 00-.84 1.51 3.12 3.12 0 00.3 1.3 3.33 3.33 0 00.74.94 3.63 3.63 0 003.02 0 2.94 2.94 0 001.06-2.22 2.5 2.5 0 00-.61-1.36 2.74 2.74 0 00-1.73-.85 1.72 1.72 0 00-1.95.68zm124.02.4c-.65.63-.9 1.1-.86 1.61a3.3 3.3 0 00.8 1.55 2.26 2.26 0 001.91.88 1.89 1.89 0 002-.89c.7-.8.8-1.09.65-1.89a3.5 3.5 0 00-.78-1.56 2.13 2.13 0 00-1.7-.6 2.44 2.44 0 00-2.02.9zm-35.67-.17a4.21 4.21 0 00-1.02.73 2.81 2.81 0 00-.74 1.3 2.94 2.94 0 00.27 1.56 2.75 2.75 0 00.94 1.08 4.18 4.18 0 001.51.27 2.18 2.18 0 001.76-.81 2.4 2.4 0 00.79-1.62 2.57 2.57 0 00-.74-1.62 3.24 3.24 0 00-1.56-.93 3.05 3.05 0 00-1.22.04zm-36.5.82a3.96 3.96 0 00-1.02.72 1.83 1.83 0 00-.6 1.04 4.3 4.3 0 00.44 1.35 7.17 7.17 0 00.88 1.35 1.8 1.8 0 001.18.48 3.57 3.57 0 001.29-.28 2.7 2.7 0 00.93-1.15 2.49 2.49 0 00.17-1.68 2.53 2.53 0 00-.86-1.26 4.32 4.32 0 00-1.33-.58 2.56 2.56 0 00-1.08.02zM.53 89.39a2.3 2.3 0 001.8 3.75 1.78 1.78 0 001.8-.49 3.12 3.12 0 00.88-1.45 2.37 2.37 0 00-.32-1.63c-.44-.77-.58-.83-2.04-.84-1.37-.01-1.65.08-2.13.66zm248.45.04a2.54 2.54 0 00-.78 1.62c-.02.46.13.87.31.92a2.5 2.5 0 001.29-.68c.51-.42 1.21-1.04 1.54-1.37.48-.48.53-.68.27-.95a1.67 1.67 0 00-1.1-.34 2.38 2.38 0 00-1.53.8zm-160.84.73a2.63 2.63 0 00-.57 1.55 3.09 3.09 0 00.53 1.52 2.74 2.74 0 001.5.87 2.62 2.62 0 001.8-.2 2.23 2.23 0 001.08-1.28 2.34 2.34 0 000-1.62 2.8 2.8 0 00-.89-1.14 3.78 3.78 0 00-1.74-.4 1.82 1.82 0 00-1.72.7zm124.35.08a2.42 2.42 0 00-.79 1.75 2.13 2.13 0 00.8 1.78 2.25 2.25 0 001.85.8 2.1 2.1 0 001.75-.74 3.38 3.38 0 00.82-1.41 2.85 2.85 0 00-.09-1.22 3.52 3.52 0 00-.99-1.15 2.89 2.89 0 00-1.68-.6 2.23 2.23 0 00-1.67.8zm-196.92.94a2.56 2.56 0 00-1.15 1.06 3.66 3.66 0 00-.34 1.26 2.68 2.68 0 00.81 1.35 2.26 2.26 0 001.76.8 2.57 2.57 0 001.65-.6 2.06 2.06 0 00.74-1.62 1.84 1.84 0 00-.63-1.65 3.57 3.57 0 00-1.35-.8 2.95 2.95 0 00-1.5.2zm123.52.56a3.5 3.5 0 00-.81 1.29 2.69 2.69 0 00.13 1.34 2.87 2.87 0 00.9 1.16 3.71 3.71 0 001.62.46 1.96 1.96 0 001.68-.62 3.06 3.06 0 00.79-1.33 3.33 3.33 0 00-.27-1.55 2.42 2.42 0 00-1.05-1.15 4.87 4.87 0 00-1.5-.27 2.15 2.15 0 00-1.5.68zm-36.75.8a2.28 2.28 0 00-.66 1.62 4.22 4.22 0 00.19 1.4 2.33 2.33 0 00.94.8 4.08 4.08 0 001.49.38 2.74 2.74 0 001.42-.5 2.62 2.62 0 00.85-1.29 2.94 2.94 0 00-.2-1.66 2.41 2.41 0 00-1.05-1.15 4.87 4.87 0 00-1.5-.26 2.13 2.13 0 00-1.48.67zm124.68-.25a2.77 2.77 0 00-1.01.94 3.77 3.77 0 00-.27 1.41 2.28 2.28 0 00.75 1.63 2.8 2.8 0 003.72.06 2.21 2.21 0 00.66-1.75 2.4 2.4 0 00-.6-1.74 3.1 3.1 0 00-1.56-.81 2.8 2.8 0 00-1.7.26zM65.85 93.35a1.74 1.74 0 00-.7 1.68 3.21 3.21 0 00.37 1.46 3.34 3.34 0 00.94.74 3.55 3.55 0 001.35.32 2.48 2.48 0 001.48-.67 1.98 1.98 0 00.75-1.63 4.3 4.3 0 00-.2-1.39 2.31 2.31 0 00-.95-.8 4.08 4.08 0 00-1.51-.37 2.7 2.7 0 00-1.53.66zm125.05 1.3a5.64 5.64 0 00-1.38 1.88 1.32 1.32 0 00.6.88 3.14 3.14 0 001.49.4 3.93 3.93 0 001.42-.27 2.77 2.77 0 00.95-1.08 2.5 2.5 0 00.23-1.55 3.27 3.27 0 00-.6-1.22 1.42 1.42 0 00-.9-.48 5.57 5.57 0 00-1.82 1.43zm-37.07-.77A2.83 2.83 0 00152.8 95a2.63 2.63 0 00-.18 1.59 3.25 3.25 0 00.64 1.29 2.68 2.68 0 001.26.63 3.84 3.84 0 001.42 0 2.9 2.9 0 001.15-.78 2.42 2.42 0 00.55-1.55 3.31 3.31 0 00-.41-1.55 2.81 2.81 0 00-1.43-.87 9.43 9.43 0 00-1.14-.26 4.36 4.36 0 00-.82.37zm-125.09.68a2.99 2.99 0 00-.34 1.3 2.73 2.73 0 00.5 1.41 2.76 2.76 0 001.23.88 1.24 1.24 0 001.13-.14c.26-.21.31-.43.14-.6a7.75 7.75 0 01-.74-1.76c-.36-1.07-.64-1.5-1.03-1.56a.95.95 0 00-.89.47zm87.91.49a4.66 4.66 0 00-.72 1 1.9 1.9 0 00-.1 1.15 1.14 1.14 0 00.57.75c.28.1.65-.35 1.21-1.42.61-1.16.73-1.6.48-1.75a1.55 1.55 0 00-.66-.2 1.49 1.49 0 00-.78.47zm124.1.27a1.96 1.96 0 00-.64 1.95c.08 1.03.18 1.23.7 1.28.4.05 1.1-.37 2.07-1.21a5.2 5.2 0 001.49-1.75.92.92 0 00-.52-.74 3.94 3.94 0 00-1.45-.27 2.16 2.16 0 00-1.65.74zm-159.9-.02a4.13 4.13 0 00-1.02.73 1.94 1.94 0 00-.6 1.58 2.32 2.32 0 002.45 2.36 2.14 2.14 0 001.76-.68 2.24 2.24 0 00.67-1.68 1.97 1.97 0 00-.61-1.59 3.3 3.3 0 00-1.43-.72 2.95 2.95 0 00-1.22 0zm123.5.43a2.93 2.93 0 00-1.05 2.22 3.22 3.22 0 00.27 1.2 2.9 2.9 0 001.28.97 3.6 3.6 0 001.76.27 2.57 2.57 0 001.29-.9 3.1 3.1 0 00.54-1.75 1.85 1.85 0 00-.82-1.69 2.68 2.68 0 00-1.82-.66 2.99 2.99 0 00-1.45.34zm-37 1.25a2.53 2.53 0 00-.8 1.62 2.16 2.16 0 00.8 1.64 2.26 2.26 0 001.9.8 2.14 2.14 0 001.76-.67 2.26 2.26 0 00.67-1.68 2.54 2.54 0 00-2.53-2.5 2.22 2.22 0 00-1.8.8zM7.4 97a2.79 2.79 0 00-1.01.86 2.84 2.84 0 00-.43 1.37 2.46 2.46 0 00.8 1.55 2.6 2.6 0 001.5.8 3.63 3.63 0 001.35-.33 2.33 2.33 0 00.94-.95 3.4 3.4 0 00.27-1.14 2.88 2.88 0 00-.27-1.08 2.77 2.77 0 00-1.21-.94 5.14 5.14 0 00-1.15-.4 4.6 4.6 0 00-.78.26zm123.18.74a4.83 4.83 0 00-.72 1.28 2.35 2.35 0 00.22 1.32 2.8 2.8 0 001.1 1.15 4.09 4.09 0 001.51.37 2.43 2.43 0 00-.34-4.86c-1 0-1.3.13-1.77.74zm-36.16.47a2.78 2.78 0 00-.89 1.15 2.34 2.34 0 000 1.62 2.23 2.23 0 001.09 1.28 4.15 4.15 0 001.5.4 2.44 2.44 0 001.5-.8 2.4 2.4 0 00.79-1.63 2.85 2.85 0 00-2.5-2.43 3.14 3.14 0 00-1.49.41zm123.78.36a2.4 2.4 0 00-.84 1.78 2.12 2.12 0 00.8 1.77 2.25 2.25 0 001.77.81 2.18 2.18 0 001.76-.8 2.3 2.3 0 00.79-1.76 2.52 2.52 0 00-.61-1.63 2.74 2.74 0 00-1.73-.85 1.72 1.72 0 00-1.94.68zm-36.27 1.53a4.75 4.75 0 00-1.12 1.48 3.68 3.68 0 00.31.81.96.96 0 00.74.54 2.44 2.44 0 011.09.4 1.53 1.53 0 001.32.2 2.77 2.77 0 001.23-.88 2.73 2.73 0 00.5-1.41c0-.4-.1-.74-.22-.74s-.44-.37-.74-.81a1.48 1.48 0 00-1.25-.81c-.49 0-1.07.38-1.86 1.21zm-161.24-.01a2.28 2.28 0 00-.66 1.62 2.07 2.07 0 00.66 1.63 2.19 2.19 0 001.77.67 2.09 2.09 0 001.8-.74 1.65 1.65 0 00.54-1.82 2.43 2.43 0 00-.79-1.54 3.25 3.25 0 00-1.64-.48 2.1 2.1 0 00-1.68.66zm38.89.21a14.58 14.58 0 01-1.02 1.64c-.57.77-.57.77-.03 1.16a1.6 1.6 0 001.22.24 3.07 3.07 0 001.28-.82 2.46 2.46 0 00.62-1.54 2.07 2.07 0 00-.34-1.22 1.32 1.32 0 00-.81-.34c-.26 0-.67.4-.92.89zm85.66-.35a2.06 2.06 0 00-1.04 1.43 3.24 3.24 0 00.13 1.55 2.54 2.54 0 00.9 1.03 3.66 3.66 0 001.43.38 3.44 3.44 0 001.42-.28 2.21 2.21 0 00.87-1 4.35 4.35 0 00.27-1.34 2.47 2.47 0 00-.6-1.36 2.87 2.87 0 00-1.56-.82 2.47 2.47 0 00-1.82.42zm-36.56.65a2.84 2.84 0 00-1.03 1.15 2.3 2.3 0 00-.14 1.56 2.83 2.83 0 00.9 1.3 3.02 3.02 0 001.62.48 2.84 2.84 0 001.37-.34 2.94 2.94 0 001.06-2.22 2.47 2.47 0 00-.6-1.36 2.77 2.77 0 00-1.56-.8 3 3 0 00-1.62.23zm123.66.57a2.28 2.28 0 00-.66 1.62 3.96 3.96 0 00.26 1.5 2.1 2.1 0 00.81.8c.4.2.76.15 1.42-.24a10.96 10.96 0 001.62-1.22 2.24 2.24 0 00.74-1.37 1.62 1.62 0 00-.74-1.22 3.11 3.11 0 00-1.77-.54 2.16 2.16 0 00-1.68.67zm-160.3.19a3.73 3.73 0 00-.87.75 2.71 2.71 0 00-.33 1.36 2.76 2.76 0 00.33 1.38 2.44 2.44 0 003.71.38 1.8 1.8 0 00.81-1.62 2.49 2.49 0 00-.6-1.63 2.79 2.79 0 00-1.56-.81 2.73 2.73 0 00-1.48.19zm123.54.62a2.29 2.29 0 00-.66 1.75 1.8 1.8 0 00.8 1.77 2.74 2.74 0 001.89.67 1.84 1.84 0 001.75-.8 2.43 2.43 0 00-.38-3.7 3.44 3.44 0 00-1.59-.35 2.13 2.13 0 00-1.8.66zm-159.08.3a.86.86 0 00-.04.86 7.64 7.64 0 01.4 1.75c.13.9.32 1.31.65 1.4a1 1 0 00.82-.2 1.28 1.28 0 00.33-.86 6.83 6.83 0 00-.61-1.82 3.8 3.8 0 00-.94-1.4.6.6 0 00-.6.27zm122.3.72a1.86 1.86 0 00-.57 1.82 2.62 2.62 0 00.78 1.43 3.97 3.97 0 001.56.63 1.84 1.84 0 001.62-.37 3.28 3.28 0 00.92-1.18 2.85 2.85 0 00.07-1.38 2.93 2.93 0 00-.79-1.29 2.49 2.49 0 00-1.73-.54 1.91 1.91 0 00-1.85.88zm-157.9.78a5.75 5.75 0 01.2 1.65c0 .55.1 1.01.25 1.01a.47.47 0 00.38-.34 11.4 11.4 0 00.26-1.28c.12-.82.05-.99-.59-1.31-.69-.36-.7-.35-.49.27zm84.77.66a2.34 2.34 0 00-.65 1.6 2.28 2.28 0 00.67 1.6 2.05 2.05 0 001.7.7 4.79 4.79 0 001.45-.21 2.31 2.31 0 00.81-.94 3.6 3.6 0 00.37-1.29 2.68 2.68 0 00-.81-1.34 2.25 2.25 0 00-1.85-.81 2.02 2.02 0 00-1.68.69zm124.56-.22a2.47 2.47 0 00-1 1.41 2.9 2.9 0 00-.02 1.48 3.14 3.14 0 00.73.98 3.64 3.64 0 001.31.62 2.72 2.72 0 001.6-.17 2.76 2.76 0 001.14-1.09 3.48 3.48 0 00.37-1.14 3.8 3.8 0 00-.4-1.22 2.2 2.2 0 00-1.29-1.08 5.5 5.5 0 00-1.28-.26 3.19 3.19 0 00-1.15.47zm-36.96 1.12a2.42 2.42 0 00-.78 1.75 2.03 2.03 0 00.65 1.64 2.25 2.25 0 001.82.68 2.04 2.04 0 001.73-.6 3.77 3.77 0 00.77-1.3 1.98 1.98 0 00-.31-1.53 3.14 3.14 0 00-1.1-1.15 3.73 3.73 0 00-1.3-.28 2.4 2.4 0 00-1.46.79zm-161.11.73a2.57 2.57 0 00-.56 1.48 2.63 2.63 0 00.84 1.59 2.32 2.32 0 001.64.8 2.24 2.24 0 001.62-.8 2.72 2.72 0 00.8-1.35 3.61 3.61 0 00-.37-1.28 2.32 2.32 0 00-.81-.95 4.9 4.9 0 00-1.51-.2 1.78 1.78 0 00-1.64.71zm124.53-.13a3.1 3.1 0 00-.9 1.58c-.16.81-.06 1.06.68 1.82a2.26 2.26 0 001.8.88 2.57 2.57 0 001.69-.65 1.92 1.92 0 00.74-1.75 2.28 2.28 0 00-.54-1.65 3.3 3.3 0 00-1.64-.71 1.84 1.84 0 00-1.82.48zm-36.67.7a2.93 2.93 0 00-.9 1.3 2.3 2.3 0 00.14 1.57 2.75 2.75 0 001.1 1.15 3.63 3.63 0 001.29.36 2.91 2.91 0 001.08-.27 2.77 2.77 0 00.94-1.08 3 3 0 00.28-1.55 2.66 2.66 0 00-.6-1.21 3.3 3.3 0 00-1.57-.64 1.99 1.99 0 00-1.75.37zm124.7-.19a2.72 2.72 0 00-1 .85 2.97 2.97 0 00-.49 1.16 4.75 4.75 0 00.14 1.28 1.92 1.92 0 001 1.15 4.38 4.38 0 001.62.4 2.67 2.67 0 001.55-.65 1.91 1.91 0 00.75-1.75 2.08 2.08 0 00-.68-1.74 3.39 3.39 0 00-1.48-.79 3.12 3.12 0 00-1.4.1zm-161.06.89a3.23 3.23 0 00-.9 1.15 1.75 1.75 0 00.07 1.8 1.87 1.87 0 001.44 1.3 2.21 2.21 0 001.8-.08 2.5 2.5 0 001.17-1.3 1.74 1.74 0 00.02-1.72 2.8 2.8 0 00-1.1-1.14 3.78 3.78 0 00-1.35-.37 2.4 2.4 0 00-1.14.36zm124.13.08a2.6 2.6 0 00-1 .9 2.85 2.85 0 000 2.43 2.9 2.9 0 001.29.97 3.6 3.6 0 001.75.27 2.24 2.24 0 001.29-1.03 3.7 3.7 0 00.54-1.49 2.7 2.7 0 00-.74-1.4 3.21 3.21 0 00-1.57-.9 3.06 3.06 0 00-1.55.25zm-161.15 1.03a2.29 2.29 0 00-.66 1.75 1.58 1.58 0 00.73 1.64 3.22 3.22 0 001.69.55 2.1 2.1 0 001.55-.62 2.31 2.31 0 00.6-1.35 3.88 3.88 0 00-.26-1.35 2.33 2.33 0 00-.94-.94 3.66 3.66 0 00-1.37-.34 2.26 2.26 0 00-1.34.66zm124.08.27a2.34 2.34 0 00-.67 1.48 3.51 3.51 0 00.26 1.36 2.77 2.77 0 001.22.95 2.45 2.45 0 001.89.13 1.83 1.83 0 001.32-1.14 2.94 2.94 0 00.2-1.67 2.62 2.62 0 00-.85-1.28 3.1 3.1 0 00-1.7-.5 2.17 2.17 0 00-1.68.67zM78 109.78a2.22 2.22 0 00-1.12 1.13 3.25 3.25 0 00-.13 1.57 2.57 2.57 0 00.85 1.3 2.97 2.97 0 001.55.5 2.7 2.7 0 001.62-.67 1.88 1.88 0 00.75-1.6 2.05 2.05 0 00-.68-1.62 3.56 3.56 0 00-1.35-.8 2.97 2.97 0 00-1.5.19zm123.74.3a2.77 2.77 0 00-.87 1.42 2.15 2.15 0 00.14 1.75 2.71 2.71 0 00.93 1.01 4.13 4.13 0 001.5.27 2.1 2.1 0 001.62-.67 2.2 2.2 0 00.66-1.62 4.32 4.32 0 00-.2-1.39 2.31 2.31 0 00-.94-.8 4.07 4.07 0 00-1.49-.38 2.87 2.87 0 00-1.36.4zm-36.59.75a2.94 2.94 0 00-1.05 2.22 2.59 2.59 0 00.8 1.48 2.3 2.3 0 001.7.81 2.99 2.99 0 001.42-.36 3.23 3.23 0 00.9-1.15 1.75 1.75 0 00-.07-1.8 2.47 2.47 0 00-1.1-1.27 4.46 4.46 0 00-1.42-.27 2.35 2.35 0 00-1.18.34zm-124.43.58c-.09.24-.28.36-.43.29s-.27.3-.27.88a2.1 2.1 0 00.6 1.62 1.32 1.32 0 001.1.47c.25-.08.46-.23.46-.34a3.45 3.45 0 00-.4-.88 3.16 3.16 0 01-.37-1.4 1.18 1.18 0 00-.27-.9c-.15-.09-.34.03-.43.26zm-36.65.5a1.84 1.84 0 00-.6 1.55 2.35 2.35 0 00.75 1.6 2.25 2.25 0 003.21 0 2.05 2.05 0 00.7-1.61 2.08 2.08 0 00-.61-1.55 2.28 2.28 0 00-1.72-.6 2.21 2.21 0 00-1.74.62zm87.58.98a2.76 2.76 0 00-.79 1.35 3.62 3.62 0 00.25 1.23 2.17 2.17 0 00.88.98 4.1 4.1 0 001.49.32 2.13 2.13 0 001.56-.64 2.05 2.05 0 00.68-1.54 4.16 4.16 0 00-.21-1.31 2.31 2.31 0 00-.95-.81 3.91 3.91 0 00-1.44-.37 2.39 2.39 0 00-1.47.8zm124.12-.12a1.85 1.85 0 00-.88 1.85 2.22 2.22 0 00.63 1.73 2.63 2.63 0 001.74.67 2 2 0 001.83-.6 2.08 2.08 0 00.7-1.76 2.13 2.13 0 00-.61-1.68 3.44 3.44 0 00-1.58-.77 1.86 1.86 0 00-1.84.56zm-160.8.78a1.82 1.82 0 00-.75 1.64 1.88 1.88 0 00.74 1.65 2.55 2.55 0 001.82.65 1.62 1.62 0 001.63-.74 2.92 2.92 0 00.54-1.48 3.56 3.56 0 00-.2-1.19 2.31 2.31 0 00-.95-.8 3.83 3.83 0 00-1.4-.37 2.74 2.74 0 00-1.43.64zm124.9-.37a2.78 2.78 0 00-1.02.86 3.4 3.4 0 00-.43 1.63 1.6 1.6 0 00.75 1.56 3.12 3.12 0 001.77.54 2.17 2.17 0 001.69-.68 2.25 2.25 0 00.66-1.48 3.62 3.62 0 00-.27-1.35 2.77 2.77 0 00-1.22-.95 5.14 5.14 0 00-1.15-.38 4.6 4.6 0 00-.78.25zm-161.6 1.2a2.34 2.34 0 00-.67 1.48 3.65 3.65 0 00.19 1.26 2.32 2.32 0 00.95.81 3.89 3.89 0 001.43.37 2.31 2.31 0 001.35-.68 2.2 2.2 0 00.66-1.61 2.3 2.3 0 00-2.3-2.3 2.1 2.1 0 00-1.62.67zm124.84-.4a2.8 2.8 0 00-1.02.86 3.02 3.02 0 00-.44 1.43 2.4 2.4 0 00.68 1.55 2.02 2.02 0 001.78.75 2.14 2.14 0 001.75-.68 2.24 2.24 0 00.67-1.68 1.97 1.97 0 00-.6-1.6 3.38 3.38 0 00-1.43-.72 2.98 2.98 0 00-1.4.1zm-73.69 1.75a2.5 2.5 0 00-1.01 1.22 2.15 2.15 0 00.13 1.75 1.95 1.95 0 001.28 1.23 2.4 2.4 0 001.7-.03 1.92 1.92 0 001.48-2.14 1.97 1.97 0 00-.6-1.54 3.22 3.22 0 00-1.43-.74 2.6 2.6 0 00-1.55.26zm124.11.16a3.6 3.6 0 00-.87 1.07 2 2 0 00-.3 1.27 10.04 10.04 0 00.48 1.08 2.27 2.27 0 00.92.87 3.79 3.79 0 001.29.27 2.93 2.93 0 001.48-.67 1.87 1.87 0 00.83-1.69 2.14 2.14 0 00-.75-1.76 2.1 2.1 0 00-1.7-.73 3.36 3.36 0 00-1.38.3zm-160.6.66a2.53 2.53 0 00-1.02 1.14 2.34 2.34 0 000 1.62 2.22 2.22 0 00.89 1.18 4.07 4.07 0 001.55.3 1.89 1.89 0 001.56-.72 2.65 2.65 0 00.6-1.5 2.41 2.41 0 00-.6-1.47 3.04 3.04 0 00-1.42-.8 2.63 2.63 0 00-1.56.26zm123.47.52a2.34 2.34 0 00-.66 1.48 3.52 3.52 0 00.25 1.36 2.78 2.78 0 001.22.95 2.98 2.98 0 001.55.24 3.63 3.63 0 001.23-.74 1.97 1.97 0 00.6-1.6 2.33 2.33 0 00-2.45-2.35 2.14 2.14 0 00-1.75.67zm-72.78 1.14a2.39 2.39 0 00-.75.92 3.7 3.7 0 00-.4 1.32 2.68 2.68 0 00.8 1.35 2.25 2.25 0 001.7.8 2.94 2.94 0 001.5-.47 2.32 2.32 0 00.77-1.55 1.63 1.63 0 00-.62-1.83 2.09 2.09 0 00-1.72-.72 5.44 5.44 0 00-1.29.19zm124.36.18a4.07 4.07 0 00-1 1.01 2.84 2.84 0 00-.43 1.26 2.62 2.62 0 00.8 1.41 2.26 2.26 0 001.76.81 4.34 4.34 0 001.39-.2 2.47 2.47 0 00.84-1.01 2.88 2.88 0 00.23-1.69 2.2 2.2 0 00-.77-1.27 4.67 4.67 0 00-1.42-.54 2.2 2.2 0 00-1.4.23zm-161.4 1.05a2.47 2.47 0 00-.64 1.15 8.06 8.06 0 000 1.14 1.55 1.55 0 00.64 1.01c.5.33.89.36 2.03.14.97-.18 1.5-.44 1.69-.8a3.22 3.22 0 00.27-1.22 2.33 2.33 0 00-.67-1.35 2.17 2.17 0 00-1.72-.68 2.03 2.03 0 00-1.61.62zm124.69-.3a3.63 3.63 0 00-.89.74 2.89 2.89 0 00-.34 1.45 2.01 2.01 0 00.75 1.7 2.47 2.47 0 001.49.67 3.83 3.83 0 001.42-.35 2.34 2.34 0 00.94-.94 3.78 3.78 0 00.27-1.28 2.46 2.46 0 00-.6-1.36 2.8 2.8 0 00-1.56-.81 2.85 2.85 0 00-1.49.18zM9.75 120.27a1.85 1.85 0 00-.6 1.55 2.28 2.28 0 002.32 2.22 1.7 1.7 0 001.69-.69 2.66 2.66 0 00.65-1.55 2.19 2.19 0 00-.68-1.48 2.16 2.16 0 00-1.7-.68 2.21 2.21 0 00-1.68.63zm87.59.97a2.77 2.77 0 00-.79 1.35 3.63 3.63 0 00.25 1.23 2.06 2.06 0 00.81.95 1.04 1.04 0 001.1-.07 4.96 4.96 0 001.22-1.62 6.47 6.47 0 00.65-1.68c0-.23-.3-.53-.68-.68a4.08 4.08 0 00-1.24-.27 2.55 2.55 0 00-1.32.79zm-35.88.36a3.83 3.83 0 00-1.06 1.01 1.79 1.79 0 00-.27 1.41 3.19 3.19 0 00.72 1.29 2.16 2.16 0 001.48.53 4.35 4.35 0 001.4-.2 2.3 2.3 0 00.8-.94 3.6 3.6 0 00.37-1.28 2.32 2.32 0 00-.6-1.21 2.94 2.94 0 00-1.42-.82 2.47 2.47 0 00-1.43.2zm123.26.54a2.52 2.52 0 00-.62 1.14 7.74 7.74 0 00-.02 1.01 2.49 2.49 0 00.7 1.15 2.23 2.23 0 001.7.69 2.96 2.96 0 001.63-.48 2.36 2.36 0 00.77-1.56 1.73 1.73 0 00-.55-1.82 2.1 2.1 0 00-1.88-.74 2.04 2.04 0 00-1.73.6zm-160.51.54a1.83 1.83 0 00-.8 1.67 1.87 1.87 0 00.74 1.65 2.66 2.66 0 001.62.66 2.03 2.03 0 001.48-.6 3.45 3.45 0 00.77-1.43 1.54 1.54 0 00-.46-1.56 2.78 2.78 0 00-1.6-.9 1.8 1.8 0 00-1.76.51zm123.94.37a2.54 2.54 0 00-.56 1.75 1.69 1.69 0 00.77 1.6 3.11 3.11 0 001.76.53 1.86 1.86 0 001.69-.82 2.92 2.92 0 00.67-1.48 2.58 2.58 0 00-.8-1.48 2.25 2.25 0 00-1.88-.81 1.78 1.78 0 00-1.66.7zm-73.28 1.42a1.76 1.76 0 00-.64 1.64 1.73 1.73 0 00.67 1.67 4.3 4.3 0 001.22.68 2.48 2.48 0 001.34-.23 3.07 3.07 0 001.19-1.04 2.06 2.06 0 00.21-1.41 2.97 2.97 0 00-.78-1.29 2.44 2.44 0 00-1.59-.54 2.97 2.97 0 00-1.63.52zm124.19.14a1.88 1.88 0 00-.76 1.74 2.27 2.27 0 00.54 1.65 3.27 3.27 0 001.62.71 2.06 2.06 0 001.83-.41 2.54 2.54 0 00.88-1.38 3.09 3.09 0 00-.27-1.61 2.54 2.54 0 00-1.08-1.08 4.35 4.35 0 00-1.34-.27 2.74 2.74 0 00-1.43.65zm-160.71.5a2.87 2.87 0 00-.74 1.08 1.89 1.89 0 00.02 1.48 2.87 2.87 0 00.74 1.07 2.75 2.75 0 001.33.34 3.76 3.76 0 001.42-.27c.42-.2.53-.53.53-1.55a2.78 2.78 0 00-.54-1.88 1.82 1.82 0 00-1.42-.6 2.68 2.68 0 00-1.34.32zm124.04.29a2.29 2.29 0 00-.71 1.72 2.08 2.08 0 00.6 1.64 2.45 2.45 0 001.76.68 2.02 2.02 0 001.69-.49 3.18 3.18 0 00.71-1.48 1.7 1.7 0 00-.47-1.7 2.58 2.58 0 00-1.76-.91 1.65 1.65 0 00-1.82.53zm-72.75 1.3a3.46 3.46 0 00-.89.73 2.54 2.54 0 00-.34 1.32 2.32 2.32 0 002.24 2.22 3.14 3.14 0 001.49-.4 2.79 2.79 0 00.88-1.08 1.9 1.9 0 00-.14-1.61 2.5 2.5 0 00-1.08-1.22 3.7 3.7 0 00-1.15-.26 2.69 2.69 0 00-1.02.3zm-36.77.77a2.39 2.39 0 00-.87.94 3.32 3.32 0 00-.34 1.21 2.36 2.36 0 00.6 1.23 3.09 3.09 0 001.56.84 1.75 1.75 0 001.71-.48 1.99 1.99 0 00.81-1.65 1.93 1.93 0 00-.5-1.55 3.02 3.02 0 00-1.48-.68 3.17 3.17 0 00-1.5.14zm124 .18a2.39 2.39 0 00-.73.92 2.95 2.95 0 00-.27 1.6 2.39 2.39 0 00.87 1.35 3.14 3.14 0 001.63.54 2.7 2.7 0 001.57-.62 2.38 2.38 0 000-3.37 2.41 2.41 0 00-1.71-.58 5.51 5.51 0 00-1.35.15zm-160.83.76a2.76 2.76 0 00-.87 1.08 1.9 1.9 0 00.08 1.55 2.16 2.16 0 001.22 1.21 2.26 2.26 0 001.67.07 2.08 2.08 0 001.08-.8 4.07 4.07 0 00.27-1.5 1.56 1.56 0 00-.74-1.48 2.84 2.84 0 00-1.42-.54 2.77 2.77 0 00-1.3.4zm126.02.88a5.45 5.45 0 01.69 1.41c.1.37.35.68.56.68.25 0 .42-.34.46-.95a1.93 1.93 0 00-.31-1.35 2.12 2.12 0 00-1.16-.47l-.76-.06zm-74.93.68a3.72 3.72 0 00-1.05 1 1.78 1.78 0 00-.27 1.42 3.17 3.17 0 00.71 1.28 2.23 2.23 0 001.56.55 1.95 1.95 0 001.58-.61 3.46 3.46 0 00.73-1.29 2.4 2.4 0 00-.23-1.42 2.35 2.35 0 00-1.27-1.01 7.04 7.04 0 00-1.01-.27 3.83 3.83 0 00-.75.35zm123.62.53a3.09 3.09 0 00-.86 1.42c-.14.64-.01.98.6 1.69a2.16 2.16 0 001.73.92 2.32 2.32 0 001.7-.62 1.84 1.84 0 00.74-1.66 2.2 2.2 0 00-.68-1.68 2.16 2.16 0 00-1.61-.68 2.54 2.54 0 00-1.63.6zm-161 .91a2.3 2.3 0 00-.56 1.22 3.83 3.83 0 00.3 1.1 2.35 2.35 0 00.95.95 3.66 3.66 0 001.36.34 2.3 2.3 0 001.35-.68 2.26 2.26 0 00.67-1.55 2.04 2.04 0 00-.6-1.48 2.29 2.29 0 00-1.75-.6 1.78 1.78 0 00-1.72.7zm124.22-.05a2.27 2.27 0 00-.66 1.62 2.07 2.07 0 00.66 1.63 2.2 2.2 0 001.69.68 2.05 2.05 0 001.69-.7 2.27 2.27 0 00.67-1.65 1.87 1.87 0 00-.74-1.6 2.55 2.55 0 00-1.7-.65 2.1 2.1 0 00-1.61.67zm-73.22 1.58a2.3 2.3 0 00-.7 1.52 2.37 2.37 0 00.6 1.5 3.07 3.07 0 001.41.84 1.8 1.8 0 001.69-.54 1.84 1.84 0 00.89-1.58 2.76 2.76 0 00-.47-1.5 2.4 2.4 0 00-1.6-.77 1.65 1.65 0 00-1.82.53zm123.9.34a2.42 2.42 0 00-.57.96 3.3 3.3 0 00.3.77c.25.51.34.47 1.36-.6.6-.63 1.04-1.27.99-1.42s-.4-.3-.78-.35a1.4 1.4 0 00-1.3.64zm-160.23.03a2.37 2.37 0 00-.74.92 3.69 3.69 0 00-.4 1.32 2.24 2.24 0 00.67 1.22 2.2 2.2 0 001.69.68 2.07 2.07 0 001.61-.6 2.24 2.24 0 00.61-1.5 2.13 2.13 0 00-.67-1.55 2.04 2.04 0 00-1.55-.65 4.73 4.73 0 00-1.22.16zm124.4.08a2.88 2.88 0 00-1.01 1.07 1.89 1.89 0 00-.2 1.77 2.06 2.06 0 001.09 1.34 3.91 3.91 0 001.35.4 2.86 2.86 0 001.35-.67 1.8 1.8 0 00.81-1.62 2.44 2.44 0 00-.6-1.62 2.85 2.85 0 00-1.43-.8 2.92 2.92 0 00-1.36.13zm-161.14.88a2.28 2.28 0 00-.27.74 4.92 4.92 0 00.67 1.75c.4.74.94 1.38 1.2 1.42a1.83 1.83 0 001.15-.6 2.15 2.15 0 00.67-1.62 1.56 1.56 0 00-.74-1.49 3.12 3.12 0 00-1.61-.54 1.49 1.49 0 00-1.07.34zm50.75 1.97a1.78 1.78 0 00-.85 1.56 3.17 3.17 0 00.42 1.46 2.22 2.22 0 001.29.76 3.21 3.21 0 001.66-.2 2.17 2.17 0 001.01-.96 3.9 3.9 0 00.23-1.15 2.25 2.25 0 00-.6-1.2 3.23 3.23 0 00-1.45-.82 1.75 1.75 0 00-1.7.55zm123.64.46a1.75 1.75 0 00-.56 1.68 3.05 3.05 0 00.84 1.42 2.45 2.45 0 001.63.6 2.1 2.1 0 001.62-.67 2.2 2.2 0 00.67-1.62 2.15 2.15 0 00-.68-1.61 2.17 2.17 0 00-1.73-.68 1.86 1.86 0 00-1.79.88zm-159.79-.08a2.83 2.83 0 00-1.01.86 1.82 1.82 0 00.22 2.58 2.2 2.2 0 003.3 0 2.66 2.66 0 00.64-1.41 2.38 2.38 0 00-.6-1.34 2.88 2.88 0 00-1.29-.8 2.58 2.58 0 00-1.26.1zm123.86.28a1.97 1.97 0 00.03 1 9.42 9.42 0 00.64 1.7 4.5 4.5 0 00.9 1.27c.37.29.57.21 1.26-.47a2.58 2.58 0 00.8-1.48 3.25 3.25 0 00-.2-1.12 2.31 2.31 0 00-.94-.8 4.15 4.15 0 00-1.54-.37c-.44 0-.87.12-.95.27zm-73.8 2a2.34 2.34 0 00-.67 1.49 2.09 2.09 0 00.66 1.5 2.16 2.16 0 001.64.67 2.1 2.1 0 001.62-.67 2.25 2.25 0 00.66-1.48 2.19 2.19 0 00-.67-1.49 2.16 2.16 0 00-1.64-.67 2.1 2.1 0 00-1.6.66zm124.25.1a2.52 2.52 0 00-.84 1.65 2.03 2.03 0 00.66 1.5 2.24 2.24 0 001.21.68 3.91 3.91 0 001.35-.4 1.98 1.98 0 001.08-1.42 10.05 10.05 0 00.28-1.28 1.5 1.5 0 00-.47-.74 3.34 3.34 0 00-1.47-.64c-.86-.14-1.1-.06-1.8.65zm-161.02.71a2.29 2.29 0 00-.66 1.22 2.88 2.88 0 00.3 1.16 3.31 3.31 0 00.74.93 2.51 2.51 0 001.24.34 2.92 2.92 0 001.42-.4 1.38 1.38 0 00.6-1.28 4.06 4.06 0 00-.53-1.75 1.4 1.4 0 00-1.5-.88 2.1 2.1 0 00-1.61.67zm124.83-.32a3.72 3.72 0 00-1.02 1.02 1.93 1.93 0 00-.26 1.34 3.45 3.45 0 00.74 1.29 2.02 2.02 0 001.62.6 2.16 2.16 0 001.69-.68 2.25 2.25 0 00.66-1.48 2.52 2.52 0 00-.6-1.48 2.94 2.94 0 00-1.42-.82 2.42 2.42 0 00-1.41.21zm-74.17 2.35a2.45 2.45 0 00-.09 1.16c.06.4.23.74.38.74s.33-.27.4-.6a2.29 2.29 0 01.55-1.02c.24-.22.4-.5.36-.6s-.37-.17-.74-.14a1.13 1.13 0 00-.86.47zm-35.8 0a2.26 2.26 0 00-.88.8 2.85 2.85 0 00-.32 1.23 2.55 2.55 0 00.6 1.38 2.4 2.4 0 003.38 0 2.55 2.55 0 00.61-1.38 2.42 2.42 0 00-.6-1.34 2.52 2.52 0 00-2.79-.69zm123.54.67a2.34 2.34 0 00-.66 1.49 2.48 2.48 0 00.64 1.56 1.9 1.9 0 001.76.74 2.27 2.27 0 001.64-.54 3.15 3.15 0 00.7-1.35 1.76 1.76 0 00-.53-1.68 1.82 1.82 0 00-1.8-.88 2.14 2.14 0 00-1.75.67zm-160.33.27a2.93 2.93 0 00-.86.86 2.87 2.87 0 00-.3 1.11 2.3 2.3 0 003.77 1.42 3.01 3.01 0 00.7-1.22 1.92 1.92 0 00-.27-1.35 2.77 2.77 0 00-1.1-.94 3.44 3.44 0 00-1.02-.26 2.38 2.38 0 00-.92.38zm50.17 2.2a2.57 2.57 0 00-.56 1.5 2.25 2.25 0 00.78 1.45 2.47 2.47 0 001.5.67 2.4 2.4 0 001.56-.82 1.65 1.65 0 00.65-1.68 2.48 2.48 0 00-.74-1.36 2.85 2.85 0 00-1.6-.47 1.8 1.8 0 00-1.59.72zm124.76-.37a3.5 3.5 0 00-.87.73 2.01 2.01 0 00-.34 1.03 3.34 3.34 0 00.33 1.28 2.34 2.34 0 00.95.94 3.79 3.79 0 001.28.27 2.67 2.67 0 001.42-.65 2.19 2.19 0 000-3.28 2.66 2.66 0 00-1.48-.64 3.15 3.15 0 00-1.29.32zM27.32 145.7a2.47 2.47 0 00-.55 1.41 2.6 2.6 0 00.37 1.17 2.8 2.8 0 001.2.74 2.24 2.24 0 001.56.01 2.06 2.06 0 00.94-.8 3.63 3.63 0 00.27-1.35 1.88 1.88 0 00-.6-1.36 2.43 2.43 0 00-1.61-.54 1.77 1.77 0 00-1.58.72zm124.42-.31a2.78 2.78 0 00-.88 1.08 1.9 1.9 0 00.14 1.62 3.49 3.49 0 00.6 1.05 7.16 7.16 0 001.22.27 1.63 1.63 0 001.83-.65 1.76 1.76 0 000-2.96 2.46 2.46 0 00-1.56-.81 2.86 2.86 0 00-1.35.4zm-73.41 1.85a2.3 2.3 0 00-.72 1.58 2 2 0 00.6 1.5 2.73 2.73 0 001.5.67 1.86 1.86 0 001.61-.68 2.29 2.29 0 00.75-1.55 2.2 2.2 0 00-.54-1.34 3.23 3.23 0 00-1.52-.71 1.5 1.5 0 00-1.68.53zm-36.8.84a2.52 2.52 0 00-.68 1.41 2.45 2.45 0 00.46 1.37 2.62 2.62 0 001.43.77 1.74 1.74 0 001.7-.48 1.89 1.89 0 00.78-1.58 1.73 1.73 0 00-.7-1.55 2.72 2.72 0 00-1.53-.6 2.13 2.13 0 00-1.47.66zm125.04-.45a2.14 2.14 0 00-1.03.64 2.62 2.62 0 00-.49 1.62 1.68 1.68 0 00.68 1.6 2.97 2.97 0 001.62.53 2.09 2.09 0 001.62-.71 1.88 1.88 0 00.62-1.56 2.64 2.64 0 00-.68-1.46 2.6 2.6 0 00-1.2-.67 4.83 4.83 0 00-1.14.01zM55.7 150.66a2.18 2.18 0 00-.54 1.42 2.8 2.8 0 00.33 1.36 2.56 2.56 0 001.3.7 2.28 2.28 0 001.48-.05 3.15 3.15 0 00.87-.71 2.45 2.45 0 00.34-1.24 1.98 1.98 0 00-.6-1.4 2.26 2.26 0 00-1.63-.61 2.15 2.15 0 00-1.55.53zm124.1-.07a2.63 2.63 0 00-.73 1.42 1.85 1.85 0 00.37 1.62 2.86 2.86 0 001.38.87 2.36 2.36 0 001.66-.2 1.94 1.94 0 001-1.14 4.18 4.18 0 00.12-1.28 2.43 2.43 0 00-.73-1.15 2.39 2.39 0 00-1.57-.6 2.78 2.78 0 00-1.5.47zm-160.86.88a2.16 2.16 0 00-.54 1.35 2.2 2.2 0 00.68 1.48 2.23 2.23 0 001.55.68 2.05 2.05 0 001.48-.6 2.24 2.24 0 00.61-1.5 2.1 2.1 0 00-.53-1.41 2.71 2.71 0 00-3.25 0zm50.82 1.7a1.83 1.83 0 00-.6 1.41 2.9 2.9 0 00.52 1.41 2.7 2.7 0 001.43.79 1.53 1.53 0 001.69-.55 2.15 2.15 0 00.74-1.53 2.19 2.19 0 00-.67-1.48 2.16 2.16 0 00-1.58-.67 2.2 2.2 0 00-1.54.62zm-36.63.85a2.35 2.35 0 00-.65 1.41 2.28 2.28 0 00.32 1.19 3.3 3.3 0 00.94.74 2.24 2.24 0 001.46.1 2.33 2.33 0 001.22-.73 2.98 2.98 0 00.37-1.42 1.57 1.57 0 00-.75-1.42 2.96 2.96 0 00-1.5-.54 2.29 2.29 0 00-1.4.67zm124.26.1a2.8 2.8 0 00-.84 1.5 2.31 2.31 0 00.8 1.5 2.52 2.52 0 001.55.83 2.49 2.49 0 001.48-.68 2.04 2.04 0 00.15-3.03 3.51 3.51 0 00-1.47-.77c-.72-.14-.99-.04-1.67.65zM48 156.06a2.17 2.17 0 00-.88.79 3.17 3.17 0 00-.33 1.36 1.56 1.56 0 00.75 1.36 2.95 2.95 0 001.5.54 2.3 2.3 0 001.42-.68 2.35 2.35 0 00.66-1.35 2.32 2.32 0 00-.61-1.32 2.98 2.98 0 00-1.28-.79 2.48 2.48 0 00-1.23.1zm123.54.66a2.33 2.33 0 00-.66 1.48 2.1 2.1 0 00.66 1.5 2.16 2.16 0 001.64.67 2.1 2.1 0 001.62-.67 2.42 2.42 0 00.67-1.42 2.47 2.47 0 00-.68-1.48 1.98 1.98 0 00-1.64-.74 2.1 2.1 0 00-1.6.66zm-160.69.32c-.26.1-.37.48-.33 1.2a5.4 5.4 0 00.39 1.74 1.77 1.77 0 00.74.82 2.95 2.95 0 001.15-.02c.63-.12.74-.28.75-1.02a2.8 2.8 0 00-.88-1.87 3.53 3.53 0 00-1.15-1 2.68 2.68 0 00-.66.15zm50.55 2a1.6 1.6 0 00-.6 1.47 2.53 2.53 0 00.58 1.48 2.04 2.04 0 001.02.57 7.76 7.76 0 001.01-.03 2.53 2.53 0 001.16-.63 2.02 2.02 0 00.6-1.33 2.36 2.36 0 00-.68-1.41 2.16 2.16 0 00-1.56-.68 2.63 2.63 0 00-1.53.55zm124.2.65a1.76 1.76 0 00-.32 1.02c.06.18.3-.06.54-.54a2.4 2.4 0 01.8-1c.18-.05.12-.12-.14-.13a1.26 1.26 0 00-.88.66zm-160.7.14a2.14 2.14 0 00-.54 1.48 1.88 1.88 0 00.6 1.5 2.5 2.5 0 001.42.54 2.8 2.8 0 001.49-.52 2.04 2.04 0 000-3.04 2.86 2.86 0 00-1.55-.51 2.24 2.24 0 00-1.42.55zm14.2 2.45a1.53 1.53 0 00-.72 1.41 2.9 2.9 0 00.5 1.49 1.81 1.81 0 001.52.67 1.72 1.72 0 001.69-.7 2.57 2.57 0 00.65-1.28 3.15 3.15 0 00-2.26-2.16 2.82 2.82 0 00-1.37.57zm123.92.33a1.78 1.78 0 00-.59 1.48 2.34 2.34 0 00.8 1.55 2.47 2.47 0 001.5.67 2.4 2.4 0 001.56-.82 2.81 2.81 0 00.8-1.21 3.48 3.48 0 00-.38-1.15 2.3 2.3 0 00-.8-.94 4.13 4.13 0 00-1.35-.2 2.2 2.2 0 00-1.54.62zm-109.5 2.1a2.66 2.66 0 00-.74.93 1.56 1.56 0 00-.01 1.4 2.9 2.9 0 00.74 1.07 2.58 2.58 0 002.52 0 2.68 2.68 0 00.71-1 1.84 1.84 0 00-.06-1.48 2.11 2.11 0 00-.78-1.02 3.52 3.52 0 00-1.2-.19 2.66 2.66 0 00-1.18.3zm123.7.36a2.34 2.34 0 00-.66 1.48 2.09 2.09 0 00.66 1.5 2.34 2.34 0 001.35.68 2 2 0 001.18-.47 4.59 4.59 0 00.81-1.08 3.06 3.06 0 00.31-1.15 1.76 1.76 0 00-.74-1.09 2.95 2.95 0 00-1.5-.53 2.28 2.28 0 00-1.41.67zm-159.4.52a.64.64 0 01-.83.14c-.35-.18-.54-.1-.74.3a3.52 3.52 0 00-.28 1.28 1.8 1.8 0 00.47 1.19 2.4 2.4 0 001.15.52 3.33 3.33 0 001.56-.38c.74-.38.88-.6.88-1.4a2.14 2.14 0 00-.54-1.48 1.8 1.8 0 00-.92-.54 1.24 1.24 0 00-.75.38zm49.73 1.58a2.86 2.86 0 00-.74 1.08 2.1 2.1 0 00-.1 1.22 3.48 3.48 0 00.6.93c.4.42.5.42 1.12.07a4.71 4.71 0 001.15-1 2.82 2.82 0 00.47-1.48c0-.54-.16-.93-.41-1.02a3.91 3.91 0 00-1.02-.13 2.08 2.08 0 00-1.07.34zm-36.98 1.1a1.76 1.76 0 00-.58 1.42 2.95 2.95 0 00.25 1.09 2.54 2.54 0 00.8.6 3.37 3.37 0 001.3.32 2.02 2.02 0 001.2-.54 2.14 2.14 0 00.55-1.49 1.56 1.56 0 00-.74-1.49 2.87 2.87 0 00-1.45-.54 2.32 2.32 0 00-1.33.63zm14.93 2.09a2.04 2.04 0 00-.82.56 3.8 3.8 0 00-.46 1.04 1.46 1.46 0 00.45 1.44 1.97 1.97 0 001.67.81 1.52 1.52 0 001.57-.63 2.58 2.58 0 00.52-1.35 2.33 2.33 0 00-.35-1.14 2.5 2.5 0 00-1.18-.7 2.74 2.74 0 00-1.4-.03zm123.63.55a1.56 1.56 0 00-.73 1.55 2.3 2.3 0 00.5 1.46 3.33 3.33 0 001.43.65 1.5 1.5 0 001.69-.54 2.15 2.15 0 00.74-1.53 2.19 2.19 0 00-.68-1.48 2.24 2.24 0 00-1.44-.67 3 3 0 00-1.52.56zM59.2 173.07a2.7 2.7 0 00-.76 1 1.61 1.61 0 00-.04 1.4 2.31 2.31 0 00.96 1 3.4 3.4 0 001.15.35 2.65 2.65 0 001.22-.54 1.87 1.87 0 000-2.98 2.78 2.78 0 00-1.42-.53 2.52 2.52 0 00-1.12.3zm-36.5.81a2.68 2.68 0 00-.75 1 1.61 1.61 0 00-.04 1.4 2.31 2.31 0 00.96 1 3.41 3.41 0 001.23.34 2.23 2.23 0 001.22-.67 1.7 1.7 0 00-.02-2.7 2.2 2.2 0 00-1.42-.67 2.66 2.66 0 00-1.18.3zm14.22 2.45a2.46 2.46 0 00-.87 1.06 1.72 1.72 0 00-.07 1.45 2.04 2.04 0 00.81.94 3.63 3.63 0 001.35.27 1.56 1.56 0 001.36-.74 2.65 2.65 0 00.54-1.21 2.7 2.7 0 00-.2-.91 2.31 2.31 0 00-.95-.81 3.12 3.12 0 00-1.08-.35 2.73 2.73 0 00-.89.3zm13.65 3.09a2.38 2.38 0 00-.56 1.28 2.28 2.28 0 00.56 1.17 2.85 2.85 0 001.16.77 2.03 2.03 0 002.3-1.16 1.68 1.68 0 00.07-1.5 2.11 2.11 0 00-.82-1 3.6 3.6 0 00-1.33-.27 1.75 1.75 0 00-1.38.7zm-34.92.6l.53 1.32c.26.63.56 1.15.67 1.15s.32-.26.47-.55a1.35 1.35 0 00-.07-1.26 1.2 1.2 0 00-1-.77c-.35-.02-.62.04-.6.12zm12.72 2.22a2.69 2.69 0 00-.75 1 1.48 1.48 0 00.03 1.47 1.94 1.94 0 001.23 1.01 2.04 2.04 0 002.55-1.12 2.98 2.98 0 00.07-1.25 1.84 1.84 0 00-.93-1.01 3.62 3.62 0 00-1.29-.4 2.05 2.05 0 00-.9.3zm13.97 2.8a2.68 2.68 0 00-.59 1.15 1.59 1.59 0 00.37 1.41 2 2 0 001.45.75 2.8 2.8 0 001.52-.33c.46-.32.61-.68.61-1.5s-.14-1.17-.6-1.48a3.1 3.1 0 00-1.47-.4 2.18 2.18 0 00-1.28.4zm14.09 2.95c-.53.5-.66.81-.5 1.16.2.4.32.3.82-.6a3.37 3.37 0 00.5-1.17c-.06-.04-.43.24-.82.61zm-36.54.54a2.36 2.36 0 00-.67 1.15 2.55 2.55 0 00.53 1.22 1.62 1.62 0 001.63.74c.82 0 1.17-.14 1.49-.6a2.84 2.84 0 00.4-1.35 1.6 1.6 0 00-.74-1.29 2.76 2.76 0 00-1.37-.54 2.24 2.24 0 00-1.27.67zm14.4 2.19a1.93 1.93 0 00-.93 1.13 2.08 2.08 0 00.2 1.4 2.54 2.54 0 001.26.94 1.38 1.38 0 001.62-.29 2.16 2.16 0 00.83-1.34 1.88 1.88 0 00-.4-1.36 2.52 2.52 0 00-1.17-.73 2.48 2.48 0 00-1.41.26zm13.85 2.81a1.9 1.9 0 001.48 3.24 1.57 1.57 0 001.5-.74 2.65 2.65 0 00.54-1.22 2.3 2.3 0 00-.68-1.14 2.2 2.2 0 00-1.49-.68 2.18 2.18 0 00-1.35.55zm-22.53 3.33a2.45 2.45 0 00-.7 1.38 1.96 1.96 0 00.52 1.22 2.32 2.32 0 002.97 0 1.98 1.98 0 00.56-1.14 2.23 2.23 0 00-.48-1.22 2.62 2.62 0 00-1.33-.77 1.4 1.4 0 00-1.54.53zm14.15 2.6a2.16 2.16 0 00-.54 1.35 1.55 1.55 0 00.74 1.35 2.82 2.82 0 001.28.56 2.44 2.44 0 001.19-.49 1.9 1.9 0 000-2.85 2.62 2.62 0 00-1.39-.47 2.14 2.14 0 00-1.28.56zm-7.57 5.32a3.4 3.4 0 00-.89.58 1.77 1.77 0 00-.47 1.18 2.13 2.13 0 00.55 1.28 2.22 2.22 0 001.42.55 2.04 2.04 0 001.34-.48 2.18 2.18 0 00.48-1.29 1.85 1.85 0 00-.46-1.24 2.93 2.93 0 00-1.03-.59 1.9 1.9 0 00-.94.02zm5 8.92a1.86 1.86 0 00-.46 1.29 2.05 2.05 0 00.52 1.23.9.9 0 001.09.2 2.46 2.46 0 001.01-1.2 3.03 3.03 0 00.27-1.47c-.1-.4-.36-.54-1.04-.54a2.18 2.18 0 00-1.4.5zm-8.06 5.92a3.56 3.56 0 00.43 1.68 5.64 5.64 0 00.86 1.42c.16.11.6-.15 1.03-.61a3.03 3.03 0 00.75-1.15 2.65 2.65 0 00-.54-1.07 1.57 1.57 0 00-1.47-.75c-.65.01-.96.16-1.06.49z"/><path class="a" d="M118.22 156.12a8.49 8.49 0 014.28-.85h33.37a2.71 2.71 0 012.28 1.14 2.37 2.37 0 01.58 2.28l-23.68 192.82a4.97 4.97 0 01-1.42 2.56 3.08 3.08 0 01-2.29.86H99.11q-3.14 0-3.14-3.42l19.4-156.31a1.64 1.64 0 00-.57-1.14.93.93 0 00-1.14-.29l-28.24 7.7-1.14.29q-2.56 0-2-3.14l2-24.53a5.95 5.95 0 013.14-4zm181.06 110.96a61.43 61.43 0 013.42 21.1q0 2.57-.57 8.28-2.57 17.68-10.55 29.37a65.46 65.46 0 01-25.1 23.1q-15.69 8.28-36.23 8.28-19.4 0-33.94-7.99a44.15 44.15 0 01-20.25-23.67 59.66 59.66 0 01-3.42-20.54q0-3.14.57-8.84a74.9 74.9 0 019.98-29.38 45.7 45.7 0 0115.69-16.26q1.42-.86.28-2a46.53 46.53 0 01-9.7-13.7 47.47 47.47 0 01-3.7-18.52 62.34 62.34 0 014-22.25 63 63 0 0111.7-19.11 62.25 62.25 0 0123.38-17.12 75.62 75.62 0 0130.8-6.27q16.83 0 29.1 6.27 12.55 6.28 18.82 17.12a48.48 48.48 0 017.42 26.52 58.13 58.13 0 01-10.84 34.23 53.43 53.43 0 01-12.84 12.55q-1.42 1.14-.28 2a34.47 34.47 0 0112.26 16.83zm-70.17-68.46a27.37 27.37 0 00-4.28 11.98 28.88 28.88 0 00-.28 4.57 28.15 28.15 0 002 10.26q5.13 10.27 18.54 10.27t21.39-10.27a30.1 30.1 0 005.42-15.12 17 17 0 00.29-3.7 30.14 30.14 0 00-1.44-8.27 17.84 17.84 0 00-7.41-8.84q-4.85-3.43-12.55-3.43a24.94 24.94 0 00-12.55 3.43 23.4 23.4 0 00-9.13 9.12zm26.53 114.1q7.98-10.56 7.98-25.68a37.7 37.7 0 00-2-11.98q-4.84-11.98-19.96-11.98-14.26 0-21.96 11.7-6.85 9.7-6.85 24.24a28.31 28.31 0 002.85 12.84q5.14 10.84 18.83 10.84 13.4 0 21.1-9.99z"/><path class="a" d="M118.22 156.12l1.66 3.65.2-.1.2-.12zm39.93.29l-3.2 2.4.18.23.2.2zm.58 2.28l-3.93-.78-.03.14-.02.15zm-23.68 192.82l3.92.78.03-.15.02-.15zm-1.42 2.56l-2.83-2.83zm-37.65-2.56L92 351l-.03.25v.25zm19.4-156.31l3.96.5.04-.25v-.25zm-.58-1.14l-2.82 2.83zm-1.14-.29l1.06 3.86.38-.1.35-.18zm-28.23 7.7l.97 3.88h.04l.04-.02zm-1.15.29v4h.5l.48-.12zm-2-3.14l3.94.72.04-.2.01-.2zm2-24.53l-3.9-.87-.06.27-.02.28zm3.14-4l-1.65-3.63-.15.06-.14.08zm32.87-10.54a2 2 0 01.5-.15 8.93 8.93 0 011.72-.13v-8a12.32 12.32 0 00-6.34 1.42zm2.22-.28h33.37v-8H122.5zm33.37 0a1.2 1.2 0 01-.5-.14 1.18 1.18 0 01-.42-.32l6.4-4.8a6.7 6.7 0 00-5.48-2.74zm-.55-.03a1.89 1.89 0 01-.48-.86 1.27 1.27 0 01-.04-.48l7.84 1.57a6.35 6.35 0 00-1.66-5.9zm-.58-1.04l-23.67 192.82 7.94.97 23.67-192.81zm-23.62 192.52a1 1 0 01-.33.53l5.65 5.65a8.97 8.97 0 002.52-4.6zm-.33.53a1.2 1.2 0 01.42-.28c.14-.05.2-.04.12-.04v8a7.08 7.08 0 005.11-2.03zm.54-.32H99.11v8h32.23zm-32.23 0c-.17 0-.15-.02 0 .03a1.58 1.58 0 01.6.41c.41.45.27.74.27.14h-8a7.63 7.63 0 001.83 5.27 7 7 0 005.3 2.15zm.83 1.07l19.4-156.3-7.94-1L92 351.02zm19.43-156.8a5.62 5.62 0 00-1.74-3.97l-5.66 5.66a2.44 2.44 0 01-.6-1.7zm-1.74-3.97a5.25 5.25 0 00-2.43-1.4 4.8 4.8 0 00-3.33.37l3.58 7.15a3.2 3.2 0 01-2.2.23 2.77 2.77 0 01-1.28-.7zm-5.02-1.32l-28.24 7.7 2.1 7.72 28.24-7.7zm-28.16 7.68l-1.14.29 1.94 7.76 1.14-.28zm-.17.17a1.5 1.5 0 01.53.14 2.46 2.46 0 011.06.93 1.89 1.89 0 01.31.8c0 .07-.01-.01.04-.3l-7.87-1.43a7.21 7.21 0 00.77 5.21 5.91 5.91 0 005.16 2.64zm2 1.19l2-24.53-7.98-.65-2 24.53zm1.9-23.99a1.99 1.99 0 011.18-1.36l-3.88-7a9.94 9.94 0 00-5.1 6.63zm.9-1.22l30.8-13.97-3.31-7.29-30.8 13.98zm210.2 93.34l-3.77 1.32v.02l.01.03zm2.85 29.38l3.96.57.01-.09.01-.08zm-10.55 29.38l-3.3-2.26-.04.06-.04.07zm-25.1 23.1l1.87 3.53h.02zm-70.17.28l-1.97 3.48.02.01.03.02zm-20.25-23.67l-3.76 1.36v.03zm-2.85-29.38l-3.97-.5v.1zm9.98-29.38l3.44 2.05.03-.05.03-.05zm15.7-16.26l-2.07-3.43-.05.03-.04.03zm.28-2l2.82-2.83-.03-.04-.04-.03zm-9.7-13.7l-3.7 1.56.05.1.04.1zm.28-40.77l-3.72-1.47v.03l-.02.02zm11.7-19.11l2.98 2.67.04-.04.04-.05zm23.4-17.11l1.57 3.67h.02l.01-.01zm59.9 0l-1.83 3.56h.02l.01.01zm18.8 17.1l-3.46 2 .04.08.04.07zm-3.42 60.76l3.21 2.38.03-.04.03-.03zm-12.84 12.55l-2.24-3.3-.13.08-.12.1zm-.28 2l-2.4 3.2.02.02h.01zm-57.9-51.62l3.33 2.22.07-.12.07-.12zm-4.28 11.98l3.95.65.01-.08.01-.08zm1.71 14.83l-3.73 1.45.07.17.08.17zm39.93 0l3.16 2.45.04-.05.04-.05zm5.42-15.12l-3.88-.97-.07.29-.03.3zm-1.14-11.98l3.84-1.13-.05-.18-.07-.18zm-7.41-8.84l-2.31 3.26.1.08.12.07zm-25.1 0l1.92 3.5.03-.02.03-.01zm17.4 123.22l3.16 2.44.01-.02.02-.01zm5.99-37.66l3.8-1.26-.05-.12-.05-.12zm-41.93-.28l3.26 2.3.04-.05.04-.05zm-4 37.08l3.62-1.71-.02-.04-.02-.04zm79.82-43.41a57.46 57.46 0 013.18 19.74h8a65.43 65.43 0 00-3.66-22.48zm3.18 19.74c0 1.5-.17 4.08-.55 7.87l7.96.8c.38-3.82.59-6.74.59-8.67zm-.53 7.7c-1.65 11.34-5 20.51-9.9 27.7l6.6 4.5c5.75-8.4 9.44-18.81 11.22-31.05zm-9.98 27.82a61.47 61.47 0 01-23.6 21.7l3.78 7.06a69.46 69.46 0 0026.6-24.5zm-23.58 21.7c-9.8 5.16-21.21 7.8-34.36 7.8v8c14.24 0 26.97-2.87 38.1-8.73zm-34.36 7.8c-12.37 0-23-2.54-32.02-7.49l-3.85 7c10.38 5.7 22.38 8.49 35.87 8.49zm-31.96-7.46a40.16 40.16 0 01-18.48-21.59l-7.5 2.78a48.16 48.16 0 0022.02 25.77zm-18.47-21.56a55.67 55.67 0 01-3.19-19.17h-8a63.66 63.66 0 003.67 21.9zm-3.19-19.17c0-1.9.18-4.69.56-8.45l-7.96-.8c-.39 3.85-.6 6.95-.6 9.24zm.54-8.35a70.91 70.91 0 019.45-27.83l-6.87-4.1a78.88 78.88 0 00-10.51 30.93zm9.51-27.92a41.72 41.72 0 0114.35-14.84l-4.3-6.74a49.7 49.7 0 00-17.03 17.67zm14.25-14.78a5.37 5.37 0 002.69-3.8 5.26 5.26 0 00-1.63-4.46l-5.66 5.66a2.09 2.09 0 01-.38-.58 3.1 3.1 0 01-.25-1.74 3.06 3.06 0 01.68-1.54 1.86 1.86 0 01.44-.4zm.99-8.33a42.55 42.55 0 01-8.85-12.53l-7.2 3.48a50.49 50.49 0 0010.54 14.85zm-8.77-12.34a43.47 43.47 0 01-3.4-17h-8a51.47 51.47 0 004.02 20.1zm-3.4-17a58.36 58.36 0 013.74-20.83l-7.48-2.83a66.35 66.35 0 00-4.26 23.67zm3.72-20.77a58.98 58.98 0 0110.95-17.91l-5.95-5.34a66.97 66.97 0 00-12.44 20.31zm11.02-18a58.28 58.28 0 0121.92-16.02l-3.16-7.36a66.26 66.26 0 00-24.86 18.21zm21.95-16.04a71.62 71.62 0 0129.2-5.93v-8a79.63 79.63 0 00-32.42 6.6zm29.2-5.93c10.72 0 19.77 2 27.27 5.83l3.64-7.12c-8.85-4.53-19.2-6.71-30.91-6.71zm27.3 5.85c7.75 3.88 13.4 9.07 17.15 15.54l6.92-4.01c-4.62-7.98-11.52-14.2-20.5-18.69zm17.23 15.68a44.48 44.48 0 016.8 24.38h8a52.47 52.47 0 00-8.04-28.67zm6.8 24.38a54.13 54.13 0 01-10.11 31.93l6.54 4.6a62.12 62.12 0 0011.57-36.53zm-10.06 31.85a49.42 49.42 0 01-11.87 11.62l4.5 6.62a57.36 57.36 0 0013.8-13.48zm-12.11 11.8a5.78 5.78 0 00-2.24 3.64 4.96 4.96 0 002.05 4.69l4.8-6.4a2.64 2.64 0 01.72.86 3.24 3.24 0 01.35 1.98 2.86 2.86 0 01-.5 1.28 2.48 2.48 0 01-.18.2zm-.15 8.36a30.47 30.47 0 0110.86 14.92l7.54-2.65a38.47 38.47 0 00-13.67-18.72zm-58.87-57.08a31.39 31.39 0 00-4.92 13.7l7.94 1a23.4 23.4 0 013.64-10.26zm-4.9 13.55a32.78 32.78 0 00-.34 5.22h8a25.29 25.29 0 01.24-3.91zm-.34 5.22a32.14 32.14 0 002.27 11.71l7.46-2.9a24.14 24.14 0 01-1.73-8.81zm2.42 12.05a21.43 21.43 0 008.85 9.42 27.08 27.08 0 0013.27 3.06v-8a19.16 19.16 0 01-9.4-2.06 13.43 13.43 0 01-5.56-6zm22.12 12.48c10.13 0 18.44-3.96 24.55-11.81l-6.31-4.91c-4.54 5.84-10.5 8.72-18.24 8.72zm24.63-11.91a34.1 34.1 0 006.16-17.09l-7.96-.77a26.12 26.12 0 01-4.67 13.15zm6.06-16.5a20.5 20.5 0 00.4-4.68h-8a14.4 14.4 0 01-.16 2.74zm.4-4.68a34 34 0 00-1.58-9.4l-7.68 2.26a26.3 26.3 0 011.27 7.14zm-1.7-9.76a21.85 21.85 0 00-9.05-10.77l-4.17 6.83a13.85 13.85 0 015.79 6.91zm-8.82-10.62c-4.09-2.88-9.14-4.16-14.86-4.16v8c4.55 0 7.86 1.01 10.24 2.7zm-14.86-4.16a28.93 28.93 0 00-14.53 3.95l3.96 6.95a20.94 20.94 0 0110.57-2.9zM236.31 186a27.4 27.4 0 00-10.67 10.65l6.95 3.97a19.4 19.4 0 017.58-7.6zm22.52 129.14c5.92-7.83 8.8-17.27 8.8-28.09h-8c0 9.34-2.45 17.02-7.18 23.26zm8.8-28.09a41.68 41.68 0 00-2.2-13.24l-7.6 2.53a33.7 33.7 0 011.8 10.71zm-2.3-13.48a21.92 21.92 0 00-9.06-10.91c-4.1-2.47-9.05-3.56-14.6-3.56v8c4.52 0 7.94.9 10.49 2.42a13.95 13.95 0 015.76 7.06zm-23.66-14.47c-10.83 0-19.42 4.54-25.3 13.49l6.68 4.4c4.37-6.65 10.43-9.9 18.62-9.9zm-25.23 13.38c-5.14 7.28-7.58 16.22-7.58 26.55h8c0-9.06 2.12-16.28 6.11-21.93zm-7.59 26.56a32.29 32.29 0 003.28 14.62l7.15-3.57a24.3 24.3 0 01-2.43-11.05zm3.24 14.55a21.9 21.9 0 008.9 9.88 26.78 26.78 0 0013.54 3.24v-8a18.87 18.87 0 01-9.56-2.17 13.92 13.92 0 01-5.65-6.38zm22.44 13.12c10.09 0 18.33-3.83 24.28-11.54l-6.34-4.88c-4.32 5.6-10.15 8.42-17.94 8.42z"/><path d="M114.22 149.12a8.49 8.49 0 014.28-.85h33.37a2.71 2.71 0 012.28 1.14 2.37 2.37 0 01.58 2.28l-23.68 192.82a4.97 4.97 0 01-1.42 2.56 3.08 3.08 0 01-2.29.86H95.11q-3.14 0-3.14-3.42l19.4-156.31a1.64 1.64 0 00-.57-1.14.93.93 0 00-1.14-.29l-28.24 7.7-1.14.29q-2.56 0-2-3.14l2-24.53a5.95 5.95 0 013.14-4zm181.06 110.96a61.43 61.43 0 013.42 21.1q0 2.57-.57 8.28-2.57 17.68-10.55 29.37a65.46 65.46 0 01-25.1 23.1q-15.69 8.28-36.23 8.28-19.4 0-33.94-7.99a44.15 44.15 0 01-20.25-23.67 59.66 59.66 0 01-3.42-20.54q0-3.14.57-8.84a74.9 74.9 0 019.98-29.38 45.7 45.7 0 0115.69-16.26q1.42-.86.28-2a46.53 46.53 0 01-9.7-13.7 47.47 47.47 0 01-3.7-18.52 62.34 62.34 0 014-22.25 63 63 0 0111.7-19.11 62.25 62.25 0 0123.38-17.12 75.62 75.62 0 0130.8-6.27q16.83 0 29.1 6.27 12.55 6.28 18.82 17.12a48.48 48.48 0 017.42 26.52 58.13 58.13 0 01-10.84 34.23 53.43 53.43 0 01-12.84 12.55q-1.42 1.14-.28 2a34.47 34.47 0 0112.26 16.83zm-70.17-68.46a27.37 27.37 0 00-4.28 11.98 28.87 28.87 0 00-.28 4.57 28.15 28.15 0 002 10.26q5.13 10.27 18.54 10.27t21.39-10.27a30.1 30.1 0 005.42-15.12 17.01 17.01 0 00.29-3.7 30.14 30.14 0 00-1.44-8.27 17.84 17.84 0 00-7.41-8.84q-4.85-3.43-12.55-3.43a24.94 24.94 0 00-12.55 3.43 23.4 23.4 0 00-9.13 9.12zm26.53 114.1q7.98-10.56 7.98-25.68a37.7 37.7 0 00-2-11.98q-4.84-11.98-19.96-11.98-14.26 0-21.96 11.7-6.85 9.7-6.85 24.24a28.3 28.3 0 002.85 12.84q5.14 10.84 18.83 10.84 13.4 0 21.1-9.99z" fill="#0a1c2b"/><path class="a" d="M114.22 149.12l1.24 2.73.16-.07.15-.08zm39.93.29l-2.4 1.8.13.17.15.15zm.58 2.28l-2.95-.59-.02.11-.01.11zm-23.68 192.82l2.94.58.03-.1.01-.12zm-1.42 2.56l-2.13-2.12zm-37.65-2.56l-2.98-.37-.02.18v.19zm19.4-156.31l2.97.37.03-.19v-.18zm-.58-1.14l-2.12 2.12zm-1.14-.29l.8 2.9.28-.08.27-.13zm-28.23 7.7l.72 2.91h.03l.04-.01zm-1.15.29v3h.37l.36-.09zm-2-3.14l2.96.54.02-.15.01-.15zm2-24.53l-2.92-.65-.05.2-.02.2zm3.14-4l-1.24-2.72-.1.05-.11.06zm32.35-11.4a5.9 5.9 0 012.74-.42v-6a11.36 11.36 0 00-5.83 1.28zm2.74-.42h33.37v-6H118.5zm33.37 0h.02a.38.38 0 01-.08-.03.39.39 0 01-.08-.05l.02.02 4.8-3.6a5.7 5.7 0 00-4.68-2.34zm.16.26a.82.82 0 01-.13-.17.93.93 0 01-.09-.22c-.04-.14 0-.18-.03-.04l5.88 1.18a5.36 5.36 0 00-1.39-5zm-.29-.2l-23.68 192.81 5.96.73 23.67-192.81zm-23.64 192.59a2 2 0 01-.6 1.03l4.24 4.25a7.97 7.97 0 002.24-4.1zm-.6 1.03a.2.2 0 01.03-.03.16.16 0 01.03-.01.77.77 0 01-.23.02v6a6.08 6.08 0 004.4-1.73zm-.17-.02H95.11v6h32.23zm-32.23 0a1.24 1.24 0 01-.35-.03.4.4 0 01.08.04.7.7 0 01.13.1c.08.1.09.15.07.09a2.24 2.24 0 01-.07-.62h-6a6.64 6.64 0 001.58 4.59 6 6 0 004.56 1.83zm-.16-.05l19.4-156.31-5.95-.74L89 344.13zm19.42-156.68a4.61 4.61 0 00-1.45-3.26l-4.24 4.24a1.5 1.5 0 01-.31-.98zm-1.45-3.26a4.24 4.24 0 00-1.96-1.15 3.8 3.8 0 00-2.64.3l2.68 5.37a2.2 2.2 0 01-1.5.15 1.79 1.79 0 01-.82-.43zm-4.05-1.06l-28.24 7.7 1.58 5.79 28.24-7.7zm-28.18 7.68l-1.14.29 1.46 5.82 1.14-.28zm-.41.2c-.14 0-.06-.02.12.06a1.47 1.47 0 01.63.55 1 1 0 01.15.36 2.38 2.38 0 01.05-.57l-5.9-1.07a6.22 6.22 0 00.64 4.5 4.92 4.92 0 004.31 2.17zm1 .11l2-24.53-5.99-.49-2 24.53zm1.93-24.12a2.97 2.97 0 011.66-2.02l-2.91-5.25a8.94 8.94 0 00-4.6 5.97zm1.44-1.92l30.8-13.98-2.48-5.46-30.8 13.98zm210.63 94.25l-2.84.99.01.02v.01zm2.85 29.38l2.97.43v-.07l.01-.07zm-10.56 29.37l-2.47-1.7-.04.06-.03.05zm-25.1 23.1l1.4 2.65h.02zm-70.16.28l-1.48 2.61.01.01.02.01zm-20.26-23.67l-2.82 1.03v.02zm-2.85-29.37l-2.98-.38v.08zm9.98-29.38l2.58 1.53.02-.03.02-.04zm15.7-16.26l-1.55-2.57-.03.02-.04.02zm.28-2l2.12-2.12-.03-.03-.02-.03zm-9.7-13.7l-2.77 1.17.03.07.04.07zm.3-40.77l-2.8-1.1v.02l-.01.02zm11.7-19.11l2.23 2 .03-.03.02-.04zm23.38-17.11l1.18 2.75h.02l.01-.01zm59.9 0l-1.36 2.67h.02zm18.81 17.1l-2.6 1.5.03.06.04.05zm-3.42 60.76l2.41 1.79.02-.03.02-.03zm-12.83 12.55l-1.7-2.48-.1.07-.08.07zm-.29 2l-1.8 2.4.01.01.02.01zm-57.9-51.62l2.5 1.66.06-.08.05-.1zm-4.28 11.98l2.96.49.01-.06v-.06zm1.71 14.83l-2.8 1.09.05.13.07.12zm39.94 0l2.36 1.84.03-.04.03-.04zm5.42-15.12l-2.92-.73-.05.22-.02.22zm-1.15-11.98l2.88-.85-.04-.13-.05-.14zm-7.41-8.84l-1.73 2.45.08.05.08.06zm-25.1 0l1.44 2.62h.03l.02-.02zm17.4 123.22l2.37 1.83.01-.01v-.02zm5.99-37.66l2.84-.94-.03-.1-.03-.08zm-41.93-.28l2.45 1.73.03-.04.02-.04zm-4 37.08l2.72-1.29-.02-.02-.01-.03zm80.75-43.76a58.43 58.43 0 013.25 20.08h6a64.4 64.4 0 00-3.6-22.13zm3.25 20.08c0 1.55-.18 4.18-.56 7.98l5.97.6c.38-3.81.59-6.7.59-8.57zm-.54 7.85c-1.67 11.45-5.06 20.78-10.07 28.11l4.96 3.39c5.64-8.26 9.29-18.51 11.05-30.64zm-10.13 28.21a62.47 62.47 0 01-23.97 22.05l2.83 5.3a68.47 68.47 0 0026.23-24.16zm-23.96 22.04c-9.96 5.26-21.54 7.93-34.82 7.93v6c14.1 0 26.67-2.84 37.62-8.62zm-34.82 7.93c-12.5 0-23.31-2.57-32.5-7.62l-2.88 5.26c10.2 5.6 22.03 8.36 35.38 8.36zm-32.46-7.6a41.17 41.17 0 01-18.92-22.1l-5.62 2.08a47.15 47.15 0 0021.58 25.24zm-18.91-22.08a56.68 56.68 0 01-3.24-19.51h-6a62.66 62.66 0 003.6 21.56zm-3.24-19.51c0-1.94.18-4.78.55-8.55l-5.97-.6c-.38 3.84-.58 6.9-.58 9.14zm.54-8.47a71.9 71.9 0 019.59-28.22l-5.16-3.07a77.9 77.9 0 00-10.38 30.54zm9.63-28.29a42.7 42.7 0 0114.68-15.2l-3.23-5.05a48.71 48.71 0 00-16.69 17.32zm14.61-15.15a4.37 4.37 0 002.21-3.07 4.27 4.27 0 00-1.35-3.62l-4.24 4.24a1.86 1.86 0 01-.35-1.47 1.82 1.82 0 01.64-1.22zm.8-6.74a43.55 43.55 0 01-9.05-12.82l-5.4 2.6a49.51 49.51 0 0010.33 14.57zm-9-12.68a44.45 44.45 0 01-3.47-17.38h-6a50.48 50.48 0 003.94 19.7zm-3.47-17.38a59.34 59.34 0 013.8-21.19l-5.6-2.12a65.34 65.34 0 00-4.2 23.3zm3.79-21.15a59.99 59.99 0 0111.13-18.2l-4.46-4a65.98 65.98 0 00-12.26 20zm11.2-18.27a59.26 59.26 0 0122.27-16.3l-2.36-5.51a65.25 65.25 0 00-24.5 17.93zm22.3-16.31a72.64 72.64 0 0129.6-6.02v-6a78.62 78.62 0 00-32.02 6.53zm29.6-6.02c10.85 0 20.06 2.02 27.73 5.94l2.73-5.34c-8.69-4.44-18.87-6.6-30.46-6.6zm27.75 5.96c7.9 3.95 13.72 9.27 17.57 15.93l5.2-3c-4.52-7.8-11.26-13.89-20.09-18.3zm17.63 16.03a45.48 45.48 0 016.95 24.92h6a51.48 51.48 0 00-7.88-28.13zm6.95 24.92a55.13 55.13 0 01-10.29 32.5l4.9 3.46a61.12 61.12 0 0011.4-35.96zm-10.25 32.45a50.42 50.42 0 01-12.1 11.85l3.37 4.96a56.36 56.36 0 0013.55-13.24zm-12.3 11.99a4.79 4.79 0 00-1.88 2.99 3.97 3.97 0 001.67 3.75l3.6-4.8a1.63 1.63 0 01.43.53 2.24 2.24 0 01.24 1.37 1.87 1.87 0 01-.32.83c-.07.1-.1.1.01.01zm-.18 6.76a31.47 31.47 0 0111.2 15.4l5.67-1.99a37.47 37.47 0 00-13.32-18.25zm-58.63-55.71a30.38 30.38 0 00-4.76 13.27l5.96.74a24.4 24.4 0 013.8-10.68zm-4.74 13.15a31.85 31.85 0 00-.32 5.06h6a26.08 26.08 0 01.24-4.08zm-.32 5.06a31.15 31.15 0 002.2 11.35l5.59-2.17a25.16 25.16 0 01-1.8-9.18zm2.31 11.6a20.43 20.43 0 008.43 8.99 26.07 26.07 0 0012.8 2.94v-6a20.14 20.14 0 01-9.9-2.19 14.44 14.44 0 01-5.96-6.42zm21.22 11.93c9.83 0 17.85-3.82 23.76-11.42l-4.73-3.69c-4.74 6.1-10.98 9.11-19.03 9.11zm23.82-11.5a33.1 33.1 0 005.98-16.59l-5.97-.58a27.13 27.13 0 01-4.86 13.64zm5.9-16.15a19.6 19.6 0 00.38-4.44h-6a14.75 14.75 0 01-.2 2.98zm.38-4.44a33.06 33.06 0 00-1.55-9.12l-5.76 1.7a27.27 27.27 0 011.3 7.42zm-1.64-9.38a20.84 20.84 0 00-8.64-10.3l-3.13 5.13a14.85 14.85 0 016.2 7.4zm-8.48-10.18c-3.87-2.73-8.7-3.97-14.28-3.97v6c4.7 0 8.23 1.04 10.82 2.87zm-14.28-3.97a27.93 27.93 0 00-14.03 3.81l2.98 5.21a21.93 21.93 0 0111.06-3.03zm-14 3.8a26.38 26.38 0 00-10.27 10.25l5.2 2.98a20.4 20.4 0 017.98-8zm21.25 127.65c5.77-7.63 8.6-16.85 8.6-27.48h-6c0 9.52-2.5 17.42-7.38 23.86zm8.6-27.48a40.67 40.67 0 00-2.16-12.93l-5.69 1.9a34.68 34.68 0 011.85 11.03zm-2.22-13.1a20.93 20.93 0 00-8.66-10.44c-3.91-2.35-8.67-3.43-14.1-3.43v6c4.66 0 8.27.93 11.02 2.57a14.95 14.95 0 016.18 7.54zm-22.75-13.86c-10.5 0-18.76 4.39-24.47 13.05l5.02 3.3c4.56-6.94 10.93-10.35 19.45-10.35zm-24.4 12.96c-5 7.07-7.4 15.8-7.4 25.97h6c0-9.22 2.16-16.66 6.3-22.51zm-7.4 25.98a31.3 31.3 0 003.16 14.18l5.37-2.69a25.32 25.32 0 01-2.54-11.5zm3.13 14.12a20.9 20.9 0 008.5 9.44 25.79 25.79 0 0013.04 3.11v-6a19.85 19.85 0 01-10.05-2.3 14.92 14.92 0 01-6.06-6.82zm21.54 12.55c9.8 0 17.74-3.7 23.48-11.15l-4.75-3.66c-4.52 5.86-10.65 8.81-18.73 8.81z"/><path class="c" d="M376.77 153.7a1.15 1.15 0 01.3-.6.94.94 0 01.69-.3h8.65a.72.72 0 01.6.3.63.63 0 01.16.6l-6.3 51.32a1.32 1.32 0 01-.38.68.82.82 0 01-.6.23h-8.36a.89.89 0 01-.9-.6l-15.1-32.5c-.06-.15-.14-.2-.24-.15q-.15 0-.23.3L351.27 205a1.32 1.32 0 01-.38.69.82.82 0 01-.6.22h-8.66a.7.7 0 01-.76-.9l6.3-51.32a1.16 1.16 0 01.3-.61.94.94 0 01.68-.3h8.35a1.03 1.03 0 01.99.6l15.03 32.35c.05.15.13.22.23.22a.54.54 0 00.23-.38zm55.47 7.36a1.33 1.33 0 01-.38.69.82.82 0 01-.6.22h-24.23a.44.44 0 00-.3.16.3.3 0 00-.07.22l-1.44 11.77q0 .38.3.38h15.86a.72.72 0 01.6.3.63.63 0 01.16.6l-.91 7.37a1.33 1.33 0 01-.38.68.82.82 0 01-.6.23h-15.87a.34.34 0 00-.38.38l-1.52 12.3q0 .38.3.38h24.14q.83 0 .83.91l-.9 7.37a1.32 1.32 0 01-.39.68.82.82 0 01-.6.23h-34.09a.7.7 0 01-.75-.91l6.3-51.32a1.16 1.16 0 01.3-.6.94.94 0 01.68-.3h34a.72.72 0 01.62.3.57.57 0 01.22.6zm15.12 44.87a.8.8 0 01-.9-.76l-6.76-51.4v-.14a.74.74 0 01.83-.84h9.19a.75.75 0 01.83.76l3.19 30.9c.05.2.13.3.23.3s.17-.1.22-.3l10.56-30.82a1.18 1.18 0 011.06-.84h8.96a.8.8 0 01.9.76l3.58 30.9a.3.3 0 00.15.3q.23 0 .3-.3l10.55-30.82a1.18 1.18 0 011.07-.84h8.65q.99 0 .68 1l-18.37 51.38a1.13 1.13 0 01-1.13.76h-8.73a.75.75 0 01-.84-.76l-3.5-32.87c-.04-.2-.12-.3-.22-.3q-.08 0-.23.3l-11 32.8a1.01 1.01 0 01-1.07.83zM364.13 229.55a.78.78 0 01.76-.76h5.61q.69 0 .69.76l-6.38 51.62a.8.8 0 01-.84.76h-5.39a.88.88 0 01-.75-.53l-18.3-38.8c-.06-.15-.13-.2-.23-.15-.1 0-.15.08-.15.23l-4.71 38.49a.78.78 0 01-.76.76h-5.62q-.68 0-.68-.76l6.37-51.62a.8.8 0 01.84-.76h5.46a.78.78 0 01.76.53l18.22 38.8c.05.14.13.22.23.22a.3.3 0 00.15-.3zm53.49 4.78a.8.8 0 01-.84.76h-26.11a.27.27 0 00-.3.3l-2.05 16.32a.27.27 0 00.3.3h17.91q.69 0 .69.76l-.61 4.78a.8.8 0 01-.84.76h-17.99a.27.27 0 00-.3.3l-2.05 16.7q0 .3.23.3h26.2q.75 0 .6.76l-.6 4.78a.73.73 0 01-.24.54.82.82 0 01-.6.22h-32.73q-.68 0-.68-.76l6.37-51.62a.8.8 0 01.84-.76h32.72a.59.59 0 01.53.23.53.53 0 01.15.53zm16.83 47.6a.72.72 0 01-.76-.6l-7.51-51.7v-.16a.51.51 0 01.23-.46.73.73 0 01.53-.22h6a.74.74 0 01.76.68l5 37.8c0 .1.03.16.08.16a.24.24 0 00.23-.15l13.82-37.81a.9.9 0 01.9-.68h5.78a.74.74 0 01.76.68l5 37.88c0 .1.03.15.08.15s.1-.05.15-.15l14.43-37.88a.74.74 0 01.3-.46 1 1 0 01.6-.22h5.55q.83 0 .6.83l-19.66 51.62a.98.98 0 01-.9.69h-5.7a.6.6 0 01-.68-.69l-4.86-39.17c-.05-.15-.1-.23-.16-.23s-.1.08-.15.23l-14.2 39.17a.72.72 0 01-.83.69zM355.4 302.55a.8.8 0 01.83-.76h.75q.76 0 .61.76l-6.3 51.62a.8.8 0 01-.83.76h-.84a1.05 1.05 0 01-.83-.53l-22.7-47.75c-.05-.15-.13-.2-.23-.15-.05 0-.1.07-.15.22l-5.77 47.45a1.13 1.13 0 01-.3.53.73.73 0 01-.53.23h-.76q-.69 0-.69-.76l6.38-51.62a.8.8 0 01.84-.76h.83a.83.83 0 01.84.53l22.7 47.75q.07.23.22.23a.3.3 0 00.16-.3zm50.97.6a.8.8 0 01-.83.77h-28.78c-.15 0-.27.1-.37.3l-2.74 22.7c-.05.05-.05.12 0 .22a.3.3 0 00.23.08h20.8a.51.51 0 01.46.23.53.53 0 01.15.53l-.08.6a.8.8 0 01-.83.76h-20.73a.67.67 0 00-.3.08.31.31 0 00-.07.23l-2.81 22.85a.27.27 0 00.3.3h28.77q.76 0 .6.76l-.07.6a.73.73 0 01-.23.54.82.82 0 01-.6.22h-30.52q-.69 0-.69-.75l6.38-51.63a.8.8 0 01.84-.76h30.51a.59.59 0 01.54.23.53.53 0 01.15.53zm19.37 51.78a.68.68 0 01-.68-.6l-8.35-51.7v-.16a.5.5 0 01.23-.46.73.73 0 01.53-.22h.68a.8.8 0 01.76.6l7.74 47.68c.05.1.1.15.16.15a.24.24 0 00.22-.15l18.3-47.6a.74.74 0 01.3-.46 1 1 0 01.6-.23h.84q.76 0 .76.61l6.98 47.68c0 .1.03.15.08.15a.24.24 0 00.23-.15l19.66-47.68a1.08 1.08 0 01.91-.6h.6a.6.6 0 01.54.22.52.52 0 01.07.61l-21.33 51.7a.84.84 0 01-.83.6h-.91a.74.74 0 01-.76-.68l-6.68-48.13a.14.14 0 00-.15-.15c-.05 0-.1.05-.16.15l-18.52 48.13a.98.98 0 01-.91.69z"/></svg>