<svg xmlns="http://www.w3.org/2000/svg" viewBox="0 0 216.55 73.89"><defs><style>.cls-1{fill:#ff5d29;}</style></defs><title>Asset 5</title><g id="Layer_2" data-name="Layer 2"><g id="Layer_6" data-name="Layer 6"><path d="M134.17,8.28A8.51,8.51,0,0,1,136.69,10c.07.24-.93-.18-2.23-.88A71.63,71.63,0,0,0,118.6,3c-2.68-.69-10.15-1.37-5.34-.44,6,1,8.25,2.22,14.67,4.77a2.59,2.59,0,0,1,.59.32c.08.07-.07,0-.33-.07A69.8,69.8,0,0,0,114.42,3.4a13.78,13.78,0,0,1,2.15.79l.12,0a4.74,4.74,0,0,1,1.59.8c0,.07-1.4.11-5.73-.71-2-.39-2.1-.12-.27.21a39.17,39.17,0,0,1,8.09,2.16,21.69,21.69,0,0,1,2,.76c1.42.54,2.44,1.14,2.35,1.3A8.79,8.79,0,0,1,122.08,8L121.91,8c-2-.68-1.46-.3,3.67,2a2.46,2.46,0,0,1,.89.52c0,.07-.44-.07-.94-.29a56.72,56.72,0,0,0-14-4,14.48,14.48,0,0,0-2-.23s.19,0,3,.6a23.41,23.41,0,0,1,5.68,1.76c.19.11.32.21.36.23s0,.06-.3,0c-1.13-.31-3.82-.77-4.4-.87h-.06a55.71,55.71,0,0,0-10.6-.37A43.27,43.27,0,0,0,92.38,9.32a55.65,55.65,0,0,0-10.59,4.77,59.53,59.53,0,0,0-12,9.27,82.64,82.64,0,0,0-10,12c-.7,1-3.4,5-3.4,5-.61,1-1.2,2-1.78,3s-1.14,2.06-1.69,3.17L51.24,50l-3.31,7S32.14,34.34,32.07,34.26c0,.22-15.94,37.7-16.79,39.63-2.3-4-4.36-7.76-5.84-10.66A41.42,41.42,0,0,1,7,57.86a2.22,2.22,0,0,1-.09-.37c-.1-.58.19-.42.83.22.29.24.57.5.84.77L8.1,57.39C6.41,53.61.91,41.17.58,39.63A23.53,23.53,0,0,1,0,36.89l.3,0A10.24,10.24,0,0,1,2.2,38.1l.36.19c-.18-.89.39-1.4.78-.86L1.74,34A8.31,8.31,0,0,1,1,32.35a15.55,15.55,0,0,1-.56-2.9c0-.07,0-.15.12-.13a1.26,1.26,0,0,1,.41.39,3.2,3.2,0,0,1,.32.43l.47.65.46.77-.09-.48c0-.23-.25-.95-.35-1.28s.15-.46.53-.09A23.16,23.16,0,0,1,5,33.41l-.23-.49c-1.65-3.42-1.6-4.53.12-2.49,1.35,1.6,9.6,14.89,9.6,14.89L29.59,9.8C30.35,10.89,47,37.05,47,37.05s1.12-1.79,1.89-2.92l.93-1.36c.43-.63.87-1.26,1.34-1.89Q52.53,29,54,27.16l0,0c.56-.72,1.13-1.44,1.7-2.14s1.19-1.39,1.81-2a81,81,0,0,1,9.9-9.44A67,67,0,0,1,79.16,5.9,54.67,54.67,0,0,1,90.27,1.68,52.57,52.57,0,0,1,102.11,0a57.7,57.7,0,0,1,16.74,2.06A71.71,71.71,0,0,1,134.17,8.28Z"/><polygon id="_Path_" data-name="&lt;Path&gt;" points="94.93 34.98 91.38 22.61 94.33 22.61 96.5 31.03 98.63 22.61 101.33 22.61 97.78 34.98 97.78 41.09 94.93 41.09 94.93 34.98"/><path id="_Compound_Path_" data-name="&lt;Compound Path&gt;" d="M101.83,27.05c0-2.94,1.49-4.65,4.26-4.65s4.26,1.71,4.26,4.65v9.6c0,3-1.49,4.65-4.26,4.65s-4.26-1.7-4.26-4.65Zm2.8,9.77c0,1.32.57,1.82,1.46,1.82s1.45-.5,1.45-1.82v-10c0-1.31-.56-1.81-1.45-1.81s-1.46.5-1.46,1.81Z"/><path id="_Path_2" data-name="&lt;Path&gt;" d="M114.86,22.61V36.86c0,1.31.57,1.81,1.46,1.81s1.46-.46,1.46-1.81V22.61h2.66V36.68c0,3-1.42,4.66-4.19,4.66s-4.19-1.71-4.19-4.66V22.61Z"/><polygon id="_Path_3" data-name="&lt;Path&gt;" points="124.85 27.69 124.85 41.09 122.32 41.09 122.32 22.61 125.84 22.61 128.72 33.66 128.72 22.61 131.24 22.61 131.24 41.09 128.33 41.09 124.85 27.69"/><path id="_Path_4" data-name="&lt;Path&gt;" d="M137.46,30.78h3.94v5.87c0,3-1.42,4.65-4.19,4.65S133,39.6,133,36.65v-9.6c0-2.94,1.42-4.65,4.19-4.65s4.19,1.71,4.19,4.65v1.82h-2.66v-2c0-1.32-.57-1.82-1.46-1.82s-1.46.5-1.46,1.82v10c0,1.31.57,1.78,1.46,1.78s1.46-.47,1.46-1.78V33.41h-1.28Z"/><polygon id="_Path_5" data-name="&lt;Path&gt;" points="77.63 49.97 76.89 57.04 74.15 57.04 72.69 43.79 74.68 43.79 75.75 54.23 76.71 43.79 78.66 43.79 79.66 54.3 80.72 43.79 82.46 43.79 81.04 57.04 78.38 57.04 77.63 49.97"/><polygon id="_Path_6" data-name="&lt;Path&gt;" points="85.48 49.37 88.25 49.37 88.25 51.28 85.48 51.28 85.48 55.16 88.96 55.16 88.96 57.04 83.49 57.04 83.49 43.79 88.96 43.79 88.96 45.67 85.48 45.67 85.48 49.37"/><path id="_Compound_Path_2" data-name="&lt;Compound Path&gt;" d="M96.25,46.84v.47c0,1.35-.39,2.23-1.32,2.66,1.07.43,1.49,1.46,1.49,2.84v1.07c0,2.06-1,3.12-3,3.12H90.21V43.75h3.05c2.1,0,3,1,3,3.09m-4-1.17v3.52H93c.75,0,1.21-.36,1.21-1.42V47c0-1-.32-1.35-1-1.35Zm0,5.4v4.09h1.14c.67,0,1-.32,1-1.32V52.71c0-1.25-.39-1.6-1.31-1.6Z"/><polygon id="_Path_7" data-name="&lt;Path&gt;" points="101.93 53.2 103.28 43.79 106.09 43.79 106.09 57.04 104.2 57.04 104.2 47.55 102.78 57.04 100.9 57.04 99.41 47.66 99.41 57.04 97.63 57.04 97.63 43.79 100.44 43.79 101.93 53.2"/><path id="_Compound_Path_3" data-name="&lt;Compound Path&gt;" d="M114.08,57h-2l-.36-2.42h-2.49L108.86,57H107l2.06-13.25h3Zm-4.58-4.19h2l-1-6.72Z"/><path id="_Path_8" data-name="&lt;Path&gt;" d="M117.74,43.65c2,0,3,1.2,3,3.34v.42h-1.92v-.57c0-1-.36-1.31-1-1.31s-1,.35-1,1.31c0,2.74,3.94,3.24,3.94,7,0,2.13-1,3.34-3,3.34s-3-1.21-3-3.34v-.82h1.88v1c0,1,.4,1.28,1,1.28s1-.36,1-1.28c0-2.74-4-3.23-4-7,0-2.14,1-3.34,3-3.34"/><polygon id="_Path_9" data-name="&lt;Path&gt;" points="121.29 43.79 127.51 43.79 127.51 45.67 125.42 45.67 125.42 57.04 123.39 57.04 123.39 45.67 121.29 45.67 121.29 43.79"/><polygon id="_Path_10" data-name="&lt;Path&gt;" points="130.39 49.37 133.16 49.37 133.16 51.28 130.39 51.28 130.39 55.16 133.87 55.16 133.87 57.04 128.4 57.04 128.4 43.79 133.87 43.79 133.87 45.67 130.39 45.67 130.39 49.37"/><path id="_Compound_Path_4" data-name="&lt;Compound Path&gt;" d="M139.34,57a4.3,4.3,0,0,1-.18-1.63v-2.1c0-1.24-.39-1.67-1.31-1.67h-.71V57h-2V43.79h3c2.1,0,3,1,3,3.05v1a2.73,2.73,0,0,1-1.32,2.7c1,.43,1.35,1.46,1.35,2.81v2.06a4.14,4.14,0,0,0,.22,1.6Zm-2.2-11.37v4.09h.78c.75,0,1.21-.36,1.21-1.39V47.06c0-1-.32-1.35-1-1.35Z"/><path id="_Path_11" data-name="&lt;Path&gt;" d="M116.75,68.34v1.77c0,2.14-1,3.34-3,3.34s-3-1.2-3-3.34V63.22c0-2.13,1-3.34,3-3.34s3,1.21,3,3.34V64.5h-1.92V63.08c0-1-.39-1.32-1-1.32s-1,.36-1,1.32v7.14c0,1,.39,1.28,1,1.28s1-.36,1-1.28V68.34Z"/><path id="_Compound_Path_5" data-name="&lt;Compound Path&gt;" d="M124.49,73.28h-2l-.36-2.42h-2.49l-.35,2.42h-1.85L119.48,60h3Zm-4.58-4.2h2l-1-6.71Z"/><polygon id="_Path_12" data-name="&lt;Path&gt;" points="129.71 69.44 131.06 60.02 133.87 60.02 133.87 73.28 131.95 73.28 131.95 63.75 130.57 73.28 128.68 73.28 127.19 63.9 127.19 73.28 125.42 73.28 125.42 60.02 128.22 60.02 129.71 69.44"/><path id="_Compound_Path_6" data-name="&lt;Compound Path&gt;" d="M141.3,63.29V65c0,2.13-1,3.27-3,3.27h-1v5h-2V60h3c2.06,0,3,1.14,3,3.27m-4-1.38v4.47h1c.64,0,1-.32,1-1.24v-2c0-1-.36-1.24-1-1.24Z"/><path d="M158.86,22.79h11.08l-.09.87-6,49.2-.12.88H152l.11-.88,4.73-38.5a.22.22,0,0,0-.29-.29l-6.39,1.87-.8.25c0-.41.15-1.44.2-2l.8-7.65c0-.29,0-.45.07-.78L157.77,23A3,3,0,0,1,158.86,22.79Z"/><path d="M199,52.89c0,.49,0,1.21-.14,2.18a17.15,17.15,0,0,1-2,6.24,15.86,15.86,0,0,1-14,7.9,14.23,14.23,0,0,1-7.74-2,10.32,10.32,0,0,1-4.43-5.86,14.1,14.1,0,0,1-.59-4.14c0-.44,0-1.14.13-2.1a17.81,17.81,0,0,1,2.18-6.52,9.52,9.52,0,0,1,3.38-3.61c.21-.14.24-.29.06-.47a9.26,9.26,0,0,1-2.38-3.61,12.93,12.93,0,0,1-.6-4A14,14,0,0,1,175.83,28a14.44,14.44,0,0,1,5.48-4.6,16.64,16.64,0,0,1,7.41-1.65,14.26,14.26,0,0,1,7,1.62A9.83,9.83,0,0,1,200,27.9a11.77,11.77,0,0,1,1.19,5.39A14,14,0,0,1,199,41a11.86,11.86,0,0,1-3.24,3.35c-.22.22-.24.38-.07.46a7.86,7.86,0,0,1,2.58,3.69A14.61,14.61,0,0,1,199,52.89Zm-10.65,1.32c.08-.7.13-1.16.13-1.38a5.65,5.65,0,0,0-.76-3.16,2.59,2.59,0,0,0-2.28-1.12,3.63,3.63,0,0,0-3.51,2.7,8.68,8.68,0,0,0-.79,3,7.69,7.69,0,0,0-.07,1.18,8,8,0,0,0,.2,1.91c.35,1.71,1.28,2.57,2.78,2.57a3.62,3.62,0,0,0,3.37-2.5A8.91,8.91,0,0,0,188.33,54.21Zm-4.9-18.35a7,7,0,0,0-.07,1,6.58,6.58,0,0,0,.2,1.58,3.17,3.17,0,0,0,1,1.74,2.62,2.62,0,0,0,1.78.63,3.46,3.46,0,0,0,2-.66,4,4,0,0,0,1.39-1.78,7.08,7.08,0,0,0,.8-2.56l.06-.86a4.18,4.18,0,0,0-.2-1.38,3.1,3.1,0,0,0-1-1.87,2.77,2.77,0,0,0-1.95-.69,3.36,3.36,0,0,0-2.05.69,4.14,4.14,0,0,0-1.39,1.87A8.16,8.16,0,0,0,183.43,35.86Z"/><polygon points="210.28 21.71 210.13 21.71 210.06 21.71 204.73 21.71 204.61 21.71 204.46 21.71 204.42 22.04 204.31 22.99 204.27 23.3 204.27 23.3 204.26 23.45 204.39 23.45 204.44 23.45 206.14 23.45 206.14 23.51 205.34 30.02 205.34 30.05 205.34 30.05 205.32 30.2 205.46 30.2 205.48 30.2 207.05 30.2 207.12 30.2 207.27 30.2 207.3 29.99 208.09 23.51 208.09 23.45 209.86 23.45 209.92 23.45 210.06 23.45 210.08 23.3 210.08 23.3 210.26 21.86 210.26 21.86 210.28 21.71"/><polygon points="216.54 21.86 216.55 21.71 216.41 21.71 216.38 21.71 214.78 21.71 214.74 21.71 214.6 21.71 214.59 21.86 214.59 21.86 214.58 21.89 214.58 21.93 214.58 21.93 214.19 25.07 214.13 25.07 212.55 25.07 212.56 25.01 212.94 21.93 212.97 21.71 212.83 21.71 211.16 21.71 211.01 21.71 210.99 21.92 210.99 21.92 210 29.97 210 29.97 209.97 30.2 210.11 30.2 210.15 30.2 211.78 30.2 211.79 30.2 211.93 30.2 211.94 30.05 211.94 30.05 212.33 26.85 212.34 26.79 213.97 26.79 213.97 26.85 213.59 29.97 213.59 29.97 213.56 30.2 213.7 30.2 213.73 30.2 215.37 30.2 215.38 30.2 215.51 30.2 215.53 30.03 215.53 30.03 216.53 21.88 216.53 21.88 216.53 21.88 216.54 21.86 216.54 21.86"/><polygon class="cls-1" points="171.53 73.48 176.12 73.48 186.57 65.57 179.45 58.36 175.38 58.33 182.32 65.36 171.53 73.48"/><polygon class="cls-1" points="186.1 73.48 190.69 73.48 201.14 65.57 194.02 58.36 189.95 58.33 196.89 65.36 186.1 73.48"/><polygon class="cls-1" points="200.25 73.48 204.83 73.48 215.29 65.57 208.17 58.36 204.1 58.33 211.03 65.36 200.25 73.48"/></g></g></svg>