<svg xmlns="http://www.w3.org/2000/svg" viewBox="0 0 216.55 73.89"><defs><style>.cls-1{fill:#fff}.cls-2{fill:#ff5d29}</style></defs><g id="Layer_2" data-name="Layer 2"><g id="Layer_6" data-name="Layer 6"><path class="cls-1" d="M134.17 8.28a8.51 8.51 0 012.52 1.72c.07.24-.93-.18-2.23-.88A71.63 71.63 0 00118.6 3c-2.68-.69-10.15-1.37-5.34-.44 6 1 8.25 2.22 14.67 4.77a2.59 2.59 0 01.59.32c.08.07-.07 0-.33-.07a69.8 69.8 0 00-13.77-4.18 13.78 13.78 0 012.15.79h.12a4.74 4.74 0 011.59.8c0 .07-1.4.11-5.73-.71-2-.39-2.1-.12-.27.21a39.17 39.17 0 018.09 2.16 21.69 21.69 0 012 .76c1.42.54 2.44 1.14 2.35 1.3a8.79 8.79 0 01-2.64-.71h-.17c-2-.68-1.46-.3 3.67 2a2.46 2.46 0 01.89.52c0 .07-.44-.07-.94-.29a56.72 56.72 0 00-14-4 14.48 14.48 0 00-2-.23s.19 0 3 .6a23.41 23.41 0 015.68 1.76l.36.23c.04.02 0 .06-.3 0-1.13-.31-3.82-.77-4.4-.87h-.06a55.71 55.71 0 00-10.6-.37 43.27 43.27 0 00-10.83 1.97 55.65 55.65 0 00-10.59 4.77 59.53 59.53 0 00-12 9.27 82.64 82.64 0 00-10 12c-.7 1-3.4 5-3.4 5-.61 1-1.2 2-1.78 3s-1.14 2.06-1.69 3.17L51.24 50l-3.31 7S32.14 34.34 32.07 34.26c0 .22-15.94 37.7-16.79 39.63-2.3-4-4.36-7.76-5.84-10.66A41.42 41.42 0 017 57.86a2.22 2.22 0 01-.09-.37c-.1-.58.19-.42.83.22.29.24.57.5.84.77l-.48-1.09C6.41 53.61.91 41.17.58 39.63A23.53 23.53 0 010 36.89h.3a10.24 10.24 0 011.9 1.21l.36.19c-.18-.89.39-1.4.78-.86L1.74 34A8.31 8.31 0 011 32.35a15.55 15.55 0 01-.56-2.9c0-.07 0-.15.12-.13a1.26 1.26 0 01.41.39 3.2 3.2 0 01.32.43l.47.65.46.77-.09-.48c0-.23-.25-.95-.35-1.28s.15-.46.53-.09A23.16 23.16 0 015 33.41l-.23-.49c-1.65-3.42-1.6-4.53.12-2.49 1.35 1.6 9.6 14.89 9.6 14.89L29.59 9.8C30.35 10.89 47 37.05 47 37.05s1.12-1.79 1.89-2.92l.93-1.36c.43-.63.87-1.26 1.34-1.89Q52.53 29 54 27.16c.56-.72 1.13-1.44 1.7-2.14s1.19-1.39 1.81-2a81 81 0 019.9-9.44A67 67 0 0179.16 5.9a54.67 54.67 0 0111.11-4.22A52.57 52.57 0 01102.11 0a57.7 57.7 0 0116.74 2.06 71.71 71.71 0 0115.32 6.22z"/><path id="_Path_" data-name="&lt;Path&gt;" class="cls-1" d="M94.93 34.98l-3.55-12.37h2.95l2.17 8.42 2.13-8.42h2.7l-3.55 12.37v6.11h-2.85v-6.11z"/><path id="_Compound_Path_" data-name="&lt;Compound Path&gt;" class="cls-1" d="M101.83 27.05c0-2.94 1.49-4.65 4.26-4.65s4.26 1.71 4.26 4.65v9.6c0 3-1.49 4.65-4.26 4.65s-4.26-1.7-4.26-4.65zm2.8 9.77c0 1.32.57 1.82 1.46 1.82s1.45-.5 1.45-1.82v-10c0-1.31-.56-1.81-1.45-1.81s-1.46.5-1.46 1.81z"/><path id="_Path_2" data-name="&lt;Path&gt;" class="cls-1" d="M114.86 22.61v14.25c0 1.31.57 1.81 1.46 1.81s1.46-.46 1.46-1.81V22.61h2.66v14.07c0 3-1.42 4.66-4.19 4.66s-4.19-1.71-4.19-4.66V22.61z"/><path id="_Path_3" data-name="&lt;Path&gt;" class="cls-1" d="M124.85 27.69v13.4h-2.53V22.61h3.52l2.88 11.05V22.61h2.52v18.48h-2.91l-3.48-13.4z"/><path id="_Path_4" data-name="&lt;Path&gt;" class="cls-1" d="M137.46 30.78h3.94v5.87c0 3-1.42 4.65-4.19 4.65S133 39.6 133 36.65v-9.6c0-2.94 1.42-4.65 4.19-4.65s4.19 1.71 4.19 4.65v1.82h-2.66v-2c0-1.32-.57-1.82-1.46-1.82s-1.46.5-1.46 1.82v10c0 1.31.57 1.78 1.46 1.78s1.46-.47 1.46-1.78v-3.46h-1.28z"/><path id="_Path_5" data-name="&lt;Path&gt;" class="cls-1" d="M77.63 49.97l-.74 7.07h-2.74l-1.46-13.25h1.99l1.07 10.44.96-10.44h1.95l1 10.51 1.06-10.51h1.74l-1.42 13.25h-2.66l-.75-7.07z"/><path id="_Path_6" data-name="&lt;Path&gt;" class="cls-1" d="M85.48 49.37h2.77v1.91h-2.77v3.88h3.48v1.88h-5.47V43.79h5.47v1.88h-3.48v3.7z"/><path id="_Compound_Path_2" data-name="&lt;Compound Path&gt;" class="cls-1" d="M96.25 46.84v.47c0 1.35-.39 2.23-1.32 2.66 1.07.43 1.49 1.46 1.49 2.84v1.07c0 2.06-1 3.12-3 3.12h-3.21V43.75h3.05c2.1 0 3 1 3 3.09m-4-1.17v3.52H93c.75 0 1.21-.36 1.21-1.42V47c0-1-.32-1.35-1-1.35zm0 5.4v4.09h1.14c.67 0 1-.32 1-1.32v-1.13c0-1.25-.39-1.6-1.31-1.6z"/><path id="_Path_7" data-name="&lt;Path&gt;" class="cls-1" d="M101.93 53.2l1.35-9.41h2.81v13.25h-1.89v-9.49l-1.42 9.49h-1.88l-1.49-9.38v9.38h-1.78V43.79h2.81l1.49 9.41z"/><path id="_Compound_Path_3" data-name="&lt;Compound Path&gt;" class="cls-1" d="M114.08 57h-2l-.36-2.42h-2.49l-.37 2.42H107l2.06-13.25h3zm-4.58-4.19h2l-1-6.72z"/><path id="_Path_8" data-name="&lt;Path&gt;" class="cls-1" d="M117.74 43.65c2 0 3 1.2 3 3.34v.42h-1.92v-.57c0-1-.36-1.31-1-1.31s-1 .35-1 1.31c0 2.74 3.94 3.24 3.94 7 0 2.13-1 3.34-3 3.34s-3-1.21-3-3.34v-.82h1.88v1c0 1 .4 1.28 1 1.28s1-.36 1-1.28c0-2.74-4-3.23-4-7 0-2.14 1-3.34 3-3.34"/><path id="_Path_9" data-name="&lt;Path&gt;" class="cls-1" d="M121.29 43.79h6.22v1.88h-2.09v11.37h-2.03V45.67h-2.1v-1.88z"/><path id="_Path_10" data-name="&lt;Path&gt;" class="cls-1" d="M130.39 49.37h2.77v1.91h-2.77v3.88h3.48v1.88h-5.47V43.79h5.47v1.88h-3.48v3.7z"/><path id="_Compound_Path_4" data-name="&lt;Compound Path&gt;" class="cls-1" d="M139.34 57a4.3 4.3 0 01-.18-1.63v-2.1c0-1.24-.39-1.67-1.31-1.67h-.71V57h-2V43.79h3c2.1 0 3 1 3 3.05v1a2.73 2.73 0 01-1.32 2.7c1 .43 1.35 1.46 1.35 2.81v2.06a4.14 4.14 0 00.22 1.6zm-2.2-11.37v4.09h.78c.75 0 1.21-.36 1.21-1.39v-1.27c0-1-.32-1.35-1-1.35z"/><path id="_Path_11" data-name="&lt;Path&gt;" class="cls-1" d="M116.75 68.34v1.77c0 2.14-1 3.34-3 3.34s-3-1.2-3-3.34v-6.89c0-2.13 1-3.34 3-3.34s3 1.21 3 3.34v1.28h-1.92v-1.42c0-1-.39-1.32-1-1.32s-1 .36-1 1.32v7.14c0 1 .39 1.28 1 1.28s1-.36 1-1.28v-1.88z"/><path id="_Compound_Path_5" data-name="&lt;Compound Path&gt;" class="cls-1" d="M124.49 73.28h-2l-.36-2.42h-2.49l-.35 2.42h-1.85L119.48 60h3zm-4.58-4.2h2l-1-6.71z"/><path id="_Path_12" data-name="&lt;Path&gt;" class="cls-1" d="M129.71 69.44l1.35-9.42h2.81v13.26h-1.92v-9.53l-1.38 9.53h-1.89l-1.49-9.38v9.38h-1.77V60.02h2.8l1.49 9.42z"/><path id="_Compound_Path_6" data-name="&lt;Compound Path&gt;" class="cls-1" d="M141.3 63.29V65c0 2.13-1 3.27-3 3.27h-1v5h-2V60h3c2.06 0 3 1.14 3 3.27m-4-1.38v4.47h1c.64 0 1-.32 1-1.24v-2c0-1-.36-1.24-1-1.24z"/><path class="cls-1" d="M158.86 22.79h11.08l-.09.87-6 49.2-.12.88H152l.11-.88 4.73-38.5a.22.22 0 00-.29-.29l-6.39 1.87-.8.25c0-.41.15-1.44.2-2l.8-7.65c0-.29 0-.45.07-.78l7.34-2.76a3 3 0 011.09-.21zM199 52.89c0 .49 0 1.21-.14 2.18a17.15 17.15 0 01-2 6.24 15.86 15.86 0 01-14 7.9 14.23 14.23 0 01-7.74-2 10.32 10.32 0 01-4.43-5.86 14.1 14.1 0 01-.59-4.14c0-.44 0-1.14.13-2.1a17.81 17.81 0 012.18-6.52 9.52 9.52 0 013.38-3.61c.21-.14.24-.29.06-.47a9.26 9.26 0 01-2.38-3.61 12.93 12.93 0 01-.6-4 14 14 0 012.96-8.9 14.44 14.44 0 015.48-4.6 16.64 16.64 0 017.41-1.65 14.26 14.26 0 017 1.62A9.83 9.83 0 01200 27.9a11.77 11.77 0 011.19 5.39A14 14 0 01199 41a11.86 11.86 0 01-3.24 3.35c-.22.22-.24.38-.07.46a7.86 7.86 0 012.58 3.69 14.61 14.61 0 01.73 4.39zm-10.65 1.32c.08-.7.13-1.16.13-1.38a5.65 5.65 0 00-.76-3.16 2.59 2.59 0 00-2.28-1.12 3.63 3.63 0 00-3.51 2.7 8.68 8.68 0 00-.79 3 7.69 7.69 0 00-.07 1.18 8 8 0 00.2 1.91c.35 1.71 1.28 2.57 2.78 2.57a3.62 3.62 0 003.37-2.5 8.91 8.91 0 00.91-3.2zm-4.9-18.35a7 7 0 00-.07 1 6.58 6.58 0 00.2 1.58 3.17 3.17 0 001 1.74 2.62 2.62 0 001.78.63 3.46 3.46 0 002-.66 4 4 0 001.39-1.78 7.08 7.08 0 00.8-2.56l.06-.86a4.18 4.18 0 00-.2-1.38 3.1 3.1 0 00-1-1.87 2.77 2.77 0 00-1.95-.69 3.36 3.36 0 00-2.05.69 4.14 4.14 0 00-1.39 1.87 8.16 8.16 0 00-.59 2.29zM210.28 21.71h-5.82l-.04.33-.11.95-.04.31-.01.15h1.88v.06l-.8 6.51v.03l-.02.15h1.95l.03-.21.79-6.48v-.06H210.06l.02-.15.18-1.44.02-.15zM216.54 21.86l.01-.15H214.6l-.01.15-.01.03v.04l-.39 3.14H212.55l.01-.06.38-3.08.03-.22h-1.96l-.02.21-.99 8.05-.03.23h1.96l.01-.15.39-3.2.01-.06h1.63v.06l-.38 3.12-.03.23H215.51l.02-.17 1-8.15.01-.02z"/><path class="cls-2" d="M172.06 73.3h4.59l10.46-7.91-7.12-7.21-4.07-.03 6.93 7.03-10.79 8.12zM186.63 73.3h4.59l10.46-7.91-7.13-7.21-4.06-.03 6.93 7.03-10.79 8.12zM200.78 73.3h4.58l10.46-7.91-7.12-7.21-4.07-.03 6.94 7.03-10.79 8.12z"/></g></g></svg>