<svg width="55" height="54" fill="none" xmlns="http://www.w3.org/2000/svg"><path d="M16.2642.035156C7.70345.035156.719727 7.01888.719727 15.5796v22.4638c0 8.5607 6.983723 15.5444 15.544473 15.5444h22.4637c8.5607 0 15.5445-6.9837 15.5445-15.5444V15.5796c0-8.56072-6.9838-15.544444-15.5445-15.544444H16.2642zm0 4.119434h22.4637c6.3321 0 11.425 5.08493 11.425 11.42501v22.4638c0 6.332-5.0849 11.425-11.425 11.425H16.2642c-6.33207 0-11.42504-5.085-11.42504-11.425V15.5796c0-6.33204 5.08493-11.42501 11.42504-11.42501zm26.6797 4.11943c-1.7057 0-3.0896 1.38388-3.0896 3.08958 0 1.7057 1.3839 3.0896 3.0896 3.0896s3.0896-1.3839 3.0896-3.0896-1.3839-3.08958-3.0896-3.08958zM27.496 12.3935c-7.9411 0-14.418 6.4768-14.418 14.418 0 7.9411 6.4769 14.418 14.418 14.418 7.9412 0 14.4181-6.4769 14.4181-14.418 0-7.9412-6.4769-14.418-14.4181-14.418zm0 4.1194c5.7125 0 10.2986 4.5861 10.2986 10.2986S33.2085 37.1101 27.496 37.1101 17.1975 32.524 17.1975 26.8115s4.586-10.2986 10.2985-10.2986z" fill="#FF5D29"/><path d="M2.08313 15.5796c0-7.80773 6.37331-14.18104 14.18107-14.18104h22.4637c7.8078 0 14.1811 6.37331 14.1811 14.18104v22.4638c0 7.8077-6.3733 14.181-14.1811 14.181H16.2642c-7.80776 0-14.18107-6.3733-14.18107-14.181V15.5796zM38.7279 2.79119H16.2642c-7.09372 0-12.78844 5.70401-12.78844 12.78841v22.4638c0 7.0936 5.70401 12.7884 12.78844 12.7884h22.4637c7.0937 0 12.7884-5.7041 12.7884-12.7884V15.5796c0-7.0937-5.704-12.78841-12.7884-12.78841zm2.4898 8.57241c0-.9527.7735-1.72618 1.7262-1.72618s1.7262.77348 1.7262 1.72618c0 .9527-.7735 1.7262-1.7262 1.7262s-1.7262-.7735-1.7262-1.7262zM14.4414 26.8115c0-7.1882 5.8665-13.0546 13.0546-13.0546 7.1882 0 13.0547 5.8664 13.0547 13.0546 0 7.1882-5.8665 13.0546-13.0547 13.0546-7.1881 0-13.0546-5.8664-13.0546-13.0546zm24.7166 0c0-6.4655-5.1965-11.662-11.662-11.662-6.4654 0-11.6619 5.1965-11.6619 11.662 0 6.4655 5.1965 11.662 11.6619 11.662 6.4655 0 11.662-5.1965 11.662-11.662z" stroke="#FF5D29" stroke-width="2.7268"/></svg>