<svg width="64" height="53" fill="none" xmlns="http://www.w3.org/2000/svg"><path d="M43.3.9c-7.37 0-13.37 6-13.37 13.37 0 .44.11.88.16 1.31A33.14 33.14 0 017.43 3.6a1.24 1.24 0 00-2.04.15 13.26 13.26 0 00-1.8 6.7c0 2.97 1.05 5.68 2.69 7.9-.32-.14-.67-.21-.96-.38a1.23 1.23 0 00-1.82 1.08v.15a13.3 13.3 0 005.82 10.9h-.11a1.23 1.23 0 00-1.4 1.58 13.4 13.4 0 009.25 8.75A23.03 23.03 0 012.5 43.55a1.23 1.23 0 00-.8 2.27 35.55 35.55 0 0019.26 5.66c11.5 0 20.52-4.8 26.58-11.67a37.1 37.1 0 009.2-24.11c0-.36-.03-.7-.04-1.04a25.82 25.82 0 005.86-6.13 1.23 1.23 0 00-1.54-1.81c-.64.28-1.38.31-2.04.54a13.08 13.08 0 002.08-3.85 1.24 1.24 0 00-1.81-1.43 23.1 23.1 0 01-6.9 2.66A13.27 13.27 0 0043.3.9zm0 2.47c3.14 0 5.98 1.34 7.97 3.47.3.3.74.43 1.16.34 1.6-.32 3.13-.78 4.62-1.38a10.97 10.97 0 01-3.16 2.88A1.23 1.23 0 0054.7 11c1.23-.15 2.33-.65 3.5-.97a23.42 23.42 0 01-3.46 3.08c-.34.26-.53.66-.5 1.08.02.5.04 1 .04 1.5 0 7.71-2.96 16.07-8.6 22.46-5.63 6.4-13.9 10.87-24.72 10.87-4.92 0-9.56-1.1-13.76-3 5.2-.4 10-2.25 13.87-5.28a1.23 1.23 0 00-.73-2.2 10.8 10.8 0 01-9.28-5.78h.19c1.22 0 2.42-.15 3.54-.46a1.24 1.24 0 00-.08-2.39 10.82 10.82 0 01-8.43-8.9c1.24.43 2.51.77 3.89.81a1.23 1.23 0 00.73-2.27 10.92 10.92 0 01-4.85-9.1c0-1.4.36-2.69.84-3.92a35.58 35.58 0 0024.54 11.75 1.23 1.23 0 001.27-1.5 10.88 10.88 0 0110.6-13.4z" fill="#FF5D29" stroke="#FF5D29" stroke-width="1.05"/></svg>