<svg width="52" height="52" fill="none" xmlns="http://www.w3.org/2000/svg"><circle cx="26" cy="26" r="25" stroke="#F2F6FC" stroke-opacity=".8" stroke-width="2"/><path d="M32.67 14.33a6.87 6.87 0 00-6.87 6.87c0 .23.06.45.08.67a17.02 17.02 0 01-11.63-6.15.64.64 0 00-1.05.08 6.81 6.81 0 00-.93 3.44c0 1.52.55 2.91 1.39 4.05-.17-.07-.35-.1-.5-.2a.63.63 0 00-.93.56v.08c0 2.33 1.2 4.36 2.99 5.6h-.06a.63.63 0 00-.71.8 6.88 6.88 0 004.74 4.5 11.83 11.83 0 01-7.47 1.6.63.63 0 00-.42 1.17 18.26 18.26 0 009.9 2.9c5.9 0 10.53-2.46 13.64-5.99 3.11-3.52 4.73-8.1 4.73-12.38l-.02-.53c1.16-.9 2.2-1.93 3-3.15a.63.63 0 00-.78-.93c-.33.15-.71.16-1.05.28.45-.6.83-1.25 1.07-1.98a.63.63 0 00-.93-.73c-1.08.64-2.28 1.09-3.55 1.36a6.81 6.81 0 00-4.64-1.92zm0 1.27a5.6 5.6 0 014.1 1.78c.14.16.37.22.58.18.83-.17 1.61-.4 2.38-.71-.44.59-.99 1.1-1.62 1.48a.63.63 0 00.41 1.19c.63-.08 1.2-.34 1.8-.5-.54.59-1.13 1.12-1.78 1.58a.63.63 0 00-.26.56l.02.77a17.8 17.8 0 01-4.4 11.53 16.45 16.45 0 01-12.7 5.58c-2.53 0-4.92-.56-7.07-1.54a13.1 13.1 0 007.12-2.71.63.63 0 00-.37-1.13 5.54 5.54 0 01-4.77-2.97h.1a6.9 6.9 0 001.82-.23.63.63 0 00-.04-1.23 5.56 5.56 0 01-4.33-4.57c.63.22 1.29.4 2 .41a.63.63 0 00.37-1.16 5.6 5.6 0 01-2.5-4.67c0-.72.2-1.39.44-2.02a18.27 18.27 0 0012.6 6.03c.2.01.4-.07.52-.22a.63.63 0 00.14-.55 5.59 5.59 0 015.44-6.88z" fill="#F2F6FC" fill-opacity=".8" stroke="#F2F6FC" stroke-opacity=".8" stroke-width=".47"/></svg>