<svg width="72" height="72" fill="none" xmlns="http://www.w3.org/2000/svg"><g filter="url(#filter0_bdi)" stroke="#F2F6FC"><circle cx="36" cy="36" r="25" stroke-width="2"/><path d="M23.2808 29.8156c0-4.0568 3.3112-7.3681 7.3681-7.3681h11.5355c4.0568 0 7.3681 3.3113 7.3681 7.3681v11.5355c0 4.0569-3.3113 7.3681-7.3681 7.3681H30.6489c-4.0569 0-7.3681-3.3112-7.3681-7.3681V29.8156zm18.9036-6.481H30.6489c-3.5952 0-6.481 2.8906-6.481 6.481v11.5355c0 3.5952 2.8905 6.481 6.481 6.481h11.5355c3.5951 0 6.481-2.8905 6.481-6.481V29.8156c0-3.5951-2.8906-6.481-6.481-6.481zm1.1925 4.3161c0-.5367.4357-.9724.9724-.9724.5367 0 .9724.4357.9724.9724 0 .5367-.4357.9724-.9724.9724-.5367 0-.9724-.4357-.9724-.9724zm-13.75 7.9327c0-3.7387 3.051-6.7897 6.7897-6.7897 3.7387 0 6.7897 3.051 6.7897 6.7897 0 3.7387-3.051 6.7897-6.7897 6.7897-3.7387 0-6.7897-3.051-6.7897-6.7897zm12.6923 0c0-3.2727-2.6299-5.9026-5.9026-5.9026-3.2726 0-5.9026 2.6299-5.9026 5.9026 0 3.2726 2.63 5.9026 5.9026 5.9026 3.2727 0 5.9026-2.63 5.9026-5.9026z" fill="#F2F6FC" stroke-width="1.22829"/></g><defs><filter id="filter0_bdi" x="0" y="0" width="72" height="72" filterUnits="userSpaceOnUse" color-interpolation-filters="sRGB"><feFlood flood-opacity="0" result="BackgroundImageFix"/><feGaussianBlur in="BackgroundImage" stdDeviation="2.5"/><feComposite in2="SourceAlpha" operator="in" result="effect1_backgroundBlur"/><feColorMatrix in="SourceAlpha" values="0 0 0 0 0 0 0 0 0 0 0 0 0 0 0 0 0 0 127 0"/><feOffset/><feGaussianBlur stdDeviation="5"/><feColorMatrix values="0 0 0 0 1 0 0 0 0 0.364706 0 0 0 0 0.160784 0 0 0 1 0"/><feBlend in2="effect1_backgroundBlur" result="effect2_dropShadow"/><feBlend in="SourceGraphic" in2="effect2_dropShadow" result="shape"/><feColorMatrix in="SourceAlpha" values="0 0 0 0 0 0 0 0 0 0 0 0 0 0 0 0 0 0 127 0" result="hardAlpha"/><feOffset dy="4"/><feGaussianBlur stdDeviation="10"/><feComposite in2="hardAlpha" operator="arithmetic" k2="-1" k3="1"/><feColorMatrix values="0 0 0 0 1 0 0 0 0 0.364706 0 0 0 0 0.160784 0 0 0 0.6 0"/><feBlend in2="shape" result="effect3_innerShadow"/></filter></defs></svg>