<svg width="52" height="52" fill="none" xmlns="http://www.w3.org/2000/svg"><circle cx="26" cy="26" r="25" stroke="#F2F6FC" stroke-opacity=".8" stroke-width="2"/><path d="M20.6489 11.8333c-4.396 0-7.9823 3.5863-7.9823 7.9823V31.351c0 4.3961 3.5863 7.9823 7.9823 7.9823h11.5355c4.396 0 7.9822-3.5862 7.9822-7.9823V19.8156c0-4.396-3.5862-7.9823-7.9822-7.9823H20.6489zm0 2.1154h11.5355c3.2515 0 5.8668 2.6112 5.8668 5.8669V31.351c0 3.2516-2.6111 5.8669-5.8668 5.8669H20.6489c-3.2516 0-5.8669-2.6111-5.8669-5.8669V19.8156c0-3.2516 2.6112-5.8669 5.8669-5.8669zm13.7004 2.1154c-.8759 0-1.5865.7106-1.5865 1.5865s.7106 1.5866 1.5865 1.5866 1.5866-.7107 1.5866-1.5866-.7107-1.5865-1.5866-1.5865zm-7.9327 2.1154c-4.0779 0-7.4038 3.3259-7.4038 7.4038 0 4.0779 3.3259 7.4039 7.4038 7.4039 4.0779 0 7.4039-3.326 7.4039-7.4039s-3.326-7.4038-7.4039-7.4038zm0 2.1154c2.9335 0 5.2885 2.355 5.2885 5.2884 0 2.9335-2.355 5.2885-5.2885 5.2885-2.9334 0-5.2884-2.355-5.2884-5.2885 0-2.9334 2.355-5.2884 5.2884-5.2884z" fill="#F2F6FC" fill-opacity=".8"/><path d="M13.2808 19.8156c0-4.0569 3.3112-7.3681 7.3681-7.3681h11.5355c4.0568 0 7.3681 3.3112 7.3681 7.3681V31.351c0 4.0569-3.3113 7.3682-7.3681 7.3682H20.6489c-4.0569 0-7.3681-3.3113-7.3681-7.3682V19.8156zm18.9036-6.481H20.6489c-3.5952 0-6.481 2.8905-6.481 6.481V31.351c0 3.5952 2.8905 6.4811 6.481 6.4811h11.5355c3.5951 0 6.481-2.8906 6.481-6.4811V19.8156c0-3.5952-2.8906-6.481-6.481-6.481zm1.1925 4.316c0-.5367.4357-.9724.9724-.9724.5367 0 .9724.4357.9724.9724 0 .5367-.4357.9724-.9724.9724-.5367 0-.9724-.4357-.9724-.9724zm-13.75 7.9327c0-3.7387 3.051-6.7897 6.7897-6.7897 3.7387 0 6.7897 3.051 6.7897 6.7897 0 3.7387-3.051 6.7897-6.7897 6.7897-3.7387 0-6.7897-3.051-6.7897-6.7897zm12.6923 0c0-3.2726-2.6299-5.9026-5.9026-5.9026-3.2726 0-5.9026 2.63-5.9026 5.9026 0 3.2726 2.63 5.9026 5.9026 5.9026 3.2727 0 5.9026-2.63 5.9026-5.9026z" stroke="#F2F6FC" stroke-opacity=".8" stroke-width="1.22829"/></svg>